<svg width="794" height="794" viewBox="0 0 794 794" fill="none" xmlns="http://www.w3.org/2000/svg">
<path d="M396.596 778.006C186.535 778.006 15.6367 607.099 15.6367 397.027C15.6367 186.955 186.535 16.048 396.596 16.048C606.669 16.048 777.575 186.955 777.575 397.027C777.575 607.099 606.669 778.006 396.596 778.006Z" fill="white"/>
<path d="M396.595 31.672C494.186 31.672 585.935 69.675 654.941 138.68C723.946 207.686 761.95 299.435 761.95 397.026C761.95 494.617 723.947 586.366 654.941 655.371C585.935 724.376 494.186 762.38 396.595 762.38C299.013 762.38 207.271 724.377 138.268 655.372C69.2638 586.365 31.2617 494.616 31.2617 397.026C31.2617 299.435 69.2638 207.687 138.268 138.68C207.271 69.675 299.013 31.672 396.595 31.672ZM396.595 0.421997C177.574 0.421997 0.0117188 177.985 0.0117188 397.026C0.0117188 616.067 177.575 793.63 396.595 793.63C615.637 793.63 793.199 616.067 793.199 397.026C793.199 177.984 615.637 0.421997 396.595 0.421997Z" fill="#012D56"/>
<path d="M793.2 397.026H0.0117188C0.0117188 177.984 177.575 0.421997 396.595 0.421997C615.637 0.421997 793.2 177.984 793.2 397.026Z" fill="#012D56"/>
<path d="M396.605 333.194C328.001 333.194 272.188 277.38 272.188 208.777C272.188 140.172 328.002 84.359 396.605 84.359C465.208 84.359 521.023 140.173 521.023 208.777C521.023 277.381 465.209 333.194 396.605 333.194ZM396.605 101.026C337.191 101.026 288.854 149.363 288.854 208.778C288.854 268.192 337.192 316.528 396.605 316.528C456.019 316.528 504.356 268.191 504.356 208.778C504.357 149.362 456.019 101.026 396.605 101.026Z" fill="white"/>
<path d="M373.321 246V173.273H421.474V185.95H388.697V203.28H418.278V215.957H388.697V246H373.321Z" fill="white"/>
<g clip-path="url(#clip0_31_719)">
<path d="M324.87 599.715V604.049C324.87 604.692 325.126 605.309 325.581 605.764C326.036 606.219 326.653 606.474 327.296 606.474C327.939 606.474 328.556 606.219 329.011 605.764C329.466 605.309 329.722 604.692 329.722 604.049V600.161C330.176 600.115 330.627 600.042 331.072 599.941C335.977 598.813 339.067 594.87 339.138 589.649C339.247 581.558 333.968 579.767 329.722 578.676V566.38C330.838 566.662 331.863 567.226 332.698 568.018C333.534 568.809 334.151 569.803 334.492 570.902C334.591 571.205 334.749 571.485 334.957 571.727C335.164 571.969 335.417 572.168 335.701 572.312C335.985 572.456 336.295 572.543 336.613 572.567C336.93 572.592 337.25 572.553 337.552 572.454C337.855 572.355 338.136 572.197 338.377 571.99C338.619 571.783 338.818 571.53 338.962 571.246C339.106 570.961 339.193 570.652 339.217 570.334C339.242 570.016 339.203 569.697 339.104 569.394C338.459 567.312 337.234 565.456 335.573 564.044C333.912 562.631 331.884 561.721 329.725 561.419V557.961C329.725 557.318 329.469 556.701 329.014 556.246C328.559 555.791 327.942 555.536 327.299 555.536C326.655 555.536 326.038 555.791 325.584 556.246C325.129 556.701 324.873 557.318 324.873 557.961V561.607C320.224 562.73 317.135 566.427 317.081 571.085C316.995 578.585 320.953 581.094 324.873 582.382V594.56C322.719 593.507 320.988 591.751 319.965 589.583C319.676 589.007 319.171 588.57 318.56 588.368C317.949 588.165 317.283 588.214 316.707 588.502C316.132 588.791 315.695 589.296 315.492 589.907C315.29 590.518 315.338 591.185 315.627 591.76C317.868 596.227 321.368 598.722 324.87 599.715ZM334.287 589.583C334.246 592.542 332.679 594.593 329.985 595.212C329.9 595.232 329.809 595.244 329.722 595.26V583.708C332.906 584.643 334.338 585.74 334.287 589.583ZM321.93 571.141C321.918 570.193 322.192 569.264 322.717 568.475C323.241 567.685 323.992 567.073 324.87 566.717V577.188C322.954 576.239 321.889 574.681 321.93 571.141ZM354.624 498.24C354.624 497.597 354.88 496.98 355.335 496.525C355.79 496.07 356.407 495.814 357.05 495.814H426.328C426.971 495.814 427.588 496.07 428.043 496.525C428.498 496.98 428.753 497.597 428.753 498.24C428.753 498.883 428.498 499.5 428.043 499.955C427.588 500.41 426.971 500.666 426.328 500.666H357.05C356.407 500.666 355.79 500.41 355.335 499.955C354.88 499.5 354.624 498.883 354.624 498.24ZM354.624 515.928C354.624 515.284 354.88 514.667 355.335 514.212C355.79 513.757 356.407 513.502 357.05 513.502H426.328C426.971 513.502 427.588 513.757 428.043 514.212C428.498 514.667 428.753 515.284 428.753 515.928C428.753 516.571 428.498 517.188 428.043 517.643C427.588 518.098 426.971 518.353 426.328 518.353H357.05C356.407 518.353 355.79 518.098 355.335 517.643C354.88 517.188 354.624 516.571 354.624 515.928ZM354.624 533.616C354.624 532.972 354.88 532.355 355.335 531.9C355.79 531.445 356.407 531.19 357.05 531.19H426.328C426.971 531.19 427.588 531.445 428.043 531.9C428.498 532.355 428.753 532.972 428.753 533.616C428.753 534.259 428.498 534.876 428.043 535.331C427.588 535.786 426.971 536.041 426.328 536.041H357.05C356.407 536.041 355.79 535.786 355.335 535.331C354.88 534.876 354.624 534.259 354.624 533.616ZM483.094 542.617H472.099V500.452C472.099 499.817 471.849 499.207 471.404 498.754L444.822 471.677C444.597 471.447 444.327 471.264 444.03 471.139C443.733 471.014 443.414 470.95 443.091 470.95H341.287C340.644 470.95 340.027 471.205 339.572 471.66C339.117 472.115 338.862 472.732 338.862 473.375V547.711C331.632 545.174 323.769 545.081 316.481 547.446C309.193 549.81 302.883 554.502 298.519 560.8C294.155 567.098 291.979 574.654 292.326 582.308C292.672 589.963 295.521 597.291 300.436 603.17C289.441 605.377 283 609.686 283 615C283 615.271 283.006 615.525 283 615.793V646.736C283 655.476 299.718 660.049 316.233 660.049C323.719 660.049 331.246 659.11 337.24 657.269C343.086 659.062 350.504 660.049 358.199 660.049C374.625 660.049 391.248 655.54 391.522 646.918C391.525 646.877 391.529 646.833 391.529 646.79V643.954H403.157V651.676C403.159 653.507 403.887 655.263 405.182 656.558C406.477 657.853 408.232 658.581 410.063 658.583H483.094C484.925 658.581 486.681 657.852 487.976 656.557C489.271 655.262 489.999 653.506 490 651.674V549.522C489.998 547.691 489.269 545.936 487.975 544.641C486.68 543.347 484.925 542.619 483.094 542.617ZM445.425 479.216L463.497 497.625H445.425V479.216ZM327.296 550.598C333.259 550.598 339.089 552.367 344.047 555.68C349.006 558.993 352.87 563.702 355.153 569.212C357.435 574.721 358.032 580.784 356.868 586.633C355.705 592.482 352.833 597.854 348.616 602.071C344.399 606.288 339.027 609.159 333.178 610.323C327.329 611.486 321.266 610.889 315.757 608.607C310.247 606.325 305.538 602.46 302.225 597.502C298.912 592.543 297.144 586.714 297.144 580.75C297.153 572.756 300.332 565.092 305.985 559.439C311.638 553.786 319.302 550.607 327.296 550.598ZM287.852 622.275C294.009 626.259 305.166 628.313 316.233 628.313C327.3 628.313 338.457 626.259 344.615 622.275V630.538C344.613 631.827 342.672 634.015 337.209 635.947C331.643 637.914 324.194 638.998 316.233 638.998C308.272 638.998 300.823 637.914 295.257 635.947C289.795 634.016 287.854 631.827 287.852 630.538V622.275ZM358.937 595.709C369.8 595.62 380.641 593.561 386.677 589.649V597.948C386.677 599.242 384.73 601.445 379.243 603.384C373.659 605.358 366.184 606.445 358.199 606.445C355.862 606.445 353.571 606.349 351.34 606.164C354.497 603.178 357.072 599.633 358.937 595.709ZM386.677 614.2C386.677 615.493 384.73 617.696 379.243 619.635C373.659 621.609 366.184 622.696 358.199 622.696C355.282 622.697 352.367 622.541 349.466 622.231V615.795C349.461 615.527 349.466 615.269 349.466 615.001C349.441 613.431 348.89 611.913 347.903 610.692C351.319 611.1 354.758 611.303 358.199 611.298C369.306 611.298 380.504 609.236 386.677 605.234L386.677 614.2ZM349.466 630.542V627.112C352.368 627.403 355.283 627.549 358.199 627.547C369.306 627.547 380.505 625.486 386.677 621.483V630.45C386.677 631.744 384.73 633.947 379.243 635.886C373.659 637.86 366.184 638.947 358.199 638.947C355.282 638.947 352.367 638.792 349.466 638.481V630.542ZM379.243 587.8C374.275 589.556 367.81 590.608 360.821 590.819C362.464 585.343 362.742 579.548 361.632 573.939C377.004 574.554 386.677 579.185 386.677 582.364C386.677 583.66 384.73 585.861 379.243 587.8ZM304.592 607.368C309.762 611.788 316.109 614.603 322.855 615.468C329.602 616.333 336.454 615.211 342.572 612.238C343.88 613.2 344.615 614.181 344.615 614.998C344.615 616.287 342.674 618.478 337.209 620.41C331.643 622.377 324.194 623.46 316.233 623.46C308.272 623.46 300.823 622.377 295.257 620.41C289.792 618.479 287.852 616.289 287.852 615C287.852 612.851 293.053 609.095 304.592 607.369L304.592 607.368ZM295.257 652.147C289.792 650.216 287.852 648.025 287.852 646.736V637.81C294.009 641.795 305.166 643.849 316.233 643.849C327.3 643.849 338.457 641.795 344.615 637.81V646.736C344.615 648.025 342.674 650.216 337.209 652.147C331.643 654.115 324.194 655.198 316.233 655.198C308.272 655.198 300.823 654.115 295.257 652.147ZM379.243 652.138C373.659 654.111 366.184 655.198 358.199 655.198C353.63 655.214 349.069 654.827 344.568 654.041C347.628 652.074 349.467 649.634 349.467 646.737V643.362C352.369 643.654 355.283 643.799 358.2 643.799C369.307 643.799 380.505 641.737 386.677 637.735V646.701C386.677 647.997 384.73 650.2 379.243 652.138ZM391.529 639.103V582.931C391.526 582.741 391.529 582.555 391.529 582.365C391.529 574.023 376.008 569.41 360.283 569.042C357.337 560.806 351.43 553.963 343.713 549.844V475.802H440.573V500.05C440.573 500.694 440.829 501.311 441.284 501.766C441.739 502.221 442.356 502.476 442.999 502.476H467.248V542.617H410.064C408.344 542.619 406.688 543.262 405.417 544.42C404.146 545.578 403.353 547.167 403.191 548.879H357.05C356.407 548.879 355.79 549.135 355.335 549.589C354.88 550.044 354.624 550.661 354.624 551.305C354.624 551.948 354.88 552.565 355.335 553.02C355.79 553.475 356.407 553.731 357.05 553.731H403.157V639.103H391.529ZM485.148 651.674C485.148 652.219 484.931 652.741 484.546 653.127C484.161 653.512 483.639 653.729 483.094 653.729H410.064C409.519 653.729 408.997 653.512 408.611 653.127C408.226 652.741 408.01 652.219 408.009 651.674V549.522C408.01 548.977 408.226 548.455 408.611 548.07C408.997 547.684 409.519 547.468 410.064 547.467H483.094C483.639 547.468 484.161 547.684 484.546 548.07C484.931 548.455 485.148 548.977 485.148 549.522V651.674ZM474.133 556.058H419.024C418.381 556.058 417.764 556.314 417.309 556.769C416.854 557.223 416.598 557.84 416.598 558.484V578.422C416.598 579.065 416.854 579.682 417.309 580.137C417.764 580.592 418.381 580.848 419.024 580.848H474.133C474.777 580.848 475.394 580.592 475.849 580.137C476.304 579.682 476.559 579.065 476.559 578.422V558.483C476.559 557.839 476.304 557.222 475.849 556.767C475.394 556.312 474.777 556.057 474.133 556.057V556.058ZM471.708 575.996H421.45V560.908H471.708V575.996ZM452.404 628.639H440.754C440.111 628.639 439.494 628.895 439.039 629.35C438.584 629.804 438.328 630.421 438.328 631.065V642.714C438.328 643.357 438.584 643.974 439.039 644.429C439.494 644.884 440.111 645.14 440.754 645.14H452.404C453.047 645.14 453.664 644.884 454.119 644.429C454.574 643.974 454.829 643.357 454.829 642.714V631.065C454.829 630.421 454.574 629.804 454.119 629.35C453.664 628.895 453.047 628.639 452.404 628.639ZM449.978 640.288H443.18V633.491H449.978V640.288ZM430.673 628.639H419.024C418.381 628.639 417.764 628.895 417.309 629.35C416.854 629.804 416.598 630.421 416.598 631.065V642.714C416.598 643.357 416.854 643.974 417.309 644.429C417.764 644.884 418.381 645.14 419.024 645.14H430.673C431.317 645.14 431.934 644.884 432.389 644.429C432.844 643.974 433.099 643.357 433.099 642.714V631.065C433.099 630.421 432.844 629.804 432.389 629.35C431.934 628.895 431.317 628.639 430.673 628.639ZM428.248 640.288H421.45V633.491H428.248V640.288ZM430.673 585.179H419.024C418.381 585.179 417.764 585.434 417.309 585.889C416.854 586.344 416.598 586.961 416.598 587.605V599.254C416.598 599.897 416.854 600.514 417.309 600.969C417.764 601.424 418.381 601.679 419.024 601.679H430.673C431.317 601.679 431.934 601.424 432.389 600.969C432.844 600.514 433.099 599.897 433.099 599.254V587.605C433.099 586.961 432.844 586.344 432.389 585.889C431.934 585.434 431.317 585.179 430.673 585.179ZM428.248 596.828H421.45V590.03H428.248V596.828ZM430.673 606.909H419.024C418.381 606.909 417.764 607.164 417.309 607.619C416.854 608.074 416.598 608.691 416.598 609.335V620.984C416.598 621.627 416.854 622.244 417.309 622.699C417.764 623.154 418.381 623.409 419.024 623.409H430.673C431.317 623.409 431.934 623.154 432.389 622.699C432.844 622.244 433.099 621.627 433.099 620.984V609.335C433.099 608.691 432.844 608.074 432.389 607.619C431.934 607.164 431.317 606.909 430.673 606.909ZM428.248 618.558H421.45V611.76H428.248V618.558ZM452.404 585.179H440.754C440.111 585.179 439.494 585.434 439.039 585.889C438.584 586.344 438.328 586.961 438.328 587.605V599.254C438.328 599.897 438.584 600.514 439.039 600.969C439.494 601.424 440.111 601.679 440.754 601.679H452.404C453.047 601.679 453.664 601.424 454.119 600.969C454.574 600.514 454.829 599.897 454.829 599.254V587.605C454.829 586.961 454.574 586.344 454.119 585.889C453.664 585.434 453.047 585.179 452.404 585.179ZM449.978 596.828H443.18V590.03H449.978V596.828ZM474.133 585.179H462.484C461.841 585.179 461.224 585.434 460.769 585.889C460.314 586.344 460.059 586.961 460.059 587.605V599.254C460.059 599.897 460.314 600.514 460.769 600.969C461.224 601.424 461.841 601.679 462.484 601.679H474.133C474.777 601.679 475.394 601.424 475.849 600.969C476.304 600.514 476.559 599.897 476.559 599.254V587.605C476.559 586.961 476.304 586.344 475.849 585.889C475.394 585.434 474.777 585.179 474.133 585.179ZM471.708 596.828H464.91V590.03H471.708V596.828ZM452.404 606.909H440.754C440.111 606.909 439.494 607.164 439.039 607.619C438.584 608.074 438.328 608.691 438.328 609.335V620.984C438.328 621.627 438.584 622.244 439.039 622.699C439.494 623.154 440.111 623.409 440.754 623.409H452.404C453.047 623.409 453.664 623.154 454.119 622.699C454.574 622.244 454.829 621.627 454.829 620.984V609.335C454.829 608.691 454.574 608.074 454.119 607.619C453.664 607.164 453.047 606.909 452.404 606.909ZM449.978 618.558H443.18V611.76H449.978V618.558ZM474.133 606.909H462.484C461.841 606.909 461.224 607.164 460.769 607.619C460.314 608.074 460.059 608.691 460.059 609.335V642.714C460.059 643.357 460.314 643.974 460.769 644.429C461.224 644.884 461.841 645.14 462.484 645.14H474.133C474.777 645.14 475.394 644.884 475.849 644.429C476.304 643.974 476.559 643.357 476.559 642.714V609.335C476.559 608.691 476.304 608.074 475.849 607.619C475.394 607.164 474.777 606.909 474.133 606.909ZM471.708 640.288H464.91V611.76H471.708V640.288Z" fill="#012D56"/>
</g>
<defs>
<clipPath id="clip0_31_719">
<rect width="207" height="207" fill="white" transform="translate(283 462)"/>
</clipPath>
</defs>
</svg>
