<svg width="794" height="794" viewBox="0 0 794 794" fill="none" xmlns="http://www.w3.org/2000/svg">
<path d="M396.6 778.006C186.539 778.006 15.6406 607.099 15.6406 397.027C15.6406 186.955 186.539 16.048 396.6 16.048C606.673 16.048 777.579 186.955 777.579 397.027C777.579 607.099 606.673 778.006 396.6 778.006Z" fill="white"/>
<path d="M396.599 31.672C494.19 31.672 585.939 69.675 654.945 138.68C723.95 207.686 761.954 299.435 761.954 397.026C761.954 494.617 723.951 586.366 654.945 655.371C585.939 724.376 494.19 762.38 396.599 762.38C299.017 762.38 207.275 724.377 138.272 655.372C69.2677 586.365 31.2656 494.616 31.2656 397.026C31.2656 299.435 69.2677 207.687 138.272 138.68C207.275 69.675 299.017 31.672 396.599 31.672ZM396.599 0.421997C177.578 0.421997 0.015625 177.985 0.015625 397.026C0.015625 616.067 177.579 793.63 396.599 793.63C615.641 793.63 793.203 616.067 793.203 397.026C793.203 177.984 615.641 0.421997 396.599 0.421997Z" fill="#012D56"/>
<path d="M793.202 397.026H0.0136719C0.0136719 177.984 177.577 0.421997 396.597 0.421997C615.639 0.421997 793.202 177.984 793.202 397.026Z" fill="#012D56"/>
<path d="M396.607 333.194C328.003 333.194 272.189 277.38 272.189 208.777C272.189 140.172 328.004 84.359 396.607 84.359C465.21 84.359 521.025 140.173 521.025 208.777C521.025 277.381 465.211 333.194 396.607 333.194ZM396.607 101.026C337.193 101.026 288.856 149.363 288.856 208.778C288.856 268.192 337.194 316.528 396.607 316.528C456.021 316.528 504.358 268.191 504.358 208.778C504.359 149.362 456.021 101.026 396.607 101.026Z" fill="white"/>
<path d="M373.323 246V173.273H421.476V185.95H388.699V203.28H418.28V215.957H388.699V246H373.323Z" fill="white"/>
<g clip-path="url(#clip0_31_719)">
<path d="M324.872 599.715V604.049C324.872 604.692 325.128 605.309 325.583 605.764C326.038 606.219 326.655 606.474 327.298 606.474C327.941 606.474 328.558 606.219 329.013 605.764C329.468 605.309 329.724 604.692 329.724 604.049V600.161C330.178 600.115 330.629 600.042 331.074 599.941C335.979 598.813 339.069 594.87 339.14 589.649C339.249 581.558 333.97 579.767 329.724 578.676V566.38C330.84 566.662 331.865 567.226 332.7 568.018C333.536 568.809 334.153 569.803 334.494 570.902C334.593 571.205 334.751 571.485 334.958 571.727C335.166 571.969 335.419 572.168 335.703 572.312C335.987 572.456 336.297 572.543 336.615 572.567C336.932 572.592 337.252 572.553 337.554 572.454C337.857 572.355 338.138 572.197 338.379 571.99C338.621 571.783 338.82 571.53 338.964 571.246C339.108 570.961 339.195 570.652 339.219 570.334C339.244 570.016 339.205 569.697 339.106 569.394C338.461 567.312 337.236 565.456 335.575 564.044C333.914 562.631 331.886 561.721 329.727 561.419V557.961C329.727 557.318 329.471 556.701 329.016 556.246C328.561 555.791 327.944 555.536 327.301 555.536C326.657 555.536 326.04 555.791 325.585 556.246C325.131 556.701 324.875 557.318 324.875 557.961V561.607C320.226 562.73 317.137 566.427 317.083 571.085C316.997 578.585 320.955 581.094 324.875 582.382V594.56C322.721 593.507 320.99 591.751 319.967 589.583C319.678 589.007 319.173 588.57 318.562 588.368C317.951 588.165 317.284 588.214 316.709 588.502C316.134 588.791 315.697 589.296 315.494 589.907C315.292 590.518 315.34 591.185 315.629 591.76C317.87 596.227 321.37 598.722 324.872 599.715ZM334.289 589.583C334.248 592.542 332.681 594.593 329.987 595.212C329.902 595.232 329.811 595.244 329.724 595.26V583.708C332.908 584.643 334.34 585.74 334.289 589.583ZM321.932 571.141C321.92 570.193 322.194 569.264 322.719 568.475C323.243 567.685 323.994 567.073 324.872 566.717V577.188C322.956 576.239 321.891 574.681 321.932 571.141ZM354.626 498.24C354.626 497.597 354.882 496.98 355.337 496.525C355.792 496.07 356.409 495.814 357.052 495.814H426.33C426.973 495.814 427.59 496.07 428.045 496.525C428.5 496.98 428.755 497.597 428.755 498.24C428.755 498.883 428.5 499.5 428.045 499.955C427.59 500.41 426.973 500.666 426.33 500.666H357.052C356.409 500.666 355.792 500.41 355.337 499.955C354.882 499.5 354.626 498.883 354.626 498.24ZM354.626 515.928C354.626 515.284 354.882 514.667 355.337 514.212C355.792 513.757 356.409 513.502 357.052 513.502H426.33C426.973 513.502 427.59 513.757 428.045 514.212C428.5 514.667 428.755 515.284 428.755 515.928C428.755 516.571 428.5 517.188 428.045 517.643C427.59 518.098 426.973 518.353 426.33 518.353H357.052C356.409 518.353 355.792 518.098 355.337 517.643C354.882 517.188 354.626 516.571 354.626 515.928ZM354.626 533.616C354.626 532.972 354.882 532.355 355.337 531.9C355.792 531.445 356.409 531.19 357.052 531.19H426.33C426.973 531.19 427.59 531.445 428.045 531.9C428.5 532.355 428.755 532.972 428.755 533.616C428.755 534.259 428.5 534.876 428.045 535.331C427.59 535.786 426.973 536.041 426.33 536.041H357.052C356.409 536.041 355.792 535.786 355.337 535.331C354.882 534.876 354.626 534.259 354.626 533.616ZM483.096 542.617H472.101V500.452C472.101 499.817 471.851 499.207 471.406 498.754L444.824 471.677C444.599 471.447 444.329 471.264 444.032 471.139C443.735 471.014 443.416 470.95 443.093 470.95H341.289C340.646 470.95 340.029 471.205 339.574 471.66C339.119 472.115 338.864 472.732 338.864 473.375V547.711C331.634 545.174 323.771 545.081 316.483 547.446C309.195 549.81 302.885 554.502 298.521 560.8C294.157 567.098 291.981 574.654 292.328 582.308C292.674 589.963 295.523 597.291 300.438 603.17C289.443 605.377 283.002 609.686 283.002 615C283.002 615.271 283.008 615.525 283.002 615.793V646.736C283.002 655.476 299.72 660.049 316.235 660.049C323.721 660.049 331.248 659.11 337.242 657.269C343.088 659.062 350.506 660.049 358.201 660.049C374.627 660.049 391.25 655.54 391.524 646.918C391.527 646.877 391.531 646.833 391.531 646.79V643.954H403.159V651.676C403.161 653.507 403.889 655.263 405.184 656.558C406.479 657.853 408.234 658.581 410.065 658.583H483.096C484.927 658.581 486.683 657.852 487.978 656.557C489.273 655.262 490.001 653.506 490.002 651.674V549.522C490 547.691 489.271 545.936 487.977 544.641C486.682 543.347 484.927 542.619 483.096 542.617ZM445.427 479.216L463.499 497.625H445.427V479.216ZM327.298 550.598C333.261 550.598 339.091 552.367 344.049 555.68C349.008 558.993 352.872 563.702 355.155 569.212C357.437 574.721 358.034 580.784 356.87 586.633C355.707 592.482 352.835 597.854 348.618 602.071C344.401 606.288 339.029 609.159 333.18 610.323C327.331 611.486 321.268 610.889 315.759 608.607C310.249 606.325 305.54 602.46 302.227 597.502C298.914 592.543 297.145 586.714 297.145 580.75C297.154 572.756 300.334 565.092 305.987 559.439C311.64 553.786 319.304 550.607 327.298 550.598ZM287.854 622.275C294.011 626.259 305.168 628.313 316.235 628.313C327.302 628.313 338.459 626.259 344.617 622.275V630.538C344.615 631.827 342.674 634.015 337.211 635.947C331.645 637.914 324.196 638.998 316.235 638.998C308.274 638.998 300.825 637.914 295.259 635.947C289.797 634.016 287.856 631.827 287.854 630.538V622.275ZM358.939 595.709C369.802 595.62 380.643 593.561 386.679 589.649V597.948C386.679 599.242 384.732 601.445 379.245 603.384C373.661 605.358 366.186 606.445 358.201 606.445C355.864 606.445 353.573 606.349 351.342 606.164C354.499 603.178 357.074 599.633 358.939 595.709ZM386.679 614.2C386.679 615.493 384.732 617.696 379.245 619.635C373.661 621.609 366.186 622.696 358.201 622.696C355.284 622.697 352.369 622.541 349.468 622.231V615.795C349.463 615.527 349.468 615.269 349.468 615.001C349.443 613.431 348.892 611.913 347.905 610.692C351.321 611.1 354.76 611.303 358.201 611.298C369.308 611.298 380.506 609.236 386.679 605.234L386.679 614.2ZM349.468 630.542V627.112C352.37 627.403 355.285 627.549 358.201 627.547C369.308 627.547 380.507 625.486 386.679 621.483V630.45C386.679 631.744 384.732 633.947 379.245 635.886C373.661 637.86 366.186 638.947 358.201 638.947C355.284 638.947 352.369 638.792 349.468 638.481V630.542ZM379.245 587.8C374.277 589.556 367.812 590.608 360.823 590.819C362.466 585.343 362.744 579.548 361.634 573.939C377.006 574.554 386.679 579.185 386.679 582.364C386.679 583.66 384.732 585.861 379.245 587.8ZM304.594 607.368C309.764 611.788 316.111 614.603 322.857 615.468C329.604 616.333 336.456 615.211 342.573 612.238C343.882 613.2 344.617 614.181 344.617 614.998C344.617 616.287 342.676 618.478 337.211 620.41C331.645 622.377 324.196 623.46 316.235 623.46C308.274 623.46 300.825 622.377 295.259 620.41C289.794 618.479 287.854 616.289 287.854 615C287.854 612.851 293.055 609.095 304.594 607.369L304.594 607.368ZM295.259 652.147C289.794 650.216 287.854 648.025 287.854 646.736V637.81C294.011 641.795 305.168 643.849 316.235 643.849C327.302 643.849 338.459 641.795 344.617 637.81V646.736C344.617 648.025 342.676 650.216 337.211 652.147C331.645 654.115 324.196 655.198 316.235 655.198C308.274 655.198 300.825 654.115 295.259 652.147ZM379.245 652.138C373.661 654.111 366.186 655.198 358.201 655.198C353.632 655.214 349.071 654.827 344.57 654.041C347.63 652.074 349.469 649.634 349.469 646.737V643.362C352.371 643.654 355.285 643.799 358.202 643.799C369.309 643.799 380.507 641.737 386.679 637.735V646.701C386.679 647.997 384.732 650.2 379.245 652.138ZM391.531 639.103V582.931C391.528 582.741 391.531 582.555 391.531 582.365C391.531 574.023 376.01 569.41 360.285 569.042C357.339 560.806 351.432 553.963 343.715 549.844V475.802H440.575V500.05C440.575 500.694 440.831 501.311 441.286 501.766C441.741 502.221 442.358 502.476 443.001 502.476H467.25V542.617H410.066C408.346 542.619 406.69 543.262 405.419 544.42C404.148 545.578 403.354 547.167 403.193 548.879H357.052C356.409 548.879 355.792 549.135 355.337 549.589C354.882 550.044 354.626 550.661 354.626 551.305C354.626 551.948 354.882 552.565 355.337 553.02C355.792 553.475 356.409 553.731 357.052 553.731H403.159V639.103H391.531ZM485.15 651.674C485.15 652.219 484.933 652.741 484.548 653.127C484.163 653.512 483.641 653.729 483.096 653.729H410.066C409.521 653.729 408.998 653.512 408.613 653.127C408.228 652.741 408.011 652.219 408.011 651.674V549.522C408.011 548.977 408.228 548.455 408.613 548.07C408.999 547.684 409.521 547.468 410.066 547.467H483.096C483.641 547.468 484.163 547.684 484.548 548.07C484.933 548.455 485.15 548.977 485.15 549.522V651.674ZM474.135 556.058H419.026C418.383 556.058 417.766 556.314 417.311 556.769C416.856 557.223 416.6 557.84 416.6 558.484V578.422C416.6 579.065 416.856 579.682 417.311 580.137C417.766 580.592 418.383 580.848 419.026 580.848H474.135C474.779 580.848 475.396 580.592 475.851 580.137C476.306 579.682 476.561 579.065 476.561 578.422V558.483C476.561 557.839 476.306 557.222 475.851 556.767C475.396 556.312 474.779 556.057 474.135 556.057V556.058ZM471.71 575.996H421.452V560.908H471.71V575.996ZM452.406 628.639H440.756C440.113 628.639 439.496 628.895 439.041 629.35C438.586 629.804 438.33 630.421 438.33 631.065V642.714C438.33 643.357 438.586 643.974 439.041 644.429C439.496 644.884 440.113 645.14 440.756 645.14H452.406C453.049 645.14 453.666 644.884 454.121 644.429C454.576 643.974 454.831 643.357 454.831 642.714V631.065C454.831 630.421 454.576 629.804 454.121 629.35C453.666 628.895 453.049 628.639 452.406 628.639ZM449.98 640.288H443.182V633.491H449.98V640.288ZM430.675 628.639H419.026C418.383 628.639 417.766 628.895 417.311 629.35C416.856 629.804 416.6 630.421 416.6 631.065V642.714C416.6 643.357 416.856 643.974 417.311 644.429C417.766 644.884 418.383 645.14 419.026 645.14H430.675C431.319 645.14 431.936 644.884 432.391 644.429C432.846 643.974 433.101 643.357 433.101 642.714V631.065C433.101 630.421 432.846 629.804 432.391 629.35C431.936 628.895 431.319 628.639 430.675 628.639ZM428.25 640.288H421.452V633.491H428.25V640.288ZM430.675 585.179H419.026C418.383 585.179 417.766 585.434 417.311 585.889C416.856 586.344 416.6 586.961 416.6 587.605V599.254C416.6 599.897 416.856 600.514 417.311 600.969C417.766 601.424 418.383 601.679 419.026 601.679H430.675C431.319 601.679 431.936 601.424 432.391 600.969C432.846 600.514 433.101 599.897 433.101 599.254V587.605C433.101 586.961 432.846 586.344 432.391 585.889C431.936 585.434 431.319 585.179 430.675 585.179ZM428.25 596.828H421.452V590.03H428.25V596.828ZM430.675 606.909H419.026C418.383 606.909 417.766 607.164 417.311 607.619C416.856 608.074 416.6 608.691 416.6 609.335V620.984C416.6 621.627 416.856 622.244 417.311 622.699C417.766 623.154 418.383 623.409 419.026 623.409H430.675C431.319 623.409 431.936 623.154 432.391 622.699C432.846 622.244 433.101 621.627 433.101 620.984V609.335C433.101 608.691 432.846 608.074 432.391 607.619C431.936 607.164 431.319 606.909 430.675 606.909ZM428.25 618.558H421.452V611.76H428.25V618.558ZM452.406 585.179H440.756C440.113 585.179 439.496 585.434 439.041 585.889C438.586 586.344 438.33 586.961 438.33 587.605V599.254C438.33 599.897 438.586 600.514 439.041 600.969C439.496 601.424 440.113 601.679 440.756 601.679H452.406C453.049 601.679 453.666 601.424 454.121 600.969C454.576 600.514 454.831 599.897 454.831 599.254V587.605C454.831 586.961 454.576 586.344 454.121 585.889C453.666 585.434 453.049 585.179 452.406 585.179ZM449.98 596.828H443.182V590.03H449.98V596.828ZM474.135 585.179H462.486C461.843 585.179 461.226 585.434 460.771 585.889C460.316 586.344 460.061 586.961 460.061 587.605V599.254C460.061 599.897 460.316 600.514 460.771 600.969C461.226 601.424 461.843 601.679 462.486 601.679H474.135C474.779 601.679 475.396 601.424 475.851 600.969C476.306 600.514 476.561 599.897 476.561 599.254V587.605C476.561 586.961 476.306 586.344 475.851 585.889C475.396 585.434 474.779 585.179 474.135 585.179ZM471.71 596.828H464.912V590.03H471.71V596.828ZM452.406 606.909H440.756C440.113 606.909 439.496 607.164 439.041 607.619C438.586 608.074 438.33 608.691 438.33 609.335V620.984C438.33 621.627 438.586 622.244 439.041 622.699C439.496 623.154 440.113 623.409 440.756 623.409H452.406C453.049 623.409 453.666 623.154 454.121 622.699C454.576 622.244 454.831 621.627 454.831 620.984V609.335C454.831 608.691 454.576 608.074 454.121 607.619C453.666 607.164 453.049 606.909 452.406 606.909ZM449.98 618.558H443.182V611.76H449.98V618.558ZM474.135 606.909H462.486C461.843 606.909 461.226 607.164 460.771 607.619C460.316 608.074 460.061 608.691 460.061 609.335V642.714C460.061 643.357 460.316 643.974 460.771 644.429C461.226 644.884 461.843 645.14 462.486 645.14H474.135C474.779 645.14 475.396 644.884 475.851 644.429C476.306 643.974 476.561 643.357 476.561 642.714V609.335C476.561 608.691 476.306 608.074 475.851 607.619C475.396 607.164 474.779 606.909 474.135 606.909ZM471.71 640.288H464.912V611.76H471.71V640.288Z" fill="#012D56"/>
</g>
<defs>
<clipPath id="clip0_31_719">
<rect width="207" height="207" fill="white" transform="translate(283.002 462)"/>
</clipPath>
</defs>
</svg>
