<svg width="802" height="802" viewBox="0 0 802 802" fill="none" xmlns="http://www.w3.org/2000/svg">
<g filter="url(#filter0_d_31_720)">
<path d="M401.38 778.004C191.319 778.004 20.4219 607.097 20.4219 397.026C20.4219 186.953 191.319 16.047 401.38 16.047C611.453 16.047 782.359 186.954 782.359 397.026C782.36 607.098 611.453 778.004 401.38 778.004Z" fill="white"/>
<path d="M401.38 31.672C498.971 31.672 590.72 69.675 659.726 138.68C728.731 207.686 766.734 299.435 766.734 397.026C766.734 494.617 728.731 586.366 659.726 655.371C590.72 724.376 498.971 762.38 401.38 762.38C303.798 762.38 212.056 724.377 143.053 655.372C74.0489 586.365 36.0469 494.616 36.0469 397.026C36.0469 299.435 74.0489 207.687 143.053 138.68C212.056 69.675 303.798 31.672 401.38 31.672ZM401.38 0.421997C182.359 0.421997 4.79688 177.985 4.79688 397.026C4.79688 616.067 182.36 793.63 401.38 793.63C620.422 793.63 797.984 616.067 797.984 397.026C797.984 177.984 620.422 0.421997 401.38 0.421997Z" fill="#282C37"/>
<path d="M797.984 397.026H4.79688C4.79688 177.984 182.36 0.421997 401.38 0.421997C620.422 0.421997 797.984 177.984 797.984 397.026Z" fill="#282C37"/>
<path d="M401.391 333.194C332.787 333.194 276.973 277.38 276.973 208.777C276.973 140.172 332.787 84.359 401.391 84.359C469.996 84.359 525.809 140.173 525.809 208.777C525.809 277.381 469.996 333.194 401.391 333.194ZM401.391 101.026C341.976 101.026 293.64 149.363 293.64 208.778C293.64 268.192 341.977 316.528 401.391 316.528C460.806 316.528 509.142 268.191 509.142 208.778C509.142 149.362 460.806 101.026 401.391 101.026Z" fill="white"/>
<path d="M369.321 244V171.273H384.697V201.28H415.912V171.273H431.253V244H415.912V213.957H384.697V244H369.321Z" fill="white"/>
<path fill-rule="evenodd" clip-rule="evenodd" d="M372.801 518.139C383.851 521.558 393.206 529.017 399 539.028C402.831 532.385 408.272 526.812 414.821 522.822C421.37 518.831 428.818 516.552 436.478 516.194C434.569 509.471 431.526 502.391 427.351 494.955C426.2 500.163 423.958 505.096 419.484 507.359C419.09 507.558 418.656 507.664 418.214 507.667C417.773 507.67 417.336 507.571 416.94 507.377C416.543 507.184 416.196 506.901 415.927 506.551C415.658 506.202 415.473 505.794 415.387 505.361C412.868 495.068 409.482 486.159 405.229 478.633C402.872 474.416 400.069 470.464 396.87 466.845C399.153 480.187 396.821 492.511 387.068 501.977C386.782 502.256 386.44 502.472 386.065 502.61C385.69 502.749 385.29 502.807 384.891 502.782C384.492 502.756 384.103 502.648 383.748 502.463C383.394 502.278 383.082 502.021 382.833 501.708C379.76 497.968 377.586 493.572 376.478 488.86C371.174 498.253 368.37 508.564 372.8 518.139L372.801 518.139ZM394.07 586.764V563.719C394.07 558.922 388.207 556.363 384.72 559.85C384.21 560.357 383.805 560.96 383.528 561.624C383.252 562.288 383.109 563 383.108 563.719V586.764C383.108 591.561 388.971 594.119 392.457 590.632C392.968 590.125 393.373 589.523 393.649 588.859C393.926 588.195 394.069 587.483 394.07 586.764ZM377.369 582.747V569.285C377.369 564.489 371.507 561.929 368.019 565.416C367.509 565.923 367.104 566.526 366.828 567.19C366.551 567.854 366.408 568.566 366.407 569.285V582.749C366.407 587.546 372.27 590.105 375.757 586.618C376.267 586.111 376.672 585.508 376.949 584.844C377.225 584.18 377.368 583.468 377.369 582.749V582.747ZM416.487 575.543L427.471 576.872V568.582C427.471 563.785 421.609 561.226 418.122 564.713C416.873 565.962 416.58 567.166 416.495 568.87L416.487 575.545V575.543ZM399.809 575.661C403.765 573.603 406.682 574.359 410.772 574.853V566.038C410.772 561.24 404.91 558.682 401.422 562.169C400.912 562.676 400.507 563.278 400.231 563.942C399.954 564.606 399.811 565.318 399.811 566.038V575.662L399.809 575.661ZM369.809 637.405C349.804 617.725 319.693 584.756 319.693 561.723C319.693 539.82 337.624 521.889 359.527 521.889C367.417 521.908 375.126 524.262 381.68 528.656C388.233 533.05 393.34 539.286 396.354 546.577C396.574 547.098 396.941 547.542 397.412 547.855C397.882 548.167 398.435 548.334 399 548.334C399.564 548.334 400.117 548.167 400.587 547.855C401.058 547.542 401.426 547.098 401.645 546.577C404.659 539.286 409.766 533.05 416.32 528.656C422.874 524.262 430.582 521.907 438.473 521.889C460.376 521.889 478.307 539.82 478.307 561.724C478.307 583.738 446.006 618.886 428.877 636.184C429.015 632.087 429.618 631.232 432.501 627.988C433.42 626.955 434.489 625.753 435.763 624.147C440.255 618.484 445.215 610.433 447.189 602.795C448.993 595.812 448.716 586.75 444.56 581.518C441.626 577.823 437.493 577.105 433.21 577.145V568.582C433.21 559.118 422.056 553.833 414.752 560.023C413.889 558.662 412.742 557.503 411.39 556.626C410.038 555.749 408.513 555.174 406.919 554.94C405.324 554.707 403.698 554.82 402.151 555.272C400.605 555.724 399.174 556.505 397.956 557.56C392.835 549.809 381.169 551.298 378.038 559.91C370.589 555.001 360.668 560.421 360.668 569.285V582.749C360.668 588.88 360.684 595.319 360.815 601.449C360.93 606.836 361.294 611.769 362.154 615.789C363.287 621.078 365.206 624.698 366.866 627.828C368.815 631.504 369.689 633.283 369.809 637.404V637.405ZM346.306 621.023C328.52 600.85 313.955 579.074 313.955 561.726C313.955 534.077 338.686 512.602 366.122 516.633C364.666 511.665 364.467 506.414 365.542 501.35C366.95 494.199 370.578 486.544 376.427 478.387C376.788 477.871 377.309 477.488 377.91 477.298C378.51 477.108 379.157 477.122 379.749 477.337C380.341 477.552 380.846 477.956 381.185 478.487C381.524 479.018 381.678 479.646 381.624 480.274C381.127 485.598 382.445 490.933 385.365 495.412C394.087 484.876 392.876 471.163 389.049 458.921C388.87 458.336 388.882 457.709 389.085 457.131C389.288 456.554 389.671 456.057 390.176 455.712C390.682 455.368 391.285 455.195 391.897 455.217C392.508 455.24 393.096 455.458 393.575 455.839C406.876 466.516 414.909 482.205 419.729 499.369C421.571 496.207 422.424 491.328 422.726 486.286C422.764 485.666 423.002 485.076 423.404 484.603C423.806 484.13 424.351 483.801 424.957 483.665C425.562 483.528 426.196 483.592 426.762 483.847C427.328 484.102 427.796 484.534 428.095 485.078C435.125 496.15 439.909 506.566 442.448 516.327C465.762 518.364 484.048 538.081 484.048 561.726C484.048 574.63 474.774 591.056 462.085 607.459C445.482 628.919 420.639 653.193 400.862 670.123C400.339 670.57 399.673 670.813 398.985 670.81C398.297 670.806 397.633 670.554 397.115 670.101C379.836 655.302 361.364 638.104 346.306 621.026L346.306 621.023ZM366.525 592.596C368.399 593.623 370.528 594.09 372.66 593.943C374.792 593.796 376.837 593.04 378.552 591.766C379.397 593.46 380.657 594.913 382.215 595.989C383.774 597.065 385.579 597.729 387.463 597.919C389.346 598.109 391.248 597.819 392.989 597.076C394.731 596.333 396.256 595.161 397.423 593.67C399.173 595.37 401.456 596.416 403.886 596.632L423.214 598.905C423.969 598.991 424.727 598.774 425.322 598.301C425.917 597.828 426.3 597.138 426.386 596.383C426.472 595.628 426.255 594.869 425.782 594.275C425.309 593.68 424.619 593.297 423.864 593.211L404.536 590.938C400.968 590.519 399.811 587.914 399.811 584.509C399.811 581.637 403.258 579.72 406.071 580.062L430.263 582.978C432.568 582.953 434.256 582.683 436.453 583.078C437.871 583.265 439.166 583.982 440.078 585.084C441.239 586.546 442.065 588.93 442.389 591.828C443.129 598.438 441.125 604.547 437.892 610.565C435.238 615.481 431.99 620.054 428.221 624.179C426.054 626.617 424.628 628.222 423.816 631.089C422.952 634.144 423.09 638.184 423.271 641.763C413.966 650.879 405.302 658.709 398.999 664.17C392.462 658.536 384.139 651.162 375.347 642.769C375.624 639.058 375.886 634.733 374.366 630.367C372.583 625.24 369.353 622.035 367.762 614.602C366.44 608.438 366.425 599.648 366.521 592.596H366.525Z" fill="#282C37"/>
</g>
<defs>
<filter id="filter0_d_31_720" x="0.796875" y="0.421997" width="801.188" height="801.208" filterUnits="userSpaceOnUse" color-interpolation-filters="sRGB">
<feFlood flood-opacity="0" result="BackgroundImageFix"/>
<feColorMatrix in="SourceAlpha" type="matrix" values="0 0 0 0 0 0 0 0 0 0 0 0 0 0 0 0 0 0 127 0" result="hardAlpha"/>
<feOffset dy="4"/>
<feGaussianBlur stdDeviation="2"/>
<feComposite in2="hardAlpha" operator="out"/>
<feColorMatrix type="matrix" values="0 0 0 0 0 0 0 0 0 0 0 0 0 0 0 0 0 0 0.25 0"/>
<feBlend mode="normal" in2="BackgroundImageFix" result="effect1_dropShadow_31_720"/>
<feBlend mode="normal" in="SourceGraphic" in2="effect1_dropShadow_31_720" result="shape"/>
</filter>
</defs>
</svg>
