<svg width="802" height="802" viewBox="0 0 802 802" fill="none" xmlns="http://www.w3.org/2000/svg">
<g filter="url(#filter0_d_31_720)">
<path d="M401.382 778.004C191.321 778.004 20.4238 607.097 20.4238 397.026C20.4238 186.953 191.321 16.047 401.382 16.047C611.455 16.047 782.361 186.954 782.361 397.026C782.362 607.098 611.455 778.004 401.382 778.004Z" fill="white"/>
<path d="M401.382 31.672C498.973 31.672 590.722 69.675 659.728 138.68C728.733 207.686 766.736 299.435 766.736 397.026C766.736 494.617 728.733 586.366 659.728 655.371C590.722 724.376 498.973 762.38 401.382 762.38C303.8 762.38 212.058 724.377 143.055 655.372C74.0508 586.365 36.0488 494.616 36.0488 397.026C36.0488 299.435 74.0508 207.687 143.055 138.68C212.058 69.675 303.8 31.672 401.382 31.672ZM401.382 0.421997C182.361 0.421997 4.79883 177.985 4.79883 397.026C4.79883 616.067 182.362 793.63 401.382 793.63C620.424 793.63 797.986 616.067 797.986 397.026C797.986 177.984 620.424 0.421997 401.382 0.421997Z" fill="#282C37"/>
<path d="M797.986 397.026H4.79883C4.79883 177.984 182.362 0.421997 401.382 0.421997C620.424 0.421997 797.986 177.984 797.986 397.026Z" fill="#282C37"/>
<path d="M401.393 333.194C332.789 333.194 276.975 277.38 276.975 208.777C276.975 140.172 332.789 84.359 401.393 84.359C469.998 84.359 525.811 140.173 525.811 208.777C525.811 277.381 469.998 333.194 401.393 333.194ZM401.393 101.026C341.978 101.026 293.642 149.363 293.642 208.778C293.642 268.192 341.979 316.528 401.393 316.528C460.808 316.528 509.144 268.191 509.144 208.778C509.144 149.362 460.808 101.026 401.393 101.026Z" fill="white"/>
<path d="M369.323 244V171.273H384.699V201.28H415.914V171.273H431.255V244H415.914V213.957H384.699V244H369.323Z" fill="white"/>
<g clip-path="url(#clip0_31_720)">
<path d="M411.879 545.879L390 567.758L386.121 563.879C384.944 562.742 383.073 562.758 381.916 563.916C380.759 565.073 380.742 566.944 381.879 568.121L387.879 574.121C389.051 575.292 390.95 575.292 392.121 574.121L416.121 550.121C417.258 548.944 417.242 547.073 416.085 545.916C414.928 544.758 413.056 544.742 411.879 545.879Z" fill="#282C37"/>
<path d="M447.001 566C446.854 566 446.725 566 446.584 566C448.546 551.274 443.536 536.475 433.031 525.97C422.526 515.465 407.727 510.455 393.001 512.417C393.001 512.276 393.001 512.147 393.001 512C393.027 492.39 379.48 475.371 360.363 471C341.246 466.628 321.648 476.068 313.15 493.741C304.651 511.415 309.514 532.617 324.865 544.82C324.913 544.871 324.982 544.898 325.033 544.946C328.846 547.967 333.155 550.302 337.768 551.846C337.828 551.873 337.891 551.891 337.954 551.915C342.165 553.297 346.569 554.001 351.001 554H351.418C349.455 568.726 354.466 583.525 364.971 594.03C375.476 604.535 390.275 609.545 405.001 607.583V608C405.007 620.787 410.849 632.872 420.865 640.82C420.913 640.871 420.982 640.898 421.033 640.946C424.846 643.967 429.155 646.302 433.768 647.846C433.828 647.873 433.891 647.891 433.954 647.915C442.428 650.716 451.579 650.716 460.054 647.915C460.117 647.891 460.18 647.873 460.24 647.846C464.852 646.303 469.161 643.968 472.972 640.946C473.026 640.898 473.095 640.871 473.143 640.82C487.126 629.715 492.549 610.977 486.659 594.12C480.77 577.264 464.857 565.98 447.001 566ZM447.001 614C442.109 614.029 437.514 611.659 434.702 607.657C431.889 603.655 431.216 598.528 432.901 593.936C435.223 591.606 437.299 589.045 439.099 586.292C441.463 584.795 444.203 584 447.001 584C455.285 584 462.001 590.716 462.001 599C462.001 607.284 455.285 614 447.001 614ZM315.001 512C315.001 492.118 331.119 476 351.001 476C370.883 476 387.001 492.118 387.001 512C387.001 512.561 386.983 513.08 386.962 513.59C380.624 515.236 374.693 518.166 369.535 522.2C367.917 520.978 366.126 520.002 364.222 519.305C371.135 513.707 373.77 504.36 370.801 495.975C367.831 487.59 359.901 481.986 351.005 481.986C342.11 481.986 334.18 487.59 331.21 495.975C328.24 504.36 330.876 513.707 337.789 519.305C330.555 521.967 325.356 528.373 324.241 536C318.296 529.42 315.004 520.868 315.001 512ZM336.001 503C336.001 494.716 342.717 488 351.001 488C359.285 488 366.001 494.716 366.001 503C366.001 511.284 359.285 518 351.001 518C342.721 517.99 336.011 511.28 336.001 503ZM351.001 548C347.963 547.989 344.938 547.591 342.001 546.815V539C342.001 537.343 340.658 536 339.001 536C337.344 536 336.001 537.343 336.001 539V544.7C333.892 543.728 331.883 542.555 330.001 541.196V539C330.011 530.72 336.721 524.01 345.001 524H357.001C359.794 523.997 362.531 524.787 364.894 526.277C358.954 532.294 354.711 539.775 352.594 547.961C352.078 547.982 351.559 548 351.001 548ZM357.001 560C357.001 536.804 375.805 518 399.001 518C422.197 518 441.001 536.804 441.001 560C441.001 583.196 422.197 602 399.001 602C375.815 601.975 357.026 583.186 357.001 560ZM411.001 608C411.001 607.439 411.019 606.92 411.04 606.41C416.395 605.037 421.471 602.743 426.04 599.63C426.22 605.735 429.054 611.458 433.801 615.302C426.561 617.961 421.358 624.369 420.241 632C414.296 625.42 411.004 616.868 411.001 608ZM438.001 642.8V635C438.001 633.343 436.658 632 435.001 632C433.344 632 432.001 633.343 432.001 635V640.7C429.893 639.728 427.883 638.555 426.001 637.196V635C426.011 626.72 432.721 620.01 441.001 620H453.001C461.281 620.01 467.991 626.72 468.001 635V637.181C466.119 638.545 464.11 639.723 462.001 640.7V635C462.001 633.343 460.658 632 459.001 632C457.344 632 456.001 633.343 456.001 635V642.8C450.105 644.38 443.897 644.38 438.001 642.8ZM473.761 632C472.644 624.369 467.44 617.961 460.201 615.302C467.097 609.702 469.723 600.369 466.76 591.994C463.796 583.62 455.884 578.016 447.001 578C445.772 578.01 444.546 578.129 443.338 578.357C444.174 576.302 444.867 574.19 445.411 572.039C445.924 572.018 446.443 572 447.001 572C461.209 571.976 474.098 580.324 479.886 593.301C485.673 606.277 483.273 621.445 473.761 632Z" fill="#282C37"/>
<path d="M416.122 473.879C414.951 472.708 413.052 472.708 411.88 473.879L402.88 482.879C401.709 484.05 401.709 485.949 402.88 487.121L411.88 496.121C413.057 497.258 414.929 497.242 416.086 496.084C417.243 494.927 417.259 493.056 416.122 491.879L412.39 488.147C450.356 490.507 479.953 521.962 480.001 560C480.001 561.657 481.344 563 483.001 563C484.658 563 486.001 561.657 486.001 560C485.952 518.547 453.525 484.355 412.132 482.111L416.122 478.121C417.293 476.949 417.293 475.05 416.122 473.879Z" fill="#282C37"/>
<path d="M318 560C318 558.343 316.657 557 315 557C313.343 557 312 558.343 312 560C312.049 601.453 344.477 635.645 385.869 637.889L381.879 641.879C381.099 642.632 380.786 643.748 381.061 644.797C381.335 645.845 382.155 646.665 383.203 646.939C384.252 647.214 385.368 646.901 386.121 646.121L395.121 637.121C396.292 635.95 396.292 634.051 395.121 632.879L386.121 623.879C384.944 622.742 383.073 622.758 381.916 623.916C380.758 625.073 380.742 626.944 381.879 628.121L385.611 631.853C347.646 629.493 318.049 598.038 318 560Z" fill="#282C37"/>
</g>
</g>
<defs>
<filter id="filter0_d_31_720" x="0.798828" y="0.421997" width="801.188" height="801.208" filterUnits="userSpaceOnUse" color-interpolation-filters="sRGB">
<feFlood flood-opacity="0" result="BackgroundImageFix"/>
<feColorMatrix in="SourceAlpha" type="matrix" values="0 0 0 0 0 0 0 0 0 0 0 0 0 0 0 0 0 0 127 0" result="hardAlpha"/>
<feOffset dy="4"/>
<feGaussianBlur stdDeviation="2"/>
<feComposite in2="hardAlpha" operator="out"/>
<feColorMatrix type="matrix" values="0 0 0 0 0 0 0 0 0 0 0 0 0 0 0 0 0 0 0.25 0"/>
<feBlend mode="normal" in2="BackgroundImageFix" result="effect1_dropShadow_31_720"/>
<feBlend mode="normal" in="SourceGraphic" in2="effect1_dropShadow_31_720" result="shape"/>
</filter>
<clipPath id="clip0_31_720">
<rect width="180" height="180" fill="white" transform="translate(309 470)"/>
</clipPath>
</defs>
</svg>
