<svg width="794" height="794" viewBox="0 0 794 794" fill="none" xmlns="http://www.w3.org/2000/svg">
<path d="M396.99 778.006C186.928 778.006 16.0312 607.099 16.0312 397.027C16.0312 186.955 186.928 16.048 396.99 16.048C607.063 16.048 777.969 186.955 777.969 397.027C777.969 607.099 607.063 778.006 396.99 778.006Z" fill="white"/>
<path d="M396.989 31.672C494.58 31.672 586.329 69.675 655.335 138.68C724.34 207.686 762.343 299.435 762.343 397.026C762.343 494.617 724.34 586.366 655.335 655.371C586.329 724.376 494.58 762.38 396.989 762.38C299.407 762.38 207.665 724.377 138.662 655.372C69.6582 586.365 31.6562 494.616 31.6562 397.026C31.6562 299.436 69.6582 207.687 138.662 138.68C207.665 69.675 299.407 31.672 396.989 31.672ZM396.989 0.421997C177.968 0.421997 0.40625 177.985 0.40625 397.026C0.40625 616.067 177.969 793.63 396.989 793.63C616.031 793.63 793.593 616.067 793.593 397.026C793.593 177.984 616.03 0.421997 396.989 0.421997Z" fill="#9BAEC8"/>
<path d="M793.592 397.026H0.404297C0.404297 177.984 177.967 0.421997 396.987 0.421997C616.029 0.421997 793.592 177.984 793.592 397.026Z" fill="#9BAEC8"/>
<path d="M396.998 333.194C328.394 333.194 272.58 277.38 272.58 208.777C272.58 140.172 328.394 84.359 396.998 84.359C465.602 84.359 521.416 140.173 521.416 208.777C521.416 277.381 465.602 333.194 396.998 333.194ZM396.998 101.026C337.583 101.026 289.247 149.363 289.247 208.778C289.247 268.192 337.584 316.528 396.998 316.528C456.412 316.528 504.749 268.191 504.749 208.778C504.749 149.362 456.412 101.026 396.998 101.026Z" fill="white"/>
<path d="M403.697 173.273V246H388.321V173.273H403.697Z" fill="white"/>
<g clip-path="url(#clip0_31_718)">
<path d="M409.879 545.879L388 567.758L384.121 563.879C382.944 562.742 381.073 562.758 379.916 563.916C378.759 565.073 378.742 566.944 379.879 568.121L385.879 574.121C387.051 575.292 388.95 575.292 390.121 574.121L414.121 550.121C415.258 548.944 415.242 547.073 414.085 545.916C412.928 544.758 411.056 544.742 409.879 545.879Z" fill="#9BAEC8"/>
<path d="M445.001 566C444.854 566 444.725 566 444.584 566C446.546 551.274 441.536 536.475 431.031 525.97C420.526 515.465 405.727 510.455 391.001 512.417C391.001 512.276 391.001 512.147 391.001 512C391.027 492.39 377.48 475.371 358.363 471C339.246 466.628 319.648 476.068 311.15 493.741C302.651 511.415 307.514 532.617 322.865 544.82C322.913 544.871 322.982 544.898 323.033 544.946C326.846 547.967 331.155 550.302 335.768 551.846C335.828 551.873 335.891 551.891 335.954 551.915C340.165 553.297 344.569 554.001 349.001 554H349.418C347.455 568.726 352.466 583.525 362.971 594.03C373.476 604.535 388.275 609.545 403.001 607.583V608C403.007 620.787 408.849 632.872 418.865 640.82C418.913 640.871 418.982 640.898 419.033 640.946C422.846 643.967 427.155 646.302 431.768 647.846C431.828 647.873 431.891 647.891 431.954 647.915C440.428 650.716 449.579 650.716 458.054 647.915C458.117 647.891 458.18 647.873 458.24 647.846C462.852 646.303 467.161 643.968 470.972 640.946C471.026 640.898 471.095 640.871 471.143 640.82C485.126 629.715 490.549 610.977 484.659 594.12C478.77 577.264 462.857 565.981 445.001 566ZM445.001 614C440.109 614.029 435.514 611.659 432.702 607.657C429.889 603.655 429.216 598.528 430.901 593.936C433.223 591.606 435.299 589.045 437.099 586.292C439.463 584.795 442.203 584 445.001 584C453.285 584 460.001 590.716 460.001 599C460.001 607.284 453.285 614 445.001 614ZM313.001 512C313.001 492.118 329.119 476 349.001 476C368.883 476 385.001 492.118 385.001 512C385.001 512.561 384.983 513.08 384.962 513.59C378.624 515.236 372.693 518.166 367.535 522.2C365.917 520.978 364.126 520.002 362.222 519.305C369.135 513.707 371.77 504.36 368.801 495.975C365.831 487.59 357.901 481.986 349.005 481.986C340.11 481.986 332.18 487.59 329.21 495.975C326.24 504.36 328.876 513.707 335.789 519.305C328.555 521.967 323.356 528.373 322.241 536C316.296 529.42 313.004 520.868 313.001 512ZM334.001 503C334.001 494.716 340.717 488 349.001 488C357.285 488 364.001 494.716 364.001 503C364.001 511.284 357.285 518 349.001 518C340.721 517.99 334.011 511.28 334.001 503ZM349.001 548C345.963 547.989 342.938 547.591 340.001 546.815V539C340.001 537.343 338.658 536 337.001 536C335.344 536 334.001 537.343 334.001 539V544.7C331.892 543.728 329.883 542.555 328.001 541.196V539C328.011 530.72 334.721 524.01 343.001 524H355.001C357.794 523.997 360.531 524.787 362.894 526.277C356.954 532.294 352.711 539.775 350.594 547.961C350.078 547.982 349.559 548 349.001 548ZM355.001 560C355.001 536.804 373.805 518 397.001 518C420.197 518 439.001 536.804 439.001 560C439.001 583.196 420.197 602 397.001 602C373.815 601.975 355.026 583.186 355.001 560ZM409.001 608C409.001 607.439 409.019 606.92 409.04 606.41C414.395 605.037 419.471 602.743 424.04 599.63C424.22 605.735 427.054 611.458 431.801 615.302C424.561 617.961 419.358 624.369 418.241 632C412.296 625.42 409.004 616.868 409.001 608ZM436.001 642.8V635C436.001 633.343 434.658 632 433.001 632C431.344 632 430.001 633.343 430.001 635V640.7C427.893 639.728 425.883 638.555 424.001 637.196V635C424.011 626.72 430.721 620.01 439.001 620H451.001C459.281 620.01 465.991 626.72 466.001 635V637.181C464.119 638.545 462.11 639.723 460.001 640.7V635C460.001 633.343 458.658 632 457.001 632C455.344 632 454.001 633.343 454.001 635V642.8C448.105 644.38 441.897 644.38 436.001 642.8ZM471.761 632C470.644 624.369 465.44 617.961 458.201 615.302C465.097 609.702 467.723 600.369 464.76 591.994C461.796 583.62 453.884 578.016 445.001 578C443.772 578.01 442.546 578.129 441.338 578.357C442.174 576.302 442.867 574.19 443.411 572.039C443.924 572.018 444.443 572 445.001 572C459.209 571.976 472.098 580.324 477.886 593.301C483.673 606.277 481.273 621.445 471.761 632Z" fill="#9BAEC8"/>
<path d="M414.122 473.879C412.951 472.708 411.052 472.708 409.88 473.879L400.88 482.879C399.709 484.05 399.709 485.949 400.88 487.121L409.88 496.121C411.057 497.258 412.929 497.242 414.086 496.084C415.243 494.927 415.259 493.056 414.122 491.879L410.39 488.147C448.356 490.507 477.953 521.962 478.001 560C478.001 561.657 479.344 563 481.001 563C482.658 563 484.001 561.657 484.001 560C483.952 518.547 451.525 484.355 410.132 482.111L414.122 478.121C415.293 476.949 415.293 475.05 414.122 473.879Z" fill="#9BAEC8"/>
<path d="M316 560C316 558.343 314.657 557 313 557C311.343 557 310 558.343 310 560C310.049 601.453 342.477 635.645 383.869 637.889L379.879 641.879C379.099 642.632 378.786 643.748 379.061 644.797C379.335 645.845 380.155 646.665 381.203 646.939C382.252 647.214 383.368 646.901 384.121 646.121L393.121 637.121C394.292 635.95 394.292 634.051 393.121 632.879L384.121 623.879C382.944 622.742 381.073 622.758 379.916 623.916C378.758 625.073 378.742 626.944 379.879 628.121L383.611 631.853C345.646 629.493 316.049 598.038 316 560Z" fill="#9BAEC8"/>
</g>
<defs>
<clipPath id="clip0_31_718">
<rect width="180" height="180" fill="white" transform="translate(307 470)"/>
</clipPath>
</defs>
</svg>
