<svg width="794" height="794" viewBox="0 0 794 794" fill="none" xmlns="http://www.w3.org/2000/svg">
<path d="M396.99 778.006C186.928 778.006 16.0312 607.099 16.0312 397.027C16.0312 186.955 186.928 16.048 396.99 16.048C607.063 16.048 777.969 186.955 777.969 397.027C777.969 607.099 607.063 778.006 396.99 778.006Z" fill="white"/>
<path d="M396.989 31.672C494.58 31.672 586.329 69.675 655.335 138.68C724.34 207.686 762.343 299.435 762.343 397.026C762.343 494.617 724.34 586.366 655.335 655.371C586.329 724.376 494.58 762.38 396.989 762.38C299.407 762.38 207.665 724.377 138.662 655.372C69.6582 586.365 31.6562 494.616 31.6562 397.026C31.6562 299.436 69.6582 207.687 138.662 138.68C207.665 69.675 299.407 31.672 396.989 31.672ZM396.989 0.421997C177.968 0.421997 0.40625 177.985 0.40625 397.026C0.40625 616.067 177.969 793.63 396.989 793.63C616.031 793.63 793.593 616.067 793.593 397.026C793.593 177.984 616.03 0.421997 396.989 0.421997Z" fill="#9BAEC8"/>
<path d="M793.594 397.026H0.40625C0.40625 177.984 177.969 0.421997 396.989 0.421997C616.031 0.421997 793.594 177.984 793.594 397.026Z" fill="#9BAEC8"/>
<path d="M397 333.194C328.396 333.194 272.582 277.38 272.582 208.777C272.582 140.172 328.396 84.359 397 84.359C465.604 84.359 521.418 140.173 521.418 208.777C521.418 277.381 465.604 333.194 397 333.194ZM397 101.026C337.585 101.026 289.249 149.363 289.249 208.778C289.249 268.192 337.586 316.528 397 316.528C456.414 316.528 504.751 268.191 504.751 208.778C504.751 149.362 456.414 101.026 397 101.026Z" fill="white"/>
<path d="M403.699 173.273V246H388.323V173.273H403.699Z" fill="white"/>
<path fill-rule="evenodd" clip-rule="evenodd" d="M370.846 518.139C381.896 521.558 391.251 529.017 397.045 539.028C400.876 532.385 406.317 526.812 412.866 522.822C419.415 518.831 426.862 516.552 434.523 516.194C432.614 509.47 429.571 502.391 425.396 494.955C424.245 500.163 422.003 505.096 417.529 507.359C417.135 507.558 416.7 507.663 416.259 507.667C415.818 507.67 415.381 507.571 414.985 507.377C414.588 507.184 414.241 506.901 413.972 506.551C413.703 506.202 413.518 505.794 413.432 505.361C410.913 495.068 407.527 486.159 403.274 478.633C400.917 474.416 398.114 470.464 394.915 466.845C397.198 480.187 394.866 492.511 385.113 501.977C384.826 502.256 384.485 502.472 384.11 502.61C383.735 502.749 383.335 502.807 382.936 502.782C382.537 502.756 382.148 502.648 381.793 502.463C381.439 502.278 381.127 502.02 380.878 501.708C377.805 497.968 375.631 493.572 374.523 488.86C369.219 498.253 366.415 508.564 370.845 518.139L370.846 518.139ZM392.115 586.764V563.719C392.115 558.922 386.252 556.363 382.765 559.85C382.255 560.357 381.85 560.96 381.573 561.624C381.297 562.288 381.154 563 381.153 563.719V586.764C381.153 591.561 387.015 594.119 390.502 590.632C391.013 590.125 391.418 589.523 391.694 588.859C391.971 588.195 392.114 587.483 392.115 586.764ZM375.414 582.747V569.285C375.414 564.489 369.552 561.929 366.064 565.416C365.554 565.923 365.149 566.526 364.872 567.19C364.596 567.854 364.453 568.566 364.452 569.285V582.749C364.452 587.546 370.314 590.105 373.802 586.618C374.312 586.111 374.717 585.508 374.994 584.844C375.27 584.18 375.413 583.468 375.414 582.749V582.747ZM414.532 575.543L425.516 576.872V568.582C425.516 563.785 419.654 561.226 416.167 564.713C414.918 565.962 414.625 567.166 414.54 568.87L414.532 575.545V575.543ZM397.854 575.661C401.81 573.603 404.727 574.358 408.817 574.853V566.038C408.817 561.24 402.955 558.682 399.467 562.168C398.957 562.676 398.552 563.278 398.276 563.942C397.999 564.606 397.856 565.318 397.856 566.038V575.662L397.854 575.661ZM367.854 637.405C347.849 617.725 317.737 584.756 317.737 561.723C317.737 539.82 335.668 521.889 357.572 521.889C365.462 521.908 373.17 524.262 379.724 528.656C386.278 533.05 391.385 539.286 394.399 546.577C394.618 547.098 394.986 547.542 395.457 547.855C395.927 548.167 396.48 548.334 397.045 548.334C397.609 548.334 398.162 548.167 398.632 547.855C399.103 547.542 399.471 547.098 399.69 546.577C402.704 539.286 407.811 533.049 414.365 528.656C420.919 524.262 428.627 521.907 436.518 521.889C458.421 521.889 476.352 539.82 476.352 561.724C476.352 583.738 444.051 618.886 426.922 636.184C427.06 632.087 427.663 631.232 430.546 627.988C431.465 626.955 432.533 625.753 433.808 624.147C438.3 618.484 443.26 610.433 445.234 602.795C447.038 595.812 446.761 586.75 442.605 581.518C439.671 577.823 435.538 577.105 431.255 577.145V568.582C431.255 559.118 420.101 553.833 412.797 560.023C411.933 558.662 410.787 557.503 409.435 556.626C408.083 555.749 406.558 555.174 404.963 554.94C403.369 554.707 401.743 554.82 400.196 555.272C398.65 555.724 397.219 556.505 396.001 557.56C390.88 549.809 379.213 551.298 376.083 559.91C368.634 555.001 358.713 560.421 358.713 569.285V582.749C358.713 588.879 358.729 595.319 358.86 601.449C358.975 606.836 359.339 611.769 360.199 615.789C361.332 621.078 363.251 624.698 364.911 627.828C366.859 631.504 367.734 633.283 367.854 637.404V637.405ZM344.351 621.023C326.565 600.85 312 579.074 312 561.726C312 534.077 336.731 512.602 364.167 516.633C362.711 511.665 362.512 506.414 363.587 501.35C364.995 494.199 368.623 486.544 374.472 478.387C374.833 477.871 375.354 477.488 375.955 477.298C376.555 477.108 377.202 477.122 377.794 477.337C378.386 477.552 378.891 477.956 379.23 478.487C379.569 479.018 379.723 479.646 379.669 480.274C379.172 485.597 380.49 490.933 383.41 495.412C392.132 484.876 390.921 471.163 387.094 458.921C386.915 458.336 386.927 457.709 387.13 457.131C387.333 456.554 387.716 456.057 388.221 455.712C388.727 455.368 389.33 455.194 389.942 455.217C390.553 455.24 391.141 455.458 391.62 455.839C404.92 466.516 412.954 482.205 417.774 499.369C419.616 496.207 420.469 491.328 420.771 486.286C420.809 485.666 421.047 485.076 421.449 484.603C421.851 484.13 422.396 483.801 423.002 483.665C423.607 483.528 424.241 483.592 424.807 483.847C425.373 484.102 425.841 484.534 426.14 485.078C433.17 496.149 437.954 506.566 440.493 516.327C463.807 518.364 482.093 538.081 482.093 561.726C482.093 574.63 472.819 591.056 460.13 607.459C443.527 628.919 418.684 653.193 398.907 670.122C398.384 670.57 397.717 670.813 397.03 670.809C396.342 670.806 395.678 670.554 395.16 670.101C377.881 655.302 359.409 638.104 344.351 621.026L344.351 621.023ZM364.57 592.596C366.444 593.623 368.573 594.09 370.705 593.943C372.837 593.796 374.882 593.04 376.597 591.766C377.442 593.46 378.702 594.913 380.26 595.989C381.818 597.065 383.624 597.729 385.507 597.919C387.391 598.109 389.293 597.819 391.034 597.076C392.776 596.333 394.301 595.161 395.468 593.669C397.218 595.37 399.501 596.416 401.931 596.632L421.259 598.905C422.014 598.991 422.772 598.774 423.367 598.301C423.962 597.828 424.344 597.138 424.431 596.383C424.517 595.628 424.3 594.869 423.827 594.275C423.354 593.68 422.664 593.297 421.909 593.211L402.581 590.938C399.013 590.519 397.856 587.914 397.856 584.509C397.856 581.637 401.303 579.72 404.116 580.062L428.308 582.978C430.613 582.953 432.301 582.683 434.498 583.078C435.916 583.265 437.211 583.982 438.123 585.084C439.284 586.546 440.11 588.93 440.434 591.828C441.174 598.437 439.17 604.547 435.937 610.565C433.283 615.481 430.035 620.054 426.266 624.179C424.098 626.617 422.673 628.222 421.861 631.089C420.997 634.144 421.135 638.184 421.316 641.763C412.01 650.879 403.347 658.709 397.044 664.17C390.507 658.536 382.184 651.162 373.392 642.769C373.669 639.058 373.931 634.733 372.411 630.367C370.628 625.24 367.398 622.035 365.807 614.602C364.484 608.438 364.47 599.648 364.566 592.596H364.57Z" fill="#9BAEC8"/>
</svg>
