<svg width="1371" height="1371" viewBox="0 0 1371 1371" fill="none" xmlns="http://www.w3.org/2000/svg">
<circle cx="685.5" cy="685.5" r="685.5" fill="black"/>
<g clip-path="url(#clip0_3_2)">
<path d="M684.299 211L246.763 445.78H1123.24L684.299 211Z" fill="white"/>
<path d="M1179.64 454.803H190.398V500.616H1179.64V454.803Z" fill="white"/>
<path d="M1179.6 969.437V922.652H190.398V969.437H170V1017H1200V969.437H1179.6Z" fill="white"/>
<path d="M503.757 678.422V577.852C503.757 567.818 502.473 560.118 499.904 554.712C497.334 549.345 493.831 545.223 489.393 542.345C484.956 539.856 479.74 538.3 473.628 537.756C467.517 537.211 460.821 536.939 453.464 536.939V513.799C468.178 514.149 484.022 514.422 500.994 514.616C517.927 514.81 533.03 514.888 546.304 514.888C552.182 514.888 558.722 514.81 565.923 514.616C573.125 514.422 580.365 514.344 587.761 514.344C595.157 514.344 602.475 514.266 609.871 514.072C617.229 513.877 624.041 513.799 630.308 513.799V536.939C622.951 536.939 616.217 537.211 610.144 537.756C604.071 538.3 598.816 539.817 594.379 542.345C589.941 545.223 586.438 549.345 583.868 554.712C581.299 560.079 580.015 567.818 580.015 577.852V844.094C580.015 854.128 581.299 861.828 583.868 867.234C586.438 872.601 589.941 876.567 594.379 879.056C598.816 881.934 604.032 883.645 610.144 884.151C616.217 884.695 622.951 884.968 630.308 884.968V908.107C617.774 907.757 603.488 907.485 587.489 907.291C571.451 907.096 557.165 907.018 544.669 907.018C532.174 907.018 516.953 907.096 500.176 907.291C483.399 907.485 467.828 907.718 453.464 908.107V884.968C460.821 884.968 467.556 884.695 473.628 884.151C479.701 883.607 484.956 881.934 489.393 879.056C493.831 876.567 497.296 872.601 499.904 867.234C502.473 861.867 503.757 854.167 503.757 844.094V718.245H335.75V844.094C335.75 854.128 337.034 861.828 339.604 867.234C342.173 872.601 345.676 876.567 350.114 879.056C354.551 881.934 359.768 883.645 365.879 884.151C371.991 884.657 378.686 884.968 386.043 884.968V908.107C372.769 908.107 358.21 907.913 342.406 907.563C326.563 907.213 312.55 907.018 300.404 907.018C287.13 907.018 271.949 907.096 254.821 907.291C237.694 907.485 222.512 907.718 209.238 908.107V884.968C216.595 884.968 223.33 884.695 229.402 884.151C235.475 883.607 240.73 881.934 245.167 879.056C249.605 876.567 253.07 872.601 255.678 867.234C258.247 861.867 259.531 854.167 259.531 844.094V577.852C259.531 567.818 258.247 560.118 255.678 554.712C253.108 549.345 249.605 545.223 245.167 542.345C240.73 539.856 235.514 538.3 229.402 537.756C223.291 537.211 216.595 536.939 209.238 536.939V513.799C215.856 513.799 222.94 513.877 230.492 514.072C238.044 514.266 245.673 514.344 253.42 514.344C261.166 514.694 268.718 514.888 276.075 514.888H317.532C325.279 514.888 333.181 514.694 341.277 514.344C349.024 514.344 356.77 514.266 364.478 514.072C372.224 513.877 379.387 513.799 386.043 513.799V536.939C378.686 536.939 371.952 537.211 365.879 537.756C359.806 538.3 354.551 539.817 350.114 542.345C345.676 545.223 342.173 549.345 339.604 554.712C337.034 560.079 335.75 567.818 335.75 577.852V678.422H503.757Z" fill="white" stroke="white" stroke-width="0.5" stroke-miterlimit="10"/>
<path d="M714.818 577.852C714.818 567.818 713.533 560.118 710.964 554.712C708.395 549.345 704.892 545.223 700.454 542.345C696.016 539.856 690.8 538.3 684.689 537.756C678.577 537.211 671.882 536.939 664.525 536.939V513.799C671.142 513.799 678.227 513.877 685.778 514.072C693.33 514.266 700.96 514.344 708.706 514.344C716.453 514.694 724.005 514.888 731.362 514.888H772.819C780.565 514.888 788.467 514.694 796.564 514.344C804.31 514.344 812.057 514.266 819.764 514.072C827.511 513.877 834.673 513.799 841.33 513.799V536.939C833.972 536.939 827.238 537.211 821.165 537.756C815.093 538.3 809.838 539.817 805.4 542.345C800.963 545.223 797.459 549.345 794.89 554.712C792.321 560.079 791.036 567.818 791.036 577.852V844.094C791.036 854.128 792.321 861.828 794.89 867.234C797.459 872.601 800.963 876.567 805.4 879.056C809.838 881.934 815.054 883.645 821.165 884.151C827.277 884.657 833.972 884.968 841.33 884.968V908.107C828.056 908.107 813.497 907.913 797.693 907.563C781.85 907.213 767.836 907.018 755.691 907.018C742.417 907.018 727.235 907.096 710.108 907.291C692.98 907.485 677.799 907.718 664.525 908.107V884.968C671.882 884.968 678.616 884.695 684.689 884.151C690.761 883.607 696.016 881.934 700.454 879.056C704.892 876.567 708.356 872.601 710.964 867.234C713.533 861.867 714.818 854.167 714.818 844.094V577.852Z" fill="white" stroke="white" stroke-width="0.5" stroke-miterlimit="10"/>
<path d="M1007.7 844.094C1007.7 854.128 1008.99 861.828 1011.56 867.234C1014.13 872.601 1017.63 876.567 1022.07 879.056C1026.5 881.934 1031.72 883.645 1037.83 884.151C1043.94 884.657 1050.64 884.968 1058 884.968V908.107C1051.38 908.107 1043.63 908.03 1034.8 907.835C1025.96 907.641 1016.93 907.563 1007.7 907.563C998.126 907.213 988.901 907.018 980.064 907.018H957.409C944.875 907.018 932.068 907.096 918.988 907.291C905.909 907.485 892.557 907.718 878.933 908.107V884.968C891.078 884.968 900.576 884.268 907.388 882.829C914.2 881.39 919.455 878.356 923.153 873.689C926.813 869.023 929.148 862.489 930.043 854.05C930.939 845.611 931.406 834.605 931.406 820.993V587.574C931.406 576.102 930.744 567.04 929.46 560.429C928.175 553.778 925.684 548.878 921.986 545.65C917.937 542.423 912.488 540.284 905.675 539.195C898.863 538.106 889.91 537.406 878.894 537.056V513.916C898.785 513.916 920.078 514.11 942.734 514.46C965.389 514.81 986.837 515.005 1007.12 515.005H1082.83C1107.86 515.005 1132.73 514.655 1157.45 513.916L1160.76 593.524L1139.78 595.663C1138.69 587.069 1136.35 579.718 1132.89 573.613C1129.39 567.507 1124.52 562.684 1118.25 559.106C1111.64 555.529 1103.5 552.923 1093.92 551.29C1084.35 549.695 1072.75 548.878 1059.12 548.878H1007.74V681.183H1048.07C1059.47 681.183 1068.51 680.755 1075.16 679.822C1081.78 678.927 1086.96 677.061 1090.62 674.183C1094.31 671.305 1097.08 667.455 1098.91 662.632C1100.74 657.81 1102.57 651.237 1104.43 642.993H1125.42C1125.07 645.521 1124.75 649.176 1124.6 653.999C1124.4 658.86 1124.33 664.149 1124.33 669.866C1123.94 675.622 1123.66 681.533 1123.51 687.6C1123.31 693.706 1123.24 699.267 1123.24 704.284C1123.24 713.617 1123.43 724.001 1123.78 735.474C1124.13 746.946 1124.72 756.435 1125.46 763.98H1106.11C1104.63 755.735 1103.15 748.852 1101.71 743.291C1100.23 737.729 1097.86 733.335 1094.51 730.107C1090.81 726.879 1085.56 724.545 1078.74 723.107C1071.93 721.668 1062.43 720.968 1050.29 720.968H1007.74V844.133L1007.7 844.094Z" fill="white" stroke="white" stroke-width="0.5" stroke-miterlimit="10"/>
</g>
<defs>
<clipPath id="clip0_3_2">
<rect width="1030" height="806" fill="white" transform="translate(170 211)"/>
</clipPath>
</defs>
</svg>
