<svg width="711" height="1450" viewBox="0 0 711 1450" fill="none" xmlns="http://www.w3.org/2000/svg">
<path d="M0.0183233 725.24C0.0183199 803.121 30.3464 876.339 85.4164 931.409C140.486 986.479 213.705 1016.81 291.586 1016.81C369.466 1016.81 442.686 986.48 497.756 931.409C552.826 876.34 583.154 803.12 583.154 725.24C583.154 647.359 552.825 574.14 497.756 519.07C442.686 464 369.467 433.672 291.586 433.672C213.705 433.672 140.485 464 85.4164 519.07C30.3464 574.141 0.0183267 647.359 0.0183233 725.24Z" fill="#15273D"/>
<g opacity="0.26">
<path opacity="0.01" d="M212.521 103.336C212.521 103.468 212.563 435.797 212.641 435.902C212.72 473.487 237.534 506.531 273.616 517.145C339.633 536.562 435.6 588.861 435.6 728.819C435.6 868.734 339.611 921.047 273.594 940.479C237.522 951.096 212.721 984.138 212.641 1021.71C212.563 1021.82 212.521 1354.16 212.521 1354.29C212.521 1405.1 253.709 1449.57 304.518 1449.57L631.254 1449.57L631.254 8.06265L304.518 8.06263C253.709 8.06064 212.521 52.5283 212.521 103.336Z" fill="#7F7F7F"/>
<path opacity="0.0156" d="M213.201 105.952C213.201 106.216 213.285 436.054 213.442 436.265C213.6 473.659 238.326 506.519 274.252 517.086C340.242 536.496 436.28 588.798 436.28 728.818C436.28 868.794 340.22 921.112 274.23 940.535C238.316 951.107 213.6 983.964 213.442 1021.35C213.285 1021.56 213.201 1351.41 213.201 1351.68C213.201 1402.08 254.065 1449.51 304.474 1449.51L631.812 1449.51L631.813 8.12144L304.474 8.12142C254.065 8.12042 213.201 55.5432 213.201 105.952Z" fill="#7E7E7E"/>
<path opacity="0.0234" d="M213.879 108.567C213.879 108.961 214.004 436.31 214.241 436.626C214.478 473.83 239.119 506.506 274.888 517.027C340.85 536.429 436.959 588.738 436.959 728.817C436.959 868.854 340.829 921.176 274.866 940.593C239.107 951.119 214.478 983.792 214.241 1020.99C214.004 1021.3 213.88 1348.66 213.88 1349.06C213.88 1399.07 254.419 1449.45 304.428 1449.45L632.371 1449.45L632.371 8.18023L304.428 8.18021C254.418 8.1812 213.879 58.5592 213.879 108.567Z" fill="#7D7D7D"/>
<path opacity="0.0313" d="M214.555 111.183C214.555 111.71 214.722 436.567 215.038 436.989C215.353 474.003 239.908 506.496 275.52 516.97C341.455 536.363 437.634 588.677 437.634 728.817C437.634 868.916 341.434 921.243 275.498 940.651C239.897 951.13 215.353 983.619 215.038 1020.63C214.722 1021.05 214.556 1345.92 214.556 1346.44C214.556 1396.05 254.772 1449.39 304.38 1449.39L632.926 1449.39L632.926 8.24096L304.38 8.24095C254.771 8.24194 214.555 61.5751 214.555 111.183Z" fill="#7C7C7C"/>
<path opacity="0.0391" d="M215.234 113.799C215.234 114.457 215.442 436.824 215.837 437.351C216.231 474.177 240.701 506.484 276.155 516.912C342.062 536.298 438.313 588.616 438.313 728.818C438.313 868.977 342.042 921.31 276.133 940.71C240.688 951.143 216.231 983.447 215.836 1020.26C215.442 1020.79 215.233 1343.17 215.233 1343.83C215.233 1393.04 255.124 1449.33 304.332 1449.33L633.482 1449.33L633.482 8.30226L304.332 8.30225C255.125 8.30125 215.234 64.5912 215.234 113.799Z" fill="#7B7B7B"/>
<path opacity="0.0469" d="M215.909 116.416C215.909 117.205 216.159 437.081 216.633 437.713C217.106 474.349 241.489 506.472 276.787 516.854C342.668 536.232 438.988 588.555 438.988 728.818C438.988 869.039 342.647 921.375 276.766 940.768C241.478 951.155 217.105 983.275 216.633 1019.9C216.16 1020.53 215.909 1340.42 215.909 1341.21C215.909 1390.02 255.476 1449.27 304.284 1449.27L634.037 1449.27L634.037 8.36301L304.284 8.36299C255.476 8.362 215.909 67.6076 215.909 116.416Z" fill="#7A7A7A"/>
<path opacity="0.0547" d="M216.588 119.031C216.588 119.952 216.88 437.337 217.432 438.075C217.984 474.52 242.281 506.458 277.423 516.795C343.276 536.165 439.667 588.493 439.667 728.817C439.667 869.099 343.255 921.441 277.401 940.825C242.269 951.166 217.984 983.102 217.432 1019.54C216.88 1020.28 216.588 1337.67 216.588 1338.6C216.588 1387 255.831 1449.2 304.239 1449.2L634.596 1449.2L634.596 8.42277L304.239 8.42275C255.831 8.42275 216.588 70.6236 216.588 119.031Z" fill="#797979"/>
<path opacity="0.0625" d="M217.267 121.647C217.267 122.699 217.601 437.595 218.231 438.437C218.862 474.693 243.073 506.446 278.058 516.736C343.883 536.098 440.345 588.431 440.345 728.817C440.345 869.159 343.863 921.507 278.035 940.883C243.06 951.178 218.86 982.929 218.23 1019.18C217.6 1020.02 217.266 1334.93 217.266 1335.98C217.266 1383.99 256.184 1449.14 304.192 1449.14L635.152 1449.14L635.152 8.48253L304.192 8.48252C256.185 8.48351 217.267 73.6386 217.267 121.647Z" fill="#787878"/>
<path opacity="0.0703" d="M217.944 124.262C217.944 125.447 218.319 437.852 219.03 438.8C219.739 474.866 243.865 506.436 278.692 516.68C344.491 536.034 441.023 588.372 441.023 728.818C441.023 869.222 344.47 921.573 278.67 940.942C243.853 951.19 219.738 982.758 219.029 1018.82C218.319 1019.76 217.944 1332.18 217.944 1333.36C217.944 1380.97 256.538 1449.08 304.146 1449.08L635.709 1449.08L635.709 8.54424L304.146 8.54422C256.538 8.54322 217.944 76.6545 217.944 124.262Z" fill="#777777"/>
<path opacity="0.0781" d="M218.622 126.878C218.622 128.194 219.039 438.108 219.828 439.162C220.617 475.038 244.656 506.424 279.327 516.622C345.098 535.968 441.702 588.311 441.702 728.819C441.702 869.284 345.078 921.641 279.305 941.001C244.644 951.203 220.616 982.587 219.828 1018.45C219.04 1019.51 218.623 1329.43 218.623 1330.75C218.623 1377.96 256.893 1449.02 304.101 1449.02L636.268 1449.02L636.268 8.6039L304.101 8.60389C256.892 8.60389 218.622 79.6704 218.622 126.878Z" fill="#767676"/>
<path opacity="0.0859" d="M219.299 129.494C219.299 130.942 219.758 438.365 220.626 439.524C221.494 475.21 245.446 506.411 279.961 516.562C345.705 535.901 442.378 588.248 442.378 728.817C442.378 869.342 345.684 921.705 279.939 941.057C245.434 951.213 221.493 982.412 220.626 1018.09C219.758 1019.25 219.299 1326.68 219.299 1328.13C219.299 1374.94 257.244 1448.96 304.052 1448.96L636.822 1448.96L636.822 8.66368L304.052 8.66366C257.244 8.66466 219.299 82.6868 219.299 129.494Z" fill="#757575"/>
<path opacity="0.0938" d="M219.978 132.11C219.978 133.689 220.479 438.622 221.425 439.885C222.372 475.382 246.238 506.399 280.596 516.506C346.313 535.835 443.057 588.187 443.057 728.818C443.057 869.405 346.292 921.772 280.574 941.115C246.226 951.225 222.37 982.24 221.425 1017.73C220.479 1018.99 219.978 1323.94 219.978 1325.52C219.978 1371.92 257.599 1448.9 304.007 1448.9L637.381 1448.9L637.381 8.72538L304.007 8.72536C257.599 8.72536 219.978 85.7018 219.978 132.11Z" fill="#747474"/>
<path opacity="0.1016" d="M220.654 134.726C220.654 136.437 221.196 438.88 222.221 440.249C223.246 475.556 247.027 506.389 281.227 516.448C346.917 535.769 443.732 588.128 443.732 728.818C443.732 869.466 346.897 921.838 281.205 941.174C247.015 951.238 223.245 982.069 222.22 1017.37C221.195 1018.74 220.653 1321.19 220.653 1322.9C220.653 1368.91 257.949 1448.84 303.956 1448.84L637.934 1448.84L637.934 8.7861L303.956 8.78609C257.95 8.78609 220.654 88.7177 220.654 134.726Z" fill="#737373"/>
<path opacity="0.1094" d="M221.334 137.341C221.334 139.183 221.918 439.135 223.021 440.61C224.126 475.727 247.82 506.375 281.863 516.389C347.526 535.703 444.412 588.065 444.412 728.817C444.412 869.526 347.505 921.903 281.842 941.231C247.807 951.249 224.124 981.895 223.02 1017C221.917 1018.48 221.332 1318.44 221.332 1320.28C221.332 1365.89 258.304 1448.78 303.912 1448.78L638.492 1448.78L638.492 8.84587L303.912 8.84585C258.305 8.84685 221.334 91.7337 221.334 137.341Z" fill="#727272"/>
<path opacity="0.1172" d="M222.012 139.957C222.012 141.931 222.637 439.392 223.821 440.972C225.004 475.9 248.612 506.364 282.499 516.331C348.133 535.636 445.09 588.003 445.09 728.817C445.09 869.587 348.113 921.969 282.477 941.289C248.6 951.26 225.002 981.722 223.82 1016.64C222.636 1018.22 222.011 1315.69 222.011 1317.67C222.011 1362.88 258.659 1448.72 303.867 1448.72L639.051 1448.72L639.051 8.90661L303.867 8.90659C258.66 8.90659 222.012 94.7497 222.012 139.957Z" fill="#717171"/>
<path opacity="0.125" d="M222.689 142.572C222.689 144.678 223.355 439.649 224.618 441.334C225.88 476.072 249.402 506.352 283.133 516.274C348.741 535.571 445.769 587.944 445.769 728.818C445.769 869.649 348.721 922.036 283.111 941.348C249.39 951.274 225.879 981.552 224.618 1016.28C223.356 1017.97 222.69 1312.95 222.69 1315.05C222.69 1359.86 259.013 1448.66 303.82 1448.66L639.607 1448.66L639.607 8.96831L303.82 8.96829C259.013 8.9673 222.689 97.7646 222.689 142.572Z" fill="#707070"/>
<path opacity="0.1328" d="M223.367 145.189C223.367 147.427 224.075 439.907 225.416 441.698C226.757 476.246 250.194 506.341 283.767 516.216C349.348 535.505 446.446 587.883 446.445 728.819C446.445 869.712 349.327 922.103 283.745 941.407C250.182 951.286 226.756 981.38 225.415 1015.92C224.075 1017.71 223.367 1310.2 223.367 1312.44C223.367 1356.85 259.366 1448.6 303.773 1448.6L640.164 1448.6L640.164 9.02914L303.773 9.02912C259.366 9.02813 223.367 100.781 223.367 145.189Z" fill="#6F6F6F"/>
<path opacity="0.1406" d="M224.043 147.805C224.043 150.173 224.793 440.163 226.213 442.059C227.633 476.417 250.983 506.328 284.399 516.157C349.952 535.439 447.122 587.821 447.122 728.818C447.122 869.771 349.932 922.169 284.378 941.464C250.97 951.297 227.631 981.206 226.212 1015.56C224.793 1017.45 224.043 1307.45 224.043 1309.82C224.043 1353.83 259.718 1448.54 303.725 1448.54L640.719 1448.54L640.719 9.08841L303.725 9.0884C259.718 9.0884 224.043 103.798 224.043 147.805Z" fill="#6E6E6E"/>
<path opacity="0.1484" d="M224.722 150.421C224.722 152.921 225.514 440.421 227.012 442.422C228.511 476.59 251.775 506.317 285.035 516.1C350.561 535.373 447.8 587.761 447.8 728.818C447.8 869.832 350.54 922.234 285.013 941.522C251.763 951.31 228.509 981.035 227.011 1015.2C225.514 1017.2 224.722 1304.71 224.722 1307.21C224.722 1350.81 260.072 1448.48 303.679 1448.48L641.277 1448.48L641.277 9.14914L303.679 9.14913C260.072 9.14813 224.722 106.813 224.722 150.421Z" fill="#6D6D6D"/>
<path opacity="0.1563" d="M225.4 153.036C225.4 155.668 226.234 440.677 227.812 442.783C229.389 476.762 252.567 506.304 285.67 516.041C351.169 535.307 448.479 587.699 448.479 728.818C448.479 869.894 351.148 922.3 285.648 941.58C252.554 951.321 229.387 980.862 227.811 1014.83C226.234 1016.94 225.4 1301.96 225.4 1304.59C225.4 1347.8 260.426 1448.42 303.633 1448.42L641.834 1448.42L641.834 9.20988L303.633 9.20987C260.425 9.20887 225.4 109.829 225.4 153.036Z" fill="#6C6C6C"/>
<path opacity="0.1641" d="M226.078 155.652C226.078 158.415 226.954 440.933 228.61 443.145C230.266 476.934 253.359 506.292 286.304 515.983C351.776 535.241 449.157 587.637 449.157 728.818C449.157 869.954 351.756 922.366 286.282 941.638C253.346 951.333 230.264 980.689 228.608 1014.47C226.952 1016.68 226.077 1299.21 226.077 1301.97C226.077 1344.78 260.779 1448.36 303.585 1448.36L642.391 1448.36L642.391 9.27062L303.586 9.2706C260.78 9.26961 226.078 112.845 226.078 155.652Z" fill="#6B6B6B"/>
<path opacity="0.1719" d="M226.755 158.268C226.755 161.163 227.672 441.19 229.408 443.508C231.143 477.106 254.149 506.28 286.938 515.925C352.383 535.174 449.834 587.576 449.834 728.817C449.834 870.014 352.362 922.431 286.916 941.696C254.136 951.345 231.141 980.516 229.407 1014.11C227.672 1016.43 226.755 1296.46 226.755 1299.36C226.755 1341.76 261.132 1448.3 303.539 1448.3L642.947 1448.3L642.947 9.32932L303.539 9.32931C261.132 9.32931 226.755 115.861 226.755 158.268Z" fill="#6A6A6A"/>
<path opacity="0.1797" d="M227.433 160.883C227.433 163.91 228.392 441.447 230.206 443.87C232.02 477.279 254.94 506.268 287.573 515.867C352.989 535.108 450.512 587.515 450.512 728.817C450.512 870.076 352.969 922.497 287.551 941.753C254.928 951.356 232.018 980.343 230.205 1013.75C228.391 1016.17 227.433 1293.72 227.433 1296.74C227.433 1338.75 261.486 1448.24 303.493 1448.24L643.504 1448.24L643.504 9.39005L303.493 9.39003C261.486 9.39102 227.433 118.876 227.433 160.883Z" fill="#696969"/>
<path opacity="0.1875" d="M228.111 163.499C228.111 166.657 229.112 441.704 231.005 444.232C232.897 477.451 255.731 506.257 288.207 515.809C353.597 535.043 451.19 587.454 451.19 728.817C451.19 870.137 353.577 922.563 288.185 941.811C255.719 951.368 232.895 980.171 231.003 1013.38C229.111 1015.91 228.111 1290.97 228.111 1294.13C228.111 1335.73 261.84 1448.18 303.446 1448.18L644.061 1448.18L644.061 9.45078L303.446 9.45077C261.84 9.45176 228.111 121.892 228.111 163.499Z" fill="#686868"/>
<path opacity="0.1953" d="M228.786 166.115C228.786 169.405 229.829 441.96 231.801 444.594C233.773 477.623 256.52 506.246 288.839 515.752C354.202 534.977 451.865 587.393 451.865 728.818C451.865 870.199 354.182 922.63 288.817 941.87C256.508 951.381 233.77 980 231.799 1013.02C229.828 1015.65 228.786 1288.22 228.786 1291.51C228.786 1332.72 262.19 1448.12 303.397 1448.12L644.615 1448.12L644.615 9.51151L303.397 9.5115C262.19 9.51149 228.786 124.908 228.786 166.115Z" fill="#676767"/>
<path opacity="0.2031" d="M229.466 168.73C229.466 172.151 230.55 442.217 232.602 444.957C234.652 477.796 257.314 506.233 289.476 515.693C354.811 534.91 452.545 587.332 452.545 728.817C452.545 870.259 354.792 922.695 289.454 941.927C257.301 951.391 234.649 979.826 232.599 1012.66C230.55 1015.4 229.466 1285.47 229.466 1288.89C229.466 1329.7 262.546 1448.06 303.353 1448.06L645.174 1448.06L645.174 9.57225L303.353 9.57224C262.546 9.57223 229.466 127.924 229.466 168.73Z" fill="#666666"/>
<path opacity="0.2109" d="M230.143 171.346C230.143 174.899 231.268 442.474 233.399 445.319C235.528 477.969 258.104 506.222 290.11 515.635C355.418 534.845 453.222 587.271 453.222 728.818C453.222 870.321 355.398 922.762 290.088 941.986C258.091 951.404 235.526 979.654 233.398 1012.3C231.268 1015.14 230.143 1282.73 230.143 1286.28C230.143 1326.68 262.899 1447.99 303.305 1447.99L645.73 1447.99L645.731 9.63202L303.305 9.632C262.9 9.63299 230.143 130.939 230.143 171.346Z" fill="#656565"/>
<path opacity="0.2188" d="M230.821 173.962C230.821 177.647 231.988 442.732 234.197 445.681C236.405 478.141 258.895 506.21 290.744 515.577C356.024 534.778 453.9 587.21 453.9 728.818C453.9 870.382 356.005 922.828 290.722 942.044C258.883 951.416 236.403 979.482 234.196 1011.94C231.988 1014.88 230.821 1279.98 230.821 1283.66C230.821 1323.67 263.252 1447.93 303.259 1447.93L646.287 1447.93L646.287 9.69283L303.259 9.69282C263.253 9.69281 230.821 133.956 230.821 173.962Z" fill="#646464"/>
<path opacity="0.2266" d="M231.499 176.578C231.499 180.394 232.708 442.988 234.996 446.043C237.283 478.313 259.686 506.198 291.378 515.519C356.632 534.713 454.578 587.149 454.578 728.817C454.578 870.442 356.613 922.894 291.356 942.102C259.673 951.427 237.28 979.31 234.994 1011.57C232.707 1014.63 231.498 1277.23 231.498 1281.05C231.498 1320.65 263.605 1447.87 303.211 1447.87L646.844 1447.87L646.844 9.75308L303.212 9.75307C263.607 9.75307 231.499 136.972 231.499 176.578Z" fill="#636363"/>
<path opacity="0.2344" d="M232.177 179.194C232.177 183.143 233.428 443.245 235.794 446.405C238.16 478.486 260.478 506.186 292.012 515.461C357.239 534.646 455.255 587.087 455.255 728.818C455.255 870.504 357.219 922.961 291.991 942.16C260.465 951.44 238.157 979.138 235.792 1011.21C233.427 1014.37 232.176 1274.48 232.176 1278.43C232.176 1317.64 263.959 1447.81 303.165 1447.81L647.4 1447.81L647.4 9.81478L303.165 9.81477C263.96 9.81377 232.177 139.988 232.177 179.194Z" fill="#626262"/>
<path opacity="0.2422" d="M232.854 181.809C232.854 185.889 234.147 443.502 236.593 446.766C239.037 478.656 261.269 506.173 292.647 515.402C357.845 534.579 455.933 587.025 455.933 728.817C455.933 870.564 357.827 923.025 292.625 942.217C261.255 951.45 239.035 978.964 236.591 1010.85C234.146 1014.11 232.854 1271.74 232.854 1275.81C232.854 1314.62 264.313 1447.75 303.119 1447.75L647.957 1447.75L647.957 9.87357L303.119 9.87356C264.312 9.87455 232.854 143.003 232.854 181.809Z" fill="#616161"/>
<path opacity="0.25" d="M233.532 184.425C233.532 188.636 234.867 443.759 237.391 447.13C239.915 478.831 262.06 506.162 293.282 515.345C358.454 534.515 456.612 586.966 456.612 728.818C456.612 870.626 358.435 923.093 293.26 942.277C262.048 951.464 239.913 978.794 237.39 1010.49C234.867 1013.86 233.533 1268.99 233.533 1273.2C233.533 1311.61 264.668 1447.69 303.073 1447.69L648.516 1447.69L648.516 9.93529L303.074 9.93527C264.666 9.93428 233.532 146.019 233.532 184.425Z" fill="#606060"/>
<path opacity="0.2578" d="M234.209 187.041C234.209 191.384 235.585 444.016 238.189 447.492C240.792 479.003 262.85 506.15 293.915 515.288C359.06 534.449 457.288 586.905 457.288 728.818C457.288 870.688 359.04 923.159 293.893 942.335C262.837 951.476 240.789 978.621 238.187 1010.13C235.585 1013.6 234.209 1266.24 234.209 1270.58C234.209 1308.59 265.019 1447.63 303.025 1447.63L649.07 1447.63L649.07 9.99699L303.025 9.99697C265.02 9.99498 234.209 149.034 234.209 187.041Z" fill="#5F5F5F"/>
<path opacity="0.2656" d="M234.888 189.657C234.888 194.132 236.306 444.273 238.988 447.854C241.67 479.176 263.643 506.138 294.55 515.229C359.668 534.383 457.967 586.843 457.967 728.818C457.967 870.748 359.649 923.224 294.529 942.392C263.63 951.487 241.667 978.448 238.986 1009.76C236.305 1013.34 234.888 1263.49 234.888 1267.97C234.888 1305.57 265.374 1447.57 302.98 1447.57L649.629 1447.57L649.629 10.0567L302.98 10.0567C265.374 10.0557 234.888 152.051 234.888 189.657Z" fill="#5E5E5E"/>
<path opacity="0.2734" d="M235.564 192.272C235.564 196.879 237.023 444.529 239.784 448.215C242.545 479.347 264.432 506.125 295.183 515.17C360.273 534.316 458.643 586.781 458.643 728.817C458.643 870.808 360.254 923.29 295.162 942.45C264.419 951.499 242.543 978.275 239.783 1009.4C237.023 1013.09 235.564 1260.75 235.564 1265.35C235.564 1302.56 265.726 1447.51 302.931 1447.51L650.184 1447.51L650.184 10.1164L302.931 10.1164C265.726 10.1164 235.564 155.067 235.564 192.272Z" fill="#5D5D5D"/>
<path opacity="0.2813" d="M236.243 194.888C236.243 199.626 237.744 444.787 240.585 448.579C243.425 479.52 265.225 506.114 295.819 515.113C360.881 534.25 459.322 586.721 459.322 728.818C459.322 870.871 360.862 923.356 295.797 942.508C265.212 951.512 243.421 978.104 240.583 1009.04C237.744 1012.83 236.243 1258 236.243 1262.74C236.243 1299.54 266.08 1447.45 302.887 1447.45L650.742 1447.45L650.742 10.1772L302.887 10.1771C266.08 10.1771 236.243 158.083 236.243 194.888Z" fill="#5C5C5C"/>
<path opacity="0.2891" d="M236.922 197.504C236.922 202.373 238.465 445.043 241.384 448.941C244.303 479.692 266.017 506.102 296.455 515.055C361.491 534.184 460.002 586.659 460.002 728.818C460.002 870.932 361.472 923.422 296.433 942.566C266.005 951.523 244.3 977.931 241.382 1008.68C238.465 1012.57 236.922 1255.25 236.922 1260.12C236.922 1296.53 266.435 1447.39 302.841 1447.39L651.301 1447.39L651.301 10.2379L302.842 10.2379C266.435 10.2379 236.922 161.098 236.922 197.504Z" fill="#5B5B5B"/>
<path opacity="0.2969" d="M237.598 200.119C237.598 205.12 239.183 445.3 242.181 449.302C245.178 479.863 266.807 506.089 297.087 514.996C362.095 534.117 460.677 586.598 460.677 728.817C460.677 870.991 362.076 923.488 297.066 942.623C266.794 951.534 245.175 977.758 242.179 1008.31C239.183 1012.32 237.598 1252.5 237.598 1257.5C237.598 1293.51 266.787 1447.33 302.793 1447.33L651.855 1447.33L651.856 10.2967L302.793 10.2967C266.788 10.2977 237.598 164.114 237.598 200.119Z" fill="#5A5A5A"/>
<path opacity="0.3047" d="M238.276 202.736C238.276 207.868 239.901 445.557 242.978 449.664C246.054 480.037 267.597 506.078 297.721 514.939C362.702 534.052 461.354 586.538 461.354 728.817C461.354 871.053 362.683 923.554 297.699 942.682C267.584 951.546 246.051 977.586 242.976 1007.95C239.9 1012.06 238.275 1249.76 238.275 1254.89C238.275 1290.49 267.139 1447.27 302.746 1447.27L652.412 1447.27L652.412 10.3584L302.746 10.3584C267.14 10.3584 238.276 167.13 238.276 202.736Z" fill="#595959"/>
<path opacity="0.3125" d="M238.952 205.352C238.952 210.616 240.62 445.813 243.776 450.026C246.931 480.21 268.388 506.067 298.354 514.881C363.308 533.986 462.031 586.476 462.031 728.818C462.031 871.115 363.289 923.621 298.333 942.74C268.375 951.559 246.928 977.413 243.775 1007.59C240.62 1011.8 238.954 1247.01 238.954 1252.27C238.953 1287.48 267.493 1447.21 302.699 1447.21L652.969 1447.21L652.969 10.4182L302.7 10.4182C267.493 10.4192 238.952 170.146 238.952 205.352Z" fill="#585858"/>
<path opacity="0.3203" d="M239.632 207.968C239.632 213.363 241.341 446.07 244.575 450.39C247.809 480.382 269.179 506.055 298.989 514.823C363.915 533.92 462.71 586.415 462.71 728.818C462.71 871.175 363.896 923.687 298.967 942.798C269.166 951.571 247.805 977.241 244.572 1007.23C241.339 1011.55 239.63 1244.26 239.63 1249.66C239.63 1284.46 267.847 1447.15 302.652 1447.15L653.525 1447.15L653.525 10.4785L302.652 10.4785C267.848 10.4795 239.632 173.162 239.632 207.968Z" fill="#575757"/>
<path opacity="0.3281" d="M240.31 210.583C240.31 216.11 242.061 446.327 245.374 450.751C248.687 480.554 269.972 506.042 299.625 514.764C364.525 533.854 463.39 586.354 463.39 728.817C463.39 871.236 364.506 923.752 299.604 942.856C269.959 951.582 248.684 977.068 245.372 1006.87C242.061 1011.29 240.31 1241.51 240.31 1247.04C240.31 1281.45 268.201 1447.09 302.607 1447.09L654.082 1447.09L654.082 10.5383L302.606 10.5382C268.2 10.5392 240.31 176.177 240.31 210.583Z" fill="#565656"/>
<path opacity="0.3359" d="M240.987 213.198C240.987 218.857 242.78 446.584 246.172 451.113C249.563 480.726 270.762 506.03 300.259 514.706C365.131 533.787 464.067 586.293 464.067 728.817C464.067 871.297 365.112 923.818 300.238 942.914C270.75 951.594 249.561 976.896 246.171 1006.5C242.78 1011.03 240.988 1238.77 240.988 1244.42C240.988 1278.43 268.555 1447.03 302.56 1447.03L654.639 1447.03L654.639 10.599L302.559 10.599C268.553 10.6 240.987 179.193 240.987 213.198Z" fill="#555555"/>
<path opacity="0.3438" d="M241.666 215.814C241.666 221.605 243.501 446.841 246.971 451.476C250.442 480.899 271.554 506.02 300.894 514.649C365.739 533.723 464.745 586.232 464.745 728.818C464.745 871.36 365.72 923.885 300.872 942.972C271.541 951.606 250.438 976.724 246.969 1006.14C243.5 1010.78 241.666 1236.02 241.666 1241.81C241.666 1275.41 268.909 1446.97 302.514 1446.97L655.197 1446.97L655.197 10.6607L302.514 10.6607C268.908 10.6607 241.666 182.209 241.666 215.814Z" fill="#545454"/>
<path opacity="0.3516" d="M242.343 218.431C242.343 224.352 244.218 447.098 247.769 451.838C251.318 481.071 272.345 506.008 301.527 514.591C366.345 533.657 465.422 586.171 465.422 728.818C465.422 871.42 366.326 923.951 301.505 943.031C272.331 951.618 251.314 976.553 247.766 1005.78C244.217 1010.52 242.342 1233.27 242.342 1239.19C242.342 1272.4 269.26 1446.91 302.465 1446.91L655.752 1446.91L655.752 10.7213L302.466 10.7213C269.261 10.7213 242.343 185.225 242.343 218.431Z" fill="#535353"/>
<path opacity="0.3594" d="M243.02 221.047C243.02 227.1 244.937 447.354 248.566 452.2C252.194 481.244 273.134 505.996 302.16 514.533C366.95 533.591 466.098 586.111 466.098 728.819C466.098 871.482 366.931 924.018 302.139 943.09C273.12 951.631 252.19 976.381 248.563 1005.42C244.936 1010.26 243.019 1230.53 243.019 1236.58C243.019 1269.38 269.613 1446.85 302.418 1446.85L656.309 1446.85L656.309 10.784L302.418 10.784C269.614 10.781 243.02 188.241 243.02 221.047Z" fill="#525252"/>
<path opacity="0.3672" d="M243.697 223.662C243.697 229.846 245.656 447.611 249.364 452.562C253.07 481.416 273.925 505.983 302.795 514.475C367.558 533.524 466.776 586.049 466.776 728.818C466.776 871.543 367.539 924.083 302.773 943.146C273.912 951.641 253.067 976.208 249.362 1005.06C245.655 1010.01 243.697 1227.78 243.697 1233.96C243.697 1266.37 269.966 1446.79 302.372 1446.79L656.865 1446.79L656.865 10.8428L302.372 10.8428C269.966 10.8418 243.697 191.257 243.697 223.662Z" fill="#515151"/>
<path opacity="0.375" d="M244.375 226.278C244.375 232.594 246.376 447.868 250.163 452.925C253.949 481.589 274.717 505.972 303.43 514.417C368.166 533.458 467.455 585.988 467.455 728.818C467.455 871.603 368.147 924.149 303.409 943.204C274.704 951.653 253.946 976.034 250.162 1004.69C246.377 1009.75 244.377 1225.03 244.377 1231.35C244.377 1263.35 270.322 1446.73 302.328 1446.73L657.424 1446.73L657.424 10.9026L302.328 10.9026C270.32 10.9026 244.375 194.272 244.375 226.278Z" fill="#505050"/>
<path opacity="0.3828" d="M245.054 228.894C245.054 235.342 247.097 448.125 250.963 453.286C254.828 481.761 275.51 505.959 304.065 514.359C368.774 533.391 468.133 585.926 468.133 728.817C468.133 871.663 368.756 924.213 304.043 943.262C275.496 951.665 254.823 975.861 250.96 1004.33C247.096 1009.49 245.054 1222.28 245.054 1228.73C245.054 1260.33 270.675 1446.66 302.28 1446.66L657.98 1446.66L657.981 10.9623L302.28 10.9623C270.675 10.9633 245.054 197.288 245.054 228.894Z" fill="#4F4F4F"/>
<path opacity="0.3906" d="M245.731 231.51C245.731 238.089 247.815 448.381 251.76 453.648C255.703 481.933 276.299 505.948 304.698 514.301C369.38 533.325 468.81 585.865 468.81 728.818C468.81 871.726 369.362 924.281 304.677 943.321C276.286 951.677 255.699 975.69 251.757 1003.97C247.815 1009.24 245.73 1219.53 245.73 1226.11C245.73 1257.32 271.026 1446.6 302.232 1446.6L658.535 1446.6L658.535 11.024L302.232 11.024C271.027 11.024 245.731 200.305 245.731 231.51Z" fill="#4E4E4E"/>
<path opacity="0.3984" d="M246.409 234.125C246.409 240.837 248.535 448.638 252.558 454.011C256.58 482.106 277.091 505.935 305.333 514.242C369.986 533.259 469.488 585.803 469.488 728.817C469.488 871.785 369.969 924.346 305.312 943.378C277.078 951.689 256.577 975.517 252.556 1003.61C248.534 1008.98 246.409 1216.79 246.409 1223.5C246.409 1254.3 271.381 1446.54 302.186 1446.54L659.094 1446.54L659.094 11.0839L302.186 11.0839C271.382 11.0839 246.409 203.321 246.409 234.125Z" fill="#4D4D4D"/>
<path opacity="0.4063" d="M247.086 236.741C247.086 243.584 249.254 448.896 253.356 454.373C257.458 482.277 277.881 505.924 305.966 514.184C370.593 533.193 470.164 585.743 470.164 728.817C470.164 871.847 370.575 924.412 305.944 943.436C277.867 951.7 257.453 975.345 253.353 1003.24C249.252 1008.72 247.085 1214.04 247.085 1220.88C247.085 1251.29 271.733 1446.48 302.138 1446.48L659.648 1446.48L659.649 11.1436L302.138 11.1436C271.734 11.1446 247.086 206.336 247.086 236.741Z" fill="#4C4C4C"/>
<path opacity="0.4141" d="M247.764 239.357C247.764 246.331 249.974 449.152 254.155 454.735C258.336 482.451 278.674 505.911 306.602 514.126C371.202 533.127 470.844 585.682 470.844 728.818C470.844 871.909 371.184 924.479 306.581 943.495C278.661 951.713 258.333 975.173 254.153 1002.88C249.974 1008.46 247.765 1211.29 247.765 1218.27C247.765 1248.27 272.088 1446.42 302.094 1446.42L660.207 1446.42L660.207 11.2054L302.094 11.2053C272.087 11.2053 247.764 209.352 247.764 239.357Z" fill="#4B4B4B"/>
<path opacity="0.4219" d="M248.442 241.972C248.442 249.079 250.694 449.408 254.954 455.097C259.213 482.623 279.464 505.901 307.237 514.069C371.808 533.062 471.521 585.621 471.521 728.818C471.521 871.969 371.79 924.545 307.215 943.552C279.451 951.725 259.208 975 254.951 1002.52C250.693 1008.21 248.442 1208.54 248.442 1215.65C248.442 1245.25 272.441 1446.36 302.046 1446.36L660.764 1446.36L660.764 11.2646L302.046 11.2646C272.441 11.2656 248.442 212.368 248.442 241.972Z" fill="#4A4A4A"/>
<path opacity="0.4297" d="M249.12 244.588C249.12 251.826 251.414 449.665 255.752 455.459C260.09 482.795 280.256 505.887 307.871 514.01C372.416 532.995 472.199 585.559 472.199 728.817C472.199 872.03 372.398 924.61 307.849 943.61C280.242 951.737 260.086 974.827 255.749 1002.16C251.412 1007.95 249.12 1205.8 249.12 1213.03C249.12 1242.24 272.796 1446.3 302 1446.3L661.32 1446.3L661.32 11.3244L302 11.3244C272.795 11.3254 249.12 215.384 249.12 244.588Z" fill="#494949"/>
<path opacity="0.4375" d="M249.798 247.204C249.798 254.574 252.133 449.923 256.551 455.822C260.968 482.967 281.047 505.876 308.505 513.952C373.023 532.929 472.877 585.498 472.877 728.818C472.877 872.092 373.005 924.677 308.484 943.669C281.034 951.749 260.964 974.656 256.548 1001.8C252.132 1007.7 249.799 1203.05 249.799 1210.42C249.799 1239.22 273.15 1446.24 301.954 1446.24L661.879 1446.24L661.879 11.386L301.955 11.386C273.148 11.386 249.798 218.399 249.798 247.204Z" fill="#484848"/>
<path opacity="0.4453" d="M250.474 249.82C250.474 257.322 252.85 450.18 257.347 456.184C261.843 483.14 281.837 505.864 309.137 513.895C373.628 532.863 473.552 585.437 473.552 728.818C473.552 872.153 373.61 924.743 309.115 943.727C281.822 951.76 261.837 974.483 257.343 1001.43C252.848 1007.44 250.473 1200.3 250.473 1207.8C250.473 1236.21 273.5 1446.18 301.904 1446.18L662.432 1446.18L662.432 11.4458L301.904 11.4458C273.501 11.4468 250.474 221.415 250.474 249.82Z" fill="#474747"/>
<path opacity="0.4531" d="M251.154 252.436C251.154 260.068 253.572 450.436 258.149 456.547C262.723 483.313 282.63 505.853 309.776 513.837C374.239 532.798 474.234 585.377 474.234 728.818C474.234 872.214 374.221 924.809 309.754 943.784C282.617 951.773 262.718 974.311 258.145 1001.07C253.572 1007.18 251.154 1197.56 251.154 1205.19C251.154 1233.19 273.857 1446.12 301.861 1446.12L662.992 1446.12L662.992 11.5075L301.861 11.5075C273.857 11.5075 251.154 224.431 251.154 252.436Z" fill="#464646"/>
<path opacity="0.4609" d="M251.829 255.051C251.829 262.815 254.289 450.693 258.944 456.907C263.598 483.483 283.419 505.84 310.407 513.777C374.842 532.73 474.909 585.314 474.909 728.816C474.909 872.273 374.825 924.873 310.386 943.841C283.406 951.783 263.593 974.137 258.942 1000.71C254.289 1006.92 251.83 1194.81 251.83 1202.57C251.83 1230.17 274.208 1446.06 301.812 1446.06L663.547 1446.06L663.547 11.5663L301.812 11.5663C274.207 11.5672 251.829 227.447 251.829 255.051Z" fill="#454545"/>
<path opacity="0.4688" d="M252.508 257.667C252.508 265.563 255.01 450.951 259.743 457.27C264.476 483.658 284.211 505.829 311.042 513.72C375.451 532.665 475.587 585.253 475.587 728.817C475.587 872.335 375.433 924.94 311.02 943.9C284.197 951.796 264.47 973.965 259.74 1000.35C255.009 1006.67 252.508 1192.06 252.508 1199.95C252.508 1227.16 274.562 1446 301.766 1446L664.104 1446L664.104 11.6289L301.766 11.6289C274.562 11.6289 252.508 230.462 252.508 257.667Z" fill="#444444"/>
<path opacity="0.4766" d="M253.187 260.283C253.187 268.31 255.731 451.207 260.543 457.632C265.354 483.83 285.003 505.817 311.677 513.663C376.059 532.6 476.266 585.193 476.266 728.818C476.266 872.397 376.041 925.007 311.656 943.959C284.99 951.808 265.35 973.795 260.54 999.987C255.73 1006.41 253.187 1189.31 253.187 1197.34C253.187 1224.15 274.916 1445.94 301.721 1445.94L664.662 1445.94L664.662 11.6887L301.721 11.6887C274.916 11.6887 253.187 233.479 253.187 260.283Z" fill="#434343"/>
<path opacity="0.4844" d="M253.862 262.899C253.862 271.058 256.448 451.464 261.338 457.995C266.228 484.002 285.791 505.805 312.309 513.604C376.663 532.532 476.94 585.132 476.94 728.817C476.94 872.457 376.645 925.072 312.287 944.016C285.777 951.819 266.222 973.62 261.334 999.622C256.446 1006.15 253.861 1186.56 253.861 1194.72C253.861 1221.13 275.266 1445.88 301.67 1445.88L665.215 1445.88L665.215 11.7495L301.67 11.7494C275.268 11.7494 253.862 236.494 253.862 262.899Z" fill="#424242"/>
<path opacity="0.4922" d="M254.543 265.514C254.543 273.805 257.17 451.72 262.14 458.357C267.109 484.174 286.586 505.793 312.946 513.546C377.273 532.467 477.621 585.071 477.621 728.818C477.621 872.519 377.255 925.139 312.924 944.075C286.572 951.832 267.102 973.449 262.136 999.261C257.167 1005.9 254.542 1183.82 254.542 1192.11C254.542 1218.11 275.623 1445.82 301.627 1445.82L665.775 1445.82L665.775 11.8103L301.628 11.8102C275.624 11.8102 254.543 239.51 254.543 265.514Z" fill="#414141"/>
<path opacity="0.5" d="M255.219 268.13C255.219 276.552 257.888 451.978 262.936 458.719C267.984 484.347 287.375 505.781 313.579 513.489C377.878 532.401 478.298 585.009 478.298 728.818C478.298 872.58 377.861 925.205 313.558 944.133C287.362 951.843 267.979 973.276 262.934 998.899C257.887 1005.64 255.22 1181.07 255.22 1189.49C255.22 1215.1 275.976 1445.76 301.581 1445.76L666.332 1445.76L666.332 11.871L301.581 11.871C275.976 11.871 255.219 242.526 255.219 268.13Z" fill="#404040"/>
<path opacity="0.5078" d="M255.898 270.746C255.898 279.3 258.609 452.234 263.737 459.081C268.863 484.519 288.168 505.769 314.215 513.43C378.488 532.335 478.977 584.949 478.977 728.818C478.977 872.641 378.47 925.271 314.193 944.191C288.155 951.856 268.857 973.105 263.733 998.538C258.607 1005.38 255.898 1178.32 255.898 1186.88C255.898 1212.08 276.33 1445.7 301.534 1445.7L666.889 1445.7L666.889 11.9317L301.534 11.9317C276.33 11.9307 255.898 245.542 255.898 270.746Z" fill="#3F3F3F"/>
<path opacity="0.5156" d="M256.576 273.361C256.576 282.047 259.328 452.491 264.534 459.443C269.739 484.692 288.958 505.756 314.848 513.371C379.094 532.268 479.654 584.886 479.654 728.817C479.654 872.702 379.076 925.337 314.828 944.248C288.945 951.866 269.734 972.931 264.531 998.175C259.327 1005.13 256.575 1175.58 256.575 1184.26C256.575 1209.06 276.683 1445.64 301.487 1445.64L667.445 1445.64L667.445 11.991L301.487 11.991C276.683 11.991 256.576 248.558 256.576 273.361Z" fill="#3E3E3E"/>
<path opacity="0.5234" d="M257.252 275.978C257.252 284.795 260.045 452.748 265.331 459.805C270.615 484.864 289.747 505.744 315.481 513.313C379.699 532.202 480.331 584.826 480.331 728.817C480.331 872.763 379.683 925.402 315.46 944.306C289.735 951.878 270.609 972.759 265.328 997.811C260.045 1004.87 257.252 1172.83 257.252 1181.64C257.252 1206.05 277.034 1445.57 301.438 1445.57L668 1445.57L668 12.0498L301.438 12.0498C277.034 12.0518 257.252 251.574 257.252 275.978Z" fill="#3D3D3D"/>
<path opacity="0.5313" d="M257.932 278.593C257.932 287.542 260.767 453.005 266.131 460.168C271.494 485.037 290.541 505.734 316.117 513.257C380.308 532.137 481.01 584.765 481.01 728.818C481.009 872.824 380.29 925.469 316.095 944.365C290.526 951.891 271.487 972.587 266.127 997.451C260.764 1004.61 257.931 1170.08 257.931 1179.03C257.931 1203.03 277.39 1445.52 301.393 1445.52L668.559 1445.52L668.559 12.1124L301.393 12.1124C277.391 12.1114 257.932 254.589 257.932 278.593Z" fill="#3C3C3C"/>
<path opacity="0.5391" d="M258.607 281.209C258.607 290.289 261.483 453.262 266.926 460.53C272.368 485.209 291.329 505.722 316.749 513.199C380.912 532.072 481.686 584.705 481.686 728.818C481.686 872.886 380.896 925.536 316.729 944.423C291.317 951.903 272.363 972.414 266.923 997.089C261.482 1004.36 258.607 1167.33 258.607 1176.41C258.607 1200.02 277.742 1445.45 301.345 1445.46L669.113 1445.46L669.113 12.1731L301.345 12.1731C277.742 12.1721 258.607 257.605 258.607 281.209Z" fill="#3B3B3B"/>
<path opacity="0.5469" d="M259.287 283.824C259.287 293.037 262.205 453.518 267.728 460.891C273.248 485.38 292.123 505.709 317.387 513.139C381.523 532.004 482.366 584.642 482.366 728.817C482.366 872.946 381.506 925.6 317.365 944.48C292.109 951.914 273.243 972.241 267.724 996.726C262.204 1004.1 259.287 1164.58 259.287 1173.79C259.287 1197 278.097 1445.39 301.3 1445.39L669.672 1445.39L669.672 12.2319L301.3 12.2319C278.097 12.2329 259.287 260.621 259.287 283.824Z" fill="#3A3A3A"/>
<path opacity="0.5547" d="M259.963 286.44C259.963 295.784 262.923 453.775 268.524 461.254C274.124 485.553 292.912 505.697 318.019 513.082C382.128 531.938 483.042 584.581 483.042 728.817C483.042 873.007 382.111 925.666 317.997 944.538C292.898 951.927 274.118 972.069 268.52 996.364C262.922 1003.84 259.963 1161.84 259.963 1171.18C259.963 1193.98 278.449 1445.33 301.253 1445.33L670.229 1445.33L670.229 12.2936L301.253 12.2936C278.449 12.2936 259.963 263.636 259.963 286.44Z" fill="#393939"/>
<path opacity="0.5625" d="M260.642 289.057C260.642 298.532 263.644 454.031 269.324 461.617C275.003 485.726 293.705 505.686 318.654 513.024C382.735 531.872 483.721 584.521 483.721 728.818C483.721 873.069 382.72 925.734 318.633 944.597C293.691 951.939 274.997 971.898 269.321 996.002C263.643 1003.59 260.643 1159.09 260.643 1168.56C260.643 1190.97 278.805 1445.27 301.209 1445.27L670.787 1445.27L670.787 12.3544L301.209 12.3543C278.804 12.3543 260.642 266.653 260.642 289.057Z" fill="#383838"/>
<path opacity="0.5703" d="M261.32 291.673C261.32 301.279 264.364 454.289 270.122 461.979C275.879 485.898 294.496 505.674 319.289 512.966C383.344 531.807 484.399 584.46 484.399 728.818C484.399 873.13 383.327 925.8 319.267 944.655C294.482 951.951 275.874 971.725 270.118 995.64C264.362 1003.33 261.319 1156.34 261.319 1165.95C261.319 1187.95 279.156 1445.21 301.159 1445.21L671.342 1445.21L671.342 12.4151L301.159 12.4151C279.156 12.4151 261.32 269.669 261.32 291.673Z" fill="#373737"/>
<path opacity="0.5781" d="M261.997 294.289C261.997 304.027 265.082 454.546 270.92 462.341C276.757 486.071 295.287 505.663 319.923 512.909C383.95 531.741 485.076 584.398 485.076 728.818C485.076 873.191 383.933 925.865 319.902 944.713C295.273 951.962 276.751 971.552 270.917 995.278C265.082 1003.07 261.997 1153.6 261.997 1163.33C261.997 1184.94 279.51 1445.15 301.113 1445.15L671.898 1445.15L671.899 12.4749L301.113 12.4749C279.51 12.4749 261.997 272.685 261.997 294.289Z" fill="#363636"/>
<path opacity="0.5859" d="M262.675 296.904C262.675 306.774 265.802 454.803 271.719 462.704C277.635 486.244 296.078 505.651 320.558 512.851C384.557 531.676 485.755 584.338 485.755 728.819C485.755 873.253 384.542 925.933 320.537 944.772C296.065 951.976 277.629 971.382 271.716 994.918C265.802 1002.82 262.676 1150.85 262.676 1160.72C262.676 1181.92 279.865 1445.09 301.068 1445.09L672.457 1445.09L672.457 12.5376L301.069 12.5376C279.864 12.5356 262.675 275.701 262.675 296.904Z" fill="#353535"/>
<path opacity="0.5938" d="M263.351 299.519C263.351 309.521 266.519 455.059 272.516 463.065C278.51 486.415 296.868 505.638 321.19 512.792C385.163 531.609 486.43 584.276 486.43 728.818C486.43 873.313 385.146 925.997 321.168 944.829C296.853 951.987 278.503 971.208 272.511 994.554C266.518 1002.56 263.351 1148.1 263.351 1158.1C263.351 1178.9 280.215 1445.03 301.019 1445.03L673.012 1445.03L673.012 12.5964L301.019 12.5964C280.215 12.5964 263.351 278.717 263.351 299.519Z" fill="#343434"/>
<path opacity="0.6016" d="M264.031 302.135C264.031 312.268 267.241 455.316 273.316 463.428C279.389 486.588 297.661 505.627 321.826 512.734C385.771 531.543 487.11 584.215 487.11 728.818C487.11 873.374 385.755 926.064 321.805 944.887C297.647 951.998 279.383 971.035 273.312 994.191C267.24 1002.3 264.031 1145.35 264.031 1155.48C264.031 1175.89 280.571 1444.97 300.975 1444.97L673.57 1444.97L673.57 12.6557L300.975 12.6557C280.571 12.6567 264.031 281.732 264.031 302.135Z" fill="#333333"/>
<path opacity="0.6094" d="M264.709 304.752C264.709 315.016 267.961 455.574 274.114 463.79C280.266 486.76 298.453 505.615 322.461 512.677C386.379 531.477 487.787 584.155 487.787 728.818C487.787 873.435 386.362 926.13 322.439 944.946C298.438 952.011 280.259 970.864 274.109 993.83C267.959 1002.05 264.708 1142.61 264.708 1152.87C264.708 1172.87 280.923 1444.91 300.927 1444.91L674.127 1444.91L674.127 12.7189L300.927 12.7188C280.925 12.7168 264.709 284.748 264.709 304.752Z" fill="#323232"/>
<path opacity="0.6172" d="M265.386 307.367C265.386 317.763 268.68 455.83 274.912 464.152C281.143 486.933 299.243 505.603 323.095 512.618C386.986 531.411 488.465 584.093 488.465 728.818C488.465 873.496 386.969 926.195 323.073 945.003C299.228 952.022 281.136 970.691 274.908 993.468C268.679 1001.79 265.386 1139.86 265.386 1150.25C265.386 1169.86 281.277 1444.85 300.881 1444.85L674.684 1444.85L674.684 12.7781L300.881 12.7781C281.277 12.7771 265.386 287.764 265.386 307.367Z" fill="#313131"/>
<path opacity="0.625" d="M266.064 309.983C266.064 320.51 269.4 456.087 275.71 464.513C282.02 487.104 300.034 505.59 323.729 512.559C387.592 531.343 489.143 584.031 489.143 728.817C489.143 873.557 387.577 926.261 323.708 945.06C300.021 952.032 282.014 970.517 275.707 993.105C269.398 1001.53 266.065 1137.11 266.065 1147.64C266.065 1166.84 281.632 1444.79 300.836 1444.79L675.242 1444.79L675.242 12.8378L300.836 12.8378C281.631 12.8378 266.064 290.78 266.064 309.983Z" fill="#303030"/>
<path opacity="0.6328" d="M266.74 312.599C266.74 323.258 270.117 456.344 276.508 464.876C282.896 487.277 300.824 505.578 324.362 512.502C388.199 531.278 489.819 583.969 489.819 728.817C489.819 873.617 388.182 926.327 324.34 945.119C300.809 952.045 282.889 970.346 276.503 992.743C270.115 1001.27 266.739 1134.36 266.739 1145.02C266.739 1163.82 281.981 1444.73 300.785 1444.73L675.795 1444.73L675.795 12.8976L300.785 12.8975C281.984 12.8985 266.74 293.795 266.74 312.599Z" fill="#2F2F2F"/>
<path opacity="0.6406" d="M267.419 315.214C267.419 326.005 270.838 456.6 277.307 465.238C283.775 487.449 301.617 505.566 324.998 512.443C388.806 531.212 490.498 583.909 490.498 728.817C490.498 873.678 388.79 926.393 324.977 945.176C301.603 952.057 283.768 970.172 277.303 992.38C270.837 1001.02 267.419 1131.62 267.419 1142.4C267.419 1160.81 282.338 1444.67 300.741 1444.67L676.354 1444.67L676.354 12.9583L300.741 12.9583C282.338 12.9583 267.419 296.811 267.419 315.214Z" fill="#2E2E2E"/>
<path opacity="0.6484" d="M268.096 317.83C268.096 328.752 271.557 456.857 278.105 465.6C284.651 487.622 302.407 505.554 325.631 512.386C389.413 531.147 491.175 583.848 491.175 728.818C491.175 873.741 389.397 926.46 325.61 945.235C302.392 952.069 284.644 970.001 278.101 992.019C271.556 1000.76 268.096 1128.87 268.096 1139.79C268.096 1157.79 282.691 1444.61 300.693 1444.61L676.91 1444.61L676.91 13.019L300.694 13.019C282.691 13.019 268.096 299.827 268.096 317.83Z" fill="#2D2D2D"/>
<path opacity="0.6563" d="M268.774 320.446C268.774 331.5 273.91 456.1 278.903 465.962C289.21 486.317 303.197 505.543 326.266 512.328C390.02 531.081 491.853 583.786 491.853 728.817C491.853 873.8 390.004 926.525 326.244 945.293C303.184 952.081 289.201 971.305 278.899 991.657C273.908 1001.52 268.774 1126.12 268.774 1137.17C268.774 1154.78 283.044 1444.55 300.647 1444.55L677.467 1444.55L677.467 13.0798L300.647 13.0797C283.044 13.0797 268.774 302.843 268.774 320.446Z" fill="#2C2C2C"/>
<path opacity="0.6641" d="M269.452 323.062C269.452 334.247 274.62 456.36 279.701 466.326C289.994 486.51 303.989 505.531 326.9 512.271C390.627 531.015 492.531 583.727 492.531 728.819C492.531 873.864 390.611 926.593 326.879 945.353C303.975 952.094 289.986 971.115 279.697 991.296C274.618 1001.26 269.452 1123.37 269.452 1134.56C269.452 1151.76 283.398 1444.49 300.601 1444.49L678.023 1444.49L678.024 13.1415L300.6 13.1414C283.397 13.1405 269.452 305.858 269.452 323.062Z" fill="#2B2B2B"/>
<path opacity="0.6719" d="M270.129 325.677C270.129 336.995 275.328 456.619 280.499 466.686C290.779 486.699 304.779 505.518 327.534 512.21C391.234 530.947 493.207 583.663 493.207 728.816C493.207 873.922 391.217 926.656 327.512 945.407C304.765 952.103 290.77 970.92 280.494 990.93C275.325 1001 270.128 1120.62 270.128 1131.94C270.128 1148.74 283.75 1444.42 300.552 1444.42L678.58 1444.42L678.58 13.2012L300.553 13.2012C283.75 13.2012 270.129 308.874 270.129 325.677Z" fill="#2A2A2A"/>
<path opacity="0.6797" d="M270.807 328.293C270.807 339.741 276.036 456.881 281.298 467.049C291.565 486.893 305.572 505.506 328.169 512.153C391.841 530.881 493.886 583.603 493.886 728.817C493.886 873.984 391.825 926.723 328.147 945.466C305.556 952.116 291.556 970.729 281.293 990.569C276.034 1000.74 270.807 1117.88 270.807 1129.32C270.807 1145.73 284.104 1444.36 300.507 1444.36L679.137 1444.36L679.137 13.2601L300.507 13.2601C284.104 13.2621 270.807 311.89 270.807 328.293Z" fill="#292929"/>
<path opacity="0.6875" d="M271.483 330.909C271.483 342.489 276.741 457.141 282.095 467.411C292.35 487.086 306.36 505.495 328.801 512.095C392.447 530.816 494.562 583.543 494.562 728.817C494.562 874.045 392.431 926.788 328.78 945.525C306.347 952.128 292.341 970.536 282.091 990.208C276.74 1000.48 271.484 1115.13 271.484 1126.71C271.484 1142.71 284.457 1444.3 300.46 1444.3L679.693 1444.3L679.693 13.3208L300.46 13.3208C284.456 13.3218 271.483 314.906 271.483 330.909Z" fill="#282828"/>
<path opacity="0.6953" d="M272.162 333.525C272.162 345.238 277.449 457.404 282.894 467.774C293.136 487.279 307.153 505.484 329.436 512.038C393.055 530.75 495.24 583.482 495.24 728.818C495.24 874.107 393.038 926.856 329.415 945.583C307.137 952.141 293.127 970.343 282.888 989.846C277.445 1000.21 272.16 1112.38 272.16 1124.09C272.16 1139.7 284.809 1444.25 300.411 1444.25L680.248 1444.25L680.248 13.3835L300.411 13.3835C284.811 13.3825 272.162 317.923 272.162 333.525Z" fill="#272727"/>
<path opacity="0.7031" d="M272.841 336.141C272.841 347.984 278.155 457.667 283.694 468.136C293.924 487.473 307.945 505.472 330.073 511.98C393.663 530.685 495.92 583.42 495.92 728.818C495.92 874.169 393.648 926.922 330.052 945.641C307.931 952.152 293.916 970.149 283.69 989.484C278.153 999.952 272.841 1109.64 272.841 1121.48C272.841 1136.68 285.165 1444.18 300.368 1444.18L680.809 1444.18L680.809 13.4418L300.368 13.4418C285.165 13.4428 272.841 320.939 272.841 336.141Z" fill="#262626"/>
<path opacity="0.7109" d="M273.518 338.756C273.518 350.732 278.857 457.93 284.49 468.498C294.709 487.667 308.735 505.459 330.705 511.921C394.269 530.618 496.596 583.359 496.596 728.818C496.596 874.229 394.254 926.987 330.684 945.7C308.721 952.165 294.7 969.956 284.486 989.123C278.855 999.689 273.517 1106.89 273.517 1118.86C273.517 1133.67 285.517 1444.13 300.32 1444.13L681.363 1444.13L681.363 13.5044L300.32 13.5044C285.517 13.5034 273.518 323.954 273.518 338.756Z" fill="#252525"/>
<path opacity="0.7188" d="M274.196 341.372C274.196 353.479 279.56 458.194 285.289 468.86C295.497 487.863 309.527 505.447 331.34 511.864C394.876 530.552 497.274 583.299 497.274 728.818C497.274 874.29 394.861 927.054 331.318 945.757C309.511 952.177 295.488 969.761 285.284 988.76C279.558 999.424 274.196 1104.14 274.196 1116.25C274.196 1130.65 285.871 1444.06 300.273 1444.06L681.92 1444.06L681.92 13.5642L300.273 13.5642C285.872 13.5632 274.196 326.969 274.196 341.372Z" fill="#242424"/>
<path opacity="0.7266" d="M274.873 343.988C274.873 356.226 280.26 458.459 286.087 469.222C296.283 488.059 310.317 505.435 331.973 511.806C395.483 530.486 497.952 583.237 497.952 728.818C497.952 874.352 395.468 927.12 331.953 945.815C310.303 952.188 296.274 969.563 286.082 988.398C280.258 999.16 274.873 1101.39 274.873 1113.63C274.873 1127.63 286.223 1444 300.226 1444L682.477 1444L682.477 13.6249L300.226 13.6249C286.224 13.6239 274.873 329.985 274.873 343.988Z" fill="#232323"/>
<path opacity="0.7344" d="M275.552 346.603C275.552 358.974 280.962 458.724 286.886 469.584C297.072 488.255 311.109 505.424 332.61 511.747C396.092 530.42 498.631 583.175 498.631 728.817C498.631 874.411 396.077 927.186 332.589 945.873C311.095 952.2 297.064 969.367 286.882 988.035C280.96 998.893 275.552 1098.65 275.552 1111.01C275.552 1124.62 286.579 1443.94 300.181 1443.94L683.035 1443.94L683.035 13.6847L300.181 13.6847C286.579 13.6847 275.552 333.001 275.552 346.603Z" fill="#222222"/>
<path opacity="0.7422" d="M276.23 349.219C276.23 361.721 281.662 458.991 287.686 469.946C297.861 488.452 311.902 505.412 333.245 511.69C396.699 530.354 499.309 583.115 499.309 728.818C499.309 874.473 396.684 927.252 333.224 945.932C311.888 952.213 297.852 969.171 287.682 987.674C281.661 998.627 276.231 1095.9 276.231 1108.4C276.231 1121.6 286.934 1443.88 300.136 1443.88L683.594 1443.88L683.594 13.7454L300.136 13.7454C286.932 13.7444 276.23 336.018 276.23 349.219Z" fill="#212121"/>
<path opacity="0.75" d="M276.907 351.835C276.907 364.469 282.358 459.259 288.482 470.309C298.648 488.649 312.69 505.4 333.877 511.631C397.305 530.287 499.986 583.053 499.986 728.817C499.986 874.534 397.29 927.317 333.856 945.988C312.676 952.223 298.639 968.972 288.477 987.31C282.356 998.36 276.906 1093.15 276.906 1105.78C276.906 1118.58 287.284 1443.82 300.086 1443.82L684.146 1443.82L684.147 13.8052L300.086 13.8052C287.284 13.8062 276.907 339.033 276.907 351.835Z" fill="#202020"/>
<path opacity="0.7578" d="M277.585 354.451C277.585 367.217 283.054 459.527 289.282 470.671C299.437 488.848 313.483 505.389 334.512 511.573C397.912 530.222 500.664 582.992 500.664 728.817C500.664 874.594 397.897 927.384 334.491 946.047C313.468 952.235 299.427 968.774 289.276 986.948C283.051 998.091 277.584 1090.4 277.584 1103.17C277.584 1115.57 287.638 1443.76 300.039 1443.76L684.703 1443.76L684.703 13.865L300.039 13.865C287.638 13.866 277.585 342.049 277.585 354.451Z" fill="#1F1F1F"/>
<path opacity="0.7656" d="M278.263 357.066C278.263 369.962 283.751 459.796 290.08 471.032C300.227 489.046 314.274 505.376 335.147 511.514C398.52 530.155 501.342 582.931 501.342 728.817C501.342 874.655 398.505 927.449 335.126 946.105C314.259 952.247 300.218 968.576 290.075 986.587C283.748 997.822 278.263 1087.66 278.263 1100.55C278.263 1112.55 287.992 1443.7 299.994 1443.7L685.262 1443.7L685.262 13.9267L299.994 13.9267C287.993 13.9267 278.263 345.065 278.263 357.066Z" fill="#1E1E1E"/>
<path opacity="0.7734" d="M278.941 359.682C278.941 372.711 284.444 460.066 290.878 471.395C301.016 489.245 315.066 505.364 335.781 511.458C399.127 530.091 502.02 582.871 502.02 728.818C502.02 874.718 399.112 927.516 335.76 946.163C315.051 952.259 301.007 968.377 290.873 986.225C284.442 997.553 278.941 1084.91 278.941 1097.93C278.941 1109.54 288.346 1443.64 299.947 1443.64L685.818 1443.64L685.818 13.9875L299.948 13.9874C288.346 13.9874 278.941 348.081 278.941 359.682Z" fill="#1D1D1D"/>
<path opacity="0.7813" d="M279.618 362.299C279.618 375.458 285.136 460.337 291.676 471.758C301.805 489.446 315.856 505.353 336.415 511.4C399.733 530.024 502.697 582.809 502.697 728.818C502.697 874.779 399.718 927.583 336.394 946.221C315.841 952.271 301.797 968.176 291.671 985.863C285.134 997.282 279.618 1082.16 279.618 1095.32C279.618 1106.52 288.699 1443.58 299.9 1443.58L686.375 1443.58L686.375 14.0472L299.9 14.0472C288.699 14.0482 279.618 351.096 279.618 362.299Z" fill="#1C1C1C"/>
<path opacity="0.7891" d="M280.296 364.914C280.296 378.206 285.828 460.609 292.474 472.12C302.595 489.647 316.647 505.34 337.049 511.341C400.341 529.957 503.375 582.748 503.375 728.818C503.375 874.839 400.326 927.648 337.028 946.28C316.633 952.283 302.586 967.976 292.469 985.501C285.825 997.01 280.296 1079.42 280.296 1092.7C280.296 1103.51 289.052 1443.52 299.854 1443.52L686.932 1443.52L686.932 14.108L299.854 14.1079C289.052 14.1079 280.296 354.112 280.296 364.914Z" fill="#1B1B1B"/>
<path opacity="0.7969" d="M280.973 367.53C280.973 380.953 286.517 460.882 293.272 472.482C303.385 489.848 317.437 505.329 337.683 511.284C400.947 529.891 504.052 582.687 504.052 728.818C504.052 874.901 400.932 927.714 337.662 946.338C317.422 952.295 303.376 967.774 293.267 985.138C286.514 996.737 280.973 1076.67 280.973 1090.09C280.973 1100.49 289.405 1443.46 299.806 1443.46L687.488 1443.46L687.488 14.1682L299.806 14.1682C289.405 14.1682 280.973 357.128 280.973 367.53Z" fill="#1A1A1A"/>
<path opacity="0.8047" d="M281.65 370.145C281.65 383.7 287.205 461.155 294.07 472.844C304.176 490.051 318.229 505.317 338.317 511.226C401.553 529.826 504.729 582.626 504.729 728.818C504.729 874.962 401.538 927.78 338.296 946.395C318.214 952.307 304.166 967.572 294.065 984.777C287.203 996.464 281.651 1073.92 281.651 1087.47C281.651 1097.47 289.759 1443.4 299.76 1443.4L688.045 1443.4L688.045 14.2298L299.76 14.2298C289.758 14.2288 281.65 360.144 281.65 370.145Z" fill="#191919"/>
<path opacity="0.8125" d="M282.328 372.761C282.328 386.447 287.892 461.431 294.869 473.207C304.968 490.253 319.02 505.305 338.951 511.167C402.161 529.759 505.407 582.564 505.407 728.817C505.407 875.021 402.146 927.845 338.93 946.453C319.005 952.319 304.958 967.369 294.863 984.414C287.889 996.188 282.327 1071.17 282.327 1084.86C282.327 1094.46 290.11 1443.34 299.712 1443.34L688.6 1443.34L688.6 14.2886L299.712 14.2886C290.112 14.2896 282.328 363.16 282.328 372.761Z" fill="#181818"/>
<path opacity="0.8203" d="M283.006 375.377C283.006 389.195 288.578 461.706 295.667 473.569C305.759 490.457 319.811 505.293 339.586 511.11C402.767 529.694 506.084 582.505 506.084 728.819C506.084 875.085 402.752 927.914 339.564 946.513C319.795 952.332 305.748 967.167 295.66 984.054C288.575 995.914 283.004 1068.43 283.004 1082.24C283.004 1091.44 290.463 1443.28 299.664 1443.28L689.156 1443.28L689.156 14.3513L299.664 14.3513C290.465 14.3493 283.006 366.176 283.006 375.377Z" fill="#171717"/>
<path opacity="0.8281" d="M283.684 377.993C283.684 391.942 289.263 461.983 296.466 473.931C306.552 490.661 320.602 505.281 340.221 511.052C403.376 529.628 506.763 582.443 506.763 728.818C506.763 875.145 403.361 927.979 340.2 946.569C320.588 952.343 306.543 966.961 296.461 983.69C289.261 995.636 283.684 1065.68 283.684 1079.62C283.684 1088.43 290.819 1443.22 299.62 1443.22L689.715 1443.22L689.715 14.412L299.62 14.412C290.819 14.41 283.684 369.191 283.684 377.993Z" fill="#161616"/>
<path opacity="0.8359" d="M284.363 380.609C284.363 394.69 289.947 462.262 297.265 474.292C307.345 490.866 321.395 505.268 340.856 510.993C403.984 529.561 507.442 582.381 507.442 728.817C507.442 875.205 403.969 928.043 340.835 946.627C321.38 952.354 307.336 966.755 297.26 983.328C289.945 995.358 284.363 1062.93 284.363 1077.01C284.363 1085.41 291.173 1443.16 299.575 1443.16L690.273 1443.16L690.273 14.4718L299.575 14.4718C291.173 14.4708 284.363 372.207 284.363 380.609Z" fill="#151515"/>
<path opacity="0.8438" d="M285.039 383.225C285.039 397.437 290.627 462.54 298.063 474.654C308.138 491.072 322.185 505.256 341.489 510.934C404.589 529.494 508.118 582.32 508.118 728.817C508.118 875.266 404.574 928.11 341.467 946.685C322.169 952.366 308.128 966.549 298.057 982.965C290.625 995.077 285.039 1060.18 285.039 1074.39C285.039 1082.39 291.526 1443.1 299.526 1443.1L690.828 1443.1L690.828 14.5316L299.526 14.5315C291.525 14.5315 285.039 375.223 285.039 383.225Z" fill="#141414"/>
<path opacity="0.8516" d="M285.718 385.841C285.718 400.184 291.309 462.821 298.862 475.018C308.933 491.28 322.977 505.246 342.124 510.878C405.198 529.43 508.797 582.259 508.797 728.818C508.797 875.329 405.183 928.177 342.104 946.744C322.961 952.379 308.923 966.343 298.856 982.604C291.306 994.798 285.718 1057.44 285.718 1071.78C285.718 1079.38 291.881 1443.04 299.481 1443.04L691.387 1443.04L691.387 14.5924L299.481 14.5924C291.88 14.5924 285.718 378.239 285.718 385.841Z" fill="#131313"/>
<path opacity="0.8594" d="M286.394 388.455C286.394 402.932 291.986 463.102 299.658 475.379C309.725 491.487 323.766 505.233 342.758 510.819C405.804 529.363 509.474 582.197 509.474 728.818C509.474 875.39 405.789 928.242 342.737 946.801C323.752 952.39 309.716 966.136 299.653 982.242C291.984 994.516 286.395 1054.69 286.395 1069.16C286.395 1076.36 292.233 1442.98 299.434 1442.98L691.943 1442.98L691.943 14.6531L299.435 14.6531C292.232 14.6531 286.394 381.255 286.394 388.455Z" fill="#121212"/>
<path opacity="0.8672" d="M287.073 391.072C287.073 405.679 292.664 463.385 300.458 475.741C310.521 491.695 324.558 505.221 343.393 510.76C406.411 529.296 510.152 582.136 510.152 728.817C510.152 875.449 406.397 928.307 343.372 946.859C324.543 952.401 310.512 965.927 300.453 981.879C292.662 994.233 287.073 1051.94 287.073 1066.54C287.073 1073.35 292.587 1442.91 299.388 1442.91L692.5 1442.91L692.5 14.7129L299.388 14.7128C292.587 14.7128 287.073 384.271 287.073 391.072Z" fill="#111111"/>
<path opacity="0.875" d="M287.751 393.688C287.751 408.428 293.341 463.671 301.256 476.104C311.316 491.905 325.35 505.21 344.027 510.703C407.019 529.232 510.83 582.076 510.83 728.818C510.83 875.512 407.005 928.375 344.006 946.918C325.335 952.414 311.307 965.719 301.25 981.517C293.338 993.95 287.75 1049.19 287.75 1063.93C287.75 1070.33 292.939 1442.85 299.341 1442.85L693.057 1442.85L693.057 14.7736L299.341 14.7736C292.941 14.7736 287.751 387.287 287.751 393.688Z" fill="#101010"/>
<path opacity="0.8828" d="M288.427 396.304C288.427 411.174 294.013 463.955 302.053 476.466C312.11 492.115 326.139 505.199 344.659 510.646C407.623 529.166 511.505 582.015 511.505 728.818C511.505 875.573 407.609 928.44 344.639 946.976C326.123 952.426 312.1 965.509 302.047 981.156C294.01 993.665 288.426 1046.45 288.426 1061.31C288.426 1067.31 293.291 1442.79 299.292 1442.79L693.611 1442.79L693.611 14.8343L299.292 14.8343C293.292 14.8343 288.427 390.303 288.427 396.304Z" fill="#0F0F0F"/>
<path opacity="0.8906" d="M289.107 398.919C289.107 413.921 294.688 464.242 302.854 476.827C312.909 492.324 326.933 505.186 345.297 510.587C408.234 529.099 512.186 581.953 512.186 728.818C512.186 875.633 408.22 928.506 345.276 947.034C326.918 952.437 312.899 965.298 302.848 980.794C294.686 993.377 289.107 1043.7 289.107 1058.7C289.107 1064.3 293.648 1442.73 299.249 1442.73L694.172 1442.73L694.172 14.8945L299.249 14.8945C293.648 14.8935 289.107 393.318 289.107 398.919Z" fill="#0E0E0E"/>
<path opacity="0.8984" d="M289.783 401.535C289.783 416.668 295.357 464.531 303.651 477.19C313.705 492.537 327.722 505.174 345.929 510.529C408.838 529.033 512.862 581.892 512.862 728.818C512.862 875.695 408.825 928.573 345.908 947.092C327.707 952.449 313.695 965.086 303.645 980.432C295.355 993.09 289.783 1040.95 289.783 1056.08C289.783 1061.28 293.999 1442.67 299.201 1442.67L694.727 1442.67L694.727 14.9543L299.201 14.9542C293.999 14.9542 289.783 396.333 289.783 401.535Z" fill="#0D0D0D"/>
<path opacity="0.9063" d="M290.46 404.151C290.46 419.416 296.026 464.82 304.448 477.553C314.501 492.75 328.513 505.163 346.563 510.472C409.445 528.967 513.539 581.832 513.539 728.818C513.539 875.756 409.432 928.638 346.542 947.15C328.498 952.461 314.491 964.873 304.443 980.069C296.024 992.8 290.461 1038.2 290.461 1053.47C290.461 1058.27 294.353 1442.61 299.154 1442.61L695.283 1442.61L695.283 15.015L299.154 15.015C294.353 15.015 290.46 399.349 290.46 404.151Z" fill="#0C0C0C"/>
<path opacity="0.9141" d="M291.138 406.767C291.138 422.164 296.694 465.111 305.246 477.914C315.3 492.964 329.304 505.15 347.198 510.413C410.053 528.901 514.217 581.769 514.217 728.817C514.217 875.815 410.039 928.704 347.177 947.207C329.289 952.473 315.29 964.659 305.24 979.706C296.691 992.509 291.138 1035.45 291.138 1050.85C291.138 1055.25 294.706 1442.55 299.107 1442.55L695.84 1442.55L695.84 15.0748L299.107 15.0747C294.706 15.0757 291.138 402.366 291.138 406.767Z" fill="#0B0B0B"/>
<path opacity="0.9219" d="M291.817 409.383C291.817 424.911 297.36 465.403 306.045 478.277C316.098 493.179 330.095 505.139 347.832 510.355C410.659 528.836 514.895 581.71 514.895 728.818C514.895 875.878 410.646 928.771 347.811 947.266C330.08 952.485 316.088 964.445 306.039 979.345C297.358 992.217 291.817 1032.71 291.817 1048.23C291.817 1052.23 295.059 1442.49 299.06 1442.49L696.396 1442.49L696.397 15.1365L299.061 15.1364C295.059 15.1364 291.817 405.382 291.817 409.383Z" fill="#0A0A0A"/>
<path opacity="0.9297" d="M292.495 411.998C292.495 427.658 298.026 465.697 306.844 478.639C316.898 493.394 330.887 505.126 348.467 510.297C411.268 528.768 515.573 581.647 515.573 728.817C515.573 875.938 411.254 928.835 348.446 947.323C330.872 952.496 316.888 964.228 306.838 978.982C298.023 991.922 292.495 1029.96 292.495 1045.62C292.495 1049.22 295.414 1442.43 299.015 1442.43L696.955 1442.43L696.955 15.1962L299.015 15.1962C295.414 15.1962 292.495 408.398 292.495 411.998Z" fill="#090909"/>
<path opacity="0.9375" d="M293.172 414.614C293.172 430.406 298.688 465.992 307.643 479.001C317.699 493.61 331.679 505.114 349.101 510.239C411.874 528.703 516.252 581.586 516.252 728.818C516.251 875.999 411.861 928.903 349.08 947.382C331.663 952.509 317.688 964.012 307.636 978.62C298.685 991.628 293.171 1027.21 293.171 1043C293.171 1046.2 295.766 1442.37 298.967 1442.37L697.51 1442.37L697.51 15.257L298.967 15.257C295.767 15.257 293.172 411.414 293.172 414.614Z" fill="#080808"/>
<path opacity="0.9453" d="M293.851 417.23C293.851 433.153 299.349 466.29 308.441 479.363C318.499 493.828 332.47 505.102 349.736 510.181C412.482 528.637 516.93 581.526 516.93 728.818C516.93 876.061 412.469 928.969 349.716 947.44C332.456 952.521 318.491 963.795 308.436 978.258C299.348 991.33 293.851 1024.47 293.851 1040.39C293.851 1043.19 296.121 1442.31 298.922 1442.31L698.068 1442.31L698.068 15.3188L298.922 15.3187C296.12 15.3177 293.851 414.429 293.851 417.23Z" fill="#070707"/>
<path opacity="0.9531" d="M294.527 419.845C294.527 435.9 300.007 466.587 309.238 479.725C319.299 494.046 333.26 505.09 350.369 510.123C413.088 528.571 517.606 581.465 517.606 728.818C517.606 876.122 413.074 929.034 350.348 947.498C333.244 952.533 319.289 963.576 309.232 977.896C300.005 991.032 294.527 1021.72 294.527 1037.77C294.527 1040.17 296.473 1442.25 298.873 1442.25L698.623 1442.25L698.623 15.3785L298.873 15.3785C296.473 15.3785 294.527 417.445 294.527 419.845Z" fill="#060606"/>
<path opacity="0.9609" d="M295.205 422.461C295.205 438.648 300.666 466.888 310.036 480.087C320.101 494.266 334.05 505.078 351.003 510.064C413.694 528.504 518.284 581.403 518.284 728.817C518.284 876.182 413.681 929.1 350.982 947.555C334.035 952.544 320.091 963.356 310.03 977.534C300.664 990.733 295.205 1018.97 295.205 1035.15C295.205 1037.15 296.827 1442.19 298.827 1442.19L699.18 1442.19L699.18 15.4383L298.827 15.4382C296.827 15.4392 295.205 420.461 295.205 422.461Z" fill="#050505"/>
<path opacity="0.9688" d="M295.884 425.077C295.884 441.395 301.324 467.19 310.835 480.45C320.906 494.486 334.842 505.067 351.638 510.007C414.302 528.439 518.962 581.341 518.962 728.818C518.962 876.244 414.289 929.167 351.617 947.614C334.827 952.557 320.895 963.137 310.83 977.173C301.321 990.431 295.884 1016.22 295.884 1032.54C295.884 1034.14 297.181 1442.13 298.781 1442.13L699.738 1442.13L699.738 15.5L298.781 15.5C297.181 15.499 295.884 423.477 295.884 425.077Z" fill="#040404"/>
<path opacity="0.9766" d="M296.56 427.692C296.56 444.143 301.977 467.494 311.633 480.812C321.708 494.708 335.633 505.055 352.272 509.948C414.909 528.372 519.639 581.281 519.639 728.817C519.639 876.304 414.895 929.231 352.251 947.671C335.617 952.568 321.697 962.915 311.626 976.81C301.974 990.127 296.56 1013.48 296.56 1029.92C296.56 1031.12 297.533 1442.07 298.733 1442.07L700.293 1442.07L700.293 15.5597L298.733 15.5597C297.533 15.5597 296.56 426.492 296.56 427.692Z" fill="#030303"/>
<path opacity="0.9844" d="M297.24 430.308C297.24 446.89 302.632 467.798 312.433 481.174C322.514 494.931 336.426 505.042 352.909 509.89C415.518 528.306 520.32 581.22 520.32 728.817C520.32 876.366 415.505 929.298 352.889 947.729C336.411 952.579 322.505 962.692 312.428 976.446C302.631 989.82 297.242 1010.73 297.242 1027.31C297.242 1028.11 297.89 1442.01 298.691 1442.01L700.854 1442.01L700.854 15.6189L298.691 15.6189C297.889 15.6199 297.24 429.508 297.24 430.308Z" fill="#020202"/>
<path opacity="0.9922" d="M297.916 432.924C297.916 449.637 303.281 468.106 313.23 481.536C323.318 495.154 337.215 505.031 353.541 509.833C416.124 528.24 520.995 581.159 520.995 728.818C520.995 876.427 416.11 929.365 353.52 947.788C337.2 952.593 323.308 962.469 313.224 976.086C303.279 989.516 297.916 1007.98 297.916 1024.69C297.916 1025.09 298.24 1441.95 298.64 1441.95L701.406 1441.95L701.406 15.6806L298.639 15.6806C298.239 15.6806 297.916 432.524 297.916 432.924Z" fill="#010101"/>
<path d="M298.595 435.54C298.595 452.385 303.932 468.415 314.029 481.898C324.125 495.38 338.007 505.019 354.176 509.775C416.731 528.175 521.674 581.098 521.674 728.818C521.674 876.488 416.718 929.431 354.155 947.846C337.992 952.603 324.114 962.244 314.023 975.724C303.929 989.206 298.595 1005.23 298.595 1022.08L298.595 1441.89L701.965 1441.89L701.965 15.7404L298.595 15.7404L298.595 435.54Z" fill="black"/>
</g>
<path d="M710.96 0.852295L290.03 0.852277L290.03 430.512C290.03 468.473 315.053 501.866 351.472 512.579C417.843 532.101 514.216 584.654 514.216 725.244C514.216 865.791 417.822 918.358 351.45 937.895C315.042 948.612 290.031 982.002 290.031 1019.96L290.031 1449.63L710.961 1449.63L710.96 0.852295Z" fill="white"/>
<g clip-path="url(#clip0_43_437)">
<path d="M172.616 715.828L186.194 696.532C186.359 678.442 190.428 663.921 198.294 653.358C208.354 639.849 224.413 633 246.026 633C268.134 633 284.883 637.513 295.807 646.414C306.017 654.733 311.193 666.764 311.193 682.174C311.193 707.937 295.185 743.878 292.291 749.512V814.387C292.291 816.382 290.673 818 288.678 818C286.682 818 285.064 816.382 285.064 814.387V748.629C285.064 748.039 285.208 747.459 285.484 746.938C285.669 746.589 303.967 708.118 303.967 682.174C303.967 669.042 299.685 658.896 291.242 652.016C281.641 644.193 266.428 640.227 246.026 640.227C226.821 640.227 212.712 646.097 204.09 657.674C197.007 667.186 193.416 680.647 193.416 697.684C193.416 698.428 193.185 699.154 192.757 699.763L178.526 719.986C178.091 720.604 178.201 721.211 178.304 721.518C178.408 721.825 178.69 722.374 179.41 722.602L190.891 726.227C192.394 726.702 193.416 728.097 193.416 729.673V755.473C193.416 760.198 197.26 764.042 201.984 764.042H228.577C237.132 764.042 244.351 754.991 244.351 750.215C244.351 748.22 245.969 746.602 247.964 746.602C249.959 746.602 251.577 748.22 251.577 750.215C251.577 754.629 248.999 761.021 244.681 764.892C240.096 769.004 234.376 771.268 228.577 771.268H226.374V814.387C226.374 816.382 224.756 818 222.761 818C220.766 818 219.148 816.382 219.148 814.387V771.268H201.984C193.275 771.268 186.189 764.182 186.189 755.473V732.321L177.233 729.493C174.486 728.625 172.38 726.562 171.458 723.832C170.536 721.102 170.958 718.185 172.616 715.828Z" fill="white"/>
<path d="M309.198 767.565H327.817C331.844 767.565 335.121 764.289 335.121 760.262V736.015C335.121 734.439 336.143 733.044 337.646 732.569L347.935 729.321C348.422 729.167 348.613 728.795 348.683 728.588C348.753 728.38 348.827 727.969 348.533 727.551L335.779 709.427C335.351 708.819 335.121 708.092 335.121 707.348C335.121 683.043 327.038 667.226 311.096 660.336C309.264 659.544 308.421 657.417 309.213 655.586C310.004 653.754 312.131 652.91 313.963 653.702C324.189 658.121 331.774 665.65 336.509 676.078C340.261 684.342 342.221 694.469 342.342 706.196L354.443 723.392C355.998 725.603 356.394 728.34 355.529 730.901C354.664 733.462 352.689 735.398 350.111 736.212L342.347 738.664V760.262C342.347 768.274 335.829 774.792 327.817 774.792H312.811V814.387C312.811 816.382 311.193 818 309.198 818C307.202 818 305.584 816.382 305.584 814.387V771.179C305.584 769.183 307.202 767.565 309.198 767.565Z" fill="white"/>
<path d="M260.402 713.971C260.402 715.967 258.784 717.585 256.789 717.585C254.794 717.585 253.176 715.967 253.176 713.971V709.697C253.176 708.416 253.854 707.231 254.958 706.582C259.117 704.136 261.701 699.628 261.701 694.815C261.701 687.294 255.582 681.175 248.061 681.175C240.539 681.175 234.42 687.294 234.42 694.815C234.42 699.628 237.004 704.137 241.163 706.582C242.268 707.231 242.946 708.416 242.946 709.697V713.971C242.946 715.967 241.328 717.585 239.332 717.585C237.337 717.585 235.719 715.967 235.719 713.971V711.637C230.414 707.731 227.194 701.464 227.194 694.816C227.194 683.31 236.555 673.949 248.061 673.949C259.567 673.949 268.928 683.31 268.928 694.816C268.928 701.464 265.707 707.731 260.402 711.637V713.971Z" fill="white"/>
<path d="M233.68 724.4C233.68 722.404 235.298 720.786 237.293 720.786H258.559C260.554 720.786 262.172 722.404 262.172 724.4C262.172 726.395 260.554 728.013 258.559 728.013H237.293C235.297 728.013 233.68 726.395 233.68 724.4Z" fill="white"/>
<path d="M237.988 735.915C237.988 733.92 239.606 732.302 241.601 732.302H254.658C256.653 732.302 258.271 733.92 258.271 735.915C258.271 737.91 256.653 739.528 254.658 739.528H241.601C239.605 739.528 237.988 737.91 237.988 735.915Z" fill="white"/>
<path d="M291.055 697.15C291.055 699.145 289.437 700.763 287.441 700.763H275.757C273.761 700.763 272.143 699.145 272.143 697.15C272.143 695.154 273.761 693.537 275.757 693.537H287.441C289.437 693.537 291.055 695.154 291.055 697.15Z" fill="white"/>
<path d="M205.048 697.15C205.048 695.154 206.666 693.537 208.661 693.537H220.346C222.341 693.537 223.959 695.154 223.959 697.15C223.959 699.145 222.341 700.763 220.346 700.763H208.661C206.665 700.763 205.048 699.145 205.048 697.15Z" fill="white"/>
<path d="M270.197 714.186L278.459 722.449C279.87 723.86 279.871 726.148 278.459 727.559C277.754 728.264 276.829 728.617 275.904 728.617C274.98 728.617 274.055 728.264 273.349 727.559L265.086 719.296C263.675 717.885 263.675 715.597 265.086 714.186C266.497 712.775 268.785 712.775 270.197 714.186Z" fill="white"/>
<path d="M222.752 666.741L231.014 675.004C232.425 676.415 232.425 678.703 231.014 680.114C230.308 680.819 229.384 681.172 228.459 681.172C227.534 681.172 226.61 680.819 225.904 680.114L217.642 671.851C216.231 670.44 216.231 668.152 217.642 666.741C219.053 665.33 221.34 665.33 222.752 666.741Z" fill="white"/>
<path d="M244.438 669.444V657.759C244.438 655.763 246.056 654.145 248.051 654.145C250.046 654.145 251.664 655.763 251.664 657.759V669.444C251.664 671.439 250.046 673.057 248.051 673.057C246.056 673.057 244.438 671.439 244.438 669.444Z" fill="white"/>
<path d="M231.014 714.186C232.425 715.597 232.425 717.885 231.014 719.296L222.752 727.558C222.046 728.264 221.122 728.617 220.197 728.617C219.272 728.617 218.348 728.264 217.642 727.558C216.231 726.148 216.231 723.86 217.642 722.449L225.904 714.186C227.314 712.775 229.602 712.775 231.014 714.186Z" fill="white"/>
<path d="M267.642 681.172C266.717 681.172 265.792 680.819 265.087 680.113C263.676 678.702 263.676 676.414 265.087 675.003L273.349 666.741C274.76 665.33 277.048 665.33 278.459 666.741C279.87 668.152 279.87 670.44 278.459 671.851L270.197 680.113C269.491 680.819 268.567 681.172 267.642 681.172Z" fill="white"/>
</g>
<defs>
<clipPath id="clip0_43_437">
<rect width="185" height="185" fill="white" transform="matrix(-1 0 0 1 355.979 633)"/>
</clipPath>
</defs>
</svg>
