<svg width="829" height="407" viewBox="0 0 829 407" fill="none" xmlns="http://www.w3.org/2000/svg">
<path d="M414.073 406.388C458.591 406.388 500.445 389.052 531.923 357.573C563.402 326.095 580.738 284.241 580.738 239.723C580.738 195.204 563.402 153.351 531.923 121.872C500.444 90.3928 458.591 73.0568 414.073 73.0568C369.555 73.0568 327.701 90.3934 296.222 121.872C264.743 153.351 247.407 195.204 247.407 239.723C247.407 284.241 264.743 326.095 296.222 357.573C327.702 389.052 369.555 406.388 414.073 406.388Z" fill="#898787"/>
<g opacity="0.26">
<path opacity="0.01" d="M54.7667 285.611C54.8422 285.611 245.75 285.587 245.81 285.542C267.401 285.497 286.383 271.242 292.48 250.515C303.634 212.591 333.677 157.463 414.077 157.463C494.451 157.463 524.503 212.604 535.665 250.527C541.764 271.249 560.745 285.496 582.331 285.542C582.392 285.587 773.306 285.611 773.382 285.611C802.569 285.611 828.113 261.95 828.113 232.763L828.113 45.0685L0.0347521 45.0686L0.0347685 232.763C0.0353427 261.95 25.5799 285.611 54.7667 285.611Z" fill="#7F7F7F"/>
<path opacity="0.0156" d="M56.2687 285.221C56.4196 285.221 245.896 285.173 246.018 285.082C267.499 284.991 286.376 270.787 292.446 250.15C303.596 212.242 333.642 157.072 414.076 157.072C494.485 157.072 524.539 212.254 535.697 250.162C541.77 270.794 560.645 284.991 582.122 285.082C582.243 285.173 771.727 285.221 771.878 285.221C800.835 285.221 828.078 261.746 828.078 232.789L828.078 44.748L0.0693736 44.7481L0.06939 232.789C0.0693925 261.747 27.3116 285.221 56.2687 285.221Z" fill="#7E7E7E"/>
<path opacity="0.0234" d="M57.7725 284.832C57.9994 284.832 246.045 284.76 246.227 284.624C267.599 284.488 286.37 270.333 292.414 249.785C303.559 211.893 333.607 156.683 414.077 156.683C494.521 156.683 524.578 211.905 535.732 249.798C541.779 270.34 560.548 284.488 581.916 284.624C582.097 284.76 770.15 284.831 770.377 284.831C799.104 284.831 828.045 261.543 828.045 232.816L828.045 44.4277L0.105878 44.4278L0.105895 232.816C0.104754 261.544 29.0452 284.832 57.7725 284.832Z" fill="#7D7D7D"/>
<path opacity="0.0313" d="M59.275 284.443C59.5774 284.443 246.193 284.347 246.435 284.165C267.698 283.984 286.363 269.878 292.381 249.421C303.522 211.545 333.573 156.294 414.077 156.294C494.557 156.294 524.617 211.557 535.766 249.434C541.785 269.885 560.449 283.984 581.707 284.165C581.949 284.347 768.572 284.442 768.874 284.442C797.372 284.442 828.01 261.34 828.01 232.843L828.01 44.1084L0.139872 44.1085L0.139888 232.843C0.139319 261.341 30.7775 284.443 59.275 284.443Z" fill="#7C7C7C"/>
<path opacity="0.0391" d="M60.7776 284.053C61.1554 284.053 246.34 283.934 246.643 283.707C267.797 283.48 286.356 269.424 292.347 249.057C303.483 211.196 333.537 155.905 414.077 155.905C494.592 155.905 524.654 211.208 535.798 249.069C541.792 269.431 560.35 283.48 581.499 283.707C581.801 283.934 766.993 284.054 767.371 284.054C795.639 284.054 827.975 261.138 827.975 232.87L827.975 43.7891L0.174493 43.7891L0.17451 232.87C0.174512 261.137 32.5099 284.053 60.7776 284.053Z" fill="#7B7B7B"/>
<path opacity="0.0469" d="M62.2795 283.665C62.7333 283.665 246.487 283.521 246.85 283.249C267.895 282.977 286.348 268.97 292.313 248.693C303.444 210.848 333.501 155.516 414.076 155.516C494.626 155.516 524.691 210.86 535.831 248.705C541.798 268.977 560.25 282.977 581.29 283.249C581.653 283.521 765.415 283.665 765.868 283.665C793.906 283.665 827.939 260.935 827.939 232.897L827.939 43.4697L0.208487 43.4698L0.208503 232.897C0.208506 260.935 34.2416 283.665 62.2795 283.665Z" fill="#7A7A7A"/>
<path opacity="0.0547" d="M63.7819 283.275C64.3112 283.275 246.634 283.108 247.058 282.79C267.994 282.473 286.341 268.516 292.279 248.329C303.406 210.499 333.466 155.127 414.076 155.127C494.661 155.127 524.729 210.511 535.864 248.341C541.804 268.523 560.151 282.473 581.082 282.79C581.506 283.108 763.836 283.275 764.365 283.275C792.173 283.275 827.904 260.732 827.904 232.924L827.904 43.1494L0.243038 43.1495L0.243055 232.924C0.243057 260.732 35.9738 283.275 63.7819 283.275Z" fill="#797979"/>
<path opacity="0.0625" d="M65.285 282.886C65.8898 282.886 246.783 282.694 247.266 282.332C268.094 281.969 286.335 268.061 292.246 247.964C303.368 210.15 333.431 154.738 414.076 154.738C494.696 154.738 524.767 210.162 535.898 247.977C541.812 268.069 560.051 281.97 580.874 282.332C581.358 282.695 762.257 282.886 762.862 282.886C790.44 282.886 827.869 260.529 827.869 232.951L827.869 42.8301L0.277102 42.8302L0.277118 232.951C0.277692 260.529 37.7067 282.886 65.285 282.886Z" fill="#787878"/>
<path opacity="0.0703" d="M66.7885 282.496C67.4687 282.496 246.931 282.28 247.475 281.872C268.194 281.465 286.329 267.606 292.214 247.599C303.332 209.801 333.397 154.347 414.077 154.347C494.733 154.347 524.806 209.813 535.933 247.612C541.82 267.613 559.954 281.465 580.667 281.873C581.212 282.28 760.68 282.496 761.361 282.496C788.709 282.496 827.836 260.326 827.836 232.977L827.836 42.5096L0.313762 42.5097L0.313779 232.977C0.313781 260.326 39.4405 282.496 66.7885 282.496Z" fill="#777777"/>
<path opacity="0.0781" d="M68.2908 282.107C69.047 282.107 247.078 281.867 247.683 281.414C268.292 280.961 286.322 267.152 292.18 247.235C303.294 209.452 333.362 153.958 414.077 153.958C494.767 153.958 524.844 209.464 535.965 247.247C541.826 267.158 559.854 280.961 580.459 281.414C581.064 281.867 759.102 282.106 759.858 282.106C786.976 282.106 827.801 260.122 827.801 233.004L827.801 42.1892L0.3476 42.1893L0.347616 233.004C0.34819 260.123 41.172 282.107 68.2908 282.107Z" fill="#767676"/>
<path opacity="0.0859" d="M69.7928 281.717C70.6245 281.717 247.225 281.454 247.89 280.955C268.39 280.457 286.314 266.697 292.146 246.87C303.255 209.103 333.326 153.569 414.077 153.569C494.802 153.569 524.881 209.115 535.998 246.883C541.833 266.704 559.755 280.457 580.251 280.955C580.916 281.454 757.523 281.717 758.355 281.717C785.243 281.717 827.766 259.92 827.766 233.031L827.766 41.8699L0.382221 41.8699L0.382238 233.031C0.38224 259.92 42.9038 281.717 69.7928 281.717Z" fill="#757575"/>
<path opacity="0.0938" d="M71.2958 281.328C72.2029 281.328 247.373 281.04 248.099 280.496C268.49 279.953 286.308 266.243 292.113 246.506C303.217 208.754 333.291 153.179 414.076 153.179C494.837 153.179 524.919 208.766 536.032 246.518C541.839 266.249 559.656 279.953 580.042 280.496C580.768 281.04 755.945 281.328 756.851 281.328C783.511 281.328 827.73 259.716 827.73 233.057L827.73 41.5494L0.416843 41.5495L0.416859 233.057C0.417433 259.716 44.6366 281.328 71.2958 281.328Z" fill="#747474"/>
<path opacity="0.1016" d="M72.7984 280.939C73.781 280.939 247.52 280.628 248.306 280.039C268.589 279.45 286.301 265.789 292.079 246.142C303.178 208.407 333.255 152.791 414.076 152.791C494.871 152.791 524.957 208.418 536.065 246.155C541.846 265.796 559.556 279.451 579.834 280.039C580.621 280.628 754.366 280.94 755.348 280.94C781.778 280.94 827.695 259.515 827.695 233.086L827.695 41.2313L0.450766 41.2314L0.450783 233.086C0.451929 259.514 46.3696 280.939 72.7984 280.939Z" fill="#737373"/>
<path opacity="0.1094" d="M74.3011 280.549C75.3597 280.549 247.668 280.213 248.515 279.58C268.688 278.945 286.294 265.334 292.047 245.777C303.141 208.057 333.221 152.401 414.077 152.401C494.908 152.401 524.996 208.069 536.099 245.79C541.854 265.341 559.459 278.946 579.627 279.58C580.474 280.214 752.789 280.55 753.847 280.55C780.047 280.55 827.662 259.311 827.662 233.111L827.662 40.9109L0.487341 40.911L0.487358 233.112C0.486788 259.311 48.1021 280.549 74.3011 280.549Z" fill="#727272"/>
<path opacity="0.1172" d="M75.803 280.16C76.9371 280.16 247.815 279.8 248.722 279.121C268.786 278.441 286.287 264.879 292.013 245.413C303.103 207.709 333.185 152.012 414.076 152.012C494.942 152.012 525.033 207.72 536.131 245.426C541.859 264.886 559.358 278.442 579.418 279.121C580.326 279.801 751.21 280.16 752.344 280.16C778.313 280.16 827.627 259.108 827.627 233.138L827.627 40.5905L0.521334 40.5905L0.521351 233.138C0.520782 259.107 49.8332 280.16 75.803 280.16Z" fill="#717171"/>
<path opacity="0.125" d="M77.3075 279.77C78.517 279.77 247.964 279.387 248.932 278.662C268.887 277.937 286.282 264.425 291.981 245.048C303.066 207.359 333.151 151.621 414.077 151.621C494.978 151.621 525.072 207.371 536.166 245.06C541.868 264.431 559.261 277.938 579.212 278.662C580.18 279.387 749.633 279.77 750.843 279.77C776.582 279.77 827.594 258.904 827.594 233.164L827.594 40.27L0.557909 40.2701L0.557926 233.164C0.557356 258.904 51.5675 279.77 77.3075 279.77Z" fill="#707070"/>
<path opacity="0.1328" d="M78.8085 279.381C80.0935 279.381 248.11 278.974 249.138 278.204C268.984 277.434 286.273 263.971 291.946 244.684C303.027 207.011 333.115 151.233 414.076 151.233C495.012 151.233 525.108 207.023 536.197 244.697C541.873 263.977 559.16 277.434 579.001 278.204C580.03 278.974 748.052 279.381 749.337 279.381C774.847 279.381 827.557 258.701 827.557 233.192L827.557 39.9508L0.589949 39.9509L0.589966 233.192C0.59054 258.701 53.2989 279.381 78.8085 279.381Z" fill="#6F6F6F"/>
<path opacity="0.1406" d="M80.3118 278.992C81.6723 278.992 248.258 278.561 249.348 277.746C269.084 276.93 286.267 263.516 291.914 244.32C302.99 206.663 333.081 150.844 414.077 150.844C495.048 150.844 525.148 206.675 536.232 244.333C541.881 263.524 559.062 276.931 578.795 277.746C579.884 278.561 746.476 278.992 747.836 278.992C773.116 278.992 827.523 258.499 827.523 233.219L827.523 39.6315L0.626454 39.6315L0.626471 233.219C0.625902 258.499 55.032 278.992 80.3118 278.992Z" fill="#6E6E6E"/>
<path opacity="0.1484" d="M81.8144 278.603C83.2508 278.603 248.406 278.148 249.555 277.287C269.184 276.426 286.26 263.062 291.88 243.956C302.951 206.314 333.045 150.455 414.076 150.455C495.082 150.455 525.185 206.326 536.265 243.968C541.888 263.069 558.963 276.427 578.587 277.287C579.736 278.148 744.897 278.603 746.333 278.603C771.383 278.603 827.488 258.295 827.488 233.245L827.488 39.311L0.660447 39.3111L0.660464 233.245C0.660467 258.295 56.7643 278.603 81.8144 278.603Z" fill="#6D6D6D"/>
<path opacity="0.1563" d="M83.3169 278.214C84.8288 278.214 248.553 277.735 249.763 276.828C269.282 275.922 286.253 262.607 291.846 243.591C302.913 205.965 333.01 150.065 414.076 150.065C495.117 150.065 525.222 205.977 536.298 243.604C541.894 262.615 558.863 275.923 578.378 276.829C579.588 277.735 743.318 278.214 744.83 278.214C769.65 278.214 827.453 258.093 827.453 233.272L827.453 38.9917L0.695069 38.9918L0.695086 233.272C0.695088 258.093 58.4961 278.214 83.3169 278.214Z" fill="#6C6C6C"/>
<path opacity="0.1641" d="M84.8189 277.823C86.4063 277.823 248.7 277.32 249.97 276.369C269.38 275.417 286.245 262.152 291.812 243.226C302.875 205.616 332.975 149.675 414.076 149.675C495.152 149.675 525.26 205.627 536.331 243.239C541.9 262.159 558.764 275.419 578.17 276.37C579.441 277.321 741.74 277.824 743.327 277.824C767.918 277.824 827.418 257.889 827.418 233.299L827.418 38.6713L0.729777 38.6713L0.729794 233.298C0.729796 257.889 60.2284 277.823 84.8189 277.823Z" fill="#6B6B6B"/>
<path opacity="0.1719" d="M86.3213 277.435C87.9847 277.435 248.847 276.908 250.179 275.911C269.479 274.914 286.239 261.698 291.779 242.862C302.837 205.268 332.939 149.287 414.076 149.287C495.187 149.287 525.298 205.28 536.364 242.875C541.907 261.706 558.665 274.915 577.962 275.912C579.293 276.908 740.161 277.435 741.824 277.435C766.185 277.435 827.383 257.687 827.383 233.326L827.383 38.3521L0.763614 38.3521L0.763631 233.326C0.763633 257.687 61.9606 277.435 86.3213 277.435Z" fill="#6A6A6A"/>
<path opacity="0.1797" d="M87.8258 277.045C89.5647 277.045 248.997 276.494 250.389 275.452C269.581 274.41 286.234 261.244 291.747 242.497C302.801 204.919 332.906 148.897 414.077 148.897C495.224 148.897 525.337 204.93 536.399 242.51C541.915 261.251 558.568 274.411 577.755 275.452C579.147 276.494 738.585 277.045 740.323 277.045C764.454 277.045 827.35 257.483 827.35 233.352L827.35 38.0316L0.800275 38.0317L0.800292 233.352C0.800294 257.483 63.695 277.045 87.8258 277.045Z" fill="#696969"/>
<path opacity="0.1875" d="M89.3277 276.656C91.1421 276.656 249.143 276.081 250.596 274.994C269.679 273.906 286.226 260.789 291.713 242.134C302.762 204.57 332.87 148.508 414.077 148.507C495.258 148.507 525.375 204.582 536.432 242.146C541.922 260.796 558.468 273.908 577.547 274.994C578.999 276.081 737.006 276.656 738.82 276.656C762.721 276.656 827.314 257.28 827.314 233.379L827.314 37.7123L0.834252 37.7124L0.834269 233.379C0.834271 257.28 65.4266 276.656 89.3277 276.656Z" fill="#686868"/>
<path opacity="0.1953" d="M90.8301 276.267C92.7199 276.267 249.291 275.668 250.803 274.535C269.777 273.402 286.219 260.335 291.68 241.77C302.724 204.222 332.835 148.119 414.077 148.119C495.293 148.119 525.413 204.233 536.465 241.782C541.928 260.343 558.369 273.404 577.338 274.537C578.851 275.669 735.428 276.267 737.317 276.267C760.988 276.267 827.279 257.078 827.279 233.407L827.279 37.3929L0.868734 37.393L0.868751 233.407C0.869325 257.078 67.1588 276.267 90.8301 276.267Z" fill="#676767"/>
<path opacity="0.2031" d="M92.3327 275.877C94.2979 275.877 249.438 275.255 251.011 274.076C269.876 272.898 286.211 259.88 291.646 241.405C302.686 203.873 332.799 147.729 414.076 147.729C495.327 147.729 525.449 203.883 536.498 241.417C541.934 259.887 558.269 272.9 577.13 274.077C578.703 275.255 733.849 275.877 735.814 275.877C759.255 275.877 827.244 256.874 827.244 233.433L827.244 37.0725L0.903355 37.0726L0.903372 233.433C0.903374 256.874 68.8912 275.877 92.3327 275.877Z" fill="#666666"/>
<path opacity="0.2109" d="M93.8346 275.489C95.8758 275.489 249.585 274.842 251.219 273.618C269.975 272.395 286.205 259.426 291.612 241.041C302.648 203.524 332.764 147.34 414.076 147.34C495.363 147.34 525.488 203.536 536.531 241.053C541.941 259.434 558.17 272.396 576.922 273.619C578.555 274.842 732.27 275.489 734.311 275.489C757.522 275.489 827.209 256.672 827.209 233.461L827.209 36.7533L0.937418 36.7534L0.937436 233.461C0.937438 256.672 70.6228 275.489 93.8346 275.489Z" fill="#656565"/>
<path opacity="0.2188" d="M95.339 275.099C97.4557 275.099 249.734 274.428 251.429 273.159C270.075 271.891 286.2 258.972 291.581 240.676C302.611 203.175 332.731 146.95 414.078 146.95C495.4 146.95 525.527 203.186 536.566 240.688C541.949 258.978 558.073 271.892 576.715 273.16C578.41 274.428 730.693 275.099 732.81 275.099C755.791 275.099 827.176 256.468 827.176 233.486L827.176 36.4329L0.973853 36.4329L0.973871 233.487C0.973873 256.468 72.3571 275.099 95.339 275.099Z" fill="#646464"/>
<path opacity="0.2266" d="M96.8404 274.71C99.0326 274.71 249.881 274.015 251.635 272.701C270.173 271.387 286.191 258.517 291.546 240.312C302.572 202.827 332.694 146.561 414.076 146.561C495.433 146.561 525.564 202.838 536.598 240.324C541.955 258.525 557.972 271.388 576.506 272.702C578.261 274.016 729.114 274.71 731.306 274.71C754.058 274.71 827.141 256.266 827.141 233.514L827.141 36.1135L1.00792 36.1136L1.00793 233.514C1.00794 256.265 74.0888 274.71 96.8404 274.71Z" fill="#636363"/>
<path opacity="0.2344" d="M98.3429 274.319C100.611 274.319 250.028 273.601 251.843 272.242C270.272 270.882 286.184 258.062 291.512 239.947C302.534 202.477 332.659 146.172 414.076 146.172C495.468 146.172 525.602 202.489 536.631 239.959C541.962 258.069 557.873 270.884 576.297 272.243C578.113 273.601 727.535 274.32 729.803 274.32C752.325 274.32 827.105 256.062 827.105 233.54L827.105 35.7931L1.04254 35.7932L1.04256 233.54C1.04256 256.062 75.8206 274.319 98.3429 274.319Z" fill="#626262"/>
<path opacity="0.2422" d="M99.846 273.931C102.19 273.931 250.176 273.188 252.051 271.783C270.371 270.379 286.178 257.608 291.479 239.583C302.496 202.129 332.623 145.783 414.076 145.783C495.503 145.783 525.64 202.14 536.665 239.595C541.969 257.616 557.774 270.381 576.09 271.784C577.965 273.189 725.957 273.931 728.3 273.931C750.593 273.931 827.07 255.859 827.07 233.567L827.07 35.4738L1.07646 35.4738L1.07648 233.567C1.07705 255.86 77.5534 273.931 99.846 273.931Z" fill="#616161"/>
<path opacity="0.25" d="M101.349 273.542C103.768 273.542 250.323 272.775 252.26 271.325C270.471 269.876 286.171 257.154 291.447 239.219C302.458 201.78 332.589 145.393 414.077 145.393C495.539 145.393 525.679 201.791 536.699 239.231C541.977 257.161 557.676 269.877 575.883 271.326C577.819 272.775 724.38 273.541 726.799 273.541C748.861 273.541 827.037 255.656 827.037 233.594L827.037 35.1534L1.11192 35.1535L1.11194 233.594C1.11194 255.657 79.2859 273.542 101.349 273.542Z" fill="#606060"/>
<path opacity="0.2578" d="M102.852 273.152C105.346 273.152 250.472 272.362 252.468 270.866C270.57 269.371 286.165 256.699 291.413 238.854C302.421 201.431 332.554 145.004 414.077 145.004C495.573 145.004 525.716 201.443 536.732 238.867C541.983 256.707 557.576 269.373 575.674 270.867C577.671 272.362 722.801 273.152 725.296 273.152C747.128 273.152 827.002 255.453 827.002 233.621L827.002 34.8341L1.1471 34.8342L1.14712 233.621C1.14769 255.453 81.0193 273.152 102.852 273.152Z" fill="#5F5F5F"/>
<path opacity="0.2656" d="M104.354 272.763C106.924 272.763 250.618 271.948 252.676 270.408C270.668 268.867 286.157 256.245 291.379 238.49C302.382 201.083 332.518 144.614 414.076 144.614C495.609 144.614 525.753 201.094 536.764 238.502C541.989 256.252 557.477 268.869 575.466 270.409C577.523 271.949 721.222 272.763 723.792 272.763C745.396 272.763 826.967 255.25 826.967 233.647L826.967 34.5137L1.18158 34.5137L1.1816 233.647C1.1816 255.25 82.7511 272.763 104.354 272.763Z" fill="#5E5E5E"/>
<path opacity="0.2734" d="M105.856 272.374C108.502 272.374 250.766 271.536 252.883 269.949C270.767 268.364 286.15 255.79 291.346 238.126C302.344 200.734 332.483 144.225 414.076 144.225C495.643 144.225 525.791 200.745 536.798 238.138C541.996 255.798 557.378 268.365 575.258 269.95C577.375 271.536 719.644 272.374 722.289 272.374C743.662 272.374 826.932 255.047 826.932 233.674L826.932 34.1943L1.21629 34.1944L1.21631 233.675C1.21574 255.047 84.4829 272.374 105.856 272.374Z" fill="#5D5D5D"/>
<path opacity="0.2813" d="M107.36 271.984C110.082 271.984 250.915 271.122 253.093 269.49C270.868 267.859 286.145 255.336 291.314 237.761C302.308 200.385 332.45 143.836 414.078 143.836C495.68 143.836 525.831 200.396 536.833 237.773C542.004 255.343 557.281 267.861 575.051 269.491C577.23 271.122 718.067 271.984 720.788 271.984C741.931 271.984 826.898 254.844 826.898 233.7L826.898 33.8739L1.25224 33.874L1.25225 233.701C1.25168 254.844 86.2165 271.984 107.36 271.984Z" fill="#5C5C5C"/>
<path opacity="0.2891" d="M108.861 271.595C111.658 271.595 251.06 270.709 253.299 269.031C270.964 267.355 286.136 254.881 291.278 237.396C302.267 200.036 332.412 143.446 414.075 143.446C495.713 143.446 525.866 200.047 536.864 237.408C542.009 254.888 557.179 267.357 574.841 269.033C577.08 270.709 716.487 271.595 719.283 271.595C740.196 271.595 826.861 254.641 826.861 233.727L826.861 33.5536L1.28475 33.5537L1.28477 233.727C1.28477 254.641 87.9474 271.595 108.861 271.595Z" fill="#5B5B5B"/>
<path opacity="0.2969" d="M110.365 271.206C113.238 271.206 251.209 270.296 253.509 268.573C271.065 266.852 286.13 254.427 291.247 237.032C302.231 199.688 332.379 143.057 414.077 143.057C495.749 143.057 525.906 199.699 536.898 237.044C542.017 254.434 557.081 266.853 574.634 268.574C576.934 270.295 714.91 271.205 717.782 271.205C738.466 271.205 826.828 254.438 826.828 233.754L826.828 33.2343L1.32076 33.2343L1.32078 233.754C1.32136 254.438 89.6817 271.206 110.365 271.206Z" fill="#5A5A5A"/>
<path opacity="0.3047" d="M111.867 270.817C114.815 270.817 251.356 269.883 253.716 268.116C271.163 266.349 286.123 253.973 291.213 236.668C302.193 199.34 332.343 142.669 414.076 142.669C495.784 142.669 525.943 199.351 536.931 236.681C542.023 253.98 556.982 266.35 574.426 268.117C576.786 269.884 713.331 270.817 716.279 270.817C736.733 270.817 826.793 254.236 826.793 233.782L826.793 32.9149L1.35539 32.915L1.3554 233.782C1.35541 254.236 91.4127 270.817 111.867 270.817Z" fill="#595959"/>
<path opacity="0.3125" d="M113.37 270.427C116.394 270.427 251.504 269.469 253.924 267.657C271.263 265.844 286.117 253.518 291.18 236.304C302.155 198.991 332.308 142.279 414.076 142.279C495.819 142.279 525.981 199.002 536.965 236.316C542.03 253.526 556.883 265.846 574.218 267.657C576.638 269.469 711.753 270.427 714.776 270.427C735 270.427 826.758 254.032 826.758 233.808L826.758 32.5945L1.38931 32.5946L1.38933 233.808C1.3899 254.032 93.1457 270.427 113.37 270.427Z" fill="#585858"/>
<path opacity="0.3203" d="M114.872 270.038C117.971 270.038 251.651 269.056 254.132 267.198C271.361 265.34 286.109 253.064 291.146 235.94C302.117 198.643 332.272 141.89 414.076 141.89C495.854 141.89 526.019 198.653 536.998 235.952C542.037 253.072 556.784 265.343 574.009 267.2C576.49 269.057 710.174 270.038 713.273 270.038C733.267 270.038 826.723 253.829 826.723 233.835L826.723 32.2751L1.42393 32.2752L1.42395 233.835C1.42452 253.829 94.8779 270.038 114.872 270.038Z" fill="#575757"/>
<path opacity="0.3281" d="M116.376 269.648C119.551 269.648 251.8 268.642 254.341 266.738C271.462 264.835 286.104 252.608 291.114 235.574C302.08 198.292 332.239 141.499 414.077 141.499C495.89 141.499 526.058 198.303 537.032 235.586C542.045 252.616 556.686 264.837 573.803 266.739C576.344 268.642 708.598 269.648 711.772 269.648C731.536 269.648 826.689 253.625 826.689 233.861L826.689 31.9548L1.45995 31.9549L1.45996 233.862C1.46054 253.626 96.6116 269.648 116.376 269.648Z" fill="#565656"/>
<path opacity="0.3359" d="M117.878 269.259C121.129 269.259 251.947 268.229 254.549 266.281C271.56 264.332 286.097 252.155 291.081 235.21C302.042 197.944 332.203 141.11 414.077 141.11C495.925 141.11 526.095 197.955 537.065 235.222C542.052 252.161 556.587 264.334 573.595 266.281C576.197 268.229 707.019 269.259 710.269 269.259C729.803 269.259 826.654 253.422 826.654 233.888L826.654 31.6355L1.49443 31.6356L1.49445 233.889C1.49502 253.424 98.3438 269.259 117.878 269.259Z" fill="#555555"/>
<path opacity="0.3438" d="M119.38 268.87C122.707 268.87 252.094 267.816 254.756 265.822C271.658 263.828 286.089 251.7 291.046 234.846C302.003 197.596 332.167 140.721 414.076 140.721C495.959 140.721 526.133 197.606 537.098 234.858C542.058 251.708 556.486 263.83 573.385 265.823C576.048 267.816 705.439 268.87 708.765 268.87C728.07 268.87 826.619 253.22 826.619 233.915L826.619 31.3151L1.52905 31.3151L1.52907 233.915C1.5285 253.22 100.076 268.87 119.38 268.87Z" fill="#545454"/>
<path opacity="0.3516" d="M120.882 268.48C124.284 268.48 252.241 267.403 254.964 265.363C271.758 263.324 286.082 251.245 291.013 234.481C301.965 197.247 332.132 140.332 414.076 140.332C495.994 140.332 526.17 197.257 537.131 234.494C542.064 251.253 556.388 263.326 573.177 265.365C575.9 267.403 703.861 268.481 707.263 268.481C726.338 268.481 826.584 253.017 826.584 233.942L826.584 30.9957L1.56311 30.9958L1.56313 233.942C1.56313 253.017 101.807 268.48 120.882 268.48Z" fill="#535353"/>
<path opacity="0.3594" d="M122.385 268.092C125.862 268.092 252.388 266.99 255.172 264.905C271.856 262.821 286.075 250.792 290.979 234.118C301.927 196.899 332.097 139.944 414.076 139.944C496.029 139.944 526.208 196.91 537.164 234.131C542.071 250.8 556.288 262.824 572.969 264.907C575.752 266.991 702.282 268.092 705.759 268.092C724.605 268.092 826.549 252.815 826.549 233.97L826.549 30.6765L1.5976 30.6766L1.59761 233.97C1.59762 252.815 103.54 268.092 122.385 268.092Z" fill="#525252"/>
<path opacity="0.3672" d="M123.889 267.702C127.442 267.702 252.537 266.577 255.381 264.447C271.956 262.317 286.069 250.337 290.947 233.753C301.89 196.55 332.062 139.554 414.077 139.554C496.065 139.554 526.247 196.561 537.198 233.766C542.078 250.345 556.19 262.319 572.762 264.448C575.606 266.577 700.705 267.702 704.258 267.702C722.873 267.702 826.516 252.611 826.516 233.996L826.516 30.3561L1.63361 30.3562L1.63363 233.996C1.63363 252.611 105.273 267.702 123.889 267.702Z" fill="#515151"/>
<path opacity="0.375" d="M125.391 267.313C129.02 267.313 252.684 266.163 255.589 263.988C272.055 261.813 286.062 249.883 290.913 233.389C301.851 196.201 332.027 139.164 414.076 139.164C496.1 139.164 526.285 196.212 537.232 233.401C542.085 249.89 556.091 261.815 572.554 263.988C575.458 266.163 699.127 267.312 702.755 267.312C721.14 267.312 826.48 252.407 826.48 234.022L826.48 30.0356L1.66823 30.0357L1.66825 234.022C1.66825 252.409 107.006 267.313 125.391 267.313Z" fill="#505050"/>
<path opacity="0.3828" d="M126.894 266.923C130.598 266.923 252.832 265.75 255.796 263.529C272.154 261.309 286.055 249.428 290.88 233.024C301.814 195.852 331.992 138.775 414.076 138.775C496.134 138.775 526.323 195.862 537.264 233.037C542.092 249.436 555.991 261.311 572.345 263.531C575.31 265.75 697.548 266.923 701.252 266.923C719.407 266.923 826.445 252.205 826.445 234.049L826.445 29.7163L1.70216 29.7164L1.70217 234.05C1.70275 252.205 108.738 266.923 126.894 266.923Z" fill="#4F4F4F"/>
<path opacity="0.3906" d="M128.397 266.534C132.177 266.534 252.98 265.336 256.006 263.07C272.254 260.805 286.049 248.974 290.848 232.66C301.776 195.503 331.958 138.385 414.078 138.385C496.171 138.385 526.362 195.513 537.299 232.672C542.1 248.981 555.894 260.807 572.139 263.072C575.165 265.337 695.972 266.534 699.751 266.534C717.676 266.534 826.412 252.003 826.412 234.077L826.412 29.397L1.73873 29.397L1.73875 234.077C1.73818 252.002 110.471 266.534 128.397 266.534Z" fill="#4E4E4E"/>
<path opacity="0.3984" d="M129.898 266.145C133.754 266.145 253.126 264.923 256.212 262.612C272.351 260.302 286.04 248.519 290.812 232.296C301.736 195.155 331.921 137.996 414.076 137.996C496.204 137.996 526.397 195.165 537.33 232.308C542.104 248.527 555.792 260.303 571.929 262.613C575.014 264.924 694.391 266.145 698.246 266.145C715.942 266.145 826.375 251.799 826.375 234.103L826.375 29.0765L1.77084 29.0766L1.77086 234.103C1.77143 251.799 112.202 266.145 129.898 266.145Z" fill="#4D4D4D"/>
<path opacity="0.4063" d="M131.402 265.755C135.333 265.755 253.274 264.51 256.421 262.153C272.451 259.797 286.035 248.065 290.78 231.931C301.7 194.806 331.887 137.607 414.077 137.607C496.24 137.607 526.437 194.817 537.365 231.944C542.113 248.073 555.695 259.8 571.722 262.155C574.868 264.511 692.814 265.756 696.744 265.756C714.211 265.756 826.342 251.597 826.342 234.13L826.342 28.7573L1.80728 28.7574L1.80729 234.13C1.8073 251.596 113.936 265.755 131.402 265.755Z" fill="#4C4C4C"/>
<path opacity="0.4141" d="M132.904 265.366C136.91 265.366 253.422 264.096 256.628 261.695C272.55 259.293 286.027 247.61 290.746 231.566C301.661 194.457 331.851 137.217 414.076 137.217C496.275 137.217 526.474 194.467 537.398 231.578C542.119 247.617 555.595 259.295 571.514 261.696C574.721 264.097 691.235 265.365 695.241 265.365C712.478 265.365 826.307 251.393 826.307 234.156L826.307 28.4369L1.8419 28.437L1.84192 234.156C1.84135 251.393 115.668 265.366 132.904 265.366Z" fill="#4B4B4B"/>
<path opacity="0.4219" d="M134.406 264.976C138.489 264.976 253.569 263.682 256.837 261.235C272.649 258.789 286.02 247.155 290.713 231.201C301.624 194.108 331.817 136.828 414.077 136.828C496.31 136.828 526.512 194.118 537.431 231.214C542.126 247.163 555.497 258.792 571.305 261.237C574.573 263.683 689.657 264.976 693.738 264.976C710.745 264.976 826.272 251.19 826.272 234.183L826.271 28.1165L1.87596 28.1165L1.87598 234.183C1.87598 251.19 117.4 264.976 134.406 264.976Z" fill="#4A4A4A"/>
<path opacity="0.4297" d="M135.909 264.587C140.067 264.587 253.716 263.269 257.045 260.777C272.748 258.285 286.013 246.701 290.679 230.837C301.585 193.759 331.781 136.438 414.076 136.438C496.345 136.438 526.55 193.77 537.464 230.85C542.133 246.709 555.397 258.288 571.097 260.779C574.425 263.27 688.078 264.587 692.235 264.587C709.012 264.587 826.236 250.986 826.236 234.21L826.236 27.7971L1.91044 27.7972L1.91046 234.21C1.91046 250.987 119.132 264.587 135.909 264.587Z" fill="#494949"/>
<path opacity="0.4375" d="M137.413 264.198C141.646 264.198 253.865 262.856 257.254 260.319C272.848 257.781 286.007 246.247 290.647 230.474C301.548 193.411 331.747 136.049 414.077 136.049C496.381 136.049 526.589 193.421 537.499 230.485C542.141 246.254 555.3 257.784 570.891 260.32C574.279 262.857 686.502 264.197 690.734 264.197C707.281 264.197 826.203 250.783 826.203 234.236L826.203 27.4767L1.94646 27.4768L1.94648 234.236C1.94648 250.784 120.866 264.198 137.413 264.198Z" fill="#484848"/>
<path opacity="0.4453" d="M138.915 263.809C143.224 263.809 254.012 262.444 257.462 259.861C272.947 257.278 286.001 245.793 290.614 230.11C301.511 193.063 331.711 135.661 414.077 135.661C496.416 135.661 526.627 193.073 537.532 230.122C542.147 245.801 555.2 257.282 570.682 259.863C574.132 262.445 684.923 263.809 689.231 263.809C705.548 263.809 826.168 250.582 826.168 234.265L826.168 27.1586L1.98173 27.1586L1.98174 234.265C1.98174 250.581 122.598 263.809 138.915 263.809Z" fill="#474747"/>
<path opacity="0.4531" d="M140.417 263.419C144.802 263.419 254.16 262.03 257.669 259.401C273.045 256.773 285.994 245.337 290.58 229.743C301.472 192.712 331.676 135.27 414.076 135.27C496.45 135.27 526.664 192.723 537.565 229.756C542.153 245.345 555.101 256.776 570.473 259.402C573.983 262.03 683.344 263.419 687.728 263.419C703.815 263.419 826.133 250.377 826.133 234.29L826.133 26.837L2.015 26.8371L2.01502 234.29C2.01502 250.377 124.33 263.419 140.417 263.419Z" fill="#464646"/>
<path opacity="0.4609" d="M141.92 263.03C146.381 263.03 254.308 261.617 257.878 258.943C273.145 256.27 285.987 244.884 290.547 229.38C301.435 192.365 331.641 134.881 414.077 134.881C496.486 134.881 526.703 192.375 537.599 229.392C542.161 244.891 555.003 256.272 570.266 258.944C573.836 261.617 681.766 263.03 686.226 263.03C702.083 263.03 826.1 250.174 826.1 234.317L826.1 26.5177L2.05158 26.5178L2.0516 234.317C2.05046 250.175 126.063 263.03 141.92 263.03Z" fill="#454545"/>
<path opacity="0.4688" d="M143.424 262.641C147.959 262.641 254.455 261.203 258.086 258.484C273.244 255.766 285.981 244.429 290.514 229.016C301.397 192.016 331.607 134.492 414.078 134.492C496.522 134.492 526.741 192.026 537.632 229.028C542.168 244.437 554.903 255.769 570.059 258.486C573.689 261.204 680.189 262.641 684.724 262.641C700.351 262.641 826.064 249.972 826.064 234.344L826.064 26.1984L2.08629 26.1984L2.0863 234.344C2.08573 249.972 127.796 262.641 143.424 262.641Z" fill="#444444"/>
<path opacity="0.4766" d="M144.925 262.251C149.536 262.251 254.602 260.79 258.293 258.026C273.342 255.262 285.972 243.974 290.48 228.651C301.358 191.667 331.57 134.103 414.076 134.103C496.556 134.103 526.778 191.677 537.665 228.663C542.174 243.981 554.804 255.264 569.85 258.027C573.541 260.79 678.609 262.251 683.22 262.251C698.618 262.251 826.029 249.769 826.029 234.371L826.029 25.8779L2.12028 25.878L2.1203 234.371C2.11973 249.769 129.527 262.251 144.925 262.251Z" fill="#434343"/>
<path opacity="0.4844" d="M146.429 261.863C151.116 261.863 254.75 260.377 258.502 257.568C273.442 254.759 285.966 243.521 290.447 228.288C301.321 191.32 331.536 133.715 414.076 133.715C496.591 133.715 526.816 191.33 537.698 228.301C542.181 243.529 554.704 254.762 569.641 257.57C573.393 260.379 677.031 261.863 681.717 261.863C696.885 261.863 825.994 249.567 825.994 234.399L825.994 25.5598L2.15475 25.5599L2.15476 234.399C2.15477 249.566 131.261 261.863 146.429 261.863Z" fill="#424242"/>
<path opacity="0.4922" d="M147.93 261.472C152.693 261.472 254.896 259.963 258.709 257.108C273.54 254.253 285.959 243.065 290.413 227.922C301.282 190.969 331.5 133.324 414.076 133.324C496.626 133.324 526.854 190.98 537.731 227.935C542.187 243.073 554.605 254.257 569.433 257.11C573.245 259.964 675.452 261.472 680.214 261.472C695.152 261.472 825.959 249.363 825.959 234.424L825.959 25.2383L2.18881 25.2384L2.18883 234.424C2.18826 249.362 132.992 261.472 147.93 261.472Z" fill="#414141"/>
<path opacity="0.5" d="M149.432 261.083C154.271 261.083 255.044 259.55 258.917 256.65C273.639 253.75 285.952 242.611 290.379 227.558C301.244 190.621 331.465 132.934 414.076 132.934C496.661 132.934 526.891 190.631 537.764 227.57C542.193 242.618 554.505 253.753 569.225 256.651C573.097 259.55 673.874 261.082 678.711 261.082C693.419 261.082 825.924 249.159 825.924 234.45L825.924 24.9178L2.22329 24.9179L2.22331 234.45C2.22331 249.159 134.724 261.083 149.432 261.083Z" fill="#404040"/>
<path opacity="0.5078" d="M150.936 260.693C155.85 260.693 255.193 259.136 259.126 256.191C273.739 253.246 285.946 242.156 290.347 227.193C301.207 190.271 331.431 132.545 414.077 132.545C496.696 132.545 526.93 190.282 537.799 227.205C542.202 242.164 554.408 253.249 569.018 256.193C572.951 259.137 672.297 260.693 677.21 260.693C691.688 260.693 825.891 248.956 825.891 234.478L825.891 24.5985L2.25931 24.5986L2.25933 234.478C2.25933 248.956 136.458 260.693 150.936 260.693Z" fill="#3F3F3F"/>
<path opacity="0.5156" d="M152.439 260.305C157.428 260.305 255.34 258.724 259.334 255.733C273.837 252.743 285.939 241.703 290.313 226.83C301.168 189.924 331.395 132.156 414.077 132.156C496.732 132.156 526.968 189.934 537.832 226.842C542.208 241.71 554.309 252.746 568.81 255.735C572.803 258.724 670.718 260.305 675.707 260.305C689.955 260.305 825.855 248.754 825.855 234.505L825.855 24.2793L2.29393 24.2794L2.29395 234.505C2.29395 248.754 138.19 260.305 152.439 260.305Z" fill="#3E3E3E"/>
<path opacity="0.5234" d="M153.941 259.916C159.006 259.916 255.488 258.311 259.542 255.275C273.937 252.239 285.932 241.248 290.28 226.466C301.131 189.576 331.36 131.767 414.077 131.767C496.767 131.767 527.006 189.585 537.865 226.478C542.215 241.256 554.21 252.242 568.602 255.276C572.655 258.311 669.14 259.916 674.204 259.916C688.223 259.916 825.82 248.551 825.82 234.532L825.82 23.96L2.32848 23.96L2.3285 234.532C2.32793 248.551 139.922 259.916 153.941 259.916Z" fill="#3D3D3D"/>
<path opacity="0.5313" d="M155.443 259.526C160.584 259.526 255.634 257.897 259.749 254.815C274.035 251.734 285.924 240.793 290.246 226.101C301.092 189.226 331.325 131.378 414.076 131.378C496.801 131.378 527.043 189.236 537.898 226.113C542.222 240.802 554.11 251.738 568.393 254.818C572.508 257.898 667.561 259.526 672.7 259.526C686.49 259.526 825.785 248.347 825.785 234.559L825.785 23.6395L2.36247 23.6396L2.36249 234.559C2.36249 248.347 141.655 259.526 155.443 259.526Z" fill="#3C3C3C"/>
<path opacity="0.5391" d="M156.946 259.137C162.162 259.137 255.782 257.484 259.957 254.358C274.134 251.232 285.918 240.339 290.212 225.737C301.054 188.878 331.289 130.989 414.076 130.989C496.836 130.989 527.081 188.887 537.931 225.749C542.228 240.347 554.01 251.234 568.185 254.359C572.36 257.485 665.983 259.137 671.197 259.137C684.757 259.137 825.75 248.145 825.75 234.586L825.75 23.3202L2.3971 23.3203L2.39711 234.586C2.39711 248.145 143.386 259.137 156.946 259.137Z" fill="#3B3B3B"/>
<path opacity="0.5469" d="M158.448 258.747C163.74 258.747 255.929 257.07 260.165 253.898C274.232 250.726 285.91 239.884 290.179 225.371C301.016 188.528 331.254 130.598 414.076 130.598C496.871 130.598 527.118 188.538 537.964 225.384C542.234 239.892 553.911 250.73 567.977 253.9C572.212 257.071 664.404 258.747 669.694 258.747C683.024 258.747 825.715 247.941 825.715 234.612L825.715 22.9998L2.4318 22.9998L2.43182 234.612C2.43182 247.941 145.119 258.747 158.448 258.747Z" fill="#3A3A3A"/>
<path opacity="0.5547" d="M159.952 258.358C165.32 258.358 256.078 256.657 260.374 253.44C274.332 250.223 285.904 239.43 290.147 225.007C300.979 188.18 331.22 130.209 414.077 130.209C496.907 130.209 527.157 188.189 537.998 225.02C542.243 239.438 553.813 250.226 567.77 253.442C572.066 256.658 662.827 258.358 668.193 258.358C681.293 258.358 825.682 247.738 825.682 234.638L825.682 22.6793L2.46704 22.6794L2.46705 234.639C2.46705 247.738 146.852 258.358 159.952 258.358Z" fill="#393939"/>
<path opacity="0.5625" d="M161.455 257.968C166.898 257.968 256.226 256.244 260.582 252.981C274.432 249.719 285.898 238.975 290.113 224.643C300.941 187.831 331.185 129.82 414.077 129.82C496.942 129.82 527.196 187.84 538.032 224.655C542.249 238.983 553.715 249.722 567.562 252.983C571.918 256.244 661.248 257.968 666.69 257.968C679.56 257.968 825.647 247.534 825.647 234.664L825.646 22.359L2.50166 22.3591L2.50168 234.665C2.50225 247.535 148.585 257.968 161.455 257.968Z" fill="#383838"/>
<path opacity="0.5703" d="M162.957 257.579C168.475 257.579 256.373 255.831 260.79 252.523C274.531 249.215 285.891 238.521 290.08 224.278C300.903 187.482 331.15 129.431 414.077 129.431C496.977 129.431 527.233 187.492 538.065 224.291C542.256 238.529 553.615 249.219 567.353 252.525C571.77 255.832 659.67 257.58 665.187 257.58C677.827 257.58 825.611 247.333 825.611 234.693L825.611 22.0408L2.53614 22.0408L2.53616 234.693C2.53673 247.333 150.317 257.579 162.957 257.579Z" fill="#373737"/>
<path opacity="0.5781" d="M164.459 257.19C170.053 257.19 256.519 255.417 260.997 252.064C274.629 248.711 285.883 238.066 290.046 223.914C300.864 187.133 331.113 129.041 414.076 129.041C497.011 129.041 527.27 187.143 538.097 223.926C542.262 238.074 553.515 248.714 567.144 252.066C571.622 255.418 658.091 257.19 663.684 257.19C676.094 257.19 825.576 247.129 825.576 234.719L825.576 21.7203L2.57029 21.7204L2.57031 234.719C2.57088 247.129 152.049 257.19 164.459 257.19Z" fill="#363636"/>
<path opacity="0.5859" d="M165.962 256.801C171.632 256.801 256.668 255.004 261.206 251.605C274.729 248.207 285.877 237.612 290.013 223.55C300.827 186.785 331.079 128.652 414.076 128.652C497.047 128.652 527.309 186.794 538.131 223.562C542.269 237.619 553.417 248.21 566.938 251.607C571.476 255.004 656.514 256.8 662.182 256.8C674.363 256.8 825.543 246.926 825.543 234.745L825.543 21.3999L2.60686 21.4L2.60688 234.745C2.60631 246.926 153.782 256.801 165.962 256.801Z" fill="#353535"/>
<path opacity="0.5938" d="M167.465 256.412C173.21 256.412 256.815 254.591 261.414 251.147C274.827 247.703 285.87 237.158 289.98 223.186C300.789 186.436 331.044 128.263 414.077 128.263C497.082 128.263 527.347 186.446 538.165 223.198C542.276 237.166 553.318 247.707 566.729 251.149C571.328 254.592 654.935 256.412 660.679 256.411C672.63 256.411 825.508 246.724 825.508 234.773L825.508 21.0806L2.64133 21.0806L2.64135 234.773C2.6402 246.724 155.514 256.412 167.465 256.412Z" fill="#343434"/>
<path opacity="0.6016" d="M168.967 256.021C174.788 256.021 256.962 254.177 261.622 250.688C274.927 247.199 285.863 236.702 289.946 222.821C300.751 186.087 331.009 127.873 414.076 127.873C497.117 127.873 527.385 186.096 538.198 222.833C542.282 236.71 553.219 247.202 566.521 250.69C571.18 254.178 653.357 256.021 659.176 256.021C670.897 256.021 825.473 246.52 825.473 234.799L825.473 20.7603L2.67532 20.7603L2.67534 234.799C2.67534 246.52 157.247 256.021 168.967 256.021Z" fill="#333333"/>
<path opacity="0.6094" d="M170.469 255.632C176.366 255.632 257.109 253.764 261.829 250.229C275.025 246.696 285.856 236.248 289.912 222.457C300.713 185.739 330.973 127.485 414.075 127.485C497.151 127.485 527.422 185.749 538.23 222.469C542.289 236.257 553.119 246.7 566.312 250.232C571.032 253.765 651.777 255.633 657.673 255.633C669.164 255.633 825.438 246.318 825.438 234.827L825.438 20.4409L2.70994 20.441L2.70996 234.827C2.70939 246.317 158.979 255.632 170.469 255.632Z" fill="#323232"/>
<path opacity="0.6172" d="M171.973 255.243C177.945 255.243 257.258 253.351 262.038 249.771C275.125 246.191 285.85 235.793 289.88 222.092C300.676 185.389 330.939 127.094 414.077 127.094C497.188 127.094 527.461 185.399 538.265 222.104C542.298 235.802 553.022 246.195 566.106 249.773C570.886 253.351 650.201 255.243 656.172 255.243C667.433 255.243 825.404 246.114 825.404 234.853L825.404 20.1205L2.74589 20.1206L2.74591 234.853C2.74534 246.114 160.712 255.243 171.973 255.243Z" fill="#313131"/>
<path opacity="0.625" d="M173.475 254.854C179.522 254.854 257.404 252.938 262.245 249.312C275.223 245.688 285.842 235.34 289.845 221.728C300.636 185.041 330.903 126.705 414.075 126.705C497.221 126.705 527.498 185.051 538.297 221.74C542.302 235.347 552.921 245.691 565.896 249.314C570.736 252.938 648.62 254.853 654.667 254.853C665.698 254.853 825.367 245.911 825.367 234.879L825.367 19.8L2.77849 19.8001L2.77851 234.879C2.77851 245.911 162.443 254.854 173.475 254.854Z" fill="#303030"/>
<path opacity="0.6328" d="M174.978 254.465C181.101 254.465 257.553 252.525 262.455 248.854C275.323 245.184 285.836 234.885 289.813 221.363C300.6 184.692 330.869 126.316 414.077 126.316C497.257 126.316 527.537 184.702 538.332 221.376C542.311 234.894 552.823 245.188 565.689 248.857C570.59 252.526 647.044 254.465 653.166 254.465C663.967 254.465 825.334 245.709 825.334 234.907L825.334 19.4819L2.8145 19.482L2.81452 234.907C2.81452 245.708 164.177 254.465 174.978 254.465Z" fill="#2F2F2F"/>
<path opacity="0.6406" d="M176.48 254.075C182.679 254.075 257.7 252.111 262.662 248.395C275.422 244.679 285.828 234.43 289.779 220.999C300.561 184.344 330.833 125.927 414.076 125.927C497.292 125.927 527.574 184.353 538.364 221.011C542.317 234.438 552.724 244.683 565.481 248.397C570.443 252.112 645.465 254.075 651.663 254.075C662.234 254.075 825.299 245.505 825.299 234.933L825.299 19.1615L2.84906 19.1616L2.84907 234.933C2.8485 245.505 165.908 254.075 176.48 254.075Z" fill="#2E2E2E"/>
<path opacity="0.6484" d="M177.983 253.687C184.258 253.687 257.848 251.699 262.87 247.937C275.521 244.177 285.822 233.977 289.746 220.636C300.523 183.996 330.797 125.538 414.076 125.538C497.327 125.538 527.612 184.005 538.397 220.648C542.323 233.985 552.624 244.181 565.273 247.94C570.295 251.699 643.887 253.687 650.16 253.687C660.501 253.687 825.264 245.303 825.264 234.961L825.264 18.8422L2.88361 18.8422L2.88363 234.961C2.88363 245.303 167.641 253.687 177.983 253.687Z" fill="#2D2D2D"/>
<path opacity="0.6563" d="M179.486 253.297C185.836 253.297 257.413 250.346 263.078 247.478C274.77 241.557 285.815 233.522 289.713 220.27C300.485 183.646 330.762 125.148 414.076 125.148C497.362 125.148 527.649 183.656 538.43 220.283C542.33 233.53 553.373 241.562 565.064 247.48C570.729 250.347 642.308 253.296 648.657 253.296C658.769 253.296 825.229 245.099 825.229 234.987L825.229 18.5217L2.91767 18.5218L2.91769 234.987C2.91826 245.099 169.373 253.297 179.486 253.297Z" fill="#2C2C2C"/>
<path opacity="0.6641" d="M180.989 252.907C187.414 252.907 257.562 249.939 263.287 247.02C274.882 241.107 285.81 233.068 289.681 219.906C300.448 183.298 330.728 124.759 414.077 124.759C497.399 124.759 527.689 183.307 538.466 219.918C542.338 233.076 553.265 241.111 564.858 247.022C570.581 249.94 640.731 252.907 647.155 252.907C657.038 252.907 825.195 244.896 825.195 235.014L825.195 18.2024L2.95426 18.2025L2.95428 235.015C2.95371 244.897 171.107 252.907 180.989 252.907Z" fill="#2B2B2B"/>
<path opacity="0.6719" d="M182.491 252.518C188.993 252.518 257.711 249.532 263.495 246.561C274.991 240.656 285.802 232.613 289.647 219.542C300.41 182.949 330.693 124.37 414.077 124.37C497.433 124.37 527.727 182.959 538.498 219.554C542.345 232.621 553.154 240.661 564.649 246.564C570.432 249.533 639.153 252.518 645.652 252.518C655.305 252.518 825.16 244.693 825.16 235.041L825.16 17.882L2.98825 17.882L2.98827 235.041C2.98827 244.694 172.839 252.518 182.491 252.518Z" fill="#2A2A2A"/>
<path opacity="0.6797" d="M183.994 252.129C190.572 252.129 257.861 249.125 263.703 246.102C275.102 240.204 285.796 232.158 289.614 219.177C300.372 182.601 330.658 123.981 414.077 123.981C497.468 123.981 527.764 182.61 538.531 219.19C542.351 232.167 553.044 240.209 564.441 246.105C570.282 249.126 637.574 252.129 644.149 252.129C653.572 252.129 825.125 244.49 825.125 235.068L825.125 17.5627L3.02279 17.5628L3.02281 235.068C3.02338 244.49 174.572 252.129 183.994 252.129Z" fill="#292929"/>
<path opacity="0.6875" d="M185.498 251.74C192.15 251.74 258.012 248.719 263.912 245.644C275.214 239.753 285.789 231.705 289.581 218.813C300.335 182.252 330.624 123.591 414.078 123.591C497.504 123.591 527.803 182.261 538.566 218.825C542.359 231.713 552.934 239.758 564.235 245.646C570.133 248.72 635.997 251.739 642.648 251.739C651.841 251.739 825.092 244.287 825.092 235.094L825.092 17.2423L3.05874 17.2424L3.05876 235.094C3.05876 244.288 176.305 251.74 185.498 251.74Z" fill="#282828"/>
<path opacity="0.6953" d="M187 251.35C193.728 251.35 258.162 248.313 264.119 245.185C275.324 239.302 285.782 231.25 289.547 218.449C300.296 181.903 330.588 123.202 414.077 123.202C497.538 123.202 527.841 181.913 538.598 218.461C542.365 231.259 552.822 239.307 564.026 245.189C569.982 248.315 634.418 251.351 641.145 251.351C650.108 251.351 825.057 244.085 825.057 235.122L825.057 16.9241L3.09329 16.9241L3.09331 235.122C3.09331 244.084 178.037 251.35 187 251.35Z" fill="#272727"/>
<path opacity="0.7031" d="M188.503 250.961C195.306 250.961 258.313 247.908 264.328 244.727C275.436 238.85 285.776 230.795 289.514 218.084C300.259 181.554 330.553 122.812 414.077 122.812C497.574 122.812 527.879 181.563 538.632 218.096C542.373 230.803 552.711 238.854 563.817 244.729C569.831 247.909 632.84 250.961 639.642 250.961C648.375 250.961 825.022 243.881 825.022 235.148L825.021 16.6025L3.12735 16.6026L3.12737 235.148C3.12794 243.881 179.77 250.961 188.503 250.961Z" fill="#262626"/>
<path opacity="0.7109" d="M190.004 250.572C196.884 250.572 258.463 247.504 264.535 244.268C275.547 238.398 285.767 230.341 289.479 217.72C300.22 181.206 330.517 122.423 414.076 122.423C497.608 122.423 527.915 181.214 538.665 217.732C542.379 230.349 552.599 238.403 563.609 244.271C569.679 247.505 631.261 250.572 638.139 250.572C646.642 250.572 824.986 243.678 824.986 235.175L824.986 16.2833L3.1619 16.2834L3.16192 235.175C3.16135 243.679 181.501 250.572 190.004 250.572Z" fill="#252525"/>
<path opacity="0.7188" d="M191.508 250.183C198.463 250.183 258.617 247.101 264.744 243.81C275.66 237.946 285.762 229.886 289.447 217.356C300.183 180.857 330.483 122.034 414.078 122.034C497.644 122.034 527.955 180.866 538.699 217.368C542.387 229.895 552.487 237.951 563.402 243.812C569.529 247.102 629.684 250.183 636.637 250.183C644.911 250.183 824.953 243.476 824.953 235.202L824.953 15.964L3.19785 15.9641L3.19787 235.202C3.1973 243.475 183.234 250.183 191.508 250.183Z" fill="#242424"/>
<path opacity="0.7266" d="M193.011 249.793C200.041 249.793 258.769 246.698 264.952 243.351C275.772 237.493 285.755 229.432 289.414 216.991C300.145 180.508 330.448 121.645 414.077 121.645C497.679 121.645 527.992 180.517 538.732 217.003C542.393 229.44 552.374 237.499 563.194 243.354C569.376 246.699 628.105 249.793 635.134 249.793C643.178 249.793 824.918 243.272 824.918 235.229L824.918 15.6436L3.23247 15.6436L3.23249 235.229C3.23249 243.272 184.967 249.793 193.011 249.793Z" fill="#232323"/>
<path opacity="0.7344" d="M194.512 249.403C201.618 249.403 258.92 246.296 265.158 242.892C275.883 237.041 285.746 228.977 289.379 216.626C300.105 180.159 330.411 121.254 414.075 121.254C497.712 121.254 528.028 180.167 538.763 216.638C542.398 228.985 552.26 237.046 562.983 242.894C569.221 246.297 626.525 249.403 633.629 249.403C641.443 249.403 824.881 243.069 824.881 235.255L824.881 15.3231L3.265 15.3232L3.26502 235.255C3.26559 243.069 186.698 249.403 194.512 249.403Z" fill="#222222"/>
<path opacity="0.7422" d="M196.015 249.014C203.197 249.014 259.074 245.894 265.367 242.433C275.998 236.588 285.74 228.522 289.347 216.262C300.068 179.81 330.377 120.865 414.077 120.865C497.749 120.865 528.068 179.819 538.798 216.274C542.406 228.53 552.148 236.593 562.777 242.436C569.069 245.894 624.948 249.013 632.128 249.013C639.712 249.013 824.848 242.865 824.848 235.281L824.848 15.0027L3.30102 15.0028L3.30104 235.281C3.30047 242.866 188.431 249.014 196.015 249.014Z" fill="#212121"/>
<path opacity="0.75" d="M197.517 248.625C204.775 248.625 259.227 245.493 265.575 241.975C276.11 236.135 285.733 228.069 289.313 215.898C300.03 179.462 330.342 120.476 414.076 120.476C497.784 120.476 528.105 179.47 538.831 215.91C542.412 228.077 552.034 236.141 562.569 241.978C568.915 245.495 623.369 248.625 630.625 248.625C637.979 248.625 824.813 242.663 824.813 235.309L824.812 14.6846L3.33564 14.6846L3.33566 235.309C3.33566 242.663 190.164 248.625 197.517 248.625Z" fill="#202020"/>
<path opacity="0.7578" d="M199.021 248.236C206.353 248.236 259.382 245.094 265.783 241.516C276.225 235.682 285.727 227.614 289.28 215.533C299.992 179.113 330.307 120.087 414.076 120.087C497.818 120.087 528.143 179.122 538.864 215.546C542.419 227.622 551.92 235.688 562.36 241.52C568.761 245.095 621.791 248.236 629.122 248.236C636.247 248.236 824.777 242.461 824.777 235.337L824.777 14.3652L3.36963 14.3653L3.36965 235.337C3.37079 242.461 191.896 248.236 199.021 248.236Z" fill="#1F1F1F"/>
<path opacity="0.7656" d="M200.522 247.846C207.931 247.846 259.536 244.693 265.99 241.057C276.338 235.228 285.719 227.159 289.246 215.168C299.954 178.764 330.271 119.697 414.076 119.697C497.853 119.697 528.181 178.772 538.897 215.18C542.426 227.167 551.806 235.233 562.152 241.06C568.606 244.694 620.212 247.846 627.619 247.846C634.514 247.846 824.742 242.256 824.742 235.362L824.742 14.0437L3.40418 14.0438L3.4042 235.362C3.40478 242.256 193.628 247.846 200.522 247.846Z" fill="#1E1E1E"/>
<path opacity="0.7734" d="M202.026 247.457C209.511 247.457 259.692 244.295 266.2 240.599C276.455 234.775 285.714 226.704 289.214 214.805C299.918 178.415 330.238 119.308 414.077 119.308C497.89 119.308 528.22 178.424 538.932 214.817C542.434 226.713 551.693 234.78 561.946 240.602C568.453 244.296 618.635 247.456 626.118 247.456C632.782 247.456 824.709 242.054 824.709 235.389L824.709 13.7244L3.44076 13.7244L3.44078 235.389C3.44021 242.054 195.361 247.457 202.026 247.457Z" fill="#1D1D1D"/>
<path opacity="0.7813" d="M203.529 247.067C211.088 247.067 259.848 243.897 266.408 240.14C276.569 234.322 285.707 226.25 289.181 214.439C299.879 178.066 330.202 118.919 414.077 118.919C497.925 118.919 528.258 178.075 538.965 214.451C542.44 226.258 551.577 234.326 561.737 240.143C568.297 243.898 617.057 247.067 624.615 247.067C631.049 247.067 824.674 241.85 824.674 235.416L824.674 13.4039L3.47477 13.404L3.47479 235.416C3.47536 241.85 197.094 247.067 203.529 247.067Z" fill="#1C1C1C"/>
<path opacity="0.7891" d="M205.031 246.678C212.666 246.678 260.003 243.5 266.615 239.682C276.684 233.868 285.699 225.796 289.146 214.076C299.84 177.718 330.166 118.53 414.076 118.53C497.959 118.53 528.295 177.726 538.998 214.088C542.447 225.804 551.462 233.873 561.529 239.685C568.14 243.501 615.478 246.678 623.112 246.678C629.317 246.678 824.639 241.648 824.639 235.443L824.639 13.0847L3.50883 13.0848L3.50885 235.443C3.50942 241.648 198.826 246.678 205.031 246.678Z" fill="#1B1B1B"/>
<path opacity="0.7969" d="M206.533 246.289C214.244 246.289 260.16 243.104 266.823 239.224C276.799 233.415 285.692 225.342 289.113 213.712C299.802 177.37 330.13 118.141 414.076 118.141C497.994 118.141 528.332 177.379 539.031 213.724C542.453 225.351 551.345 233.42 561.32 239.227C567.983 243.106 613.9 246.289 621.609 246.289C627.584 246.289 824.604 241.446 824.604 235.47L824.604 12.7654L3.54337 12.7655L3.54339 235.47C3.54396 241.446 200.558 246.289 206.533 246.289Z" fill="#1A1A1A"/>
<path opacity="0.8047" d="M208.037 245.9C215.824 245.9 260.318 242.708 267.033 238.765C276.917 232.96 285.687 224.887 289.081 213.347C299.766 177.021 330.097 117.751 414.078 117.751C498.03 117.751 528.372 177.029 539.066 213.359C542.462 224.896 551.231 232.965 561.113 238.768C567.827 242.71 612.322 245.899 620.107 245.899C625.853 245.899 824.57 241.242 824.57 235.496L824.57 12.4449L3.57987 12.445L3.57989 235.496C3.57989 241.242 202.292 245.9 208.037 245.9Z" fill="#191919"/>
<path opacity="0.8125" d="M209.539 245.511C217.401 245.511 260.475 242.314 267.24 238.307C277.032 232.505 285.679 224.433 289.047 212.983C299.727 176.672 330.061 117.362 414.077 117.362C498.064 117.362 528.409 176.681 539.098 212.995C542.468 224.441 551.114 232.511 560.905 238.31C567.669 242.316 610.743 245.511 618.604 245.511C624.12 245.511 824.535 241.04 824.535 235.525L824.535 12.1267L3.61386 12.1268L3.61388 235.525C3.61388 241.039 204.023 245.511 209.539 245.511Z" fill="#181818"/>
<path opacity="0.8203" d="M211.042 245.121C218.979 245.121 260.633 241.919 267.448 237.847C277.149 232.05 285.672 223.978 289.013 212.618C299.689 176.323 330.026 116.973 414.077 116.973C498.099 116.973 528.447 176.332 539.131 212.631C542.474 223.987 550.996 232.056 560.697 237.851C567.51 241.921 609.165 245.122 617.101 245.122C622.387 245.122 824.5 240.837 824.5 235.551L824.5 11.8063L3.64849 11.8063L3.64851 235.551C3.64851 240.836 205.756 245.121 211.042 245.121Z" fill="#171717"/>
<path opacity="0.8281" d="M212.543 244.732C220.556 244.732 260.792 241.527 267.655 237.389C277.266 231.595 285.664 223.524 288.979 212.254C299.65 175.975 329.99 116.583 414.076 116.583C498.133 116.583 528.484 175.983 539.164 212.266C542.48 223.532 550.878 231.6 560.488 237.392C567.35 241.528 607.586 244.732 615.598 244.732C620.654 244.732 824.465 240.633 824.465 235.577L824.465 11.486L3.68248 11.486L3.6825 235.577C3.6825 240.633 207.487 244.732 212.543 244.732Z" fill="#161616"/>
<path opacity="0.8359" d="M214.046 244.342C222.135 244.342 260.952 241.134 267.863 236.93C277.384 231.14 285.657 223.069 288.946 211.889C299.612 175.625 329.955 116.194 414.075 116.194C498.169 116.194 528.521 175.634 539.196 211.901C542.486 223.078 550.759 231.145 560.279 236.933C567.19 241.135 606.007 244.342 614.095 244.342C618.921 244.342 824.43 240.43 824.43 235.604L824.43 11.1655L3.71703 11.1656L3.71705 235.604C3.71705 240.43 209.22 244.342 214.046 244.342Z" fill="#151515"/>
<path opacity="0.8438" d="M215.55 243.953C223.714 243.953 261.114 240.743 268.072 236.472C277.504 230.684 285.652 222.614 288.914 211.525C299.575 175.277 329.921 115.805 414.077 115.805C498.205 115.805 528.561 175.286 539.232 211.538C542.495 222.624 550.643 230.69 560.073 236.475C567.031 240.744 604.431 243.953 612.593 243.953C617.19 243.953 824.397 240.227 824.397 235.631L824.396 10.8462L3.75361 10.8463L3.75363 235.631C3.75248 240.227 210.953 243.953 215.55 243.953Z" fill="#141414"/>
<path opacity="0.8516" d="M217.052 243.563C225.292 243.563 261.275 240.351 268.28 236.013C277.622 230.227 285.645 222.16 288.88 211.161C299.538 174.928 329.885 115.415 414.077 115.415C498.24 115.415 528.599 174.937 539.265 211.173C542.501 222.169 550.524 230.233 559.865 236.016C566.87 240.353 602.852 243.563 611.09 243.563C615.457 243.563 824.361 240.023 824.361 235.657L824.361 10.5258L3.78775 10.5258L3.78777 235.657C3.78777 240.024 212.686 243.563 217.052 243.563Z" fill="#131313"/>
<path opacity="0.8594" d="M218.555 243.174C226.871 243.174 261.436 239.962 268.488 235.555C277.741 229.772 285.638 221.706 288.847 210.796C299.499 174.579 329.85 115.025 414.076 115.025C498.275 115.025 528.636 174.587 539.298 210.808C542.508 221.714 550.404 229.777 559.656 235.557C566.708 239.963 601.273 243.174 609.587 243.174C613.724 243.174 824.326 239.82 824.326 235.683L824.326 10.2053L3.82159 10.2054L3.82161 235.683C3.82218 239.821 214.418 243.174 218.555 243.174Z" fill="#121212"/>
<path opacity="0.8672" d="M220.057 242.785C228.448 242.785 261.598 239.573 268.695 235.096C277.86 229.315 285.63 221.251 288.812 210.432C299.46 174.231 329.814 114.636 414.076 114.636C498.309 114.636 528.673 174.239 539.33 210.444C542.514 221.26 550.284 229.32 559.448 235.099C566.545 239.574 599.695 242.785 608.084 242.785C611.991 242.785 824.291 239.617 824.291 235.71L824.291 9.88611L3.8563 9.88618L3.85632 235.711C3.85632 239.618 216.15 242.785 220.057 242.785Z" fill="#111111"/>
<path opacity="0.875" d="M221.559 242.396C230.026 242.396 261.761 239.185 268.904 234.638C277.98 228.859 285.623 220.797 288.779 210.068C299.423 173.882 329.779 114.247 414.076 114.247C498.344 114.247 528.712 173.89 539.364 210.08C542.521 220.806 550.164 228.864 559.24 234.641C566.381 239.187 598.116 242.396 606.581 242.396C610.258 242.396 824.256 239.415 824.256 235.738L824.256 9.56677L3.89084 9.56684L3.89086 235.738C3.89143 239.415 217.883 242.396 221.559 242.396Z" fill="#101010"/>
<path opacity="0.8828" d="M223.062 242.007C231.604 242.007 261.925 238.798 269.111 234.18C278.101 228.402 285.617 220.343 288.746 209.704C299.385 173.534 329.744 113.859 414.076 113.859C498.379 113.859 528.749 173.542 539.397 209.716C542.528 220.352 550.043 228.408 559.031 234.183C566.217 238.8 596.538 242.007 605.078 242.007C608.526 242.007 824.221 239.213 824.221 235.765L824.221 9.24744L3.92484 9.24751L3.92486 235.765C3.92544 239.212 219.615 242.007 223.062 242.007Z" fill="#0F0F0F"/>
<path opacity="0.8906" d="M224.565 241.617C233.183 241.617 262.09 238.411 269.32 233.72C278.222 227.943 285.611 219.888 288.713 209.338C299.348 173.184 329.71 113.468 414.077 113.468C498.415 113.468 528.789 173.192 539.432 209.35C542.536 219.896 549.923 227.949 558.825 233.723C566.054 238.412 594.961 241.617 603.577 241.617C606.795 241.617 824.188 239.008 824.188 235.791L824.188 8.9259L3.96133 8.92598L3.96135 235.791C3.96078 239.008 221.347 241.617 224.565 241.617Z" fill="#0E0E0E"/>
<path opacity="0.8984" d="M226.068 241.227C234.762 241.227 262.256 238.026 269.528 233.261C278.344 227.486 285.604 219.433 288.68 208.974C299.31 172.836 329.675 113.079 414.076 113.079C498.45 113.079 528.826 172.844 539.464 208.986C542.542 219.442 549.801 227.491 558.617 233.265C565.888 238.027 593.382 241.227 602.074 241.227C605.062 241.227 824.152 238.805 824.152 235.818L824.152 8.60657L3.99534 8.60664L3.99536 235.818C3.99593 238.806 223.08 241.227 226.068 241.227Z" fill="#0D0D0D"/>
<path opacity="0.9063" d="M227.571 240.839C236.34 240.839 262.422 237.642 269.736 232.804C278.466 227.029 285.597 218.98 288.646 208.611C299.272 172.488 329.639 112.691 414.076 112.691C498.485 112.691 528.863 172.496 539.497 208.623C542.549 218.988 549.678 227.034 558.408 232.807C565.721 237.643 591.803 240.838 600.571 240.838C603.329 240.838 824.117 238.603 824.117 235.845L824.117 8.28735L4.02988 8.28743L4.0299 235.845C4.03104 238.603 224.813 240.839 227.571 240.839Z" fill="#0C0C0C"/>
<path opacity="0.9141" d="M229.073 240.449C237.918 240.449 262.589 237.258 269.945 232.345C278.59 226.569 285.59 218.524 288.614 208.246C299.234 172.138 329.605 112.301 414.077 112.301C498.521 112.301 528.903 172.146 539.532 208.258C542.557 218.533 549.557 226.575 558.201 232.348C565.556 237.259 590.226 240.449 599.07 240.449C601.598 240.449 824.084 238.4 824.084 235.871L824.084 7.96692L4.06645 7.96699L4.06647 235.871C4.06533 238.4 226.546 240.449 229.073 240.449Z" fill="#0B0B0B"/>
<path opacity="0.9219" d="M230.576 240.06C239.497 240.06 262.757 236.875 270.152 231.886C278.713 226.111 285.583 218.071 288.58 207.882C299.196 171.79 329.569 111.911 414.077 111.911C498.556 111.911 528.94 171.798 539.565 207.894C542.563 218.079 549.433 226.117 557.993 231.89C565.387 236.876 588.648 240.06 597.567 240.06C599.865 240.06 824.049 238.197 824.049 235.898L824.049 7.64758L4.10045 7.64765L4.10047 235.899C4.0999 238.197 228.277 240.06 230.576 240.06Z" fill="#0A0A0A"/>
<path opacity="0.9297" d="M232.079 239.67C241.075 239.67 262.926 236.493 270.361 231.428C278.837 225.652 285.577 217.616 288.547 207.517C299.158 171.441 329.534 111.522 414.077 111.522C498.59 111.522 528.978 171.449 539.598 207.529C542.57 217.625 549.309 225.658 557.784 231.431C565.218 236.495 587.069 239.67 596.064 239.67C598.132 239.67 824.014 237.994 824.014 235.925L824.014 7.32715L4.135 7.32722L4.13502 235.925C4.13502 237.994 230.01 239.67 232.079 239.67Z" fill="#090909"/>
<path opacity="0.9375" d="M233.581 239.281C242.652 239.281 263.095 236.112 270.568 230.968C278.961 225.191 285.569 217.161 288.513 207.152C299.119 171.092 329.499 111.132 414.076 111.132C498.625 111.132 529.016 171.1 539.631 207.164C542.576 217.17 549.184 225.198 557.576 230.972C565.048 236.114 585.491 239.281 594.56 239.281C596.399 239.281 823.979 237.791 823.979 235.952L823.979 7.00781L4.16906 7.00788L4.16908 235.952C4.16965 237.79 231.743 239.281 233.581 239.281Z" fill="#080808"/>
<path opacity="0.9453" d="M235.084 238.892C244.231 238.892 263.267 235.733 270.777 230.51C279.086 224.732 285.563 216.707 288.481 206.788C299.083 170.743 329.465 110.743 414.077 110.743C498.662 110.743 529.055 170.751 539.666 206.799C542.584 216.715 549.061 224.737 557.369 230.513C564.879 235.734 583.913 238.891 593.059 238.891C594.667 238.891 823.945 237.587 823.945 235.978L823.945 6.6875L4.20501 6.68757L4.20503 235.978C4.20503 237.588 233.476 238.892 235.084 238.892Z" fill="#070707"/>
<path opacity="0.9531" d="M236.587 238.503C245.81 238.503 263.438 235.354 270.986 230.052C279.212 224.272 285.557 216.252 288.447 206.424C299.045 170.395 329.43 110.354 414.077 110.354C498.696 110.354 529.092 170.403 539.698 206.436C542.591 216.262 548.935 224.278 557.161 230.055C564.707 235.355 582.334 238.503 591.556 238.503C592.934 238.503 823.91 237.385 823.91 236.006L823.91 6.36816L4.23956 6.36824L4.23958 236.006C4.23958 237.385 235.208 238.503 236.587 238.503Z" fill="#060606"/>
<path opacity="0.9609" d="M238.09 238.114C247.388 238.114 263.611 234.976 271.193 229.594C279.338 223.812 285.55 215.799 288.414 206.06C299.007 170.047 329.394 109.965 414.077 109.965C498.731 109.965 529.13 170.054 539.731 206.072C542.597 215.807 548.809 223.817 556.952 229.597C564.534 234.978 580.756 238.114 590.053 238.114C591.202 238.114 823.875 237.182 823.875 236.033L823.875 6.04883L4.27427 6.0489L4.27429 236.033C4.27429 237.182 236.94 238.114 238.09 238.114Z" fill="#050505"/>
<path opacity="0.9688" d="M239.591 237.724C248.965 237.724 263.783 234.599 271.4 229.135C279.463 223.35 285.541 215.344 288.379 205.696C298.967 169.698 329.358 109.576 414.076 109.576C498.765 109.576 529.167 169.706 539.764 205.708C542.603 215.353 548.681 223.356 556.744 229.138C564.36 234.601 579.177 237.724 588.55 237.724C589.469 237.724 823.84 236.979 823.84 236.059L823.84 5.72839L4.30817 5.72847L4.30819 236.059C4.3082 236.979 238.672 237.724 239.591 237.724Z" fill="#040404"/>
<path opacity="0.9766" d="M241.094 237.335C250.543 237.335 263.957 234.223 271.608 228.676C279.59 222.888 285.534 214.889 288.346 205.331C298.929 169.349 329.323 109.187 414.076 109.187C498.8 109.187 529.204 169.357 539.797 205.343C542.61 214.898 548.554 222.895 556.536 228.68C564.186 234.225 577.599 237.335 587.046 237.335C587.736 237.335 823.805 236.776 823.805 236.086L823.805 5.40906L4.34281 5.40913L4.34283 236.087C4.34283 236.776 240.404 237.335 241.094 237.335Z" fill="#030303"/>
<path opacity="0.9844" d="M242.597 236.945C252.122 236.945 264.133 233.847 271.817 228.217C279.719 222.426 285.528 214.434 288.313 204.966C298.892 168.999 329.288 108.796 414.076 108.796C498.836 108.796 529.243 169.007 539.83 204.977C542.617 214.442 548.425 222.431 556.327 228.22C564.01 233.848 576.02 236.944 585.543 236.944C586.003 236.944 823.77 236.571 823.77 236.111L823.77 5.08752L4.37735 5.0876L4.37737 236.111C4.37737 236.572 242.137 236.945 242.597 236.945Z" fill="#020202"/>
<path opacity="0.9922" d="M244.1 236.556C253.701 236.556 264.31 233.474 272.025 227.759C279.848 221.964 285.522 213.98 288.28 204.602C298.855 168.651 329.253 108.407 414.077 108.407C498.872 108.407 529.282 168.659 539.865 204.614C542.625 213.989 548.298 221.969 556.121 227.762C563.836 233.475 574.444 236.556 584.042 236.556C584.272 236.556 823.736 236.369 823.736 236.14L823.736 4.76941L4.41329 4.76948L4.41331 236.14C4.41274 236.37 243.87 236.556 244.1 236.556Z" fill="#010101"/>
<path d="M245.602 236.166C255.279 236.166 264.488 233.1 272.233 227.3C279.977 221.5 285.515 213.525 288.247 204.237C298.817 168.302 329.218 108.018 414.077 108.018C498.906 108.018 529.319 168.31 539.898 204.249C542.631 213.535 548.169 221.506 555.913 227.303C563.658 233.102 572.865 236.166 582.539 236.166L823.701 236.166L823.701 4.44897L4.44785 4.44905L4.44787 236.166L245.602 236.166Z" fill="black"/>
</g>
<path d="M0.000828449 0.000630621L0.000849484 240.612L245.603 240.612C267.302 240.612 286.39 226.309 292.514 205.491C303.673 167.552 333.713 112.463 414.077 112.463C494.416 112.463 524.465 167.564 535.632 205.503C541.758 226.315 560.845 240.612 582.539 240.612L828.148 240.611L828.148 0L0.000828449 0.000630621Z" fill="white"/>
<path d="M390.764 239.731C389.654 239.816 388.822 240.785 388.907 241.895C388.992 243.006 389.964 243.833 391.071 243.752C400.145 243.059 409.994 243.759 420.346 245.835C420.479 245.861 420.613 245.874 420.744 245.874C421.685 245.874 422.527 245.212 422.719 244.254C422.938 243.162 422.23 242.1 421.138 241.881C410.425 239.733 400.204 239.01 390.764 239.731ZM413.292 272.452C415.865 272.807 418.505 273.255 421.138 273.783C422.23 274.002 422.937 275.064 422.719 276.156C422.526 277.114 421.685 277.776 420.744 277.776C420.613 277.776 420.479 277.763 420.345 277.736C417.792 277.225 415.234 276.79 412.742 276.447C411.638 276.295 410.868 275.277 411.019 274.174C411.171 273.071 412.19 272.302 413.292 272.452L413.292 272.452ZM390.764 260.999C400.204 260.278 410.425 261.001 421.138 263.149C422.23 263.368 422.937 264.43 422.719 265.522C422.526 266.48 421.685 267.142 420.744 267.142C420.613 267.142 420.479 267.129 420.345 267.102C409.994 265.027 400.145 264.326 391.071 265.02C389.964 265.103 388.992 264.274 388.907 263.163C388.822 262.053 389.653 261.084 390.764 260.999L390.764 260.999ZM390.764 250.365C400.204 249.644 410.425 250.367 421.138 252.515C422.23 252.734 422.937 253.796 422.719 254.888C422.526 255.846 421.685 256.508 420.744 256.508C420.613 256.508 420.479 256.495 420.345 256.469C409.994 254.393 400.144 253.693 391.071 254.386C389.964 254.471 388.992 253.64 388.907 252.529C388.822 251.419 389.653 250.45 390.764 250.365L390.764 250.365ZM416.513 283.573C418.038 283.823 419.594 284.107 421.139 284.417C422.23 284.636 422.938 285.698 422.719 286.79C422.527 287.748 421.685 288.41 420.744 288.41C420.613 288.41 420.479 288.397 420.345 288.37C418.847 288.07 417.338 287.794 415.86 287.552C414.761 287.371 414.017 286.334 414.197 285.236C414.377 284.137 415.416 283.391 416.513 283.573ZM469.87 243.752C460.796 243.058 450.947 243.759 440.596 245.835C440.462 245.861 440.329 245.874 440.197 245.874C439.256 245.874 438.415 245.212 438.223 244.254C438.004 243.162 438.711 242.1 439.803 241.881C450.516 239.733 460.737 239.009 470.178 239.731C471.288 239.816 472.119 240.785 472.034 241.895C471.949 243.006 470.971 243.834 469.87 243.752L469.87 243.752ZM469.87 254.386C460.796 253.692 450.947 254.393 440.596 256.469C440.462 256.495 440.329 256.508 440.197 256.508C439.256 256.508 438.415 255.846 438.223 254.888C438.004 253.796 438.711 252.734 439.803 252.515C450.516 250.367 460.736 249.643 470.178 250.365C471.288 250.45 472.119 251.419 472.034 252.529C471.949 253.64 470.971 254.472 469.87 254.386L469.87 254.386ZM469.87 275.654C460.796 274.96 450.947 275.661 440.596 277.736C440.462 277.763 440.329 277.776 440.197 277.776C439.256 277.776 438.415 277.114 438.223 276.156C438.004 275.064 438.711 274.002 439.803 273.783C450.516 271.635 460.736 270.911 470.178 271.633C471.288 271.718 472.119 272.687 472.034 273.797C471.949 274.908 470.971 275.736 469.87 275.654L469.87 275.654ZM440.197 288.41C439.256 288.41 438.415 287.748 438.223 286.79C438.004 285.698 438.711 284.636 439.803 284.417C450.516 282.268 460.736 281.545 470.178 282.267C471.288 282.352 472.119 283.32 472.034 284.431C471.95 285.541 470.985 286.369 469.87 286.288C460.795 285.595 450.947 286.295 440.596 288.37C440.462 288.397 440.329 288.41 440.197 288.41L440.197 288.41ZM469.87 265.02C460.796 264.326 450.947 265.027 440.596 267.102C440.462 267.129 440.329 267.142 440.197 267.142C439.256 267.142 438.415 266.48 438.223 265.522C438.004 264.43 438.711 263.368 439.803 263.149C450.516 261 460.737 260.277 470.178 260.999C471.288 261.084 472.119 262.053 472.034 263.163C471.949 264.274 470.97 265.107 469.87 265.02L469.87 265.02ZM346.306 332.388C347.704 333.786 349.541 334.485 351.377 334.485C353.213 334.485 355.05 333.786 356.448 332.388L370.34 318.496C371.52 317.316 371.903 315.64 371.497 314.133C372.15 313.721 372.954 313.701 373.657 314.119C377.657 316.499 382.244 317.756 386.922 317.756C395.469 317.756 403.065 313.608 407.803 307.219L487.368 307.219C488.482 307.219 489.385 306.317 489.385 305.203L489.385 229.251C489.385 228.138 488.482 227.235 487.368 227.235L481.636 227.235L481.636 224.837C481.636 224.053 481.182 223.341 480.472 223.01C475.869 220.864 465.151 220.017 454.388 220.881L454.388 208.167L465.581 205.168C467.108 204.759 468.175 203.369 468.175 201.788C468.175 200.208 467.108 198.818 465.582 198.409L465.581 198.409L432.815 189.629C431.216 189.201 429.725 189.2 428.126 189.629L395.36 198.408C393.833 198.818 392.767 200.208 392.767 201.788C392.767 202.775 393.182 203.687 393.866 204.333L393.866 212.186L389.861 216.191C389.483 216.569 389.271 217.082 389.271 217.617L389.271 220.998C386.278 221.325 382.804 221.921 380.469 223.01C379.759 223.341 379.305 224.053 379.305 224.837L379.305 227.235L373.573 227.235C372.459 227.235 371.556 228.138 371.556 229.251L371.556 270.831C365.122 275.565 360.937 283.188 360.937 291.772C360.937 296.449 362.195 301.036 364.575 305.037C364.993 305.74 364.973 306.544 364.56 307.197C363.054 306.79 361.378 307.173 360.198 308.354L346.306 322.246C343.51 325.042 343.51 329.592 346.306 332.388L346.306 332.388ZM379.305 231.268L379.305 266.927C378.022 267.321 376.78 267.812 375.589 268.392L375.589 231.268L379.305 231.268ZM393.542 233.237L395.882 230.896L398.223 233.237C398.703 233.717 399.34 233.972 399.99 233.972C400.312 233.972 400.638 233.909 400.949 233.78C401.887 233.391 402.493 232.484 402.493 231.469L402.493 224.672C404.139 224.742 405.779 224.857 407.401 225.007C407.444 225.038 407.486 225.07 407.532 225.098C413.709 228.806 420.905 230.902 428.455 231.22L428.455 298.771C423.569 296.483 417.664 295.2 412.766 294.484C412.859 293.593 412.907 292.688 412.907 291.772C412.907 277.444 401.25 265.788 386.922 265.788C385.706 265.788 384.51 265.873 383.338 266.036L383.338 226.218C384.812 225.741 386.863 225.341 389.271 225.057L389.271 231.469C389.271 232.484 389.877 233.392 390.816 233.78C391.754 234.169 392.824 233.955 393.542 233.237ZM406.554 208.167L406.554 220.883C405.208 220.775 403.851 220.692 402.493 220.636L402.493 217.617C402.493 217.082 402.281 216.569 401.902 216.191L397.898 212.187L397.899 205.849L406.554 208.168L406.554 208.167ZM393.304 218.452L395.882 215.873L398.46 218.452L398.46 227.772L397.308 226.619C396.93 226.241 396.417 226.028 395.882 226.028C395.348 226.028 394.835 226.24 394.457 226.619L393.304 227.772L393.304 218.452ZM462.614 201.788L431.772 210.052C430.86 210.296 430.081 210.296 429.17 210.052L398.327 201.788L429.17 193.524C430.082 193.28 430.86 193.28 431.771 193.524L462.614 201.789L462.614 201.788ZM450.355 209.248L450.355 222.207C444.47 225.5 437.622 227.235 430.471 227.235C423.32 227.235 416.471 225.5 410.586 222.207L410.586 209.248L428.127 213.948C428.926 214.162 429.699 214.269 430.471 214.269C431.243 214.269 432.015 214.162 432.815 213.948L450.355 209.248L450.355 209.248ZM477.604 294.924C472.716 293.648 464.971 293.144 456.651 293.628C450.68 293.977 440.261 295.11 432.487 298.764L432.487 231.22C440.036 230.902 447.232 228.805 453.409 225.098C453.458 225.068 453.503 225.034 453.549 225.001C463.829 224.051 473.27 224.821 477.604 226.218L477.604 294.924L477.604 294.924ZM485.352 303.187L432.683 303.187C444.909 296.437 471.827 296.332 478.768 299.569C479.392 299.86 480.121 299.812 480.703 299.442C481.284 299.071 481.636 298.43 481.636 297.741L481.636 231.268L485.352 231.268L485.352 303.187L485.352 303.187ZM410.261 303.187C410.998 301.684 411.595 300.101 412.034 298.454C418.761 299.426 424.408 301.076 428.245 303.187L410.261 303.187ZM369.097 310.886L367.808 309.596C369.158 307.653 369.284 305.067 368.04 302.976C366.032 299.599 364.97 295.724 364.97 291.772C364.97 279.668 374.817 269.82 386.922 269.82C399.026 269.82 408.874 279.668 408.874 291.772C408.874 303.877 399.026 313.724 386.922 313.724C382.969 313.724 379.095 312.662 375.718 310.654C373.627 309.409 371.041 309.535 369.097 310.886L369.097 310.886ZM349.157 325.097L363.049 311.205C363.139 311.116 363.26 311.07 363.382 311.07C363.503 311.07 363.624 311.115 363.714 311.205L367.488 314.979C367.668 315.16 367.668 315.465 367.488 315.645L353.596 329.537C352.372 330.76 350.381 330.761 349.157 329.537C347.933 328.313 347.933 326.322 349.157 325.097L349.157 325.097ZM386.921 311.782C397.955 311.782 406.932 302.806 406.932 291.772C406.932 280.738 397.955 271.762 386.921 271.762C375.888 271.762 366.911 280.738 366.911 291.772C366.911 302.806 375.888 311.782 386.921 311.782ZM370.944 291.772C370.944 282.962 378.111 275.794 386.921 275.794C395.732 275.794 402.899 282.962 402.899 291.772C402.899 300.582 395.732 307.75 386.921 307.75C378.111 307.75 370.944 300.582 370.944 291.772Z" fill="white"/>
</svg>
