<svg width="712" height="1450" viewBox="0 0 712 1450" fill="none" xmlns="http://www.w3.org/2000/svg">
<path d="M0.924573 725.24C0.92457 803.121 31.2526 876.34 86.3226 931.41C141.392 986.48 214.612 1016.81 292.493 1016.81C370.374 1016.81 443.593 986.48 498.663 931.41C553.733 876.34 584.061 803.121 584.061 725.24C584.061 647.359 553.732 574.14 498.663 519.07C443.593 464 370.374 433.672 292.493 433.672C214.612 433.672 141.392 464 86.3227 519.07C31.2527 574.139 0.924577 647.359 0.924573 725.24Z" fill="#826546"/>
<g opacity="0.26">
<path opacity="0.01" d="M213.423 103.037C213.423 103.201 213.474 435.155 213.573 435.287C213.672 472.85 238.481 505.873 274.55 516.482C340.606 535.912 436.657 588.248 436.657 728.318C436.657 868.345 340.585 920.695 274.528 940.138C238.469 950.752 213.672 983.772 213.573 1021.33C213.475 1021.46 213.423 1353.43 213.423 1353.59C213.423 1404.34 254.56 1449.55 305.307 1449.55L632.416 1449.55L632.416 7.07465L305.307 7.07464C254.56 7.07464 213.423 52.2908 213.423 103.037Z" fill="#656565"/>
<path opacity="0.0194" d="M214.267 106.291C214.267 106.618 214.37 435.475 214.566 435.738C214.762 473.066 239.465 505.859 275.339 516.411C341.361 535.83 437.5 588.172 437.5 728.318C437.5 868.421 341.34 920.777 275.317 940.211C239.453 950.768 214.762 983.558 214.566 1020.88C214.37 1021.14 214.266 1350.01 214.266 1350.34C214.266 1400.59 255.001 1449.48 305.25 1449.48L633.109 1449.48L633.109 7.15026L305.25 7.15025C255.001 7.15024 214.267 56.0419 214.267 106.291Z" fill="#646464"/>
<path opacity="0.0291" d="M215.11 109.544C215.11 110.035 215.265 435.795 215.56 436.188C215.854 473.28 240.45 505.844 276.129 516.338C342.117 535.747 438.344 588.095 438.344 728.318C438.344 868.496 342.096 920.859 276.107 940.283C240.438 950.782 215.854 983.343 215.56 1020.43C215.266 1020.82 215.11 1346.59 215.11 1347.08C215.11 1396.83 255.441 1449.4 305.193 1449.4L633.803 1449.4L633.803 7.22481L305.193 7.22479C255.441 7.22479 215.11 59.7919 215.11 109.544Z" fill="#636363"/>
<path opacity="0.0388" d="M215.951 112.796C215.951 113.45 216.158 436.114 216.55 436.638C216.943 473.494 241.431 505.829 276.915 516.266C342.869 535.666 439.184 588.02 439.184 728.318C439.184 868.572 342.848 920.941 276.892 940.354C241.418 950.796 216.941 983.129 216.549 1019.98C216.157 1020.5 215.95 1343.18 215.95 1343.83C215.95 1393.08 255.878 1449.33 305.132 1449.33L634.492 1449.33L634.492 7.29954L305.132 7.29952C255.88 7.30052 215.951 63.5429 215.951 112.796Z" fill="#626262"/>
<path opacity="0.0485" d="M216.795 116.049C216.795 116.868 217.054 436.434 217.544 437.088C218.035 473.708 242.416 505.814 277.706 516.194C343.626 535.583 440.028 587.943 440.028 728.318C440.028 868.649 343.605 921.023 277.683 940.427C242.405 950.811 218.034 982.915 217.543 1019.53C217.054 1020.18 216.794 1339.76 216.794 1340.58C216.794 1389.33 256.318 1449.25 305.074 1449.25L635.186 1449.25L635.186 7.37537L305.074 7.37536C256.319 7.37635 216.795 67.293 216.795 116.049Z" fill="#616161"/>
<path opacity="0.0583" d="M217.636 119.302C217.636 120.284 217.948 436.752 218.536 437.539C219.125 473.923 243.4 505.8 278.494 516.122C344.38 535.502 440.871 587.868 440.871 728.318C440.871 868.724 344.359 921.105 278.472 940.498C243.388 950.825 219.125 982.7 218.536 1019.08C217.948 1019.86 217.637 1336.34 217.637 1337.32C217.637 1385.58 256.759 1449.18 305.018 1449.18L635.879 1449.18L635.879 7.45002L305.018 7.45001C256.758 7.451 217.636 71.0441 217.636 119.302Z" fill="#606060"/>
<path opacity="0.068" d="M218.481 122.555C218.481 123.7 218.845 437.072 219.531 437.989C220.218 474.137 244.385 505.784 279.284 516.049C345.136 535.419 441.715 587.792 441.715 728.318C441.715 868.8 345.115 921.187 279.262 940.571C244.373 950.84 220.217 982.485 219.531 1018.63C218.845 1019.54 218.481 1332.93 218.481 1334.07C218.481 1381.83 257.199 1449.1 304.961 1449.1L636.572 1449.1L636.572 7.52553L304.961 7.52551C257.199 7.52651 218.481 74.7938 218.481 122.555Z" fill="#5F5F5F"/>
<path opacity="0.0777" d="M219.323 125.809C219.323 127.118 219.738 437.392 220.523 438.44C221.307 474.352 245.368 505.77 280.072 515.979C345.891 535.338 442.557 587.717 442.557 728.319C442.557 868.877 345.87 921.27 280.05 940.644C245.356 950.856 221.306 982.271 220.523 1018.18C219.738 1019.22 219.324 1329.51 219.324 1330.82C219.324 1378.08 257.639 1449.03 304.902 1449.03L637.264 1449.03L637.264 7.60244L304.902 7.60243C257.638 7.60143 219.323 78.545 219.323 125.809Z" fill="#5E5E5E"/>
<path opacity="0.0874" d="M220.166 129.061C220.166 130.533 220.633 437.71 221.515 438.889C222.397 474.565 246.351 505.754 280.86 515.905C346.645 535.255 443.398 587.639 443.398 728.317C443.398 868.951 346.624 921.35 280.837 940.715C246.338 950.869 222.395 982.056 221.513 1017.72C220.631 1018.9 220.164 1326.09 220.164 1327.56C220.164 1374.33 258.075 1448.95 304.841 1448.95L637.953 1448.95L637.953 7.67609L304.841 7.67608C258.077 7.67707 220.166 82.2949 220.166 129.061Z" fill="#5D5D5D"/>
<path opacity="0.0971" d="M221.008 132.314C221.008 133.951 221.527 438.03 222.508 439.34C223.489 474.78 247.335 505.74 281.649 515.833C347.4 535.173 444.242 587.564 444.242 728.318C444.242 869.028 347.38 921.434 281.627 940.787C247.323 950.885 223.488 981.842 222.507 1017.27C221.526 1018.58 221.008 1322.68 221.008 1324.31C221.008 1370.58 258.516 1448.87 304.785 1448.87L638.648 1448.87L638.649 7.75171L304.785 7.7517C258.517 7.7517 221.008 86.045 221.008 132.314Z" fill="#5C5C5C"/>
<path opacity="0.1068" d="M221.851 135.567C221.851 137.367 222.422 438.35 223.5 439.79C224.578 474.994 248.318 505.725 282.438 515.761C348.155 535.09 445.085 587.487 445.085 728.317C445.085 869.103 348.134 921.514 282.416 940.859C248.306 950.899 224.578 981.627 223.5 1016.82C222.422 1018.27 221.851 1319.26 221.851 1321.06C221.851 1366.83 258.956 1448.8 304.727 1448.8L639.34 1448.8L639.34 7.82625L304.727 7.82623C258.956 7.82723 221.851 89.7961 221.851 135.567Z" fill="#5B5B5B"/>
<path opacity="0.1165" d="M222.694 138.82C222.694 140.784 223.316 438.669 224.493 440.241C225.67 475.209 249.302 505.712 283.227 515.689C348.91 535.009 445.927 587.412 445.927 728.318C445.927 869.179 348.889 921.598 283.205 940.932C249.291 950.914 225.669 981.413 224.493 1016.37C223.316 1017.95 222.695 1315.84 222.695 1317.81C222.695 1363.08 259.396 1448.73 304.669 1448.73L640.033 1448.73L640.033 7.90218L304.669 7.90217C259.395 7.90217 222.694 93.546 222.694 138.82Z" fill="#5A5A5A"/>
<path opacity="0.1262" d="M223.539 142.073C223.539 144.2 224.213 438.989 225.488 440.691C226.764 475.423 250.289 505.696 284.018 515.617C349.667 534.927 446.772 587.337 446.772 728.318C446.772 869.256 349.646 921.68 283.996 941.004C250.277 950.93 226.762 981.199 225.487 1015.92C224.213 1017.63 223.538 1312.43 223.538 1314.55C223.538 1359.33 259.837 1448.65 304.613 1448.65L640.727 1448.65L640.727 7.97876L304.613 7.97875C259.837 7.97775 223.539 97.2971 223.539 142.073Z" fill="#595959"/>
<path opacity="0.1359" d="M224.378 145.325C224.378 147.617 225.104 439.308 226.478 441.142C227.851 475.638 251.269 505.681 284.803 515.545C350.418 534.844 447.612 587.26 447.612 728.318C447.612 869.332 350.398 921.762 284.781 941.076C251.257 950.944 227.849 980.985 226.476 1015.47C225.103 1017.31 224.378 1309.01 224.378 1311.3C224.378 1355.58 260.273 1448.58 304.552 1448.58L641.416 1448.58L641.416 8.05339L304.552 8.05338C260.274 8.05238 224.378 101.047 224.378 145.325Z" fill="#585858"/>
<path opacity="0.1456" d="M225.224 148.578C225.224 151.033 226.002 439.627 227.473 441.592C228.944 475.852 252.256 505.666 285.595 515.472C351.176 534.762 448.458 587.183 448.458 728.317C448.458 869.406 351.156 921.843 285.573 941.148C252.243 950.959 228.943 980.77 227.472 1015.02C226.002 1016.99 225.224 1305.59 225.224 1308.05C225.224 1351.83 260.716 1448.5 304.497 1448.5L642.111 1448.5L642.111 8.12698L304.496 8.12696C260.716 8.12796 225.224 104.798 225.224 148.578Z" fill="#575757"/>
<path opacity="0.1553" d="M226.066 151.832C226.066 154.451 226.895 439.947 228.465 442.043C230.034 476.067 253.238 505.652 286.383 515.4C351.93 534.68 449.299 587.108 449.299 728.318C449.299 869.483 351.911 921.927 286.361 941.22C253.226 950.974 230.033 980.556 228.464 1014.57C226.894 1016.67 226.066 1302.18 226.066 1304.79C226.066 1348.08 261.154 1448.42 304.438 1448.42L642.803 1448.42L642.803 8.20388L304.438 8.20386C261.154 8.20286 226.066 108.548 226.066 151.832Z" fill="#565656"/>
<path opacity="0.165" d="M226.91 155.085C226.91 157.867 227.791 440.266 229.459 442.493C231.127 476.281 254.223 505.637 287.173 515.328C352.686 534.598 450.143 587.032 450.143 728.318C450.143 869.56 352.666 922.008 287.151 941.293C254.211 950.989 231.125 980.343 229.458 1014.12C227.791 1016.35 226.909 1298.76 226.909 1301.54C226.909 1344.33 261.595 1448.35 304.38 1448.35L643.496 1448.35L643.496 8.27851L304.38 8.27849C261.594 8.27849 226.91 112.298 226.91 155.085Z" fill="#555555"/>
<path opacity="0.1748" d="M227.751 158.338C227.751 161.283 228.684 440.586 230.451 442.944C232.216 476.496 255.206 505.623 287.961 515.257C353.441 534.517 450.985 586.956 450.985 728.319C450.985 869.636 353.42 922.091 287.939 941.366C255.194 951.004 232.214 980.129 230.45 1013.67C228.684 1016.03 227.751 1295.34 227.751 1298.29C227.751 1340.58 262.033 1448.27 304.322 1448.27L644.188 1448.27L644.188 8.35315L304.322 8.35314C262.033 8.35314 227.751 116.049 227.751 158.338Z" fill="#545454"/>
<path opacity="0.1845" d="M228.595 161.59C228.595 164.7 229.58 440.905 231.444 443.394C233.308 476.71 256.19 505.607 288.75 515.184C354.196 534.434 451.829 586.879 451.829 728.318C451.829 869.711 354.176 922.173 288.728 941.437C256.177 951.018 233.305 979.913 231.443 1013.22C229.58 1015.71 228.595 1291.93 228.595 1295.03C228.595 1336.83 262.474 1448.2 304.265 1448.2L644.881 1448.2L644.881 8.42866L304.265 8.42865C262.474 8.42864 228.595 119.799 228.595 161.59Z" fill="#535353"/>
<path opacity="0.1942" d="M229.436 164.843C229.436 168.116 230.473 441.224 232.435 443.844C234.397 476.924 257.173 505.592 289.537 515.111C354.949 534.351 452.669 586.804 452.669 728.318C452.669 869.788 354.929 922.254 289.515 941.509C257.16 951.033 234.395 979.698 232.433 1012.77C230.471 1015.39 229.435 1288.51 229.435 1291.78C229.435 1333.08 262.91 1448.12 304.203 1448.12L645.57 1448.12L645.57 8.50362L304.203 8.50361C262.911 8.5046 229.436 123.55 229.436 164.843Z" fill="#525252"/>
<path opacity="0.2039" d="M230.279 168.096C230.279 171.533 231.369 441.544 233.428 444.294C235.488 477.138 258.157 505.577 290.327 515.039C355.705 534.269 453.513 586.727 453.513 728.317C453.513 869.863 355.685 922.336 290.305 941.58C258.145 951.047 235.486 979.483 233.427 1012.32C231.368 1015.07 230.279 1285.09 230.279 1288.53C230.279 1329.32 263.351 1448.05 304.147 1448.05L646.264 1448.05L646.264 8.57924L304.147 8.57922C263.352 8.57922 230.279 127.3 230.279 168.096Z" fill="#515151"/>
<path opacity="0.2136" d="M231.122 171.349C231.122 174.949 232.263 441.864 234.421 444.745C236.579 477.353 259.141 505.563 291.116 514.968C356.459 534.188 454.356 586.652 454.356 728.319C454.356 869.94 356.44 922.42 291.094 941.655C259.129 951.064 236.577 979.271 234.42 1011.87C232.262 1014.75 231.122 1281.68 231.122 1285.28C231.122 1325.58 263.79 1447.97 304.089 1447.97L646.957 1447.97L646.957 8.65581L304.089 8.6558C263.79 8.6538 231.122 131.051 231.122 171.349Z" fill="#505050"/>
<path opacity="0.2233" d="M231.966 174.603C231.966 178.366 233.159 442.183 235.415 445.196C237.672 477.568 260.126 505.549 291.906 514.896C357.216 534.106 455.2 586.577 455.2 728.319C455.2 870.016 357.195 922.502 291.884 941.726C260.113 951.077 237.669 979.056 235.414 1011.42C233.159 1014.43 231.967 1278.26 231.967 1282.02C231.967 1321.82 264.232 1447.9 304.033 1447.9L647.65 1447.9L647.65 8.72938L304.033 8.72937C264.231 8.72936 231.966 134.801 231.966 174.603Z" fill="#4F4F4F"/>
<path opacity="0.233" d="M232.809 177.855C232.809 181.782 234.054 442.502 236.407 445.645C238.761 477.782 261.109 505.532 292.694 514.823C357.969 534.023 456.042 586.499 456.042 728.317C456.042 870.09 357.951 922.582 292.672 941.797C261.096 951.091 238.758 978.84 236.406 1010.97C234.052 1014.11 232.808 1274.84 232.808 1278.77C232.808 1318.07 264.67 1447.82 303.973 1447.82L648.342 1447.82L648.342 8.8041L303.974 8.80408C264.67 8.80508 232.809 138.551 232.809 177.855Z" fill="#4E4E4E"/>
<path opacity="0.2427" d="M233.652 181.108C233.652 185.199 234.948 442.821 237.4 446.096C239.853 477.996 262.093 505.518 293.483 514.751C358.724 533.941 456.885 586.423 456.885 728.318C456.885 870.167 358.706 922.666 293.461 941.87C262.08 951.106 239.85 978.627 237.399 1010.52C234.947 1013.8 233.652 1271.43 233.652 1275.52C233.652 1314.32 265.109 1447.75 303.916 1447.75L649.035 1447.75L649.035 8.88092L303.916 8.88091C265.109 8.87991 233.652 142.302 233.652 181.108Z" fill="#4D4D4D"/>
<path opacity="0.2524" d="M234.494 184.361C234.494 188.616 235.843 443.141 238.393 446.547C240.943 478.211 263.076 505.503 294.272 514.679C359.48 533.859 457.728 586.348 457.728 728.318C457.728 870.243 359.461 922.747 294.25 941.942C263.065 951.122 240.941 978.413 238.392 1010.07C235.842 1013.48 234.494 1268.01 234.494 1272.26C234.494 1310.57 265.55 1447.67 303.858 1447.67L649.727 1447.67L649.727 8.95564L303.858 8.95562C265.55 8.95562 234.494 146.052 234.494 184.361Z" fill="#4C4C4C"/>
<path opacity="0.2621" d="M235.338 187.614C235.338 192.033 236.738 443.461 239.387 446.998C242.035 478.426 264.062 505.489 295.061 514.608C360.236 533.778 458.572 586.272 458.572 728.319C458.572 870.319 360.217 922.831 295.039 942.015C264.05 951.137 242.032 978.199 239.386 1009.62C236.738 1013.16 235.339 1264.59 235.339 1269.01C235.339 1306.82 265.99 1447.6 303.802 1447.6L650.422 1447.6L650.422 9.03205L303.802 9.03204C265.989 9.03004 235.338 149.803 235.338 187.614Z" fill="#4B4B4B"/>
<path opacity="0.2718" d="M236.179 190.867C236.179 195.45 237.631 443.78 240.378 447.448C243.124 478.639 265.044 505.475 295.848 514.535C360.989 533.695 459.413 586.196 459.413 728.318C459.413 870.395 360.971 922.911 295.827 942.086C265.032 951.151 243.122 977.984 240.377 1009.17C237.631 1012.84 236.18 1261.18 236.18 1265.76C236.18 1303.07 266.428 1447.52 303.742 1447.52L651.111 1447.52L651.111 9.10603L303.742 9.10602C266.427 9.10602 236.179 153.553 236.179 190.867Z" fill="#4A4A4A"/>
<path opacity="0.2816" d="M237.024 194.12C237.024 198.865 238.527 444.098 241.372 447.898C244.217 478.854 266.029 505.46 296.638 514.462C361.745 533.613 460.257 586.12 460.257 728.318C460.257 870.471 361.726 922.994 296.616 942.158C266.016 951.166 244.213 977.77 241.37 1008.72C238.526 1012.52 237.023 1257.76 237.023 1262.5C237.023 1299.32 266.868 1447.45 303.684 1447.45L651.805 1447.45L651.805 9.18164L303.684 9.18163C266.868 9.18063 237.024 157.304 237.024 194.12Z" fill="#494949"/>
<path opacity="0.2913" d="M237.865 197.372C237.865 202.282 239.421 444.418 242.364 448.348C245.307 479.068 267.012 505.444 297.426 514.39C362.499 533.53 461.099 586.043 461.099 728.317C461.099 870.546 362.48 923.075 297.404 942.229C266.999 951.179 245.304 977.554 242.362 1008.27C239.421 1012.2 237.865 1254.34 237.865 1259.25C237.865 1295.57 267.307 1447.37 303.626 1447.37L652.496 1447.37L652.496 9.25619L303.625 9.25618C267.307 9.25618 237.865 161.054 237.865 197.372Z" fill="#484848"/>
<path opacity="0.301" d="M238.709 200.626C238.709 205.699 240.316 444.737 243.357 448.799C246.398 479.283 267.996 505.43 298.215 514.319C363.254 533.449 461.942 585.968 461.942 728.319C461.942 870.623 363.235 923.158 298.193 942.304C267.983 951.196 246.394 977.342 243.354 1007.82C240.314 1011.88 238.707 1250.93 238.707 1256C238.707 1291.82 267.745 1447.3 303.566 1447.3L653.188 1447.3L653.188 9.33179L303.567 9.33178C267.748 9.33078 238.709 164.804 238.709 200.626Z" fill="#474747"/>
<path opacity="0.3107" d="M239.551 203.879C239.551 209.115 241.21 445.057 244.349 449.249C247.488 479.497 268.979 505.415 299.004 514.246C364.009 533.367 462.784 585.892 462.784 728.318C462.784 870.699 363.99 923.24 298.982 942.374C268.966 951.21 247.485 977.125 244.347 1007.37C241.21 1011.56 239.551 1247.51 239.551 1252.74C239.551 1288.07 268.186 1447.22 303.509 1447.22L653.881 1447.22L653.881 9.40675L303.509 9.40674C268.186 9.40674 239.551 168.555 239.551 203.879Z" fill="#464646"/>
<path opacity="0.3204" d="M240.394 207.131C240.394 212.532 242.105 445.376 245.342 449.699C248.58 479.711 269.963 505.4 299.793 514.173C364.764 533.284 463.628 585.815 463.628 728.318C463.628 870.775 364.746 923.322 299.772 942.447C269.951 951.225 248.577 976.912 245.341 1006.92C242.105 1011.24 240.394 1244.09 240.394 1249.49C240.394 1284.32 268.626 1447.15 303.453 1447.15L654.574 1447.15L654.574 9.4814L303.453 9.48139C268.625 9.48138 240.394 172.305 240.394 207.131Z" fill="#454545"/>
<path opacity="0.3301" d="M241.236 210.384C241.236 215.949 243 445.695 246.335 450.149C249.669 479.925 270.947 505.385 300.581 514.101C365.519 533.201 464.47 585.738 464.47 728.317C464.47 870.849 365.5 923.403 300.559 942.518C270.934 951.239 249.665 976.696 246.333 1006.47C242.999 1010.92 241.236 1240.67 241.236 1246.24C241.236 1280.57 269.065 1447.07 303.393 1447.07L655.266 1447.07L655.266 9.55612L303.393 9.5561C269.066 9.5571 241.236 176.057 241.236 210.384Z" fill="#444444"/>
<path opacity="0.3398" d="M242.08 213.637C242.08 219.365 243.895 446.015 247.329 450.6C250.762 480.14 271.932 505.371 301.371 514.03C366.275 533.121 465.313 585.664 465.313 728.318C465.313 870.927 366.256 923.486 301.349 942.592C271.919 951.255 250.758 976.483 247.325 1006.02C243.893 1010.6 242.079 1237.26 242.079 1242.99C242.079 1276.82 269.504 1447 303.335 1447L655.957 1447L655.957 9.63251L303.335 9.6325C269.505 9.6315 242.08 179.806 242.08 213.637Z" fill="#434343"/>
<path opacity="0.3495" d="M242.921 216.89C242.921 222.782 244.788 446.335 248.319 451.05C251.85 480.354 272.913 505.355 302.157 513.957C367.027 533.038 466.153 585.588 466.153 728.318C466.153 871.003 367.008 923.569 302.135 942.663C272.9 951.269 251.846 976.268 248.316 1005.57C244.786 1010.28 242.92 1233.84 242.92 1239.73C242.92 1273.07 269.942 1446.92 303.276 1446.92L656.648 1446.92L656.649 9.70627L303.276 9.70626C269.943 9.70725 242.921 183.557 242.921 216.89Z" fill="#424242"/>
<path opacity="0.3592" d="M243.766 220.144C243.766 226.199 245.685 446.654 249.315 451.502C252.944 480.569 273.9 505.341 302.95 513.886C367.786 532.956 467.001 585.512 467.001 728.318C467.001 871.078 367.768 923.65 302.929 942.736C273.888 951.284 252.941 976.054 249.314 1005.12C245.685 1009.96 243.767 1230.43 243.767 1236.48C243.767 1269.32 270.386 1446.85 303.222 1446.85L657.346 1446.85L657.346 9.78308L303.222 9.78307C270.385 9.78307 243.766 187.308 243.766 220.144Z" fill="#414141"/>
<path opacity="0.3689" d="M244.607 223.396C244.607 229.614 246.578 446.973 250.305 451.952C254.032 480.783 274.881 505.326 303.736 513.813C368.538 532.874 467.841 585.436 467.841 728.318C467.841 871.154 368.52 923.733 303.715 942.808C274.869 951.299 254.029 975.84 250.304 1004.67C246.578 1009.64 244.608 1227.01 244.608 1233.23C244.608 1265.57 270.823 1446.77 303.161 1446.77L658.035 1446.77L658.035 9.8578L303.162 9.85778C270.822 9.85778 244.607 191.058 244.607 223.396Z" fill="#404040"/>
<path opacity="0.3786" d="M245.452 226.649C245.452 233.032 247.474 447.292 251.3 452.402C255.126 480.998 275.867 505.311 304.527 513.74C369.295 532.791 468.685 585.359 468.685 728.317C468.685 871.229 369.276 923.814 304.505 942.879C275.854 951.312 255.121 975.625 251.297 1004.21C247.472 1009.32 245.451 1223.59 245.451 1229.97C245.451 1261.81 271.263 1446.69 303.104 1446.69L658.729 1446.69L658.729 9.93325L303.104 9.93323C271.264 9.93323 245.452 194.808 245.452 226.649Z" fill="#3F3F3F"/>
<path opacity="0.3884" d="M246.293 229.902C246.293 236.448 248.367 447.612 252.291 452.852C256.214 481.211 276.849 505.295 305.314 513.669C370.048 532.709 469.526 585.283 469.526 728.318C469.526 871.306 370.029 923.897 305.292 942.952C276.836 951.328 256.21 975.411 252.288 1003.76C248.366 1009 246.293 1220.18 246.293 1226.72C246.293 1258.06 271.701 1446.62 303.045 1446.62L659.42 1446.62L659.42 10.0082L303.045 10.0082C271.701 10.0082 246.293 198.558 246.293 229.902Z" fill="#3E3E3E"/>
<path opacity="0.3981" d="M247.136 233.155C247.136 239.864 249.262 447.932 253.284 453.303C257.306 481.426 277.833 505.282 306.103 513.597C370.803 532.628 470.369 585.208 470.369 728.318C470.369 871.382 370.784 923.979 306.081 943.025C277.82 951.343 257.301 975.198 253.281 1003.31C249.26 1008.68 247.135 1216.76 247.135 1223.47C247.135 1254.31 272.141 1446.54 302.986 1446.54L660.111 1446.54L660.111 10.0838L302.986 10.0838C272.142 10.0838 247.136 202.31 247.136 233.155Z" fill="#3D3D3D"/>
<path opacity="0.4078" d="M247.979 236.408C247.979 243.282 250.157 448.251 254.277 453.753C258.397 481.64 278.818 505.266 306.892 513.524C371.558 532.545 471.213 585.131 471.213 728.318C471.213 871.458 371.54 924.062 306.871 943.096C278.805 951.357 258.393 974.982 254.275 1002.86C250.157 1008.37 247.98 1213.34 247.98 1220.21C247.98 1250.56 272.582 1446.47 302.931 1446.47L660.807 1446.47L660.807 10.1593L302.931 10.1593C272.581 10.1583 247.979 206.06 247.979 236.408Z" fill="#3C3C3C"/>
<path opacity="0.4175" d="M248.823 239.66C248.823 246.697 251.052 448.57 255.271 454.203C259.489 481.854 279.803 505.251 307.683 513.451C372.316 532.462 472.057 585.054 472.057 728.317C472.057 871.533 372.298 924.142 307.661 943.167C279.79 951.371 259.484 974.766 255.268 1002.41C251.052 1008.04 248.823 1209.92 248.823 1216.96C248.823 1246.81 273.022 1446.39 302.872 1446.39L661.498 1446.39L661.498 10.233L302.872 10.233C273.022 10.234 248.823 209.809 248.823 239.66Z" fill="#3B3B3B"/>
<path opacity="0.4272" d="M249.665 242.914C249.665 250.114 251.946 448.89 256.262 454.653C260.578 482.068 280.785 505.236 308.47 513.38C373.069 532.381 472.898 584.98 472.898 728.318C472.898 871.61 373.051 924.225 308.448 943.241C280.772 951.387 260.573 974.553 256.259 1001.96C251.945 1007.73 249.664 1206.51 249.664 1213.71C249.664 1243.06 273.46 1446.32 302.813 1446.32L662.189 1446.32L662.19 10.3089L302.813 10.3089C273.459 10.3089 249.665 213.561 249.665 242.914Z" fill="#3A3A3A"/>
<path opacity="0.4369" d="M250.508 246.167C250.508 253.531 252.841 449.209 257.257 455.104C261.671 482.283 281.77 505.222 309.26 513.308C373.825 532.299 473.742 584.904 473.742 728.318C473.742 871.686 373.807 924.308 309.238 943.313C281.756 951.402 261.666 974.339 257.253 1001.51C252.84 1007.41 250.508 1203.09 250.508 1210.45C250.508 1239.31 273.901 1446.24 302.757 1446.24L662.883 1446.24L662.883 10.3836L302.756 10.3835C273.901 10.3845 250.508 217.31 250.508 246.167Z" fill="#393939"/>
<path opacity="0.4466" d="M251.349 249.42C251.349 256.948 253.735 449.529 258.247 455.554C262.758 482.497 282.751 505.207 310.046 513.235C374.577 532.216 474.583 584.827 474.583 728.318C474.583 871.761 374.559 924.389 310.025 943.385C282.738 951.417 262.754 974.125 258.245 1001.06C253.734 1007.09 251.35 1199.68 251.35 1207.2C251.35 1235.56 274.339 1446.17 302.697 1446.17L663.574 1446.17L663.574 10.46L302.696 10.46C274.338 10.459 251.349 221.062 251.349 249.42Z" fill="#383838"/>
<path opacity="0.4563" d="M252.194 252.673C252.194 260.365 254.63 449.849 259.242 456.005C263.852 482.713 283.738 505.193 310.837 513.164C375.334 532.135 475.427 584.752 475.427 728.318C475.427 871.838 375.316 924.472 310.816 943.457C283.724 951.431 263.847 973.91 259.239 1000.61C254.629 1006.77 252.194 1196.26 252.194 1203.95C252.194 1231.81 274.78 1446.09 302.64 1446.09L664.268 1446.09L664.268 10.5347L302.64 10.5347C274.78 10.5347 252.194 224.812 252.194 252.673Z" fill="#373737"/>
<path opacity="0.466" d="M253.036 255.925C253.036 263.78 255.525 450.167 260.234 456.455C264.942 482.927 284.72 505.178 311.626 513.091C376.088 532.052 476.27 584.675 476.27 728.318C476.27 871.914 376.071 924.554 311.605 943.53C284.708 951.447 264.938 973.696 260.232 1000.16C255.525 1006.45 253.038 1192.84 253.038 1200.7C253.038 1228.06 275.22 1446.02 302.583 1446.02L664.961 1446.02L664.961 10.6106L302.583 10.6106C275.218 10.6096 253.036 228.563 253.036 255.925Z" fill="#363636"/>
<path opacity="0.4757" d="M253.877 259.178C253.877 267.197 256.419 450.487 261.225 456.906C266.032 483.141 285.704 505.163 312.413 513.019C376.842 531.97 477.111 584.599 477.111 728.318C477.111 871.989 376.824 924.636 312.391 943.601C285.69 951.461 266.026 973.482 261.222 999.712C256.416 1006.13 253.877 1189.43 253.877 1197.44C253.877 1224.31 275.656 1445.94 302.522 1445.94L665.65 1445.94L665.65 10.6843L302.522 10.6843C275.655 10.6853 253.877 232.313 253.877 259.178Z" fill="#353535"/>
<path opacity="0.4854" d="M254.722 262.431C254.722 270.614 257.315 450.807 262.22 457.356C267.124 483.355 286.689 505.148 313.204 512.947C377.598 531.888 477.956 584.524 477.956 728.318C477.956 872.065 377.58 924.718 313.182 943.674C286.675 951.476 267.119 973.268 262.217 999.262C257.314 1005.81 254.723 1186.01 254.723 1194.19C254.723 1220.56 276.099 1445.87 302.466 1445.87L666.346 1445.87L666.346 10.76L302.466 10.7599C276.098 10.7599 254.722 236.063 254.722 262.431Z" fill="#343434"/>
<path opacity="0.4951" d="M255.565 265.684C255.565 274.031 258.209 451.126 263.212 457.806C268.215 483.57 287.672 505.134 313.992 512.875C378.353 531.805 478.798 584.447 478.798 728.318C478.798 872.142 378.336 924.8 313.971 943.746C287.659 951.491 268.21 973.053 263.209 998.811C258.208 1005.49 255.565 1182.59 255.565 1190.94C255.565 1216.81 276.537 1445.79 302.408 1445.79L667.037 1445.79L667.037 10.8344L302.408 10.8344C276.536 10.8354 255.565 239.814 255.565 265.684Z" fill="#333333"/>
<path opacity="0.5049" d="M256.407 268.938C256.407 277.447 259.104 451.446 264.205 458.258C269.306 483.785 288.657 505.12 314.782 512.803C379.109 531.724 479.642 584.372 479.642 728.318C479.642 872.217 379.092 924.882 314.761 943.817C288.644 951.505 269.301 972.839 264.203 998.361C259.104 1005.17 256.408 1179.18 256.408 1187.68C256.408 1213.06 276.978 1445.72 302.351 1445.72L667.73 1445.72L667.731 10.9104L302.351 10.9104C276.976 10.9113 256.407 243.564 256.407 268.938Z" fill="#333333"/>
<path opacity="0.5146" d="M257.249 272.19C257.249 280.864 259.998 451.764 265.196 458.707C270.395 483.998 289.639 505.103 315.569 512.73C379.862 531.641 480.483 584.295 480.483 728.317C480.483 872.292 379.845 924.964 315.547 943.889C289.625 951.519 270.389 972.624 265.193 997.91C259.997 1004.85 257.249 1175.76 257.249 1184.43C257.249 1209.31 277.415 1445.64 302.29 1445.64L668.42 1445.64L668.42 10.985L302.29 10.985C277.415 10.986 257.249 247.315 257.249 272.19Z" fill="#323232"/>
<path opacity="0.5243" d="M258.093 275.443C258.093 284.28 260.893 452.084 266.19 459.158C271.487 484.213 290.624 505.089 316.359 512.659C380.618 531.56 481.327 584.22 481.327 728.318C481.327 872.37 380.601 925.046 316.337 943.962C290.609 951.534 271.481 972.41 266.186 997.46C260.891 1004.53 258.092 1172.34 258.092 1181.18C258.092 1205.55 277.855 1445.57 302.233 1445.57L669.113 1445.57L669.113 11.0597L302.233 11.0597C277.855 11.0607 258.093 251.065 258.093 275.443Z" fill="#313131"/>
<path opacity="0.534" d="M258.936 278.696C258.936 287.697 261.788 452.404 267.184 459.608C272.579 484.427 291.608 505.074 317.148 512.586C381.373 531.478 482.169 584.143 482.169 728.318C482.169 872.446 381.356 925.128 317.126 944.034C291.594 951.549 272.573 972.196 267.18 997.011C261.787 1004.22 258.936 1168.93 258.936 1177.92C258.936 1201.8 278.294 1445.49 302.175 1445.49L669.807 1445.49L669.807 11.1372L302.175 11.1372C278.295 11.1362 258.936 254.816 258.936 278.696Z" fill="#303030"/>
<path opacity="0.5437" d="M259.779 281.949C259.779 291.114 262.682 452.723 268.176 460.059C273.668 484.642 292.592 505.06 317.936 512.515C382.127 531.395 483.012 584.068 483.012 728.318C483.012 872.521 382.11 925.211 317.915 944.106C292.578 951.564 273.663 971.98 268.173 996.56C262.681 1003.89 259.778 1165.51 259.778 1174.67C259.778 1198.05 278.734 1445.42 302.117 1445.42L670.498 1445.42L670.498 11.2111L302.117 11.2111C278.735 11.2121 259.779 258.566 259.779 281.949Z" fill="#2F2F2F"/>
<path opacity="0.5534" d="M260.62 285.202C260.62 294.531 263.576 453.043 269.168 460.509C274.759 484.856 293.574 505.045 318.724 512.443C382.881 531.313 483.854 583.992 483.854 728.319C483.854 872.598 382.864 925.293 318.703 944.18C293.561 951.58 274.753 971.768 269.165 996.111C263.576 1003.58 260.621 1162.09 260.621 1171.42C260.621 1194.3 279.173 1445.34 302.06 1445.34L671.191 1445.34L671.191 11.2877L302.06 11.2877C279.172 11.2867 260.62 262.316 260.62 285.202Z" fill="#2E2E2E"/>
<path opacity="0.5631" d="M261.465 288.454C261.465 297.946 264.472 453.36 270.162 460.959C275.851 485.07 294.56 505.03 319.514 512.37C383.638 531.231 484.699 583.915 484.699 728.318C484.699 872.672 383.621 925.375 319.493 944.25C294.546 951.594 275.845 971.552 270.158 995.659C264.47 1003.26 261.464 1158.68 261.464 1168.17C261.464 1190.55 279.612 1445.27 302.001 1445.27L671.885 1445.27L671.885 11.3622L302.003 11.3622C279.615 11.3622 261.465 266.067 261.465 288.454Z" fill="#2D2D2D"/>
<path opacity="0.5728" d="M262.306 291.707C262.306 301.363 265.365 453.68 271.153 461.409C276.94 485.285 295.542 505.015 320.302 512.297C384.391 531.148 485.539 583.839 485.539 728.318C485.539 872.749 384.374 925.457 320.28 944.323C295.527 951.609 276.933 971.338 271.149 995.209C265.364 1002.94 262.306 1155.26 262.306 1164.91C262.306 1186.8 280.051 1445.19 301.942 1445.19L672.574 1445.19L672.574 11.4368L301.942 11.4368C280.051 11.4368 262.306 269.817 262.306 291.707Z" fill="#2C2C2C"/>
<path opacity="0.5825" d="M263.149 294.961C263.149 304.78 266.26 454 272.147 461.86C278.032 485.5 296.527 505.001 321.092 512.226C385.148 531.066 486.384 583.764 486.384 728.318C486.384 872.825 385.132 925.539 321.071 944.395C296.513 951.623 278.027 971.123 272.144 994.758C266.26 1002.62 263.15 1151.84 263.15 1161.66C263.15 1183.05 280.493 1445.11 301.886 1445.11L673.268 1445.11L673.268 11.5128L301.884 11.5128C280.491 11.5128 263.149 273.568 263.149 294.961Z" fill="#2B2B2B"/>
<path opacity="0.5922" d="M263.992 298.214C263.992 308.196 267.156 454.32 273.139 462.311C279.123 485.714 297.51 504.986 321.88 512.153C385.902 530.984 487.226 583.687 487.226 728.317C487.226 872.9 385.886 925.62 321.859 944.467C297.496 951.638 279.117 970.908 273.136 994.307C267.155 1002.3 263.993 1148.42 263.993 1158.41C263.993 1179.3 280.932 1445.04 301.828 1445.04L673.961 1445.04L673.961 11.5874L301.828 11.5874C280.931 11.5874 263.992 277.318 263.992 298.214Z" fill="#2A2A2A"/>
<path opacity="0.6019" d="M264.835 301.467C264.835 311.614 268.049 454.639 274.132 462.761C280.213 485.929 298.494 504.972 322.668 512.082C386.657 530.903 488.069 583.612 488.069 728.319C488.069 872.978 386.641 925.705 322.648 944.54C298.481 951.654 280.207 970.696 274.128 993.859C268.048 1001.98 264.835 1145.01 264.835 1155.15C264.835 1175.55 281.37 1444.97 301.768 1444.97L674.652 1444.97L674.652 11.6639L301.769 11.6639C281.37 11.6629 264.835 281.069 264.835 301.467Z" fill="#292929"/>
<path opacity="0.6116" d="M265.677 304.719C265.677 315.029 268.944 454.958 275.123 463.211C281.303 486.142 299.477 504.956 323.456 512.009C387.41 530.819 488.909 583.535 488.909 728.317C488.909 873.052 387.393 925.784 323.433 944.611C299.462 951.667 281.295 970.48 275.118 993.407C268.941 1001.66 265.675 1141.59 265.675 1151.9C265.675 1171.8 281.807 1444.89 301.708 1444.89L675.342 1444.89L675.342 11.7377L301.708 11.7376C281.81 11.7376 265.677 284.819 265.677 304.719Z" fill="#282828"/>
<path opacity="0.6214" d="M266.521 307.972C266.521 318.446 269.84 455.277 276.118 463.662C282.396 486.357 300.463 504.941 324.247 511.937C388.168 530.738 489.756 583.459 489.756 728.318C489.756 873.129 388.152 925.868 324.226 944.684C300.449 951.683 282.39 970.266 276.115 992.957C269.839 1001.34 266.522 1138.18 266.522 1148.65C266.522 1168.05 282.251 1444.81 301.655 1444.81L676.039 1444.81L676.039 11.8135L301.655 11.8135C282.25 11.8135 266.521 288.569 266.521 307.972Z" fill="#272727"/>
<path opacity="0.6311" d="M267.363 311.225C267.363 321.863 270.734 455.597 277.11 464.112C283.485 486.571 301.445 504.926 325.034 511.864C388.921 530.655 490.597 583.382 490.597 728.317C490.597 873.203 388.905 925.949 325.014 944.755C301.431 951.697 283.48 970.051 277.107 992.507C270.733 1001.02 267.364 1134.76 267.364 1145.39C267.364 1164.3 282.69 1444.74 301.595 1444.74L676.73 1444.74L676.731 11.8881L301.595 11.8881C282.689 11.8891 267.363 292.32 267.363 311.225Z" fill="#262626"/>
<path opacity="0.6408" d="M268.208 314.478C268.208 325.279 271.63 455.917 278.105 464.563C284.578 486.786 302.431 504.912 325.825 511.793C389.678 530.574 491.441 583.308 491.441 728.319C491.441 873.282 389.662 926.033 325.804 944.829C302.417 951.713 284.572 969.838 278.101 992.058C271.628 1000.7 268.208 1131.34 268.208 1142.14C268.208 1160.55 283.13 1444.66 301.539 1444.66L677.424 1444.66L677.424 11.9646L301.539 11.9646C283.13 11.9636 268.208 296.07 268.208 314.478Z" fill="#252525"/>
<path opacity="0.6505" d="M269.049 317.732C269.049 328.696 272.523 456.236 279.096 465.013C285.668 487 303.413 504.897 326.612 511.721C390.431 530.492 492.282 583.232 492.282 728.318C492.282 873.357 390.415 926.114 326.591 944.9C303.399 951.727 285.661 969.622 279.092 991.606C272.522 1000.38 269.05 1127.92 269.05 1138.89C269.05 1156.8 283.569 1444.59 301.479 1444.59L678.115 1444.59L678.115 12.0374L301.479 12.0374C283.568 12.0384 269.049 299.821 269.049 317.732Z" fill="#242424"/>
<path opacity="0.6602" d="M269.891 320.984C269.891 332.112 275.046 455.541 280.088 465.463C290.395 485.745 304.396 504.882 327.4 511.648C391.186 530.409 493.124 583.155 493.124 728.318C493.124 873.432 391.169 926.196 327.378 944.973C304.38 951.742 290.385 970.877 280.083 991.156C275.043 1001.08 269.89 1124.51 269.89 1135.63C269.89 1153.05 284.006 1444.51 301.419 1444.51L678.805 1444.51L678.805 12.1142L301.419 12.1142C284.007 12.1142 269.891 303.571 269.891 320.984Z" fill="#232323"/>
<path opacity="0.6699" d="M270.734 324.237C270.734 335.529 275.929 455.865 281.081 465.913C291.371 485.984 305.381 504.867 328.19 511.575C391.942 530.328 493.968 583.079 493.968 728.317C493.968 873.507 391.925 926.277 328.168 945.043C305.366 951.755 291.363 970.637 281.076 990.705C275.926 1000.75 270.733 1121.09 270.733 1132.38C270.733 1149.3 284.446 1444.44 301.362 1444.44L679.498 1444.44L679.498 12.1879L301.362 12.1879C284.447 12.1899 270.734 307.322 270.734 324.237Z" fill="#222222"/>
<path opacity="0.6796" d="M271.579 327.49C271.579 338.946 276.811 456.189 282.076 466.364C292.35 486.222 306.367 504.852 328.981 511.505C392.699 530.246 494.813 583.004 494.813 728.319C494.813 873.586 392.683 926.361 328.96 945.118C306.353 951.773 292.342 970.4 282.072 990.256C276.81 1000.43 271.58 1117.68 271.58 1129.13C271.58 1145.55 284.889 1444.36 301.307 1444.36L680.193 1444.36L680.193 12.2653L301.307 12.2653C284.888 12.2643 271.579 311.072 271.579 327.49Z" fill="#212121"/>
<path opacity="0.6893" d="M272.422 330.743C272.422 342.363 277.69 456.514 283.068 466.815C293.328 486.464 307.35 504.838 329.769 511.433C393.453 530.164 495.655 582.928 495.655 728.319C495.655 873.661 393.437 926.443 329.748 945.19C307.336 951.786 293.32 970.16 283.064 989.805C277.688 1000.1 272.422 1114.26 272.422 1125.88C272.422 1141.8 285.328 1444.29 301.248 1444.29L680.885 1444.29L680.885 12.341L301.248 12.341C285.328 12.34 272.422 314.822 272.422 330.743Z" fill="#202020"/>
<path opacity="0.699" d="M273.263 333.996C273.263 345.779 278.567 456.841 284.06 467.265C294.305 486.704 308.333 504.823 330.557 511.361C394.207 530.082 496.497 582.852 496.497 728.319C496.497 873.737 394.191 926.525 330.536 945.262C308.318 951.802 294.296 969.919 284.056 989.356C278.565 999.78 273.264 1110.84 273.264 1122.62C273.264 1138.05 285.767 1444.21 301.19 1444.21L681.578 1444.21L681.578 12.4159L301.19 12.4159C285.766 12.4149 273.263 318.573 273.263 333.996Z" fill="#1F1F1F"/>
<path opacity="0.7087" d="M274.106 337.249C274.106 349.196 279.442 457.167 285.053 467.715C295.282 486.945 309.316 504.807 331.345 511.287C394.961 529.998 497.339 582.774 497.339 728.317C497.339 873.812 394.944 926.606 331.323 945.332C309.3 951.814 295.272 969.675 285.046 988.903C279.438 999.449 274.104 1107.42 274.104 1119.37C274.104 1134.29 286.203 1444.14 301.129 1444.14L682.27 1444.14L682.27 12.4896L301.132 12.4896C286.206 12.4905 274.106 322.323 274.106 337.249Z" fill="#1E1E1E"/>
<path opacity="0.7184" d="M274.951 340.501C274.951 352.612 280.318 457.496 286.047 468.165C296.263 487.187 310.302 504.793 332.137 511.215C395.718 529.916 498.184 582.699 498.184 728.318C498.184 873.888 395.702 926.688 332.115 945.405C310.287 951.831 296.254 969.434 286.042 988.454C280.315 999.123 274.951 1104.01 274.951 1116.12C274.951 1130.55 286.647 1444.06 301.074 1444.06L682.963 1444.06L682.963 12.5661L301.075 12.5661C286.647 12.5651 274.951 326.074 274.951 340.501Z" fill="#1D1D1D"/>
<path opacity="0.7282" d="M275.791 343.755C275.791 356.028 281.187 457.826 287.037 468.617C297.238 487.431 311.282 504.779 332.922 511.143C396.469 529.835 499.024 582.623 499.024 728.318C499.024 873.964 396.454 926.771 332.901 945.477C311.268 951.845 297.23 969.19 287.033 988.004C281.185 998.793 275.791 1100.59 275.791 1112.86C275.791 1126.79 287.084 1443.99 301.014 1443.99L683.652 1443.99L683.652 12.6408L301.014 12.6408C287.084 12.6408 275.791 329.824 275.791 343.755Z" fill="#1C1C1C"/>
<path opacity="0.7379" d="M276.635 347.008C276.635 359.446 282.059 458.157 288.032 469.067C298.22 487.675 312.268 504.764 333.713 511.072C397.226 529.753 499.869 582.548 499.869 728.318C499.869 874.04 397.211 926.853 333.692 945.549C312.254 951.859 298.211 968.946 288.028 987.553C282.057 998.462 276.636 1097.17 276.636 1109.61C276.636 1123.04 287.526 1443.91 300.959 1443.91L684.348 1443.91L684.348 12.7157L300.959 12.7156C287.524 12.7156 276.635 333.575 276.635 347.008Z" fill="#1B1B1B"/>
<path opacity="0.7476" d="M277.478 350.26C277.478 362.861 282.927 458.488 289.025 469.517C299.2 487.921 313.253 504.749 334.502 510.999C397.981 529.67 500.712 582.471 500.712 728.318C500.712 874.115 397.967 926.935 334.481 945.622C313.238 951.875 299.191 968.701 289.02 987.103C282.925 998.13 277.478 1093.76 277.478 1106.36C277.478 1119.29 287.964 1443.84 300.899 1443.84L685.039 1443.84L685.039 12.7913L300.899 12.7912C287.964 12.7912 277.478 337.325 277.478 350.26Z" fill="#1A1A1A"/>
<path opacity="0.7573" d="M278.321 353.513C278.321 366.278 283.794 458.821 290.017 469.967C300.181 488.167 314.236 504.734 335.29 510.926C398.736 529.588 501.554 582.395 501.554 728.317C501.553 874.191 398.721 927.016 335.268 945.692C314.22 951.888 300.171 968.453 290.011 986.652C283.79 997.795 278.32 1090.34 278.32 1103.1C278.32 1115.54 288.403 1443.76 300.841 1443.76L685.73 1443.76L685.731 12.8648L300.841 12.8648C288.404 12.8658 278.321 341.075 278.321 353.513Z" fill="#191919"/>
<path opacity="0.767" d="M279.164 356.766C279.164 369.695 284.658 459.156 291.01 470.417C301.162 488.414 315.22 504.719 336.079 510.854C399.491 529.505 502.397 582.318 502.397 728.317C502.397 874.267 399.476 927.098 336.058 945.765C315.205 951.904 301.153 968.207 291.005 986.202C284.655 997.462 279.164 1086.92 279.164 1099.85C279.164 1111.79 288.843 1443.69 300.783 1443.69L686.424 1443.69L686.424 12.9415L300.783 12.9415C288.843 12.9415 279.164 344.826 279.164 356.766Z" fill="#181818"/>
<path opacity="0.7767" d="M280.006 360.019C280.006 373.112 285.52 459.493 292.002 470.868C302.143 488.663 316.203 504.704 336.868 510.782C400.246 529.423 503.24 582.242 503.24 728.317C503.24 874.342 400.231 927.18 336.847 945.838C316.189 951.919 302.135 967.958 291.997 985.752C285.518 997.125 280.006 1083.51 280.006 1096.6C280.006 1108.04 289.283 1443.61 300.725 1443.61L687.115 1443.61L687.115 13.0164L300.725 13.0164C289.283 13.0174 280.006 348.576 280.006 360.019Z" fill="#171717"/>
<path opacity="0.7864" d="M280.849 363.272C280.849 376.528 286.38 459.831 292.995 471.319C303.126 488.913 317.187 504.69 337.657 510.711C401.001 529.343 504.083 582.168 504.083 728.319C504.083 874.421 400.986 927.264 337.636 945.911C317.172 951.935 303.117 967.712 292.99 985.304C286.378 996.79 280.849 1080.09 280.849 1093.35C280.849 1104.29 289.722 1443.54 300.668 1443.54L687.809 1443.54L687.809 13.0939L300.668 13.0939C289.721 13.0919 280.849 352.327 280.849 363.272Z" fill="#161616"/>
<path opacity="0.7961" d="M281.692 366.525C281.692 379.944 287.239 460.168 293.988 471.768C304.109 489.162 318.171 504.674 338.446 510.637C401.756 529.259 504.925 582.091 504.925 728.317C504.925 874.495 401.741 927.345 338.424 945.981C318.155 951.948 304.099 967.459 293.982 984.85C287.236 996.448 281.691 1076.67 281.691 1090.09C281.691 1100.54 290.161 1443.46 300.608 1443.46L688.5 1443.46L688.5 13.1656L300.608 13.1655C290.162 13.1665 281.692 356.077 281.692 366.525Z" fill="#151515"/>
<path opacity="0.8058" d="M282.534 369.778C282.534 383.361 288.094 460.51 294.98 472.219C305.091 489.414 319.154 504.66 339.233 510.566C402.509 529.178 505.767 582.015 505.767 728.318C505.767 874.571 402.495 927.427 339.212 946.055C319.139 951.964 305.081 967.209 294.975 984.401C288.092 996.11 282.534 1073.26 282.534 1086.84C282.534 1096.79 290.6 1443.39 300.55 1443.39L689.191 1443.39L689.191 13.2422L300.55 13.2422C290.6 13.2422 282.534 359.828 282.534 369.778Z" fill="#141414"/>
<path opacity="0.8155" d="M283.379 373.031C283.379 386.777 288.951 460.852 295.975 472.669C306.078 489.666 320.141 504.645 340.025 510.493C403.267 529.095 506.613 581.939 506.613 728.317C506.613 874.646 403.253 927.509 340.004 946.126C320.126 951.977 306.069 966.954 295.969 983.949C288.948 995.765 283.378 1069.84 283.378 1083.58C283.378 1093.04 291.041 1443.31 300.494 1443.31L689.887 1443.31L689.887 13.3159L300.494 13.3159C291.042 13.3179 283.379 363.578 283.379 373.031Z" fill="#131313"/>
<path opacity="0.8252" d="M284.219 376.284C284.219 390.194 289.8 461.196 296.965 473.12C307.06 489.921 321.121 504.631 340.811 510.422C404.019 529.014 507.453 581.864 507.453 728.319C507.453 874.725 404.005 927.593 340.79 946.2C321.106 951.995 307.051 966.703 296.96 983.501C289.797 995.423 284.219 1066.43 284.219 1080.33C284.219 1089.29 291.479 1443.23 300.434 1443.23L690.576 1443.23L690.576 13.3927L300.434 13.3927C291.479 13.3927 284.219 367.329 284.219 376.284Z" fill="#121212"/>
<path opacity="0.835" d="M285.065 379.537C285.065 393.611 290.653 461.542 297.961 473.57C308.049 490.176 322.108 504.615 341.603 510.35C404.777 528.931 508.298 581.787 508.298 728.318C508.298 874.799 404.763 927.674 341.582 946.271C322.093 952.007 308.04 966.447 297.956 983.05C290.651 995.077 285.065 1063.01 285.065 1077.08C285.065 1085.54 291.921 1443.16 300.378 1443.16L691.271 1443.16L691.272 13.4682L300.378 13.4682C291.92 13.4682 285.065 371.079 285.065 379.537Z" fill="#111111"/>
<path opacity="0.8447" d="M285.906 382.789C285.906 397.027 291.5 461.888 298.953 474.021C309.035 490.432 323.091 504.6 342.391 510.277C405.532 528.849 509.14 581.711 509.14 728.317C509.14 874.874 405.517 927.755 342.37 946.343C323.076 952.022 309.025 966.19 298.948 982.599C291.498 994.729 285.907 1059.59 285.907 1073.83C285.907 1081.79 292.36 1443.08 300.321 1443.08L691.965 1443.08L691.965 13.5429L300.321 13.5429C292.36 13.5429 285.906 374.829 285.906 382.789Z" fill="#101010"/>
<path opacity="0.8544" d="M286.75 386.043C286.75 400.444 292.345 462.238 299.946 474.471C310.022 490.689 324.075 504.585 343.18 510.204C406.287 528.766 509.984 581.634 509.984 728.317C509.984 874.951 406.273 927.838 343.159 946.414C324.06 952.036 310.012 965.932 299.94 982.148C292.342 994.38 286.749 1056.17 286.749 1070.57C286.749 1078.03 292.798 1443.01 300.262 1443.01L692.656 1443.01L692.656 13.6166L300.263 13.6166C292.799 13.6186 286.75 378.58 286.75 386.043Z" fill="#0F0F0F"/>
<path opacity="0.8641" d="M287.592 389.296C287.592 403.86 293.188 462.589 300.938 474.922C311.009 490.947 325.058 504.571 343.968 510.134C407.041 528.686 510.826 581.559 510.826 728.319C510.826 875.028 407.027 927.921 343.947 946.489C325.043 952.053 310.999 965.676 300.932 981.701C293.185 994.032 287.592 1052.76 287.592 1067.32C287.592 1074.29 293.239 1442.94 300.203 1442.94L693.348 1442.94L693.348 13.6963L300.203 13.6963C293.238 13.6933 287.592 382.33 287.592 389.296Z" fill="#0E0E0E"/>
<path opacity="0.8738" d="M288.436 392.549C288.436 407.278 294.029 462.942 301.931 475.373C311.998 491.208 326.042 504.557 344.757 510.062C407.796 528.604 511.668 581.484 511.668 728.319C511.668 875.104 407.781 928.004 344.736 946.561C326.026 952.068 311.988 965.416 301.925 981.25C294.026 993.679 288.435 1049.34 288.435 1064.07C288.435 1070.54 293.678 1442.86 300.146 1442.86L694.041 1442.86L694.041 13.7699L300.147 13.7699C293.679 13.7689 288.436 386.081 288.436 392.549Z" fill="#0D0D0D"/>
<path opacity="0.8835" d="M289.276 395.802C289.276 410.695 294.865 463.297 302.922 475.823C312.986 491.469 327.025 504.542 345.545 509.989C408.55 528.521 512.51 581.408 512.51 728.318C512.51 875.179 408.535 928.085 345.524 946.631C327.01 952.081 312.977 965.154 302.917 980.798C294.863 993.322 289.277 1045.93 289.277 1060.81C289.277 1066.78 294.117 1442.78 300.087 1442.78L694.732 1442.78L694.732 13.8427L300.087 13.8427C294.116 13.8437 289.276 389.831 289.276 395.802Z" fill="#0C0C0C"/>
<path opacity="0.8932" d="M290.121 399.054C290.121 414.11 295.703 463.654 303.917 476.272C313.979 491.73 328.011 504.526 346.336 509.916C409.307 528.438 513.355 581.33 513.355 728.317C513.355 875.254 409.292 928.165 346.315 946.703C327.996 952.095 313.97 964.891 303.911 980.348C295.701 992.965 290.121 1042.51 290.121 1057.56C290.121 1063.03 294.557 1442.71 300.03 1442.71L695.426 1442.71L695.426 13.9195L300.03 13.9195C294.557 13.9195 290.121 393.582 290.121 399.054Z" fill="#0B0B0B"/>
<path opacity="0.9029" d="M290.963 402.307C290.963 417.526 296.536 464.012 304.909 476.723C314.969 491.995 328.993 504.512 347.123 509.844C410.06 528.356 514.197 581.255 514.197 728.317C514.197 875.33 410.046 928.248 347.102 946.775C328.978 952.11 314.959 964.626 304.903 979.897C296.533 992.606 290.963 1039.09 290.963 1054.31C290.963 1059.28 294.996 1442.63 299.972 1442.63L696.117 1442.63L696.117 13.9932L299.972 13.9932C294.996 13.9941 290.963 397.332 290.963 402.307Z" fill="#0A0A0A"/>
<path opacity="0.9126" d="M291.805 405.56C291.805 420.944 297.366 464.374 305.901 477.173C315.961 492.26 329.976 504.497 347.911 509.772C410.814 528.274 515.038 581.179 515.038 728.318C515.038 875.407 410.801 928.33 347.89 946.849C329.961 952.126 315.95 964.362 305.895 979.447C297.364 992.246 291.805 1035.68 291.805 1051.06C291.805 1055.53 295.434 1442.56 299.912 1442.56L696.809 1442.56L696.809 14.0697L299.912 14.0696C295.434 14.0696 291.805 401.082 291.805 405.56Z" fill="#090909"/>
<path opacity="0.9223" d="M292.647 408.813C292.647 424.36 298.195 464.738 306.893 477.624C316.953 492.528 330.959 504.483 348.699 509.7C411.569 528.193 515.88 581.103 515.88 728.318C515.88 875.483 411.555 928.413 348.678 946.92C330.943 952.141 316.943 964.095 306.887 978.997C298.192 991.883 292.647 1032.26 292.647 1047.8C292.647 1051.78 295.874 1442.48 299.854 1442.48L697.5 1442.48L697.5 14.1454L299.854 14.1453C295.875 14.1443 292.647 404.833 292.647 408.813Z" fill="#080808"/>
<path opacity="0.932" d="M293.49 412.067C293.49 427.778 299.021 465.103 307.886 478.074C317.948 492.795 331.943 504.468 349.488 509.628C412.325 528.11 516.724 581.026 516.724 728.318C516.724 875.559 412.31 928.495 349.468 946.993C331.928 952.156 317.938 963.827 307.88 978.547C299.018 991.517 293.49 1028.84 293.49 1044.55C293.49 1048.03 296.313 1442.41 299.796 1442.41L698.193 1442.41L698.193 14.2202L299.796 14.2202C296.313 14.2202 293.49 408.584 293.49 412.067Z" fill="#070707"/>
<path opacity="0.9417" d="M294.334 415.319C294.334 431.193 299.844 465.471 308.879 478.524C318.943 493.065 332.927 504.453 350.277 509.556C413.08 528.028 517.568 580.951 517.568 728.318C517.568 875.635 413.066 928.577 350.257 947.064C332.912 952.17 318.933 963.557 308.873 978.096C299.842 991.149 294.334 1025.43 294.334 1041.3C294.334 1044.28 296.754 1442.33 299.739 1442.33L698.887 1442.33L698.887 14.2949L299.739 14.2948C296.754 14.2958 294.334 412.334 294.334 415.319Z" fill="#060606"/>
<path opacity="0.9515" d="M295.177 418.572C295.177 434.609 300.665 465.841 309.872 478.974C319.94 493.336 333.911 504.438 351.066 509.483C413.835 527.946 518.41 580.875 518.41 728.318C518.41 875.711 413.821 928.659 351.045 947.137C333.897 952.186 319.929 963.286 309.866 977.646C300.663 990.778 295.177 1022.01 295.177 1038.04C295.177 1040.53 297.193 1442.26 299.68 1442.26L699.578 1442.26L699.578 14.3704L299.68 14.3704C297.193 14.3704 295.177 416.084 295.177 418.572Z" fill="#050505"/>
<path opacity="0.9612" d="M296.019 421.825C296.019 438.027 301.484 466.216 310.865 479.426C320.937 493.61 334.896 504.423 351.855 509.412C414.59 527.864 519.253 580.799 519.253 728.318C519.253 875.786 414.576 928.742 351.834 947.209C334.881 952.2 320.927 963.012 310.859 977.196C301.482 990.405 296.019 1018.59 296.019 1034.79C296.019 1036.78 297.633 1442.18 299.623 1442.18L700.271 1442.18L700.272 14.4451L299.623 14.4451C297.633 14.4461 296.019 419.834 296.019 421.825Z" fill="#040404"/>
<path opacity="0.9709" d="M296.861 425.078C296.861 441.443 302.299 466.591 311.856 479.876C321.934 493.884 335.878 504.408 352.642 509.339C415.343 527.782 520.094 580.723 520.094 728.318C520.094 875.863 415.329 928.823 352.621 947.281C335.862 952.214 321.923 962.738 311.849 976.745C302.295 990.028 296.86 1015.18 296.86 1031.54C296.86 1033.03 298.07 1442.11 299.563 1442.11L700.961 1442.11L700.961 14.52L299.563 14.52C298.071 14.521 296.861 423.585 296.861 425.078Z" fill="#030303"/>
<path opacity="0.9806" d="M297.706 428.331C297.706 444.86 303.114 466.97 312.851 480.327C322.936 494.161 336.864 504.394 353.434 509.267C416.1 527.7 520.94 580.647 520.94 728.318C520.94 875.939 416.087 928.905 353.413 947.353C336.849 952.229 322.926 962.463 312.845 976.295C303.112 989.651 297.706 1011.76 297.706 1028.28C297.706 1029.28 298.512 1442.03 299.507 1442.03L701.656 1442.03L701.656 14.5956L299.507 14.5956C298.513 14.5966 297.706 427.336 297.706 428.331Z" fill="#020202"/>
<path opacity="0.9903" d="M298.548 431.583C298.548 448.276 303.924 467.35 313.843 480.777C323.936 494.437 337.847 504.379 354.222 509.196C416.854 527.618 521.782 580.571 521.782 728.319C521.782 876.015 416.841 928.988 354.201 947.426C337.832 952.244 323.926 962.185 313.837 975.846C303.922 989.271 298.549 1008.34 298.549 1025.03C298.549 1025.53 298.952 1441.96 299.45 1441.96L702.35 1441.96L702.35 14.6731L299.45 14.673C298.951 14.671 298.548 431.086 298.548 431.583Z" fill="#010101"/>
<path d="M299.391 434.837C299.391 451.693 304.733 467.734 314.837 481.227C324.939 494.717 338.831 504.364 355.011 509.123C417.61 527.536 522.625 580.495 522.625 728.318C522.625 876.09 417.597 929.069 354.99 947.498C338.815 952.258 324.928 961.905 314.831 975.395C304.73 988.886 299.391 1004.92 299.391 1021.78L299.391 1441.88L703.041 1441.88L703.041 14.7468L299.391 14.7468L299.391 434.837Z" fill="black"/>
</g>
<path d="M711.866 0.851807L290.936 0.851788L290.936 430.512C290.936 468.473 315.959 501.866 352.378 512.579C418.749 532.101 515.122 584.654 515.122 725.244C515.122 865.791 418.728 918.358 352.356 937.895C315.948 948.612 290.937 982.002 290.937 1019.95L290.937 1449.63L711.867 1449.63L711.866 0.851807Z" fill="white"/>
<g clip-path="url(#clip0_43_327)">
<path d="M207.193 704.8C184.364 704.8 165.793 686.229 165.793 663.4C165.793 640.571 184.364 622 207.193 622C223.771 622 238.064 631.816 244.67 645.923L255.756 641.831C255.624 640.982 255.493 640.133 255.493 639.25C255.493 629.739 263.232 622 272.743 622C282.254 622 289.993 629.739 289.993 639.25C289.993 648.761 282.254 656.5 272.743 656.5C266.564 656.5 261.175 653.205 258.129 648.31L247.062 652.395C248.034 655.907 248.593 659.584 248.593 663.4C248.593 667.92 247.842 672.259 246.496 676.334L284.439 692.415C291.386 679.28 305.176 670.3 321.043 670.3C326.184 670.3 331.09 671.287 335.636 673.005L345.179 652.951C341.022 649.797 338.293 644.856 338.293 639.25C338.293 629.739 346.032 622 355.543 622C365.054 622 372.793 629.739 372.793 639.25C372.793 648.761 365.054 656.5 355.543 656.5C354.108 656.5 352.731 656.273 351.396 655.937L341.864 675.972C354.15 683.162 362.443 696.465 362.443 711.7C362.443 726.01 355.142 738.641 344.074 746.079L350.385 757.423C352.027 756.905 353.735 756.55 355.543 756.55C365.054 756.55 372.793 764.289 372.793 773.8C372.793 783.311 365.054 791.05 355.543 791.05C346.032 791.05 338.293 783.311 338.293 773.8C338.293 768.576 340.677 763.944 344.354 760.78L338.03 749.412C332.842 751.761 327.101 753.1 321.043 753.1C311.576 753.1 302.868 749.871 295.886 744.502L282.306 759.441C289.193 766.838 293.443 776.719 293.443 787.6C293.443 789.711 293.232 791.768 292.929 793.792L308.906 797.584C311.655 791.705 317.586 787.6 324.493 787.6C334.004 787.6 341.743 795.339 341.743 804.85C341.743 814.361 334.004 822.1 324.493 822.1C314.982 822.1 307.243 814.361 307.243 804.85C307.243 804.66 307.295 804.481 307.299 804.291L291.352 800.511C285.915 817.031 270.363 829 252.043 829C229.214 829 210.643 810.429 210.643 787.6C210.643 780.521 212.434 773.856 215.58 768.025L195.315 754.849C192.182 758.022 187.842 760 183.043 760C173.532 760 165.793 752.261 165.793 742.75C165.793 733.239 173.532 725.5 183.043 725.5C192.554 725.5 200.293 733.239 200.293 742.75C200.293 744.979 199.835 747.096 199.062 749.054L219.374 762.259C223.439 757.033 228.717 752.814 234.793 750.012L217.954 703.331C214.517 704.258 210.919 704.8 207.193 704.8ZM272.743 649.6C278.449 649.6 283.093 644.956 283.093 639.25C283.093 633.544 278.449 628.9 272.743 628.9C267.037 628.9 262.393 633.544 262.393 639.25C262.393 644.956 267.037 649.6 272.743 649.6ZM365.893 639.25C365.893 633.544 361.249 628.9 355.543 628.9C349.837 628.9 345.193 633.544 345.193 639.25C345.193 644.956 349.837 649.6 355.543 649.6C361.249 649.6 365.893 644.956 365.893 639.25ZM355.543 784.15C361.249 784.15 365.893 779.506 365.893 773.8C365.893 768.094 361.249 763.45 355.543 763.45C349.837 763.45 345.193 768.094 345.193 773.8C345.193 779.506 349.837 784.15 355.543 784.15ZM324.493 815.2C330.199 815.2 334.843 810.556 334.843 804.85C334.843 799.144 330.199 794.5 324.493 794.5C318.787 794.5 314.143 799.144 314.143 804.85C314.143 810.556 318.787 815.2 324.493 815.2ZM183.043 732.4C177.337 732.4 172.693 737.044 172.693 742.75C172.693 748.456 177.337 753.1 183.043 753.1C188.749 753.1 193.393 748.456 193.393 742.75C193.393 737.044 188.749 732.4 183.043 732.4ZM227.511 691.221C225.971 683.241 218.936 677.2 210.643 677.2H203.743C195.45 677.2 188.415 683.241 186.875 691.221C192.583 695.398 199.592 697.9 207.193 697.9C214.794 697.9 221.803 695.398 227.511 691.221ZM207.193 670.3C212.899 670.3 217.543 665.656 217.543 659.95C217.543 654.244 212.899 649.6 207.193 649.6C201.487 649.6 196.843 654.244 196.843 659.95C196.843 665.656 201.487 670.3 207.193 670.3ZM207.193 628.9C188.169 628.9 172.693 644.376 172.693 663.4C172.693 672.025 175.899 679.905 181.153 685.96C183.57 679.594 188.61 674.513 194.891 672.005C191.836 668.892 189.943 664.642 189.943 659.95C189.943 650.439 197.682 642.7 207.193 642.7C216.704 642.7 224.443 650.439 224.443 659.95C224.443 664.642 222.55 668.892 219.495 672.005C225.775 674.513 230.816 679.594 233.233 685.96C238.487 679.905 241.693 672.025 241.693 663.4C241.693 644.376 226.217 628.9 207.193 628.9ZM355.543 711.7C355.543 692.676 340.067 677.2 321.043 677.2C302.019 677.2 286.543 692.676 286.543 711.7C286.543 720.352 289.769 728.253 295.05 734.315C297.459 727.926 302.509 722.82 308.806 720.305C305.755 717.192 303.862 712.942 303.862 708.25C303.862 698.739 311.601 691 321.112 691C330.623 691 338.362 698.739 338.362 708.25C338.362 712.942 336.469 717.192 333.414 720.305C339.676 722.801 344.709 727.863 347.135 734.204C352.359 728.157 355.543 720.301 355.543 711.7ZM331.462 708.25C331.462 702.544 326.818 697.9 321.112 697.9C315.406 697.9 310.762 702.544 310.762 708.25C310.762 713.956 315.406 718.6 321.112 718.6C326.818 718.6 331.462 713.956 331.462 708.25ZM341.418 739.475C339.863 731.517 332.838 725.5 324.562 725.5H317.662C309.354 725.5 302.305 731.561 300.788 739.566C306.483 743.719 313.471 746.2 321.043 746.2C328.671 746.2 335.702 743.682 341.418 739.475ZM272.418 815.375C270.863 807.417 263.838 801.4 255.562 801.4H248.662C240.354 801.4 233.305 807.461 231.788 815.466C237.483 819.619 244.471 822.1 252.043 822.1C259.671 822.1 266.702 819.582 272.418 815.375ZM252.112 794.5C257.818 794.5 262.462 789.856 262.462 784.15C262.462 778.444 257.818 773.8 252.112 773.8C246.406 773.8 241.762 778.444 241.762 784.15C241.762 789.856 246.406 794.5 252.112 794.5ZM217.543 787.6C217.543 796.252 220.769 804.153 226.05 810.215C228.459 803.826 233.509 798.72 239.806 796.205C236.755 793.092 234.862 788.842 234.862 784.15C234.862 774.639 242.601 766.9 252.112 766.9C261.623 766.9 269.362 774.639 269.362 784.15C269.362 788.842 267.469 793.092 264.414 796.205C270.676 798.701 275.709 803.763 278.135 810.104C283.359 804.057 286.543 796.201 286.543 787.6C286.543 768.576 271.067 753.1 252.043 753.1C233.019 753.1 217.543 768.576 217.543 787.6ZM241.282 747.669C244.718 746.742 248.317 746.2 252.043 746.2C261.51 746.2 270.218 749.429 277.2 754.798L290.78 739.859C283.893 732.462 279.643 722.581 279.643 711.7C279.643 707.18 280.394 702.841 281.74 698.766L243.797 682.685C239.547 690.72 232.726 697.169 224.44 700.988L241.282 747.669Z" fill="white"/>
</g>
<defs>
<clipPath id="clip0_43_327">
<rect width="207" height="207" fill="white" transform="matrix(-1 0 0 1 372.793 622)"/>
</clipPath>
</defs>
</svg>
