<svg width="818" height="401" viewBox="0 0 818 401" fill="none" xmlns="http://www.w3.org/2000/svg">
<path d="M408.573 400.991C452.5 400.991 493.797 383.885 524.858 352.824C555.919 321.763 573.025 280.465 573.025 236.538C573.025 192.611 555.919 151.314 524.858 120.253C493.797 89.192 452.5 72.0862 408.573 72.0862C364.646 72.0862 323.348 89.1925 292.287 120.253C261.226 151.314 244.121 192.611 244.121 236.538C244.121 280.465 261.226 321.763 292.287 352.824C323.348 383.885 364.646 400.991 408.573 400.991Z" fill="#826546"/>
<g opacity="0.26">
<path opacity="0.01" d="M54.3986 281.721C54.4911 281.721 242.52 281.692 242.595 281.636C263.872 281.58 282.577 267.528 288.586 247.097C299.592 209.681 329.236 155.275 408.576 155.275C487.892 155.275 517.545 209.693 528.558 247.109C534.57 267.534 553.274 281.58 574.546 281.636C574.62 281.692 762.657 281.721 762.749 281.721C791.494 281.721 817.105 258.42 817.105 229.675L817.105 44.3907L0.0422536 44.3908L0.0422698 229.675C0.0422723 258.42 25.6541 281.721 54.3986 281.721Z" fill="#656565"/>
<path opacity="0.0194" d="M56.2406 281.243C56.4262 281.243 242.701 281.184 242.849 281.073C263.993 280.962 282.568 266.97 288.545 246.649C299.545 209.253 329.193 154.797 408.576 154.797C487.934 154.797 517.59 209.265 528.598 246.662C534.578 266.976 553.152 280.962 574.291 281.073C574.439 281.184 760.721 281.243 760.906 281.243C789.369 281.243 817.063 258.17 817.063 229.707L817.062 43.9974L0.0843846 43.9975L0.0844008 229.707C0.0844033 258.17 27.7781 281.243 56.2406 281.243Z" fill="#646464"/>
<path opacity="0.0291" d="M58.0832 280.766C58.3613 280.766 242.882 280.678 243.104 280.511C264.114 280.344 282.56 266.412 288.504 246.203C299.498 208.825 329.149 154.319 408.576 154.319C487.977 154.319 517.637 208.837 528.639 246.215C534.586 266.419 553.03 280.344 574.035 280.511C574.258 280.677 758.786 280.766 759.063 280.766C787.244 280.766 817.02 257.921 817.02 229.74L817.02 43.6053L0.126584 43.6054L0.126601 229.74C0.126603 257.921 29.9022 280.766 58.0832 280.766Z" fill="#636363"/>
<path opacity="0.0388" d="M59.9251 280.289C60.2957 280.289 243.062 280.172 243.359 279.949C264.235 279.727 282.551 265.856 288.463 245.757C299.451 208.399 329.106 153.843 408.575 153.843C488.02 153.843 517.683 208.41 528.679 245.77C534.594 265.863 552.908 279.728 573.78 279.95C574.076 280.172 756.85 280.289 757.22 280.289C785.119 280.289 816.977 257.673 816.977 229.774L816.977 43.2142L0.168715 43.2143L0.168732 229.774C0.169298 257.672 32.0267 280.289 59.9251 280.289Z" fill="#626262"/>
<path opacity="0.0485" d="M61.7691 279.812C62.2328 279.812 243.245 279.665 243.615 279.387C264.358 279.109 282.544 265.299 288.423 245.309C299.406 207.97 329.064 153.365 408.577 153.365C488.064 153.365 517.731 207.982 528.722 245.322C534.604 265.305 552.788 279.109 573.526 279.387C573.897 279.665 754.916 279.812 755.379 279.812C782.996 279.812 816.936 257.424 816.936 229.807L816.936 42.822L0.212937 42.8221L0.212954 229.807C0.21352 257.424 34.1521 279.812 61.7691 279.812Z" fill="#616161"/>
<path opacity="0.0583" d="M63.6118 279.334C64.1679 279.334 243.425 279.158 243.871 278.824C264.48 278.491 282.536 264.741 288.383 244.863C299.36 207.543 329.022 152.887 408.577 152.887C488.107 152.887 517.777 207.554 528.762 244.875C534.612 264.748 552.666 278.491 573.271 278.824C573.716 279.158 752.98 279.334 753.536 279.334C780.871 279.334 816.893 257.174 816.893 229.839L816.893 42.4288L0.255137 42.4289L0.255153 229.839C0.25572 257.175 36.2768 279.334 63.6118 279.334Z" fill="#606060"/>
<path opacity="0.068" d="M65.4537 278.856C66.1023 278.856 243.606 278.65 244.125 278.262C264.6 277.873 282.526 264.184 288.341 244.416C299.312 207.115 328.978 152.41 408.576 152.41C488.149 152.41 517.823 207.127 528.803 244.428C534.62 264.19 552.544 277.873 573.015 278.262C573.535 278.65 751.045 278.856 751.693 278.856C778.747 278.856 816.85 256.925 816.85 229.872L816.85 42.0366L0.297268 42.0367L0.297285 229.872C0.297851 256.925 38.4001 278.856 65.4537 278.856Z" fill="#5F5F5F"/>
<path opacity="0.0777" d="M67.2972 278.379C68.0389 278.379 243.787 278.144 244.381 277.699C264.723 277.255 282.519 263.626 288.301 243.969C299.267 206.687 328.936 151.933 408.577 151.933C488.194 151.933 517.871 206.699 528.845 243.981C534.629 263.633 552.424 277.255 572.762 277.699C573.355 278.144 749.111 278.378 749.852 278.378C776.623 278.378 816.809 256.676 816.809 229.904L816.809 41.6444L0.341559 41.6445L0.341575 229.904C0.341014 256.676 40.5256 278.379 67.2972 278.379Z" fill="#5E5E5E"/>
<path opacity="0.0874" d="M69.1377 277.902C69.9719 277.902 243.966 277.638 244.634 277.138C264.842 276.638 282.509 263.07 288.258 243.523C299.218 206.261 328.891 151.456 408.575 151.456C488.234 151.456 517.915 206.272 528.883 243.536C534.635 263.077 552.301 276.639 572.504 277.139C573.172 277.639 747.173 277.903 748.007 277.903C774.497 277.903 816.764 256.429 816.764 229.94L816.764 41.2545L0.381737 41.2546L0.381753 229.94C0.382319 256.428 42.6481 277.902 69.1377 277.902Z" fill="#5D5D5D"/>
<path opacity="0.0971" d="M70.9803 277.424C71.9076 277.424 244.147 277.13 244.889 276.575C264.964 276.019 282.501 262.512 288.218 243.076C299.172 205.832 328.848 150.978 408.575 150.978C488.278 150.978 517.962 205.844 528.924 243.088C534.644 262.519 552.179 276.02 572.249 276.575C572.991 277.131 745.238 277.424 746.164 277.424C772.372 277.424 816.721 256.178 816.721 229.97L816.721 40.8601L0.424487 40.8602L0.424504 229.97C0.424506 256.179 44.7723 277.424 70.9803 277.424Z" fill="#5C5C5C"/>
<path opacity="0.1068" d="M72.8243 276.947C73.8441 276.947 244.33 276.624 245.146 276.013C265.086 275.403 282.493 261.956 288.178 242.629C299.126 205.405 328.806 150.501 408.576 150.501C488.321 150.501 518.009 205.417 528.966 242.642C534.653 261.962 552.059 275.403 571.995 276.013C572.811 276.624 743.304 276.947 744.323 276.947C770.249 276.947 816.68 255.93 816.68 230.004L816.68 40.469L0.468021 40.4691L0.468037 230.004C0.468603 255.93 46.8982 276.947 72.8243 276.947Z" fill="#5B5B5B"/>
<path opacity="0.1165" d="M74.6662 276.47C75.7784 276.47 244.51 276.117 245.401 275.45C265.207 274.784 282.485 261.398 288.136 242.182C299.08 204.977 328.763 150.023 408.576 150.023C488.364 150.023 518.056 204.989 529.007 242.194C534.661 261.404 551.937 274.784 571.74 275.45C572.63 276.117 741.368 276.469 742.48 276.469C768.125 276.469 816.637 255.68 816.637 230.036L816.637 40.0757L0.510272 40.0758L0.510288 230.036C0.510291 255.681 49.0216 276.47 74.6662 276.47Z" fill="#5A5A5A"/>
<path opacity="0.1262" d="M76.5083 275.992C77.7131 275.992 244.69 275.61 245.655 274.887C265.328 274.165 282.475 260.84 288.095 241.734C299.033 204.549 328.719 149.545 408.575 149.545C488.407 149.545 518.101 204.56 529.047 241.747C534.669 260.846 551.815 274.166 571.484 274.888C572.449 275.61 739.432 275.992 740.637 275.992C765.999 275.992 816.594 255.431 816.594 230.069L816.594 39.6836L0.55304 39.6837L0.553057 230.069C0.552495 255.431 51.1457 275.992 76.5083 275.992Z" fill="#595959"/>
<path opacity="0.1359" d="M78.3503 275.515C79.6481 275.515 244.871 275.104 245.91 274.326C265.449 273.549 282.467 260.284 288.054 241.289C298.986 204.123 328.676 149.069 408.575 149.069C488.45 149.069 518.148 204.134 529.088 241.301C534.677 260.291 551.693 273.55 571.229 274.327C572.268 275.105 737.497 275.515 738.794 275.515C763.875 275.515 816.551 255.183 816.551 230.103L816.551 39.2925L0.59524 39.2926L0.595256 230.103C0.594695 255.183 53.2697 275.515 78.3503 275.515Z" fill="#585858"/>
<path opacity="0.1456" d="M80.1935 275.037C81.5838 275.037 245.052 274.596 246.165 273.763C265.571 272.93 282.459 259.725 288.013 240.841C298.939 203.694 328.633 148.591 408.575 148.591C488.492 148.591 518.194 203.705 529.129 240.853C534.686 259.733 551.572 272.93 570.974 273.763C572.087 274.596 735.562 275.037 736.951 275.037C761.75 275.037 816.508 254.933 816.508 230.134L816.508 38.8992L0.63744 38.8992L0.637456 230.135C0.638023 254.933 55.3949 275.037 80.1935 275.037Z" fill="#575757"/>
<path opacity="0.1553" d="M82.0369 274.56C83.5203 274.56 245.234 274.09 246.421 273.201C265.694 272.312 282.451 259.168 287.973 240.394C298.894 203.266 328.59 148.113 408.576 148.113C488.537 148.113 518.242 203.277 529.171 240.407C534.695 259.175 551.452 272.313 570.72 273.201C571.907 274.09 733.627 274.56 735.11 274.56C759.627 274.56 816.467 254.684 816.467 230.167L816.467 38.5071L0.681661 38.5072L0.681678 230.167C0.681116 254.685 57.5198 274.56 82.0369 274.56Z" fill="#565656"/>
<path opacity="0.165" d="M83.8793 274.082C85.4552 274.082 245.415 273.583 246.676 272.638C265.815 271.694 282.443 258.611 287.932 239.947C298.847 202.838 328.547 147.636 408.576 147.636C488.58 147.636 518.288 202.85 529.212 239.96C534.704 258.618 551.331 271.695 570.465 272.639C571.726 273.583 731.692 274.082 733.267 274.082C757.503 274.082 816.424 254.436 816.424 230.2L816.424 38.1149L0.723792 38.1149L0.723809 230.2C0.723811 254.436 59.6437 274.082 83.8793 274.082Z" fill="#555555"/>
<path opacity="0.1748" d="M85.722 273.605C87.3904 273.605 245.596 273.076 246.932 272.076C265.936 271.076 282.435 258.054 287.892 239.5C298.801 202.411 328.504 147.159 408.576 147.159C488.623 147.159 518.335 202.422 529.253 239.513C534.712 258.06 551.209 271.077 570.21 272.076C571.545 273.076 729.757 273.605 731.424 273.605C755.378 273.605 816.381 254.187 816.381 230.233L816.381 37.7227L0.765992 37.7227L0.766009 230.233C0.766011 254.187 61.7683 273.605 85.722 273.605Z" fill="#545454"/>
<path opacity="0.1845" d="M87.5633 273.128C89.3248 273.128 245.776 272.57 247.186 271.514C266.057 270.458 282.425 257.497 287.85 239.054C298.754 201.984 328.46 146.681 408.575 146.681C488.665 146.681 518.381 201.995 529.292 239.067C534.719 257.504 551.086 270.46 569.954 271.515C571.363 272.57 727.82 273.128 729.581 273.128C753.253 273.128 816.338 253.938 816.338 230.266L816.338 37.3306L0.808123 37.3306L0.80814 230.266C0.808142 253.938 63.8917 273.128 87.5633 273.128Z" fill="#535353"/>
<path opacity="0.1942" d="M89.406 272.651C91.2599 272.651 245.957 272.063 247.441 270.952C266.178 269.841 282.417 256.94 287.809 238.608C298.707 201.556 328.417 146.204 408.575 146.204C488.708 146.204 518.427 201.568 529.333 238.62C534.728 256.947 550.965 269.842 569.698 270.953C571.182 272.064 725.885 272.651 727.738 272.651C751.128 272.651 816.295 253.69 816.295 230.3L816.295 36.9395L0.850461 36.9395L0.850478 230.3C0.851044 253.689 66.0164 272.651 89.406 272.651Z" fill="#525252"/>
<path opacity="0.2039" d="M91.2486 272.173C93.1951 272.173 246.138 271.556 247.696 270.39C266.299 269.223 282.408 256.383 287.767 238.161C298.66 201.129 328.374 145.727 408.575 145.727C488.75 145.727 518.473 201.14 529.373 238.173C534.736 256.39 550.843 269.224 569.443 270.391C571.001 271.557 723.949 272.173 725.895 272.173C749.003 272.173 816.252 253.44 816.252 230.333L816.252 36.5472L0.893211 36.5473L0.893228 230.333C0.89323 253.44 68.1405 272.173 91.2486 272.173Z" fill="#515151"/>
<path opacity="0.2136" d="M93.0914 271.696C95.1303 271.696 246.319 271.049 247.951 269.827C266.421 268.605 282.4 255.825 287.727 237.713C298.614 200.701 328.332 145.249 408.576 145.249C488.795 145.249 518.52 200.712 529.416 237.726C534.745 255.832 550.723 268.606 569.189 269.827C570.821 271.05 722.015 271.695 724.054 271.695C746.88 271.695 816.211 253.191 816.211 230.365L816.211 36.1539L0.936745 36.154L0.936762 230.365C0.935636 253.192 70.2652 271.696 93.0914 271.696Z" fill="#505050"/>
<path opacity="0.2233" d="M94.9345 271.218C97.0665 271.218 246.5 270.543 248.207 269.264C266.544 267.986 282.393 255.268 287.687 237.267C298.568 200.273 328.289 144.772 408.576 144.772C488.838 144.772 518.568 200.285 529.457 237.279C534.754 255.275 550.602 267.988 568.934 269.265C570.641 270.543 720.08 271.218 722.211 271.218C744.756 271.218 816.168 252.941 816.168 230.397L816.168 35.7618L0.978876 35.7619L0.978893 230.397C0.978895 252.942 72.3898 271.218 94.9345 271.218Z" fill="#4F4F4F"/>
<path opacity="0.233" d="M96.7766 270.74C99.0011 270.74 246.681 270.035 248.461 268.702C266.664 267.369 282.383 254.71 287.645 236.82C298.521 199.845 328.245 144.294 408.575 144.294C488.879 144.294 518.613 199.856 529.497 236.832C534.761 254.717 550.479 267.37 568.678 268.703C570.459 270.036 718.143 270.741 720.368 270.741C742.631 270.741 816.125 252.693 816.125 230.43L816.125 35.3696L1.02108 35.3697L1.02109 230.43C1.02166 252.693 74.5139 270.74 96.7766 270.74Z" fill="#4E4E4E"/>
<path opacity="0.2427" d="M98.6205 270.263C100.938 270.263 246.863 269.529 248.718 268.14C266.787 266.751 282.376 254.153 287.606 236.373C298.476 199.418 328.204 143.817 408.577 143.817C488.925 143.817 518.661 199.429 529.539 236.386C534.771 254.16 550.36 266.752 568.425 268.141C570.28 269.53 716.21 270.263 718.527 270.263C740.508 270.263 816.084 252.445 816.084 230.463L816.084 34.9774L1.06585 34.9775L1.06587 230.464C1.0653 252.445 76.6398 270.263 98.6205 270.263Z" fill="#4D4D4D"/>
<path opacity="0.2524" d="M100.463 269.786C102.873 269.786 247.044 269.022 248.973 267.577C266.909 266.133 282.368 253.596 287.565 235.926C298.43 198.99 328.161 143.339 408.577 143.339C488.968 143.339 518.708 199.001 529.58 235.938C534.78 253.603 550.238 266.134 568.17 267.578C570.099 269.022 714.275 269.786 716.684 269.786C738.384 269.786 816.041 252.195 816.041 230.496L816.041 34.5853L1.10805 34.5854L1.10807 230.496C1.10807 252.195 78.7639 269.786 100.463 269.786Z" fill="#4C4C4C"/>
<path opacity="0.2621" d="M102.304 269.308C104.808 269.308 247.224 268.515 249.227 267.015C267.029 265.515 282.359 253.038 287.524 235.479C298.382 198.562 328.117 142.862 408.576 142.862C489.01 142.862 518.754 198.573 529.62 235.491C534.787 253.045 550.116 265.516 567.914 267.016C569.917 268.515 712.338 269.308 714.841 269.308C736.258 269.308 815.998 251.946 815.998 230.528L815.998 34.192L1.15018 34.1921L1.1502 230.528C1.14907 251.946 80.8872 269.308 102.304 269.308Z" fill="#4B4B4B"/>
<path opacity="0.2718" d="M104.148 268.832C106.743 268.832 247.405 268.009 249.483 266.453C267.15 264.897 282.351 252.482 287.483 235.033C298.336 198.135 328.074 142.385 408.576 142.385C489.053 142.385 518.8 198.145 529.661 235.045C534.796 252.488 549.995 264.899 567.659 266.454C569.736 268.009 710.403 268.831 712.998 268.831C734.133 268.831 815.955 251.697 815.955 230.562L815.955 33.8009L1.19252 33.801L1.19253 230.562C1.19254 251.698 83.0119 268.832 104.148 268.832Z" fill="#4A4A4A"/>
<path opacity="0.2816" d="M105.989 268.354C108.677 268.354 247.585 267.502 249.737 265.891C267.271 264.279 282.342 251.924 287.441 234.586C298.288 197.708 328.03 141.907 408.575 141.907C489.095 141.907 518.846 197.718 529.701 234.598C534.803 251.931 549.872 264.281 567.403 265.892C569.555 267.502 708.467 268.354 711.155 268.354C732.009 268.354 815.912 251.449 815.912 230.595L815.912 33.4088L1.23465 33.4089L1.23466 230.595C1.2341 251.449 85.1359 268.354 105.989 268.354Z" fill="#494949"/>
<path opacity="0.2913" d="M107.833 267.876C110.613 267.876 247.767 266.995 249.993 265.328C267.394 263.661 282.334 251.367 287.401 234.139C298.243 197.28 327.988 141.43 408.576 141.43C489.139 141.43 518.893 197.291 529.742 234.151C534.812 251.374 549.751 263.663 567.148 265.329C569.374 266.995 706.532 267.876 709.312 267.876C729.884 267.876 815.869 251.2 815.869 230.627L815.869 33.0166L1.27795 33.0167L1.27797 230.628C1.27797 251.2 87.261 267.876 107.833 267.876Z" fill="#484848"/>
<path opacity="0.301" d="M109.676 267.399C112.549 267.399 247.948 266.489 250.249 264.766C267.516 263.043 282.326 250.81 287.361 233.693C298.197 196.853 327.945 140.953 408.577 140.953C489.183 140.953 518.94 196.863 529.785 233.705C534.821 250.817 549.631 263.046 566.894 264.768C569.194 266.49 704.598 267.4 707.471 267.4C727.762 267.4 815.828 250.952 815.828 230.662L815.828 32.6255L1.32093 32.6256L1.32095 230.662C1.32039 250.95 89.3853 267.399 109.676 267.399Z" fill="#474747"/>
<path opacity="0.3107" d="M111.518 266.922C114.484 266.922 248.129 265.982 250.503 264.204C267.637 262.426 282.317 250.252 287.32 233.245C298.15 196.424 327.902 140.475 408.576 140.475C489.225 140.475 518.986 196.435 529.825 233.258C534.829 250.26 549.509 262.427 566.639 264.205C569.013 265.982 702.662 266.922 705.628 266.922C725.636 266.922 815.785 250.702 815.785 230.694L815.785 32.2322L1.36327 32.2322L1.36329 230.694C1.36329 250.702 91.5099 266.922 111.518 266.922Z" fill="#464646"/>
<path opacity="0.3204" d="M113.36 266.445C116.42 266.445 248.309 265.475 250.758 263.642C267.758 261.808 282.309 249.695 287.279 232.799C298.103 195.997 327.858 139.998 408.576 139.998C489.268 139.998 519.033 196.007 529.866 232.811C534.838 249.702 549.388 261.81 566.384 263.642C568.832 265.475 700.727 266.444 703.785 266.444C723.511 266.444 815.742 250.453 815.742 230.726L815.742 31.8401L1.40547 31.8402L1.40549 230.726C1.40549 250.454 93.634 266.445 113.36 266.445Z" fill="#454545"/>
<path opacity="0.3301" d="M115.203 265.967C118.355 265.967 248.49 264.968 251.013 263.079C267.879 261.19 282.3 249.138 287.237 232.352C298.056 195.57 327.815 139.52 408.576 139.52C489.31 139.52 519.079 195.58 529.906 232.364C534.845 249.145 549.265 261.192 566.128 263.08C568.65 264.968 698.791 265.967 701.942 265.967C721.386 265.967 815.699 250.204 815.699 230.759L815.699 31.4479L1.4476 31.4479L1.44762 230.759C1.44818 250.203 95.7586 265.967 115.203 265.967Z" fill="#444444"/>
<path opacity="0.3398" d="M117.044 265.489C120.288 265.489 248.67 264.461 251.267 262.516C268 260.572 282.291 248.581 287.196 231.905C298.009 195.142 327.771 139.043 408.575 139.043C489.353 139.043 519.124 195.152 529.946 231.917C534.853 248.588 549.143 260.574 565.872 262.518C568.469 264.462 696.855 265.49 700.099 265.49C719.262 265.49 815.656 249.956 815.656 230.793L815.656 31.0568L1.48964 31.0568L1.48966 230.793C1.4891 249.955 97.8813 265.489 117.044 265.489Z" fill="#434343"/>
<path opacity="0.3495" d="M118.887 265.013C122.225 265.013 248.852 263.955 251.523 261.955C268.121 259.955 282.283 248.024 287.155 231.459C297.963 194.715 327.729 138.567 408.575 138.567C489.397 138.567 519.172 194.726 529.987 231.472C534.862 248.032 549.022 259.957 565.617 261.957C568.289 263.956 694.92 265.013 698.256 265.013C717.137 265.013 815.613 249.707 815.613 230.826L815.613 30.6647L1.53193 30.6647L1.53195 230.826C1.53251 249.707 100.007 265.013 118.887 265.013Z" fill="#424242"/>
<path opacity="0.3592" d="M120.731 264.534C124.161 264.534 249.033 263.447 251.779 261.392C268.244 259.336 282.275 247.466 287.115 231.011C297.918 194.286 327.687 138.087 408.576 138.087C489.44 138.087 519.218 194.296 530.029 231.023C534.871 247.472 548.902 259.337 565.363 261.392C568.108 263.447 692.986 264.534 696.415 264.534C715.014 264.534 815.572 249.456 815.572 230.857L815.572 30.2703L1.57615 30.2703L1.57617 230.857C1.57617 249.457 102.131 264.534 120.731 264.534Z" fill="#414141"/>
<path opacity="0.3689" d="M122.573 264.058C126.095 264.058 249.214 262.941 252.034 260.83C268.365 258.719 282.267 246.909 287.074 230.565C297.871 193.859 327.643 137.611 408.576 137.611C489.483 137.611 519.265 193.869 530.07 230.577C534.879 246.916 548.78 258.721 565.108 260.831C567.928 262.941 691.05 264.057 694.572 264.057C712.889 264.057 815.529 249.208 815.529 230.89L815.529 29.8792L1.61835 29.8792L1.61837 230.891C1.61837 249.208 104.255 264.058 122.573 264.058Z" fill="#404040"/>
<path opacity="0.3786" d="M124.415 263.58C128.031 263.58 249.395 262.434 252.289 260.267C268.486 258.1 282.258 246.351 287.033 230.118C297.824 193.431 327.6 137.133 408.575 137.133C489.525 137.133 519.311 193.442 530.11 230.13C534.887 246.359 548.658 258.103 564.853 260.269C567.746 262.435 689.114 263.58 692.729 263.58C710.765 263.58 815.486 248.959 815.486 230.924L815.486 29.4871L1.6611 29.4871L1.66112 230.924C1.66112 248.959 106.38 263.58 124.415 263.58Z" fill="#3F3F3F"/>
<path opacity="0.3884" d="M126.257 263.103C129.965 263.103 249.575 261.928 252.543 259.705C268.606 257.483 282.249 245.795 286.991 229.671C297.777 193.004 327.556 136.656 408.575 136.656C489.568 136.656 519.358 193.015 530.151 229.684C534.895 245.802 548.536 257.485 564.597 259.707C567.565 261.929 687.179 263.103 690.886 263.103C708.64 263.103 815.443 248.711 815.443 230.957L815.443 29.0948L1.70282 29.0949L1.70284 230.957C1.70284 248.711 108.503 263.103 126.257 263.103Z" fill="#3E3E3E"/>
<path opacity="0.3981" d="M128.1 262.625C131.9 262.625 249.756 261.421 252.798 259.143C268.728 256.865 282.241 245.238 286.951 229.225C297.73 192.577 327.513 136.18 408.575 136.18C489.611 136.18 519.404 192.587 530.192 229.237C534.904 245.246 548.415 256.868 564.342 259.145C567.384 261.422 685.243 262.626 689.043 262.626C706.515 262.626 815.4 248.462 815.4 230.99L815.4 28.7037L1.74557 28.7038L1.74559 230.99C1.74559 248.462 110.628 262.625 128.1 262.625Z" fill="#3D3D3D"/>
<path opacity="0.4078" d="M129.944 262.148C133.837 262.148 249.938 260.914 253.055 258.58C268.851 256.247 282.233 244.68 286.911 228.777C297.685 192.148 327.471 135.701 408.576 135.701C489.655 135.701 519.452 192.159 530.234 228.789C534.913 244.687 548.295 256.249 564.088 258.581C567.205 260.914 683.31 262.147 687.202 262.147C704.392 262.147 815.359 248.212 815.359 231.021L815.359 28.3093L1.78957 28.3094L1.78959 231.021C1.78902 248.212 112.753 262.148 129.944 262.148Z" fill="#3C3C3C"/>
<path opacity="0.4175" d="M131.785 261.67C135.771 261.67 250.117 260.407 253.308 258.018C268.971 255.628 282.223 244.122 286.868 228.33C297.637 191.72 327.426 135.223 408.574 135.223C489.697 135.223 519.496 191.73 530.272 228.342C534.919 244.13 548.171 255.631 563.831 258.019C567.021 260.407 681.372 261.67 685.357 261.67C702.266 261.67 815.314 247.963 815.314 231.055L815.314 27.9183L1.8299 27.9184L1.82992 231.055C1.83049 247.963 114.876 261.67 131.785 261.67Z" fill="#3B3B3B"/>
<path opacity="0.4272" d="M133.629 261.193C137.707 261.193 250.3 259.901 253.564 257.456C269.093 255.011 282.216 243.565 286.829 227.884C297.592 191.293 327.385 134.747 408.576 134.747C489.741 134.747 519.544 191.303 530.315 227.896C534.93 243.573 548.052 255.014 563.578 257.457C566.842 259.901 679.438 261.193 683.516 261.193C700.143 261.193 815.273 247.714 815.273 231.088L815.273 27.5261L1.87412 27.5262L1.87414 231.088C1.87414 247.715 117.002 261.193 133.629 261.193Z" fill="#3A3A3A"/>
<path opacity="0.4369" d="M135.471 260.715C139.643 260.715 250.481 259.394 253.82 256.893C269.215 254.393 282.208 243.008 286.788 227.437C297.545 190.865 327.342 134.269 408.576 134.269C489.784 134.269 519.591 190.875 530.356 227.449C534.938 243.016 547.93 254.396 563.322 256.895C566.661 259.395 677.503 260.715 681.673 260.715C698.018 260.715 815.23 247.465 815.23 231.12L815.23 27.1339L1.91632 27.134L1.91634 231.121C1.91691 247.465 119.126 260.715 135.471 260.715Z" fill="#393939"/>
<path opacity="0.4466" d="M137.313 260.239C141.577 260.239 250.66 258.887 254.073 256.332C269.335 253.776 282.199 242.452 286.746 226.991C297.497 190.439 327.298 133.792 408.575 133.792C489.826 133.792 519.636 190.449 530.396 227.003C534.945 242.459 547.808 253.778 563.066 256.333C566.479 258.888 675.567 260.238 679.83 260.238C695.893 260.238 815.188 247.217 815.188 231.154L815.188 26.7418L1.95846 26.7419L1.95847 231.154C1.95791 247.217 121.25 260.239 137.313 260.239Z" fill="#383838"/>
<path opacity="0.4563" d="M139.157 259.761C143.514 259.761 250.843 258.381 254.331 255.769C269.459 253.157 282.192 241.893 286.707 226.544C297.453 190.01 327.257 133.315 408.577 133.315C489.871 133.315 519.685 190.021 530.438 226.555C534.955 241.901 547.688 253.16 562.813 255.77C566.3 258.381 673.633 259.761 677.989 259.761C693.77 259.761 815.147 246.968 815.147 231.187L815.146 26.3496L2.00252 26.3497L2.00254 231.187C2.00254 246.968 123.376 259.761 139.157 259.761Z" fill="#373737"/>
<path opacity="0.466" d="M140.998 259.284C145.448 259.284 251.023 257.873 254.585 255.206C269.579 252.539 282.183 241.336 286.665 226.096C297.405 189.583 327.212 132.837 408.576 132.837C489.913 132.837 519.73 189.592 530.479 226.108C534.963 241.343 547.566 252.542 562.558 255.207C566.119 257.873 671.698 259.282 676.146 259.282C691.645 259.282 815.104 246.718 815.104 231.218L815.104 25.9563L2.04488 25.9564L2.04489 231.218C2.04433 246.719 125.5 259.284 140.998 259.284Z" fill="#363636"/>
<path opacity="0.4757" d="M142.842 258.806C147.384 258.806 251.205 257.367 254.84 254.644C269.701 251.922 282.175 240.779 286.625 225.65C297.36 189.155 327.17 132.36 408.577 132.36C489.957 132.36 519.777 189.165 530.52 225.662C534.972 240.787 547.445 251.925 562.303 254.646C565.938 257.368 669.762 258.806 674.303 258.806C689.521 258.806 815.061 246.47 815.061 231.252L815.061 25.5653L2.08708 25.5654L2.08709 231.252C2.08766 246.47 127.624 258.806 142.842 258.806Z" fill="#353535"/>
<path opacity="0.4854" d="M144.683 258.328C149.318 258.328 251.385 256.86 255.094 254.081C269.821 251.303 282.165 240.221 286.583 225.202C297.311 188.727 327.126 131.882 408.575 131.882C489.998 131.882 519.822 188.738 530.56 225.215C534.979 240.229 547.323 251.306 562.047 254.083C565.756 256.86 667.826 258.328 672.46 258.328C687.395 258.328 815.018 246.22 815.018 231.284L815.018 25.172L2.12866 25.1721L2.12867 231.284C2.12868 246.22 129.747 258.328 144.683 258.328Z" fill="#343434"/>
<path opacity="0.4951" d="M146.526 257.85C151.254 257.85 251.566 256.352 255.35 253.519C269.943 250.685 282.158 239.664 286.543 224.755C297.265 188.3 327.083 131.404 408.576 131.404C490.042 131.404 519.87 188.309 530.601 224.767C534.988 239.671 547.201 250.688 561.791 253.52C565.576 256.353 665.891 257.85 670.617 257.85C685.271 257.85 814.975 245.971 814.975 231.317L814.975 24.7798L2.17141 24.7799L2.17143 231.317C2.17199 245.971 131.872 257.85 146.526 257.85Z" fill="#333333"/>
<path opacity="0.5049" d="M148.368 257.374C153.188 257.374 251.746 255.846 255.605 252.957C270.064 250.068 282.149 239.107 286.501 224.309C297.218 187.872 327.04 130.927 408.575 130.927C490.084 130.927 519.915 187.882 530.641 224.321C534.995 239.114 547.079 250.07 561.536 252.958C565.394 255.846 663.955 257.373 668.774 257.373C683.146 257.373 814.932 245.722 814.932 231.35L814.932 24.3877L2.21368 24.3878L2.21369 231.35C2.21426 245.723 133.996 257.374 148.368 257.374Z" fill="#333333"/>
<path opacity="0.5146" d="M150.21 256.896C155.123 256.896 251.927 255.34 255.859 252.395C270.185 249.45 282.14 238.55 286.459 223.862C297.171 187.445 326.996 130.45 408.575 130.45C490.127 130.45 519.961 187.454 530.681 223.875C535.003 238.557 546.957 249.453 561.28 252.396C565.213 255.34 662.019 256.896 666.931 256.896C681.022 256.896 814.889 245.474 814.889 231.384L814.889 23.9966L2.25588 23.9967L2.25589 231.384C2.25646 245.474 136.12 256.896 150.21 256.896Z" fill="#323232"/>
<path opacity="0.5243" d="M152.055 256.419C157.06 256.419 252.11 254.833 256.117 251.832C270.309 248.832 282.133 237.992 286.421 223.415C297.128 187.017 326.955 129.973 408.577 129.973C490.172 129.973 520.01 187.027 530.724 223.428C535.014 238.001 546.838 248.836 561.027 251.834C565.033 254.834 660.085 256.419 665.09 256.419C678.899 256.419 814.848 245.225 814.848 231.417L814.848 23.6044L2.29996 23.6044L2.29998 231.417C2.30054 245.225 138.246 256.419 152.055 256.419Z" fill="#313131"/>
<path opacity="0.534" d="M153.896 255.941C158.994 255.941 252.289 254.326 256.37 251.269C270.429 248.213 282.124 237.434 286.379 222.968C297.079 186.589 326.911 129.495 408.576 129.495C490.214 129.495 520.055 186.598 530.764 222.98C535.021 237.443 546.715 248.217 560.772 251.271C564.852 254.326 658.15 255.941 663.247 255.941C676.773 255.941 814.805 244.976 814.805 231.449L814.805 23.2111L2.34264 23.2111L2.34266 231.449C2.3421 244.975 140.37 255.941 153.896 255.941Z" fill="#303030"/>
<path opacity="0.5437" d="M155.739 255.464C160.93 255.464 252.471 253.82 256.626 250.708C270.55 247.597 282.116 236.878 286.338 222.522C297.033 186.162 326.868 129.018 408.576 129.018C490.257 129.018 520.102 186.172 530.805 222.534C535.029 236.886 546.593 247.599 560.516 250.709C564.671 253.82 656.214 255.464 661.404 255.464C674.649 255.464 814.762 244.727 814.762 231.482L814.762 22.8201L2.38443 22.8201L2.38445 231.482C2.38501 244.727 142.494 255.464 155.739 255.464Z" fill="#2F2F2F"/>
<path opacity="0.5534" d="M157.583 254.987C162.867 254.987 252.653 253.313 256.882 250.145C270.673 246.978 282.109 236.321 286.299 222.075C296.988 185.735 326.826 128.541 408.577 128.541C490.301 128.541 520.15 185.744 530.848 222.087C535.04 236.328 546.475 246.982 560.263 250.147C564.492 253.313 654.28 254.986 659.563 254.986C672.526 254.986 814.721 244.478 814.721 231.514L814.721 22.4268L2.42906 22.4268L2.42908 231.514C2.42852 244.479 144.619 254.987 157.583 254.987Z" fill="#2E2E2E"/>
<path opacity="0.5631" d="M159.425 254.509C164.801 254.509 252.833 252.806 257.137 249.583C270.794 246.36 282.1 235.763 286.257 221.628C296.941 185.306 326.783 128.063 408.577 128.063C490.344 128.063 520.196 185.316 530.888 221.64C535.047 235.771 546.352 246.364 560.007 249.585C564.31 252.807 652.345 254.509 657.72 254.509C670.401 254.509 814.678 244.23 814.678 231.548L814.678 22.0345L2.47126 22.0346L2.47128 231.547C2.47128 244.228 146.744 254.509 159.425 254.509Z" fill="#2D2D2D"/>
<path opacity="0.5728" d="M161.267 254.032C166.736 254.032 253.013 252.3 257.391 249.021C270.915 245.743 282.091 235.206 286.216 221.182C296.893 184.879 326.739 127.586 408.576 127.586C490.386 127.586 520.242 184.889 530.928 221.194C535.055 235.215 546.23 245.747 559.752 249.023C564.129 252.3 650.409 254.032 655.877 254.032C668.277 254.032 814.635 243.981 814.635 231.581L814.635 21.6436L2.51284 21.6436L2.51286 231.581C2.51286 243.981 148.867 254.032 161.267 254.032Z" fill="#2C2C2C"/>
<path opacity="0.5825" d="M163.109 253.555C168.671 253.555 253.194 251.793 257.646 248.458C271.036 245.125 282.082 234.649 286.175 220.735C296.847 184.451 326.696 127.108 408.576 127.108C490.429 127.108 520.288 184.46 530.969 220.747C535.063 234.657 546.108 245.128 559.496 248.46C563.948 251.793 648.473 253.554 654.034 253.554C666.151 253.554 814.592 243.731 814.592 231.613L814.592 21.2513L2.55573 21.2514L2.55575 231.614C2.55575 243.732 150.992 253.555 163.109 253.555Z" fill="#2B2B2B"/>
<path opacity="0.5922" d="M164.952 253.077C170.606 253.077 253.375 251.285 257.901 247.896C271.158 244.506 282.074 234.091 286.134 220.288C296.8 184.024 326.653 126.631 408.575 126.631C490.471 126.631 520.334 184.033 531.009 220.3C535.071 234.099 545.986 244.51 559.24 247.897C563.766 251.286 646.537 253.076 652.191 253.076C664.027 253.076 814.549 243.482 814.549 231.646L814.549 20.858L2.59793 20.8581L2.59795 231.646C2.59795 243.482 153.116 253.077 164.952 253.077Z" fill="#2A2A2A"/>
<path opacity="0.6019" d="M166.795 252.6C172.543 252.6 253.557 250.78 258.157 247.334C271.28 243.889 282.067 233.534 286.094 219.842C296.755 183.597 326.611 126.154 408.577 126.154C490.517 126.154 520.383 183.606 531.052 219.853C535.081 233.542 545.867 243.893 558.987 247.336C563.588 250.78 644.604 252.6 650.35 252.6C661.904 252.6 814.508 243.234 814.508 231.68L814.508 20.467L2.64202 20.4671L2.64203 231.68C2.64147 243.234 155.241 252.6 166.795 252.6Z" fill="#292929"/>
<path opacity="0.6116" d="M168.636 252.123C174.476 252.123 253.736 250.272 258.41 246.772C271.399 243.272 282.056 232.977 286.051 219.395C296.706 183.169 326.566 125.677 408.575 125.677C490.557 125.677 520.426 183.179 531.09 219.408C535.087 232.986 545.743 243.276 558.73 246.775C563.404 250.274 642.666 252.124 648.505 252.124C659.777 252.124 814.463 242.986 814.463 231.713L814.463 20.0759L2.68226 20.076L2.68228 231.714C2.68228 242.984 157.364 252.123 168.636 252.123Z" fill="#282828"/>
<path opacity="0.6214" d="M170.48 251.645C176.412 251.645 253.918 249.765 258.667 246.209C271.522 242.653 282.049 232.419 286.012 218.947C296.661 182.741 326.524 125.198 408.576 125.198C490.602 125.198 520.475 182.75 531.133 218.959C535.097 232.427 545.623 242.657 558.476 246.211C563.225 249.766 640.732 251.644 646.664 251.644C657.655 251.644 814.422 242.735 814.422 231.744L814.422 19.6815L2.7264 19.6816L2.72642 231.744C2.72642 242.736 159.489 251.645 170.48 251.645Z" fill="#272727"/>
<path opacity="0.6311" d="M172.323 251.168C178.348 251.168 254.099 249.258 258.922 245.647C271.644 242.035 282.04 231.863 285.97 218.501C296.614 182.313 326.481 124.721 408.576 124.721C490.644 124.721 520.52 182.322 531.173 218.513C535.105 231.87 545.502 242.039 558.221 245.648C563.043 249.259 638.797 251.167 644.821 251.167C655.53 251.167 814.379 242.486 814.379 231.777L814.379 19.2893L2.76868 19.2894L2.7687 231.777C2.76927 242.487 161.614 251.168 172.323 251.168Z" fill="#262626"/>
<path opacity="0.6408" d="M174.164 250.69C180.282 250.69 254.279 248.751 259.176 245.084C271.764 241.417 282.031 231.305 285.929 218.053C296.567 181.885 326.437 124.243 408.576 124.243C490.687 124.243 520.567 181.894 531.214 218.065C535.113 231.313 545.38 241.42 557.965 245.086C562.862 248.752 636.861 250.69 642.978 250.69C653.405 250.69 814.336 242.237 814.336 231.81L814.336 18.8972L2.81082 18.8973L2.81083 231.81C2.81027 242.237 163.737 250.69 174.164 250.69Z" fill="#252525"/>
<path opacity="0.6505" d="M176.008 250.213C182.218 250.213 254.461 248.245 259.432 244.522C271.886 240.799 282.024 230.748 285.889 217.607C296.521 181.458 326.395 123.767 408.576 123.767C490.731 123.767 520.614 181.467 531.255 217.619C535.122 230.756 545.258 240.803 557.711 244.524C562.681 248.246 634.926 250.212 641.135 250.212C651.28 250.212 814.293 241.988 814.293 231.843L814.293 18.505L2.85302 18.5051L2.85303 231.843C2.8536 241.989 165.862 250.213 176.008 250.213Z" fill="#242424"/>
<path opacity="0.6602" d="M177.85 249.736C184.154 249.736 254.068 246.816 259.688 243.96C271.176 238.122 282.016 230.191 285.849 217.161C296.475 181.031 326.352 123.29 408.577 123.29C490.774 123.29 520.661 181.041 531.297 217.174C535.131 230.2 545.97 238.128 557.456 243.963C563.075 246.818 632.991 249.737 639.294 249.737C649.157 249.737 814.252 241.741 814.252 231.878L814.252 18.115L2.89724 18.1151L2.89726 231.878C2.89726 241.74 167.987 249.736 177.85 249.736Z" fill="#232323"/>
<path opacity="0.6699" d="M179.692 249.258C186.088 249.258 254.25 246.316 259.941 243.397C271.31 237.569 282.006 229.633 285.806 216.713C296.428 180.603 326.307 122.812 408.575 122.812C490.815 122.812 520.705 180.612 531.335 216.726C535.137 229.642 545.832 237.573 557.199 243.4C562.89 246.317 631.054 249.259 637.449 249.259C647.031 249.259 814.207 241.491 814.207 231.91L814.207 17.7218L2.9374 17.7219L2.93742 231.91C2.93855 241.491 170.11 249.258 179.692 249.258Z" fill="#222222"/>
<path opacity="0.6796" d="M181.535 248.78C188.024 248.78 254.434 245.816 260.197 242.834C271.446 237.015 281.998 229.075 285.767 216.266C296.382 180.174 326.266 122.333 408.577 122.333C490.86 122.333 520.754 180.183 531.378 216.278C535.148 229.083 545.699 237.019 556.946 242.837C562.709 245.817 629.121 248.78 635.608 248.78C644.908 248.78 814.166 241.241 814.166 231.941L814.166 17.3285L2.98212 17.3286L2.98214 231.941C2.98157 241.242 172.235 248.78 181.535 248.78Z" fill="#212121"/>
<path opacity="0.6893" d="M183.377 248.302C189.959 248.302 254.618 245.318 260.452 242.272C271.582 236.461 281.99 228.518 285.725 215.819C296.335 179.747 326.222 121.856 408.576 121.856C490.902 121.856 520.8 179.756 531.418 215.831C535.155 228.526 545.562 236.465 556.69 242.274C562.524 245.319 627.184 248.302 633.765 248.302C642.782 248.302 814.123 240.992 814.123 231.974L814.123 16.9363L3.02425 16.9364L3.02427 231.974C3.02371 240.992 174.359 248.302 183.377 248.302Z" fill="#202020"/>
<path opacity="0.699" d="M185.221 247.826C191.895 247.826 254.804 244.822 260.709 241.711C271.72 235.908 281.983 227.962 285.685 215.373C296.29 179.32 326.18 121.38 408.577 121.38C490.947 121.38 520.847 179.329 531.461 215.385C535.165 227.97 545.427 235.913 556.437 241.713C562.341 244.823 625.251 247.826 631.924 247.826C640.66 247.826 814.082 240.744 814.082 232.008L814.082 16.5442L3.06799 16.5443L3.06801 232.008C3.06745 240.744 176.485 247.826 185.221 247.826Z" fill="#1F1F1F"/>
<path opacity="0.7087" d="M187.062 247.348C193.829 247.348 254.988 244.326 260.962 241.148C271.855 235.354 281.973 227.404 285.643 214.926C296.241 178.892 326.135 120.903 408.575 120.902C490.988 120.902 520.892 178.902 531.499 214.939C535.171 227.413 545.288 235.359 556.179 241.151C562.153 244.328 623.313 247.349 630.079 247.349C638.533 247.349 814.037 240.496 814.037 232.042L814.037 16.152L3.10879 16.152L3.10881 232.04C3.10937 240.495 178.608 247.348 187.062 247.348Z" fill="#1E1E1E"/>
<path opacity="0.7184" d="M188.906 246.87C195.765 246.87 255.175 243.83 261.218 240.585C271.993 234.799 281.965 226.846 285.603 214.478C296.196 178.464 326.094 120.424 408.576 120.424C491.032 120.424 520.94 178.473 531.542 214.491C535.181 226.855 545.152 234.804 555.926 240.588C561.969 243.832 621.379 246.87 628.238 246.87C636.411 246.87 813.996 240.245 813.996 232.073L813.996 15.7598L3.15287 15.7598L3.15289 232.073C3.15233 240.245 180.733 246.87 188.906 246.87Z" fill="#1D1D1D"/>
<path opacity="0.7282" d="M190.748 246.394C197.7 246.394 255.361 243.338 261.474 240.024C272.131 234.246 281.957 226.291 285.562 214.033C296.15 178.038 326.05 119.948 408.576 119.948C491.075 119.948 520.986 178.047 531.582 214.045C535.189 226.298 545.014 234.25 555.671 240.026C561.782 243.339 619.444 246.394 626.395 246.394C634.286 246.394 813.953 239.997 813.953 232.107L813.953 15.3688L3.19507 15.3688L3.19509 232.107C3.19509 239.998 182.857 246.394 190.748 246.394Z" fill="#1C1C1C"/>
<path opacity="0.7379" d="M192.591 245.916C199.636 245.916 255.549 242.844 261.729 239.461C272.269 233.69 281.948 225.733 285.521 213.586C296.103 177.61 326.008 119.47 408.576 119.47C491.118 119.47 521.032 177.618 531.623 213.598C535.197 225.74 544.876 233.695 555.415 239.463C561.594 242.845 617.508 245.916 624.552 245.916C632.16 245.916 813.91 239.747 813.91 232.139L813.91 14.9755L3.23734 14.9755L3.23736 232.139C3.23736 239.749 184.982 245.916 192.591 245.916Z" fill="#1B1B1B"/>
<path opacity="0.7476" d="M194.432 245.438C201.57 245.438 255.736 242.352 261.983 238.898C272.408 233.134 281.939 225.175 285.48 213.138C296.056 177.182 325.964 118.992 408.576 118.992C491.16 118.992 521.079 177.19 531.663 213.15C535.205 225.183 544.736 233.139 555.159 238.901C561.405 242.353 615.572 245.438 622.709 245.438C630.036 245.438 813.867 239.499 813.867 232.172L813.867 14.5833L3.27954 14.5833L3.27956 232.172C3.27956 239.499 187.105 245.438 194.432 245.438Z" fill="#1A1A1A"/>
<path opacity="0.7573" d="M196.275 244.961C203.506 244.961 255.925 241.862 262.238 238.336C272.547 232.579 281.931 224.618 285.439 212.692C296.009 176.755 325.921 118.516 408.575 118.516C491.203 118.516 521.125 176.763 531.704 212.705C535.213 224.627 544.596 232.585 554.904 238.34C561.216 241.864 613.637 244.962 620.866 244.962C627.911 244.962 813.824 239.251 813.824 232.205L813.824 14.1921L3.32167 14.1922L3.32169 232.205C3.32225 239.25 189.23 244.961 196.275 244.961Z" fill="#191919"/>
<path opacity="0.767" d="M198.119 244.484C205.442 244.484 256.115 241.371 262.494 237.773C272.688 232.023 281.924 224.06 285.399 212.245C295.963 176.327 325.878 118.037 408.576 118.037C491.247 118.037 521.172 176.335 531.746 212.257C535.223 224.069 544.457 232.028 554.65 237.776C561.028 241.373 611.703 244.484 619.025 244.484C625.788 244.484 813.783 239.001 813.783 232.237L813.783 13.799L3.36582 13.799L3.36584 232.238C3.36584 239.001 191.355 244.484 198.119 244.484Z" fill="#181818"/>
<path opacity="0.7767" d="M199.961 244.007C207.377 244.007 256.306 240.884 262.749 237.212C272.829 231.468 281.915 223.504 285.358 211.799C295.917 175.9 325.835 117.561 408.576 117.561C491.289 117.561 521.218 175.908 531.787 211.811C535.231 223.512 544.316 231.472 554.395 237.215C560.837 240.885 609.767 244.007 617.182 244.007C623.664 244.007 813.74 238.752 813.74 232.271L813.74 13.4078L3.40809 13.4079L3.40811 232.271C3.40868 238.752 193.479 244.007 199.961 244.007Z" fill="#171717"/>
<path opacity="0.7864" d="M201.804 243.529C209.312 243.529 256.498 240.396 263.005 236.649C272.971 230.911 281.907 222.946 285.318 211.351C295.871 175.471 325.793 117.083 408.577 117.083C491.334 117.083 521.266 175.48 531.829 211.363C535.24 222.954 544.177 230.916 554.141 236.652C560.647 240.397 607.833 243.529 615.341 243.529C621.54 243.529 813.699 238.503 813.699 232.303L813.699 13.0145L3.45218 13.0146L3.4522 232.303C3.45107 238.503 195.604 243.529 201.804 243.529Z" fill="#161616"/>
<path opacity="0.7961" d="M203.646 243.052C211.247 243.052 256.689 239.91 263.259 236.087C273.111 230.354 281.898 222.389 285.276 210.905C295.824 175.044 325.749 116.606 408.576 116.606C491.376 116.606 521.311 175.053 531.868 210.917C535.247 222.398 544.033 230.36 553.884 236.09C560.454 239.912 605.896 243.053 613.496 243.053C619.414 243.053 813.654 238.255 813.654 232.337L813.654 12.6235L3.49242 12.6236L3.49244 232.337C3.49301 238.255 197.728 243.052 203.646 243.052Z" fill="#151515"/>
<path opacity="0.8058" d="M205.487 242.575C213.181 242.575 256.881 239.425 263.513 235.525C273.253 229.797 281.889 221.832 285.234 210.459C295.776 174.617 325.705 116.128 408.575 116.128C491.418 116.128 521.357 174.625 531.908 210.47C535.255 221.841 543.89 229.803 553.629 235.528C560.261 239.426 603.96 242.575 611.653 242.575C617.289 242.575 813.611 238.006 813.611 232.37L813.611 12.2313L3.53462 12.2314L3.53464 232.37C3.53464 238.006 199.852 242.575 205.487 242.575Z" fill="#141414"/>
<path opacity="0.8155" d="M207.33 242.096C215.117 242.096 257.075 238.94 263.769 234.961C273.396 229.239 281.881 221.274 285.193 210.011C295.73 174.188 325.662 115.65 408.575 115.65C491.461 115.65 521.404 174.196 531.949 210.022C535.263 221.282 543.746 229.244 553.373 234.965C560.066 238.942 602.024 242.097 609.81 242.097C615.164 242.097 813.568 237.756 813.568 232.402L813.568 11.838L3.57675 11.8381L3.57677 232.402C3.5779 237.756 201.976 242.096 207.33 242.096Z" fill="#131313"/>
<path opacity="0.8252" d="M209.174 241.62C217.053 241.62 257.271 238.459 264.025 234.401C273.541 228.683 281.873 220.718 285.154 209.565C295.685 173.762 325.621 115.174 408.577 115.174C491.506 115.174 521.452 173.77 531.992 209.577C535.274 220.726 543.605 228.688 553.12 234.403C559.873 238.46 600.091 241.62 607.969 241.62C613.041 241.62 813.527 237.508 813.527 232.435L813.527 11.447L3.62104 11.4471L3.62106 232.436C3.62106 237.508 204.102 241.62 209.174 241.62Z" fill="#121212"/>
<path opacity="0.835" d="M211.016 241.142C218.988 241.142 257.466 237.976 264.28 233.837C273.685 228.123 281.864 220.159 285.113 209.117C295.638 173.333 325.577 114.695 408.576 114.695C491.548 114.695 521.498 173.341 532.032 209.129C535.281 220.168 543.46 228.128 552.865 233.84C559.677 237.978 598.155 241.142 606.126 241.142C610.916 241.142 813.484 237.258 813.484 232.468L813.484 11.0537L3.66373 11.0538L3.66375 232.468C3.66375 237.258 206.226 241.142 211.016 241.142Z" fill="#111111"/>
<path opacity="0.8447" d="M212.858 240.664C220.923 240.664 257.662 237.496 264.535 233.274C273.83 227.564 281.856 219.602 285.071 208.67C295.591 172.905 325.533 114.218 408.576 114.218C491.59 114.218 521.544 172.913 532.072 208.682C535.289 219.61 543.314 227.569 552.609 233.277C559.48 237.497 596.219 240.664 604.283 240.664C608.792 240.664 813.441 237.009 813.441 232.5L813.441 10.6604L3.70593 10.6605L3.70595 232.5C3.70595 237.009 208.35 240.664 212.858 240.664Z" fill="#101010"/>
<path opacity="0.8544" d="M214.702 240.187C222.859 240.187 257.861 237.018 264.79 232.712C273.976 227.005 281.848 219.045 285.031 208.224C295.545 172.478 325.49 113.741 408.576 113.741C491.634 113.741 521.591 172.486 532.113 208.235C535.298 219.053 543.169 227.011 552.354 232.716C559.282 237.019 594.284 240.187 602.44 240.187C606.667 240.187 813.398 236.761 813.398 232.534L813.398 10.2693L3.74813 10.2694L3.74815 232.533C3.74927 236.761 210.475 240.187 214.702 240.187Z" fill="#0F0F0F"/>
<path opacity="0.8641" d="M216.543 239.71C224.793 239.71 258.059 236.54 265.044 232.15C274.122 226.445 281.839 218.488 284.99 207.777C295.498 172.05 325.447 113.263 408.576 113.263C491.677 113.263 521.637 172.058 532.155 207.789C535.306 218.496 543.023 226.451 552.1 232.153C559.085 236.542 592.35 239.71 600.599 239.71C604.544 239.71 813.357 236.511 813.357 232.566L813.357 9.8772L3.79228 9.87727L3.7923 232.566C3.79061 236.512 212.598 239.71 216.543 239.71Z" fill="#0E0E0E"/>
<path opacity="0.8738" d="M218.386 239.232C226.729 239.232 258.259 236.064 265.3 231.588C274.27 225.886 281.831 217.931 284.949 207.33C295.452 171.623 325.405 112.787 408.577 112.787C491.72 112.787 521.684 171.631 532.196 207.342C535.315 217.94 542.876 225.891 551.845 231.591C558.885 236.066 590.415 239.233 598.756 239.233C602.419 239.233 813.314 236.263 813.314 232.599L813.314 9.48499L3.83448 9.48506L3.8345 232.599C3.83393 236.262 214.723 239.232 218.386 239.232Z" fill="#0D0D0D"/>
<path opacity="0.8835" d="M220.228 238.756C228.664 238.756 258.459 235.59 265.554 231.026C274.417 225.326 281.822 217.374 284.907 206.883C295.404 171.195 325.361 112.309 408.575 112.309C491.762 112.309 521.729 171.204 532.235 206.895C535.322 217.382 542.726 225.331 551.588 231.029C558.682 235.591 588.478 238.755 596.911 238.755C600.293 238.755 813.27 236.014 813.27 232.632L813.27 9.09277L3.87473 9.09284L3.87475 232.632C3.87531 236.014 216.846 238.756 220.228 238.756Z" fill="#0C0C0C"/>
<path opacity="0.8932" d="M222.071 238.278C230.599 238.278 258.662 235.116 265.81 230.463C274.566 224.764 281.814 216.816 284.866 206.436C295.358 170.767 325.318 111.831 408.575 111.831C491.805 111.831 521.776 170.775 532.276 206.448C535.33 216.824 542.578 224.769 551.333 230.466C558.48 235.117 586.543 238.278 595.07 238.278C598.17 238.278 813.229 235.765 813.229 232.665L813.229 8.70068L3.91895 8.70075L3.91897 232.665C3.91897 235.765 218.972 238.278 222.071 238.278Z" fill="#0B0B0B"/>
<path opacity="0.9029" d="M223.914 237.8C232.535 237.8 258.866 234.643 266.065 229.901C274.716 224.203 281.806 216.259 284.826 205.99C295.312 170.34 325.275 111.354 408.576 111.354C491.849 111.354 521.823 170.348 532.317 206.002C535.339 216.267 542.429 224.208 551.078 229.904C558.277 234.645 584.608 237.8 593.227 237.8C596.045 237.8 813.186 235.516 813.186 232.697L813.186 8.30847L3.96115 8.30854L3.96117 232.698C3.96173 235.516 221.096 237.8 223.914 237.8Z" fill="#0A0A0A"/>
<path opacity="0.9126" d="M225.755 237.323C234.469 237.323 259.069 234.173 266.319 229.339C274.865 223.64 281.796 215.702 284.784 205.543C295.264 169.912 325.231 110.877 408.575 110.877C491.891 110.877 521.868 169.92 532.358 205.555C535.347 215.71 542.278 223.646 550.823 229.342C558.072 234.174 582.672 237.323 591.384 237.323C593.92 237.323 813.143 235.267 813.143 232.731L813.143 7.91626L4.00319 7.91633L4.00321 232.731C4.00321 235.267 223.219 237.323 225.755 237.323Z" fill="#090909"/>
<path opacity="0.9223" d="M227.6 236.846C236.406 236.846 259.277 233.704 266.576 228.777C275.018 223.079 281.789 215.145 284.745 205.097C295.219 169.486 325.19 110.4 408.577 110.4C491.935 110.4 521.917 169.493 532.4 205.109C535.357 215.154 542.128 223.084 550.569 228.781C557.868 233.706 580.738 236.846 589.543 236.846C591.797 236.846 813.102 235.019 813.102 232.764L813.102 7.52527L4.04743 7.52534L4.04745 232.764C4.04689 235.018 225.345 236.846 227.6 236.846Z" fill="#080808"/>
<path opacity="0.932" d="M229.442 236.368C238.341 236.368 259.484 233.236 266.831 228.214C275.169 222.515 281.781 214.587 284.704 204.649C295.173 169.057 325.146 109.922 408.576 109.922C491.978 109.922 521.963 169.065 532.441 204.661C535.365 214.596 541.976 222.52 550.314 228.218C557.661 233.237 578.803 236.368 587.7 236.368C589.672 236.368 813.059 234.769 813.059 232.796L813.059 7.13196L4.0897 7.13203L4.08972 232.796C4.08972 234.769 227.469 236.368 229.442 236.368Z" fill="#070707"/>
<path opacity="0.9417" d="M231.284 235.891C240.276 235.891 259.692 232.77 267.086 227.652C275.322 221.951 281.772 214.03 284.663 204.203C295.126 168.63 325.103 109.445 408.576 109.444C492.021 109.444 522.009 168.637 532.481 204.215C535.373 214.039 541.823 221.957 550.058 227.655C557.452 232.771 576.867 235.891 585.857 235.891C587.548 235.891 813.016 234.52 813.016 232.829L813.016 6.73975L4.1319 6.73982L4.13192 232.829C4.13248 234.52 229.594 235.891 231.284 235.891Z" fill="#060606"/>
<path opacity="0.9515" d="M233.126 235.413C242.21 235.413 259.901 232.304 267.34 227.089C275.475 221.386 281.763 213.472 284.621 203.755C295.079 168.201 325.06 108.967 408.576 108.967C492.063 108.967 522.055 168.209 532.522 203.767C535.381 213.481 541.669 221.392 549.803 227.092C557.241 232.305 574.931 235.413 584.014 235.413C585.423 235.413 812.973 234.271 812.973 232.862L812.973 6.34753L4.17403 6.3476L4.17405 232.862C4.17405 234.271 231.717 235.413 233.126 235.413Z" fill="#050505"/>
<path opacity="0.9612" d="M234.969 234.936C244.146 234.936 260.113 231.841 267.595 226.527C275.63 220.822 281.755 212.916 284.58 203.309C295.032 167.774 325.017 108.49 408.575 108.49C492.106 108.49 522.102 167.782 532.562 203.321C535.389 212.924 541.514 220.828 549.548 226.53C557.03 231.842 572.996 234.936 582.171 234.936C583.299 234.936 812.93 234.022 812.93 232.895L812.93 5.95544L4.21615 5.95552L4.21616 232.895C4.21673 234.023 233.841 234.936 234.969 234.936Z" fill="#040404"/>
<path opacity="0.9709" d="M236.811 234.459C246.081 234.459 260.325 231.379 267.85 225.965C275.785 220.257 281.746 212.359 284.539 202.863C294.986 167.347 324.973 108.013 408.575 108.013C492.149 108.013 522.148 167.355 532.603 202.875C535.397 212.368 541.358 220.263 549.292 225.969C556.816 231.381 571.06 234.459 580.328 234.459C581.173 234.459 812.887 233.774 812.887 232.929L812.887 5.56433L4.2585 5.5644L4.25852 232.929C4.25908 233.774 235.966 234.459 236.811 234.459Z" fill="#030303"/>
<path opacity="0.9806" d="M238.654 233.981C248.016 233.981 260.54 230.918 268.106 225.402C275.942 219.69 281.738 211.801 284.499 202.415C294.939 166.919 324.93 107.535 408.575 107.535C492.192 107.535 522.194 166.926 532.644 202.426C535.406 211.809 541.202 219.695 549.037 225.405C556.602 230.919 569.125 233.981 578.485 233.981C579.049 233.981 812.844 233.524 812.844 232.961L812.844 5.17102L4.30125 5.17109L4.30127 232.961C4.30183 233.524 238.09 233.981 238.654 233.981Z" fill="#020202"/>
<path opacity="0.9903" d="M240.496 233.504C249.951 233.504 260.755 230.459 268.361 224.84C276.099 219.123 281.73 211.243 284.458 201.968C294.893 166.491 324.887 107.057 408.576 107.057C492.236 107.057 522.242 166.498 532.685 201.98C535.414 211.252 541.045 219.128 548.783 224.843C556.387 230.46 567.191 233.503 576.644 233.503C576.926 233.503 812.803 233.275 812.803 232.993L812.803 4.77783L4.34533 4.7779L4.34535 232.993C4.34423 233.275 240.215 233.504 240.496 233.504Z" fill="#010101"/>
<path d="M242.339 233.026C251.887 233.026 260.973 230.001 268.616 224.278C276.257 218.555 281.722 210.686 284.417 201.521C294.847 166.064 324.844 106.58 408.576 106.58C492.279 106.58 522.288 166.071 532.726 201.533C535.423 210.695 540.887 218.561 548.528 224.281C556.17 230.003 565.255 233.026 574.801 233.026L812.76 233.026L812.76 4.38672L4.38753 4.38679L4.38755 233.026L242.339 233.026Z" fill="black"/>
</g>
<path d="M5.37552e-05 0.000378104L7.45107e-05 237.416L242.34 237.416C263.751 237.416 282.585 223.303 288.628 202.761C299.639 165.326 329.28 110.969 408.576 110.969C487.849 110.969 517.498 165.338 528.517 202.774C534.562 223.309 553.395 237.416 574.801 237.416L817.148 237.416L817.148 -0.000244141L5.37552e-05 0.000378104Z" fill="white"/>
<g clip-path="url(#clip0_45_183)">
<path d="M373.695 237.948C360.818 237.948 350.344 227.474 350.344 214.597C350.344 201.721 360.818 191.247 373.695 191.247C383.045 191.247 391.107 196.783 394.833 204.74L401.086 202.432C401.011 201.953 400.937 201.474 400.937 200.976C400.937 195.612 405.302 191.247 410.667 191.247C416.031 191.247 420.396 195.612 420.396 200.976C420.396 206.341 416.031 210.706 410.667 210.706C407.182 210.706 404.142 208.847 402.424 206.086L396.182 208.39C396.73 210.371 397.046 212.445 397.046 214.597C397.046 217.147 396.622 219.594 395.863 221.893L417.264 230.963C421.182 223.554 428.96 218.489 437.909 218.489C440.809 218.489 443.576 219.046 446.14 220.015L451.523 208.704C449.178 206.925 447.639 204.138 447.639 200.976C447.639 195.612 452.004 191.247 457.368 191.247C462.733 191.247 467.098 195.612 467.098 200.976C467.098 206.341 462.733 210.706 457.368 210.706C456.559 210.706 455.782 210.577 455.029 210.388L449.653 221.688C456.582 225.744 461.26 233.247 461.26 241.84C461.26 249.911 457.142 257.036 450.9 261.23L454.459 267.629C455.385 267.337 456.349 267.137 457.368 267.137C462.733 267.137 467.098 271.501 467.098 276.866C467.098 282.23 462.733 286.595 457.368 286.595C452.004 286.595 447.639 282.23 447.639 276.866C447.639 273.92 448.983 271.307 451.057 269.522L447.491 263.111C444.564 264.435 441.326 265.191 437.909 265.191C432.569 265.191 427.658 263.369 423.72 260.341L416.061 268.767C419.945 272.939 422.342 278.513 422.342 284.65C422.342 285.84 422.223 287 422.052 288.142L431.063 290.281C432.614 286.965 435.96 284.65 439.855 284.65C445.22 284.65 449.585 289.014 449.585 294.379C449.585 299.744 445.22 304.108 439.855 304.108C434.491 304.108 430.126 299.744 430.126 294.379C430.126 294.272 430.155 294.171 430.157 294.064L421.163 291.931C418.096 301.249 409.324 308 398.991 308C386.115 308 375.641 297.526 375.641 284.65C375.641 280.657 376.651 276.897 378.426 273.609L366.995 266.177C365.228 267.967 362.781 269.082 360.074 269.082C354.709 269.082 350.344 264.717 350.344 259.353C350.344 253.988 354.709 249.623 360.074 249.623C365.438 249.623 369.803 253.988 369.803 259.353C369.803 260.61 369.545 261.804 369.108 262.908L380.565 270.357C382.858 267.409 385.835 265.029 389.262 263.449L379.764 237.12C377.826 237.642 375.797 237.948 373.695 237.948ZM410.667 206.814C413.885 206.814 416.504 204.194 416.504 200.976C416.504 197.758 413.885 195.138 410.667 195.138C407.449 195.138 404.829 197.758 404.829 200.976C404.829 204.194 407.449 206.814 410.667 206.814ZM463.206 200.976C463.206 197.758 460.586 195.138 457.368 195.138C454.15 195.138 451.531 197.758 451.531 200.976C451.531 204.194 454.15 206.814 457.368 206.814C460.586 206.814 463.206 204.194 463.206 200.976ZM457.368 282.704C460.586 282.704 463.206 280.084 463.206 276.866C463.206 273.648 460.586 271.028 457.368 271.028C454.15 271.028 451.531 273.648 451.531 276.866C451.531 280.084 454.15 282.704 457.368 282.704ZM439.855 300.217C443.073 300.217 445.693 297.597 445.693 294.379C445.693 291.161 443.073 288.541 439.855 288.541C436.637 288.541 434.017 291.161 434.017 294.379C434.017 297.597 436.637 300.217 439.855 300.217ZM360.074 253.515C356.855 253.515 354.236 256.135 354.236 259.353C354.236 262.571 356.855 265.191 360.074 265.191C363.292 265.191 365.911 262.571 365.911 259.353C365.911 256.135 363.292 253.515 360.074 253.515ZM385.154 230.289C384.286 225.788 380.318 222.381 375.641 222.381L371.749 222.381C367.071 222.381 363.104 225.788 362.235 230.289C365.454 232.645 369.408 234.056 373.695 234.056C377.982 234.056 381.935 232.645 385.154 230.289ZM373.695 218.489C376.913 218.489 379.532 215.87 379.532 212.652C379.532 209.433 376.913 206.814 373.695 206.814C370.477 206.814 367.857 209.433 367.857 212.652C367.857 215.87 370.477 218.489 373.695 218.489ZM373.695 195.138C362.965 195.138 354.236 203.867 354.236 214.597C354.236 219.462 356.044 223.907 359.008 227.322C360.371 223.731 363.214 220.865 366.756 219.451C365.033 217.695 363.965 215.298 363.965 212.652C363.965 207.287 368.33 202.922 373.695 202.922C379.059 202.922 383.424 207.287 383.424 212.652C383.424 215.298 382.356 217.695 380.634 219.451C384.176 220.865 387.019 223.731 388.382 227.322C391.346 223.907 393.154 219.462 393.154 214.597C393.154 203.867 384.425 195.138 373.695 195.138ZM457.368 241.84C457.368 231.11 448.639 222.381 437.909 222.381C427.179 222.381 418.45 231.11 418.45 241.84C418.45 246.72 420.27 251.176 423.249 254.596C424.607 250.992 427.456 248.112 431.007 246.693C429.287 244.937 428.219 242.54 428.219 239.894C428.219 234.53 432.584 230.165 437.948 230.165C443.313 230.165 447.678 234.53 447.678 239.894C447.678 242.54 446.61 244.937 444.887 246.693C448.419 248.101 451.258 250.957 452.626 254.533C455.572 251.122 457.368 246.691 457.368 241.84ZM443.786 239.894C443.786 236.676 441.166 234.056 437.948 234.056C434.73 234.056 432.111 236.676 432.111 239.894C432.111 243.112 434.73 245.732 437.948 245.732C441.166 245.732 443.786 243.112 443.786 239.894ZM449.401 257.506C448.524 253.017 444.562 249.623 439.894 249.623L436.002 249.623C431.316 249.623 427.341 253.042 426.485 257.557C429.697 259.899 433.638 261.299 437.909 261.299C442.212 261.299 446.177 259.878 449.401 257.506ZM410.483 300.315C409.606 295.827 405.644 292.433 400.976 292.433L397.084 292.433C392.398 292.433 388.423 295.852 387.567 300.367C390.779 302.709 394.721 304.108 398.991 304.108C403.294 304.108 407.26 302.688 410.483 300.315ZM399.03 288.541C402.249 288.541 404.868 285.922 404.868 282.704C404.868 279.486 402.249 276.866 399.03 276.866C395.812 276.866 393.193 279.486 393.193 282.704C393.193 285.922 395.812 288.541 399.03 288.541ZM379.532 284.65C379.532 289.529 381.352 293.986 384.331 297.405C385.689 293.801 388.538 290.921 392.09 289.503C390.369 287.747 389.301 285.35 389.301 282.704C389.301 277.339 393.666 272.974 399.03 272.974C404.395 272.974 408.76 277.339 408.76 282.704C408.76 285.35 407.692 287.747 405.969 289.503C409.501 290.911 412.34 293.766 413.708 297.342C416.655 293.931 418.45 289.501 418.45 284.65C418.45 273.92 409.721 265.191 398.991 265.191C388.261 265.191 379.532 273.92 379.532 284.65ZM392.922 262.127C394.86 261.605 396.89 261.299 398.991 261.299C404.331 261.299 409.243 263.12 413.181 266.148L420.84 257.722C416.956 253.55 414.559 247.977 414.559 241.84C414.559 239.291 414.982 236.843 415.741 234.545L394.34 225.475C391.943 230.007 388.096 233.644 383.422 235.798L392.922 262.127Z" fill="white"/>
</g>
<defs>
<clipPath id="clip0_45_183">
<rect width="116.754" height="116.754" fill="white" transform="matrix(-1 -8.74228e-08 -8.74228e-08 1 467.098 191.247)"/>
</clipPath>
</defs>
</svg>
