<svg width="797" height="391" viewBox="0 0 797 391" fill="none" xmlns="http://www.w3.org/2000/svg">
<path d="M398.388 390.994C441.22 390.994 481.487 374.315 511.774 344.028C542.06 313.741 558.74 273.474 558.74 230.642C558.74 187.811 542.061 147.542 511.774 117.256C481.488 86.969 441.219 70.2897 398.388 70.2897C355.556 70.2897 315.288 86.9696 285.002 117.256C254.715 147.542 238.036 187.81 238.036 230.642C238.036 273.474 254.715 313.742 285.002 344.028C315.289 374.315 355.556 390.994 398.388 390.994Z" fill="#15273D"/>
<g opacity="0.26">
<path opacity="0.01" d="M52.6903 274.79C52.7629 274.79 236.438 274.767 236.497 274.724C257.269 274.68 275.533 260.966 281.399 241.024C292.131 204.537 321.036 151.497 398.389 151.497C475.719 151.497 504.632 204.549 515.372 241.036C521.24 260.973 539.502 274.68 560.27 274.724C560.328 274.767 744.01 274.79 744.084 274.79C772.165 274.79 796.742 252.026 796.742 223.944L796.742 43.3602L0.0332993 43.3603L0.0333151 223.945C0.0322176 252.026 24.6091 274.79 52.6903 274.79Z" fill="#7F7F7F"/>
<path opacity="0.0156" d="M54.137 274.416C54.2828 274.416 236.581 274.37 236.698 274.283C257.366 274.195 275.527 260.529 281.367 240.673C292.095 204.201 321.002 151.122 398.39 151.122C475.753 151.122 504.669 204.213 515.404 240.685C521.247 260.535 539.407 274.195 560.07 274.283C560.187 274.37 742.492 274.416 742.638 274.416C770.498 274.416 796.709 251.83 796.709 223.97L796.709 43.0527L0.0666935 43.0528L0.0667093 223.97C0.0661618 251.831 26.2763 274.416 54.137 274.416Z" fill="#7E7E7E"/>
<path opacity="0.0234" d="M55.5832 274.041C55.801 274.041 236.724 273.971 236.898 273.84C257.461 273.71 275.521 260.091 281.335 240.322C292.059 203.865 320.969 150.746 398.39 150.746C475.787 150.746 504.705 203.877 515.437 240.334C521.254 260.097 539.313 273.71 559.87 273.84C560.045 273.971 740.974 274.04 741.193 274.04C768.832 274.04 796.676 251.634 796.676 223.995L796.676 42.7435L0.100088 42.7436L0.100104 223.995C0.100656 251.635 27.9442 274.041 55.5832 274.041Z" fill="#7D7D7D"/>
<path opacity="0.0313" d="M57.0274 273.666C57.3183 273.666 236.864 273.574 237.097 273.399C257.555 273.225 275.513 259.654 281.302 239.971C292.021 203.53 320.934 150.372 398.389 150.372C475.82 150.372 504.741 203.541 515.467 239.983C521.259 259.66 539.215 273.225 559.668 273.399C559.901 273.574 739.454 273.665 739.745 273.665C767.163 273.665 796.641 251.439 796.641 224.021L796.641 42.436L0.132066 42.4361L0.132082 224.021C0.132634 251.439 29.6095 273.666 57.0274 273.666Z" fill="#7C7C7C"/>
<path opacity="0.0391" d="M58.473 273.291C58.8366 273.291 237.006 273.176 237.298 272.958C257.651 272.74 275.506 259.216 281.27 239.62C291.984 203.194 320.901 149.997 398.389 149.997C475.854 149.997 504.777 203.205 515.5 239.632C521.266 259.223 539.12 272.74 559.469 272.958C559.76 273.176 737.936 273.291 738.3 273.291C765.496 273.291 796.607 251.244 796.607 224.047L796.607 42.1285L0.165729 42.1286L0.165744 224.047C0.165197 251.243 31.2762 273.291 58.473 273.291Z" fill="#7B7B7B"/>
<path opacity="0.0469" d="M59.9209 272.919C60.357 272.919 237.15 272.781 237.499 272.519C257.747 272.257 275.502 258.781 281.24 239.272C291.95 202.86 320.868 149.625 398.391 149.625C475.89 149.625 504.816 202.872 515.534 239.284C521.274 258.787 539.027 272.258 559.271 272.519C559.62 272.78 736.42 272.919 736.856 272.919C763.832 272.919 796.576 251.05 796.576 224.075L796.576 41.8229L0.201076 41.8229L0.201092 224.075C0.200544 251.051 32.9451 272.919 59.9209 272.919Z" fill="#7A7A7A"/>
<path opacity="0.0547" d="M61.3651 272.543C61.8744 272.543 237.291 272.382 237.698 272.077C257.841 271.771 275.493 258.343 281.206 238.92C291.912 202.524 320.833 149.249 398.389 149.249C475.922 149.249 504.851 202.535 515.564 238.932C521.279 258.349 538.93 271.771 559.069 272.077C559.477 272.382 734.899 272.543 735.409 272.543C762.163 272.543 796.541 250.854 796.541 224.099L796.541 41.5137L0.233054 41.5137L0.23307 224.099C0.233072 250.854 34.611 272.543 61.3651 272.543Z" fill="#797979"/>
<path opacity="0.0625" d="M62.8119 272.168C63.3938 272.168 237.434 271.984 237.899 271.635C257.938 271.286 275.488 257.905 281.175 238.569C291.876 202.188 320.8 148.875 398.39 148.875C475.956 148.875 504.888 202.2 515.597 238.582C521.287 257.912 538.836 271.287 558.869 271.635C559.335 271.984 733.381 272.168 733.963 272.168C760.497 272.168 796.508 250.659 796.508 224.125L796.508 41.2062L0.267072 41.2062L0.267088 224.125C0.26764 250.658 36.2783 272.168 62.8119 272.168Z" fill="#787878"/>
<path opacity="0.0703" d="M64.2568 271.794C64.9112 271.794 237.575 271.586 238.099 271.194C258.033 270.802 275.481 257.468 281.143 238.219C291.84 201.853 320.766 148.5 398.39 148.5C475.99 148.5 504.924 201.864 515.629 238.231C521.293 257.474 538.74 270.802 558.669 271.194C559.193 271.586 731.863 271.794 732.518 271.794C758.83 271.794 796.475 250.463 796.475 224.151L796.475 40.8987L0.300245 40.8988L0.300261 224.151C0.299714 250.463 37.9443 271.794 64.2568 271.794Z" fill="#777777"/>
<path opacity="0.0781" d="M65.7024 271.419C66.4295 271.419 237.717 271.188 238.299 270.752C258.127 270.316 275.474 257.03 281.111 237.867C291.803 201.516 320.732 148.124 398.39 148.124C476.024 148.124 504.961 201.527 515.661 237.88C521.3 257.036 538.645 270.316 558.469 270.752C559.052 271.188 730.345 271.418 731.072 271.418C757.163 271.418 796.441 250.267 796.441 224.175L796.441 40.5895L0.333102 40.5895L0.333118 224.175C0.333121 250.267 39.611 271.419 65.7024 271.419Z" fill="#767676"/>
<path opacity="0.0859" d="M67.1475 271.043C67.9477 271.043 237.858 270.79 238.498 270.31C258.222 269.831 275.466 256.593 281.077 237.516C291.765 201.18 320.697 147.75 398.389 147.75C476.056 147.75 504.996 201.192 515.692 237.529C521.305 256.599 538.548 269.831 558.268 270.31C558.908 270.79 728.825 271.043 729.625 271.043C755.495 271.043 796.406 250.072 796.406 224.201L796.406 40.282L0.365704 40.2821L0.36572 224.201C0.366272 250.072 41.2777 271.043 67.1475 271.043Z" fill="#757575"/>
<path opacity="0.0938" d="M68.5931 270.669C69.4659 270.669 238 270.393 238.698 269.87C258.317 269.347 275.46 256.156 281.046 237.167C291.729 200.845 320.663 147.376 398.389 147.375C476.09 147.375 505.033 200.857 515.724 237.179C521.311 256.162 538.453 269.347 558.068 269.87C558.766 270.393 727.307 270.669 728.179 270.669C753.828 270.669 796.373 249.877 796.373 224.228L796.373 39.9745L0.399635 39.9746L0.399651 224.228C0.399653 249.877 42.9439 270.669 68.5931 270.669Z" fill="#747474"/>
<path opacity="0.1016" d="M70.0407 270.296C70.9866 270.296 238.144 269.996 238.901 269.43C258.415 268.863 275.456 255.72 281.015 236.818C291.694 200.512 320.632 147.002 398.391 147.002C476.125 147.002 505.071 200.523 515.758 236.83C521.32 255.726 538.36 268.864 557.869 269.43C558.626 269.997 725.79 270.297 726.736 270.297C752.164 270.297 796.342 249.683 796.342 224.255L796.342 39.6688L0.434896 39.6689L0.434912 224.255C0.434914 249.683 44.6125 270.296 70.0407 270.296Z" fill="#737373"/>
<path opacity="0.1094" d="M71.4848 269.92C72.5034 269.92 238.284 269.597 239.099 268.987C258.508 268.377 275.447 255.281 280.982 236.465C291.656 200.174 320.596 146.626 398.389 146.626C476.157 146.626 505.106 200.186 515.788 236.477C521.325 255.288 538.263 268.378 557.667 268.988C558.482 269.597 724.269 269.92 725.287 269.92C750.494 269.92 796.307 249.486 796.307 224.279L796.307 39.3596L0.466826 39.3597L0.466842 224.279C0.467395 249.486 46.2783 269.92 71.4848 269.92Z" fill="#727272"/>
<path opacity="0.1172" d="M72.9304 269.546C74.0216 269.546 238.426 269.2 239.299 268.547C258.604 267.893 275.441 254.845 280.949 236.116C291.619 199.84 320.562 146.252 398.389 146.252C476.191 146.252 505.142 199.851 515.82 236.128C521.331 254.851 538.167 267.894 557.467 268.547C558.341 269.201 722.751 269.546 723.842 269.546C748.827 269.546 796.273 249.292 796.273 224.306L796.273 39.0521L0.50022 39.0522L0.500237 224.306C0.500239 249.291 47.945 269.546 72.9304 269.546Z" fill="#717171"/>
<path opacity="0.125" d="M74.376 269.171C75.5397 269.171 238.568 268.802 239.499 268.104C258.698 267.407 275.434 254.406 280.918 235.763C291.583 199.503 320.529 145.876 398.389 145.876C476.225 145.876 505.179 199.514 515.853 235.776C521.339 254.413 538.073 267.407 557.268 268.104C558.2 268.802 721.233 269.17 722.396 269.17C747.161 269.17 796.24 249.095 796.24 224.33L796.24 38.7429L0.534065 38.743L0.534082 224.33C0.533534 249.095 49.6111 269.171 74.376 269.171Z" fill="#707070"/>
<path opacity="0.1328" d="M75.822 268.798C77.0589 268.798 238.71 268.406 239.7 267.665C258.794 266.924 275.428 253.971 280.886 235.415C291.547 199.169 320.495 145.504 398.39 145.504C476.26 145.504 505.216 199.18 515.885 235.427C521.345 253.977 537.978 266.925 557.068 267.665C558.057 268.406 719.715 268.798 720.951 268.798C745.494 268.798 796.207 248.901 796.207 224.358L796.207 38.4371L0.567546 38.4372L0.567562 224.358C0.567014 248.901 51.2782 268.798 75.822 268.798Z" fill="#6F6F6F"/>
<path opacity="0.1406" d="M77.2686 268.423C78.5775 268.423 238.853 268.008 239.9 267.224C258.89 266.439 275.421 253.533 280.854 235.064C291.511 198.834 320.462 145.129 398.39 145.129C476.293 145.129 505.253 198.845 515.917 235.077C521.352 253.54 537.882 266.44 556.868 267.224C557.915 268.008 718.197 268.423 719.505 268.423C743.828 268.423 796.174 248.706 796.174 224.384L796.174 38.1296L0.601122 38.1297L0.601139 224.384C0.601141 248.706 52.9464 268.423 77.2686 268.423Z" fill="#6E6E6E"/>
<path opacity="0.1484" d="M78.7141 268.047C80.0962 268.047 238.995 267.61 240.101 266.781C258.985 265.953 275.415 253.095 280.822 234.713C291.474 198.497 320.428 144.754 398.39 144.754C476.327 144.754 505.289 198.509 515.949 234.725C521.359 253.102 537.787 265.954 556.668 266.782C557.774 267.61 716.678 268.047 718.06 268.047C742.161 268.047 796.141 248.509 796.141 224.408L796.141 37.8204L0.634382 37.8205L0.634399 224.408C0.633851 248.509 54.6124 268.047 78.7141 268.047Z" fill="#6D6D6D"/>
<path opacity="0.1563" d="M80.1597 267.673C81.6144 267.673 239.136 267.212 240.301 266.34C259.08 265.468 275.408 252.658 280.79 234.362C291.438 198.161 320.394 144.379 398.39 144.379C476.361 144.379 505.326 198.173 515.982 234.374C521.365 252.665 537.693 265.469 556.468 266.34C557.632 267.212 715.16 267.673 716.614 267.673C740.494 267.673 796.107 248.314 796.107 224.434L796.107 37.5129L0.668314 37.513L0.66833 224.434C0.667782 248.315 56.2797 267.673 80.1597 267.673Z" fill="#6C6C6C"/>
<path opacity="0.1641" d="M81.6059 267.298C83.1332 267.298 239.279 266.814 240.501 265.898C259.176 264.983 275.402 252.22 280.758 234.011C291.402 197.826 320.361 144.004 398.39 144.004C476.395 144.004 505.363 197.837 516.014 234.024C521.372 252.227 537.597 264.984 556.268 265.9C557.491 266.815 713.642 267.299 715.169 267.299C738.828 267.299 796.074 248.119 796.074 224.46L796.074 37.2054L0.702245 37.2055L0.702261 224.46C0.701713 248.119 57.947 267.298 81.6059 267.298Z" fill="#6B6B6B"/>
<path opacity="0.1719" d="M83.051 266.924C84.6509 266.924 239.42 266.417 240.701 265.458C259.27 264.499 275.394 251.784 280.725 233.661C291.364 197.491 320.326 143.63 398.389 143.63C476.427 143.63 505.397 197.502 516.045 233.673C521.378 251.791 537.501 264.5 556.066 265.459C557.347 266.417 712.122 266.924 713.721 266.924C737.159 266.924 796.039 247.924 796.039 224.486L796.039 36.8981L0.733772 36.8981L0.733788 224.486C0.73379 247.924 59.6132 266.924 83.051 266.924Z" fill="#6A6A6A"/>
<path opacity="0.1797" d="M84.4966 266.55C86.1696 266.55 239.562 266.019 240.901 265.017C259.366 264.014 275.388 251.347 280.693 233.311C291.328 197.156 320.292 143.256 398.389 143.256C476.461 143.256 505.434 197.167 516.077 233.323C521.384 251.354 537.405 264.015 555.866 265.017C557.206 266.02 710.603 266.55 712.276 266.55C735.493 266.55 796.006 247.729 796.006 224.512L796.006 36.5906L0.767617 36.5906L0.767634 224.512C0.768186 247.729 61.2798 266.55 84.4966 266.55Z" fill="#696969"/>
<path opacity="0.1875" d="M85.9427 266.175C87.6883 266.175 239.704 265.622 241.102 264.576C259.462 263.53 275.382 250.91 280.662 232.96C291.292 196.82 320.259 142.881 398.389 142.881C476.495 142.881 505.471 196.831 516.109 232.973C521.391 250.916 537.31 263.531 555.667 264.576C557.064 265.622 709.085 266.175 710.83 266.175C733.826 266.175 795.973 247.533 795.973 224.538L795.973 36.2831L0.801548 36.2832L0.801565 224.538C0.802117 247.534 62.9471 266.175 85.9427 266.175Z" fill="#686868"/>
<path opacity="0.1953" d="M87.3884 265.801C89.2066 265.801 239.846 265.225 241.301 264.135C259.556 263.045 275.376 250.472 280.63 232.61C291.255 196.485 320.225 142.507 398.39 142.507C476.53 142.507 505.508 196.496 516.142 232.622C521.398 250.48 537.216 263.046 555.467 264.136C556.922 265.225 707.567 265.801 709.385 265.801C732.16 265.801 795.939 247.339 795.939 224.564L795.939 35.9756L0.834943 35.9757L0.834959 224.564C0.834961 247.339 64.6138 265.801 87.3884 265.801Z" fill="#676767"/>
<path opacity="0.2031" d="M88.8339 265.425C90.7247 265.425 239.988 264.826 241.502 263.692C259.652 262.558 275.369 250.033 280.597 232.258C291.219 196.148 320.192 142.131 398.389 142.131C476.563 142.131 505.544 196.158 516.174 232.27C521.404 250.041 537.12 262.56 555.267 263.693C556.78 264.826 706.049 265.425 707.939 265.425C730.493 265.425 795.906 247.142 795.906 224.588L795.906 35.6664L0.86874 35.6665L0.868756 224.588C0.868758 247.142 66.2809 265.425 88.8339 265.425Z" fill="#666666"/>
<path opacity="0.2109" d="M90.28 265.052C92.244 265.052 240.13 264.43 241.702 263.253C259.748 262.076 275.363 249.598 280.566 231.909C291.183 195.814 320.158 141.759 398.39 141.758C476.598 141.758 505.582 195.825 516.207 231.921C521.412 249.606 537.025 262.077 555.067 263.253C556.639 264.43 704.53 265.052 706.494 265.052C728.826 265.052 795.873 246.949 795.873 224.616L795.873 35.3606L0.902134 35.3607L0.90215 224.616C0.902702 246.948 67.9476 265.052 90.28 265.052Z" fill="#656565"/>
<path opacity="0.2188" d="M91.7259 264.676C93.7625 264.676 240.273 264.031 241.903 262.81C259.843 261.59 275.356 249.16 280.534 231.557C291.146 195.477 320.125 141.382 398.39 141.382C476.631 141.382 505.618 195.488 516.238 231.569C521.418 249.167 536.93 261.591 554.867 262.811C556.497 264.031 703.012 264.676 705.048 264.676C727.16 264.676 795.84 246.752 795.84 224.64L795.84 35.0514L0.935528 35.0515L0.935544 224.64C0.935546 246.751 69.6146 264.676 91.7259 264.676Z" fill="#646464"/>
<path opacity="0.2266" d="M93.1721 264.302C95.2812 264.302 240.415 263.633 242.103 262.369C259.938 261.105 275.35 248.723 280.502 231.207C291.11 195.142 320.091 141.008 398.39 141.008C476.665 141.008 505.655 195.152 516.27 231.219C521.425 248.73 536.835 261.106 554.667 262.37C556.355 263.634 701.494 264.302 703.603 264.302C725.493 264.302 795.807 246.557 795.807 224.667L795.807 34.7439L0.969191 34.744L0.969207 224.667C0.969209 246.556 71.2819 264.302 93.1721 264.302Z" fill="#636363"/>
<path opacity="0.2344" d="M94.6177 263.927C96.8 263.927 240.557 263.236 242.303 261.928C260.034 260.62 275.343 248.285 280.47 230.857C291.073 194.806 320.057 140.634 398.39 140.634C476.699 140.634 505.691 194.817 516.303 230.869C521.432 248.293 536.74 260.622 554.467 261.929C556.214 263.236 699.976 263.927 702.157 263.927C723.827 263.927 795.773 246.361 795.773 224.692L795.773 34.4365L1.00312 34.4366L1.00314 224.693C1.00259 246.361 72.9486 263.927 94.6177 263.927Z" fill="#626262"/>
<path opacity="0.2422" d="M96.062 263.553C98.3169 263.553 240.697 262.839 242.502 261.487C260.127 260.136 275.335 247.848 280.436 230.506C291.035 194.471 320.022 140.259 398.389 140.259C476.731 140.259 505.726 194.482 516.333 230.518C521.436 247.856 536.643 260.137 554.265 261.488C556.069 262.839 698.455 263.553 700.709 263.553C722.157 263.553 795.738 246.166 795.738 224.718L795.738 34.129L1.03465 34.1291L1.03467 224.718C1.03522 246.166 74.614 263.553 96.062 263.553Z" fill="#616161"/>
<path opacity="0.25" d="M97.5075 263.18C99.8349 263.18 240.839 262.442 242.702 261.047C260.223 259.652 275.329 247.413 280.404 230.156C290.999 194.136 319.988 139.885 398.389 139.885C476.765 139.885 505.763 194.147 516.366 230.168C521.444 247.419 536.548 259.653 554.065 261.047C555.928 262.442 696.937 263.179 699.264 263.179C720.491 263.179 795.705 245.971 795.705 224.745L795.705 33.8215L1.06836 33.8216L1.06838 224.745C1.06783 245.972 76.2805 263.18 97.5075 263.18Z" fill="#606060"/>
<path opacity="0.2578" d="M98.9531 262.804C101.353 262.804 240.981 262.044 242.902 260.605C260.318 259.166 275.322 246.975 280.372 229.805C290.962 193.8 319.954 139.51 398.389 139.51C476.799 139.51 505.799 193.811 516.398 229.817C521.45 246.982 536.453 259.168 553.865 260.606C555.786 262.044 695.418 262.804 697.818 262.804C718.824 262.804 795.672 245.776 795.672 224.77L795.672 33.514L1.10229 33.5141L1.10231 224.77C1.10121 245.776 77.9472 262.804 98.9531 262.804Z" fill="#5F5F5F"/>
<path opacity="0.2656" d="M100.4 262.429C102.873 262.429 241.124 261.645 243.103 260.163C260.414 258.681 275.316 246.536 280.34 229.454C290.927 193.464 319.921 139.135 398.389 139.135C476.833 139.135 505.836 193.475 516.43 229.466C521.456 246.543 536.358 258.682 553.665 260.164C555.644 261.645 693.9 262.429 696.373 262.429C717.157 262.429 795.639 245.579 795.639 224.795L795.639 33.2048L1.13577 33.2049L1.13579 224.795C1.13524 245.579 79.6148 262.429 100.4 262.429Z" fill="#5E5E5E"/>
<path opacity="0.2734" d="M101.846 262.054C104.392 262.054 241.266 261.248 243.303 259.722C260.509 258.196 275.31 246.099 280.309 229.103C290.89 193.129 319.888 138.76 398.39 138.76C476.867 138.76 505.873 193.139 516.463 229.115C521.464 246.106 536.263 258.197 553.465 259.722C555.503 261.248 692.382 262.054 694.927 262.054C715.491 262.054 795.605 245.384 795.605 224.821L795.605 32.8973L1.1697 32.8974L1.16972 224.821C1.16972 245.384 81.2826 262.054 101.846 262.054Z" fill="#5D5D5D"/>
<path opacity="0.2813" d="M103.291 261.68C105.91 261.68 241.408 260.851 243.504 259.28C260.605 257.711 275.303 245.662 280.277 228.753C290.854 192.794 319.854 138.386 398.39 138.386C476.901 138.386 505.91 192.804 516.495 228.765C521.471 245.669 536.168 257.713 553.265 259.282C555.361 260.851 690.864 261.68 693.482 261.68C713.824 261.68 795.572 245.189 795.572 224.847L795.572 32.5898L1.20301 32.5899L1.20303 224.847C1.20303 245.189 82.9492 261.68 103.291 261.68Z" fill="#5C5C5C"/>
<path opacity="0.2891" d="M104.738 261.304C107.428 261.304 241.55 260.452 243.704 258.838C260.7 257.225 275.297 245.224 280.245 228.401C290.818 192.456 319.82 138.01 398.39 138.01C476.935 138.01 505.946 192.467 516.527 228.413C521.477 245.23 536.073 257.227 553.066 258.839C555.22 260.452 689.346 261.304 692.036 261.304C712.157 261.304 795.539 244.993 795.539 224.871L795.539 32.2806L1.23694 32.2807L1.23696 224.871C1.23696 244.993 84.6159 261.304 104.738 261.304Z" fill="#5B5B5B"/>
<path opacity="0.2969" d="M106.182 260.931C108.946 260.931 241.691 260.056 243.903 258.399C260.794 256.742 275.289 244.788 280.212 228.052C290.78 192.123 319.786 137.638 398.389 137.638C476.967 137.638 505.982 192.134 516.557 228.064C521.482 244.796 535.976 256.744 552.864 258.4C555.076 260.056 687.826 260.931 690.589 260.931C710.489 260.931 795.504 244.799 795.504 224.899L795.504 31.975L1.26847 31.975L1.26849 224.899C1.26904 244.799 86.2819 260.931 106.182 260.931Z" fill="#5A5A5A"/>
<path opacity="0.3047" d="M107.627 260.557C110.464 260.557 241.833 259.659 244.103 257.958C260.889 256.258 275.282 244.352 280.18 227.702C290.743 191.788 319.752 137.264 398.388 137.264C477.001 137.264 506.018 191.799 516.59 227.715C521.489 244.359 535.881 256.26 552.664 257.959C554.934 259.659 686.307 260.557 689.143 260.557C708.822 260.557 795.471 244.605 795.471 224.925L795.471 31.6675L1.30218 31.6675L1.3022 224.925C1.3022 244.604 87.9487 260.557 107.627 260.557Z" fill="#595959"/>
<path opacity="0.3125" d="M109.074 260.182C111.983 260.182 241.975 259.26 244.303 257.516C260.985 255.772 275.276 243.913 280.148 227.351C290.707 191.451 319.718 136.888 398.389 136.888C477.035 136.888 506.055 191.462 516.622 227.363C521.496 243.92 535.786 255.774 552.464 257.517C554.793 259.26 684.789 260.181 687.698 260.181C707.155 260.181 795.438 244.408 795.438 224.949L795.438 31.3583L1.33566 31.3583L1.33568 224.949C1.33623 244.408 89.616 260.182 109.074 260.182Z" fill="#585858"/>
<path opacity="0.3203" d="M110.52 259.807C113.502 259.807 242.117 258.862 244.504 257.074C261.081 255.287 275.27 243.476 280.116 227C290.671 191.116 319.685 136.513 398.39 136.513C477.069 136.513 506.092 191.126 516.655 227.012C521.503 243.483 535.691 255.289 552.264 257.076C554.651 258.863 683.271 259.807 686.252 259.807C705.489 259.807 795.404 244.212 795.404 224.976L795.404 31.0508L1.36924 31.0509L1.36925 224.976C1.36981 244.212 91.2832 259.807 110.52 259.807Z" fill="#575757"/>
<path opacity="0.3281" d="M111.966 259.432C115.021 259.432 242.259 258.464 244.704 256.633C261.176 254.802 275.263 243.038 280.084 226.649C290.635 190.779 319.651 136.137 398.39 136.137C477.103 136.137 506.128 190.79 516.687 226.661C521.51 243.045 535.596 254.803 552.064 256.634C554.51 258.464 681.753 259.432 684.807 259.432C703.822 259.432 795.371 244.016 795.371 225.001L795.371 30.7433L1.40272 30.7434L1.40273 225.001C1.40329 244.017 92.95 259.432 111.966 259.432Z" fill="#565656"/>
<path opacity="0.3359" d="M113.412 259.058C116.539 259.058 242.402 258.067 244.905 256.192C261.272 254.318 275.257 242.601 280.053 226.299C290.598 190.444 319.618 135.763 398.39 135.763C477.137 135.763 506.165 190.455 516.719 226.31C521.517 242.608 535.501 254.319 551.865 256.193C554.368 258.067 680.235 259.057 683.361 259.057C702.156 259.057 795.338 243.821 795.338 225.027L795.338 30.4358L1.43656 30.4359L1.43658 225.027C1.43713 243.822 94.6171 259.058 113.412 259.058Z" fill="#555555"/>
<path opacity="0.3438" d="M114.857 258.684C118.057 258.684 242.544 257.67 245.105 255.751C261.367 253.833 275.251 242.165 280.021 225.949C290.562 190.11 319.584 135.39 398.39 135.39C477.171 135.39 506.202 190.12 516.751 225.961C521.523 242.172 535.405 253.835 551.664 255.752C554.225 257.67 678.716 258.684 681.915 258.684C700.489 258.684 795.305 243.627 795.305 225.053L795.305 30.1283L1.47036 30.1284L1.47038 225.054C1.47038 243.627 96.2837 258.684 114.857 258.684Z" fill="#545454"/>
<path opacity="0.3516" d="M116.303 258.309C119.576 258.309 242.685 257.272 245.306 255.31C261.462 253.348 275.244 241.727 279.988 225.598C290.526 189.774 319.55 135.015 398.39 135.015C477.205 135.015 506.238 189.784 516.784 225.61C521.53 241.734 535.311 253.35 551.464 255.311C554.084 257.273 677.197 258.309 680.47 258.309C698.822 258.309 795.272 243.432 795.272 225.079L795.271 29.8208L1.50375 29.8209L1.50377 225.079C1.50377 243.431 97.9507 258.309 116.303 258.309Z" fill="#535353"/>
<path opacity="0.3594" d="M117.748 257.935C121.094 257.935 242.827 256.875 245.505 254.869C261.557 252.864 275.237 241.291 279.956 225.248C290.489 189.439 319.516 134.641 398.39 134.641C477.238 134.641 506.275 189.45 516.815 225.26C521.536 241.298 535.215 252.866 551.264 254.871C553.942 256.876 675.679 257.935 679.024 257.935C697.155 257.935 795.238 243.237 795.238 225.106L795.238 29.5134L1.53768 29.5135L1.5377 225.106C1.53605 243.236 99.6169 257.935 117.748 257.935Z" fill="#525252"/>
<path opacity="0.3672" d="M119.194 257.561C122.612 257.561 242.969 256.478 245.706 254.429C261.653 252.38 275.231 240.854 279.924 224.898C290.453 189.104 319.483 134.267 398.39 134.267C477.273 134.267 506.311 189.114 516.848 224.91C521.543 240.861 535.12 252.382 551.064 254.43C553.8 256.478 674.161 257.561 677.579 257.561C695.489 257.561 795.205 243.042 795.205 225.132L795.205 29.2059L1.57108 29.206L1.5711 225.132C1.57055 243.042 101.285 257.561 119.194 257.561Z" fill="#515151"/>
<path opacity="0.375" d="M120.64 257.186C124.132 257.186 243.112 256.08 245.907 253.986C261.749 251.894 275.225 240.415 279.893 224.546C290.417 188.767 319.45 133.891 398.39 133.891C477.307 133.891 506.348 188.778 516.88 224.558C521.55 240.423 535.025 251.895 550.864 253.987C553.659 256.079 672.642 257.184 676.133 257.184C693.822 257.184 795.172 242.845 795.172 225.156L795.172 28.8967L1.60447 28.8968L1.60449 225.156C1.60449 242.846 102.951 257.186 120.64 257.186Z" fill="#505050"/>
<path opacity="0.3828" d="M122.085 256.81C125.649 256.81 243.253 255.681 246.105 253.545C261.843 251.409 275.217 239.978 279.859 224.195C290.379 188.432 319.414 133.516 398.389 133.516C477.339 133.516 506.383 188.441 516.911 224.207C521.555 239.985 534.928 251.411 550.663 253.546C553.515 255.682 671.122 256.81 674.686 256.81C692.154 256.81 795.137 242.65 795.137 225.182L795.137 28.5892L1.63654 28.5893L1.63655 225.182C1.63711 242.65 104.617 256.81 122.085 256.81Z" fill="#4F4F4F"/>
<path opacity="0.3906" d="M123.531 256.435C127.167 256.435 243.394 255.283 246.305 253.103C261.938 250.924 275.211 239.54 279.827 223.844C290.342 188.096 319.38 133.141 398.389 133.141C477.373 133.141 506.42 188.105 516.943 223.856C521.561 239.548 534.833 250.926 550.463 253.105C553.374 255.284 669.604 256.436 673.24 256.436C690.487 256.436 795.104 242.455 795.104 225.208L795.104 28.2817L1.67025 28.2818L1.67027 225.208C1.67027 242.454 106.284 256.435 123.531 256.435Z" fill="#4E4E4E"/>
<path opacity="0.3984" d="M124.977 256.062C128.686 256.062 243.536 254.887 246.506 252.663C262.033 250.44 275.204 239.104 279.795 223.495C290.305 187.762 319.346 132.768 398.389 132.768C477.406 132.768 506.456 187.771 516.975 223.507C521.568 239.111 534.738 250.442 550.263 252.664C553.231 254.887 668.086 256.062 671.795 256.062C688.82 256.062 795.07 242.26 795.07 225.234L795.07 27.9742L1.70364 27.9743L1.70366 225.234C1.70366 242.259 107.951 256.062 124.977 256.062Z" fill="#4D4D4D"/>
<path opacity="0.4063" d="M126.423 255.687C130.205 255.687 243.68 254.488 246.707 252.221C262.129 249.954 275.199 238.666 279.764 223.144C290.27 187.426 319.314 132.393 398.39 132.393C477.441 132.393 506.494 187.435 517.008 223.156C521.575 238.674 534.644 249.957 550.063 252.223C553.09 254.489 666.568 255.687 670.349 255.687C687.154 255.687 795.037 242.065 795.037 225.26L795.037 27.6667L1.73757 27.6668L1.73759 225.26C1.73814 242.064 109.619 255.687 126.423 255.687Z" fill="#4C4C4C"/>
<path opacity="0.4141" d="M127.869 255.313C131.724 255.313 243.821 254.092 246.907 251.781C262.225 249.47 275.191 238.23 279.732 222.794C290.233 187.09 319.28 132.019 398.39 132.019C477.475 132.019 506.53 187.1 517.04 222.805C521.582 238.237 534.548 249.472 549.863 251.782C552.948 254.092 665.049 255.313 668.904 255.313C685.487 255.313 795.004 241.869 795.004 225.286L795.004 27.3593L1.77151 27.3593L1.77152 225.286C1.77152 241.87 111.285 255.313 127.869 255.313Z" fill="#4B4B4B"/>
<path opacity="0.4219" d="M129.315 254.937C133.243 254.937 243.963 253.692 247.107 251.338C262.32 248.984 275.186 237.791 279.701 222.442C290.198 186.753 319.247 131.643 398.391 131.643C477.509 131.643 506.567 186.763 517.072 222.454C521.589 237.798 534.453 248.987 549.663 251.34C552.807 253.693 663.531 254.937 667.458 254.937C683.82 254.937 794.971 241.673 794.971 225.31L794.971 27.05L1.80472 27.0501L1.80473 225.31C1.80529 241.673 112.953 254.937 129.315 254.937Z" fill="#4A4A4A"/>
<path opacity="0.4297" d="M130.759 254.562C134.759 254.562 244.103 253.295 247.306 250.897C262.414 248.499 275.177 237.354 279.666 222.091C290.159 186.418 319.211 131.268 398.388 131.268C477.541 131.268 506.602 186.428 517.103 222.103C521.594 237.362 534.356 248.502 549.462 250.898C552.663 253.296 662.011 254.562 666.011 254.562C682.152 254.562 794.936 241.477 794.936 225.336L794.936 26.7426L1.83616 26.7426L1.83618 225.336C1.83673 241.478 114.618 254.562 130.759 254.562Z" fill="#494949"/>
<path opacity="0.4375" d="M132.207 254.189C136.28 254.189 244.248 252.898 247.508 250.457C262.511 248.016 275.173 236.918 279.636 221.742C290.124 186.083 319.179 130.895 398.391 130.895C477.577 130.895 506.64 186.093 517.137 221.754C521.602 236.925 534.263 248.018 549.263 250.458C552.524 252.899 660.495 254.188 664.567 254.188C680.487 254.188 794.904 241.282 794.904 225.362L794.904 26.4352L1.87182 26.4352L1.87184 225.362C1.87184 241.283 116.286 254.189 132.207 254.189Z" fill="#484848"/>
<path opacity="0.4453" d="M133.651 253.815C137.798 253.815 244.389 252.502 247.707 250.016C262.605 247.532 275.165 236.481 279.603 221.392C290.087 185.749 319.144 130.522 398.39 130.522C477.609 130.522 506.675 185.759 517.168 221.404C521.608 236.489 534.166 247.535 549.062 250.019C552.38 252.503 658.975 253.815 663.12 253.815C678.818 253.815 794.869 241.089 794.869 225.39L794.869 26.1294L1.90389 26.1295L1.9039 225.39C1.90445 241.088 117.952 253.815 133.651 253.815Z" fill="#474747"/>
<path opacity="0.4531" d="M135.097 253.44C139.315 253.44 244.53 252.103 247.907 249.574C262.701 247.046 275.159 236.043 279.571 221.04C290.051 185.412 319.111 130.145 398.389 130.145C477.643 130.145 506.712 185.422 517.199 221.052C521.615 236.05 534.071 247.049 548.862 249.576C552.238 252.103 657.457 253.44 661.674 253.44C677.152 253.44 794.836 240.892 794.836 225.415L794.836 25.8202L1.93773 25.8203L1.93775 225.415C1.93775 240.892 119.619 253.44 135.097 253.44Z" fill="#464646"/>
<path opacity="0.4609" d="M136.543 253.066C140.834 253.066 244.673 251.706 248.107 249.133C262.796 246.561 275.152 235.606 279.539 220.69C290.014 185.077 319.077 129.771 398.389 129.771C477.677 129.771 506.748 185.087 517.232 220.702C521.621 235.614 533.976 246.564 548.662 249.134C552.096 251.706 655.938 253.065 660.229 253.065C675.485 253.065 794.803 240.697 794.803 225.44L794.803 25.5127L1.97113 25.5128L1.97114 225.44C1.97169 240.698 121.287 253.066 136.543 253.066Z" fill="#454545"/>
<path opacity="0.4688" d="M137.988 252.691C142.352 252.691 244.815 251.308 248.307 248.692C262.891 246.076 275.145 235.169 279.506 220.339C289.977 184.741 319.042 129.397 398.389 129.397C477.71 129.397 506.784 184.751 517.263 220.351C521.627 235.176 533.88 246.079 548.461 248.693C551.954 251.308 654.419 252.69 658.783 252.69C673.818 252.69 794.77 240.502 794.77 225.466L794.77 25.2052L2.00506 25.2053L2.00507 225.466C2.00508 240.502 122.952 252.691 137.988 252.691Z" fill="#444444"/>
<path opacity="0.4766" d="M139.435 252.315C143.872 252.315 244.958 250.909 248.509 248.249C262.988 245.59 275.14 234.73 279.476 219.988C289.943 184.405 319.01 129.021 398.391 129.021C477.746 129.021 506.823 184.414 517.297 219.999C521.636 234.737 533.787 245.593 548.263 248.251C551.814 250.91 652.903 252.315 657.339 252.315C672.154 252.315 794.738 240.305 794.738 225.491L794.738 24.896L2.03928 24.8961L2.0393 225.491C2.0393 240.305 124.621 252.315 139.435 252.315Z" fill="#434343"/>
<path opacity="0.4844" d="M140.881 251.941C145.39 251.941 245.099 250.513 248.709 247.809C263.083 245.107 275.133 234.295 279.443 219.639C289.905 184.071 318.976 128.648 398.39 128.648C477.778 128.648 506.858 184.081 517.328 219.651C521.641 234.302 533.691 245.11 548.062 247.812C551.671 250.514 651.383 251.942 655.892 251.942C670.485 251.942 794.703 240.112 794.703 225.518L794.703 24.5902L2.07247 24.5903L2.07249 225.518C2.07249 240.111 126.287 251.941 140.881 251.941Z" fill="#424242"/>
<path opacity="0.4922" d="M142.326 251.566C146.908 251.566 245.24 250.114 248.908 247.367C263.177 244.621 275.126 233.856 279.411 219.287C289.869 183.734 318.942 128.272 398.39 128.272C477.812 128.272 506.895 183.744 517.361 219.299C521.648 233.864 533.596 244.624 547.862 247.369C551.529 250.115 649.865 251.566 654.446 251.566C668.818 251.566 794.67 239.915 794.67 225.543L794.67 24.281L2.10564 24.2811L2.10566 225.542C2.10566 239.915 127.954 251.566 142.326 251.566Z" fill="#414141"/>
<path opacity="0.5" d="M143.772 251.192C148.427 251.192 245.383 249.717 249.109 246.927C263.273 244.137 275.12 233.42 279.38 218.937C289.832 183.4 318.908 127.898 398.39 127.898C477.847 127.898 506.932 183.409 517.393 218.949C521.655 233.427 533.5 244.14 547.662 246.928C551.388 249.718 648.347 251.192 653 251.192C667.152 251.192 794.637 239.72 794.637 225.569L794.637 23.9735L2.13966 23.9736L2.13968 225.569C2.13968 239.72 129.621 251.192 143.772 251.192Z" fill="#404040"/>
<path opacity="0.5078" d="M145.218 250.817C149.945 250.817 245.525 249.319 249.309 246.485C263.368 243.652 275.113 232.982 279.347 218.586C289.796 183.063 318.875 127.523 398.39 127.523C477.88 127.523 506.968 183.073 517.425 218.598C521.661 232.989 533.405 243.655 547.462 246.487C551.246 249.32 646.828 250.817 651.555 250.817C665.485 250.817 794.604 239.525 794.604 225.595L794.604 23.6661L2.17297 23.6662L2.17299 225.595C2.17244 239.525 131.288 250.817 145.218 250.817Z" fill="#3F3F3F"/>
<path opacity="0.5156" d="M146.662 250.443C151.462 250.443 245.666 248.922 249.508 246.044C263.462 243.168 275.105 232.546 279.313 218.236C289.757 182.728 318.839 127.149 398.389 127.149C477.912 127.149 507.003 182.738 517.455 218.248C521.666 232.553 533.308 243.17 547.26 246.046C551.102 248.922 645.308 250.443 650.108 250.443C663.817 250.443 794.568 239.33 794.568 225.621L794.568 23.3586L2.20468 23.3587L2.20469 225.621C2.2047 239.33 132.953 250.443 146.662 250.443Z" fill="#3E3E3E"/>
<path opacity="0.5234" d="M148.109 250.068C152.982 250.068 245.808 248.525 249.709 245.603C263.558 242.682 275.099 232.108 279.282 217.886C289.722 182.393 318.807 126.775 398.39 126.775C477.947 126.775 507.041 182.402 517.488 217.897C521.673 232.115 533.214 242.686 547.06 245.605C550.961 248.525 643.79 250.068 648.662 250.068C662.15 250.068 794.535 239.135 794.535 225.647L794.535 23.0511L2.23807 23.0512L2.23809 225.647C2.23919 239.135 134.621 250.068 148.109 250.068Z" fill="#3D3D3D"/>
<path opacity="0.5313" d="M149.554 249.694C154.5 249.694 245.949 248.127 249.909 245.162C263.653 242.198 275.092 231.671 279.25 217.535C289.685 182.057 318.772 126.401 398.389 126.401C477.98 126.401 507.077 182.067 517.52 217.547C521.68 231.679 533.118 242.202 546.86 245.164C550.819 248.128 642.272 249.694 647.216 249.694C660.483 249.694 794.502 238.939 794.502 225.673L794.502 22.7437L2.27187 22.7437L2.27189 225.673C2.27134 238.939 136.287 249.694 149.554 249.694Z" fill="#3C3C3C"/>
<path opacity="0.5391" d="M151 249.32C156.018 249.32 246.092 247.73 250.109 244.722C263.749 241.714 275.086 231.234 279.219 217.185C289.649 181.723 318.739 126.026 398.39 126.026C478.015 126.026 507.114 181.731 517.553 217.196C521.687 231.241 533.023 241.717 546.661 244.723C550.678 247.73 640.753 249.32 645.771 249.32C658.817 249.32 794.469 238.744 794.469 225.699L794.469 22.4362L2.30589 22.4362L2.3059 225.699C2.30535 238.744 137.954 249.32 151 249.32Z" fill="#3B3B3B"/>
<path opacity="0.5469" d="M152.446 248.943C157.538 248.943 246.234 247.33 250.309 244.278C263.844 241.227 275.08 230.795 279.187 216.832C289.613 181.385 318.706 125.65 398.39 125.65C478.048 125.65 507.15 181.394 517.585 216.844C521.694 230.803 532.928 241.23 546.461 244.28C550.535 247.331 639.235 248.943 644.325 248.943C657.15 248.943 794.436 238.547 794.436 225.723L794.436 22.127L2.33919 22.127L2.33921 225.723C2.33976 238.547 139.622 248.943 152.446 248.943Z" fill="#3A3A3A"/>
<path opacity="0.5547" d="M153.892 248.57C159.056 248.57 246.376 246.934 250.51 243.838C263.94 240.743 275.073 230.359 279.155 216.483C289.576 181.05 318.672 125.276 398.39 125.276C478.082 125.276 507.186 181.06 517.617 216.495C521.701 230.367 532.833 240.747 546.261 243.84C550.394 246.934 637.717 248.57 642.88 248.57C655.483 248.57 794.402 238.353 794.402 225.749L794.402 21.8195L2.37321 21.8195L2.37323 225.749C2.37323 238.353 141.288 248.57 153.892 248.57Z" fill="#393939"/>
<path opacity="0.5625" d="M155.338 248.194C160.575 248.194 246.518 246.535 250.711 243.396C264.036 240.257 275.067 229.921 279.123 216.131C289.54 180.714 318.639 124.9 398.391 124.9C478.117 124.9 507.224 180.723 517.65 216.143C521.708 229.928 532.739 240.26 546.061 243.397C550.252 246.535 636.199 248.194 641.434 248.194C653.817 248.194 794.369 238.156 794.369 225.773L794.369 21.5103L2.40706 21.5103L2.40707 225.773C2.40708 238.156 142.956 248.194 155.338 248.194Z" fill="#383838"/>
<path opacity="0.5703" d="M156.784 247.82C162.093 247.82 246.661 246.138 250.911 242.955C264.131 239.773 275.061 229.484 279.091 215.781C289.504 180.379 318.605 124.527 398.39 124.527C478.15 124.527 507.26 180.388 517.682 215.793C521.714 229.492 532.643 239.777 545.861 242.958C550.11 246.139 634.68 247.821 639.989 247.821C652.15 247.821 794.336 237.962 794.336 225.801L794.336 21.2046L2.44045 21.2047L2.44047 225.802C2.44047 237.962 144.622 247.82 156.784 247.82Z" fill="#373737"/>
<path opacity="0.5781" d="M158.228 247.446C163.61 247.446 246.801 245.741 251.109 242.515C264.225 239.289 275.053 229.047 279.058 215.431C289.466 180.044 318.569 124.153 398.389 124.153C478.183 124.152 507.295 180.053 517.712 215.443C521.718 229.055 532.546 239.292 545.659 242.516C549.967 245.741 633.16 247.446 638.542 247.446C650.481 247.446 794.301 237.767 794.301 225.827L794.301 20.8971L2.47189 20.8972L2.47191 225.827C2.47191 237.767 146.288 247.446 158.228 247.446Z" fill="#363636"/>
<path opacity="0.5859" d="M159.674 247.071C165.129 247.071 246.944 245.343 251.311 242.073C264.321 238.803 275.047 228.609 279.027 215.08C289.431 179.708 318.537 123.777 398.391 123.777C478.218 123.777 507.334 179.716 517.746 215.091C521.727 228.617 532.453 238.806 545.461 242.074C549.827 245.343 631.644 247.071 637.098 247.071C648.817 247.071 794.27 237.57 794.27 225.851L794.27 20.5879L2.50764 20.588L2.50766 225.851C2.50656 237.571 147.956 247.071 159.674 247.071Z" fill="#353535"/>
<path opacity="0.5938" d="M161.119 246.697C166.647 246.697 247.085 244.945 251.509 241.631C264.415 238.318 275.039 228.172 278.993 214.729C289.393 179.372 318.502 123.403 398.389 123.403C478.25 123.403 507.368 179.381 517.776 214.741C521.732 228.18 532.356 238.322 545.259 241.634C549.683 244.946 630.123 246.697 635.65 246.697C647.147 246.697 794.234 237.376 794.234 225.878L794.234 20.2804L2.53908 20.2805L2.5391 225.878C2.5391 237.376 149.622 246.697 161.119 246.697Z" fill="#343434"/>
<path opacity="0.6016" d="M162.566 246.322C168.166 246.322 247.228 244.548 251.711 241.19C264.511 237.834 275.034 227.735 278.962 214.379C289.358 179.037 318.469 123.028 398.39 123.028C478.285 123.028 507.406 179.046 517.809 214.39C521.739 227.742 532.261 237.837 545.059 241.192C549.542 244.548 628.606 246.322 634.205 246.322C645.481 246.322 794.201 237.18 794.201 225.903L794.201 19.9729L2.57275 19.973L2.57276 225.903C2.57331 237.181 151.289 246.322 162.566 246.322Z" fill="#333333"/>
<path opacity="0.6094" d="M164.011 245.947C169.684 245.947 247.369 244.15 251.91 240.749C264.606 237.349 275.026 227.298 278.929 214.029C289.321 178.702 318.435 122.654 398.389 122.654C478.318 122.654 507.442 178.711 517.841 214.041C521.746 227.306 532.166 237.353 544.859 240.752C549.4 244.151 627.086 245.948 632.759 245.948C643.814 245.948 794.168 236.986 794.168 225.93L794.168 19.6654L2.60703 19.6655L2.60705 225.93C2.60595 236.985 152.955 245.947 164.011 245.947Z" fill="#323232"/>
<path opacity="0.6172" d="M165.457 245.573C171.203 245.573 247.511 243.753 252.111 240.308C264.702 236.865 275.02 226.861 278.898 213.678C289.284 178.366 318.401 122.279 398.39 122.279C478.352 122.279 507.478 178.375 517.873 213.69C521.753 226.869 532.071 236.868 544.659 240.311C549.258 243.753 625.568 245.573 631.313 245.573C642.148 245.573 794.135 236.79 794.135 225.956L794.135 19.3579L2.64007 19.358L2.64009 225.956C2.63954 236.79 154.623 245.573 165.457 245.573Z" fill="#313131"/>
<path opacity="0.625" d="M166.904 245.198C172.722 245.198 247.654 243.355 252.311 239.867C264.797 236.379 275.014 226.423 278.866 213.327C289.248 178.03 318.368 121.904 398.39 121.904C478.386 121.904 507.516 178.039 517.905 213.339C521.759 226.431 531.975 236.383 544.459 239.868C549.117 243.355 624.05 245.198 629.868 245.198C640.481 245.198 794.102 236.594 794.102 225.98L794.102 19.0487L2.674 19.0488L2.67402 225.98C2.67402 236.595 156.29 245.198 166.904 245.198Z" fill="#303030"/>
<path opacity="0.6328" d="M168.35 244.824C174.241 244.824 247.797 242.958 252.512 239.426C264.893 235.895 275.008 225.986 278.834 212.977C289.212 177.695 318.334 121.53 398.39 121.53C478.42 121.53 507.552 177.704 517.938 212.989C521.766 225.995 531.881 235.899 544.259 239.429C548.975 242.959 622.532 244.825 628.422 244.825C638.814 244.825 794.068 236.4 794.068 226.008L794.068 18.743L2.70735 18.7431L2.70737 226.008C2.70792 236.399 157.957 244.824 168.35 244.824Z" fill="#2F2F2F"/>
<path opacity="0.6406" d="M169.793 244.448C175.758 244.448 247.936 242.559 252.71 238.983C264.986 235.409 274.999 225.548 278.8 212.625C289.174 177.359 318.299 121.155 398.389 121.155C478.452 121.155 507.587 177.368 517.968 212.637C521.771 225.555 531.784 235.413 544.058 238.986C548.831 242.559 621.012 244.448 626.975 244.448C637.146 244.448 794.033 236.203 794.033 226.032L794.033 18.4337L2.73924 18.4338L2.73926 226.032C2.73926 236.203 159.622 244.448 169.793 244.448Z" fill="#2E2E2E"/>
<path opacity="0.6484" d="M171.239 244.076C177.276 244.076 248.078 242.163 252.911 238.545C265.082 234.926 274.993 225.113 278.769 212.277C289.138 177.026 318.265 120.782 398.389 120.782C478.486 120.782 507.624 177.034 518.001 212.289C521.778 225.121 531.689 234.93 543.858 238.547C548.69 242.164 619.494 244.076 625.529 244.076C635.479 244.076 794 236.01 794 226.06L794 18.1281L2.77263 18.1281L2.77265 226.06C2.77265 236.01 161.289 244.076 171.239 244.076Z" fill="#2D2D2D"/>
<path opacity="0.6563" d="M172.685 243.7C178.795 243.7 247.66 240.862 253.111 238.102C264.361 232.405 274.987 224.674 278.737 211.925C289.101 176.688 318.231 120.406 398.389 120.406C478.52 120.406 507.66 176.697 518.033 211.937C521.785 224.682 532.41 232.41 543.658 238.104C549.108 240.863 617.976 243.7 624.084 243.7C633.813 243.7 793.967 235.813 793.967 226.084L793.967 17.8188L2.80657 17.8189L2.80658 226.084C2.80658 235.813 162.956 243.7 172.685 243.7Z" fill="#2C2C2C"/>
<path opacity="0.6641" d="M174.131 243.325C180.313 243.325 247.804 240.469 253.312 237.661C264.467 231.972 274.98 224.237 278.705 211.574C289.065 176.353 318.198 120.031 398.39 120.031C478.555 120.031 507.697 176.362 518.066 211.586C521.792 224.245 532.304 231.976 543.458 237.663C548.965 240.47 616.457 243.325 622.638 243.325C632.146 243.325 793.934 235.618 793.934 226.11L793.934 17.5114L2.8405 17.5114L2.84052 226.11C2.83997 235.618 164.623 243.325 174.131 243.325Z" fill="#2B2B2B"/>
<path opacity="0.6719" d="M175.576 242.951C181.832 242.951 247.947 240.078 253.511 237.22C264.572 231.538 274.973 223.8 278.672 211.224C289.027 176.018 318.163 119.658 398.388 119.658C478.587 119.658 507.733 176.027 518.096 211.236C521.797 223.809 532.197 231.543 543.256 237.223C548.82 240.08 614.937 242.952 621.191 242.952C630.478 242.952 793.898 235.423 793.898 226.137L793.898 17.2039L2.87364 17.2039L2.87365 226.136C2.87365 235.423 166.29 242.951 175.576 242.951Z" fill="#2A2A2A"/>
<path opacity="0.6797" d="M177.022 242.577C183.349 242.577 248.091 239.687 253.711 236.778C264.679 231.104 274.966 223.363 278.64 210.873C288.991 175.682 318.13 119.283 398.388 119.283C478.621 119.283 507.769 175.691 518.128 210.885C521.804 223.371 532.091 231.109 543.057 236.781C548.676 239.688 613.419 242.577 619.745 242.577C628.811 242.577 793.865 235.227 793.865 226.162L793.865 16.8964L2.90587 16.8964L2.90589 226.162C2.90699 235.228 167.956 242.577 177.022 242.577Z" fill="#292929"/>
<path opacity="0.6875" d="M178.469 242.203C184.87 242.203 248.237 239.297 253.913 236.338C264.787 230.67 274.962 222.927 278.61 210.524C288.956 175.348 318.098 118.909 398.39 118.909C478.656 118.909 507.807 175.357 518.162 210.536C521.812 222.935 531.986 230.675 542.859 236.341C548.534 239.298 611.903 242.203 618.302 242.203C627.146 242.203 793.834 235.033 793.834 226.188L793.834 16.5889L2.94108 16.5889L2.9411 226.188C2.94165 235.033 169.625 242.203 178.469 242.203Z" fill="#282828"/>
<path opacity="0.6953" d="M179.915 241.827C186.388 241.827 248.381 238.905 254.113 235.896C264.893 230.235 274.955 222.488 278.577 210.172C288.919 175.011 318.064 118.534 398.39 118.534C478.69 118.534 507.844 175.02 518.194 210.184C521.818 222.497 531.879 230.24 542.658 235.899C548.388 238.907 610.384 241.828 616.856 241.828C625.479 241.828 793.801 234.838 793.801 226.214L793.801 16.2815L2.97501 16.2816L2.97503 226.214C2.97448 234.837 171.291 241.827 179.915 241.827Z" fill="#272727"/>
<path opacity="0.7031" d="M181.359 241.452C187.905 241.452 248.526 238.516 254.312 235.454C264.999 229.8 274.947 222.051 278.544 209.821C288.882 174.675 318.028 118.158 398.389 118.158C478.723 118.158 507.879 174.683 518.225 209.833C521.823 222.058 531.771 229.805 542.456 235.457C548.242 238.517 608.864 241.452 615.409 241.452C623.811 241.452 793.766 234.641 793.766 226.239L793.766 15.9722L3.00619 15.9722L3.0062 226.239C3.00676 234.641 172.957 241.452 181.359 241.452Z" fill="#262626"/>
<path opacity="0.7109" d="M182.806 241.078C189.425 241.078 248.672 238.127 254.513 235.013C265.108 229.365 274.942 221.613 278.513 209.471C288.846 174.34 317.996 117.784 398.39 117.784C478.758 117.784 507.917 174.348 518.259 209.482C521.832 221.621 531.665 229.37 542.258 235.016C548.098 238.128 607.347 241.078 613.965 241.078C622.146 241.078 793.734 234.446 793.734 226.264L793.734 15.6648L3.04216 15.6649L3.04217 226.265C3.04163 234.446 174.625 241.078 182.806 241.078Z" fill="#252525"/>
<path opacity="0.7188" d="M184.252 240.705C190.943 240.705 248.819 237.74 254.714 234.573C265.216 228.932 274.935 221.177 278.481 209.122C288.81 174.006 317.963 117.411 398.39 117.411C478.791 117.411 507.954 174.014 518.291 209.134C521.839 221.186 531.557 228.937 542.058 234.576C547.952 237.741 605.829 240.705 612.519 240.705C620.479 240.705 793.701 234.252 793.701 226.292L793.701 15.359L3.07542 15.3591L3.07543 226.292C3.07489 234.252 176.292 240.705 184.252 240.705Z" fill="#242424"/>
<path opacity="0.7266" d="M185.698 240.329C192.462 240.329 248.966 237.352 254.914 234.131C265.325 228.496 274.929 220.739 278.45 208.77C288.774 173.669 317.929 117.035 398.391 117.035C478.826 117.035 507.99 173.677 518.323 208.782C521.846 220.747 531.449 228.501 541.858 234.134C547.806 237.353 604.311 240.329 611.074 240.329C618.813 240.329 793.668 234.056 793.668 226.317L793.668 15.0498L3.10935 15.0499L3.10937 226.317C3.10882 234.055 177.959 240.329 185.698 240.329Z" fill="#232323"/>
<path opacity="0.7344" d="M187.142 239.955C193.98 239.955 249.111 236.965 255.113 233.691C265.432 228.061 274.921 220.303 278.416 208.42C288.737 173.334 317.894 116.661 398.389 116.661C478.858 116.661 508.026 173.342 518.354 208.431C521.851 220.31 531.339 228.065 541.657 233.693C547.658 236.966 602.791 239.955 609.626 239.955C617.144 239.955 793.633 233.86 793.633 226.342L793.633 14.7423L3.14133 14.7424L3.14134 226.342C3.14134 233.861 179.625 239.955 187.142 239.955Z" fill="#222222"/>
<path opacity="0.7422" d="M188.588 239.579C195.498 239.579 249.258 236.578 255.313 233.248C265.541 227.624 274.915 219.864 278.384 208.068C288.7 172.997 317.86 116.286 398.389 116.286C478.892 116.286 508.062 173.006 518.386 208.08C521.858 219.872 531.231 227.629 541.457 233.25C547.511 236.578 601.273 239.579 608.181 239.579C615.478 239.579 793.6 233.663 793.6 226.367L793.6 14.4331L3.17463 14.4332L3.17465 226.367C3.1741 233.665 181.292 239.579 188.588 239.579Z" fill="#212121"/>
<path opacity="0.75" d="M190.035 239.205C197.017 239.205 249.407 236.193 255.514 232.808C265.651 227.189 274.909 219.428 278.353 207.718C288.664 172.662 317.827 115.912 398.39 115.912C478.926 115.912 508.099 172.671 518.418 207.73C521.865 219.436 531.122 227.194 541.257 232.81C547.364 236.194 599.754 239.206 606.735 239.206C613.81 239.206 793.566 233.47 793.566 226.395L793.566 14.1273L3.20865 14.1274L3.20867 226.395C3.20922 233.47 182.959 239.205 190.035 239.205Z" fill="#202020"/>
<path opacity="0.7578" d="M191.481 238.831C198.537 238.831 249.556 235.808 255.715 232.366C265.761 226.753 274.903 218.99 278.321 207.367C288.628 172.327 317.794 115.537 398.39 115.537C478.96 115.537 508.136 172.335 518.451 207.38C521.872 218.999 531.013 226.759 541.057 232.369C547.216 235.809 598.236 238.832 605.29 238.832C612.144 238.832 793.533 233.275 793.533 226.42L793.533 13.8199L3.24205 13.82L3.24206 226.421C3.24261 233.275 184.626 238.831 191.481 238.831Z" fill="#1F1F1F"/>
<path opacity="0.7656" d="M192.926 238.456C200.054 238.456 249.704 235.423 255.914 231.924C265.87 226.316 274.896 218.552 278.288 207.016C288.591 171.991 317.76 115.162 398.39 115.162C478.993 115.162 508.172 171.999 518.483 207.028C521.878 218.561 530.903 226.321 540.857 231.927C547.067 235.424 596.718 238.456 603.844 238.456C610.477 238.456 793.5 233.078 793.5 226.445L793.5 13.5106L3.27598 13.5107L3.276 226.445C3.276 233.078 186.293 238.456 192.926 238.456Z" fill="#1E1E1E"/>
<path opacity="0.7734" d="M194.37 238.081C201.571 238.081 249.851 235.039 256.113 231.483C265.979 225.88 274.888 218.115 278.256 206.666C288.554 171.655 317.725 114.787 398.389 114.787C479.026 114.787 508.207 171.664 518.514 206.678C521.883 218.124 530.791 225.885 540.655 231.486C546.916 235.04 595.197 238.081 602.397 238.081C608.809 238.081 793.465 232.883 793.465 226.471L793.465 13.2032L3.30782 13.2033L3.30784 226.471C3.30784 232.883 187.958 238.081 194.37 238.081Z" fill="#1D1D1D"/>
<path opacity="0.7813" d="M195.817 237.707C203.09 237.707 250.002 234.657 256.314 231.043C266.09 225.445 274.882 217.678 278.224 206.316C288.517 171.32 317.691 114.413 398.389 114.413C479.06 114.413 508.245 171.329 518.546 206.327C521.89 217.687 530.68 225.449 540.455 231.045C546.767 234.658 593.679 237.707 600.951 237.707C607.142 237.707 793.432 232.688 793.432 226.497L793.432 12.8958L3.34121 12.8958L3.34123 226.497C3.34178 232.688 189.625 237.707 195.817 237.707Z" fill="#1C1C1C"/>
<path opacity="0.7891" d="M197.262 237.333C204.608 237.333 250.152 234.275 256.514 230.602C266.201 225.008 274.875 217.242 278.191 205.965C288.48 170.985 317.657 114.039 398.389 114.039C479.094 114.039 508.281 170.993 518.578 205.977C521.896 217.25 530.57 225.013 540.256 230.604C546.617 234.276 592.161 237.333 599.506 237.333C605.476 237.333 793.398 232.493 793.398 226.523L793.398 12.5883L3.37461 12.5883L3.37463 226.523C3.37463 232.493 191.292 237.333 197.262 237.333Z" fill="#1B1B1B"/>
<path opacity="0.7969" d="M198.709 236.959C206.127 236.959 250.303 233.894 256.715 230.161C266.313 224.572 274.869 216.805 278.16 205.615C288.444 170.65 317.624 113.665 398.389 113.665C479.128 113.665 508.317 170.658 518.611 205.627C521.903 216.813 530.458 224.577 540.055 230.164C546.466 233.896 590.643 236.958 598.06 236.958C603.808 236.958 793.365 232.298 793.365 226.549L793.365 12.2808L3.40819 12.2808L3.4082 226.549C3.40821 232.298 192.959 236.959 198.709 236.959Z" fill="#1A1A1A"/>
<path opacity="0.8047" d="M200.154 236.585C207.645 236.585 250.454 233.514 256.914 229.72C266.424 224.134 274.862 216.368 278.128 205.265C288.408 170.315 317.59 113.291 398.389 113.291C479.161 113.291 508.354 170.323 518.642 205.277C521.91 216.376 530.347 224.14 539.855 229.723C546.315 233.515 589.124 236.584 596.615 236.584C602.142 236.584 793.332 232.103 793.332 226.575L793.332 11.9733L3.44212 11.9733L3.44214 226.575C3.44159 232.103 194.626 236.585 200.154 236.585Z" fill="#191919"/>
<path opacity="0.8125" d="M201.6 236.209C209.165 236.209 250.607 233.133 257.116 229.278C266.537 223.696 274.856 215.929 278.096 204.914C288.372 169.978 317.557 112.915 398.39 112.915C479.195 112.915 508.391 169.986 518.675 204.925C521.917 215.938 530.235 223.702 539.656 229.281C546.163 233.135 587.606 236.209 595.169 236.209C600.476 236.209 793.299 231.907 793.299 226.601L793.299 11.6658L3.47551 11.6658L3.47553 226.601C3.47608 231.906 196.294 236.209 201.6 236.209Z" fill="#181818"/>
<path opacity="0.8203" d="M203.045 235.834C210.682 235.834 250.759 232.754 257.315 228.837C266.649 223.259 274.849 215.493 278.064 204.563C288.335 169.643 317.523 112.541 398.39 112.541C479.23 112.541 508.428 169.651 518.707 204.575C521.923 215.502 530.123 223.265 539.456 228.84C546.011 232.756 586.088 235.835 593.723 235.835C598.809 235.835 793.266 231.713 793.266 226.627L793.266 11.3584L3.50931 11.3585L3.50933 226.627C3.50823 231.712 197.96 235.834 203.045 235.834Z" fill="#171717"/>
<path opacity="0.8281" d="M204.491 235.459C212.201 235.459 250.912 232.375 257.515 228.395C266.762 222.82 274.843 215.055 278.032 204.212C288.299 169.306 317.489 112.165 398.39 112.165C479.263 112.165 508.464 169.315 518.739 204.223C521.93 215.062 530.009 222.825 539.255 228.397C545.858 232.376 584.569 235.459 592.277 235.459C597.142 235.459 793.232 231.516 793.232 226.651L793.232 11.0491L3.54324 11.0491L3.54326 226.651C3.54216 231.516 199.627 235.459 204.491 235.459Z" fill="#161616"/>
<path opacity="0.8359" d="M205.937 235.085C213.72 235.085 251.066 231.999 257.715 227.954C266.876 222.383 274.836 214.618 278 203.862C288.262 168.972 317.455 111.791 398.389 111.791C479.297 111.791 508.5 168.98 518.771 203.873C521.936 214.626 529.896 222.388 539.056 227.957C545.704 232 583.051 235.085 590.832 235.085C595.475 235.085 793.199 231.321 793.199 226.678L793.199 10.7417L3.57663 10.7418L3.57665 226.678C3.5761 231.321 201.294 235.085 205.937 235.085Z" fill="#151515"/>
<path opacity="0.8438" d="M207.382 234.711C215.237 234.711 251.219 231.622 257.914 227.513C266.988 221.944 274.828 214.18 277.966 203.511C288.224 168.636 317.42 111.417 398.388 111.417C479.329 111.417 508.536 168.644 518.802 203.523C521.942 214.189 529.781 221.95 538.854 227.516C545.548 231.623 581.531 234.71 589.384 234.71C593.807 234.71 793.164 231.125 793.164 226.704L793.164 10.4342L3.60861 10.4343L3.60863 226.704C3.60863 231.126 202.96 234.711 207.382 234.711Z" fill="#141414"/>
<path opacity="0.8516" d="M208.83 234.336C216.758 234.336 251.376 231.246 258.117 227.072C267.105 221.506 274.824 213.744 277.937 203.161C288.19 168.301 317.389 111.043 398.391 111.043C479.366 111.043 508.574 168.309 518.836 203.173C521.951 213.752 529.669 221.511 538.656 227.075C545.396 231.248 580.015 234.336 587.941 234.336C592.142 234.336 793.133 230.93 793.133 226.73L793.133 10.1267L3.64396 10.1268L3.64398 226.73C3.64398 230.931 204.629 234.336 208.83 234.336Z" fill="#131313"/>
<path opacity="0.8594" d="M210.273 233.961C218.274 233.961 251.53 230.87 258.315 226.63C267.218 221.066 274.815 213.306 277.903 202.81C288.152 167.964 317.353 110.667 398.389 110.667C479.398 110.667 508.609 167.973 518.867 202.821C521.955 213.314 529.552 221.072 538.454 226.633C545.238 230.871 578.494 233.961 586.493 233.961C590.474 233.961 793.098 230.734 793.098 226.754L793.098 9.8175L3.67594 9.81757L3.67596 226.754C3.67596 230.735 206.294 233.961 210.273 233.961Z" fill="#121212"/>
<path opacity="0.8672" d="M211.72 233.586C219.793 233.586 251.687 230.496 258.516 226.189C267.333 220.627 274.809 212.868 277.87 202.459C288.115 167.629 317.319 110.292 398.389 110.292C479.431 110.292 508.645 167.637 518.899 202.47C521.962 212.877 529.437 220.632 538.254 226.191C545.082 230.497 576.976 233.586 585.048 233.586C588.807 233.586 793.064 230.539 793.064 226.78L793.064 9.51001L3.7092 9.51008L3.70922 226.78C3.70922 230.539 207.961 233.586 211.72 233.586Z" fill="#111111"/>
<path opacity="0.875" d="M213.166 233.211C221.313 233.211 251.845 230.122 258.717 225.747C267.449 220.187 274.803 212.431 277.839 202.108C288.08 167.293 317.286 109.918 398.39 109.918C479.466 109.918 508.683 167.301 518.931 202.12C521.969 212.439 529.323 220.193 538.054 225.751C544.926 230.124 575.458 233.212 583.602 233.212C587.14 233.212 793.031 230.344 793.031 226.806L793.031 9.20251L3.74313 9.20258L3.74315 226.806C3.74315 230.343 209.628 233.211 213.166 233.211Z" fill="#101010"/>
<path opacity="0.8828" d="M214.612 232.839C222.83 232.839 252.002 229.752 258.917 225.308C267.566 219.75 274.797 211.996 277.808 201.76C288.044 166.96 317.253 109.545 398.39 109.545C479.499 109.545 508.719 166.968 518.964 201.771C521.976 212.004 529.206 219.755 537.854 225.311C544.768 229.753 573.94 232.839 582.157 232.839C585.474 232.839 792.998 230.151 792.998 226.834L792.998 8.89685L3.77652 8.89692L3.77654 226.834C3.77654 230.15 211.295 232.839 214.612 232.839Z" fill="#0F0F0F"/>
<path opacity="0.8906" d="M216.057 232.463C224.349 232.463 252.161 229.379 259.117 224.866C267.682 219.308 274.79 211.558 277.775 201.408C288.007 166.623 317.219 109.17 398.39 109.17C479.533 109.17 508.756 166.631 518.996 201.42C521.982 211.566 529.09 219.314 537.655 224.869C544.61 229.38 572.422 232.463 580.711 232.463C583.807 232.463 792.965 229.954 792.965 226.858L792.965 8.58752L3.81027 8.58759L3.81029 226.858C3.80974 229.954 212.962 232.463 216.057 232.463Z" fill="#0E0E0E"/>
<path opacity="0.8984" d="M217.503 232.089C225.867 232.089 252.321 229.009 259.317 224.425C267.8 218.868 274.784 211.12 277.744 201.058C287.97 166.288 317.185 108.795 398.39 108.795C479.568 108.795 508.793 166.296 519.028 201.069C521.989 211.129 528.973 218.873 537.455 224.428C544.451 229.01 570.904 232.089 579.266 232.089C582.141 232.089 792.932 229.759 792.932 226.884L792.932 8.28015L3.84367 8.28022L3.84368 226.884C3.84368 229.759 214.629 232.089 217.503 232.089Z" fill="#0D0D0D"/>
<path opacity="0.9063" d="M218.95 231.715C227.387 231.715 252.481 228.639 259.518 223.984C267.918 218.428 274.778 210.684 277.712 200.707C287.934 165.953 317.153 108.421 398.391 108.421C479.602 108.421 508.83 165.961 519.061 200.719C521.996 210.692 528.856 218.433 537.255 223.987C544.291 228.64 569.386 231.714 577.82 231.714C580.473 231.714 792.898 229.563 792.898 226.91L792.898 7.97266L3.87751 7.97273L3.87753 226.91C3.87753 229.563 216.296 231.715 218.95 231.715Z" fill="#0C0C0C"/>
<path opacity="0.9141" d="M220.395 231.339C228.904 231.339 252.641 228.268 259.717 223.541C268.035 217.985 274.77 210.245 277.679 200.355C287.897 165.616 317.117 108.045 398.389 108.045C479.634 108.045 508.865 165.623 519.091 200.367C522.002 210.253 528.737 217.99 537.053 223.544C544.129 228.27 567.865 231.339 576.373 231.339C578.806 231.339 792.863 229.367 792.863 226.934L792.863 7.66345L3.90957 7.66352L3.90959 226.935C3.91014 229.367 217.962 231.339 220.395 231.339Z" fill="#0B0B0B"/>
<path opacity="0.9219" d="M221.841 230.966C230.424 230.966 252.803 227.902 259.919 223.102C268.155 217.545 274.765 209.81 277.648 200.007C287.862 165.282 317.085 107.672 398.391 107.672C479.669 107.672 508.903 165.289 519.125 200.018C522.009 209.818 528.619 217.551 536.855 223.105C543.969 227.903 566.348 230.966 574.929 230.966C577.14 230.966 792.832 229.173 792.832 226.962L792.832 7.35767L3.9447 7.35773L3.94472 226.962C3.94472 229.173 219.63 230.966 221.841 230.966Z" fill="#0A0A0A"/>
<path opacity="0.9297" d="M223.286 230.59C231.941 230.59 252.965 227.533 260.117 222.66C268.272 217.103 274.757 209.371 277.615 199.655C287.824 164.946 317.049 107.297 398.389 107.297C479.701 107.297 508.937 164.953 519.155 199.667C522.015 209.379 528.499 217.108 536.653 222.663C543.805 227.535 564.828 230.59 573.482 230.59C575.472 230.59 792.797 228.977 792.797 226.987L792.797 7.04846L3.97668 7.04853L3.9767 226.987C3.9767 228.977 221.296 230.59 223.286 230.59Z" fill="#090909"/>
<path opacity="0.9375" d="M224.731 230.215C233.459 230.215 253.128 227.166 260.317 222.217C268.392 216.659 274.75 208.933 277.583 199.303C287.788 164.61 317.016 106.921 398.389 106.921C479.735 106.921 508.975 164.617 519.188 199.315C522.022 208.942 528.379 216.665 536.453 222.221C543.642 227.168 563.31 230.215 572.036 230.215C573.805 230.215 792.764 228.782 792.764 227.012L792.764 6.74097L4.01016 6.74104L4.01018 227.012C4.01018 228.781 222.963 230.215 224.731 230.215Z" fill="#080808"/>
<path opacity="0.9453" d="M226.177 229.841C234.978 229.841 253.292 226.802 260.518 221.777C268.512 216.218 274.743 208.497 277.55 198.954C287.751 164.275 316.982 106.547 398.389 106.547C479.769 106.547 509.011 164.282 519.22 198.965C522.028 208.504 528.259 216.223 536.253 221.78C543.478 226.803 561.791 229.841 570.59 229.841C572.138 229.841 792.73 228.586 792.73 227.038L792.73 6.43347L4.04409 6.43354L4.04411 227.038C4.04356 228.587 224.629 229.841 226.177 229.841Z" fill="#070707"/>
<path opacity="0.9531" d="M227.623 229.467C236.496 229.467 253.457 226.438 260.718 221.336C268.633 215.775 274.737 208.059 277.519 198.603C287.715 163.939 316.949 106.173 398.39 106.173C479.803 106.173 509.047 163.947 519.252 198.615C522.035 208.068 528.138 215.781 536.053 221.339C543.313 226.439 560.273 229.467 569.145 229.467C570.471 229.467 792.697 228.391 792.697 227.065L792.697 6.12598L4.0774 6.12605L4.07742 227.065C4.07742 228.391 226.296 229.467 227.623 229.467Z" fill="#060606"/>
<path opacity="0.9609" d="M229.069 229.092C238.016 229.092 253.624 226.074 260.919 220.895C268.755 215.332 274.731 207.623 277.487 198.253C287.678 163.604 316.915 105.798 398.39 105.798C479.837 105.798 509.084 163.611 519.285 198.264C522.042 207.631 528.018 215.338 535.854 220.898C543.148 226.075 558.755 229.092 567.7 229.092C568.805 229.092 792.664 228.196 792.664 227.09L792.664 5.8186L4.11128 5.81867L4.1113 227.09C4.11185 228.196 227.964 229.092 229.069 229.092Z" fill="#050505"/>
<path opacity="0.9688" d="M230.515 228.718C239.533 228.718 253.79 225.712 261.118 220.455C268.876 214.889 274.724 207.186 277.455 197.903C287.642 163.269 316.881 105.425 398.39 105.425C479.871 105.425 509.121 163.277 519.316 197.915C522.048 207.195 527.896 214.895 535.653 220.458C542.981 225.713 557.237 228.718 566.254 228.718C567.138 228.718 792.631 228.001 792.631 227.117L792.631 5.51111L4.14468 5.51118L4.1447 227.117C4.14415 228.001 229.63 228.718 230.515 228.718Z" fill="#040404"/>
<path opacity="0.9766" d="M231.961 228.344C241.053 228.344 253.959 225.35 261.319 220.013C269 214.444 274.718 206.748 277.423 197.552C287.606 162.933 316.848 105.05 398.39 105.05C479.905 105.05 509.157 162.941 519.349 197.564C522.055 206.757 527.774 214.45 535.453 220.017C542.814 225.351 555.718 228.344 564.808 228.344C565.472 228.344 792.598 227.806 792.598 227.143L792.598 5.20361L4.17852 5.20368L4.17854 227.143C4.17854 227.806 231.297 228.344 231.961 228.344Z" fill="#030303"/>
<path opacity="0.9844" d="M233.405 227.968C242.57 227.968 254.126 224.988 261.519 219.571C269.122 213.999 274.711 206.31 277.39 197.201C287.568 162.597 316.813 104.674 398.389 104.674C479.938 104.674 509.193 162.604 519.38 197.212C522.06 206.319 527.649 214.004 535.252 219.574C542.643 224.989 554.198 227.967 563.361 227.967C563.803 227.967 792.563 227.609 792.563 227.167L792.562 4.89441L4.21023 4.89448L4.21025 227.167C4.2108 227.61 232.963 227.968 233.405 227.968Z" fill="#020202"/>
<path opacity="0.9922" d="M234.851 227.593C244.088 227.593 254.295 224.627 261.718 219.129C269.245 213.553 274.704 205.872 277.357 196.849C287.531 162.26 316.779 104.299 398.389 104.299C479.971 104.299 509.229 162.268 519.412 196.861C522.067 205.881 527.525 213.559 535.052 219.132C542.474 224.628 552.68 227.593 561.915 227.593C562.136 227.593 792.529 227.413 792.529 227.192L792.529 4.58691L4.24363 4.58698L4.24365 227.193C4.24365 227.414 234.629 227.593 234.851 227.593Z" fill="#010101"/>
<path d="M236.297 227.219C245.607 227.219 254.467 224.269 261.919 218.688C269.37 213.108 274.697 205.436 277.326 196.499C287.495 161.926 316.745 103.925 398.389 103.925C480.005 103.925 509.266 161.933 519.444 196.511C522.073 205.444 527.402 213.114 534.852 218.692C542.303 224.27 551.162 227.219 560.47 227.219L792.496 227.219L792.496 4.27942L4.27702 4.27949L4.27704 227.219L236.297 227.219Z" fill="black"/>
</g>
<path d="M-0.000497673 0.000606731L-0.000477435 231.497L236.298 231.497C257.175 231.497 275.54 217.736 281.431 197.706C292.168 161.205 321.07 108.203 398.39 108.203C475.686 108.203 504.596 161.216 515.34 197.718C521.234 217.742 539.598 231.497 560.47 231.497L796.775 231.497L796.775 0L-0.000497673 0.000606731Z" fill="white"/>
<g clip-path="url(#clip0_45_34)">
<path d="M348.559 240.78L356.026 230.168C356.117 220.22 358.355 212.233 362.681 206.424C368.213 198.995 377.045 195.228 388.932 195.228C401.09 195.228 410.302 197.71 416.309 202.605C421.924 207.18 424.771 213.797 424.771 222.271C424.771 236.44 415.967 256.207 414.376 259.305L414.376 294.984C414.376 296.081 413.486 296.971 412.389 296.971C411.291 296.971 410.401 296.081 410.401 294.984L410.401 258.819C410.401 258.495 410.481 258.176 410.633 257.889C410.734 257.697 420.797 236.54 420.797 222.271C420.797 215.05 418.443 209.47 413.799 205.686C408.519 201.384 400.152 199.202 388.932 199.202C378.37 199.202 370.61 202.431 365.869 208.798C361.973 214.029 359.998 221.432 359.998 230.801C359.998 231.211 359.871 231.61 359.636 231.945L351.809 243.067C351.57 243.407 351.63 243.741 351.687 243.91C351.744 244.079 351.899 244.38 352.295 244.506L358.609 246.5C359.436 246.761 359.998 247.528 359.998 248.395L359.998 262.583C359.998 265.182 362.112 267.296 364.71 267.296L379.335 267.296C384.04 267.296 388.01 262.319 388.01 259.692C388.01 258.595 388.9 257.705 389.998 257.705C391.095 257.705 391.985 258.595 391.985 259.692C391.985 262.119 390.567 265.635 388.192 267.764C385.67 270.025 382.525 271.271 379.335 271.271L378.124 271.271L378.124 294.984C378.124 296.081 377.234 296.971 376.137 296.971C375.039 296.971 374.15 296.081 374.15 294.984L374.15 271.271L364.71 271.271C359.921 271.271 356.023 267.373 356.023 262.583L356.023 249.851L351.098 248.296C349.587 247.818 348.429 246.684 347.922 245.182C347.415 243.681 347.647 242.076 348.559 240.78Z" fill="white"/>
<path d="M423.675 269.234L433.914 269.234C436.129 269.234 437.931 267.432 437.931 265.217L437.931 251.882C437.931 251.015 438.494 250.249 439.32 249.987L444.979 248.201C445.247 248.116 445.351 247.912 445.39 247.798C445.429 247.683 445.469 247.457 445.307 247.227L438.293 237.26C438.058 236.925 437.931 236.526 437.931 236.116C437.931 222.75 433.486 214.051 424.718 210.261C423.711 209.826 423.247 208.656 423.683 207.649C424.118 206.641 425.288 206.178 426.295 206.613C431.919 209.044 436.091 213.184 438.695 218.919C440.758 223.464 441.836 229.033 441.903 235.483L448.558 244.94C449.413 246.156 449.631 247.661 449.155 249.07C448.679 250.478 447.593 251.543 446.175 251.991L441.906 253.339L441.906 265.217C441.906 269.624 438.321 273.209 433.914 273.209L425.662 273.209L425.662 294.984C425.662 296.081 424.772 296.971 423.675 296.971C422.577 296.971 421.687 296.081 421.687 294.984L421.687 271.221C421.687 270.124 422.577 269.234 423.675 269.234Z" fill="white"/>
<path d="M396.839 239.759C396.839 240.857 395.949 241.746 394.851 241.746C393.754 241.746 392.864 240.857 392.864 239.759L392.864 237.408C392.864 236.704 393.237 236.052 393.845 235.695C396.132 234.35 397.553 231.871 397.553 229.224C397.553 225.087 394.188 221.722 390.051 221.722C385.915 221.722 382.549 225.087 382.549 229.224C382.549 231.871 383.97 234.351 386.258 235.695C386.865 236.052 387.238 236.704 387.238 237.408L387.238 239.759C387.238 240.857 386.348 241.746 385.251 241.746C384.154 241.746 383.264 240.857 383.264 239.759L383.264 238.475C380.346 236.327 378.575 232.88 378.575 229.224C378.575 222.896 383.723 217.748 390.051 217.748C396.379 217.748 401.527 222.896 401.527 229.224C401.527 232.88 399.756 236.327 396.839 238.475L396.839 239.759Z" fill="white"/>
<path d="M382.143 245.494C382.143 244.397 383.033 243.507 384.13 243.507L395.825 243.507C396.923 243.507 397.812 244.397 397.812 245.494C397.812 246.592 396.923 247.482 395.825 247.482L384.13 247.482C383.032 247.482 382.143 246.592 382.143 245.494Z" fill="white"/>
<path d="M384.511 251.827C384.511 250.73 385.4 249.84 386.498 249.84L393.679 249.84C394.776 249.84 395.666 250.73 395.666 251.827C395.666 252.925 394.776 253.815 393.679 253.815L386.498 253.815C385.4 253.815 384.511 252.925 384.511 251.827Z" fill="white"/>
<path d="M413.697 230.508C413.697 231.605 412.808 232.495 411.71 232.495L405.284 232.495C404.186 232.495 403.297 231.605 403.297 230.508C403.297 229.41 404.186 228.521 405.284 228.521L411.71 228.521C412.808 228.521 413.697 229.41 413.697 230.508Z" fill="white"/>
<path d="M366.394 230.508C366.394 229.41 367.284 228.521 368.382 228.521L374.808 228.521C375.905 228.521 376.795 229.41 376.795 230.508C376.795 231.605 375.905 232.495 374.808 232.495L368.382 232.495C367.284 232.495 366.394 231.605 366.394 230.508Z" fill="white"/>
<path d="M402.225 239.877L406.769 244.421C407.545 245.197 407.546 246.456 406.769 247.232C406.381 247.62 405.873 247.814 405.364 247.814C404.856 247.814 404.347 247.62 403.959 247.232L399.415 242.688C398.639 241.912 398.639 240.653 399.415 239.878C400.191 239.102 401.449 239.101 402.225 239.877Z" fill="white"/>
<path d="M376.132 213.784L380.676 218.328C381.452 219.104 381.452 220.363 380.676 221.139C380.288 221.527 379.779 221.721 379.271 221.721C378.762 221.721 378.254 221.526 377.866 221.139L373.322 216.594C372.546 215.818 372.546 214.56 373.322 213.784C374.098 213.008 375.356 213.008 376.132 213.784Z" fill="white"/>
<path d="M388.059 215.27L388.059 208.844C388.059 207.747 388.949 206.857 390.046 206.857C391.143 206.857 392.033 207.747 392.033 208.844L392.033 215.27C392.033 216.368 391.143 217.258 390.046 217.258C388.949 217.258 388.059 216.368 388.059 215.27Z" fill="white"/>
<path d="M380.676 239.877C381.452 240.653 381.452 241.912 380.676 242.688L376.132 247.232C375.744 247.62 375.235 247.814 374.727 247.814C374.218 247.814 373.71 247.62 373.322 247.232C372.546 246.456 372.546 245.197 373.322 244.421L377.866 239.877C378.641 239.101 379.899 239.101 380.676 239.877Z" fill="white"/>
<path d="M400.82 221.72C400.312 221.72 399.803 221.526 399.415 221.138C398.639 220.362 398.639 219.104 399.415 218.328L403.959 213.784C404.735 213.008 405.994 213.008 406.77 213.784C407.546 214.56 407.546 215.818 406.77 216.594L402.225 221.138C401.837 221.526 401.329 221.72 400.82 221.72Z" fill="white"/>
</g>
<defs>
<clipPath id="clip0_45_34">
<rect width="101.744" height="101.744" fill="white" transform="matrix(-1 -8.74228e-08 -8.74228e-08 1 449.402 195.228)"/>
</clipPath>
</defs>
</svg>
