<svg width="712" height="1450" viewBox="0 0 712 1450" fill="none" xmlns="http://www.w3.org/2000/svg">
<path d="M0.83473 725.24C0.834726 803.121 31.1628 876.34 86.2328 931.409C141.302 986.479 214.522 1016.81 292.403 1016.81C370.284 1016.81 443.503 986.479 498.573 931.409C553.643 876.339 583.971 803.12 583.971 725.24C583.971 647.36 553.642 574.14 498.573 519.07C443.503 464 370.284 433.671 292.403 433.671C214.522 433.671 141.302 464 86.2328 519.07C31.1628 574.141 0.834733 647.359 0.83473 725.24Z" fill="#898787"/>
<g opacity="0.26">
<path opacity="0.01" d="M213.168 102.402C213.168 102.534 213.21 435.093 213.289 435.199C213.367 472.81 238.199 505.877 274.306 516.497C340.368 535.928 436.402 588.263 436.402 728.318C436.402 868.33 340.346 920.679 274.284 940.124C238.187 950.749 213.368 983.814 213.289 1021.42C213.21 1021.52 213.168 1354.09 213.168 1354.23C213.168 1405.07 254.385 1449.57 305.229 1449.57L632.191 1449.57L632.191 7.05971L305.229 7.05969C254.385 7.06068 213.168 51.5591 213.168 102.402Z" fill="#7F7F7F"/>
<path opacity="0.0156" d="M213.848 105.02C213.848 105.283 213.932 435.35 214.089 435.562C214.248 472.982 238.991 505.865 274.942 516.439C340.978 535.862 437.082 588.202 437.082 728.318C437.082 868.391 340.956 920.745 274.92 940.182C238.98 950.761 214.248 983.641 214.089 1021.05C213.932 1021.26 213.848 1351.34 213.848 1351.61C213.848 1402.05 254.741 1449.51 305.184 1449.51L632.75 1449.51L632.75 7.12152L305.184 7.12151C254.74 7.1215 213.848 54.5773 213.848 105.02Z" fill="#7E7E7E"/>
<path opacity="0.0234" d="M214.526 107.638C214.526 108.033 214.652 435.608 214.889 435.924C215.126 473.154 239.784 505.853 275.577 516.381C341.585 535.796 437.761 588.14 437.761 728.318C437.761 868.452 341.564 920.81 275.555 940.241C239.772 950.774 215.126 983.469 214.889 1020.69C214.652 1021.01 214.527 1348.6 214.527 1348.99C214.527 1399.03 255.094 1449.45 305.138 1449.45L633.309 1449.45L633.309 7.18313L305.138 7.18311C255.094 7.18112 214.526 57.5952 214.526 107.638Z" fill="#7D7D7D"/>
<path opacity="0.0313" d="M215.205 110.256C215.205 110.783 215.372 435.865 215.687 436.287C216.003 473.328 240.575 505.842 276.212 516.324C342.192 535.732 438.438 588.081 438.438 728.319C438.438 868.514 342.171 920.878 276.19 940.299C240.563 950.786 216.003 983.297 215.687 1020.33C215.372 1020.75 215.205 1345.85 215.205 1346.37C215.205 1396.02 255.449 1449.39 305.091 1449.39L633.865 1449.39L633.865 7.24293L305.092 7.24291C255.448 7.24191 215.205 60.6135 215.205 110.256Z" fill="#7C7C7C"/>
<path opacity="0.0391" d="M215.882 112.873C215.882 113.531 216.09 436.121 216.485 436.649C216.879 473.5 241.366 505.829 276.845 516.265C342.798 535.664 439.115 588.018 439.115 728.318C439.115 868.574 342.778 920.943 276.823 940.356C241.353 950.797 216.879 983.124 216.484 1019.97C216.09 1020.49 215.881 1343.1 215.881 1343.75C215.881 1393 255.8 1449.33 305.042 1449.33L634.42 1449.33L634.42 7.30276L305.042 7.30274C255.801 7.30274 215.882 63.6307 215.882 112.873Z" fill="#7B7B7B"/>
<path opacity="0.0469" d="M216.559 115.491C216.559 116.281 216.809 436.379 217.283 437.011C217.757 473.672 242.157 505.817 277.479 516.207C343.405 535.598 439.792 587.957 439.792 728.318C439.792 868.636 343.384 921.009 277.457 940.415C242.145 950.809 217.756 982.952 217.283 1019.6C216.81 1020.24 216.559 1340.35 216.559 1341.14C216.559 1389.98 256.153 1449.27 304.995 1449.27L634.977 1449.27L634.977 7.36348L304.995 7.36346C256.153 7.36346 216.559 66.6488 216.559 115.491Z" fill="#7A7A7A"/>
<path opacity="0.0547" d="M217.238 118.108C217.238 119.031 217.53 436.636 218.082 437.374C218.635 473.844 242.948 505.805 278.114 516.149C344.014 535.533 440.472 587.896 440.472 728.318C440.472 868.697 343.993 921.075 278.093 940.473C242.936 950.821 218.635 982.779 218.082 1019.24C217.53 1019.98 217.238 1337.6 217.238 1338.52C217.238 1386.96 256.508 1449.2 304.949 1449.2L635.535 1449.2L635.535 7.42423L304.949 7.42422C256.508 7.42422 217.238 69.667 217.238 118.108Z" fill="#797979"/>
<path opacity="0.0625" d="M217.917 120.726C217.917 121.78 218.251 436.894 218.882 437.736C219.513 474.018 243.741 505.793 278.75 516.09C344.621 535.466 441.15 587.835 441.15 728.318C441.15 868.757 344.6 921.141 278.727 940.53C243.728 950.833 219.511 982.606 218.881 1018.88C218.25 1019.72 217.916 1334.85 217.916 1335.9C217.916 1383.94 256.861 1449.14 304.902 1449.14L636.092 1449.14L636.092 7.4829L304.902 7.48289C256.862 7.48388 217.917 72.685 217.917 120.726Z" fill="#787878"/>
<path opacity="0.0703" d="M218.596 123.343C218.596 124.528 218.972 437.15 219.682 438.099C220.392 474.19 244.535 505.781 279.386 516.033C345.23 535.4 441.83 587.774 441.83 728.318C441.83 868.819 345.21 921.207 279.364 940.589C244.523 950.844 220.391 982.434 219.681 1018.52C218.972 1019.47 218.596 1332.1 218.596 1333.28C218.596 1380.92 257.217 1449.08 304.858 1449.08L636.65 1449.08L636.65 7.54479L304.858 7.54477C257.217 7.54477 218.596 75.7033 218.596 123.343Z" fill="#777777"/>
<path opacity="0.0781" d="M219.272 125.961C219.272 127.278 219.689 437.407 220.479 438.461C221.269 474.362 245.324 505.769 280.019 515.975C345.836 535.334 442.507 587.713 442.507 728.318C442.507 868.88 345.816 921.274 279.997 940.647C245.312 950.856 221.268 982.262 220.479 1018.15C219.69 1019.21 219.273 1329.35 219.273 1330.67C219.273 1377.91 257.569 1449.02 304.81 1449.02L637.207 1449.02L637.207 7.60438L304.81 7.60436C257.568 7.60536 219.272 78.7202 219.272 125.961Z" fill="#767676"/>
<path opacity="0.0859" d="M219.951 128.579C219.951 130.028 220.41 437.665 221.279 438.824C222.147 474.534 246.116 505.757 280.655 515.917C346.444 535.269 443.185 587.652 443.185 728.319C443.185 868.942 346.423 921.34 280.633 940.706C246.104 950.869 222.146 982.089 221.279 1017.79C220.41 1018.95 219.951 1326.6 219.951 1328.05C219.951 1374.89 257.922 1448.96 304.763 1448.96L637.764 1448.96L637.764 7.66619L304.763 7.66618C257.923 7.66618 219.951 81.7385 219.951 128.579Z" fill="#757575"/>
<path opacity="0.0938" d="M220.63 131.197C220.63 132.777 221.131 437.921 222.078 439.186C223.025 474.708 246.908 505.746 281.29 515.858C347.053 535.202 443.864 587.591 443.864 728.318C443.864 869.002 347.032 921.406 281.268 940.763C246.896 950.88 223.024 981.917 222.078 1017.43C221.131 1018.69 220.63 1323.85 220.63 1325.43C220.63 1371.87 258.277 1448.9 304.717 1448.9L638.322 1448.9L638.322 7.72594L304.717 7.72592C258.277 7.72692 220.63 84.7565 220.63 131.197Z" fill="#747474"/>
<path opacity="0.1016" d="M221.308 133.814C221.308 135.525 221.85 438.177 222.876 439.548C223.901 474.879 247.699 505.733 281.923 515.8C347.658 535.134 444.541 587.528 444.541 728.317C444.541 869.062 347.638 921.471 281.901 940.82C247.687 950.891 223.901 981.743 222.875 1017.07C221.849 1018.44 221.307 1321.1 221.307 1322.81C221.307 1368.85 258.628 1448.84 304.668 1448.84L638.877 1448.84L638.877 7.78462L304.668 7.78461C258.63 7.7866 221.308 87.7749 221.308 133.814Z" fill="#737373"/>
<path opacity="0.1094" d="M221.986 136.431C221.986 138.276 222.57 438.435 223.675 439.911C224.78 475.052 248.491 505.723 282.558 515.743C348.266 535.069 445.218 587.468 445.218 728.319C445.218 869.126 348.245 921.538 282.536 940.88C248.478 950.905 224.778 981.573 223.674 1016.71C222.569 1018.18 221.985 1318.35 221.985 1320.2C221.985 1365.84 258.982 1448.78 304.621 1448.78L639.434 1448.78L639.434 7.84841L304.622 7.84839C258.983 7.84739 221.986 90.7929 221.986 136.431Z" fill="#727272"/>
<path opacity="0.1172" d="M222.664 139.049C222.664 141.025 223.29 438.692 224.474 440.273C225.658 475.225 249.282 505.71 283.193 515.685C348.873 535.004 445.897 587.407 445.897 728.319C445.897 869.186 348.853 921.605 283.171 940.938C249.27 950.916 225.656 981.399 224.473 1016.34C223.289 1017.92 222.664 1315.6 222.664 1317.58C222.664 1362.82 259.336 1448.72 304.576 1448.72L639.992 1448.72L639.992 7.90911L304.576 7.9091C259.337 7.9081 222.664 93.81 222.664 139.049Z" fill="#717171"/>
<path opacity="0.125" d="M223.343 141.667C223.343 143.774 224.01 438.949 225.274 440.636C226.536 475.398 250.075 505.699 283.829 515.626C349.482 534.937 446.578 587.346 446.578 728.318C446.578 869.246 349.462 921.67 283.807 940.995C250.063 950.928 226.535 981.227 225.274 1015.98C224.011 1017.67 223.344 1312.85 223.344 1314.96C223.344 1359.8 259.692 1448.66 304.531 1448.66L640.551 1448.66L640.551 7.96983L304.531 7.96982C259.692 7.96882 223.343 96.8281 223.343 141.667Z" fill="#707070"/>
<path opacity="0.1328" d="M224.021 144.284C224.021 146.522 224.73 439.206 226.072 440.997C227.413 475.569 250.867 505.686 284.463 515.568C350.09 534.87 447.255 587.284 447.255 728.317C447.255 869.307 350.069 921.735 284.441 941.052C250.855 950.939 227.412 981.053 226.071 1015.62C224.73 1017.41 224.021 1310.1 224.021 1312.34C224.021 1356.78 260.045 1448.6 304.483 1448.6L641.107 1448.6L641.107 8.02758L304.483 8.02756C260.045 8.02856 224.021 99.8462 224.021 144.284Z" fill="#6F6F6F"/>
<path opacity="0.1406" d="M224.699 146.902C224.699 149.272 225.45 439.463 226.871 441.361C228.292 475.742 251.658 505.675 285.098 515.511C350.696 534.806 447.933 587.224 447.933 728.319C447.933 869.37 350.676 921.803 285.076 941.112C251.645 950.952 228.29 980.881 226.87 1015.26C225.45 1017.15 224.699 1307.36 224.699 1309.73C224.699 1353.76 260.399 1448.54 304.436 1448.54L641.664 1448.54L641.664 8.09035L304.436 8.09033C260.399 8.08933 224.699 102.864 224.699 146.902Z" fill="#6E6E6E"/>
<path opacity="0.1484" d="M225.376 149.52C225.376 152.022 226.169 439.721 227.668 441.723C229.168 475.916 252.448 505.663 285.731 515.452C351.303 534.739 448.609 587.162 448.609 728.318C448.609 869.429 351.282 921.868 285.709 941.17C252.436 950.964 229.166 980.709 227.667 1014.89C226.169 1016.9 225.376 1304.61 225.376 1307.11C225.376 1350.74 260.751 1448.48 304.388 1448.48L642.221 1448.48L642.221 8.15006L304.388 8.15005C260.751 8.15004 225.376 105.883 225.376 149.52Z" fill="#6D6D6D"/>
<path opacity="0.1563" d="M226.054 152.137C226.054 154.771 226.889 439.978 228.468 442.086C230.046 476.088 253.24 505.651 286.366 515.394C351.911 534.673 449.288 587.102 449.288 728.318C449.288 869.491 351.89 921.934 286.344 941.227C253.228 950.975 230.044 980.536 228.467 1014.53C226.889 1016.64 226.054 1301.86 226.054 1304.49C226.054 1347.73 261.105 1448.42 304.342 1448.42L642.777 1448.42L642.777 8.21087L304.342 8.21085C261.104 8.21085 226.054 108.9 226.054 152.137Z" fill="#6C6C6C"/>
<path opacity="0.1641" d="M226.735 154.754C226.735 157.519 227.611 440.234 229.269 442.447C230.926 476.259 254.034 505.638 287.003 515.336C352.519 534.606 449.968 587.04 449.968 728.318C449.968 869.552 352.5 922 286.981 941.285C254.021 950.987 230.924 980.364 229.267 1014.17C227.61 1016.38 226.733 1299.11 226.733 1301.87C226.733 1344.71 261.459 1448.36 304.296 1448.36L643.336 1448.36L643.336 8.27159L304.297 8.27157C261.46 8.27157 226.735 111.918 226.735 154.754Z" fill="#6B6B6B"/>
<path opacity="0.1719" d="M227.412 157.372C227.412 160.27 228.33 440.491 230.066 442.811C231.803 476.432 254.825 505.627 287.637 515.278C353.127 534.541 450.645 586.978 450.645 728.318C450.645 869.613 353.106 922.066 287.615 941.344C254.812 951 231.801 980.191 230.065 1013.81C228.33 1016.13 227.412 1296.36 227.412 1299.25C227.412 1341.69 261.813 1448.3 304.249 1448.3L643.893 1448.3L643.893 8.33127L304.249 8.33125C261.813 8.33125 227.412 114.936 227.412 157.372Z" fill="#6A6A6A"/>
<path opacity="0.1797" d="M228.092 159.99C228.092 163.019 229.052 440.748 230.867 443.173C232.682 476.606 255.617 505.615 288.273 515.22C353.735 534.475 451.325 586.918 451.325 728.318C451.325 869.674 353.715 922.132 288.251 941.402C255.605 951.011 232.68 980.019 230.866 1013.44C229.051 1015.87 228.092 1293.61 228.092 1296.64C228.092 1338.67 262.168 1448.24 304.204 1448.24L644.451 1448.24L644.451 8.3921L304.204 8.39209C262.168 8.39209 228.092 117.954 228.092 159.99Z" fill="#696969"/>
<path opacity="0.1875" d="M228.768 162.608C228.768 165.768 229.77 441.005 231.663 443.536C233.557 476.778 256.407 505.603 288.905 515.162C354.341 534.409 452.001 586.857 452.001 728.319C452.001 869.736 354.321 922.2 288.884 941.46C256.395 951.024 233.555 979.847 231.662 1013.08C229.768 1015.61 228.768 1290.86 228.768 1294.02C228.768 1335.65 262.52 1448.18 304.155 1448.18L645.006 1448.18L645.006 8.45291L304.155 8.4529C262.52 8.4529 228.768 120.972 228.768 162.608Z" fill="#686868"/>
<path opacity="0.1953" d="M229.445 165.225C229.445 168.517 230.489 441.262 232.462 443.897C234.436 476.949 257.199 505.59 289.54 515.103C354.948 534.342 452.679 586.795 452.679 728.318C452.679 869.797 354.928 922.264 289.518 941.517C257.186 951.035 234.433 979.674 232.46 1012.72C230.487 1015.35 229.445 1288.11 229.445 1291.4C229.445 1332.64 262.872 1448.11 304.108 1448.11L645.562 1448.11L645.563 8.51242L304.108 8.5124C262.872 8.51339 229.445 123.989 229.445 165.225Z" fill="#676767"/>
<path opacity="0.2031" d="M230.125 167.843C230.125 171.266 231.209 441.519 233.263 444.259C235.315 477.121 257.992 505.578 290.176 515.045C355.557 534.276 453.359 586.733 453.359 728.317C453.359 869.857 355.538 922.329 290.154 941.575C257.979 951.046 235.312 979.5 233.261 1012.36C231.209 1015.1 230.125 1285.36 230.125 1288.78C230.125 1329.62 263.228 1448.05 304.063 1448.05L646.121 1448.05L646.121 8.57331L304.063 8.57329C263.228 8.57329 230.125 127.008 230.125 167.843Z" fill="#666666"/>
<path opacity="0.2109" d="M230.802 170.46C230.802 174.016 231.928 441.776 234.06 444.623C236.191 477.296 258.783 505.568 290.81 514.988C356.164 534.211 454.036 586.674 454.036 728.319C454.036 869.919 356.144 922.398 290.788 941.635C258.77 951.06 236.189 979.33 234.059 1011.99C231.928 1014.84 230.802 1282.61 230.802 1286.17C230.802 1326.6 263.58 1447.99 304.015 1447.99L646.678 1447.99L646.678 8.63415L304.015 8.63414C263.581 8.63413 230.802 130.026 230.802 170.46Z" fill="#656565"/>
<path opacity="0.2188" d="M231.48 173.078C231.48 176.765 232.648 442.034 234.859 444.985C237.069 477.468 259.574 505.556 291.445 514.93C356.77 534.145 454.714 586.613 454.714 728.319C454.714 869.981 356.751 922.463 291.423 941.693C259.562 951.071 237.067 979.157 234.858 1011.63C232.648 1014.58 231.48 1279.86 231.48 1283.55C231.48 1323.58 263.934 1447.93 303.968 1447.93L647.234 1447.93L647.234 8.69471L303.968 8.6947C263.935 8.6947 231.48 133.044 231.48 173.078Z" fill="#646464"/>
<path opacity="0.2266" d="M232.158 175.695C232.158 179.514 233.368 442.29 235.657 445.347C237.947 477.639 260.365 505.543 292.079 514.872C357.378 534.079 455.392 586.551 455.392 728.318C455.392 870.041 357.359 922.529 292.057 941.75C260.352 951.083 237.944 978.984 235.655 1011.27C233.367 1014.33 232.157 1277.11 232.157 1280.93C232.157 1320.56 264.286 1447.87 303.92 1447.87L647.791 1447.87L647.791 8.75563L303.921 8.75561C264.288 8.75561 232.158 136.062 232.158 175.695Z" fill="#636363"/>
<path opacity="0.2344" d="M232.839 178.313C232.839 182.264 234.09 442.547 236.458 445.709C238.826 477.812 261.159 505.531 292.715 514.813C357.987 534.012 456.071 586.489 456.071 728.318C456.071 870.102 357.967 922.595 292.693 941.808C261.146 951.094 238.823 978.811 236.456 1010.91C234.089 1014.07 232.837 1274.36 232.837 1278.31C232.837 1317.55 264.643 1447.81 303.876 1447.81L648.35 1447.81L648.35 8.81626L303.876 8.81625C264.643 8.81625 232.839 139.079 232.839 178.313Z" fill="#626262"/>
<path opacity="0.2422" d="M233.516 180.931C233.516 185.013 234.809 442.805 237.257 446.072C239.703 477.985 261.95 505.519 293.35 514.755C358.594 533.945 456.749 586.428 456.749 728.318C456.749 870.163 358.575 922.661 293.328 941.866C261.936 951.105 239.7 978.638 237.255 1010.54C234.808 1013.81 233.516 1271.61 233.516 1275.69C233.516 1314.53 264.996 1447.75 303.829 1447.75L648.906 1447.75L648.906 8.87498L303.829 8.87496C264.995 8.87596 233.516 142.097 233.516 180.931Z" fill="#616161"/>
<path opacity="0.25" d="M234.194 183.549C234.194 187.763 235.529 443.062 238.055 446.435C240.581 478.158 262.741 505.508 293.985 514.698C359.202 533.881 457.428 586.368 457.428 728.319C457.428 870.225 359.183 922.728 293.963 941.926C262.729 951.119 240.579 978.468 238.054 1010.18C235.529 1013.56 234.195 1268.87 234.195 1273.08C234.195 1311.51 265.351 1447.69 303.783 1447.69L649.465 1447.69L649.465 8.93682L303.783 8.9368C265.349 8.9368 234.194 145.115 234.194 183.549Z" fill="#606060"/>
<path opacity="0.2578" d="M234.871 186.165C234.871 190.511 236.248 443.318 238.853 446.797C241.458 478.329 263.532 505.496 294.618 514.639C359.809 533.813 458.105 586.305 458.105 728.317C458.105 870.284 359.788 922.792 294.596 941.981C263.519 951.129 241.455 978.293 238.851 1009.82C236.247 1013.3 234.871 1266.11 234.871 1270.46C234.871 1308.49 265.702 1447.63 303.734 1447.63L650.02 1447.63L650.02 8.99661L303.734 8.9966C265.702 8.99759 234.871 148.133 234.871 186.165Z" fill="#5F5F5F"/>
<path opacity="0.2656" d="M235.55 188.783C235.55 193.26 236.969 443.575 239.652 447.159C242.336 478.502 264.324 505.483 295.254 514.581C360.416 533.747 458.783 586.244 458.783 728.318C458.783 870.347 360.397 922.859 295.232 942.04C264.311 951.141 242.333 978.121 239.65 1009.46C236.968 1013.04 235.55 1263.36 235.55 1267.84C235.55 1305.47 266.057 1447.57 303.688 1447.57L650.578 1447.57L650.578 9.0581L303.689 9.05808C266.057 9.05808 235.55 151.152 235.55 188.783Z" fill="#5E5E5E"/>
<path opacity="0.2734" d="M236.228 191.401C236.228 196.01 237.688 443.832 240.451 447.522C243.213 478.675 265.116 505.472 295.888 514.523C361.023 533.681 459.462 586.184 459.462 728.318C459.462 870.407 361.004 922.925 295.867 942.099C265.103 951.154 243.211 977.949 240.45 1009.1C237.688 1012.78 236.228 1260.62 236.228 1265.22C236.228 1302.45 266.41 1447.51 303.642 1447.51L651.135 1447.51L651.135 9.11899L303.642 9.11897C266.41 9.11798 236.228 154.169 236.228 191.401Z" fill="#5D5D5D"/>
<path opacity="0.2813" d="M236.907 194.019C236.907 198.76 238.409 444.09 241.252 447.885C244.093 478.848 265.909 505.461 296.524 514.466C361.632 533.617 460.141 586.124 460.141 728.319C460.141 870.47 361.613 922.992 296.502 942.158C265.895 951.166 244.089 977.778 241.25 1008.73C238.409 1012.53 236.907 1257.87 236.907 1262.61C236.907 1299.44 266.765 1447.45 303.597 1447.45L651.693 1447.45L651.693 9.17971L303.597 9.17969C266.765 9.1787 236.907 157.187 236.907 194.019Z" fill="#5C5C5C"/>
<path opacity="0.2891" d="M237.586 196.636C237.586 201.508 239.13 444.346 242.051 448.246C244.972 479.019 266.701 505.448 297.16 514.407C362.241 533.549 460.821 586.061 460.821 728.318C460.821 870.53 362.222 923.057 297.138 942.214C266.689 951.177 244.969 977.603 242.049 1008.37C239.13 1012.27 237.586 1255.12 237.586 1259.99C237.586 1296.42 267.119 1447.39 303.551 1447.39L652.252 1447.39L652.252 9.23939L303.551 9.23937C267.119 9.23937 237.586 160.205 237.586 196.636Z" fill="#5B5B5B"/>
<path opacity="0.2969" d="M238.262 199.254C238.262 204.258 239.848 444.603 242.848 448.609C245.847 479.193 267.491 505.436 297.793 514.349C362.845 533.483 461.496 586 461.496 728.318C461.496 870.591 362.826 923.124 297.771 942.272C267.478 951.189 245.844 977.43 242.846 1008.01C239.848 1012.01 238.262 1252.37 238.262 1257.37C238.262 1293.4 267.471 1447.33 303.502 1447.33L652.807 1447.33L652.807 9.29931L303.502 9.29929C267.472 9.30029 238.262 163.223 238.262 199.254Z" fill="#5A5A5A"/>
<path opacity="0.3047" d="M238.94 201.871C238.94 207.007 240.567 444.861 243.645 448.971C246.723 479.365 268.282 505.424 298.426 514.291C363.452 533.417 462.173 585.939 462.173 728.318C462.173 870.652 363.433 923.189 298.404 942.331C268.269 951.201 246.72 977.259 243.644 1007.65C240.566 1011.76 238.94 1249.62 238.94 1254.75C238.94 1290.38 267.823 1447.27 303.455 1447.27L653.363 1447.27L653.363 9.36094L303.455 9.36092C267.824 9.36092 238.94 166.24 238.94 201.871Z" fill="#595959"/>
<path opacity="0.3125" d="M239.619 204.489C239.619 209.757 241.287 445.118 244.445 449.334C247.603 479.537 269.074 505.413 299.061 514.232C364.06 533.351 462.852 585.877 462.852 728.318C462.852 870.713 364.041 923.255 299.04 942.389C269.061 951.213 247.6 977.086 244.444 1007.28C241.287 1011.5 239.62 1246.87 239.62 1252.13C239.62 1287.36 268.179 1447.21 303.41 1447.21L653.922 1447.21L653.922 9.41962L303.41 9.41961C268.179 9.4206 239.619 169.259 239.619 204.489Z" fill="#585858"/>
<path opacity="0.3203" d="M240.298 207.106C240.298 212.505 242.008 445.374 245.245 449.696C248.481 479.709 269.866 505.4 299.697 514.175C364.668 533.285 463.53 585.816 463.53 728.318C463.53 870.774 364.649 923.322 299.675 942.446C269.853 951.225 248.477 976.913 245.242 1006.92C242.006 1011.24 240.297 1244.12 240.297 1249.52C240.297 1284.35 268.532 1447.15 303.362 1447.15L654.479 1447.15L654.479 9.48046L303.362 9.48044C268.533 9.48144 240.298 172.277 240.298 207.106Z" fill="#575757"/>
<path opacity="0.3281" d="M240.976 209.724C240.976 215.255 242.728 445.632 246.044 450.059C249.359 479.883 270.658 505.389 300.333 514.117C365.277 533.219 464.211 585.755 464.211 728.318C464.211 870.836 365.258 923.388 300.311 942.505C270.645 951.237 249.356 976.741 246.042 1006.56C242.728 1010.99 240.976 1241.37 240.976 1246.9C240.976 1281.33 268.887 1447.09 303.316 1447.09L655.035 1447.09L655.035 9.54129L303.315 9.54127C268.886 9.54226 240.976 175.295 240.976 209.724Z" fill="#565656"/>
<path opacity="0.3359" d="M241.653 212.342C241.653 218.005 243.447 445.888 246.842 450.421C250.235 480.055 271.449 505.377 300.966 514.059C365.884 533.154 464.888 585.695 464.888 728.318C464.888 870.896 365.865 923.453 300.945 942.563C271.437 951.249 250.233 976.569 246.841 1006.2C243.447 1010.73 241.654 1238.62 241.654 1244.28C241.654 1278.31 269.24 1447.02 303.269 1447.02L655.592 1447.02L655.592 9.60176L303.268 9.60175C269.238 9.60274 241.653 178.313 241.653 212.342Z" fill="#555555"/>
<path opacity="0.3438" d="M242.332 214.96C242.332 220.754 244.168 446.146 247.641 450.784C251.115 480.227 272.242 505.365 301.602 514C366.491 533.087 465.566 585.633 465.566 728.318C465.566 870.958 366.472 923.52 301.58 942.621C272.228 951.261 251.111 976.396 247.639 1005.83C244.167 1010.47 242.332 1235.87 242.332 1241.66C242.332 1275.29 269.594 1446.97 303.222 1446.97L656.15 1446.97L656.15 9.66366L303.223 9.66365C269.593 9.66265 242.332 181.331 242.332 214.96Z" fill="#545454"/>
<path opacity="0.3516" d="M243.011 217.577C243.011 223.502 244.888 446.402 248.441 451.146C251.993 480.4 273.034 505.353 302.237 513.942C367.099 533.021 466.245 585.572 466.245 728.318C466.245 871.019 367.08 923.586 302.215 942.679C273.02 951.273 251.989 976.224 248.438 1005.47C244.887 1010.21 243.01 1233.12 243.01 1239.05C243.01 1272.28 269.947 1446.9 303.176 1446.9L656.707 1446.9L656.707 9.7235L303.176 9.72348C269.948 9.72348 243.011 184.348 243.011 217.577Z" fill="#535353"/>
<path opacity="0.3594" d="M243.688 220.194C243.688 226.252 245.607 446.659 249.239 451.509C252.869 480.573 273.824 505.341 302.87 513.885C367.705 532.955 466.921 585.511 466.921 728.318C466.921 871.079 367.686 923.652 302.848 942.737C273.81 951.285 252.865 976.051 249.236 1005.11C245.606 1009.96 243.687 1230.37 243.687 1236.43C243.687 1269.26 270.3 1446.84 303.128 1446.84L657.264 1446.84L657.264 9.78406L303.128 9.78405C270.301 9.78405 243.688 187.366 243.688 220.194Z" fill="#525252"/>
<path opacity="0.3672" d="M244.365 222.812C244.365 229.002 246.326 446.917 250.036 451.871C253.745 480.745 274.614 505.329 303.504 513.826C368.312 532.889 467.599 585.449 467.599 728.318C467.599 871.141 368.293 923.718 303.482 942.795C274.601 951.296 253.742 975.879 250.034 1004.75C246.325 1009.7 244.365 1227.62 244.365 1233.81C244.365 1266.24 270.653 1446.78 303.081 1446.78L657.82 1446.78L657.82 9.84482L303.081 9.8448C270.653 9.8448 244.365 190.384 244.365 222.812Z" fill="#515151"/>
<path opacity="0.375" d="M245.044 225.43C245.044 231.751 247.046 447.174 250.836 452.234C254.625 480.917 275.407 505.317 304.14 513.768C368.921 532.822 468.278 585.388 468.278 728.318C468.278 871.202 368.902 923.784 304.119 942.854C275.394 951.308 254.622 975.707 250.835 1004.38C247.047 1009.44 245.045 1224.87 245.045 1231.19C245.045 1263.22 271.009 1446.72 303.036 1446.72L658.379 1446.72L658.379 9.90571L303.036 9.9057C271.007 9.90569 245.044 193.403 245.044 225.43Z" fill="#505050"/>
<path opacity="0.3828" d="M245.723 228.047C245.723 234.499 247.767 447.43 251.636 452.595C255.503 481.089 276.2 505.304 304.775 513.709C369.528 532.756 468.956 585.326 468.956 728.317C468.956 871.262 369.51 923.85 304.753 942.91C276.186 951.319 255.499 975.532 251.632 1004.02C247.766 1009.19 245.723 1222.12 245.723 1228.57C245.723 1260.2 271.361 1446.66 302.989 1446.66L658.936 1446.66L658.936 9.9643L302.989 9.96428C271.361 9.96527 245.723 196.42 245.723 228.047Z" fill="#4F4F4F"/>
<path opacity="0.3906" d="M246.402 230.665C246.402 237.25 248.488 447.688 252.435 452.958C256.381 481.263 276.991 505.293 305.41 513.653C370.136 532.691 469.635 585.267 469.635 728.319C469.635 871.325 370.118 923.917 305.388 942.97C276.978 951.332 256.377 975.362 252.432 1003.66C248.487 1008.93 246.401 1219.38 246.401 1225.96C246.401 1257.19 271.715 1446.6 302.942 1446.6L659.492 1446.6L659.492 10.0271L302.942 10.0271C271.716 10.0261 246.402 199.438 246.402 230.665Z" fill="#4E4E4E"/>
<path opacity="0.3984" d="M247.08 233.283C247.08 239.999 249.208 447.945 253.234 453.321C257.258 481.435 277.783 505.281 306.045 513.594C370.743 532.624 470.313 585.205 470.313 728.318C470.313 871.385 370.726 923.982 306.024 943.027C277.77 951.343 257.255 975.188 253.232 1003.3C249.207 1008.67 247.08 1216.63 247.08 1223.34C247.08 1254.17 272.069 1446.54 302.896 1446.54L660.051 1446.54L660.051 10.0859L302.896 10.0859C272.07 10.0869 247.08 202.456 247.08 233.283Z" fill="#4D4D4D"/>
<path opacity="0.4063" d="M247.757 235.9C247.757 242.748 249.927 448.202 254.031 453.683C258.136 481.607 278.574 505.269 306.678 513.536C371.349 532.558 470.99 585.144 470.99 728.318C470.99 871.446 371.331 924.049 306.656 943.086C278.56 951.356 258.131 975.016 254.028 1002.94C249.925 1008.42 247.756 1213.88 247.756 1220.72C247.756 1251.15 272.421 1446.48 302.847 1446.48L660.605 1446.48L660.606 10.1474L302.847 10.1474C272.422 10.1474 247.757 205.474 247.757 235.9Z" fill="#4C4C4C"/>
<path opacity="0.4141" d="M248.435 238.517C248.435 245.497 250.647 448.459 254.831 454.045C259.014 481.78 279.366 505.257 307.314 513.478C371.959 532.491 471.67 585.082 471.67 728.318C471.67 871.508 371.941 924.114 307.293 943.143C279.353 951.367 259.011 974.843 254.829 1002.57C250.647 1008.16 248.436 1211.13 248.436 1218.11C248.436 1248.13 272.776 1446.42 302.802 1446.42L661.164 1446.42L661.164 10.2083L302.802 10.2083C272.775 10.2073 248.435 208.492 248.435 238.517Z" fill="#4B4B4B"/>
<path opacity="0.4219" d="M249.115 241.135C249.115 248.247 251.369 448.715 255.631 454.408C259.893 481.953 280.159 505.246 307.95 513.421C372.567 532.427 472.349 585.023 472.349 728.319C472.349 871.569 372.549 924.181 307.928 943.202C280.146 951.38 259.888 974.672 255.628 1002.21C251.367 1007.9 249.115 1208.38 249.115 1215.49C249.115 1245.11 273.131 1446.36 302.756 1446.36L661.723 1446.36L661.723 10.2682L302.756 10.2682C273.131 10.2682 249.115 211.51 249.115 241.135Z" fill="#4A4A4A"/>
<path opacity="0.4297" d="M249.793 243.753C249.793 250.996 252.089 448.972 256.43 454.771C260.771 482.125 280.95 505.234 308.585 513.362C373.174 532.36 473.027 584.961 473.027 728.318C473.027 871.63 373.157 924.247 308.563 943.26C280.937 951.392 260.766 974.499 256.427 1001.85C252.086 1007.65 249.793 1205.63 249.793 1212.87C249.793 1242.1 273.485 1446.3 302.71 1446.3L662.279 1446.3L662.279 10.3287L302.71 10.3287C273.484 10.3287 249.793 214.528 249.793 243.753Z" fill="#494949"/>
<path opacity="0.4375" d="M250.469 246.371C250.469 253.745 252.806 449.23 257.227 455.133C261.647 482.297 281.74 505.222 309.217 513.304C373.78 532.294 473.703 584.9 473.703 728.319C473.703 871.692 373.762 924.314 309.196 943.319C281.727 951.404 261.643 974.327 257.224 1001.49C252.805 1007.39 250.47 1202.88 250.47 1210.25C250.47 1239.08 273.838 1446.24 302.662 1446.24L662.836 1446.24L662.836 10.3895L302.662 10.3895C273.836 10.3895 250.469 217.546 250.469 246.371Z" fill="#484848"/>
<path opacity="0.4453" d="M251.148 248.988C251.148 256.494 253.525 449.486 258.025 455.495C262.524 482.47 282.532 505.21 309.851 513.246C374.386 532.228 474.38 584.837 474.38 728.318C474.38 871.752 374.368 924.378 309.829 943.375C282.517 951.415 262.518 974.153 258.021 1001.12C253.523 1007.13 251.146 1200.13 251.146 1207.63C251.146 1236.06 274.189 1446.18 302.613 1446.18L663.391 1446.18L663.391 10.4504L302.613 10.4503C274.19 10.4503 251.148 220.564 251.148 248.988Z" fill="#474747"/>
<path opacity="0.4531" d="M251.828 251.605C251.828 259.244 254.247 449.744 258.827 455.858C263.404 482.643 283.325 505.199 310.49 513.188C374.998 532.162 475.062 584.777 475.062 728.318C475.062 871.813 374.98 924.445 310.468 943.434C283.312 951.427 263.399 973.982 258.824 1000.76C254.247 1006.87 251.828 1197.38 251.828 1205.02C251.828 1233.04 274.546 1446.12 302.569 1446.12L663.951 1446.12L663.951 10.51L302.569 10.51C274.546 10.51 251.828 223.582 251.828 251.605Z" fill="#464646"/>
<path opacity="0.4609" d="M252.505 254.223C252.505 261.993 254.966 450.001 259.624 456.22C264.282 482.815 284.116 505.187 311.123 513.13C375.603 532.096 475.739 584.716 475.739 728.319C475.739 871.875 375.586 924.512 311.102 943.493C284.103 951.44 264.277 973.81 259.622 1000.4C254.966 1006.62 252.506 1194.63 252.506 1202.4C252.506 1230.02 274.899 1446.06 302.522 1446.06L664.508 1446.06L664.508 10.5728L302.523 10.5728C274.898 10.5708 252.505 226.599 252.505 254.223Z" fill="#454545"/>
<path opacity="0.4688" d="M253.184 256.841C253.184 264.743 255.687 450.258 260.424 456.583C265.16 482.988 284.909 505.175 311.758 513.072C376.212 532.031 476.417 584.655 476.417 728.319C476.417 871.936 376.194 924.578 311.736 943.551C284.895 951.452 265.154 973.636 260.421 1000.04C255.686 1006.36 253.184 1191.88 253.184 1199.78C253.184 1227.01 275.253 1446 302.476 1446L665.064 1446L665.065 10.6327L302.476 10.6327C275.253 10.6317 253.184 229.617 253.184 256.841Z" fill="#444444"/>
<path opacity="0.4766" d="M253.861 259.458C253.861 267.491 256.406 450.515 261.222 456.944C266.036 483.16 285.699 505.162 312.391 513.013C376.818 531.964 477.095 584.593 477.095 728.318C477.095 871.997 376.8 924.643 312.371 943.608C285.686 951.463 266.032 973.464 261.219 999.674C256.405 1006.1 253.861 1189.13 253.861 1197.16C253.861 1223.99 275.605 1445.94 302.428 1445.94L665.621 1445.94L665.621 10.6932L302.428 10.6932C275.605 10.6922 253.861 232.635 253.861 259.458Z" fill="#434343"/>
<path opacity="0.4844" d="M254.538 262.076C254.538 270.241 257.125 450.772 262.019 457.307C266.912 483.332 286.489 505.15 313.025 512.955C377.423 531.897 477.771 584.532 477.771 728.317C477.771 872.056 377.405 924.708 313.003 943.665C286.475 951.474 266.906 973.29 262.015 999.31C257.123 1005.85 254.537 1186.38 254.537 1194.54C254.537 1220.97 275.957 1445.87 302.379 1445.87L666.176 1445.87L666.176 10.752L302.379 10.752C275.959 10.752 254.538 235.654 254.538 262.076Z" fill="#424242"/>
<path opacity="0.4922" d="M255.219 264.694C255.219 272.99 257.848 451.029 262.821 457.67C267.794 483.505 287.284 505.139 313.662 512.898C378.034 531.832 478.452 584.472 478.452 728.319C478.452 872.12 378.016 924.777 313.64 943.725C287.27 951.487 267.787 973.12 262.817 998.949C257.845 1005.59 255.218 1183.63 255.218 1191.93C255.218 1217.95 276.313 1445.82 302.335 1445.82L666.736 1445.82L666.736 10.8138L302.336 10.8138C276.314 10.8128 255.219 238.672 255.219 264.694Z" fill="#414141"/>
<path opacity="0.5" d="M255.897 267.311C255.897 275.739 258.568 451.286 263.619 458.032C268.671 483.677 288.075 505.126 314.297 512.839C378.641 531.766 479.131 584.41 479.131 728.318C479.131 872.18 378.624 924.841 314.276 943.782C288.062 951.498 268.666 972.945 263.617 998.586C258.567 1005.33 255.898 1180.88 255.898 1189.31C255.898 1214.93 276.669 1445.75 302.291 1445.75L667.295 1445.75L667.295 10.8734L302.291 10.8734C276.668 10.8734 255.897 241.689 255.897 267.311Z" fill="#404040"/>
<path opacity="0.5078" d="M256.574 269.928C256.574 278.488 259.287 451.542 264.418 458.394C269.548 483.85 288.867 505.114 314.932 512.781C379.249 531.7 479.808 584.348 479.808 728.318C479.808 872.241 379.231 924.907 314.91 943.84C288.853 951.511 269.542 972.774 264.414 998.225C259.285 1005.08 256.574 1178.13 256.574 1186.69C256.574 1211.91 277.02 1445.69 302.242 1445.69L667.85 1445.69L667.85 10.9342L302.242 10.9341C277.02 10.9341 256.574 244.707 256.574 269.928Z" fill="#3F3F3F"/>
<path opacity="0.5156" d="M257.252 272.546C257.252 281.238 260.006 451.799 265.216 458.757C270.424 484.022 289.656 505.102 315.565 512.723C379.855 531.632 480.485 584.287 480.485 728.318C480.485 872.302 379.837 924.974 315.544 943.898C289.643 951.522 270.419 972.601 265.213 997.862C260.005 1004.82 257.252 1175.39 257.252 1184.08C257.252 1208.9 277.373 1445.63 302.194 1445.63L668.406 1445.63L668.406 10.9951L302.194 10.995C277.373 10.995 257.252 247.725 257.252 272.546Z" fill="#3E3E3E"/>
<path opacity="0.5234" d="M257.93 275.164C257.93 283.988 260.725 452.057 266.014 459.12C271.303 484.195 290.448 505.091 316.199 512.666C380.462 531.567 481.163 584.227 481.163 728.319C481.163 872.364 380.446 925.04 316.178 943.957C290.435 951.535 271.297 972.43 266.011 997.5C260.725 1004.56 257.93 1172.64 257.93 1181.46C257.93 1205.88 277.726 1445.57 302.147 1445.57L668.963 1445.57L668.963 11.0557L302.147 11.0557C277.726 11.0547 257.93 250.743 257.93 275.164Z" fill="#3D3D3D"/>
<path opacity="0.5313" d="M258.61 277.781C258.61 286.736 261.447 452.313 266.815 459.482C272.182 484.368 291.242 505.078 316.836 512.607C381.071 531.501 481.842 584.165 481.842 728.318C481.842 872.424 381.053 925.105 316.814 944.015C291.227 951.546 272.175 972.256 266.811 997.137C261.445 1004.3 258.609 1169.89 258.609 1178.84C258.609 1202.86 278.082 1445.51 302.101 1445.51L669.521 1445.51L669.522 11.1155L302.101 11.1154C278.083 11.1154 258.61 253.761 258.61 277.781Z" fill="#3C3C3C"/>
<path opacity="0.5391" d="M259.287 280.399C259.287 289.485 262.166 452.571 267.612 459.844C273.058 484.54 292.032 505.067 317.47 512.548C381.677 531.434 482.52 584.103 482.52 728.318C482.52 872.485 381.661 925.172 317.449 944.072C292.019 951.557 273.053 972.083 267.609 996.775C262.165 1004.05 259.287 1167.14 259.287 1176.22C259.287 1199.84 278.435 1445.45 302.055 1445.45L670.078 1445.45L670.078 11.1762L302.055 11.1762C278.435 11.1762 259.287 256.778 259.287 280.399Z" fill="#3B3B3B"/>
<path opacity="0.5469" d="M259.965 283.017C259.965 292.234 262.886 452.828 268.412 460.207C273.936 484.712 292.824 505.054 318.105 512.491C382.286 531.368 483.199 584.043 483.199 728.318C483.199 872.546 382.269 925.238 318.083 944.13C292.81 951.569 273.931 971.911 268.408 996.412C262.885 1003.79 259.965 1164.39 259.965 1173.6C259.965 1196.82 278.789 1445.39 302.008 1445.39L670.635 1445.39L670.635 11.2371L302.008 11.2371C278.789 11.2371 259.965 259.797 259.965 283.017Z" fill="#3A3A3A"/>
<path opacity="0.5547" d="M260.643 285.634C260.643 294.985 263.605 453.085 269.211 460.569C274.815 484.884 293.616 505.042 318.739 512.433C382.893 531.302 483.877 583.982 483.877 728.318C483.877 872.607 382.876 925.303 318.718 944.189C293.602 951.582 274.808 971.738 269.207 996.051C263.604 1003.53 260.643 1161.64 260.643 1170.99C260.643 1193.81 279.142 1445.33 301.962 1445.33L671.193 1445.33L671.193 11.2967L301.962 11.2967C279.142 11.2967 260.643 262.815 260.643 285.634Z" fill="#393939"/>
<path opacity="0.5625" d="M261.322 288.251C261.322 297.733 264.326 453.342 270.01 460.931C275.693 485.058 294.408 505.032 319.375 512.374C383.501 531.236 484.556 583.92 484.556 728.318C484.556 872.669 383.485 925.37 319.354 944.247C294.394 951.593 275.687 971.566 270.007 995.687C264.325 1003.28 261.323 1158.89 261.323 1168.37C261.323 1190.79 279.498 1445.27 301.917 1445.27L671.752 1445.27L671.752 11.3565L301.917 11.3565C279.497 11.3575 261.322 265.833 261.322 288.251Z" fill="#383838"/>
<path opacity="0.5703" d="M262 290.869C262 300.482 265.046 453.599 270.809 461.294C276.57 485.23 295.2 505.02 320.01 512.316C384.109 531.17 485.234 583.86 485.234 728.318C485.234 872.729 384.092 925.436 319.988 944.304C295.186 951.605 276.564 971.393 270.805 995.325C265.044 1003.02 261.999 1156.14 261.999 1165.75C261.999 1187.77 279.849 1445.21 301.867 1445.21L672.307 1445.21L672.307 11.4171L301.867 11.4171C279.849 11.4181 262 268.851 262 290.869Z" fill="#373737"/>
<path opacity="0.5781" d="M262.679 293.487C262.679 303.231 265.767 453.856 271.608 461.656C277.449 485.402 295.992 505.008 320.645 512.259C384.717 531.104 485.913 583.798 485.913 728.318C485.913 872.791 384.7 925.501 320.624 944.362C295.979 951.617 277.443 971.221 271.605 994.962C265.766 1002.76 262.679 1153.39 262.679 1163.13C262.679 1184.75 280.205 1445.15 301.823 1445.15L672.865 1445.15L672.865 11.4778L301.823 11.4778C280.205 11.4788 262.679 271.868 262.679 293.487Z" fill="#363636"/>
<path opacity="0.5859" d="M263.356 296.105C263.356 305.982 266.485 454.113 272.406 462.019C278.326 485.575 296.782 504.996 321.279 512.201C385.323 531.039 486.59 583.737 486.59 728.318C486.59 872.852 385.307 925.568 321.258 944.421C296.769 951.629 278.32 971.048 272.403 994.601C266.485 1002.51 263.357 1150.64 263.357 1160.52C263.357 1181.74 280.557 1445.09 301.776 1445.09L673.422 1445.09L673.422 11.5407L301.776 11.5407C280.556 11.5397 263.356 274.886 263.356 296.105Z" fill="#353535"/>
<path opacity="0.5938" d="M264.034 298.723C264.034 308.731 267.204 454.37 273.205 462.381C279.203 485.748 297.574 504.984 321.913 512.143C385.93 530.973 487.267 583.676 487.267 728.319C487.267 872.914 385.913 925.635 321.891 944.48C297.559 951.642 279.196 970.877 273.201 994.239C267.203 1002.25 264.034 1147.89 264.034 1157.9C264.034 1178.72 280.91 1445.03 301.728 1445.03L673.979 1445.03L673.979 11.6014L301.728 11.6014C280.91 11.5994 264.034 277.904 264.034 298.723Z" fill="#343434"/>
<path opacity="0.6016" d="M264.714 301.34C264.714 311.479 267.926 454.626 274.005 462.744C280.082 485.92 298.367 504.972 322.549 512.084C386.539 530.906 487.947 583.615 487.947 728.318C487.947 872.974 386.523 925.701 322.528 944.536C298.353 951.652 280.076 970.703 274.001 993.875C267.925 1001.99 264.714 1145.14 264.714 1155.28C264.714 1175.7 281.265 1444.97 301.683 1444.97L674.537 1444.97L674.537 11.6601L301.683 11.6601C281.265 11.6601 264.714 280.923 264.714 301.34Z" fill="#333333"/>
<path opacity="0.6094" d="M265.392 303.957C265.392 314.23 268.646 454.884 274.804 463.106C280.96 486.092 299.159 504.96 323.184 512.027C387.146 530.84 488.624 583.554 488.624 728.318C488.624 873.035 387.129 925.766 323.162 944.595C299.144 951.665 280.953 970.532 274.799 993.514C268.644 1001.73 265.391 1142.39 265.391 1152.66C265.391 1172.68 281.618 1444.91 301.635 1444.91L675.094 1444.91L675.094 11.7219L301.635 11.7218C281.619 11.7208 265.392 283.941 265.392 303.957Z" fill="#323232"/>
<path opacity="0.6172" d="M266.069 306.575C266.069 316.979 269.365 455.141 275.601 463.469C281.837 486.265 299.95 504.948 323.818 511.969C387.753 530.775 489.303 583.493 489.303 728.319C489.303 873.097 387.736 925.833 323.796 944.654C299.935 951.678 281.83 970.359 275.597 993.152C269.364 1001.48 266.069 1139.64 266.069 1150.05C266.069 1169.66 281.971 1444.85 301.589 1444.85L675.65 1444.85L675.65 11.7826L301.589 11.7826C281.971 11.7816 266.069 286.958 266.069 306.575Z" fill="#313131"/>
<path opacity="0.625" d="M266.747 309.193C266.747 319.728 270.085 455.398 276.4 463.831C282.714 486.438 300.74 504.936 324.452 511.91C388.36 530.708 489.981 583.431 489.981 728.318C489.981 873.158 388.344 925.899 324.431 944.711C300.727 951.688 282.708 970.185 276.397 992.788C270.084 1001.22 266.748 1136.89 266.748 1147.43C266.748 1166.64 282.326 1444.79 301.543 1444.79L676.209 1444.79L676.209 11.8413L301.543 11.8413C282.325 11.8413 266.747 289.976 266.747 309.193Z" fill="#303030"/>
<path opacity="0.6328" d="M267.425 311.81C267.425 322.476 270.805 455.655 277.2 464.194C283.592 486.61 301.533 504.924 325.087 511.852C388.968 530.642 490.659 583.371 490.659 728.318C490.659 873.218 388.951 925.965 325.066 944.769C301.518 951.701 283.585 970.014 277.195 992.426C270.803 1000.96 267.424 1134.15 267.424 1144.81C267.424 1163.63 282.677 1444.73 301.494 1444.73L676.764 1444.73L676.764 11.9022L301.494 11.9021C282.679 11.9021 267.425 292.994 267.425 311.81Z" fill="#2F2F2F"/>
<path opacity="0.6406" d="M268.104 314.428C268.104 325.226 271.526 455.912 277.999 464.556C284.472 486.783 302.325 504.912 325.723 511.795C389.576 530.577 491.338 583.309 491.338 728.319C491.338 873.28 389.56 926.031 325.702 944.828C302.311 951.713 284.465 969.842 277.995 992.065C271.525 1000.71 268.104 1131.4 268.104 1142.19C268.104 1160.61 283.034 1444.67 301.449 1444.67L677.322 1444.67L677.322 11.9639L301.449 11.9638C283.034 11.9628 268.104 296.012 268.104 314.428Z" fill="#2E2E2E"/>
<path opacity="0.6484" d="M268.782 317.046C268.782 327.976 272.245 456.17 278.797 464.918C285.348 486.955 303.116 504.9 326.356 511.736C390.182 530.509 492.015 583.247 492.015 728.318C492.015 873.341 390.166 926.097 326.335 944.885C303.101 951.724 285.341 969.668 278.793 991.701C272.244 1000.45 268.781 1128.65 268.781 1139.57C268.781 1157.59 283.386 1444.6 301.401 1444.6L677.879 1444.6L677.879 12.0235L301.401 12.0235C283.386 12.0235 268.782 299.03 268.782 317.046Z" fill="#2D2D2D"/>
<path opacity="0.6563" d="M269.46 319.664C269.46 330.725 274.599 455.412 279.595 465.281C289.909 485.649 303.907 504.888 326.991 511.678C390.789 530.443 492.693 583.186 492.693 728.318C492.693 873.402 390.774 926.163 326.969 944.943C303.893 951.736 289.9 970.973 279.591 991.339C274.597 1001.21 269.46 1125.9 269.46 1136.96C269.46 1154.57 283.74 1444.54 301.355 1444.54L678.436 1444.54L678.436 12.0834L301.355 12.0834C283.74 12.0844 269.46 302.048 269.46 319.664Z" fill="#2C2C2C"/>
<path opacity="0.6641" d="M270.138 322.28C270.138 333.474 275.309 455.671 280.394 465.643C290.694 485.841 304.698 504.877 327.626 511.62C391.397 530.377 493.371 583.126 493.371 728.319C493.371 873.464 391.381 926.229 327.605 945.002C304.684 951.749 290.686 970.784 280.39 990.977C275.307 1000.95 270.138 1123.15 270.138 1134.34C270.138 1151.55 284.093 1444.48 301.308 1444.48L678.992 1444.48L678.992 12.1451L301.307 12.1451C284.092 12.1441 270.138 305.066 270.138 322.28Z" fill="#2B2B2B"/>
<path opacity="0.6719" d="M270.817 324.898C270.817 336.224 276.019 455.931 281.194 466.006C291.481 486.032 305.491 504.865 328.261 511.563C392.005 530.312 494.049 583.065 494.049 728.319C494.049 873.525 391.988 926.296 328.239 945.06C305.476 951.761 291.472 970.59 281.189 990.615C276.016 1000.69 270.816 1120.4 270.816 1131.72C270.816 1148.54 284.447 1444.42 301.261 1444.42L679.551 1444.42L679.551 12.2048L301.262 12.2048C284.447 12.2048 270.817 308.084 270.817 324.898Z" fill="#2A2A2A"/>
<path opacity="0.6797" d="M271.495 327.516C271.495 338.973 276.728 456.192 281.993 466.368C292.267 486.226 306.284 504.853 328.896 511.504C392.613 530.245 494.728 583.003 494.728 728.318C494.728 873.585 392.597 926.361 328.874 945.117C306.268 951.771 292.258 970.397 281.988 990.252C276.726 1000.43 271.495 1117.65 271.495 1129.1C271.495 1145.52 284.801 1444.36 301.215 1444.36L680.107 1444.36L680.107 12.2645L301.215 12.2645C284.801 12.2655 271.495 311.102 271.495 327.516Z" fill="#292929"/>
<path opacity="0.6875" d="M272.173 330.134C272.173 341.722 277.435 456.453 282.792 466.731C293.054 486.419 307.074 504.841 329.531 511.446C393.22 530.179 495.407 582.942 495.407 728.319C495.407 873.647 393.204 926.428 329.51 945.177C307.06 951.784 293.045 970.206 282.788 989.891C277.434 1000.17 272.174 1114.9 272.174 1126.49C272.174 1142.5 285.156 1444.3 301.169 1444.3L680.666 1444.3L680.666 12.3263L301.17 12.3263C285.155 12.3263 272.173 314.12 272.173 330.134Z" fill="#282828"/>
<path opacity="0.6953" d="M272.85 332.751C272.85 344.471 278.141 456.715 283.589 467.092C293.839 486.611 307.865 504.828 330.164 511.387C393.827 530.113 496.083 582.881 496.083 728.318C496.083 873.707 393.81 926.493 330.142 945.233C307.849 951.795 293.829 970.011 283.583 989.528C278.137 999.903 272.848 1112.15 272.848 1123.87C272.848 1139.48 285.505 1444.24 301.119 1444.24L681.219 1444.24L681.219 12.387L301.119 12.387C285.507 12.387 272.85 317.137 272.85 332.751Z" fill="#272727"/>
<path opacity="0.7031" d="M273.529 335.369C273.529 347.22 278.847 456.978 284.389 467.456C294.626 486.806 308.658 504.817 330.8 511.33C394.435 530.047 496.763 582.82 496.763 728.318C496.763 873.768 394.42 926.559 330.779 945.291C308.644 951.807 294.618 969.817 284.385 989.164C278.845 999.64 273.529 1109.4 273.529 1121.25C273.529 1136.46 285.862 1444.18 301.075 1444.18L681.779 1444.18L681.779 12.4458L301.075 12.4458C285.862 12.4468 273.529 320.155 273.529 335.369Z" fill="#262626"/>
<path opacity="0.7109" d="M274.207 337.986C274.207 349.97 279.551 457.242 285.188 467.818C295.414 487.001 309.449 504.805 331.434 511.272C395.042 529.981 497.441 582.759 497.441 728.319C497.441 873.831 395.027 926.626 331.414 945.351C309.435 951.82 295.405 969.624 285.184 988.804C279.549 999.378 274.207 1106.65 274.207 1118.63C274.207 1133.45 286.215 1444.12 301.028 1444.12L682.336 1444.12L682.336 12.5086L301.028 12.5086C286.215 12.5076 274.207 323.174 274.207 337.986Z" fill="#252525"/>
<path opacity="0.7188" d="M274.886 340.604C274.886 352.72 280.254 457.507 285.987 468.181C296.202 487.197 310.242 504.793 332.07 511.214C395.65 529.915 498.119 582.697 498.119 728.319C498.119 873.891 395.635 926.692 332.048 945.409C310.226 951.832 296.193 969.427 285.982 988.441C280.252 999.114 274.885 1103.9 274.885 1116.02C274.885 1130.43 286.569 1444.06 300.981 1444.06L682.893 1444.06L682.893 12.5692L300.981 12.5691C286.57 12.5682 274.886 326.192 274.886 340.604Z" fill="#242424"/>
<path opacity="0.7266" d="M275.563 343.221C275.563 355.468 280.954 457.772 286.785 468.542C296.988 487.392 311.031 504.781 332.703 511.155C396.256 529.849 498.796 582.636 498.796 728.318C498.796 873.951 396.241 926.757 332.682 945.465C311.018 951.842 296.979 969.23 286.78 988.078C280.952 998.847 275.563 1101.15 275.563 1113.4C275.563 1127.41 286.921 1444 300.933 1444L683.449 1444L683.449 12.629L300.933 12.629C286.922 12.629 275.563 329.209 275.563 343.221Z" fill="#232323"/>
<path opacity="0.7344" d="M276.242 345.839C276.242 358.218 281.656 458.038 287.584 468.904C297.777 487.588 311.824 504.769 333.339 511.097C396.866 529.782 499.476 582.574 499.476 728.317C499.476 874.012 396.851 926.822 333.318 945.523C311.81 951.854 297.769 969.034 287.58 987.714C281.654 998.58 276.243 1098.4 276.243 1110.78C276.243 1124.39 287.277 1443.94 300.889 1443.94L684.008 1443.94L684.008 12.6886L300.889 12.6886C287.277 12.6896 276.242 332.227 276.242 345.839Z" fill="#222222"/>
<path opacity="0.7422" d="M276.921 348.457C276.921 360.968 282.356 458.305 288.384 469.268C298.566 487.786 312.617 504.758 333.975 511.04C397.473 529.717 500.154 582.514 500.154 728.319C500.154 874.075 397.458 926.891 333.954 945.583C312.603 951.868 298.558 968.839 288.38 987.354C282.355 998.315 276.922 1095.66 276.922 1108.16C276.922 1121.37 287.632 1443.88 300.843 1443.88L684.566 1443.88L684.566 12.7505L300.843 12.7505C287.63 12.7495 276.921 335.245 276.921 348.457Z" fill="#212121"/>
<path opacity="0.75" d="M277.599 351.074C277.599 363.716 283.054 458.571 289.183 469.629C299.355 487.982 313.407 504.745 334.609 510.981C398.08 529.65 500.833 582.453 500.833 728.318C500.833 874.135 398.066 926.955 334.588 945.64C313.393 951.878 299.346 968.64 289.178 986.99C283.052 998.046 277.598 1092.9 277.598 1105.54C277.598 1118.36 287.984 1443.82 300.794 1443.82L685.121 1443.82L685.121 12.8102L300.794 12.8102C287.984 12.8102 277.599 338.263 277.599 351.074Z" fill="#202020"/>
<path opacity="0.7578" d="M278.277 353.691C278.277 366.465 283.751 458.84 289.982 469.992C300.145 488.18 314.2 504.733 335.244 510.922C398.688 529.584 501.511 582.391 501.511 728.317C501.511 874.195 398.673 927.021 335.222 945.696C314.185 951.889 300.135 968.439 289.976 986.627C283.748 997.777 278.276 1090.15 278.276 1102.93C278.276 1115.34 288.337 1443.76 300.747 1443.76L685.678 1443.76L685.678 12.869L300.747 12.869C288.337 12.871 278.277 341.281 278.277 353.691Z" fill="#1F1F1F"/>
<path opacity="0.7656" d="M278.955 356.309C278.955 369.214 284.447 459.11 290.781 470.354C300.934 488.379 314.992 504.721 335.879 510.865C399.295 529.518 502.189 582.33 502.189 728.318C502.189 874.257 399.28 927.088 335.858 945.756C314.977 951.903 300.925 968.242 290.776 986.266C284.445 997.509 278.955 1087.41 278.955 1100.31C278.955 1112.32 288.692 1443.7 300.701 1443.7L686.236 1443.7L686.236 12.9307L300.701 12.9307C288.692 12.9317 278.955 344.299 278.955 356.309Z" fill="#1E1E1E"/>
<path opacity="0.7734" d="M279.633 358.927C279.633 371.965 285.141 459.38 291.579 470.718C301.724 488.581 315.783 504.711 336.513 510.808C399.903 529.453 502.867 582.27 502.867 728.319C502.867 874.32 399.888 927.154 336.492 945.815C315.768 951.915 301.715 968.044 291.574 985.904C285.139 997.24 279.633 1084.66 279.633 1097.69C279.633 1109.3 289.045 1443.64 300.655 1443.64L686.793 1443.64L686.793 12.9925L300.655 12.9925C289.045 12.9915 279.633 347.317 279.633 358.927Z" fill="#1D1D1D"/>
<path opacity="0.7813" d="M280.312 361.544C280.312 374.713 285.835 459.651 292.379 471.079C302.515 488.78 316.576 504.698 337.149 510.749C400.511 529.386 503.546 582.208 503.546 728.318C503.546 874.379 400.496 927.22 337.128 945.872C316.561 951.926 302.507 967.842 292.374 985.541C285.833 996.967 280.312 1081.91 280.312 1095.07C280.312 1106.28 289.4 1443.57 300.609 1443.57L687.352 1443.57L687.352 13.051L300.609 13.051C289.4 13.052 280.312 350.335 280.312 361.544Z" fill="#1C1C1C"/>
<path opacity="0.7891" d="M280.99 364.162C280.99 377.462 286.527 459.923 293.177 471.441C303.305 488.981 317.366 504.686 337.783 510.69C401.118 529.319 504.224 582.146 504.224 728.318C504.224 874.44 401.103 927.286 337.762 945.93C317.352 951.939 303.296 967.642 293.172 985.179C286.524 996.696 280.99 1079.16 280.99 1092.46C280.99 1103.26 289.753 1443.51 300.562 1443.51L687.908 1443.51L687.908 13.1118L300.562 13.1118C289.753 13.1128 280.99 353.353 280.99 364.162Z" fill="#1B1B1B"/>
<path opacity="0.7969" d="M281.668 366.78C281.668 380.213 287.216 460.197 293.975 471.804C304.095 489.182 318.157 504.674 338.417 510.633C401.725 529.253 504.901 582.085 504.901 728.318C504.901 874.502 401.71 927.352 338.396 945.988C318.142 951.95 304.086 967.44 293.97 984.817C287.213 996.423 281.668 1076.41 281.668 1089.84C281.668 1100.25 290.106 1443.45 300.514 1443.45L688.465 1443.45L688.465 13.1728L300.514 13.1727C290.106 13.1737 281.668 356.371 281.668 366.78Z" fill="#1A1A1A"/>
<path opacity="0.8047" d="M282.345 369.397C282.345 382.962 287.904 460.47 294.774 472.167C304.887 489.386 318.949 504.663 339.051 510.576C402.331 529.188 505.578 582.025 505.578 728.319C505.578 874.564 402.316 927.419 339.03 946.047C318.934 951.963 304.877 967.239 294.769 984.454C287.902 996.149 282.346 1073.66 282.346 1087.22C282.346 1097.23 290.459 1443.39 300.467 1443.39L689.021 1443.39L689.022 13.2344L300.467 13.2344C290.458 13.2344 282.345 359.389 282.345 369.397Z" fill="#191919"/>
<path opacity="0.8125" d="M283.023 372.014C283.023 385.71 288.591 460.745 295.572 472.529C305.678 489.587 319.74 504.65 339.685 510.516C402.939 529.121 506.256 581.963 506.256 728.318C506.256 874.623 402.924 927.484 339.664 946.105C319.725 951.974 305.668 967.035 295.566 984.092C288.588 995.875 283.022 1070.91 283.022 1084.6C283.022 1094.21 290.811 1443.33 300.419 1443.33L689.576 1443.33L689.576 13.2942L300.419 13.2941C290.813 13.2941 283.023 362.406 283.023 372.014Z" fill="#181818"/>
<path opacity="0.8203" d="M283.703 374.632C283.703 388.459 289.279 461.021 296.373 472.891C306.472 489.791 320.533 504.638 340.322 510.458C403.547 529.055 506.936 581.902 506.936 728.318C506.936 874.685 403.532 927.55 340.3 946.162C320.517 951.986 306.461 966.831 296.366 983.729C289.276 995.598 283.701 1068.16 283.701 1081.99C283.701 1091.19 291.165 1443.27 300.373 1443.27L690.135 1443.27L690.135 13.3549L300.373 13.3549C291.167 13.3549 283.703 365.424 283.703 374.632Z" fill="#171717"/>
<path opacity="0.8281" d="M284.381 377.25C284.381 391.209 289.964 461.299 297.172 473.254C307.265 489.997 321.325 504.626 340.957 510.401C404.156 528.989 507.615 581.841 507.615 728.318C507.615 874.746 404.141 927.617 340.936 946.22C321.311 951.998 307.256 966.626 297.167 983.367C289.962 995.321 284.381 1065.41 284.381 1079.37C284.381 1088.18 291.521 1443.21 300.328 1443.21L690.693 1443.21L690.693 13.4157L300.328 13.4157C291.521 13.4157 284.381 368.443 284.381 377.25Z" fill="#161616"/>
<path opacity="0.8359" d="M285.058 379.868C285.058 393.959 290.646 461.578 297.969 473.616C308.056 490.202 322.115 504.614 341.59 510.343C404.762 528.924 508.292 581.78 508.292 728.318C508.292 874.808 404.747 927.682 341.569 946.278C322.1 952.009 308.047 966.42 297.964 983.004C290.644 995.042 285.058 1062.66 285.058 1076.75C285.058 1085.16 291.873 1443.15 300.28 1443.15L691.25 1443.15L691.25 13.4764L300.28 13.4763C291.873 13.4763 285.058 371.461 285.058 379.868Z" fill="#151515"/>
<path opacity="0.8438" d="M285.736 382.486C285.736 396.708 291.328 461.857 298.769 473.98C308.851 490.409 322.908 504.603 342.225 510.285C405.369 528.858 508.97 581.72 508.97 728.319C508.97 874.869 405.354 927.749 342.204 946.338C322.892 952.022 308.841 966.216 298.763 982.643C291.326 994.763 285.736 1059.91 285.736 1074.13C285.736 1082.14 292.228 1443.09 300.233 1443.09L691.807 1443.09L691.807 13.5382L300.233 13.5382C292.227 13.5362 285.736 374.478 285.736 382.486Z" fill="#141414"/>
<path opacity="0.8516" d="M286.415 385.103C286.415 399.456 292.011 462.137 299.568 474.341C309.646 490.615 323.7 504.59 342.861 510.226C405.978 528.791 509.649 581.657 509.649 728.318C509.649 874.929 405.963 927.815 342.84 946.394C323.684 952.032 309.636 966.008 299.562 982.28C292.008 994.483 286.415 1057.16 286.415 1071.51C286.415 1079.12 292.582 1443.03 300.188 1443.03L692.365 1443.03L692.365 13.5969L300.188 13.5969C292.581 13.5969 286.415 377.496 286.415 385.103Z" fill="#131313"/>
<path opacity="0.8594" d="M287.093 387.72C287.093 402.207 292.69 462.419 300.367 474.704C310.441 490.823 324.491 504.578 343.496 510.169C406.586 528.725 510.328 581.596 510.328 728.318C510.328 874.991 406.571 927.88 343.475 946.452C324.477 952.044 310.431 965.8 300.362 981.917C292.688 994.201 287.094 1054.41 287.094 1068.9C287.094 1076.1 292.937 1442.97 300.143 1442.97L692.924 1442.97L692.924 13.6565L300.143 13.6565C292.936 13.6575 287.093 380.514 287.093 387.72Z" fill="#121212"/>
<path opacity="0.8672" d="M287.773 390.338C287.773 404.956 293.368 462.703 301.167 475.066C311.237 491.031 325.284 504.566 344.131 510.11C407.194 528.659 511.006 581.534 511.006 728.318C511.006 875.052 407.179 927.946 344.11 946.511C325.269 952.057 311.228 965.592 301.162 981.556C293.366 993.918 287.773 1051.66 287.773 1066.28C287.773 1073.09 293.29 1442.91 300.096 1442.91L693.48 1442.91L693.481 13.7184L300.096 13.7184C293.29 13.7184 287.773 383.532 287.773 390.338Z" fill="#111111"/>
<path opacity="0.875" d="M288.449 392.955C288.449 407.704 294.042 462.986 301.963 475.429C312.03 491.24 326.073 504.554 344.764 510.052C407.799 528.593 511.682 581.474 511.682 728.318C511.682 875.112 407.785 928.013 344.743 946.569C326.058 952.068 312.02 965.383 301.957 981.192C294.039 993.633 288.448 1048.91 288.448 1063.66C288.448 1070.07 293.641 1442.85 300.046 1442.85L694.035 1442.85L694.035 13.7782L300.046 13.7782C293.642 13.7792 288.449 386.551 288.449 392.955Z" fill="#101010"/>
<path opacity="0.8828" d="M289.127 395.573C289.127 410.454 294.716 463.272 302.762 475.791C312.826 491.45 326.865 504.544 345.398 509.994C408.406 528.527 512.359 581.413 512.359 728.318C512.359 875.174 408.392 928.079 345.377 946.626C326.849 952.08 312.816 965.171 302.756 980.83C294.713 993.347 289.126 1046.17 289.126 1061.04C289.126 1067.05 293.994 1442.79 299.999 1442.79L694.592 1442.79L694.592 13.8378L299.999 13.8378C293.995 13.8388 289.127 389.569 289.127 395.573Z" fill="#0F0F0F"/>
<path opacity="0.8906" d="M289.807 398.191C289.807 413.204 295.391 463.559 303.563 476.153C313.625 491.661 327.659 504.532 346.035 509.937C409.016 528.462 513.041 581.352 513.041 728.319C513.041 875.236 409.002 928.146 346.014 946.686C327.644 952.094 313.615 964.962 303.557 980.469C295.389 993.063 289.807 1043.42 289.807 1058.43C289.807 1064.03 294.351 1442.73 299.956 1442.73L695.152 1442.73L695.152 13.9006L299.956 13.9005C294.351 13.8995 289.807 392.586 289.807 398.191Z" fill="#0E0E0E"/>
<path opacity="0.8984" d="M290.485 400.809C290.485 415.953 296.062 463.848 304.362 476.516C314.423 491.874 328.45 504.52 346.67 509.878C409.622 528.395 513.719 581.29 513.719 728.318C513.719 875.296 409.609 928.211 346.649 946.743C328.435 952.104 314.413 964.749 304.356 980.106C296.06 992.773 290.485 1040.67 290.485 1055.81C290.485 1061.01 294.704 1442.67 299.909 1442.67L695.709 1442.67L695.709 13.9592L299.909 13.9592C294.704 13.9602 290.485 395.604 290.485 400.809Z" fill="#0D0D0D"/>
<path opacity="0.9063" d="M291.16 403.426C291.16 418.702 296.73 464.137 305.158 476.878C315.218 492.086 329.239 504.507 347.302 509.819C410.228 528.328 514.394 581.229 514.394 728.317C514.394 875.356 410.214 928.276 347.281 946.8C329.224 952.115 315.208 964.535 305.153 979.742C296.727 992.482 291.161 1037.92 291.161 1053.19C291.161 1057.99 295.056 1442.61 299.86 1442.61L696.264 1442.61L696.264 14.019L299.86 14.019C295.056 14.021 291.16 398.622 291.16 403.426Z" fill="#0C0C0C"/>
<path opacity="0.9141" d="M291.84 406.043C291.84 421.451 297.4 464.428 305.958 477.241C316.018 492.301 330.033 504.496 347.938 509.762C410.837 528.262 515.074 581.168 515.074 728.319C515.074 875.419 410.823 928.344 347.917 946.861C330.018 952.13 316.008 964.324 305.952 979.382C297.397 992.193 291.84 1035.17 291.84 1050.57C291.84 1054.98 295.41 1442.55 299.814 1442.55L696.822 1442.55L696.822 14.0829L299.814 14.0828C295.41 14.0808 291.84 401.64 291.84 406.043Z" fill="#0B0B0B"/>
<path opacity="0.9219" d="M292.518 408.661C292.518 424.201 298.066 464.721 306.757 477.603C316.817 492.516 330.823 504.484 348.573 509.704C411.444 528.197 515.752 581.107 515.752 728.319C515.752 875.481 411.431 928.41 348.552 946.918C330.808 952.141 316.807 964.109 306.751 979.019C298.064 991.9 292.518 1032.42 292.518 1047.96C292.518 1051.96 295.763 1442.49 299.767 1442.49L697.379 1442.49L697.379 14.1425L299.767 14.1425C295.764 14.1415 292.518 404.657 292.518 408.661Z" fill="#0A0A0A"/>
<path opacity="0.9297" d="M293.197 411.279C293.197 426.95 298.732 465.015 307.556 477.966C317.617 492.731 331.616 504.472 349.208 509.646C412.052 528.13 516.43 581.046 516.43 728.318C516.43 875.54 412.038 928.475 349.187 946.975C331.601 952.152 317.607 963.892 307.55 978.656C298.729 991.606 293.197 1029.67 293.197 1045.34C293.197 1048.94 296.118 1442.43 299.722 1442.43L697.938 1442.43L697.938 14.2022L299.722 14.2022C296.118 14.2022 293.197 407.675 293.197 411.279Z" fill="#090909"/>
<path opacity="0.9375" d="M293.877 413.896C293.877 429.699 299.396 465.31 308.357 478.327C318.42 492.947 332.409 504.459 349.844 509.587C412.66 528.063 517.11 580.984 517.11 728.318C517.11 875.601 412.647 928.542 349.823 947.033C332.393 952.163 318.409 963.675 308.35 978.293C299.393 991.31 293.876 1026.92 293.876 1042.72C293.876 1045.92 296.471 1442.36 299.675 1442.36L698.494 1442.36L698.494 14.2621L299.675 14.2621C296.472 14.2631 293.877 410.694 293.877 413.896Z" fill="#080808"/>
<path opacity="0.9453" d="M294.553 416.514C294.553 432.448 300.055 465.607 309.153 478.691C319.219 493.165 333.199 504.448 350.477 509.53C413.267 527.999 517.787 580.924 517.787 728.319C517.787 875.664 413.254 928.608 350.457 947.092C333.185 952.177 319.211 963.459 309.148 977.932C300.054 991.013 294.554 1024.17 294.554 1040.1C294.554 1042.91 296.825 1442.31 299.628 1442.31L699.051 1442.31L699.051 14.3238L299.628 14.3238C296.824 14.3238 294.553 413.712 294.553 416.514Z" fill="#070707"/>
<path opacity="0.9531" d="M295.231 419.132C295.231 435.198 300.715 465.906 309.952 479.053C320.02 493.384 333.991 504.436 351.112 509.472C413.874 527.932 518.464 580.862 518.464 728.318C518.464 875.724 413.86 928.673 351.091 947.149C333.975 952.188 320.01 963.239 309.946 977.569C300.713 990.714 295.231 1021.42 295.231 1037.48C295.231 1039.89 297.178 1442.24 299.58 1442.24L699.607 1442.24L699.607 14.3836L299.58 14.3836C297.179 14.3836 295.231 416.73 295.231 419.132Z" fill="#060606"/>
<path opacity="0.9609" d="M295.909 421.749C295.909 437.947 301.374 466.207 310.751 479.416C320.823 493.604 334.781 504.424 351.746 509.414C414.481 527.866 519.143 580.802 519.143 728.318C519.143 875.784 414.468 928.74 351.725 947.207C334.766 952.199 320.813 963.02 310.745 977.206C301.372 990.413 295.909 1018.67 295.909 1034.87C295.909 1036.87 297.532 1442.18 299.533 1442.18L700.164 1442.18L700.164 14.4442L299.534 14.4442C297.532 14.4442 295.909 419.747 295.909 421.749Z" fill="#050505"/>
<path opacity="0.9688" d="M296.588 424.366C296.588 440.696 302.032 466.509 311.55 479.777C321.627 493.823 335.574 504.411 352.381 509.355C415.089 527.799 519.821 580.74 519.821 728.318C519.821 875.846 415.075 928.805 352.36 947.266C335.558 952.212 321.616 962.799 311.544 976.845C302.029 990.112 296.588 1015.92 296.588 1032.25C296.588 1033.85 297.886 1442.12 299.488 1442.12L700.723 1442.12L700.723 14.505L299.488 14.505C297.886 14.505 296.588 422.765 296.588 424.366Z" fill="#040404"/>
<path opacity="0.9766" d="M297.266 426.984C297.266 443.445 302.687 466.812 312.35 480.14C322.432 494.045 336.367 504.399 353.017 509.297C415.697 527.734 520.5 580.679 520.5 728.318C520.5 875.907 415.684 928.871 352.996 947.323C336.351 952.224 322.421 962.577 312.343 976.482C302.684 989.808 297.266 1013.17 297.266 1029.63C297.266 1030.83 298.24 1442.06 299.441 1442.06L701.279 1442.06L701.279 14.5657L299.441 14.5657C298.24 14.5657 297.266 425.783 297.266 426.984Z" fill="#030303"/>
<path opacity="0.9844" d="M297.944 429.602C297.944 446.195 303.34 467.118 313.148 480.503C323.236 494.269 337.158 504.388 353.652 509.24C416.305 527.668 521.179 580.617 521.179 728.318C521.179 875.969 416.292 928.938 353.632 947.381C337.143 952.235 323.227 962.353 313.143 976.119C303.339 989.502 297.946 1010.42 297.946 1027.01C297.946 1027.81 298.595 1442 299.396 1442L701.838 1442L701.838 14.6255L299.396 14.6255C298.594 14.6255 297.944 428.801 297.944 429.602Z" fill="#020202"/>
<path opacity="0.9922" d="M298.622 432.22C298.622 448.944 303.991 467.426 313.947 480.865C324.042 494.493 337.949 504.377 354.286 509.182C416.912 527.602 521.856 580.557 521.856 728.319C521.856 876.03 416.898 929.005 354.265 947.441C337.934 952.249 324.032 962.131 313.941 975.758C303.989 989.197 298.622 1007.68 298.622 1024.4C298.622 1024.8 298.947 1441.94 299.347 1441.94L702.393 1441.94L702.393 14.6872L299.346 14.6871C298.946 14.6861 298.622 431.819 298.622 432.22Z" fill="#010101"/>
<path d="M297.581 430.512C297.581 447.44 302.945 463.55 313.092 477.1C323.238 490.648 337.189 500.336 353.438 505.115C416.303 523.606 521.766 576.791 521.766 725.244C521.766 873.646 416.29 926.851 353.417 945.358C337.173 950.139 323.227 959.827 313.086 973.374C302.942 986.923 297.581 1003.03 297.581 1019.95L297.581 1441.85L702.951 1441.85L702.951 8.63171L297.581 8.6317L297.581 430.512Z" fill="black"/>
</g>
<path d="M711.776 0.851898L290.846 0.85188L290.846 430.512C290.846 468.473 315.869 501.867 352.288 512.579C418.659 532.101 515.032 584.654 515.032 725.244C515.032 865.791 418.638 918.358 352.266 937.895C315.858 948.612 290.847 982.002 290.847 1019.95L290.847 1449.63L711.777 1449.63L711.776 0.851898Z" fill="white"/>
<path d="M208.069 691.224C206.126 691.373 204.672 693.067 204.821 695.01C204.969 696.953 206.669 698.4 208.606 698.258C224.479 697.046 241.71 698.271 259.819 701.901C260.053 701.948 260.287 701.971 260.517 701.971C262.163 701.971 263.635 700.812 263.971 699.136C264.354 697.226 263.116 695.368 261.206 694.985C242.465 691.227 224.584 689.962 208.069 691.224ZM247.48 748.467C251.982 749.087 256.599 749.871 261.206 750.794C263.116 751.177 264.354 753.036 263.971 754.946C263.634 756.622 262.162 757.78 260.516 757.78C260.287 757.78 260.053 757.758 259.819 757.711C255.352 756.815 250.877 756.056 246.517 755.455C244.587 755.189 243.238 753.408 243.504 751.478C243.77 749.549 245.551 748.204 247.48 748.466V748.467ZM208.069 728.43C224.584 727.168 242.464 728.433 261.206 732.191C263.116 732.574 264.354 734.433 263.971 736.343C263.634 738.019 262.162 739.177 260.516 739.177C260.287 739.177 260.053 739.154 259.819 739.108C241.71 735.477 224.48 734.251 208.606 735.464C206.668 735.609 204.969 734.159 204.82 732.216C204.671 730.274 206.126 728.579 208.068 728.43H208.069ZM208.069 709.827C224.584 708.565 242.464 709.83 261.206 713.588C263.116 713.971 264.354 715.83 263.971 717.739C263.634 719.415 262.162 720.574 260.516 720.574C260.287 720.574 260.053 720.551 259.819 720.504C241.71 716.874 224.479 715.649 208.606 716.861C206.668 717.01 204.969 715.556 204.82 713.613C204.671 711.671 206.126 709.976 208.068 709.827H208.069ZM253.114 767.921C255.782 768.358 258.504 768.855 261.207 769.397C263.116 769.781 264.354 771.639 263.971 773.55C263.635 775.225 262.163 776.384 260.517 776.384C260.287 776.384 260.053 776.361 259.819 776.314C257.198 775.788 254.558 775.306 251.972 774.882C250.05 774.566 248.748 772.752 249.063 770.83C249.378 768.908 251.195 767.603 253.114 767.921ZM346.459 698.258C330.584 697.044 313.354 698.27 295.246 701.901C295.012 701.948 294.778 701.971 294.548 701.971C292.902 701.971 291.43 700.812 291.094 699.136C290.711 697.226 291.948 695.368 293.859 694.985C312.601 691.226 330.481 689.961 346.996 691.224C348.939 691.373 350.393 693.067 350.244 695.01C350.095 696.953 348.384 698.401 346.459 698.258H346.459ZM346.459 716.861C330.584 715.647 313.354 716.873 295.246 720.504C295.012 720.551 294.778 720.574 294.548 720.574C292.902 720.574 291.43 719.415 291.094 717.739C290.711 715.83 291.948 713.971 293.859 713.588C312.6 709.83 330.479 708.564 346.996 709.827C348.939 709.976 350.393 711.67 350.244 713.613C350.095 715.556 348.384 717.011 346.459 716.861H346.459ZM346.459 754.068C330.584 752.854 313.354 754.08 295.246 757.711C295.012 757.758 294.778 757.78 294.548 757.78C292.902 757.78 291.43 756.622 291.094 754.946C290.711 753.036 291.948 751.177 293.859 750.794C312.6 747.036 330.479 745.77 346.996 747.034C348.939 747.182 350.393 748.877 350.244 750.819C350.095 752.762 348.384 754.211 346.459 754.068H346.459ZM294.548 776.384C292.902 776.384 291.43 775.225 291.094 773.549C290.711 771.639 291.948 769.78 293.859 769.397C312.6 765.639 330.479 764.374 346.996 765.636C348.938 765.785 350.393 767.48 350.244 769.422C350.096 771.365 348.409 772.813 346.459 772.67C330.583 771.458 313.354 772.683 295.245 776.314C295.011 776.361 294.778 776.384 294.548 776.384H294.548ZM346.459 735.464C330.584 734.25 313.354 735.476 295.246 739.108C295.012 739.154 294.778 739.177 294.548 739.177C292.902 739.177 291.43 738.019 291.094 736.343C290.711 734.433 291.948 732.574 293.859 732.191C312.601 728.432 330.481 727.167 346.996 728.43C348.939 728.579 350.393 730.274 350.244 732.216C350.095 734.159 348.383 735.617 346.459 735.464H346.459ZM130.293 853.319C132.739 855.765 135.952 856.988 139.164 856.988C142.376 856.988 145.59 855.765 148.035 853.319L172.338 829.017C174.403 826.952 175.073 824.019 174.363 821.384C175.506 820.662 176.912 820.628 178.141 821.359C185.139 825.522 193.164 827.723 201.348 827.723C216.3 827.723 229.588 820.465 237.878 809.289H377.07C379.018 809.289 380.598 807.709 380.598 805.761V672.89C380.598 670.942 379.018 669.363 377.07 669.363H367.043V665.168C367.043 663.797 366.248 662.55 365.005 661.971C356.952 658.217 338.204 656.735 319.373 658.248V636.005L338.955 630.758C341.627 630.043 343.493 627.611 343.493 624.846C343.493 622.08 341.627 619.65 338.956 618.934H338.955L281.634 603.574C278.836 602.825 276.229 602.824 273.431 603.574L216.11 618.933C213.438 619.65 211.572 622.081 211.572 624.846C211.572 626.572 212.3 628.168 213.495 629.297V643.036L206.489 650.042C205.828 650.703 205.456 651.601 205.456 652.536V658.451C200.22 659.023 194.143 660.067 190.059 661.971C188.816 662.55 188.022 663.797 188.022 665.168V669.363H177.994C176.046 669.363 174.467 670.942 174.467 672.89V745.63C163.209 753.912 155.89 767.249 155.89 782.264C155.89 790.447 158.09 798.472 162.254 805.471C162.985 806.701 162.95 808.106 162.228 809.249C159.593 808.538 156.66 809.209 154.596 811.274L130.293 835.576C125.401 840.468 125.402 848.428 130.293 853.319L130.293 853.319ZM188.023 676.418V738.801C185.777 739.491 183.605 740.35 181.522 741.364V676.418H188.023ZM212.928 679.862L217.023 675.768L221.118 679.863C221.957 680.703 223.072 681.148 224.208 681.148C224.773 681.148 225.343 681.038 225.887 680.813C227.528 680.133 228.588 678.546 228.588 676.77V664.879C231.468 665.002 234.337 665.203 237.174 665.465C237.249 665.519 237.323 665.576 237.404 665.624C248.209 672.11 260.798 675.779 274.005 676.335V794.509C265.459 790.506 255.128 788.262 246.559 787.01C246.721 785.45 246.806 783.868 246.806 782.265C246.806 757.2 226.413 736.807 201.348 736.807C199.22 736.807 197.128 736.957 195.078 737.242V667.583C197.657 666.75 201.244 666.049 205.457 665.553V676.77C205.457 678.546 206.518 680.133 208.159 680.813C209.801 681.492 211.673 681.119 212.928 679.862ZM235.692 636.005V658.25C233.337 658.061 230.964 657.916 228.588 657.818V652.537C228.588 651.601 228.216 650.704 227.554 650.043L220.55 643.038V631.949L235.692 636.006V636.005ZM212.512 653.997L217.022 649.486L221.533 653.997V670.302L219.517 668.285C218.855 667.623 217.958 667.252 217.023 667.252C216.087 667.252 215.19 667.623 214.529 668.285L212.512 670.302V653.997ZM333.765 624.846L279.808 639.303C278.213 639.73 276.851 639.73 275.257 639.303L221.3 624.846L275.257 610.389C276.853 609.961 278.214 609.961 279.808 610.389L333.765 624.846V624.846ZM312.318 637.896V660.567C302.023 666.327 290.042 669.362 277.532 669.362C265.022 669.362 253.04 666.327 242.746 660.567V637.896L273.431 646.118C274.83 646.492 276.182 646.68 277.533 646.68C278.884 646.68 280.235 646.492 281.634 646.118L312.319 637.896L312.318 637.896ZM359.987 787.779C351.437 785.547 337.887 784.664 323.333 785.512C312.887 786.122 294.66 788.104 281.06 794.497V676.334C294.267 675.778 306.856 672.109 317.661 665.623C317.746 665.572 317.825 665.512 317.905 665.454C335.89 663.792 352.406 665.14 359.987 667.583V787.779V787.779ZM373.542 802.234H281.403C302.791 790.426 349.883 790.243 362.024 795.904C363.117 796.413 364.392 796.33 365.41 795.682C366.426 795.035 367.042 793.912 367.042 792.708V676.418H373.542V802.234L373.542 802.234ZM242.177 802.234C243.467 799.606 244.511 796.836 245.279 793.954C257.047 795.655 266.927 798.542 273.64 802.234H242.177ZM170.164 815.703L167.909 813.447C170.271 810.048 170.492 805.524 168.316 801.865C164.801 795.957 162.944 789.179 162.944 782.265C162.944 761.09 180.171 743.862 201.347 743.862C222.523 743.862 239.75 761.09 239.75 782.265C239.75 803.441 222.523 820.668 201.347 820.668C194.432 820.668 187.654 818.81 181.747 815.297C178.088 813.119 173.564 813.341 170.165 815.703L170.164 815.703ZM135.28 840.565L159.583 816.262C159.741 816.105 159.953 816.025 160.165 816.025C160.378 816.025 160.59 816.104 160.748 816.262L167.35 822.864C167.665 823.18 167.665 823.713 167.35 824.029L143.047 848.332C140.906 850.472 137.422 850.473 135.28 848.332C133.139 846.191 133.139 842.707 135.28 840.565H135.28ZM201.347 817.271C220.649 817.271 236.353 801.567 236.353 782.265C236.353 762.962 220.649 747.258 201.347 747.258C182.044 747.258 166.34 762.962 166.34 782.265C166.34 801.567 182.044 817.271 201.347 817.271ZM173.395 782.265C173.395 766.852 185.934 754.313 201.347 754.313C216.759 754.313 229.298 766.852 229.298 782.265C229.298 797.677 216.759 810.216 201.347 810.216C185.934 810.216 173.395 797.677 173.395 782.265Z" fill="white"/>
</svg>
