<svg width="2123" height="410" viewBox="0 0 2123 410" fill="none" xmlns="http://www.w3.org/2000/svg">
<path d="M597.739 162.46L597.694 162.5L429.196 324.093H0.601562L169.06 162.5L169.105 162.46L0.601562 0.867676H429.196L597.739 162.46Z" fill="url(#paint0_linear_38_5)"/>
<path d="M1095.77 162.46L1095.73 162.5L927.186 324.093H498.592L667.05 162.5L667.095 162.46L498.592 0.867676H927.186L1095.77 162.46Z" fill="url(#paint1_linear_38_5)"/>
<path d="M1597.2 162.46L1597.16 162.5L1428.65 324.093H1000.02L1168.48 162.5L1168.52 162.46L1000.02 0.867676H1428.65L1597.2 162.46Z" fill="url(#paint2_linear_38_5)"/>
<path opacity="0.3" d="M597.694 162.5L429.196 324.092H0.601562L169.06 162.5H597.694Z" fill="white"/>
<path opacity="0.3" d="M1095.73 162.5L927.186 324.092H498.592L667.05 162.5H1095.73Z" fill="white"/>
<path opacity="0.3" d="M1597.16 162.5L1428.65 324.092H1000.02L1168.48 162.5H1597.16Z" fill="white"/>
<path d="M2122.06 162.46L2122.02 162.5L1953.52 324.093H1524.88L1693.34 162.5L1693.39 162.46L1524.88 0.867676H1953.52L2122.06 162.46Z" fill="url(#paint3_linear_38_5)"/>
<path opacity="0.3" d="M2122.02 162.5L1953.52 324.092H1524.88L1693.34 162.5H2122.02Z" fill="white"/>
<path d="M246.566 229.328H256.266V216.078H260.266V260.378H256.266V232.878H246.566V229.328ZM238.916 226.528C238.916 228.828 239.166 230.978 239.666 232.978C240.166 234.945 240.9 236.745 241.866 238.378C242.9 240.245 244.2 241.945 245.766 243.478C247.366 244.978 249.15 246.312 251.116 247.478C250.616 247.878 250.083 248.362 249.516 248.928C248.95 249.495 248.5 249.962 248.166 250.328C247.1 249.628 246.033 248.828 244.966 247.928C243.9 246.995 242.916 245.978 242.016 244.878C240.983 243.678 240.033 242.378 239.166 240.978C238.3 239.578 237.566 238.062 236.966 236.428C236.566 237.895 235.966 239.345 235.166 240.778C234.366 242.212 233.466 243.578 232.466 244.878C231.433 246.245 230.333 247.495 229.166 248.628C228 249.762 226.866 250.695 225.766 251.428C225.366 251.062 224.833 250.628 224.166 250.128C223.5 249.595 222.883 249.145 222.316 248.778C224.316 247.545 226.1 246.112 227.666 244.478C229.266 242.812 230.616 240.995 231.716 239.028C232.75 237.128 233.533 235.078 234.066 232.878C234.6 230.645 234.866 228.295 234.866 225.828V217.778H238.916V226.528ZM271.47 238.078C271.07 238.078 270.787 238.012 270.62 237.878C270.487 237.712 270.42 237.428 270.42 237.028V227.128C270.42 226.728 270.487 226.462 270.62 226.328C270.787 226.162 271.07 226.078 271.47 226.078H295.52V220.678H270.37V217.378H298.37C298.77 217.378 299.037 217.462 299.17 217.628C299.337 217.762 299.42 218.028 299.42 218.428V228.328C299.42 228.728 299.337 229.012 299.17 229.178C299.037 229.312 298.77 229.378 298.37 229.378H274.32V234.778H300.52V238.078H271.47ZM305.42 246.328H294.77V260.478H290.82V246.328H279.42V260.128H275.42V246.328H264.77V242.878H305.42V246.328ZM309.773 218.128H331.373V221.478H322.623V224.228C322.623 225.895 322.89 227.445 323.423 228.878C323.99 230.278 324.723 231.545 325.623 232.678C326.723 234.178 328.04 235.445 329.573 236.478C331.107 237.512 332.623 238.278 334.123 238.778C333.657 239.245 333.173 239.762 332.673 240.328C332.173 240.895 331.79 241.378 331.523 241.778C330.623 241.378 329.64 240.845 328.573 240.178C327.54 239.478 326.523 238.678 325.523 237.778C324.557 236.978 323.64 236.078 322.773 235.078C321.94 234.045 321.223 232.928 320.623 231.728C320.157 232.995 319.557 234.178 318.823 235.278C318.123 236.345 317.323 237.345 316.423 238.278C315.423 239.245 314.34 240.145 313.173 240.978C312.04 241.778 310.873 242.478 309.673 243.078C309.373 242.745 308.89 242.295 308.223 241.728C307.59 241.162 307.057 240.695 306.623 240.328C308.39 239.562 310.073 238.578 311.673 237.378C313.307 236.178 314.673 234.778 315.773 233.178C316.64 231.945 317.323 230.578 317.823 229.078C318.357 227.578 318.623 225.945 318.623 224.178V221.478H309.773V218.128ZM340.123 216.078H344.023V248.578H340.123V230.028H330.873V226.528H340.123V216.078ZM316.423 259.478C316.023 259.478 315.74 259.395 315.573 259.228C315.44 259.095 315.373 258.828 315.373 258.428V245.278H319.423V256.078H345.273V259.478H316.423ZM349.627 221.778H374.327V224.828H349.627V221.778ZM368.777 219.028H355.627V215.928H368.777V219.028ZM362.277 226.828C365.544 226.828 368.194 227.528 370.227 228.928C372.26 230.295 373.277 232.095 373.277 234.328C373.277 235.462 372.994 236.495 372.427 237.428C371.86 238.362 371.094 239.162 370.127 239.828C369.16 240.495 367.994 241.012 366.627 241.378C365.294 241.745 363.844 241.928 362.277 241.928C360.677 241.928 359.194 241.745 357.827 241.378C356.494 241.012 355.344 240.495 354.377 239.828C353.41 239.162 352.644 238.362 352.077 237.428C351.544 236.495 351.277 235.462 351.277 234.328C351.277 232.095 352.294 230.295 354.327 228.928C356.36 227.528 359.01 226.828 362.277 226.828ZM362.277 229.778C360.077 229.778 358.36 230.195 357.127 231.028C355.927 231.862 355.327 232.962 355.327 234.328C355.327 235.695 355.927 236.812 357.127 237.678C358.36 238.545 360.077 238.978 362.277 238.978C364.444 238.978 366.144 238.545 367.377 237.678C368.61 236.812 369.227 235.695 369.227 234.328C369.227 232.962 368.61 231.862 367.377 231.028C366.144 230.195 364.444 229.778 362.277 229.778ZM385.727 216.078V244.378H381.877L381.827 238.528H374.577V235.278H381.877V230.328H374.577V227.128H381.877V216.078H385.727ZM355.527 253.028C355.527 250.628 356.844 248.645 359.477 247.078C362.11 245.512 365.927 244.728 370.927 244.728C375.927 244.728 379.744 245.512 382.377 247.078C385.01 248.645 386.327 250.628 386.327 253.028C386.327 255.462 385.01 257.445 382.377 258.978C379.744 260.545 375.927 261.328 370.927 261.328C365.927 261.328 362.11 260.545 359.477 258.978C356.844 257.445 355.527 255.462 355.527 253.028ZM382.027 253.078C382.027 251.378 380.977 250.095 378.877 249.228C376.81 248.328 374.177 247.878 370.977 247.878C367.677 247.878 364.977 248.312 362.877 249.178C360.777 250.045 359.727 251.328 359.727 253.028C359.727 254.695 360.777 255.978 362.877 256.878C364.977 257.778 367.677 258.228 370.977 258.228C374.177 258.228 376.81 257.778 378.877 256.878C380.977 256.012 382.027 254.745 382.027 253.078Z" fill="black"/>
<path d="M732.901 236.428V221.428H720.401V236.428H732.901ZM722.451 259.478C722.051 259.478 721.767 259.395 721.601 259.228C721.467 259.095 721.401 258.828 721.401 258.428V244.978H725.351V256.128H751.201V259.478H722.451ZM736.551 219.178V222.428H746.201V216.078H750.151V248.478H746.201V234.678L736.551 234.878V238.678C736.551 239.078 736.467 239.362 736.301 239.528C736.167 239.662 735.901 239.728 735.501 239.728H717.651C717.251 239.728 716.967 239.662 716.801 239.528C716.667 239.362 716.601 239.078 716.601 238.678V219.178C716.601 218.778 716.667 218.512 716.801 218.378C716.967 218.212 717.251 218.128 717.651 218.128H735.501C735.901 218.128 736.167 218.212 736.301 218.378C736.467 218.512 736.551 218.778 736.551 219.178ZM736.551 225.678V231.578L746.201 231.378V225.678H736.551ZM780.104 238.478C779.204 238.178 778.254 237.795 777.254 237.328C776.254 236.862 775.254 236.295 774.254 235.628C773.254 234.962 772.288 234.162 771.354 233.228C770.454 232.295 769.654 231.195 768.954 229.928C767.888 232.362 766.288 234.378 764.154 235.978C762.021 237.545 759.821 238.812 757.554 239.778L754.704 237.128C756.338 236.562 757.888 235.878 759.354 235.078C760.854 234.245 762.154 233.278 763.254 232.178C764.354 231.045 765.238 229.745 765.904 228.278C766.571 226.778 766.904 225.078 766.904 223.178V221.428H758.104V218.128H779.754V221.428H771.004V223.328C771.004 225.028 771.338 226.562 772.004 227.928C772.671 229.262 773.554 230.428 774.654 231.428C775.754 232.462 776.988 233.328 778.354 234.028C779.754 234.695 781.154 235.228 782.554 235.628L780.104 238.478ZM779.254 225.478H788.504V216.078H792.404V239.528H788.504V228.928H779.254V225.478ZM767.504 256.678H788.454V250.228H767.504V256.678ZM792.354 258.878C792.354 259.278 792.271 259.545 792.104 259.678C791.971 259.845 791.704 259.928 791.304 259.928H764.654C764.254 259.928 763.971 259.845 763.804 259.678C763.671 259.545 763.604 259.278 763.604 258.878V241.678H767.504V246.978H788.454V241.678H792.354V258.878ZM822.208 221.478H813.158V223.678C813.158 225.478 813.508 227.162 814.208 228.728C814.908 230.262 815.824 231.628 816.958 232.828C818.091 234.062 819.358 235.128 820.758 236.028C822.191 236.895 823.624 237.562 825.058 238.028L822.458 240.978C821.591 240.612 820.624 240.128 819.558 239.528C818.524 238.895 817.491 238.162 816.458 237.328C815.391 236.495 814.391 235.562 813.458 234.528C812.524 233.462 811.741 232.295 811.108 231.028C810.608 232.328 809.941 233.545 809.108 234.678C808.308 235.778 807.391 236.795 806.358 237.728C805.324 238.695 804.208 239.562 803.008 240.328C801.841 241.062 800.691 241.712 799.558 242.278L796.608 239.578C798.274 238.878 799.858 238.028 801.358 237.028C802.858 235.995 804.174 234.812 805.308 233.478C806.441 232.145 807.341 230.662 808.008 229.028C808.708 227.362 809.058 225.545 809.058 223.578V221.478H799.808V218.128H822.208V221.478ZM830.108 248.578V216.078H834.008V248.578H830.108ZM806.358 259.478C805.958 259.478 805.674 259.395 805.508 259.228C805.374 259.095 805.308 258.828 805.308 258.428V245.278H809.358V256.078H835.258V259.478H806.358ZM839.511 222.478H860.111V225.578H839.511V222.478ZM855.061 219.728H844.461V216.628H855.061V219.728ZM849.761 227.428C852.561 227.428 854.828 228.112 856.561 229.478C858.295 230.845 859.161 232.678 859.161 234.978C859.161 237.212 858.261 239.045 856.461 240.478C854.695 241.878 852.461 242.578 849.761 242.578C847.028 242.578 844.761 241.878 842.961 240.478C841.195 239.045 840.311 237.212 840.311 234.978C840.311 232.678 841.178 230.845 842.911 229.478C844.678 228.112 846.961 227.428 849.761 227.428ZM849.761 230.228C847.895 230.228 846.461 230.662 845.461 231.528C844.461 232.395 843.961 233.562 843.961 235.028C843.961 236.462 844.461 237.628 845.461 238.528C846.461 239.395 847.895 239.828 849.761 239.828C851.528 239.828 852.911 239.395 853.911 238.528C854.945 237.628 855.461 236.462 855.461 235.028C855.461 233.562 854.945 232.395 853.911 231.528C852.911 230.662 851.528 230.228 849.761 230.228ZM867.061 216.878V228.228H872.561V216.078H876.361V244.678H872.561V231.728H867.061V243.228H863.261V216.878H867.061ZM845.311 252.928C845.311 250.528 846.628 248.545 849.261 246.978C851.928 245.378 855.845 244.578 861.011 244.578C866.111 244.578 869.961 245.378 872.561 246.978C875.161 248.545 876.461 250.528 876.461 252.928C876.461 255.362 875.161 257.362 872.561 258.928C869.961 260.528 866.111 261.328 861.011 261.328C855.778 261.328 851.845 260.528 849.211 258.928C846.611 257.362 845.311 255.362 845.311 252.928ZM849.561 252.928C849.561 254.562 850.611 255.845 852.711 256.778C854.811 257.745 857.578 258.228 861.011 258.228C864.345 258.228 867.045 257.745 869.111 256.778C871.211 255.845 872.261 254.578 872.261 252.978C872.261 251.278 871.211 249.978 869.111 249.078C867.045 248.178 864.345 247.728 861.011 247.728C857.578 247.728 854.811 248.178 852.711 249.078C850.611 249.978 849.561 251.262 849.561 252.928Z" fill="black"/>
<path d="M1194.83 221.428H1220.23V224.478H1194.83V221.428ZM1213.98 219.028H1200.83V215.978H1213.98V219.028ZM1207.48 226.528C1210.74 226.528 1213.39 227.195 1215.43 228.528C1217.46 229.862 1218.48 231.578 1218.48 233.678C1218.48 234.745 1218.19 235.712 1217.63 236.578C1217.06 237.445 1216.29 238.195 1215.33 238.828C1214.36 239.462 1213.19 239.962 1211.83 240.328C1210.49 240.662 1209.04 240.828 1207.48 240.828C1205.88 240.828 1204.39 240.662 1203.03 240.328C1201.69 239.962 1200.54 239.462 1199.58 238.828C1198.61 238.195 1197.84 237.445 1197.28 236.578C1196.74 235.712 1196.48 234.745 1196.48 233.678C1196.48 231.578 1197.49 229.862 1199.53 228.528C1201.56 227.195 1204.21 226.528 1207.48 226.528ZM1207.48 229.378C1205.28 229.378 1203.56 229.778 1202.33 230.578C1201.13 231.345 1200.53 232.378 1200.53 233.678C1200.53 234.945 1201.13 235.995 1202.33 236.828C1203.56 237.662 1205.28 238.078 1207.48 238.078C1209.64 238.078 1211.34 237.662 1212.58 236.828C1213.81 235.995 1214.43 234.945 1214.43 233.678C1214.43 232.378 1213.81 231.345 1212.58 230.578C1211.34 229.778 1209.64 229.378 1207.48 229.378ZM1229.13 216.078V227.328H1235.28V230.728H1229.13V241.228H1225.18V216.078H1229.13ZM1205.33 256.728H1225.33V251.428H1205.33V256.728ZM1201.38 258.928V243.578H1205.33V248.228H1225.33V243.578H1229.18V258.928C1229.18 259.328 1229.09 259.595 1228.93 259.728C1228.79 259.895 1228.53 259.978 1228.13 259.978H1202.43C1202.03 259.978 1201.74 259.895 1201.58 259.728C1201.44 259.595 1201.38 259.328 1201.38 258.928ZM1257.53 218.128C1257.93 218.128 1258.2 218.212 1258.33 218.378C1258.5 218.512 1258.58 218.778 1258.58 219.178C1257.95 224.745 1255.91 229.428 1252.48 233.228C1249.05 236.995 1244.38 239.828 1238.48 241.728L1235.93 238.928C1238.33 238.228 1240.55 237.345 1242.58 236.278C1244.65 235.212 1246.48 233.962 1248.08 232.528C1249.68 231.095 1251 229.462 1252.03 227.628C1253.1 225.795 1253.81 223.778 1254.18 221.578H1238.58V218.128H1257.53ZM1271.98 216.078V242.578H1268.03V235.228H1258.78V231.878H1268.03V225.928H1259.93V222.578H1268.03V216.078H1271.98ZM1270.88 244.978C1271.28 244.978 1271.55 245.062 1271.68 245.228C1271.85 245.362 1271.93 245.628 1271.93 246.028V260.678H1267.93V248.378H1242.48V244.978H1270.88ZM1278.78 218.628H1302.03V221.978H1292.28V226.278C1292.28 228.578 1292.53 230.728 1293.03 232.728C1293.53 234.728 1294.27 236.578 1295.23 238.278C1296.23 240.112 1297.5 241.795 1299.03 243.328C1300.6 244.862 1302.42 246.228 1304.48 247.428C1304.05 247.795 1303.55 248.262 1302.98 248.828C1302.42 249.395 1301.97 249.862 1301.63 250.228C1300.5 249.528 1299.4 248.728 1298.33 247.828C1297.27 246.928 1296.28 245.928 1295.38 244.828C1294.32 243.628 1293.35 242.328 1292.48 240.928C1291.62 239.495 1290.88 237.978 1290.28 236.378C1289.85 237.878 1289.23 239.345 1288.43 240.778C1287.67 242.178 1286.78 243.528 1285.78 244.828C1284.78 246.195 1283.7 247.445 1282.53 248.578C1281.37 249.712 1280.23 250.662 1279.13 251.428C1278.67 251.028 1278.1 250.578 1277.43 250.078C1276.8 249.578 1276.18 249.128 1275.58 248.728C1277.58 247.528 1279.37 246.128 1280.93 244.528C1282.5 242.928 1283.83 241.145 1284.93 239.178C1286 237.278 1286.82 235.195 1287.38 232.928C1287.95 230.662 1288.23 228.228 1288.23 225.628V221.978H1278.78V218.628ZM1311.58 260.428H1307.68V216.078H1311.58V233.078H1318.18V236.628H1311.58V260.428ZM1337.04 233.378H1349.44V226.928H1337.04V233.378ZM1353.29 235.578C1353.29 235.978 1353.2 236.262 1353.04 236.428C1352.9 236.562 1352.64 236.628 1352.24 236.628H1334.24C1333.84 236.628 1333.55 236.562 1333.39 236.428C1333.25 236.262 1333.19 235.978 1333.19 235.578V217.478H1337.04V223.678H1349.44V217.478H1353.29V235.578ZM1371.99 227.778H1365.94V238.878H1361.99V216.078H1365.94V224.328H1371.99V227.778ZM1338.04 241.078H1364.99C1365.39 241.078 1365.65 241.162 1365.79 241.328C1365.95 241.462 1366.04 241.728 1366.04 242.128V251.028C1366.04 251.428 1365.95 251.712 1365.79 251.878C1365.65 252.012 1365.39 252.078 1364.99 252.078H1342.24V256.878H1367.09V260.078H1339.09C1338.69 260.078 1338.4 259.995 1338.24 259.828C1338.1 259.695 1338.04 259.428 1338.04 259.028V250.078C1338.04 249.678 1338.1 249.412 1338.24 249.278C1338.4 249.112 1338.69 249.028 1339.09 249.028H1361.89V244.328H1338.04V241.078ZM1399.19 221.828H1385.54C1385.54 223.128 1385.54 224.345 1385.54 225.478C1385.57 226.612 1385.61 227.728 1385.64 228.828C1385.64 229.928 1385.64 231.045 1385.64 232.178C1385.67 233.312 1385.71 234.512 1385.74 235.778H1398.99C1398.99 234.512 1398.99 233.312 1398.99 232.178C1399.02 231.045 1399.06 229.928 1399.09 228.828C1399.09 227.728 1399.09 226.612 1399.09 225.478C1399.12 224.345 1399.16 223.128 1399.19 221.828ZM1398.39 240.628H1402.19V251.428H1412.74V254.828H1372.04V251.428H1382.89V240.628H1386.74V251.428H1398.39V240.628ZM1375.59 239.128V235.778H1381.79C1381.76 234.512 1381.72 233.312 1381.69 232.178C1381.69 231.045 1381.69 229.928 1381.69 228.828C1381.66 227.728 1381.62 226.612 1381.59 225.478C1381.59 224.345 1381.59 223.128 1381.59 221.828H1376.64V218.478H1408.04V221.828H1403.09C1403.06 223.128 1403.02 224.345 1402.99 225.478C1402.99 226.612 1402.97 227.728 1402.94 228.828C1402.94 229.928 1402.92 231.045 1402.89 232.178C1402.86 233.312 1402.84 234.512 1402.84 235.778H1409.09V239.128H1375.59Z" fill="black"/>
<path d="M1800.79 237.078C1800.79 239.112 1801.01 241.095 1801.44 243.028C1801.87 244.928 1802.56 246.628 1803.49 248.128C1804.46 249.595 1805.69 250.778 1807.19 251.678C1808.69 252.578 1810.51 253.028 1812.64 253.028C1814.77 253.028 1816.59 252.578 1818.09 251.678C1819.62 250.778 1820.87 249.595 1821.84 248.128C1822.81 246.628 1823.51 244.928 1823.94 243.028C1824.41 241.095 1824.64 239.112 1824.64 237.078C1824.64 235.078 1824.41 233.128 1823.94 231.228C1823.51 229.295 1822.81 227.578 1821.84 226.078C1820.87 224.578 1819.62 223.378 1818.09 222.478C1816.59 221.545 1814.77 221.078 1812.64 221.078C1810.51 221.078 1808.69 221.545 1807.19 222.478C1805.69 223.378 1804.46 224.578 1803.49 226.078C1802.56 227.578 1801.87 229.295 1801.44 231.228C1801.01 233.128 1800.79 235.078 1800.79 237.078ZM1828.84 237.078C1828.84 239.978 1828.47 242.628 1827.74 245.028C1827.01 247.428 1825.96 249.478 1824.59 251.178C1823.22 252.878 1821.52 254.195 1819.49 255.128C1817.49 256.062 1815.19 256.528 1812.59 256.528C1809.99 256.528 1807.69 256.062 1805.69 255.128C1803.72 254.195 1802.06 252.878 1800.69 251.178C1799.36 249.478 1798.34 247.428 1797.64 245.028C1796.97 242.628 1796.64 239.978 1796.64 237.078C1796.64 234.178 1796.97 231.528 1797.64 229.128C1798.34 226.728 1799.36 224.678 1800.69 222.978C1802.06 221.278 1803.72 219.962 1805.69 219.028C1807.69 218.062 1809.99 217.578 1812.59 217.578C1815.19 217.578 1817.49 218.062 1819.49 219.028C1821.52 219.962 1823.22 221.278 1824.59 222.978C1825.96 224.678 1827.01 226.728 1827.74 229.128C1828.47 231.528 1828.84 234.178 1828.84 237.078ZM1839.14 255.728V221.828H1827.69V218.378H1854.34V221.828H1843.09V255.728H1839.14Z" fill="black"/>
<path d="M1738.61 370.935C1737.35 370.935 1736.36 371.343 1735.64 372.16C1734.94 372.977 1734.41 373.957 1734.06 375.1C1733.69 376.267 1733.46 377.503 1733.36 378.81C1733.29 380.093 1733.26 381.225 1733.26 382.205C1733.26 383.185 1733.29 384.317 1733.36 385.6C1733.46 386.86 1733.69 388.073 1734.06 389.24C1734.41 390.383 1734.94 391.352 1735.64 392.145C1736.36 392.938 1737.35 393.335 1738.61 393.335C1739.87 393.335 1740.88 392.938 1741.62 392.145C1742.37 391.352 1742.93 390.383 1743.3 389.24C1743.7 388.073 1743.96 386.86 1744.07 385.6C1744.19 384.317 1744.25 383.185 1744.25 382.205C1744.25 381.225 1744.19 380.093 1744.07 378.81C1743.96 377.503 1743.7 376.267 1743.3 375.1C1742.93 373.957 1742.37 372.977 1741.62 372.16C1740.88 371.343 1739.87 370.935 1738.61 370.935ZM1738.61 368.52C1740.36 368.52 1741.79 368.928 1742.88 369.745C1744 370.562 1744.88 371.612 1745.51 372.895C1746.14 374.202 1746.57 375.672 1746.8 377.305C1747.04 378.938 1747.15 380.572 1747.15 382.205C1747.15 383.862 1747.04 385.495 1746.8 387.105C1746.57 388.715 1746.14 390.173 1745.51 391.48C1744.88 392.763 1744 393.802 1742.88 394.595C1741.79 395.388 1740.36 395.785 1738.61 395.785C1736.89 395.785 1735.47 395.388 1734.38 394.595C1733.3 393.802 1732.48 392.763 1731.89 391.48C1731.29 390.173 1730.88 388.715 1730.67 387.105C1730.46 385.495 1730.35 383.862 1730.35 382.205C1730.35 380.572 1730.46 378.938 1730.67 377.305C1730.88 375.672 1731.29 374.202 1731.89 372.895C1732.48 371.612 1733.3 370.562 1734.38 369.745C1735.47 368.928 1736.89 368.52 1738.61 368.52ZM1762.04 388.05C1762.04 387.187 1761.88 386.452 1761.55 385.845C1761.23 385.215 1760.8 384.702 1760.26 384.305C1759.7 383.908 1759.07 383.617 1758.37 383.43C1757.69 383.243 1756.99 383.127 1756.27 383.08H1754.87C1754.59 383.08 1754.43 383.057 1754.38 383.01C1754.33 382.94 1754.31 382.777 1754.31 382.52V381.225C1754.31 380.945 1754.33 380.758 1754.38 380.665C1754.43 380.572 1754.59 380.525 1754.87 380.525H1756.02C1756.72 380.525 1757.4 380.443 1758.05 380.28C1758.73 380.093 1759.31 379.813 1759.8 379.44C1760.32 379.09 1760.73 378.635 1761.03 378.075C1761.33 377.492 1761.48 376.792 1761.48 375.975C1761.48 374.505 1760.99 373.373 1760.01 372.58C1759.06 371.787 1757.84 371.39 1756.37 371.39C1754.86 371.39 1753.66 371.787 1752.77 372.58C1751.91 373.373 1751.4 374.517 1751.26 376.01H1748.46C1748.49 373.84 1749.23 372.125 1750.7 370.865C1752.17 369.605 1754.1 368.975 1756.48 368.975C1757.51 368.975 1758.49 369.115 1759.42 369.395C1760.38 369.652 1761.22 370.06 1761.94 370.62C1762.64 371.18 1763.2 371.892 1763.62 372.755C1764.06 373.618 1764.28 374.645 1764.28 375.835C1764.28 377.305 1763.81 378.612 1762.85 379.755C1761.89 380.898 1760.64 381.61 1759.1 381.89C1760.81 382.123 1762.18 382.847 1763.23 384.06C1764.31 385.25 1764.84 386.685 1764.84 388.365C1764.84 389.672 1764.6 390.792 1764.11 391.725C1763.64 392.635 1763.01 393.393 1762.22 394C1761.43 394.583 1760.52 395.015 1759.49 395.295C1758.46 395.575 1757.41 395.715 1756.34 395.715C1753.82 395.715 1751.82 395.05 1750.35 393.72C1748.91 392.39 1748.16 390.547 1748.11 388.19H1750.88C1751.04 389.87 1751.59 391.142 1752.52 392.005C1753.48 392.868 1754.79 393.3 1756.44 393.3C1758.17 393.3 1759.54 392.845 1760.54 391.935C1761.54 391.025 1762.04 389.73 1762.04 388.05ZM1768.82 399.495H1765.88L1777.74 366.42H1780.51L1768.82 399.495ZM1789.48 370.935C1788.22 370.935 1787.22 371.343 1786.5 372.16C1785.8 372.977 1785.28 373.957 1784.93 375.1C1784.55 376.267 1784.32 377.503 1784.23 378.81C1784.16 380.093 1784.12 381.225 1784.12 382.205C1784.12 383.185 1784.16 384.317 1784.23 385.6C1784.32 386.86 1784.55 388.073 1784.93 389.24C1785.28 390.383 1785.8 391.352 1786.5 392.145C1787.22 392.938 1788.22 393.335 1789.48 393.335C1790.74 393.335 1791.74 392.938 1792.49 392.145C1793.23 391.352 1793.79 390.383 1794.17 389.24C1794.56 388.073 1794.82 386.86 1794.94 385.6C1795.05 384.317 1795.11 383.185 1795.11 382.205C1795.11 381.225 1795.05 380.093 1794.94 378.81C1794.82 377.503 1794.56 376.267 1794.17 375.1C1793.79 373.957 1793.23 372.977 1792.49 372.16C1791.74 371.343 1790.74 370.935 1789.48 370.935ZM1789.48 368.52C1791.23 368.52 1792.65 368.928 1793.75 369.745C1794.87 370.562 1795.74 371.612 1796.37 372.895C1797 374.202 1797.43 375.672 1797.67 377.305C1797.9 378.938 1798.02 380.572 1798.02 382.205C1798.02 383.862 1797.9 385.495 1797.67 387.105C1797.43 388.715 1797 390.173 1796.37 391.48C1795.74 392.763 1794.87 393.802 1793.75 394.595C1792.65 395.388 1791.23 395.785 1789.48 395.785C1787.75 395.785 1786.34 395.388 1785.24 394.595C1784.17 393.802 1783.34 392.763 1782.76 391.48C1782.15 390.173 1781.74 388.715 1781.53 387.105C1781.32 385.495 1781.22 383.862 1781.22 382.205C1781.22 380.572 1781.32 378.938 1781.53 377.305C1781.74 375.672 1782.15 374.202 1782.76 372.895C1783.34 371.612 1784.17 370.562 1785.24 369.745C1786.34 368.928 1787.75 368.52 1789.48 368.52ZM1807.87 380.665C1807.07 380.665 1806.34 380.84 1805.66 381.19C1805.01 381.517 1804.45 381.948 1803.98 382.485C1803.49 383.045 1803.12 383.687 1802.86 384.41C1802.61 385.133 1802.48 385.892 1802.48 386.685C1802.48 387.642 1802.59 388.528 1802.83 389.345C1803.08 390.162 1803.45 390.862 1803.91 391.445C1804.38 392.052 1804.94 392.53 1805.59 392.88C1806.25 393.207 1806.98 393.37 1807.8 393.37C1809.55 393.37 1810.9 392.763 1811.86 391.55C1812.81 390.313 1813.29 388.797 1813.29 387C1813.29 386.16 1813.18 385.355 1812.94 384.585C1812.71 383.815 1812.36 383.15 1811.89 382.59C1811.45 382.007 1810.89 381.54 1810.21 381.19C1809.54 380.84 1808.75 380.665 1807.87 380.665ZM1799.4 383.15C1799.4 380.817 1799.61 378.775 1800.03 377.025C1800.47 375.252 1801.09 373.77 1801.88 372.58C1802.65 371.413 1803.57 370.527 1804.65 369.92C1805.72 369.313 1806.89 369.01 1808.15 369.01C1810.27 369.01 1812 369.617 1813.33 370.83C1814.66 372.02 1815.44 373.63 1815.67 375.66H1812.91C1812.84 374.353 1812.35 373.315 1811.44 372.545C1810.53 371.752 1809.44 371.355 1808.18 371.355C1806.95 371.355 1805.92 371.74 1805.1 372.51C1804.29 373.28 1803.63 374.248 1803.14 375.415C1802.65 376.558 1802.3 377.807 1802.09 379.16C1801.91 380.513 1801.81 381.773 1801.81 382.94C1802.33 381.447 1803.19 380.338 1804.4 379.615C1805.62 378.868 1807 378.495 1808.57 378.495C1810.88 378.495 1812.7 379.277 1814.03 380.84C1815.38 382.403 1816.06 384.48 1816.06 387.07C1816.06 388.283 1815.87 389.415 1815.5 390.465C1815.15 391.515 1814.62 392.437 1813.92 393.23C1813.25 394 1812.42 394.607 1811.44 395.05C1810.46 395.493 1809.35 395.715 1808.11 395.715C1806.18 395.715 1804.53 395.202 1803.18 394.175C1801.85 393.172 1800.91 391.888 1800.38 390.325C1800.03 389.368 1799.77 388.342 1799.61 387.245C1799.47 386.125 1799.4 384.76 1799.4 383.15ZM1827.07 382.87C1827.07 381.447 1827.22 379.988 1827.52 378.495C1827.85 377.002 1828.31 375.52 1828.92 374.05C1829.55 372.603 1830.3 371.203 1831.16 369.85C1832.05 368.497 1833.05 367.237 1834.17 366.07H1836.27C1834.19 368.8 1832.65 371.612 1831.65 374.505C1830.67 377.375 1830.18 380.163 1830.18 382.87C1830.18 385.6 1830.67 388.412 1831.65 391.305C1832.65 394.175 1834.19 396.963 1836.27 399.67H1834.17C1833.05 398.527 1832.05 397.278 1831.16 395.925C1830.3 394.572 1829.55 393.16 1828.92 391.69C1828.31 390.243 1827.85 388.773 1827.52 387.28C1827.22 385.787 1827.07 384.317 1827.07 382.87ZM1841.86 376.465H1857.36V370.76H1841.86V376.465ZM1859.36 378.775H1851.03V382.94H1863.84V385.32H1835.42V382.94H1848.23V378.775H1839.9C1839.62 378.775 1839.42 378.728 1839.3 378.635C1839.21 378.518 1839.16 378.32 1839.16 378.04V369.15C1839.16 368.87 1839.21 368.683 1839.3 368.59C1839.42 368.473 1839.62 368.415 1839.9 368.415H1859.36C1859.64 368.415 1859.82 368.473 1859.92 368.59C1860.03 368.683 1860.09 368.87 1860.09 369.15V378.04C1860.09 378.32 1860.03 378.518 1859.92 378.635C1859.82 378.728 1859.64 378.775 1859.36 378.775ZM1859.29 388.54C1859.57 388.54 1859.75 388.598 1859.85 388.715C1859.96 388.808 1860.02 388.995 1860.02 389.275V398.76H1857.19V390.955H1838.85V388.54H1859.29ZM1872.73 382.87C1872.73 384.317 1872.56 385.787 1872.24 387.28C1871.91 388.773 1871.44 390.243 1870.84 391.69C1870.21 393.16 1869.45 394.572 1868.56 395.925C1867.7 397.278 1866.72 398.527 1865.62 399.67H1863.52C1865.58 396.963 1867.1 394.175 1868.11 391.305C1869.11 388.412 1869.61 385.6 1869.61 382.87C1869.61 380.163 1869.11 377.375 1868.11 374.505C1867.1 371.612 1865.58 368.8 1863.52 366.07H1865.62C1866.72 367.237 1867.7 368.497 1868.56 369.85C1869.45 371.203 1870.21 372.603 1870.84 374.05C1871.44 375.52 1871.91 377.002 1872.24 378.495C1872.56 379.988 1872.73 381.447 1872.73 382.87Z" fill="black"/>
<path d="M1214.44 370.935C1213.18 370.935 1212.19 371.343 1211.47 372.16C1210.77 372.977 1210.24 373.957 1209.89 375.1C1209.52 376.267 1209.29 377.503 1209.19 378.81C1209.12 380.093 1209.09 381.225 1209.09 382.205C1209.09 383.185 1209.12 384.317 1209.19 385.6C1209.29 386.86 1209.52 388.073 1209.89 389.24C1210.24 390.383 1210.77 391.352 1211.47 392.145C1212.19 392.938 1213.18 393.335 1214.44 393.335C1215.7 393.335 1216.71 392.938 1217.45 392.145C1218.2 391.352 1218.76 390.383 1219.13 389.24C1219.53 388.073 1219.79 386.86 1219.9 385.6C1220.02 384.317 1220.08 383.185 1220.08 382.205C1220.08 381.225 1220.02 380.093 1219.9 378.81C1219.79 377.503 1219.53 376.267 1219.13 375.1C1218.76 373.957 1218.2 372.977 1217.45 372.16C1216.71 371.343 1215.7 370.935 1214.44 370.935ZM1214.44 368.52C1216.19 368.52 1217.62 368.928 1218.71 369.745C1219.83 370.562 1220.71 371.612 1221.34 372.895C1221.97 374.202 1222.4 375.672 1222.63 377.305C1222.87 378.938 1222.98 380.572 1222.98 382.205C1222.98 383.862 1222.87 385.495 1222.63 387.105C1222.4 388.715 1221.97 390.173 1221.34 391.48C1220.71 392.763 1219.83 393.802 1218.71 394.595C1217.62 395.388 1216.19 395.785 1214.44 395.785C1212.72 395.785 1211.3 395.388 1210.21 394.595C1209.13 393.802 1208.31 392.763 1207.72 391.48C1207.12 390.173 1206.71 388.715 1206.5 387.105C1206.29 385.495 1206.18 383.862 1206.18 382.205C1206.18 380.572 1206.29 378.938 1206.5 377.305C1206.71 375.672 1207.12 374.202 1207.72 372.895C1208.31 371.612 1209.13 370.562 1210.21 369.745C1211.3 368.928 1212.72 368.52 1214.44 368.52ZM1224.54 392.495C1224.94 392.122 1225.41 391.655 1225.97 391.095C1226.56 390.535 1227.19 389.917 1227.86 389.24C1228.52 388.563 1229.19 387.84 1229.89 387.07C1230.59 386.3 1231.28 385.507 1231.96 384.69C1232.64 383.897 1233.28 383.103 1233.88 382.31C1234.49 381.493 1235.02 380.712 1235.46 379.965C1235.93 379.195 1236.29 378.472 1236.54 377.795C1236.82 377.118 1236.96 376.5 1236.96 375.94C1236.96 374.423 1236.52 373.292 1235.63 372.545C1234.75 371.775 1233.6 371.39 1232.2 371.39C1230.85 371.39 1229.74 371.857 1228.88 372.79C1228.04 373.723 1227.62 374.937 1227.62 376.43H1224.75C1224.75 375.31 1224.94 374.295 1225.31 373.385C1225.68 372.452 1226.21 371.658 1226.88 371.005C1227.56 370.352 1228.35 369.85 1229.26 369.5C1230.2 369.15 1231.2 368.975 1232.27 368.975C1234.42 368.975 1236.22 369.547 1237.66 370.69C1239.11 371.833 1239.83 373.513 1239.83 375.73C1239.83 377.223 1239.37 378.775 1238.43 380.385C1237.52 381.995 1236.43 383.558 1235.14 385.075C1233.86 386.592 1232.53 388.015 1231.15 389.345C1229.78 390.675 1228.63 391.795 1227.72 392.705H1240.39V395.12H1225.03C1224.82 395.12 1224.68 395.085 1224.61 395.015C1224.56 394.945 1224.54 394.805 1224.54 394.595V392.495ZM1244.65 399.495H1241.71L1253.57 366.42H1256.34L1244.65 399.495ZM1267.62 370.235V395.12H1264.85V372.58C1264.22 373.257 1263.43 373.91 1262.47 374.54C1261.54 375.147 1260.51 375.73 1259.39 376.29V373.63C1260.39 373.187 1261.36 372.615 1262.3 371.915C1263.23 371.215 1264.12 370.433 1264.96 369.57H1266.95C1267.21 369.57 1267.38 369.617 1267.48 369.71C1267.57 369.803 1267.62 369.978 1267.62 370.235ZM1290.94 372.545L1281.81 395.12H1278.69L1288.28 371.985H1275.44V369.57H1290.56C1290.79 369.57 1290.95 369.628 1291.05 369.745C1291.16 369.838 1291.22 370.002 1291.22 370.235V371.565C1291.22 371.752 1291.19 371.927 1291.12 372.09C1291.07 372.253 1291.01 372.405 1290.94 372.545ZM1302.9 382.87C1302.9 381.447 1303.05 379.988 1303.35 378.495C1303.68 377.002 1304.14 375.52 1304.75 374.05C1305.38 372.603 1306.13 371.203 1306.99 369.85C1307.88 368.497 1308.88 367.237 1310 366.07H1312.1C1310.02 368.8 1308.48 371.612 1307.48 374.505C1306.5 377.375 1306.01 380.163 1306.01 382.87C1306.01 385.6 1306.5 388.412 1307.48 391.305C1308.48 394.175 1310.02 396.963 1312.1 399.67H1310C1308.88 398.527 1307.88 397.278 1306.99 395.925C1306.13 394.572 1305.38 393.16 1304.75 391.69C1304.14 390.243 1303.68 388.773 1303.35 387.28C1303.05 385.787 1302.9 384.317 1302.9 382.87ZM1322.2 367.19C1324.58 367.19 1326.42 367.68 1327.73 368.66C1329.06 369.64 1329.73 370.83 1329.73 372.23C1329.73 373.677 1329.06 374.878 1327.73 375.835C1326.42 376.768 1324.58 377.235 1322.2 377.235C1319.82 377.235 1317.98 376.757 1316.67 375.8C1315.36 374.82 1314.71 373.63 1314.71 372.23C1314.71 370.9 1315.36 369.733 1316.67 368.73C1317.98 367.703 1319.82 367.19 1322.2 367.19ZM1317.41 372.23C1317.41 373.047 1317.77 373.758 1318.49 374.365C1319.24 374.948 1320.47 375.24 1322.2 375.24C1323.88 375.24 1325.09 374.948 1325.84 374.365C1326.61 373.758 1327 373.047 1327 372.23C1327 371.413 1326.61 370.713 1325.84 370.13C1325.09 369.523 1323.88 369.22 1322.2 369.22C1320.45 369.22 1319.21 369.523 1318.49 370.13C1317.77 370.737 1317.41 371.437 1317.41 372.23ZM1327.59 382.135H1334.91V367.54H1337.6V385.32H1334.91V384.025H1327.59V382.135ZM1312.3 378.81H1315.62C1316.74 378.81 1318.08 378.81 1319.65 378.81C1321.21 378.787 1322.82 378.752 1324.48 378.705C1326.16 378.658 1327.79 378.577 1329.38 378.46C1330.99 378.343 1332.41 378.18 1333.65 377.97V380.07C1332.99 380.187 1332.21 380.292 1331.3 380.385C1330.41 380.455 1329.46 380.525 1328.43 380.595C1327.4 380.665 1326.34 380.723 1325.25 380.77C1324.17 380.817 1323.13 380.84 1322.13 380.84V385.25H1319.37V380.91H1312.3V378.81ZM1336.8 393.44H1320.24V396.1H1338.23V398.27H1318.04C1317.76 398.27 1317.56 398.212 1317.44 398.095C1317.35 398.002 1317.3 397.815 1317.3 397.535V392.145C1317.3 391.865 1317.35 391.678 1317.44 391.585C1317.56 391.468 1317.76 391.41 1318.04 391.41H1334.63V388.995H1317.3V386.825H1336.8C1337.08 386.825 1337.26 386.883 1337.36 387C1337.47 387.093 1337.53 387.28 1337.53 387.56V392.705C1337.53 392.985 1337.47 393.183 1337.36 393.3C1337.26 393.393 1337.08 393.44 1336.8 393.44ZM1348.56 382.87C1348.56 384.317 1348.4 385.787 1348.07 387.28C1347.74 388.773 1347.28 390.243 1346.67 391.69C1346.04 393.16 1345.28 394.572 1344.39 395.925C1343.53 397.278 1342.55 398.527 1341.45 399.67H1339.35C1341.41 396.963 1342.94 394.175 1343.94 391.305C1344.94 388.412 1345.44 385.6 1345.44 382.87C1345.44 380.163 1344.94 377.375 1343.94 374.505C1342.94 371.612 1341.41 368.8 1339.35 366.07H1341.45C1342.55 367.237 1343.53 368.497 1344.39 369.85C1345.28 371.203 1346.04 372.603 1346.67 374.05C1347.28 375.52 1347.74 377.002 1348.07 378.495C1348.4 379.988 1348.56 381.447 1348.56 382.87Z" fill="black"/>
<path d="M598.017 370.935C596.757 370.935 595.766 371.343 595.042 372.16C594.342 372.977 593.817 373.957 593.467 375.1C593.094 376.267 592.861 377.503 592.767 378.81C592.697 380.093 592.662 381.225 592.662 382.205C592.662 383.185 592.697 384.317 592.767 385.6C592.861 386.86 593.094 388.073 593.467 389.24C593.817 390.383 594.342 391.352 595.042 392.145C595.766 392.938 596.757 393.335 598.017 393.335C599.277 393.335 600.281 392.938 601.027 392.145C601.774 391.352 602.334 390.383 602.707 389.24C603.104 388.073 603.361 386.86 603.477 385.6C603.594 384.317 603.652 383.185 603.652 382.205C603.652 381.225 603.594 380.093 603.477 378.81C603.361 377.503 603.104 376.267 602.707 375.1C602.334 373.957 601.774 372.977 601.027 372.16C600.281 371.343 599.277 370.935 598.017 370.935ZM598.017 368.52C599.767 368.52 601.191 368.928 602.287 369.745C603.407 370.562 604.282 371.612 604.912 372.895C605.542 374.202 605.974 375.672 606.207 377.305C606.441 378.938 606.557 380.572 606.557 382.205C606.557 383.862 606.441 385.495 606.207 387.105C605.974 388.715 605.542 390.173 604.912 391.48C604.282 392.763 603.407 393.802 602.287 394.595C601.191 395.388 599.767 395.785 598.017 395.785C596.291 395.785 594.879 395.388 593.782 394.595C592.709 393.802 591.881 392.763 591.297 391.48C590.691 390.173 590.282 388.715 590.072 387.105C589.862 385.495 589.757 383.862 589.757 382.205C589.757 380.572 589.862 378.938 590.072 377.305C590.282 375.672 590.691 374.202 591.297 372.895C591.881 371.612 592.709 370.562 593.782 369.745C594.879 368.928 596.291 368.52 598.017 368.52ZM608.114 392.495C608.511 392.122 608.989 391.655 609.549 391.095C610.132 390.535 610.762 389.917 611.439 389.24C612.092 388.563 612.769 387.84 613.469 387.07C614.169 386.3 614.857 385.507 615.534 384.69C616.211 383.897 616.852 383.103 617.459 382.31C618.066 381.493 618.591 380.712 619.034 379.965C619.501 379.195 619.862 378.472 620.119 377.795C620.399 377.118 620.539 376.5 620.539 375.94C620.539 374.423 620.096 373.292 619.209 372.545C618.322 371.775 617.179 371.39 615.779 371.39C614.426 371.39 613.317 371.857 612.454 372.79C611.614 373.723 611.194 374.937 611.194 376.43H608.324C608.324 375.31 608.511 374.295 608.884 373.385C609.257 372.452 609.782 371.658 610.459 371.005C611.136 370.352 611.929 369.85 612.839 369.5C613.772 369.15 614.776 368.975 615.849 368.975C617.996 368.975 619.792 369.547 621.239 370.69C622.686 371.833 623.409 373.513 623.409 375.73C623.409 377.223 622.942 378.775 622.009 380.385C621.099 381.995 620.002 383.558 618.719 385.075C617.436 386.592 616.106 388.015 614.729 389.345C613.352 390.675 612.209 391.795 611.299 392.705H623.969V395.12H608.604C608.394 395.12 608.254 395.085 608.184 395.015C608.137 394.945 608.114 394.805 608.114 394.595V392.495ZM628.221 399.495H625.281L637.146 366.42H639.911L628.221 399.495ZM651.191 370.235V395.12H648.426V372.58C647.796 373.257 647.002 373.91 646.046 374.54C645.112 375.147 644.086 375.73 642.966 376.29V373.63C643.969 373.187 644.937 372.615 645.871 371.915C646.804 371.215 647.691 370.433 648.531 369.57H650.526C650.782 369.57 650.957 369.617 651.051 369.71C651.144 369.803 651.191 369.978 651.191 370.235ZM667.272 380.665C666.479 380.665 665.744 380.84 665.067 381.19C664.414 381.517 663.854 381.948 663.387 382.485C662.897 383.045 662.524 383.687 662.267 384.41C662.011 385.133 661.882 385.892 661.882 386.685C661.882 387.642 661.999 388.528 662.232 389.345C662.489 390.162 662.851 390.862 663.317 391.445C663.784 392.052 664.344 392.53 664.997 392.88C665.651 393.207 666.386 393.37 667.202 393.37C668.952 393.37 670.306 392.763 671.262 391.55C672.219 390.313 672.697 388.797 672.697 387C672.697 386.16 672.581 385.355 672.347 384.585C672.114 383.815 671.764 383.15 671.297 382.59C670.854 382.007 670.294 381.54 669.617 381.19C668.941 380.84 668.159 380.665 667.272 380.665ZM658.802 383.15C658.802 380.817 659.012 378.775 659.432 377.025C659.876 375.252 660.494 373.77 661.287 372.58C662.057 371.413 662.979 370.527 664.052 369.92C665.126 369.313 666.292 369.01 667.552 369.01C669.676 369.01 671.402 369.617 672.732 370.83C674.062 372.02 674.844 373.63 675.077 375.66H672.312C672.242 374.353 671.752 373.315 670.842 372.545C669.932 371.752 668.847 371.355 667.587 371.355C666.351 371.355 665.324 371.74 664.507 372.51C663.691 373.28 663.037 374.248 662.547 375.415C662.057 376.558 661.707 377.807 661.497 379.16C661.311 380.513 661.217 381.773 661.217 382.94C661.731 381.447 662.594 380.338 663.807 379.615C665.021 378.868 666.409 378.495 667.972 378.495C670.282 378.495 672.102 379.277 673.432 380.84C674.786 382.403 675.462 384.48 675.462 387.07C675.462 388.283 675.276 389.415 674.902 390.465C674.552 391.515 674.027 392.437 673.327 393.23C672.651 394 671.822 394.607 670.842 395.05C669.862 395.493 668.754 395.715 667.517 395.715C665.581 395.715 663.936 395.202 662.582 394.175C661.252 393.172 660.319 391.888 659.782 390.325C659.432 389.368 659.176 388.342 659.012 387.245C658.872 386.125 658.802 384.76 658.802 383.15ZM686.47 382.87C686.47 381.447 686.622 379.988 686.925 378.495C687.252 377.002 687.719 375.52 688.325 374.05C688.955 372.603 689.702 371.203 690.565 369.85C691.452 368.497 692.455 367.237 693.575 366.07H695.675C693.599 368.8 692.059 371.612 691.055 374.505C690.075 377.375 689.585 380.163 689.585 382.87C689.585 385.6 690.075 388.412 691.055 391.305C692.059 394.175 693.599 396.963 695.675 399.67H693.575C692.455 398.527 691.452 397.278 690.565 395.925C689.702 394.572 688.955 393.16 688.325 391.69C687.719 390.243 687.252 388.773 686.925 387.28C686.622 385.787 686.47 384.317 686.47 382.87ZM699.405 369.01H719.425V371.355H701.47V376.64H719.355V378.95H701.47V384.2H719.74V386.545H710.465V392.32H723.275V394.665H694.785V392.285L707.595 392.32V386.545H699.405C699.125 386.545 698.927 386.498 698.81 386.405C698.717 386.288 698.67 386.09 698.67 385.81V369.745C698.67 369.465 698.717 369.278 698.81 369.185C698.927 369.068 699.125 369.01 699.405 369.01ZM732.133 382.87C732.133 384.317 731.97 385.787 731.643 387.28C731.316 388.773 730.85 390.243 730.243 391.69C729.613 393.16 728.855 394.572 727.968 395.925C727.105 397.278 726.125 398.527 725.028 399.67H722.928C724.981 396.963 726.51 394.175 727.513 391.305C728.516 388.412 729.018 385.6 729.018 382.87C729.018 380.163 728.516 377.375 727.513 374.505C726.51 371.612 724.981 368.8 722.928 366.07H725.028C726.125 367.237 727.105 368.497 727.968 369.85C728.855 371.203 729.613 372.603 730.243 374.05C730.85 375.52 731.316 377.002 731.643 378.495C731.97 379.988 732.133 381.447 732.133 382.87ZM750.144 383.745C749.514 383.255 748.966 382.87 748.499 382.59C748.056 382.31 747.589 382.17 747.099 382.17C746.399 382.17 745.828 382.403 745.384 382.87C744.941 383.313 744.544 383.955 744.194 384.795L742.619 383.85C742.923 382.777 743.471 381.855 744.264 381.085C745.058 380.315 746.014 379.93 747.134 379.93C747.811 379.93 748.406 380.047 748.919 380.28C749.456 380.49 750.004 380.817 750.564 381.26C751.194 381.773 751.731 382.17 752.174 382.45C752.618 382.707 753.096 382.835 753.609 382.835C754.356 382.835 754.939 382.578 755.359 382.065C755.803 381.552 756.211 380.84 756.584 379.93L758.159 380.875C757.833 382.135 757.273 383.15 756.479 383.92C755.709 384.69 754.741 385.075 753.574 385.075C752.874 385.075 752.268 384.97 751.754 384.76C751.241 384.55 750.704 384.212 750.144 383.745ZM776.828 370.935C775.568 370.935 774.576 371.343 773.853 372.16C773.153 372.977 772.628 373.957 772.278 375.1C771.904 376.267 771.671 377.503 771.578 378.81C771.508 380.093 771.473 381.225 771.473 382.205C771.473 383.185 771.508 384.317 771.578 385.6C771.671 386.86 771.904 388.073 772.278 389.24C772.628 390.383 773.153 391.352 773.853 392.145C774.576 392.938 775.568 393.335 776.828 393.335C778.088 393.335 779.091 392.938 779.838 392.145C780.584 391.352 781.144 390.383 781.518 389.24C781.914 388.073 782.171 386.86 782.288 385.6C782.404 384.317 782.463 383.185 782.463 382.205C782.463 381.225 782.404 380.093 782.288 378.81C782.171 377.503 781.914 376.267 781.518 375.1C781.144 373.957 780.584 372.977 779.838 372.16C779.091 371.343 778.088 370.935 776.828 370.935ZM776.828 368.52C778.578 368.52 780.001 368.928 781.098 369.745C782.218 370.562 783.093 371.612 783.723 372.895C784.353 374.202 784.784 375.672 785.018 377.305C785.251 378.938 785.368 380.572 785.368 382.205C785.368 383.862 785.251 385.495 785.018 387.105C784.784 388.715 784.353 390.173 783.723 391.48C783.093 392.763 782.218 393.802 781.098 394.595C780.001 395.388 778.578 395.785 776.828 395.785C775.101 395.785 773.689 395.388 772.593 394.595C771.519 393.802 770.691 392.763 770.108 391.48C769.501 390.173 769.093 388.715 768.883 387.105C768.673 385.495 768.568 383.862 768.568 382.205C768.568 380.572 768.673 378.938 768.883 377.305C769.093 375.672 769.501 374.202 770.108 372.895C770.691 371.612 771.519 370.562 772.593 369.745C773.689 368.928 775.101 368.52 776.828 368.52ZM786.924 392.495C787.321 392.122 787.799 391.655 788.359 391.095C788.943 390.535 789.573 389.917 790.249 389.24C790.903 388.563 791.579 387.84 792.279 387.07C792.979 386.3 793.668 385.507 794.344 384.69C795.021 383.897 795.663 383.103 796.269 382.31C796.876 381.493 797.401 380.712 797.844 379.965C798.311 379.195 798.673 378.472 798.929 377.795C799.209 377.118 799.349 376.5 799.349 375.94C799.349 374.423 798.906 373.292 798.019 372.545C797.133 371.775 795.989 371.39 794.589 371.39C793.236 371.39 792.128 371.857 791.264 372.79C790.424 373.723 790.004 374.937 790.004 376.43H787.134C787.134 375.31 787.321 374.295 787.694 373.385C788.068 372.452 788.593 371.658 789.269 371.005C789.946 370.352 790.739 369.85 791.649 369.5C792.583 369.15 793.586 368.975 794.659 368.975C796.806 368.975 798.603 369.547 800.049 370.69C801.496 371.833 802.219 373.513 802.219 375.73C802.219 377.223 801.753 378.775 800.819 380.385C799.909 381.995 798.813 383.558 797.529 385.075C796.246 386.592 794.916 388.015 793.539 389.345C792.163 390.675 791.019 391.795 790.109 392.705H802.779V395.12H787.414C787.204 395.12 787.064 395.085 786.994 395.015C786.948 394.945 786.924 394.805 786.924 394.595V392.495ZM807.031 399.495H804.091L815.956 366.42H818.721L807.031 399.495ZM830.001 370.235V395.12H827.236V372.58C826.606 373.257 825.813 373.91 824.856 374.54C823.923 375.147 822.896 375.73 821.776 376.29V373.63C822.779 373.187 823.748 372.615 824.681 371.915C825.614 371.215 826.501 370.433 827.341 369.57H829.336C829.593 369.57 829.768 369.617 829.861 369.71C829.954 369.803 830.001 369.978 830.001 370.235ZM846.083 380.665C845.289 380.665 844.554 380.84 843.878 381.19C843.224 381.517 842.664 381.948 842.198 382.485C841.708 383.045 841.334 383.687 841.078 384.41C840.821 385.133 840.693 385.892 840.693 386.685C840.693 387.642 840.809 388.528 841.043 389.345C841.299 390.162 841.661 390.862 842.128 391.445C842.594 392.052 843.154 392.53 843.808 392.88C844.461 393.207 845.196 393.37 846.013 393.37C847.763 393.37 849.116 392.763 850.073 391.55C851.029 390.313 851.508 388.797 851.508 387C851.508 386.16 851.391 385.355 851.158 384.585C850.924 383.815 850.574 383.15 850.108 382.59C849.664 382.007 849.104 381.54 848.428 381.19C847.751 380.84 846.969 380.665 846.083 380.665ZM837.613 383.15C837.613 380.817 837.823 378.775 838.243 377.025C838.686 375.252 839.304 373.77 840.098 372.58C840.868 371.413 841.789 370.527 842.863 369.92C843.936 369.313 845.103 369.01 846.363 369.01C848.486 369.01 850.213 369.617 851.543 370.83C852.873 372.02 853.654 373.63 853.888 375.66H851.123C851.053 374.353 850.563 373.315 849.653 372.545C848.743 371.752 847.658 371.355 846.398 371.355C845.161 371.355 844.134 371.74 843.318 372.51C842.501 373.28 841.848 374.248 841.358 375.415C840.868 376.558 840.518 377.807 840.308 379.16C840.121 380.513 840.028 381.773 840.028 382.94C840.541 381.447 841.404 380.338 842.618 379.615C843.831 378.868 845.219 378.495 846.783 378.495C849.093 378.495 850.913 379.277 852.243 380.84C853.596 382.403 854.273 384.48 854.273 387.07C854.273 388.283 854.086 389.415 853.713 390.465C853.363 391.515 852.838 392.437 852.138 393.23C851.461 394 850.633 394.607 849.653 395.05C848.673 395.493 847.564 395.715 846.328 395.715C844.391 395.715 842.746 395.202 841.393 394.175C840.063 393.172 839.129 391.888 838.593 390.325C838.243 389.368 837.986 388.342 837.823 387.245C837.683 386.125 837.613 384.76 837.613 383.15ZM865.281 382.87C865.281 381.447 865.432 379.988 865.736 378.495C866.062 377.002 866.529 375.52 867.136 374.05C867.766 372.603 868.512 371.203 869.376 369.85C870.262 368.497 871.266 367.237 872.386 366.07H874.486C872.409 368.8 870.869 371.612 869.866 374.505C868.886 377.375 868.396 380.163 868.396 382.87C868.396 385.6 868.886 388.412 869.866 391.305C870.869 394.175 872.409 396.963 874.486 399.67H872.386C871.266 398.527 870.262 397.278 869.376 395.925C868.512 394.572 867.766 393.16 867.136 391.69C866.529 390.243 866.062 388.773 865.736 387.28C865.432 385.787 865.281 384.317 865.281 382.87ZM882.766 382.625C881.692 382.625 880.677 382.45 879.721 382.1C878.787 381.727 877.971 381.225 877.271 380.595C876.547 379.942 875.976 379.172 875.556 378.285C875.159 377.375 874.961 376.383 874.961 375.31C874.961 374.237 875.159 373.245 875.556 372.335C875.976 371.402 876.536 370.608 877.236 369.955C877.936 369.302 878.752 368.788 879.686 368.415C880.642 368.042 881.669 367.855 882.766 367.855C883.816 367.855 884.807 368.042 885.741 368.415C886.697 368.788 887.537 369.302 888.261 369.955C888.984 370.632 889.556 371.425 889.976 372.335C890.396 373.245 890.606 374.237 890.606 375.31C890.606 376.383 890.396 377.375 889.976 378.285C889.556 379.172 888.984 379.942 888.261 380.595C887.537 381.225 886.697 381.727 885.741 382.1C884.807 382.45 883.816 382.625 882.766 382.625ZM877.621 375.275C877.621 376.675 878.099 377.865 879.056 378.845C880.036 379.802 881.272 380.28 882.766 380.28C884.282 380.28 885.519 379.802 886.476 378.845C887.432 377.865 887.911 376.675 887.911 375.275C887.911 373.875 887.421 372.685 886.441 371.705C885.461 370.702 884.236 370.2 882.766 370.2C882.019 370.2 881.331 370.34 880.701 370.62C880.071 370.9 879.522 371.273 879.056 371.74C878.612 372.207 878.262 372.743 878.006 373.35C877.749 373.957 877.621 374.598 877.621 375.275ZM899.566 367.54V383.465H896.801V367.54H899.566ZM880.071 398.27C879.791 398.27 879.592 398.212 879.476 398.095C879.382 398.002 879.336 397.815 879.336 397.535V391.34C879.336 391.06 879.382 390.873 879.476 390.78C879.592 390.663 879.791 390.605 880.071 390.605H896.486V387.49H879.336V385.215H898.726C899.006 385.215 899.192 385.273 899.286 385.39C899.402 385.483 899.461 385.67 899.461 385.95V392.005C899.461 392.285 899.402 392.483 899.286 392.6C899.192 392.693 899.006 392.74 898.726 392.74H882.311V396.03H900.196V398.27H880.071ZM910.943 382.87C910.943 384.317 910.78 385.787 910.453 387.28C910.127 388.773 909.66 390.243 909.053 391.69C908.423 393.16 907.665 394.572 906.778 395.925C905.915 397.278 904.935 398.527 903.838 399.67H901.738C903.792 396.963 905.32 394.175 906.323 391.305C907.327 388.412 907.828 385.6 907.828 382.87C907.828 380.163 907.327 377.375 906.323 374.505C905.32 371.612 903.792 368.8 901.738 366.07H903.838C904.935 367.237 905.915 368.497 906.778 369.85C907.665 371.203 908.423 372.603 909.053 374.05C909.66 375.52 910.127 377.002 910.453 378.495C910.78 379.988 910.943 381.447 910.943 382.87Z" fill="black"/>
<path d="M96.6384 370.935C95.3784 370.935 94.3867 371.343 93.6634 372.16C92.9634 372.977 92.4384 373.957 92.0884 375.1C91.715 376.267 91.4817 377.503 91.3884 378.81C91.3184 380.093 91.2834 381.225 91.2834 382.205C91.2834 383.185 91.3184 384.317 91.3884 385.6C91.4817 386.86 91.715 388.073 92.0884 389.24C92.4384 390.383 92.9634 391.352 93.6634 392.145C94.3867 392.938 95.3784 393.335 96.6384 393.335C97.8984 393.335 98.9017 392.938 99.6484 392.145C100.395 391.352 100.955 390.383 101.328 389.24C101.725 388.073 101.982 386.86 102.098 385.6C102.215 384.317 102.273 383.185 102.273 382.205C102.273 381.225 102.215 380.093 102.098 378.81C101.982 377.503 101.725 376.267 101.328 375.1C100.955 373.957 100.395 372.977 99.6484 372.16C98.9017 371.343 97.8984 370.935 96.6384 370.935ZM96.6384 368.52C98.3884 368.52 99.8117 368.928 100.908 369.745C102.028 370.562 102.903 371.612 103.533 372.895C104.163 374.202 104.595 375.672 104.828 377.305C105.062 378.938 105.178 380.572 105.178 382.205C105.178 383.862 105.062 385.495 104.828 387.105C104.595 388.715 104.163 390.173 103.533 391.48C102.903 392.763 102.028 393.802 100.908 394.595C99.8117 395.388 98.3884 395.785 96.6384 395.785C94.9117 395.785 93.5 395.388 92.4034 394.595C91.33 393.802 90.5017 392.763 89.9184 391.48C89.3117 390.173 88.9034 388.715 88.6934 387.105C88.4834 385.495 88.3784 383.862 88.3784 382.205C88.3784 380.572 88.4834 378.938 88.6934 377.305C88.9034 375.672 89.3117 374.202 89.9184 372.895C90.5017 371.612 91.33 370.562 92.4034 369.745C93.5 368.928 94.9117 368.52 96.6384 368.52ZM106.735 392.495C107.132 392.122 107.61 391.655 108.17 391.095C108.753 390.535 109.383 389.917 110.06 389.24C110.713 388.563 111.39 387.84 112.09 387.07C112.79 386.3 113.478 385.507 114.155 384.69C114.832 383.897 115.473 383.103 116.08 382.31C116.687 381.493 117.212 380.712 117.655 379.965C118.122 379.195 118.483 378.472 118.74 377.795C119.02 377.118 119.16 376.5 119.16 375.94C119.16 374.423 118.717 373.292 117.83 372.545C116.943 371.775 115.8 371.39 114.4 371.39C113.047 371.39 111.938 371.857 111.075 372.79C110.235 373.723 109.815 374.937 109.815 376.43H106.945C106.945 375.31 107.132 374.295 107.505 373.385C107.878 372.452 108.403 371.658 109.08 371.005C109.757 370.352 110.55 369.85 111.46 369.5C112.393 369.15 113.397 368.975 114.47 368.975C116.617 368.975 118.413 369.547 119.86 370.69C121.307 371.833 122.03 373.513 122.03 375.73C122.03 377.223 121.563 378.775 120.63 380.385C119.72 381.995 118.623 383.558 117.34 385.075C116.057 386.592 114.727 388.015 113.35 389.345C111.973 390.675 110.83 391.795 109.92 392.705H122.59V395.12H107.225C107.015 395.12 106.875 395.085 106.805 395.015C106.758 394.945 106.735 394.805 106.735 394.595V392.495ZM126.842 399.495H123.902L135.767 366.42H138.532L126.842 399.495ZM147.502 370.935C146.242 370.935 145.25 371.343 144.527 372.16C143.827 372.977 143.302 373.957 142.952 375.1C142.579 376.267 142.345 377.503 142.252 378.81C142.182 380.093 142.147 381.225 142.147 382.205C142.147 383.185 142.182 384.317 142.252 385.6C142.345 386.86 142.579 388.073 142.952 389.24C143.302 390.383 143.827 391.352 144.527 392.145C145.25 392.938 146.242 393.335 147.502 393.335C148.762 393.335 149.765 392.938 150.512 392.145C151.259 391.352 151.819 390.383 152.192 389.24C152.589 388.073 152.845 386.86 152.962 385.6C153.079 384.317 153.137 383.185 153.137 382.205C153.137 381.225 153.079 380.093 152.962 378.81C152.845 377.503 152.589 376.267 152.192 375.1C151.819 373.957 151.259 372.977 150.512 372.16C149.765 371.343 148.762 370.935 147.502 370.935ZM147.502 368.52C149.252 368.52 150.675 368.928 151.772 369.745C152.892 370.562 153.767 371.612 154.397 372.895C155.027 374.202 155.459 375.672 155.692 377.305C155.925 378.938 156.042 380.572 156.042 382.205C156.042 383.862 155.925 385.495 155.692 387.105C155.459 388.715 155.027 390.173 154.397 391.48C153.767 392.763 152.892 393.802 151.772 394.595C150.675 395.388 149.252 395.785 147.502 395.785C145.775 395.785 144.364 395.388 143.267 394.595C142.194 393.802 141.365 392.763 140.782 391.48C140.175 390.173 139.767 388.715 139.557 387.105C139.347 385.495 139.242 383.862 139.242 382.205C139.242 380.572 139.347 378.938 139.557 377.305C139.767 375.672 140.175 374.202 140.782 372.895C141.365 371.612 142.194 370.562 143.267 369.745C144.364 368.928 145.775 368.52 147.502 368.52ZM170.934 388.05C170.934 387.187 170.77 386.452 170.444 385.845C170.117 385.215 169.685 384.702 169.149 384.305C168.589 383.908 167.959 383.617 167.259 383.43C166.582 383.243 165.882 383.127 165.159 383.08H163.759C163.479 383.08 163.315 383.057 163.269 383.01C163.222 382.94 163.199 382.777 163.199 382.52V381.225C163.199 380.945 163.222 380.758 163.269 380.665C163.315 380.572 163.479 380.525 163.759 380.525H164.914C165.614 380.525 166.29 380.443 166.944 380.28C167.62 380.093 168.204 379.813 168.694 379.44C169.207 379.09 169.615 378.635 169.919 378.075C170.222 377.492 170.374 376.792 170.374 375.975C170.374 374.505 169.884 373.373 168.904 372.58C167.947 371.787 166.734 371.39 165.264 371.39C163.747 371.39 162.545 371.787 161.659 372.58C160.795 373.373 160.294 374.517 160.154 376.01H157.354C157.377 373.84 158.124 372.125 159.594 370.865C161.064 369.605 162.989 368.975 165.369 368.975C166.395 368.975 167.375 369.115 168.309 369.395C169.265 369.652 170.105 370.06 170.829 370.62C171.529 371.18 172.089 371.892 172.509 372.755C172.952 373.618 173.174 374.645 173.174 375.835C173.174 377.305 172.695 378.612 171.739 379.755C170.782 380.898 169.534 381.61 167.994 381.89C169.697 382.123 171.074 382.847 172.124 384.06C173.197 385.25 173.734 386.685 173.734 388.365C173.734 389.672 173.489 390.792 172.999 391.725C172.532 392.635 171.902 393.393 171.109 394C170.315 394.583 169.405 395.015 168.379 395.295C167.352 395.575 166.302 395.715 165.229 395.715C162.709 395.715 160.714 395.05 159.244 393.72C157.797 392.39 157.05 390.547 157.004 388.19H159.769C159.932 389.87 160.48 391.142 161.414 392.005C162.37 392.868 163.677 393.3 165.334 393.3C167.06 393.3 168.425 392.845 169.429 391.935C170.432 391.025 170.934 389.73 170.934 388.05ZM185.092 382.87C185.092 381.447 185.243 379.988 185.547 378.495C185.873 377.002 186.34 375.52 186.947 374.05C187.577 372.603 188.323 371.203 189.187 369.85C190.073 368.497 191.077 367.237 192.197 366.07H194.297C192.22 368.8 190.68 371.612 189.677 374.505C188.697 377.375 188.207 380.163 188.207 382.87C188.207 385.6 188.697 388.412 189.677 391.305C190.68 394.175 192.22 396.963 194.297 399.67H192.197C191.077 398.527 190.073 397.278 189.187 395.925C188.323 394.572 187.577 393.16 186.947 391.69C186.34 390.243 185.873 388.773 185.547 387.28C185.243 385.787 185.092 384.317 185.092 382.87ZM198.027 369.01H218.047V371.355H200.092V376.64H217.977V378.95H200.092V384.2H218.362V386.545H209.087V392.32H221.897V394.665H193.407V392.285L206.217 392.32V386.545H198.027C197.747 386.545 197.548 386.498 197.432 386.405C197.338 386.288 197.292 386.09 197.292 385.81V369.745C197.292 369.465 197.338 369.278 197.432 369.185C197.548 369.068 197.747 369.01 198.027 369.01ZM230.754 382.87C230.754 384.317 230.591 385.787 230.264 387.28C229.937 388.773 229.471 390.243 228.864 391.69C228.234 393.16 227.476 394.572 226.589 395.925C225.726 397.278 224.746 398.527 223.649 399.67H221.549C223.602 396.963 225.131 394.175 226.134 391.305C227.137 388.412 227.639 385.6 227.639 382.87C227.639 380.163 227.137 377.375 226.134 374.505C225.131 371.612 223.602 368.8 221.549 366.07H223.649C224.746 367.237 225.726 368.497 226.589 369.85C227.476 371.203 228.234 372.603 228.864 374.05C229.471 375.52 229.937 377.002 230.264 378.495C230.591 379.988 230.754 381.447 230.754 382.87ZM248.765 383.745C248.135 383.255 247.587 382.87 247.12 382.59C246.677 382.31 246.21 382.17 245.72 382.17C245.02 382.17 244.449 382.403 244.005 382.87C243.562 383.313 243.165 383.955 242.815 384.795L241.24 383.85C241.544 382.777 242.092 381.855 242.885 381.085C243.679 380.315 244.635 379.93 245.755 379.93C246.432 379.93 247.027 380.047 247.54 380.28C248.077 380.49 248.625 380.817 249.185 381.26C249.815 381.773 250.352 382.17 250.795 382.45C251.239 382.707 251.717 382.835 252.23 382.835C252.977 382.835 253.56 382.578 253.98 382.065C254.424 381.552 254.832 380.84 255.205 379.93L256.78 380.875C256.454 382.135 255.894 383.15 255.1 383.92C254.33 384.69 253.362 385.075 252.195 385.075C251.495 385.075 250.889 384.97 250.375 384.76C249.862 384.55 249.325 384.212 248.765 383.745ZM275.449 370.935C274.189 370.935 273.197 371.343 272.474 372.16C271.774 372.977 271.249 373.957 270.899 375.1C270.525 376.267 270.292 377.503 270.199 378.81C270.129 380.093 270.094 381.225 270.094 382.205C270.094 383.185 270.129 384.317 270.199 385.6C270.292 386.86 270.525 388.073 270.899 389.24C271.249 390.383 271.774 391.352 272.474 392.145C273.197 392.938 274.189 393.335 275.449 393.335C276.709 393.335 277.712 392.938 278.459 392.145C279.205 391.352 279.765 390.383 280.139 389.24C280.535 388.073 280.792 386.86 280.909 385.6C281.025 384.317 281.084 383.185 281.084 382.205C281.084 381.225 281.025 380.093 280.909 378.81C280.792 377.503 280.535 376.267 280.139 375.1C279.765 373.957 279.205 372.977 278.459 372.16C277.712 371.343 276.709 370.935 275.449 370.935ZM275.449 368.52C277.199 368.52 278.622 368.928 279.719 369.745C280.839 370.562 281.714 371.612 282.344 372.895C282.974 374.202 283.405 375.672 283.639 377.305C283.872 378.938 283.989 380.572 283.989 382.205C283.989 383.862 283.872 385.495 283.639 387.105C283.405 388.715 282.974 390.173 282.344 391.48C281.714 392.763 280.839 393.802 279.719 394.595C278.622 395.388 277.199 395.785 275.449 395.785C273.722 395.785 272.31 395.388 271.214 394.595C270.14 393.802 269.312 392.763 268.729 391.48C268.122 390.173 267.714 388.715 267.504 387.105C267.294 385.495 267.189 383.862 267.189 382.205C267.189 380.572 267.294 378.938 267.504 377.305C267.714 375.672 268.122 374.202 268.729 372.895C269.312 371.612 270.14 370.562 271.214 369.745C272.31 368.928 273.722 368.52 275.449 368.52ZM285.545 392.495C285.942 392.122 286.42 391.655 286.98 391.095C287.564 390.535 288.194 389.917 288.87 389.24C289.524 388.563 290.2 387.84 290.9 387.07C291.6 386.3 292.289 385.507 292.965 384.69C293.642 383.897 294.284 383.103 294.89 382.31C295.497 381.493 296.022 380.712 296.465 379.965C296.932 379.195 297.294 378.472 297.55 377.795C297.83 377.118 297.97 376.5 297.97 375.94C297.97 374.423 297.527 373.292 296.64 372.545C295.754 371.775 294.61 371.39 293.21 371.39C291.857 371.39 290.749 371.857 289.885 372.79C289.045 373.723 288.625 374.937 288.625 376.43H285.755C285.755 375.31 285.942 374.295 286.315 373.385C286.689 372.452 287.214 371.658 287.89 371.005C288.567 370.352 289.36 369.85 290.27 369.5C291.204 369.15 292.207 368.975 293.28 368.975C295.427 368.975 297.224 369.547 298.67 370.69C300.117 371.833 300.84 373.513 300.84 375.73C300.84 377.223 300.374 378.775 299.44 380.385C298.53 381.995 297.434 383.558 296.15 385.075C294.867 386.592 293.537 388.015 292.16 389.345C290.784 390.675 289.64 391.795 288.73 392.705H301.4V395.12H286.035C285.825 395.12 285.685 395.085 285.615 395.015C285.569 394.945 285.545 394.805 285.545 394.595V392.495ZM305.652 399.495H302.712L314.577 366.42H317.342L305.652 399.495ZM328.622 370.235V395.12H325.857V372.58C325.227 373.257 324.434 373.91 323.477 374.54C322.544 375.147 321.517 375.73 320.397 376.29V373.63C321.401 373.187 322.369 372.615 323.302 371.915C324.236 371.215 325.122 370.433 325.962 369.57H327.957C328.214 369.57 328.389 369.617 328.482 369.71C328.576 369.803 328.622 369.978 328.622 370.235ZM347.049 375.52L347.119 372.3L338.089 387.105H347.049V375.52ZM335.744 386.405L345.964 369.64C346.034 369.5 346.127 369.395 346.244 369.325C346.361 369.232 346.501 369.185 346.664 369.185H349.044C349.301 369.185 349.476 369.232 349.569 369.325C349.662 369.418 349.709 369.593 349.709 369.85V387.105H353.524V389.52H349.709V395.12H346.979V389.52H336.094C335.837 389.52 335.662 389.473 335.569 389.38C335.476 389.287 335.429 389.112 335.429 388.855V387.385C335.429 387.222 335.452 387.058 335.499 386.895C335.569 386.708 335.651 386.545 335.744 386.405ZM363.902 382.87C363.902 381.447 364.054 379.988 364.357 378.495C364.684 377.002 365.15 375.52 365.757 374.05C366.387 372.603 367.134 371.203 367.997 369.85C368.884 368.497 369.887 367.237 371.007 366.07H373.107C371.03 368.8 369.49 371.612 368.487 374.505C367.507 377.375 367.017 380.163 367.017 382.87C367.017 385.6 367.507 388.412 368.487 391.305C369.49 394.175 371.03 396.963 373.107 399.67H371.007C369.887 398.527 368.884 397.278 367.997 395.925C367.134 394.572 366.387 393.16 365.757 391.69C365.15 390.243 364.684 388.773 364.357 387.28C364.054 385.787 363.902 384.317 363.902 382.87ZM381.387 382.625C380.314 382.625 379.299 382.45 378.342 382.1C377.409 381.727 376.592 381.225 375.892 380.595C375.169 379.942 374.597 379.172 374.177 378.285C373.78 377.375 373.582 376.383 373.582 375.31C373.582 374.237 373.78 373.245 374.177 372.335C374.597 371.402 375.157 370.608 375.857 369.955C376.557 369.302 377.374 368.788 378.307 368.415C379.264 368.042 380.29 367.855 381.387 367.855C382.437 367.855 383.429 368.042 384.362 368.415C385.319 368.788 386.159 369.302 386.882 369.955C387.605 370.632 388.177 371.425 388.597 372.335C389.017 373.245 389.227 374.237 389.227 375.31C389.227 376.383 389.017 377.375 388.597 378.285C388.177 379.172 387.605 379.942 386.882 380.595C386.159 381.225 385.319 381.727 384.362 382.1C383.429 382.45 382.437 382.625 381.387 382.625ZM376.242 375.275C376.242 376.675 376.72 377.865 377.677 378.845C378.657 379.802 379.894 380.28 381.387 380.28C382.904 380.28 384.14 379.802 385.097 378.845C386.054 377.865 386.532 376.675 386.532 375.275C386.532 373.875 386.042 372.685 385.062 371.705C384.082 370.702 382.857 370.2 381.387 370.2C380.64 370.2 379.952 370.34 379.322 370.62C378.692 370.9 378.144 371.273 377.677 371.74C377.234 372.207 376.884 372.743 376.627 373.35C376.37 373.957 376.242 374.598 376.242 375.275ZM398.187 367.54V383.465H395.422V367.54H398.187ZM378.692 398.27C378.412 398.27 378.214 398.212 378.097 398.095C378.004 398.002 377.957 397.815 377.957 397.535V391.34C377.957 391.06 378.004 390.873 378.097 390.78C378.214 390.663 378.412 390.605 378.692 390.605H395.107V387.49H377.957V385.215H397.347C397.627 385.215 397.814 385.273 397.907 385.39C398.024 385.483 398.082 385.67 398.082 385.95V392.005C398.082 392.285 398.024 392.483 397.907 392.6C397.814 392.693 397.627 392.74 397.347 392.74H380.932V396.03H398.817V398.27H378.692ZM409.564 382.87C409.564 384.317 409.401 385.787 409.074 387.28C408.748 388.773 408.281 390.243 407.674 391.69C407.044 393.16 406.286 394.572 405.399 395.925C404.536 397.278 403.556 398.527 402.459 399.67H400.359C402.413 396.963 403.941 394.175 404.944 391.305C405.948 388.412 406.449 385.6 406.449 382.87C406.449 380.163 405.948 377.375 404.944 374.505C403.941 371.612 402.413 368.8 400.359 366.07H402.459C403.556 367.237 404.536 368.497 405.399 369.85C406.286 371.203 407.044 372.603 407.674 374.05C408.281 375.52 408.748 377.002 409.074 378.495C409.401 379.988 409.564 381.447 409.564 382.87Z" fill="black"/>
<g clip-path="url(#clip0_38_5)">
<path d="M816.799 73.5956C816.799 68.3696 813.731 64.0638 807.871 63.1021C807.064 63.3705 806.206 63.5211 805.31 63.5211C804.415 63.5211 803.554 63.3705 802.747 63.1021C796.888 64.0638 793.822 68.3696 793.822 73.5956H805.31H816.799Z" fill="white"/>
<path d="M805.312 61.658C808.784 61.658 811.598 58.8435 811.598 55.3714V53.5872C811.598 50.1136 808.784 47.2991 805.312 47.2991C801.838 47.2991 799.023 50.1136 799.023 53.5872V55.3714C799.023 58.8435 801.838 61.658 805.312 61.658Z" fill="white"/>
<path d="M843.317 73.5956C843.317 68.3696 840.25 64.0638 834.391 63.1021C833.584 63.3705 832.724 63.5211 831.829 63.5211C830.933 63.5211 830.073 63.3705 829.267 63.1021C823.408 64.0638 820.342 68.3696 820.342 73.5956H831.829H843.317Z" fill="white"/>
<path d="M831.829 61.658C835.301 61.658 838.117 58.8435 838.117 55.3714V53.5872C838.117 50.1136 835.301 47.2991 831.829 47.2991C828.357 47.2991 825.541 50.1136 825.541 53.5872V55.3714C825.541 58.8435 828.357 61.658 831.829 61.658Z" fill="white"/>
<path d="M867.01 115.162L851.603 79.3755C851.276 78.6105 850.524 78.1152 849.691 78.1152H787.812C786.98 78.1152 786.227 78.6105 785.899 79.374L770.492 115.162C770.215 115.805 770.28 116.546 770.666 117.132C771.05 117.716 771.705 118.069 772.405 118.069H801.437C803.916 113.879 808.188 110.839 814.185 109.856C815.565 110.314 817.038 110.572 818.571 110.572C820.104 110.572 821.577 110.314 822.957 109.856C828.954 110.839 833.226 113.879 835.704 118.069H865.095C865.797 118.069 866.45 117.716 866.836 117.132C867.222 116.546 867.287 115.805 867.01 115.162ZM829.333 96.6224C829.333 102.566 824.516 107.385 818.571 107.385C812.626 107.385 807.809 102.566 807.809 96.6224V93.568C807.809 87.6243 812.626 82.806 818.571 82.806C824.516 82.806 829.333 87.6243 829.333 93.568V96.6224Z" fill="white"/>
</g>
<g clip-path="url(#clip1_38_5)">
<path d="M1360.49 32.8311H1358.92L1280.58 55.811C1279.48 56.1557 1278.53 56.855 1277.86 57.7998C1277.2 58.7446 1276.87 59.8817 1276.93 61.0337V84.5359C1276.95 85.6701 1277.31 86.7714 1277.96 87.7008C1278.61 88.6303 1279.52 89.3463 1280.58 89.7586L1292.85 93.1533L1297.03 120.05C1297.23 121.92 1298.11 123.651 1299.51 124.906C1300.91 126.16 1302.73 126.85 1304.61 126.84H1316.36C1318.54 126.754 1320.6 125.816 1322.1 124.228C1322.82 123.268 1323.33 122.168 1323.6 120.999C1323.87 119.83 1323.89 118.617 1323.67 117.439L1320.8 101.51L1358.92 112.738H1360.49C1361.87 112.738 1363.2 112.188 1364.18 111.209C1365.16 110.229 1365.71 108.901 1365.71 107.516V38.0538C1365.71 36.6686 1365.16 35.3402 1364.18 34.3608C1363.2 33.3813 1361.87 32.8311 1360.49 32.8311ZM1312.96 116.394H1306.96L1303.82 96.5481L1309.31 98.1149L1312.96 116.394ZM1355.27 100.726L1287.37 80.6188V64.9507L1355.27 45.1044V100.726Z" fill="white"/>
<path d="M1376.16 57.1167C1376.98 57.1936 1377.8 57.0109 1378.51 56.5944L1388.95 51.3717C1390.2 50.7484 1391.15 49.6554 1391.59 48.3331C1392.03 47.0109 1391.93 45.5677 1391.3 44.321C1390.68 43.0744 1389.59 42.1265 1388.26 41.6857C1386.94 41.245 1385.5 41.3475 1384.25 41.9708L1373.81 47.1935C1373.19 47.4988 1372.63 47.9243 1372.18 48.4451C1371.72 48.966 1371.38 49.5719 1371.16 50.2278C1370.94 50.8837 1370.85 51.5764 1370.9 52.2659C1370.96 52.9553 1371.14 53.6278 1371.46 54.2442C1371.92 55.0951 1372.59 55.809 1373.42 56.3135C1374.25 56.818 1375.19 57.0951 1376.16 57.1167Z" fill="white"/>
<path d="M1388.95 94.459L1378.51 89.2363C1377.28 88.6493 1375.88 88.538 1374.58 88.9239C1373.28 89.3099 1372.16 90.1657 1371.46 91.3254C1371.14 91.9418 1370.96 92.6143 1370.9 93.3037C1370.85 93.9932 1370.94 94.6859 1371.16 95.3418C1371.38 95.9977 1371.72 96.6036 1372.18 97.1245C1372.63 97.6453 1373.19 98.0708 1373.81 98.3761L1384.25 103.599C1384.96 104.015 1385.78 104.198 1386.6 104.121C1387.57 104.099 1388.51 103.822 1389.34 103.318C1390.17 102.813 1390.84 102.099 1391.3 101.249C1391.61 100.652 1391.79 99.9982 1391.84 99.3281C1391.89 98.658 1391.8 97.9851 1391.58 97.3503C1391.36 96.7154 1391.02 96.1318 1390.56 95.6348C1390.11 95.1378 1389.56 94.7378 1388.95 94.459Z" fill="white"/>
<path d="M1376.16 78.0074H1386.6C1387.99 78.0074 1389.32 77.4572 1390.29 76.4777C1391.27 75.4983 1391.82 74.1699 1391.82 72.7847C1391.82 71.3996 1391.27 70.0712 1390.29 69.0917C1389.32 68.1123 1387.99 67.562 1386.6 67.562H1376.16C1374.77 67.562 1373.44 68.1123 1372.46 69.0917C1371.48 70.0712 1370.93 71.3996 1370.93 72.7847C1370.93 74.1699 1371.48 75.4983 1372.46 76.4777C1373.44 77.4572 1374.77 78.0074 1376.16 78.0074Z" fill="white"/>
</g>
<path fill-rule="evenodd" clip-rule="evenodd" d="M316.556 28.6919C317.402 27.8461 318.549 27.3708 319.746 27.3708H355.83C363.303 27.3708 369.361 33.4292 369.361 40.9024V113.071C369.361 120.544 363.303 126.602 355.83 126.602H301.703C294.23 126.602 288.172 120.544 288.172 113.071V58.9445C288.172 57.7482 288.647 56.601 289.493 55.7551L316.556 28.6919ZM355.83 36.3919H324.256V58.9445C324.256 61.4356 322.237 63.455 319.746 63.455H297.193V113.071C297.193 115.562 299.212 117.581 301.703 117.581H355.83C358.321 117.581 360.34 115.562 360.34 113.071V40.9024C360.34 38.4113 358.321 36.3919 355.83 36.3919ZM303.572 54.434H315.235V42.7707L303.572 54.434ZM306.214 81.4971C306.214 79.0059 308.233 76.9866 310.724 76.9866H346.809C349.3 76.9866 351.319 79.0059 351.319 81.4971C351.319 83.9883 349.3 86.0076 346.809 86.0076H310.724C308.233 86.0076 306.214 83.9883 306.214 81.4971ZM306.214 99.5392C306.214 97.048 308.233 95.0287 310.724 95.0287H346.809C349.3 95.0287 351.319 97.048 351.319 99.5392C351.319 102.03 349.3 104.05 346.809 104.05H310.724C308.233 104.05 306.214 102.03 306.214 99.5392Z" fill="#222222"/>
<path d="M1893.46 63.7799H1791.68C1792.92 55.2906 1799.55 48.5105 1807.97 47.0462V52.55C1807.97 56.8403 1811.45 60.3272 1815.75 60.3272C1820.05 60.3272 1823.53 56.846 1823.53 52.55V46.7329H1861.62V52.55C1861.62 56.8403 1865.1 60.3272 1869.4 60.3272C1873.69 60.3272 1877.17 56.846 1877.17 52.55V47.0462C1885.6 48.5105 1892.22 55.2906 1893.46 63.7799Z" fill="white"/>
<path d="M1893.7 70.1211V105.229C1893.7 106.255 1893.64 107.252 1893.45 108.215C1892.05 117.855 1883.72 125.256 1873.68 125.256H1811.45C1801.4 125.256 1793.07 117.855 1791.67 108.215C1791.48 107.252 1791.42 106.255 1791.42 105.229V70.1211H1893.7Z" fill="white"/>
<path d="M1874.05 32.5176V52.5443C1874.05 55.0911 1871.96 57.2105 1869.38 57.2105C1866.83 57.2105 1864.71 55.0968 1864.71 52.5443V36.5913H1820.4V52.5443C1820.4 55.0911 1818.31 57.2105 1815.73 57.2105C1813.18 57.2105 1811.07 55.0968 1811.07 52.5443V32.5176C1811.07 29.9708 1813.18 27.8513 1815.73 27.8513H1869.37C1871.96 27.857 1874.05 29.9708 1874.05 32.5176Z" fill="white"/>
<defs>
<linearGradient id="paint0_linear_38_5" x1="0.601562" y1="162.481" x2="597.737" y2="162.481" gradientUnits="userSpaceOnUse">
<stop stop-color="#F4F4F0"/>
<stop offset="1" stop-color="#E0E0DC"/>
</linearGradient>
<linearGradient id="paint1_linear_38_5" x1="498.594" y1="162.481" x2="1095.77" y2="162.481" gradientUnits="userSpaceOnUse">
<stop stop-color="#C1C1C1"/>
<stop offset="1" stop-color="#898787"/>
</linearGradient>
<linearGradient id="paint2_linear_38_5" x1="1000.02" y1="162.481" x2="1597.2" y2="162.481" gradientUnits="userSpaceOnUse">
<stop stop-color="#826546" stop-opacity="0.64"/>
<stop offset="1" stop-color="#826546"/>
</linearGradient>
<linearGradient id="paint3_linear_38_5" x1="1524.88" y1="162.481" x2="2122.06" y2="162.481" gradientUnits="userSpaceOnUse">
<stop stop-color="#15273D" stop-opacity="0.76"/>
<stop offset="1" stop-color="#15273D"/>
</linearGradient>
<clipPath id="clip0_38_5">
<rect width="96.8575" height="96.8575" fill="white" transform="translate(770.322 34.2554)"/>
</clipPath>
<clipPath id="clip1_38_5">
<rect width="125.345" height="125.345" fill="white" transform="translate(1271.7 17.1628)"/>
</clipPath>
</defs>
</svg>
