<svg width="324" height="598" viewBox="0 0 324 598" fill="none" xmlns="http://www.w3.org/2000/svg">
<path d="M161.632 597.138L161.592 597.092L-0.000293393 428.594L-0.000274658 -1.41286e-05L161.592 168.458L161.632 168.504L323.225 0L323.225 428.594L161.632 597.138Z" fill="url(#paint0_linear_47_2)"/>
<path opacity="0.3" d="M161.592 597.092L-0.000720639 428.594L-0.000701904 -7.06343e-06L161.592 168.458L161.592 597.092Z" fill="white"/>
<path fill-rule="evenodd" clip-rule="evenodd" d="M142.37 292.704C143.488 291.586 145.003 290.958 146.583 290.958H194.25C204.122 290.958 212.125 298.961 212.125 308.833V404.167C212.125 414.039 204.122 422.042 194.25 422.042H122.75C112.878 422.042 104.875 414.039 104.875 404.167V332.667C104.875 331.087 105.503 329.571 106.62 328.454L142.37 292.704ZM194.25 302.875H152.542V332.667C152.542 335.957 149.874 338.625 146.583 338.625H116.792V404.167C116.792 407.458 119.459 410.125 122.75 410.125H194.25C197.541 410.125 200.208 407.458 200.208 404.167V308.833C200.208 305.543 197.541 302.875 194.25 302.875ZM125.218 326.708H140.625V311.301L125.218 326.708ZM128.708 362.458C128.708 359.168 131.376 356.5 134.667 356.5H182.333C185.624 356.5 188.292 359.168 188.292 362.458C188.292 365.749 185.624 368.417 182.333 368.417H134.667C131.376 368.417 128.708 365.749 128.708 362.458ZM128.708 386.292C128.708 383.001 131.376 380.333 134.667 380.333H182.333C185.624 380.333 188.292 383.001 188.292 386.292C188.292 389.583 185.624 392.25 182.333 392.25H134.667C131.376 392.25 128.708 389.583 128.708 386.292Z" fill="#222222"/>
<defs>
<linearGradient id="paint0_linear_47_2" x1="161.612" y1="-7.06433e-06" x2="161.612" y2="597.136" gradientUnits="userSpaceOnUse">
<stop stop-color="#F4F4F0"/>
<stop offset="1" stop-color="#E0E0DC"/>
</linearGradient>
</defs>
</svg>
