<svg width="324" height="598" viewBox="0 0 324 598" fill="none" xmlns="http://www.w3.org/2000/svg">
<path d="M161.632 597.599L161.592 597.553L-0.000293394 429.05L-0.000274658 0.415513L161.592 168.873L161.632 168.919L323.225 0.415527L323.225 429.05L161.632 597.599Z" fill="url(#paint0_linear_47_4)"/>
<path opacity="0.3" d="M161.592 597.553L-0.00072064 429.05L-0.000701904 0.41552L161.592 168.874L161.592 597.553Z" fill="white"/>
<g clip-path="url(#clip0_47_4)">
<path d="M193.791 280.375H191.854L94.9788 308.792C93.6179 309.218 92.4364 310.083 91.6186 311.251C90.8008 312.419 90.3927 313.825 90.4579 315.25V344.312C90.4896 345.715 90.9358 347.077 91.7403 348.226C92.5449 349.376 93.6717 350.261 94.9788 350.771L110.156 354.969L115.323 388.229C115.563 390.541 116.655 392.681 118.386 394.233C120.116 395.785 122.363 396.637 124.687 396.625H139.218C141.917 396.519 144.468 395.359 146.323 393.396C147.212 392.208 147.844 390.848 148.178 389.402C148.511 387.957 148.539 386.457 148.26 385L144.708 365.302L191.854 379.187H193.791C195.504 379.187 197.147 378.507 198.358 377.296C199.569 376.085 200.25 374.442 200.25 372.729V286.833C200.25 285.12 199.569 283.478 198.358 282.267C197.147 281.055 195.504 280.375 193.791 280.375ZM135.02 383.708H127.593L123.718 359.167L130.5 361.104L135.02 383.708ZM187.333 364.333L103.375 339.469V320.094L187.333 295.552V364.333Z" fill="white"/>
<path d="M213.167 310.406C214.179 310.501 215.196 310.275 216.073 309.76L228.99 303.302C230.531 302.531 231.704 301.18 232.249 299.545C232.794 297.909 232.667 296.125 231.896 294.583C231.125 293.042 229.774 291.869 228.138 291.324C226.503 290.779 224.719 290.906 223.177 291.677L210.261 298.135C209.494 298.513 208.809 299.039 208.247 299.683C207.685 300.327 207.256 301.076 206.986 301.888C206.715 302.699 206.609 303.555 206.672 304.408C206.735 305.26 206.967 306.092 207.354 306.854C207.924 307.906 208.761 308.789 209.782 309.413C210.803 310.037 211.971 310.379 213.167 310.406Z" fill="white"/>
<path d="M228.99 356.583L216.073 350.125C214.558 349.399 212.827 349.261 211.216 349.739C209.606 350.216 208.229 351.274 207.354 352.708C206.967 353.471 206.735 354.302 206.672 355.155C206.609 356.007 206.715 356.864 206.986 357.675C207.256 358.486 207.685 359.235 208.247 359.879C208.809 360.523 209.494 361.049 210.261 361.427L223.177 367.885C224.054 368.4 225.071 368.626 226.083 368.531C227.28 368.504 228.447 368.162 229.468 367.538C230.489 366.914 231.327 366.031 231.896 364.979C232.277 364.241 232.504 363.433 232.563 362.604C232.623 361.776 232.513 360.944 232.242 360.159C231.97 359.373 231.542 358.652 230.983 358.037C230.424 357.423 229.746 356.928 228.99 356.583Z" fill="white"/>
<path d="M213.165 336.24H226.082C227.795 336.24 229.438 335.559 230.649 334.348C231.86 333.137 232.54 331.494 232.54 329.781C232.54 328.068 231.86 326.426 230.649 325.215C229.438 324.003 227.795 323.323 226.082 323.323H213.165C211.453 323.323 209.81 324.003 208.599 325.215C207.387 326.426 206.707 328.068 206.707 329.781C206.707 331.494 207.387 333.137 208.599 334.348C209.81 335.559 211.453 336.24 213.165 336.24Z" fill="white"/>
</g>
<defs>
<linearGradient id="paint0_linear_47_4" x1="161.612" y1="0.417799" x2="161.612" y2="597.597" gradientUnits="userSpaceOnUse">
<stop stop-color="#826546" stop-opacity="0.64"/>
<stop offset="1" stop-color="#826546"/>
</linearGradient>
<clipPath id="clip0_47_4">
<rect width="155" height="155" fill="white" transform="translate(84 261)"/>
</clipPath>
</defs>
</svg>
