<svg width="2122" height="409" viewBox="0 0 2122 409" fill="none" xmlns="http://www.w3.org/2000/svg">
<path d="M597.138 161.592L597.092 161.632L428.594 323.225H0L168.458 161.632L168.504 161.592L0 0H428.594L597.138 161.592Z" fill="url(#paint0_linear_38_5)"/>
<path d="M1095.17 161.592L1095.13 161.632L926.585 323.225H497.99L666.448 161.632L666.494 161.592L497.99 0H926.585L1095.17 161.592Z" fill="url(#paint1_linear_38_5)"/>
<path d="M1596.6 161.592L1596.55 161.632L1428.05 323.225H999.416L1167.87 161.632L1167.92 161.592L999.416 0H1428.05L1596.6 161.592Z" fill="url(#paint2_linear_38_5)"/>
<path opacity="0.3" d="M597.092 161.632L428.594 323.225H0L168.458 161.632H597.092Z" fill="white"/>
<path opacity="0.3" d="M1095.13 161.632L926.585 323.225H497.99L666.448 161.632H1095.13Z" fill="white"/>
<path opacity="0.3" d="M1596.55 161.632L1428.05 323.225H999.416L1167.87 161.632H1596.55Z" fill="white"/>
<path d="M2121.46 161.592L2121.42 161.632L1952.92 323.225H1524.28L1692.74 161.632L1692.78 161.592L1524.28 0H1952.92L2121.46 161.592Z" fill="url(#paint3_linear_38_5)"/>
<path opacity="0.3" d="M2121.42 161.632L1952.92 323.225H1524.28L1692.74 161.632H2121.42Z" fill="white"/>
<path d="M235.987 233.227C235.987 241.089 241.016 248.999 247.315 251.88L245.02 255.005C240.089 252.466 236.011 247.265 234.083 241.089C232.154 247.583 228.077 253.149 223.145 255.786L220.655 252.71C227.003 249.585 232.081 241.235 232.081 233.227V225.317H235.987V233.227ZM256.69 221.557V265.063H252.882V239.526H242.579V236.401H252.882V221.557H256.69ZM303.614 247.485V250.561H293.165V264.966H289.356V250.561H278.126V264.966H274.268V250.561H263.868V247.485H303.614ZM298.78 223.266V234.399H272.608V239.819H299.708V242.993H268.751V231.421H294.874V226.44H268.653V223.266H298.78ZM343.116 221.606V253.442H339.259V236.792H330.323V233.618H339.259V221.606H343.116ZM344.337 260.815V264.038H315.235V250.561H319.092V260.815H344.337ZM322.217 230.542C322.217 236.157 326.563 241.626 332.911 243.774L330.909 246.85C326.002 245.093 322.217 241.43 320.362 236.938C318.482 241.943 314.478 245.947 309.327 247.876L307.325 244.751C313.721 242.505 318.36 236.792 318.36 230.542V228.296H308.546V225.122H331.934V228.296H322.217V230.542ZM374.952 226.44V229.565H350.391V226.44H360.938V221.216H364.747V226.44H374.952ZM362.794 231.811C368.604 231.811 372.706 234.985 372.706 239.819C372.706 244.702 368.604 247.876 362.794 247.876C356.934 247.876 352.93 244.702 352.979 239.819C352.93 234.985 356.934 231.811 362.794 231.811ZM362.794 234.692C359.034 234.741 356.544 236.792 356.544 239.819C356.544 242.895 359.034 244.897 362.794 244.897C366.553 244.897 369.092 242.895 369.141 239.819C369.092 236.792 366.553 234.741 362.794 234.692ZM386.329 221.557V249.634H382.471V243.628H374.903V240.454H382.471V235.18H374.952V232.007H382.471V221.557H386.329ZM372.022 250.073C381.055 250.073 386.573 252.759 386.573 257.495C386.573 262.134 381.055 264.868 372.022 264.868C362.891 264.868 357.423 262.134 357.423 257.495C357.423 252.759 362.891 250.073 372.022 250.073ZM372.022 253.052C365.43 253.052 361.378 254.663 361.378 257.495C361.378 260.229 365.43 261.889 372.022 261.889C378.516 261.889 382.52 260.229 382.52 257.495C382.52 254.663 378.516 253.052 372.022 253.052Z" fill="black"/>
<path d="M732.661 225.366V229.223H742.817V221.606H746.675V253.296H742.817V241.723H732.661V245.63H712.739V225.366H732.661ZM716.548 228.54V242.553H728.901V228.54H716.548ZM747.651 260.815V264.038H718.598V250.464H722.456V260.815H747.651ZM732.661 238.55H742.817V232.446H732.661V238.55ZM789.839 221.557V245.141H786.03V235.327H777.241V232.104H786.03V221.557H789.839ZM765.766 247.241V252.661H786.03V247.241H789.839V264.38H761.909V247.241H765.766ZM765.766 261.255H786.03V255.737H765.766V261.255ZM768.989 228.637C768.989 234.204 773.335 239.673 779.682 241.87L777.68 244.848C772.773 243.066 768.989 239.428 767.134 234.936C765.254 239.966 761.25 243.994 756.098 245.874L754.096 242.846C760.493 240.552 765.132 234.79 765.132 228.637V227.368H755.317V224.194H778.706V227.368H768.989V228.637ZM812.739 230.884C812.739 236.743 817.378 242.016 823.872 244.067L821.919 247.143C816.865 245.434 812.837 241.87 810.884 237.28C808.979 242.236 804.902 246.142 799.751 248.022L797.749 244.946C804.243 242.651 808.882 237.036 808.882 230.884V228.344H798.725V225.219H822.749V228.344H812.739V230.884ZM832.954 221.606V253.442H829.145V221.606H832.954ZM834.321 260.815V264.038H804.926V250.415H808.735V260.815H834.321ZM877.192 221.557V249.048H873.53V236.596H867.719V247.485H864.106V222.436H867.719V233.423H873.53V221.557H877.192ZM862.348 226.782V229.858H840.083V226.782H849.36V221.899H853.169V226.782H862.348ZM851.264 232.202C856.782 232.202 860.542 235.083 860.591 239.624C860.542 244.067 856.782 246.997 851.264 246.997C845.796 246.997 841.938 244.067 841.987 239.624C841.938 235.083 845.796 232.202 851.264 232.202ZM851.264 235.034C847.798 235.034 845.405 236.889 845.405 239.624C845.405 242.309 847.798 244.116 851.264 244.116C854.731 244.116 857.124 242.309 857.124 239.624C857.124 236.889 854.731 235.034 851.264 235.034ZM862.837 249.78C871.967 249.78 877.436 252.514 877.436 257.397C877.436 262.134 871.967 264.868 862.837 264.868C853.706 264.868 848.237 262.134 848.286 257.397C848.237 252.514 853.706 249.78 862.837 249.78ZM862.837 252.807C856.098 252.759 852.046 254.419 852.094 257.397C852.046 260.229 856.098 261.889 862.837 261.889C869.575 261.889 873.579 260.229 873.628 257.397C873.579 254.419 869.575 252.759 862.837 252.807Z" fill="black"/>
<path d="M1223.82 221.557V232.69H1230.36V235.962H1223.82V246.802H1220.01V221.557H1223.82ZM1200.19 248.706V253.344H1220.01V248.706H1223.82V264.38H1196.38V248.706H1200.19ZM1200.19 261.303H1220.01V256.372H1200.19V261.303ZM1215.86 226.05V229.223H1189.98V226.05H1201.02V221.167H1204.83V226.05H1215.86ZM1202.92 231.225C1209.17 231.225 1213.32 234.204 1213.37 238.843C1213.32 243.481 1209.17 246.46 1202.92 246.46C1196.62 246.46 1192.42 243.481 1192.47 238.843C1192.42 234.204 1196.62 231.225 1202.92 231.225ZM1202.92 234.204C1198.82 234.155 1196.09 236.059 1196.13 238.843C1196.09 241.675 1198.82 243.53 1202.92 243.53C1206.97 243.53 1209.71 241.675 1209.76 238.843C1209.71 236.059 1206.97 234.155 1202.92 234.204ZM1256 224.536C1256 226.22 1255.8 227.832 1255.46 229.37H1265.23V221.606H1269.08V247.485H1265.23V241.723H1253.7V238.55H1265.23V232.544H1254.44C1251.48 239.38 1244.69 244.311 1235.29 246.899L1233.78 243.823C1244.38 240.893 1251.09 235.058 1251.9 227.661H1235.98V224.536H1256ZM1269.08 249.389V264.917H1265.23V252.466H1239.88V249.389H1269.08ZM1291.01 234.887C1290.96 241.87 1295.99 249.536 1302.29 252.514L1300.09 255.542C1295.21 253.174 1291.08 247.998 1289.15 242.114C1287.15 248.51 1282.78 254.126 1277.92 256.616L1275.58 253.589C1281.83 250.561 1287.2 242.309 1287.25 234.887V229.223H1277.14V226.05H1300.77V229.223H1291.01V234.887ZM1309.9 221.557V239.135H1317.18V242.407H1309.9V264.966H1306.1V221.557H1309.9ZM1337.69 223.413V229.663H1350.33V223.413H1354.14V242.309H1333.93V223.413H1337.69ZM1337.69 239.184H1350.33V232.641H1337.69V239.184ZM1366.01 221.557V230.981H1372.55V234.204H1366.01V244.018H1362.2V221.557H1366.01ZM1366.01 246.069V256.567H1342.18V261.352H1367.62V264.477H1338.42V253.637H1362.2V249.145H1338.32V246.069H1366.01ZM1415.03 256.469V259.643H1375.29V256.469H1386.37V246.118H1378.9V242.944H1385.69V228.784H1378.8V225.61H1411.22V228.784H1404.34V242.944H1411.12V246.118H1403.65V256.469H1415.03ZM1389.49 242.944H1400.58V228.784H1389.49V242.944ZM1390.23 256.469H1399.85V246.118H1390.23V256.469Z" fill="black"/>
<path d="M1824.83 243.335C1824.83 254.516 1818.24 261.499 1809.2 261.499C1800.12 261.499 1793.58 254.516 1793.58 243.335C1793.58 232.153 1800.12 225.171 1809.2 225.171C1818.24 225.171 1824.83 232.153 1824.83 243.335ZM1820.58 243.335C1820.58 234.204 1815.6 229.272 1809.2 229.272C1802.81 229.272 1797.83 234.204 1797.83 243.335C1797.83 252.466 1802.81 257.397 1809.2 257.397C1815.6 257.397 1820.58 252.466 1820.58 243.335ZM1827.86 229.565V225.659H1854.52V229.565H1843.43V261.01H1838.99V229.565H1827.86Z" fill="black"/>
<path d="M1732.01 375.474C1726.51 375.474 1723.36 370.86 1723.36 362.759C1723.36 354.727 1726.57 350.044 1732.01 350.044C1737.44 350.044 1740.66 354.727 1740.66 362.759C1740.66 370.86 1737.48 375.474 1732.01 375.474ZM1732.01 372.74C1735.56 372.74 1737.65 369.151 1737.65 362.759C1737.65 356.368 1735.56 352.71 1732.01 352.71C1728.45 352.71 1726.34 356.368 1726.34 362.759C1726.34 369.151 1728.42 372.74 1732.01 372.74ZM1753.3 375.474C1748.38 375.474 1744.86 372.842 1744.69 368.912H1747.8C1747.97 371.27 1750.33 372.74 1753.27 372.74C1756.52 372.74 1758.91 370.962 1758.91 368.399C1758.91 365.699 1756.75 363.785 1752.89 363.785H1750.88V361.084H1752.89C1755.9 361.084 1757.99 359.41 1757.99 356.846C1757.99 354.385 1756.17 352.71 1753.37 352.71C1750.74 352.71 1748.31 354.18 1748.18 356.607H1745.2C1745.37 352.676 1749 350.044 1753.41 350.044C1758.12 350.044 1760.99 353.121 1760.96 356.675C1760.99 359.478 1759.35 361.563 1756.75 362.281V362.452C1759.97 362.964 1761.95 365.254 1761.92 368.399C1761.95 372.466 1758.22 375.474 1753.3 375.474ZM1775.21 349.224L1767.21 378.858H1764.55L1772.51 349.224H1775.21ZM1786.15 375.474C1780.65 375.474 1777.5 370.86 1777.5 362.759C1777.5 354.727 1780.71 350.044 1786.15 350.044C1791.58 350.044 1794.8 354.727 1794.8 362.759C1794.8 370.86 1791.62 375.474 1786.15 375.474ZM1786.15 372.74C1789.7 372.74 1791.79 369.151 1791.79 362.759C1791.79 356.368 1789.7 352.71 1786.15 352.71C1782.59 352.71 1780.48 356.368 1780.48 362.759C1780.48 369.151 1782.56 372.74 1786.15 372.74ZM1806.96 375.474C1802.49 375.474 1799.1 372.706 1798.93 368.912H1801.91C1802.15 371.133 1804.3 372.774 1806.96 372.774C1810.18 372.774 1812.5 370.416 1812.5 367.305C1812.5 364.092 1810.08 361.734 1806.76 361.7C1804.67 361.666 1803.07 362.315 1802.15 363.921H1799.17L1800.92 350.386H1814.31V353.121H1803.48L1802.56 360.367H1802.8C1803.89 359.512 1805.56 358.931 1807.31 358.931C1812.02 358.931 1815.51 362.417 1815.51 367.237C1815.51 372.022 1811.89 375.474 1806.96 375.474ZM1829.35 365.699C1829.39 359.239 1831.13 353.873 1834.27 349.327H1836.87C1834.55 352.71 1832.39 359.615 1832.39 365.699C1832.39 371.783 1834.55 378.721 1836.87 382.105H1834.27C1831.13 377.525 1829.39 372.159 1829.35 365.699ZM1863.57 348.814V359.068H1854.58V362.964H1867.09V365.152H1839.4V362.964H1851.91V359.068H1842.99V348.814H1863.57ZM1845.62 350.967V356.915H1860.9V350.967H1845.62ZM1863.67 368.331V377.901H1860.97V370.484H1842.48V368.331H1863.67ZM1877.24 365.699C1877.2 372.159 1875.46 377.525 1872.32 382.105H1869.72C1872.04 378.721 1874.2 371.783 1874.2 365.699C1874.2 359.615 1872.04 352.71 1869.72 349.327H1872.32C1875.46 353.873 1877.2 359.239 1877.24 365.699Z" fill="black"/>
<path d="M1208.08 375.474C1202.58 375.474 1199.43 370.86 1199.43 362.759C1199.43 354.727 1202.64 350.044 1208.08 350.044C1213.51 350.044 1216.73 354.727 1216.73 362.759C1216.73 370.86 1213.55 375.474 1208.08 375.474ZM1208.08 372.74C1211.63 372.74 1213.72 369.151 1213.72 362.759C1213.72 356.368 1211.63 352.71 1208.08 352.71C1204.52 352.71 1202.4 356.368 1202.4 362.759C1202.4 369.151 1204.49 372.74 1208.08 372.74ZM1220.83 375.132L1220.79 372.876L1229.24 363.99C1232.17 360.879 1233.58 359.205 1233.58 356.915C1233.58 354.385 1231.42 352.71 1228.65 352.71C1225.71 352.71 1223.84 354.59 1223.84 357.359H1220.93C1220.9 352.984 1224.28 350.044 1228.76 350.044C1233.23 350.044 1236.45 353.052 1236.45 356.915C1236.45 359.683 1235.15 361.836 1230.77 366.348L1225.1 372.193V372.398H1236.89V375.132H1220.83ZM1250.22 349.224L1242.22 378.858H1239.56L1247.52 349.224H1250.22ZM1261.16 375.474C1255.66 375.474 1252.51 370.86 1252.51 362.759C1252.51 354.727 1255.72 350.044 1261.16 350.044C1266.59 350.044 1269.81 354.727 1269.81 362.759C1269.81 370.86 1266.63 375.474 1261.16 375.474ZM1261.16 372.74C1264.71 372.74 1266.8 369.151 1266.8 362.759C1266.8 356.368 1264.71 352.71 1261.16 352.71C1257.6 352.71 1255.49 356.368 1255.49 362.759C1255.49 369.151 1257.57 372.74 1261.16 372.74ZM1282.15 350.044C1286.42 350.079 1291.13 352.642 1291.13 361.768C1291.13 370.552 1287.55 375.474 1281.74 375.474C1277.39 375.474 1274.32 372.808 1273.7 368.877H1276.75C1277.29 371.099 1278.97 372.74 1281.74 372.74C1285.77 372.74 1288.23 369.253 1288.26 363.238H1287.92C1286.49 365.289 1284.23 366.519 1281.6 366.519C1277.16 366.519 1273.5 363.135 1273.5 358.35C1273.5 353.736 1276.88 350.01 1282.15 350.044ZM1282.15 352.745C1278.9 352.745 1276.47 355.274 1276.51 358.316C1276.51 361.392 1278.8 363.819 1282.04 363.819C1285.26 363.819 1287.79 361.153 1287.79 358.248C1287.79 355.411 1285.43 352.745 1282.15 352.745ZM1304.94 365.699C1304.98 359.239 1306.72 353.873 1309.87 349.327H1312.46C1310.14 352.71 1307.99 359.615 1307.99 365.699C1307.99 371.783 1310.14 378.721 1312.46 382.105H1309.87C1306.72 377.525 1304.98 372.159 1304.94 365.699ZM1340.05 347.549V365.459H1337.35V363.785H1331.19V362.007H1337.35V347.549H1340.05ZM1314.89 359C1320.77 359.034 1328.29 358.965 1334.85 358.248L1335.02 359.991C1332.05 360.418 1328.95 360.674 1325.93 360.811V365.562H1323.3V360.914C1320.43 361.016 1317.68 361.033 1315.2 361.016L1314.89 359ZM1340.05 366.553V372.842H1322.31V375.577H1341.04V377.559H1319.67V370.962H1337.38V368.501H1319.54V366.553H1340.05ZM1324.8 348.13C1329.31 348.13 1332.32 349.908 1332.36 352.71C1332.32 355.547 1329.31 357.256 1324.8 357.256C1320.22 357.256 1317.25 355.547 1317.25 352.71C1317.25 349.908 1320.22 348.13 1324.8 348.13ZM1324.8 350.01C1321.73 350.01 1319.74 351.07 1319.78 352.71C1319.74 354.317 1321.73 355.411 1324.8 355.411C1327.84 355.411 1329.83 354.317 1329.83 352.71C1329.83 351.07 1327.84 350.01 1324.8 350.01ZM1352.83 365.699C1352.8 372.159 1351.05 377.525 1347.91 382.105H1345.31C1347.63 378.721 1349.79 371.783 1349.79 365.699C1349.79 359.615 1347.63 352.71 1345.31 349.327H1347.91C1351.05 353.873 1352.8 359.239 1352.83 365.699Z" fill="black"/>
<path d="M583.697 375.474C578.194 375.474 575.05 370.86 575.05 362.759C575.05 354.727 578.262 350.044 583.697 350.044C589.132 350.044 592.345 354.727 592.345 362.759C592.345 370.86 589.166 375.474 583.697 375.474ZM583.697 372.74C587.252 372.74 589.337 369.151 589.337 362.759C589.337 356.368 587.252 352.71 583.697 352.71C580.142 352.71 578.023 356.368 578.023 362.759C578.023 369.151 580.108 372.74 583.697 372.74ZM596.446 375.132L596.412 372.876L604.854 363.99C607.794 360.879 609.195 359.205 609.195 356.915C609.195 354.385 607.042 352.71 604.273 352.71C601.334 352.71 599.454 354.59 599.454 357.359H596.549C596.514 352.984 599.898 350.044 604.376 350.044C608.853 350.044 612.066 353.052 612.066 356.915C612.066 359.683 610.767 361.836 606.392 366.348L600.719 372.193V372.398H612.511V375.132H596.446ZM625.841 349.224L617.843 378.858H615.177L623.14 349.224H625.841ZM636.778 375.474C631.275 375.474 628.131 370.86 628.131 362.759C628.131 354.727 631.344 350.044 636.778 350.044C642.213 350.044 645.426 354.727 645.426 362.759C645.426 370.86 642.247 375.474 636.778 375.474ZM636.778 372.74C640.333 372.74 642.418 369.151 642.418 362.759C642.418 356.368 640.333 352.71 636.778 352.71C633.223 352.71 631.104 356.368 631.104 362.759C631.104 369.151 633.189 372.74 636.778 372.74ZM649.63 375.132L660.977 353.292V353.121H647.887V350.386H664.156V353.257L652.843 375.132H649.63ZM677.725 365.699C677.76 359.239 679.503 353.873 682.647 349.327H685.245C682.921 352.71 680.767 359.615 680.767 365.699C680.767 371.783 682.921 378.721 685.245 382.105H682.647C679.503 377.525 677.76 372.159 677.725 365.699ZM712.384 363.34V365.528H702.95V371.885H715.596V374.107H687.774V371.885H700.284V365.528H691.363V350.01H712.042V352.232H694.097V356.573H711.392V358.76H694.097V363.34H712.384ZM725.611 365.699C725.577 372.159 723.834 377.525 720.689 382.105H718.092C720.416 378.721 722.569 371.783 722.569 365.699C722.569 359.615 720.416 352.71 718.092 349.327H720.689C723.834 353.873 725.577 359.239 725.611 365.699ZM740.821 362.383C741.915 361.119 743.282 360.435 744.786 360.435C747.384 360.435 749.742 362.417 752.237 362.417C753.775 362.417 755.108 361.666 756.134 360.264V363.101C755.006 364.4 753.673 365.049 752.169 365.049C749.571 365.049 747.213 363.067 744.683 363.067C743.179 363.067 741.846 363.819 740.821 365.22V362.383ZM778.658 375.474C773.155 375.474 770.011 370.86 770.011 362.759C770.011 354.727 773.223 350.044 778.658 350.044C784.093 350.044 787.305 354.727 787.305 362.759C787.305 370.86 784.127 375.474 778.658 375.474ZM778.658 372.74C782.213 372.74 784.298 369.151 784.298 362.759C784.298 356.368 782.213 352.71 778.658 352.71C775.103 352.71 772.984 356.368 772.984 362.759C772.984 369.151 775.069 372.74 778.658 372.74ZM791.407 375.132L791.373 372.876L799.815 363.99C802.755 360.879 804.156 359.205 804.156 356.915C804.156 354.385 802.003 352.71 799.234 352.71C796.295 352.71 794.415 354.59 794.415 357.359H791.51C791.475 352.984 794.859 350.044 799.337 350.044C803.814 350.044 807.027 353.052 807.027 356.915C807.027 359.683 805.728 361.836 801.353 366.348L795.679 372.193V372.398H807.471V375.132H791.407ZM820.802 349.224L812.804 378.858H810.137L818.101 349.224H820.802ZM831.739 375.474C826.236 375.474 823.092 370.86 823.092 362.759C823.092 354.727 826.305 350.044 831.739 350.044C837.174 350.044 840.387 354.727 840.387 362.759C840.387 370.86 837.208 375.474 831.739 375.474ZM831.739 372.74C835.294 372.74 837.379 369.151 837.379 362.759C837.379 356.368 835.294 352.71 831.739 352.71C828.184 352.71 826.065 356.368 826.065 362.759C826.065 369.151 828.15 372.74 831.739 372.74ZM852.76 375.474C847.564 375.474 843.941 372.603 843.975 368.57C843.941 365.357 846.163 362.725 849 362.281V362.144C846.539 361.563 844.932 359.307 844.932 356.607C844.932 352.813 848.248 350.044 852.76 350.044C857.271 350.044 860.587 352.813 860.621 356.607C860.587 359.307 858.946 361.563 856.519 362.144V362.281C859.322 362.725 861.544 365.357 861.578 368.57C861.544 372.603 857.921 375.474 852.76 375.474ZM852.76 372.774C856.314 372.774 858.502 370.997 858.502 368.399C858.502 365.665 856.075 363.648 852.76 363.648C849.444 363.648 846.983 365.665 847.052 368.399C846.983 370.997 849.205 372.774 852.76 372.774ZM852.76 361.05C855.562 361.05 857.613 359.341 857.613 356.846C857.613 354.385 855.665 352.71 852.76 352.71C849.82 352.71 847.906 354.385 847.906 356.846C847.906 359.341 849.923 361.05 852.76 361.05ZM875.284 365.699C875.318 359.239 877.061 353.873 880.206 349.327H882.804C880.479 352.71 878.326 359.615 878.326 365.699C878.326 371.783 880.479 378.721 882.804 382.105H880.206C877.061 377.525 875.318 372.159 875.284 365.699ZM893.946 348.643C898.492 348.677 901.807 351.412 901.807 355.376C901.807 359.341 898.492 362.076 893.946 362.076C889.332 362.076 886.051 359.341 886.051 355.376C886.051 351.412 889.332 348.677 893.946 348.643ZM893.946 350.899C890.904 350.899 888.648 352.745 888.682 355.376C888.648 358.042 890.904 359.888 893.946 359.888C896.954 359.888 899.21 358.042 899.21 355.376C899.21 352.745 896.954 350.899 893.946 350.899ZM910.421 347.515V363.135H907.755V347.515H910.421ZM910.421 364.605V371.919H893.365V375.337H911.514V377.491H890.733V369.903H907.755V366.758H890.665V364.605H910.421ZM923.17 365.699C923.136 372.159 921.392 377.525 918.248 382.105H915.65C917.974 378.721 920.128 371.783 920.128 365.699C920.128 359.615 917.974 352.71 915.65 349.327H918.248C921.392 353.873 923.136 359.239 923.17 365.699Z" fill="black"/>
<path d="M89.4617 375.474C83.9588 375.474 80.8143 370.86 80.8143 362.759C80.8143 354.727 84.0271 350.044 89.4617 350.044C94.8963 350.044 98.1092 354.727 98.1092 362.759C98.1092 370.86 94.9305 375.474 89.4617 375.474ZM89.4617 372.74C93.0164 372.74 95.1014 369.151 95.1014 362.759C95.1014 356.368 93.0164 352.71 89.4617 352.71C85.907 352.71 83.7879 356.368 83.7879 362.759C83.7879 369.151 85.8728 372.74 89.4617 372.74ZM110.961 350.386V375.132H107.85V353.599H107.714L101.698 357.598V354.488L107.85 350.386H110.961ZM126.41 349.224L118.412 378.858H115.746L123.71 349.224H126.41ZM129.247 375.132L129.213 372.876L137.655 363.99C140.595 360.879 141.996 359.205 141.996 356.915C141.996 354.385 139.843 352.71 137.074 352.71C134.135 352.71 132.255 354.59 132.255 357.359H129.349C129.315 352.984 132.699 350.044 137.177 350.044C141.654 350.044 144.867 353.052 144.867 356.915C144.867 359.683 143.568 361.836 139.193 366.348L133.519 372.193V372.398H145.311V375.132H129.247ZM158.539 350.386V375.132H155.429V353.599H155.292L149.276 357.598V354.488L155.429 350.386H158.539ZM174.706 365.699C174.74 359.239 176.483 353.873 179.628 349.327H182.225C179.901 352.71 177.748 359.615 177.748 365.699C177.748 371.783 179.901 378.721 182.225 382.105H179.628C176.483 377.525 174.74 372.159 174.706 365.699ZM199.999 350.352C199.999 354.625 205.604 358.35 211.073 359.102L209.979 361.29C205.262 360.503 200.597 357.889 198.632 354.146C196.683 357.906 192.001 360.503 187.284 361.29L186.19 359.102C191.659 358.35 197.23 354.693 197.23 350.352V348.609H199.999V350.352ZM212.44 364.639V366.895H199.862V377.901H197.23V366.895H184.755V364.639H212.44ZM222.592 365.699C222.557 372.159 220.814 377.525 217.67 382.105H215.072C217.396 378.721 219.55 371.783 219.55 365.699C219.55 359.615 217.396 352.71 215.072 349.327H217.67C220.814 353.873 222.557 359.239 222.592 365.699ZM237.802 362.383C238.895 361.119 240.262 360.435 241.766 360.435C244.364 360.435 246.722 362.417 249.218 362.417C250.756 362.417 252.089 361.666 253.114 360.264V363.101C251.986 364.4 250.653 365.049 249.149 365.049C246.552 365.049 244.193 363.067 241.664 363.067C240.16 363.067 238.827 363.819 237.802 365.22V362.383ZM275.638 375.474C270.136 375.474 266.991 370.86 266.991 362.759C266.991 354.727 270.204 350.044 275.638 350.044C281.073 350.044 284.286 354.727 284.286 362.759C284.286 370.86 281.107 375.474 275.638 375.474ZM275.638 372.74C279.193 372.74 281.278 369.151 281.278 362.759C281.278 356.368 279.193 352.71 275.638 352.71C272.084 352.71 269.965 356.368 269.965 362.759C269.965 369.151 272.05 372.74 275.638 372.74ZM297.137 350.386V375.132H294.027V353.599H293.89L287.875 357.598V354.488L294.027 350.386H297.137ZM312.587 349.224L304.589 378.858H301.923L309.887 349.224H312.587ZM315.424 375.132L315.389 372.876L323.832 363.99C326.771 360.879 328.173 359.205 328.173 356.915C328.173 354.385 326.019 352.71 323.251 352.71C320.311 352.71 318.431 354.59 318.431 357.359H315.526C315.492 352.984 318.876 350.044 323.353 350.044C327.831 350.044 331.044 353.052 331.044 356.915C331.044 359.683 329.745 361.836 325.37 366.348L319.696 372.193V372.398H331.488V375.132H315.424ZM344.237 375.474C339.042 375.474 335.419 372.603 335.453 368.57C335.419 365.357 337.64 362.725 340.477 362.281V362.144C338.016 361.563 336.41 359.307 336.41 356.607C336.41 352.813 339.725 350.044 344.237 350.044C348.749 350.044 352.064 352.813 352.098 356.607C352.064 359.307 350.424 361.563 347.997 362.144V362.281C350.8 362.725 353.021 365.357 353.055 368.57C353.021 372.603 349.398 375.474 344.237 375.474ZM344.237 372.774C347.792 372.774 349.979 370.997 349.979 368.399C349.979 365.665 347.553 363.648 344.237 363.648C340.922 363.648 338.461 365.665 338.529 368.399C338.461 370.997 340.682 372.774 344.237 372.774ZM344.237 361.05C347.04 361.05 349.091 359.341 349.091 356.846C349.091 354.385 347.142 352.71 344.237 352.71C341.298 352.71 339.384 354.385 339.384 356.846C339.384 359.341 341.4 361.05 344.237 361.05ZM366.762 365.699C366.796 359.239 368.539 353.873 371.683 349.327H374.281C371.957 352.71 369.804 359.615 369.804 365.699C369.804 371.783 371.957 378.721 374.281 382.105H371.683C368.539 377.525 366.796 372.159 366.762 365.699ZM392.055 350.352C392.055 354.625 397.66 358.35 403.129 359.102L402.035 361.29C397.318 360.503 392.653 357.889 390.687 354.146C388.739 357.906 384.056 360.503 379.34 361.29L378.246 359.102C383.715 358.35 389.286 354.693 389.286 350.352V348.609H392.055V350.352ZM404.496 364.639V366.895H391.918V377.901H389.286V366.895H376.81V364.639H404.496ZM414.647 365.699C414.613 372.159 412.87 377.525 409.725 382.105H407.128C409.452 378.721 411.605 371.783 411.605 365.699C411.605 359.615 409.452 352.71 407.128 349.327H409.725C412.87 353.873 414.613 359.239 414.647 365.699Z" fill="black"/>
<g clip-path="url(#clip0_38_5)">
<path d="M816.197 72.7279C816.197 67.5019 813.13 63.1961 807.27 62.2344C806.463 62.5028 805.605 62.6534 804.709 62.6534C803.813 62.6534 802.952 62.5028 802.145 62.2344C796.286 63.1961 793.221 67.5019 793.221 72.7279H804.709H816.197Z" fill="white"/>
<path d="M804.71 60.7903C808.182 60.7903 810.997 57.9758 810.997 54.5037V52.7196C810.997 49.2459 808.182 46.4314 804.71 46.4314C801.237 46.4314 798.422 49.2459 798.422 52.7196V54.5037C798.422 57.9758 801.237 60.7903 804.71 60.7903Z" fill="white"/>
<path d="M842.716 72.7279C842.716 67.5019 839.648 63.1961 833.789 62.2344C832.982 62.5028 832.123 62.6534 831.227 62.6534C830.332 62.6534 829.472 62.5028 828.665 62.2344C822.806 63.1961 819.74 67.5019 819.74 72.7279H831.227H842.716Z" fill="white"/>
<path d="M831.228 60.7903C834.7 60.7903 837.516 57.9758 837.516 54.5037V52.7196C837.516 49.2459 834.7 46.4314 831.228 46.4314C827.756 46.4314 824.939 49.2459 824.939 52.7196V54.5037C824.94 57.9758 827.756 60.7903 831.228 60.7903Z" fill="white"/>
<path d="M866.408 114.295L851.001 78.5078C850.674 77.7428 849.922 77.2476 849.09 77.2476H787.21C786.378 77.2476 785.626 77.7428 785.297 78.5063L769.891 114.295C769.614 114.938 769.678 115.678 770.064 116.264C770.449 116.848 771.103 117.201 771.804 117.201H800.836C803.315 113.011 807.586 109.971 813.583 108.988C814.964 109.446 816.436 109.704 817.969 109.704C819.502 109.704 820.975 109.446 822.356 108.988C828.353 109.972 832.624 113.011 835.103 117.201H864.494C865.196 117.201 865.849 116.848 866.235 116.264C866.621 115.678 866.685 114.938 866.408 114.295ZM828.731 95.7547C828.731 101.698 823.914 106.517 817.969 106.517C812.024 106.517 807.207 101.698 807.207 95.7547V92.7003C807.207 86.7566 812.024 81.9383 817.969 81.9383C823.914 81.9383 828.731 86.7566 828.731 92.7003V95.7547Z" fill="white"/>
</g>
<g clip-path="url(#clip1_38_5)">
<path d="M1359.89 31.9634H1358.32L1279.98 54.9433C1278.88 55.2881 1277.92 55.9874 1277.26 56.9321C1276.6 57.8769 1276.27 59.014 1276.32 60.166V83.6682C1276.35 84.8024 1276.71 85.9037 1277.36 86.8332C1278.01 87.7626 1278.92 88.4786 1279.98 88.8909L1292.25 92.2857L1296.43 119.183C1296.63 121.052 1297.51 122.783 1298.91 124.038C1300.31 125.293 1302.12 125.982 1304 125.972H1315.76C1317.94 125.886 1320 124.949 1321.5 123.361C1322.22 122.401 1322.73 121.301 1323 120.131C1323.27 118.962 1323.29 117.75 1323.07 116.571L1320.19 100.642L1358.32 111.871H1359.89C1361.27 111.871 1362.6 111.321 1363.58 110.341C1364.56 109.362 1365.11 108.033 1365.11 106.648V37.1861C1365.11 35.8009 1364.56 34.4725 1363.58 33.4931C1362.6 32.5136 1361.27 31.9634 1359.89 31.9634ZM1312.36 115.527H1306.35L1303.22 95.6804L1308.7 97.2472L1312.36 115.527ZM1354.66 99.8586L1286.77 79.7512V64.083L1354.66 44.2367V99.8586Z" fill="white"/>
<path d="M1375.56 56.249C1376.37 56.326 1377.2 56.1432 1377.91 55.7267L1388.35 50.504C1389.6 49.8807 1390.55 48.7877 1390.99 47.4654C1391.43 46.1432 1391.32 44.7 1390.7 43.4534C1390.08 42.2067 1388.99 41.2588 1387.66 40.818C1386.34 40.3773 1384.9 40.4798 1383.65 41.1032L1373.21 46.3259C1372.59 46.6312 1372.03 47.0566 1371.58 47.5775C1371.12 48.0983 1370.78 48.7043 1370.56 49.3601C1370.34 50.016 1370.25 50.7088 1370.3 51.3982C1370.35 52.0877 1370.54 52.7601 1370.86 53.3765C1371.32 54.2274 1371.99 54.9413 1372.82 55.4458C1373.64 55.9503 1374.59 56.2274 1375.56 56.249Z" fill="white"/>
<path d="M1388.35 93.5914L1377.91 88.3687C1376.68 87.7816 1375.28 87.6703 1373.98 88.0563C1372.68 88.4422 1371.56 89.298 1370.86 90.4577C1370.54 91.0742 1370.35 91.7466 1370.3 92.436C1370.25 93.1255 1370.34 93.8183 1370.56 94.4741C1370.78 95.13 1371.12 95.7359 1371.58 96.2568C1372.03 96.7777 1372.59 97.2031 1373.21 97.5084L1383.65 102.731C1384.36 103.148 1385.18 103.33 1386 103.253C1386.97 103.232 1387.91 102.955 1388.74 102.45C1389.56 101.946 1390.24 101.232 1390.7 100.381C1391.01 99.7839 1391.19 99.1305 1391.24 98.4604C1391.29 97.7903 1391.2 97.1175 1390.98 96.4826C1390.76 95.8477 1390.41 95.2641 1389.96 94.7671C1389.51 94.2702 1388.96 93.8701 1388.35 93.5914Z" fill="white"/>
<path d="M1375.55 77.1398H1386C1387.39 77.1398 1388.71 76.5895 1389.69 75.6101C1390.67 74.6306 1391.22 73.3022 1391.22 71.917C1391.22 70.5319 1390.67 69.2035 1389.69 68.224C1388.71 67.2446 1387.39 66.6943 1386 66.6943H1375.55C1374.17 66.6943 1372.84 67.2446 1371.86 68.224C1370.88 69.2035 1370.33 70.5319 1370.33 71.917C1370.33 73.3022 1370.88 74.6306 1371.86 75.6101C1372.84 76.5895 1374.17 77.1398 1375.55 77.1398Z" fill="white"/>
</g>
<path fill-rule="evenodd" clip-rule="evenodd" d="M315.955 27.8243C316.8 26.9784 317.948 26.5032 319.144 26.5032H355.228C362.702 26.5032 368.76 32.5615 368.76 40.0347V112.203C368.76 119.677 362.702 125.735 355.228 125.735H301.102C293.629 125.735 287.57 119.677 287.57 112.203V58.0768C287.57 56.8805 288.046 55.7333 288.891 54.8874L315.955 27.8243ZM355.228 35.5242H323.654V58.0768C323.654 60.5679 321.635 62.5873 319.144 62.5873H296.591V112.203C296.591 114.694 298.611 116.714 301.102 116.714H355.228C357.719 116.714 359.739 114.694 359.739 112.203V40.0347C359.739 37.5437 357.719 35.5242 355.228 35.5242ZM302.97 53.5663H314.633V41.903L302.97 53.5663ZM305.612 80.6294C305.612 78.1383 307.632 76.1189 310.123 76.1189H346.207C348.698 76.1189 350.718 78.1383 350.718 80.6294C350.718 83.1206 348.698 85.1399 346.207 85.1399H310.123C307.632 85.1399 305.612 83.1206 305.612 80.6294ZM305.612 98.6715C305.612 96.1804 307.632 94.161 310.123 94.161H346.207C348.698 94.161 350.718 96.1804 350.718 98.6715C350.718 101.163 348.698 103.182 346.207 103.182H310.123C307.632 103.182 305.612 101.163 305.612 98.6715Z" fill="#222222"/>
<path d="M1892.86 62.9122H1791.08C1792.32 54.4229 1798.94 47.6428 1807.37 46.1786V51.6824C1807.37 55.9726 1810.85 59.4595 1815.15 59.4595C1819.44 59.4595 1822.93 55.9783 1822.93 51.6824V45.8652H1861.02V51.6824C1861.02 55.9726 1864.5 59.4595 1868.8 59.4595C1873.09 59.4595 1876.57 55.9783 1876.57 51.6824V46.1786C1884.99 47.6428 1891.61 54.4229 1892.86 62.9122Z" fill="white"/>
<path d="M1893.1 69.2534V104.361C1893.1 105.387 1893.04 106.384 1892.85 107.347C1891.45 116.987 1883.12 124.388 1873.08 124.388H1810.85C1800.8 124.388 1792.47 116.987 1791.07 107.347C1790.88 106.384 1790.82 105.387 1790.82 104.361V69.2534H1893.1Z" fill="white"/>
<path d="M1873.45 31.6499V51.6766C1873.45 54.2234 1871.36 56.3429 1868.78 56.3429C1866.23 56.3429 1864.11 54.2291 1864.11 51.6766V35.7236H1819.8V51.6766C1819.8 54.2234 1817.71 56.3429 1815.13 56.3429C1812.58 56.3429 1810.46 54.2291 1810.46 51.6766V31.6499C1810.46 29.1031 1812.58 26.9836 1815.13 26.9836H1868.77C1871.36 26.9893 1873.45 29.1031 1873.45 31.6499Z" fill="white"/>
<defs>
<linearGradient id="paint0_linear_38_5" x1="0" y1="161.613" x2="597.136" y2="161.613" gradientUnits="userSpaceOnUse">
<stop stop-color="#F4F4F0"/>
<stop offset="1" stop-color="#E0E0DC"/>
</linearGradient>
<linearGradient id="paint1_linear_38_5" x1="497.993" y1="161.613" x2="1095.17" y2="161.613" gradientUnits="userSpaceOnUse">
<stop stop-color="#C1C1C1"/>
<stop offset="1" stop-color="#898787"/>
</linearGradient>
<linearGradient id="paint2_linear_38_5" x1="999.418" y1="161.613" x2="1596.6" y2="161.613" gradientUnits="userSpaceOnUse">
<stop stop-color="#826546" stop-opacity="0.64"/>
<stop offset="1" stop-color="#826546"/>
</linearGradient>
<linearGradient id="paint3_linear_38_5" x1="1524.28" y1="161.613" x2="2121.46" y2="161.613" gradientUnits="userSpaceOnUse">
<stop stop-color="#15273D" stop-opacity="0.76"/>
<stop offset="1" stop-color="#15273D"/>
</linearGradient>
<clipPath id="clip0_38_5">
<rect width="96.8575" height="96.8575" fill="white" transform="translate(769.721 33.3877)"/>
</clipPath>
<clipPath id="clip1_38_5">
<rect width="125.345" height="125.345" fill="white" transform="translate(1271.1 16.2952)"/>
</clipPath>
</defs>
</svg>
