<svg width="2122" height="409" viewBox="0 0 2122 409" fill="none" xmlns="http://www.w3.org/2000/svg">
<path d="M597.138 161.592L597.092 161.632L428.594 323.225H0L168.458 161.632L168.504 161.592L0 0H428.594L597.138 161.592Z" fill="url(#paint0_linear_38_5)"/>
<path d="M1095.17 161.592L1095.13 161.632L926.585 323.225H497.99L666.448 161.632L666.494 161.592L497.99 0H926.585L1095.17 161.592Z" fill="url(#paint1_linear_38_5)"/>
<path d="M1596.6 161.592L1596.55 161.632L1428.05 323.225H999.416L1167.87 161.632L1167.92 161.592L999.416 0H1428.05L1596.6 161.592Z" fill="url(#paint2_linear_38_5)"/>
<path opacity="0.3" d="M597.092 161.632L428.594 323.225H0L168.458 161.632H597.092Z" fill="white"/>
<path opacity="0.3" d="M1095.13 161.632L926.585 323.225H497.99L666.448 161.632H1095.13Z" fill="white"/>
<path opacity="0.3" d="M1596.55 161.632L1428.05 323.225H999.416L1167.87 161.632H1596.55Z" fill="white"/>
<path d="M2121.46 161.592L2121.42 161.632L1952.92 323.225H1524.28L1692.74 161.632L1692.78 161.592L1524.28 0H1952.92L2121.46 161.592Z" fill="url(#paint3_linear_38_5)"/>
<path opacity="0.3" d="M2121.42 161.632L1952.92 323.225H1524.28L1692.74 161.632H2121.42Z" fill="white"/>
<path d="M235.987 233.227C235.987 241.089 241.016 248.999 247.315 251.88L245.02 255.005C240.089 252.466 236.011 247.265 234.083 241.089C232.154 247.583 228.077 253.149 223.145 255.786L220.655 252.71C227.003 249.585 232.081 241.235 232.081 233.227V225.317H235.987V233.227ZM256.69 221.557V265.063H252.882V239.526H242.579V236.401H252.882V221.557H256.69ZM303.614 247.485V250.561H293.165V264.966H289.356V250.561H278.126V264.966H274.268V250.561H263.868V247.485H303.614ZM298.78 223.266V234.399H272.608V239.819H299.708V242.993H268.751V231.421H294.874V226.44H268.653V223.266H298.78ZM343.116 221.606V253.442H339.259V236.792H330.323V233.618H339.259V221.606H343.116ZM344.337 260.815V264.038H315.235V250.561H319.092V260.815H344.337ZM322.217 230.542C322.217 236.157 326.563 241.626 332.911 243.774L330.909 246.85C326.002 245.093 322.217 241.43 320.362 236.938C318.482 241.943 314.478 245.947 309.327 247.876L307.325 244.751C313.721 242.505 318.36 236.792 318.36 230.542V228.296H308.546V225.122H331.934V228.296H322.217V230.542ZM374.952 226.44V229.565H350.391V226.44H360.938V221.216H364.747V226.44H374.952ZM362.794 231.811C368.604 231.811 372.706 234.985 372.706 239.819C372.706 244.702 368.604 247.876 362.794 247.876C356.934 247.876 352.93 244.702 352.979 239.819C352.93 234.985 356.934 231.811 362.794 231.811ZM362.794 234.692C359.034 234.741 356.544 236.792 356.544 239.819C356.544 242.895 359.034 244.897 362.794 244.897C366.553 244.897 369.092 242.895 369.141 239.819C369.092 236.792 366.553 234.741 362.794 234.692ZM386.329 221.557V249.634H382.471V243.628H374.903V240.454H382.471V235.18H374.952V232.007H382.471V221.557H386.329ZM372.022 250.073C381.055 250.073 386.573 252.759 386.573 257.495C386.573 262.134 381.055 264.868 372.022 264.868C362.891 264.868 357.423 262.134 357.423 257.495C357.423 252.759 362.891 250.073 372.022 250.073ZM372.022 253.052C365.43 253.052 361.378 254.663 361.378 257.495C361.378 260.229 365.43 261.889 372.022 261.889C378.516 261.889 382.52 260.229 382.52 257.495C382.52 254.663 378.516 253.052 372.022 253.052Z" fill="black"/>
<path d="M732.661 225.366V229.223H742.817V221.606H746.675V253.296H742.817V241.723H732.661V245.63H712.739V225.366H732.661ZM716.548 228.54V242.553H728.901V228.54H716.548ZM747.651 260.815V264.038H718.598V250.464H722.456V260.815H747.651ZM732.661 238.55H742.817V232.446H732.661V238.55ZM789.839 221.557V245.141H786.03V235.327H777.241V232.104H786.03V221.557H789.839ZM765.766 247.241V252.661H786.03V247.241H789.839V264.38H761.909V247.241H765.766ZM765.766 261.255H786.03V255.737H765.766V261.255ZM768.989 228.637C768.989 234.204 773.335 239.673 779.682 241.87L777.68 244.848C772.773 243.066 768.989 239.428 767.134 234.936C765.254 239.966 761.25 243.994 756.098 245.874L754.096 242.846C760.493 240.552 765.132 234.79 765.132 228.637V227.368H755.317V224.194H778.706V227.368H768.989V228.637ZM812.739 230.884C812.739 236.743 817.378 242.016 823.872 244.067L821.919 247.143C816.865 245.434 812.837 241.87 810.884 237.28C808.979 242.236 804.902 246.142 799.751 248.022L797.749 244.946C804.243 242.651 808.882 237.036 808.882 230.884V228.344H798.725V225.219H822.749V228.344H812.739V230.884ZM832.954 221.606V253.442H829.145V221.606H832.954ZM834.321 260.815V264.038H804.926V250.415H808.735V260.815H834.321ZM877.192 221.557V249.048H873.53V236.596H867.719V247.485H864.106V222.436H867.719V233.423H873.53V221.557H877.192ZM862.348 226.782V229.858H840.083V226.782H849.36V221.899H853.169V226.782H862.348ZM851.264 232.202C856.782 232.202 860.542 235.083 860.591 239.624C860.542 244.067 856.782 246.997 851.264 246.997C845.796 246.997 841.938 244.067 841.987 239.624C841.938 235.083 845.796 232.202 851.264 232.202ZM851.264 235.034C847.798 235.034 845.405 236.889 845.405 239.624C845.405 242.309 847.798 244.116 851.264 244.116C854.731 244.116 857.124 242.309 857.124 239.624C857.124 236.889 854.731 235.034 851.264 235.034ZM862.837 249.78C871.967 249.78 877.436 252.514 877.436 257.397C877.436 262.134 871.967 264.868 862.837 264.868C853.706 264.868 848.237 262.134 848.286 257.397C848.237 252.514 853.706 249.78 862.837 249.78ZM862.837 252.807C856.098 252.759 852.046 254.419 852.094 257.397C852.046 260.229 856.098 261.889 862.837 261.889C869.575 261.889 873.579 260.229 873.628 257.397C873.579 254.419 869.575 252.759 862.837 252.807Z" fill="black"/>
<path d="M1223.82 221.557V232.69H1230.36V235.962H1223.82V246.802H1220.01V221.557H1223.82ZM1200.19 248.706V253.344H1220.01V248.706H1223.82V264.38H1196.38V248.706H1200.19ZM1200.19 261.303H1220.01V256.372H1200.19V261.303ZM1215.86 226.05V229.223H1189.98V226.05H1201.02V221.167H1204.83V226.05H1215.86ZM1202.92 231.225C1209.17 231.225 1213.32 234.204 1213.37 238.843C1213.32 243.481 1209.17 246.46 1202.92 246.46C1196.62 246.46 1192.42 243.481 1192.47 238.843C1192.42 234.204 1196.62 231.225 1202.92 231.225ZM1202.92 234.204C1198.82 234.155 1196.09 236.059 1196.13 238.843C1196.09 241.675 1198.82 243.53 1202.92 243.53C1206.97 243.53 1209.71 241.675 1209.76 238.843C1209.71 236.059 1206.97 234.155 1202.92 234.204ZM1256 224.536C1256 226.22 1255.8 227.832 1255.46 229.37H1265.23V221.606H1269.08V247.485H1265.23V241.723H1253.7V238.55H1265.23V232.544H1254.44C1251.48 239.38 1244.69 244.311 1235.29 246.899L1233.78 243.823C1244.38 240.893 1251.09 235.058 1251.9 227.661H1235.98V224.536H1256ZM1269.08 249.389V264.917H1265.23V252.466H1239.88V249.389H1269.08ZM1291.01 234.887C1290.96 241.87 1295.99 249.536 1302.29 252.514L1300.09 255.542C1295.21 253.174 1291.08 247.998 1289.15 242.114C1287.15 248.51 1282.78 254.126 1277.92 256.616L1275.58 253.589C1281.83 250.561 1287.2 242.309 1287.25 234.887V229.223H1277.14V226.05H1300.77V229.223H1291.01V234.887ZM1309.9 221.557V239.135H1317.18V242.407H1309.9V264.966H1306.1V221.557H1309.9ZM1337.69 223.413V229.663H1350.33V223.413H1354.14V242.309H1333.93V223.413H1337.69ZM1337.69 239.184H1350.33V232.641H1337.69V239.184ZM1366.01 221.557V230.981H1372.55V234.204H1366.01V244.018H1362.2V221.557H1366.01ZM1366.01 246.069V256.567H1342.18V261.352H1367.62V264.477H1338.42V253.637H1362.2V249.145H1338.32V246.069H1366.01ZM1415.03 256.469V259.643H1375.29V256.469H1386.37V246.118H1378.9V242.944H1385.69V228.784H1378.8V225.61H1411.22V228.784H1404.34V242.944H1411.12V246.118H1403.65V256.469H1415.03ZM1389.49 242.944H1400.58V228.784H1389.49V242.944ZM1390.23 256.469H1399.85V246.118H1390.23V256.469Z" fill="black"/>
<path d="M1824.83 243.335C1824.83 254.516 1818.24 261.499 1809.2 261.499C1800.12 261.499 1793.58 254.516 1793.58 243.335C1793.58 232.153 1800.12 225.171 1809.2 225.171C1818.24 225.171 1824.83 232.153 1824.83 243.335ZM1820.58 243.335C1820.58 234.204 1815.6 229.272 1809.2 229.272C1802.81 229.272 1797.83 234.204 1797.83 243.335C1797.83 252.466 1802.81 257.397 1809.2 257.397C1815.6 257.397 1820.58 252.466 1820.58 243.335ZM1827.86 229.565V225.659H1854.52V229.565H1843.43V261.01H1838.99V229.565H1827.86Z" fill="black"/>
<path d="M1731.72 375.474C1726.22 375.474 1723.07 370.86 1723.07 362.759C1723.07 354.727 1726.28 350.044 1731.72 350.044C1737.15 350.044 1740.37 354.727 1740.37 362.759C1740.37 370.86 1737.19 375.474 1731.72 375.474ZM1731.72 372.74C1735.27 372.74 1737.36 369.151 1737.36 362.759C1737.36 356.368 1735.27 352.71 1731.72 352.71C1728.16 352.71 1726.04 356.368 1726.04 362.759C1726.04 369.151 1728.13 372.74 1731.72 372.74ZM1752.7 350.044C1756.98 350.079 1761.69 352.642 1761.69 361.768C1761.69 370.552 1758.11 375.474 1752.29 375.474C1747.95 375.474 1744.88 372.808 1744.26 368.877H1747.3C1747.85 371.099 1749.53 372.74 1752.29 372.74C1756.33 372.74 1758.79 369.253 1758.82 363.238H1758.48C1757.05 365.289 1754.79 366.519 1752.16 366.519C1747.71 366.519 1744.06 363.135 1744.06 358.35C1744.06 353.736 1747.44 350.01 1752.7 350.044ZM1752.7 352.745C1749.46 352.745 1747.03 355.274 1747.07 358.316C1747.07 361.392 1749.36 363.819 1752.6 363.819C1755.82 363.819 1758.34 361.153 1758.34 358.248C1758.34 355.411 1755.99 352.745 1752.7 352.745ZM1774.78 349.224L1766.79 378.858H1764.12L1772.08 349.224H1774.78ZM1785.72 375.474C1780.22 375.474 1777.07 370.86 1777.07 362.759C1777.07 354.727 1780.29 350.044 1785.72 350.044C1791.16 350.044 1794.37 354.727 1794.37 362.759C1794.37 370.86 1791.19 375.474 1785.72 375.474ZM1785.72 372.74C1789.28 372.74 1791.36 369.151 1791.36 362.759C1791.36 356.368 1789.28 352.71 1785.72 352.71C1782.17 352.71 1780.05 356.368 1780.05 362.759C1780.05 369.151 1782.13 372.74 1785.72 372.74ZM1807.02 375.474C1802.09 375.474 1798.57 372.842 1798.4 368.912H1801.51C1801.68 371.27 1804.04 372.74 1806.98 372.74C1810.23 372.74 1812.62 370.962 1812.62 368.399C1812.62 365.699 1810.47 363.785 1806.61 363.785H1804.59V361.084H1806.61C1809.61 361.084 1811.7 359.41 1811.7 356.846C1811.7 354.385 1809.89 352.71 1807.08 352.71C1804.45 352.71 1802.03 354.18 1801.89 356.607H1798.92C1799.09 352.676 1802.71 350.044 1807.12 350.044C1811.84 350.044 1814.71 353.121 1814.67 356.675C1814.71 359.478 1813.07 361.563 1810.47 362.281V362.452C1813.68 362.964 1815.66 365.254 1815.63 368.399C1815.66 372.466 1811.94 375.474 1807.02 375.474ZM1829.64 365.699C1829.68 359.239 1831.42 353.873 1834.57 349.327H1837.16C1834.84 352.71 1832.69 359.615 1832.69 365.699C1832.69 371.783 1834.84 378.721 1837.16 382.105H1834.57C1831.42 377.525 1829.68 372.159 1829.64 365.699ZM1863.86 348.814V359.068H1854.87V362.964H1867.38V365.152H1839.69V362.964H1852.2V359.068H1843.28V348.814H1863.86ZM1845.91 350.967V356.915H1861.19V350.967H1845.91ZM1863.96 368.331V377.901H1861.26V370.484H1842.77V368.331H1863.96ZM1877.53 365.699C1877.49 372.159 1875.75 377.525 1872.61 382.105H1870.01C1872.33 378.721 1874.49 371.783 1874.49 365.699C1874.49 359.615 1872.33 352.71 1870.01 349.327H1872.61C1875.75 353.873 1877.49 359.239 1877.53 365.699Z" fill="black"/>
<path d="M1212.25 375.474C1206.75 375.474 1203.6 370.86 1203.6 362.759C1203.6 354.727 1206.81 350.044 1212.25 350.044C1217.68 350.044 1220.9 354.727 1220.9 362.759C1220.9 370.86 1217.72 375.474 1212.25 375.474ZM1212.25 372.74C1215.8 372.74 1217.89 369.151 1217.89 362.759C1217.89 356.368 1215.8 352.71 1212.25 352.71C1208.69 352.71 1206.57 356.368 1206.57 362.759C1206.57 369.151 1208.66 372.74 1212.25 372.74ZM1225.1 375.132L1236.45 353.292V353.121H1223.36V350.386H1239.63V353.257L1228.31 375.132H1225.1ZM1252.48 349.224L1244.48 378.858H1241.81L1249.78 349.224H1252.48ZM1255.31 375.132L1255.28 372.876L1263.72 363.99C1266.66 360.879 1268.06 359.205 1268.06 356.915C1268.06 354.385 1265.91 352.71 1263.14 352.71C1260.2 352.71 1258.32 354.59 1258.32 357.359H1255.42C1255.38 352.984 1258.77 350.044 1263.24 350.044C1267.72 350.044 1270.93 353.052 1270.93 356.915C1270.93 359.683 1269.64 361.836 1265.26 366.348L1259.59 372.193V372.398H1271.38V375.132H1255.31ZM1284.61 350.386V375.132H1281.5V353.599H1281.36L1275.34 357.598V354.488L1281.5 350.386H1284.61ZM1300.77 365.699C1300.81 359.239 1302.55 353.873 1305.7 349.327H1308.29C1305.97 352.71 1303.82 359.615 1303.82 365.699C1303.82 371.783 1305.97 378.721 1308.29 382.105H1305.7C1302.55 377.525 1300.81 372.159 1300.77 365.699ZM1334.41 347.515V360.469H1339.26V362.725H1334.41V377.901H1331.71V347.515H1334.41ZM1310.45 369.8C1312.92 369.8 1315.81 369.8 1318.82 369.698V366.314C1315.28 365.921 1312.98 363.853 1313.01 360.845C1312.98 357.427 1315.88 355.206 1320.19 355.206C1324.43 355.206 1327.37 357.427 1327.4 360.845C1327.37 363.853 1325.02 365.921 1321.52 366.348V369.595C1324.36 369.458 1327.21 369.236 1329.86 368.843L1330.03 370.894C1323.4 372.022 1316.22 372.09 1310.89 372.09L1310.45 369.8ZM1329.31 351.241V353.428H1310.99V351.241H1318.82V347.583H1321.52V351.241H1329.31ZM1320.19 357.291C1317.38 357.291 1315.5 358.726 1315.5 360.845C1315.5 362.964 1317.38 364.332 1320.19 364.297C1322.96 364.332 1324.84 362.964 1324.84 360.845C1324.84 358.726 1322.96 357.291 1320.19 357.291ZM1348.66 365.699C1348.63 372.159 1346.88 377.525 1343.74 382.105H1341.14C1343.46 378.721 1345.62 371.783 1345.62 365.699C1345.62 359.615 1343.46 352.71 1341.14 349.327H1343.74C1346.88 353.873 1348.63 359.239 1348.66 365.699Z" fill="black"/>
<path d="M587.286 375.474C581.783 375.474 578.638 370.86 578.638 362.759C578.638 354.727 581.851 350.044 587.286 350.044C592.721 350.044 595.933 354.727 595.933 362.759C595.933 370.86 592.755 375.474 587.286 375.474ZM587.286 372.74C590.841 372.74 592.926 369.151 592.926 362.759C592.926 356.368 590.841 352.71 587.286 352.71C583.731 352.71 581.612 356.368 581.612 362.759C581.612 369.151 583.697 372.74 587.286 372.74ZM600.137 375.132L611.485 353.292V353.121H598.394V350.386H614.664V353.257L603.35 375.132H600.137ZM627.515 349.224L619.517 378.858H616.851L624.815 349.224H627.515ZM639.102 350.386V375.132H635.992V353.599H635.855L629.84 357.598V354.488L635.992 350.386H639.102ZM653.936 350.044C658.209 350.079 662.926 352.642 662.926 361.768C662.926 370.552 659.337 375.474 653.526 375.474C649.185 375.474 646.109 372.808 645.494 368.877H648.536C649.083 371.099 650.758 372.74 653.526 372.74C657.559 372.74 660.02 369.253 660.054 363.238H659.713C658.277 365.289 656.021 366.519 653.389 366.519C648.946 366.519 645.289 363.135 645.289 358.35C645.289 353.736 648.673 350.01 653.936 350.044ZM653.936 352.745C650.689 352.745 648.262 355.274 648.297 358.316C648.297 361.392 650.587 363.819 653.834 363.819C657.047 363.819 659.576 361.153 659.576 358.248C659.576 355.411 657.218 352.745 653.936 352.745ZM676.734 365.699C676.768 359.239 678.512 353.873 681.656 349.327H684.254C681.929 352.71 679.776 359.615 679.776 365.699C679.776 371.783 681.929 378.721 684.254 382.105H681.656C678.512 377.525 676.768 372.159 676.734 365.699ZM695.396 348.643C699.942 348.677 703.258 351.412 703.258 355.376C703.258 359.341 699.942 362.076 695.396 362.076C690.782 362.076 687.501 359.341 687.501 355.376C687.501 351.412 690.782 348.677 695.396 348.643ZM695.396 350.899C692.354 350.899 690.098 352.745 690.133 355.376C690.098 358.042 692.354 359.888 695.396 359.888C698.404 359.888 700.66 358.042 700.66 355.376C700.66 352.745 698.404 350.899 695.396 350.899ZM711.871 347.515V363.135H709.205V347.515H711.871ZM711.871 364.605V371.919H694.815V375.337H712.965V377.491H692.183V369.903H709.205V366.758H692.115V364.605H711.871ZM724.62 365.699C724.586 372.159 722.843 377.525 719.698 382.105H717.1C719.425 378.721 721.578 371.783 721.578 365.699C721.578 359.615 719.425 352.71 717.1 349.327H719.698C722.843 353.873 724.586 359.239 724.62 365.699ZM739.83 362.383C740.924 361.119 742.291 360.435 743.795 360.435C746.392 360.435 748.751 362.417 751.246 362.417C752.784 362.417 754.117 361.666 755.142 360.264V363.101C754.014 364.4 752.681 365.049 751.178 365.049C748.58 365.049 746.221 363.067 743.692 363.067C742.188 363.067 740.855 363.819 739.83 365.22V362.383ZM777.667 375.474C772.164 375.474 769.019 370.86 769.019 362.759C769.019 354.727 772.232 350.044 777.667 350.044C783.101 350.044 786.314 354.727 786.314 362.759C786.314 370.86 783.136 375.474 777.667 375.474ZM777.667 372.74C781.221 372.74 783.306 369.151 783.306 362.759C783.306 356.368 781.221 352.71 777.667 352.71C774.112 352.71 771.993 356.368 771.993 362.759C771.993 369.151 774.078 372.74 777.667 372.74ZM790.518 375.132L801.866 353.292V353.121H788.775V350.386H805.045V353.257L793.731 375.132H790.518ZM817.896 349.224L809.898 378.858H807.232L815.196 349.224H817.896ZM820.733 375.132L820.699 372.876L829.141 363.99C832.081 360.879 833.482 359.205 833.482 356.915C833.482 354.385 831.329 352.71 828.56 352.71C825.621 352.71 823.741 354.59 823.741 357.359H820.836C820.802 352.984 824.185 350.044 828.663 350.044C833.14 350.044 836.353 353.052 836.353 356.915C836.353 359.683 835.054 361.836 830.679 366.348L825.006 372.193V372.398H836.798V375.132H820.733ZM849.376 375.474C843.873 375.474 840.728 370.86 840.728 362.759C840.728 354.727 843.941 350.044 849.376 350.044C854.81 350.044 858.023 354.727 858.023 362.759C858.023 370.86 854.845 375.474 849.376 375.474ZM849.376 372.74C852.93 372.74 855.015 369.151 855.015 362.759C855.015 356.368 852.93 352.71 849.376 352.71C845.821 352.71 843.702 356.368 843.702 362.759C843.702 369.151 845.787 372.74 849.376 372.74ZM871.695 365.699C871.729 359.239 873.472 353.873 876.617 349.327H879.215C876.89 352.71 874.737 359.615 874.737 365.699C874.737 371.783 876.89 378.721 879.215 382.105H876.617C873.472 377.525 871.729 372.159 871.695 365.699ZM906.798 347.549V365.459H904.097V363.785H897.945V362.007H904.097V347.549H906.798ZM881.641 359C887.52 359.034 895.04 358.965 901.602 358.248L901.773 359.991C898.8 360.418 895.706 360.674 892.681 360.811V365.562H890.05V360.914C887.179 361.016 884.427 361.033 881.949 361.016L881.641 359ZM906.798 366.553V372.842H889.058V375.577H907.789V377.559H886.427V370.962H904.132V368.501H886.29V366.553H906.798ZM891.554 348.13C896.065 348.13 899.073 349.908 899.107 352.71C899.073 355.547 896.065 357.256 891.554 357.256C886.973 357.256 884 355.547 884 352.71C884 349.908 886.973 348.13 891.554 348.13ZM891.554 350.01C888.477 350.01 886.495 351.07 886.529 352.71C886.495 354.317 888.477 355.411 891.554 355.411C894.596 355.411 896.578 354.317 896.578 352.71C896.578 351.07 894.596 350.01 891.554 350.01ZM919.581 365.699C919.547 372.159 917.804 377.525 914.659 382.105H912.061C914.386 378.721 916.539 371.783 916.539 365.699C916.539 359.615 914.386 352.71 912.061 349.327H914.659C917.804 353.873 919.547 359.239 919.581 365.699Z" fill="black"/>
<path d="M85.6849 375.474C80.1819 375.474 77.0374 370.86 77.0374 362.759C77.0374 354.727 80.2503 350.044 85.6849 350.044C91.1194 350.044 94.3323 354.727 94.3323 362.759C94.3323 370.86 91.1536 375.474 85.6849 375.474ZM85.6849 372.74C89.2395 372.74 91.3245 369.151 91.3245 362.759C91.3245 356.368 89.2395 352.71 85.6849 352.71C82.1302 352.71 80.011 356.368 80.011 362.759C80.011 369.151 82.096 372.74 85.6849 372.74ZM98.5364 375.132L109.884 353.292V353.121H96.7933V350.386H113.063V353.257L101.749 375.132H98.5364ZM125.914 349.224L117.916 378.858H115.25L123.214 349.224H125.914ZM136.852 375.474C131.349 375.474 128.204 370.86 128.204 362.759C128.204 354.727 131.417 350.044 136.852 350.044C142.286 350.044 145.499 354.727 145.499 362.759C145.499 370.86 142.321 375.474 136.852 375.474ZM136.852 372.74C140.407 372.74 142.492 369.151 142.492 362.759C142.492 356.368 140.407 352.71 136.852 352.71C133.297 352.71 131.178 356.368 131.178 362.759C131.178 369.151 133.263 372.74 136.852 372.74ZM158.146 375.474C153.224 375.474 149.703 372.842 149.533 368.912H152.643C152.814 371.27 155.172 372.74 158.112 372.74C161.359 372.74 163.751 370.962 163.751 368.399C163.751 365.699 161.598 363.785 157.736 363.785H155.719V361.084H157.736C160.743 361.084 162.828 359.41 162.828 356.846C162.828 354.385 161.017 352.71 158.214 352.71C155.582 352.71 153.156 354.18 153.019 356.607H150.045C150.216 352.676 153.839 350.044 158.248 350.044C162.965 350.044 165.836 353.121 165.802 356.675C165.836 359.478 164.196 361.563 161.598 362.281V362.452C164.811 362.964 166.793 365.254 166.759 368.399C166.793 372.466 163.068 375.474 158.146 375.474ZM180.773 365.699C180.807 359.239 182.55 353.873 185.695 349.327H188.292C185.968 352.71 183.815 359.615 183.815 365.699C183.815 371.783 185.968 378.721 188.292 382.105H185.695C182.55 377.525 180.807 372.159 180.773 365.699ZM214.987 349.156V351.412C214.987 353.77 214.987 356.539 214.2 360.333H218.644V362.554H190.822V360.333H211.5C212.321 356.521 212.321 353.77 212.321 351.412V351.377H194.342V349.156H214.987ZM215.123 366.758V377.491H194.24V366.758H215.123ZM196.906 368.877V375.303H212.457V368.877H196.906ZM228.658 365.699C228.624 372.159 226.881 377.525 223.737 382.105H221.139C223.463 378.721 225.617 371.783 225.617 365.699C225.617 359.615 223.463 352.71 221.139 349.327H223.737C226.881 353.873 228.624 359.239 228.658 365.699ZM243.868 362.383C244.962 361.119 246.329 360.435 247.833 360.435C250.431 360.435 252.789 362.417 255.284 362.417C256.823 362.417 258.156 361.666 259.181 360.264V363.101C258.053 364.4 256.72 365.049 255.216 365.049C252.618 365.049 250.26 363.067 247.731 363.067C246.227 363.067 244.894 363.819 243.868 365.22V362.383ZM281.705 375.474C276.202 375.474 273.058 370.86 273.058 362.759C273.058 354.727 276.271 350.044 281.705 350.044C287.14 350.044 290.353 354.727 290.353 362.759C290.353 370.86 287.174 375.474 281.705 375.474ZM281.705 372.74C285.26 372.74 287.345 369.151 287.345 362.759C287.345 356.368 285.26 352.71 281.705 352.71C278.151 352.71 276.032 356.368 276.032 362.759C276.032 369.151 278.117 372.74 281.705 372.74ZM294.557 375.132L305.905 353.292V353.121H292.814V350.386H309.083V353.257L297.77 375.132H294.557ZM321.935 349.224L313.937 378.858H311.271L319.235 349.224H321.935ZM333.522 350.386V375.132H330.411V353.599H330.275L324.259 357.598V354.488L330.411 350.386H333.522ZM348.219 375.474C342.716 375.474 339.572 370.86 339.572 362.759C339.572 354.727 342.784 350.044 348.219 350.044C353.654 350.044 356.867 354.727 356.867 362.759C356.867 370.86 353.688 375.474 348.219 375.474ZM348.219 372.74C351.774 372.74 353.859 369.151 353.859 362.759C353.859 356.368 351.774 352.71 348.219 352.71C344.664 352.71 342.545 356.368 342.545 362.759C342.545 369.151 344.63 372.74 348.219 372.74ZM370.538 365.699C370.573 359.239 372.316 353.873 375.46 349.327H378.058C375.734 352.71 373.58 359.615 373.58 365.699C373.58 371.783 375.734 378.721 378.058 382.105H375.46C372.316 377.525 370.573 372.159 370.538 365.699ZM404.752 349.156V351.412C404.752 353.77 404.752 356.539 403.966 360.333H408.409V362.554H380.587V360.333H401.266C402.086 356.521 402.086 353.77 402.086 351.412V351.377H384.108V349.156H404.752ZM404.889 366.758V377.491H384.005V366.758H404.889ZM386.671 368.877V375.303H402.223V368.877H386.671ZM418.424 365.699C418.39 372.159 416.647 377.525 413.502 382.105H410.905C413.229 378.721 415.382 371.783 415.382 365.699C415.382 359.615 413.229 352.71 410.905 349.327H413.502C416.647 353.873 418.39 359.239 418.424 365.699Z" fill="black"/>
<g clip-path="url(#clip0_38_5)">
<path d="M816.197 72.7279C816.197 67.5019 813.13 63.1961 807.27 62.2344C806.463 62.5028 805.605 62.6534 804.709 62.6534C803.813 62.6534 802.952 62.5028 802.145 62.2344C796.286 63.1961 793.221 67.5019 793.221 72.7279H804.709H816.197Z" fill="white"/>
<path d="M804.71 60.7903C808.182 60.7903 810.997 57.9758 810.997 54.5037V52.7196C810.997 49.2459 808.182 46.4314 804.71 46.4314C801.237 46.4314 798.422 49.2459 798.422 52.7196V54.5037C798.422 57.9758 801.237 60.7903 804.71 60.7903Z" fill="white"/>
<path d="M842.716 72.7279C842.716 67.5019 839.648 63.1961 833.789 62.2344C832.982 62.5028 832.123 62.6534 831.227 62.6534C830.332 62.6534 829.472 62.5028 828.665 62.2344C822.806 63.1961 819.74 67.5019 819.74 72.7279H831.227H842.716Z" fill="white"/>
<path d="M831.228 60.7903C834.7 60.7903 837.516 57.9758 837.516 54.5037V52.7196C837.516 49.2459 834.7 46.4314 831.228 46.4314C827.756 46.4314 824.939 49.2459 824.939 52.7196V54.5037C824.94 57.9758 827.756 60.7903 831.228 60.7903Z" fill="white"/>
<path d="M866.408 114.295L851.001 78.5078C850.674 77.7428 849.922 77.2476 849.09 77.2476H787.21C786.378 77.2476 785.626 77.7428 785.297 78.5063L769.891 114.295C769.614 114.938 769.678 115.678 770.064 116.264C770.449 116.848 771.103 117.201 771.804 117.201H800.836C803.315 113.011 807.586 109.971 813.583 108.988C814.964 109.446 816.436 109.704 817.969 109.704C819.502 109.704 820.975 109.446 822.356 108.988C828.353 109.972 832.624 113.011 835.103 117.201H864.494C865.196 117.201 865.849 116.848 866.235 116.264C866.621 115.678 866.685 114.938 866.408 114.295ZM828.731 95.7547C828.731 101.698 823.914 106.517 817.969 106.517C812.024 106.517 807.207 101.698 807.207 95.7547V92.7003C807.207 86.7566 812.024 81.9383 817.969 81.9383C823.914 81.9383 828.731 86.7566 828.731 92.7003V95.7547Z" fill="white"/>
</g>
<g clip-path="url(#clip1_38_5)">
<path d="M1359.89 31.9634H1358.32L1279.98 54.9433C1278.88 55.2881 1277.92 55.9874 1277.26 56.9321C1276.6 57.8769 1276.27 59.014 1276.32 60.166V83.6682C1276.35 84.8024 1276.71 85.9037 1277.36 86.8332C1278.01 87.7626 1278.92 88.4786 1279.98 88.8909L1292.25 92.2857L1296.43 119.183C1296.63 121.052 1297.51 122.783 1298.91 124.038C1300.31 125.293 1302.12 125.982 1304 125.972H1315.76C1317.94 125.886 1320 124.949 1321.5 123.361C1322.22 122.401 1322.73 121.301 1323 120.131C1323.27 118.962 1323.29 117.75 1323.07 116.571L1320.19 100.642L1358.32 111.871H1359.89C1361.27 111.871 1362.6 111.321 1363.58 110.341C1364.56 109.362 1365.11 108.033 1365.11 106.648V37.1861C1365.11 35.8009 1364.56 34.4725 1363.58 33.4931C1362.6 32.5136 1361.27 31.9634 1359.89 31.9634ZM1312.36 115.527H1306.35L1303.22 95.6804L1308.7 97.2472L1312.36 115.527ZM1354.66 99.8586L1286.77 79.7512V64.083L1354.66 44.2367V99.8586Z" fill="white"/>
<path d="M1375.56 56.249C1376.37 56.326 1377.2 56.1432 1377.91 55.7267L1388.35 50.504C1389.6 49.8807 1390.55 48.7877 1390.99 47.4654C1391.43 46.1432 1391.32 44.7 1390.7 43.4534C1390.08 42.2067 1388.99 41.2588 1387.66 40.818C1386.34 40.3773 1384.9 40.4798 1383.65 41.1032L1373.21 46.3259C1372.59 46.6312 1372.03 47.0566 1371.58 47.5775C1371.12 48.0983 1370.78 48.7043 1370.56 49.3601C1370.34 50.016 1370.25 50.7088 1370.3 51.3982C1370.35 52.0877 1370.54 52.7601 1370.86 53.3765C1371.32 54.2274 1371.99 54.9413 1372.82 55.4458C1373.64 55.9503 1374.59 56.2274 1375.56 56.249Z" fill="white"/>
<path d="M1388.35 93.5914L1377.91 88.3687C1376.68 87.7816 1375.28 87.6703 1373.98 88.0563C1372.68 88.4422 1371.56 89.298 1370.86 90.4577C1370.54 91.0742 1370.35 91.7466 1370.3 92.436C1370.25 93.1255 1370.34 93.8183 1370.56 94.4741C1370.78 95.13 1371.12 95.7359 1371.58 96.2568C1372.03 96.7777 1372.59 97.2031 1373.21 97.5084L1383.65 102.731C1384.36 103.148 1385.18 103.33 1386 103.253C1386.97 103.232 1387.91 102.955 1388.74 102.45C1389.56 101.946 1390.24 101.232 1390.7 100.381C1391.01 99.7839 1391.19 99.1305 1391.24 98.4604C1391.29 97.7903 1391.2 97.1175 1390.98 96.4826C1390.76 95.8477 1390.41 95.2641 1389.96 94.7671C1389.51 94.2702 1388.96 93.8701 1388.35 93.5914Z" fill="white"/>
<path d="M1375.55 77.1398H1386C1387.39 77.1398 1388.71 76.5895 1389.69 75.6101C1390.67 74.6306 1391.22 73.3022 1391.22 71.917C1391.22 70.5319 1390.67 69.2035 1389.69 68.224C1388.71 67.2446 1387.39 66.6943 1386 66.6943H1375.55C1374.17 66.6943 1372.84 67.2446 1371.86 68.224C1370.88 69.2035 1370.33 70.5319 1370.33 71.917C1370.33 73.3022 1370.88 74.6306 1371.86 75.6101C1372.84 76.5895 1374.17 77.1398 1375.55 77.1398Z" fill="white"/>
</g>
<path fill-rule="evenodd" clip-rule="evenodd" d="M315.955 27.8243C316.8 26.9784 317.948 26.5032 319.144 26.5032H355.228C362.702 26.5032 368.76 32.5615 368.76 40.0347V112.203C368.76 119.677 362.702 125.735 355.228 125.735H301.102C293.629 125.735 287.57 119.677 287.57 112.203V58.0768C287.57 56.8805 288.046 55.7333 288.891 54.8874L315.955 27.8243ZM355.228 35.5242H323.654V58.0768C323.654 60.5679 321.635 62.5873 319.144 62.5873H296.591V112.203C296.591 114.694 298.611 116.714 301.102 116.714H355.228C357.719 116.714 359.739 114.694 359.739 112.203V40.0347C359.739 37.5437 357.719 35.5242 355.228 35.5242ZM302.97 53.5663H314.633V41.903L302.97 53.5663ZM305.612 80.6294C305.612 78.1383 307.632 76.1189 310.123 76.1189H346.207C348.698 76.1189 350.718 78.1383 350.718 80.6294C350.718 83.1206 348.698 85.1399 346.207 85.1399H310.123C307.632 85.1399 305.612 83.1206 305.612 80.6294ZM305.612 98.6715C305.612 96.1804 307.632 94.161 310.123 94.161H346.207C348.698 94.161 350.718 96.1804 350.718 98.6715C350.718 101.163 348.698 103.182 346.207 103.182H310.123C307.632 103.182 305.612 101.163 305.612 98.6715Z" fill="#222222"/>
<path d="M1892.86 62.9122H1791.08C1792.32 54.4229 1798.94 47.6428 1807.37 46.1786V51.6824C1807.37 55.9726 1810.85 59.4595 1815.15 59.4595C1819.44 59.4595 1822.93 55.9783 1822.93 51.6824V45.8652H1861.02V51.6824C1861.02 55.9726 1864.5 59.4595 1868.8 59.4595C1873.09 59.4595 1876.57 55.9783 1876.57 51.6824V46.1786C1884.99 47.6428 1891.61 54.4229 1892.86 62.9122Z" fill="white"/>
<path d="M1893.1 69.2534V104.361C1893.1 105.387 1893.04 106.384 1892.85 107.347C1891.45 116.987 1883.12 124.388 1873.08 124.388H1810.85C1800.8 124.388 1792.47 116.987 1791.07 107.347C1790.88 106.384 1790.82 105.387 1790.82 104.361V69.2534H1893.1Z" fill="white"/>
<path d="M1873.45 31.6499V51.6766C1873.45 54.2234 1871.36 56.3429 1868.78 56.3429C1866.23 56.3429 1864.11 54.2291 1864.11 51.6766V35.7236H1819.8V51.6766C1819.8 54.2234 1817.71 56.3429 1815.13 56.3429C1812.58 56.3429 1810.46 54.2291 1810.46 51.6766V31.6499C1810.46 29.1031 1812.58 26.9836 1815.13 26.9836H1868.77C1871.36 26.9893 1873.45 29.1031 1873.45 31.6499Z" fill="white"/>
<defs>
<linearGradient id="paint0_linear_38_5" x1="0" y1="161.613" x2="597.136" y2="161.613" gradientUnits="userSpaceOnUse">
<stop stop-color="#F4F4F0"/>
<stop offset="1" stop-color="#E0E0DC"/>
</linearGradient>
<linearGradient id="paint1_linear_38_5" x1="497.993" y1="161.613" x2="1095.17" y2="161.613" gradientUnits="userSpaceOnUse">
<stop stop-color="#C1C1C1"/>
<stop offset="1" stop-color="#898787"/>
</linearGradient>
<linearGradient id="paint2_linear_38_5" x1="999.418" y1="161.613" x2="1596.6" y2="161.613" gradientUnits="userSpaceOnUse">
<stop stop-color="#826546" stop-opacity="0.64"/>
<stop offset="1" stop-color="#826546"/>
</linearGradient>
<linearGradient id="paint3_linear_38_5" x1="1524.28" y1="161.613" x2="2121.46" y2="161.613" gradientUnits="userSpaceOnUse">
<stop stop-color="#15273D" stop-opacity="0.76"/>
<stop offset="1" stop-color="#15273D"/>
</linearGradient>
<clipPath id="clip0_38_5">
<rect width="96.8575" height="96.8575" fill="white" transform="translate(769.721 33.3877)"/>
</clipPath>
<clipPath id="clip1_38_5">
<rect width="125.345" height="125.345" fill="white" transform="translate(1271.1 16.2952)"/>
</clipPath>
</defs>
</svg>
