<svg width="2123" height="410" viewBox="0 0 2123 410" fill="none" xmlns="http://www.w3.org/2000/svg">
<path d="M597.739 162.46L597.694 162.5L429.196 324.093H0.601562L169.06 162.5L169.105 162.46L0.601562 0.867676H429.196L597.739 162.46Z" fill="url(#paint0_linear_38_5)"/>
<path d="M1095.77 162.46L1095.73 162.5L927.186 324.093H498.592L667.05 162.5L667.095 162.46L498.592 0.867676H927.186L1095.77 162.46Z" fill="url(#paint1_linear_38_5)"/>
<path d="M1597.2 162.46L1597.16 162.5L1428.65 324.093H1000.02L1168.48 162.5L1168.52 162.46L1000.02 0.867676H1428.65L1597.2 162.46Z" fill="url(#paint2_linear_38_5)"/>
<path opacity="0.3" d="M597.694 162.5L429.196 324.092H0.601562L169.06 162.5H597.694Z" fill="white"/>
<path opacity="0.3" d="M1095.73 162.5L927.186 324.092H498.592L667.05 162.5H1095.73Z" fill="white"/>
<path opacity="0.3" d="M1597.16 162.5L1428.65 324.092H1000.02L1168.48 162.5H1597.16Z" fill="white"/>
<path d="M2122.06 162.46L2122.02 162.5L1953.52 324.093H1524.88L1693.34 162.5L1693.39 162.46L1524.88 0.867676H1953.52L2122.06 162.46Z" fill="url(#paint3_linear_38_5)"/>
<path opacity="0.3" d="M2122.02 162.5L1953.52 324.092H1524.88L1693.34 162.5H2122.02Z" fill="white"/>
<path d="M236.589 234.095C236.589 241.956 241.618 249.866 247.917 252.747L245.622 255.872C240.69 253.333 236.613 248.133 234.684 241.956C232.756 248.45 228.678 254.017 223.747 256.654L221.257 253.577C227.604 250.452 232.682 242.103 232.682 234.095V226.185H236.589V234.095ZM257.292 222.425V265.931H253.483V240.394H243.18V237.269H253.483V222.425H257.292ZM304.216 248.353V251.429H293.766V265.833H289.958V251.429H278.727V265.833H274.87V251.429H264.469V248.353H304.216ZM299.382 224.134V235.267H273.21V240.687H300.309V243.861H269.352V232.288H295.475V227.308H269.255V224.134H299.382ZM343.717 222.474V254.31H339.86V237.659H330.925V234.486H339.86V222.474H343.717ZM344.938 261.683V264.906H315.837V251.429H319.694V261.683H344.938ZM322.819 231.409C322.819 237.025 327.165 242.493 333.512 244.642L331.51 247.718C326.603 245.96 322.819 242.298 320.964 237.806C319.084 242.811 315.08 246.815 309.928 248.743L307.926 245.618C314.323 243.372 318.962 237.659 318.962 231.409V229.163H309.147V225.99H332.536V229.163H322.819V231.409ZM375.553 227.308V230.433H350.993V227.308H361.54V222.083H365.348V227.308H375.553ZM363.395 232.679C369.206 232.679 373.307 235.853 373.307 240.687C373.307 245.57 369.206 248.743 363.395 248.743C357.536 248.743 353.532 245.57 353.581 240.687C353.532 235.853 357.536 232.679 363.395 232.679ZM363.395 235.56C359.635 235.609 357.145 237.659 357.145 240.687C357.145 243.763 359.635 245.765 363.395 245.765C367.155 245.765 369.694 243.763 369.743 240.687C369.694 237.659 367.155 235.609 363.395 235.56ZM386.93 222.425V250.501H383.073V244.495H375.505V241.322H383.073V236.048H375.553V232.874H383.073V222.425H386.93ZM372.624 250.941C381.657 250.941 387.175 253.626 387.175 258.363C387.175 263.001 381.657 265.736 372.624 265.736C363.493 265.736 358.024 263.001 358.024 258.363C358.024 253.626 363.493 250.941 372.624 250.941ZM372.624 253.919C366.032 253.919 361.979 255.531 361.979 258.363C361.979 261.097 366.032 262.757 372.624 262.757C379.118 262.757 383.122 261.097 383.122 258.363C383.122 255.531 379.118 253.919 372.624 253.919Z" fill="black"/>
<path d="M733.262 226.234V230.091H743.419V222.474H747.276V254.163H743.419V242.591H733.262V246.497H713.341V226.234H733.262ZM717.149 229.407V243.421H729.503V229.407H717.149ZM748.253 261.683V264.906H719.2V251.331H723.057V261.683H748.253ZM733.262 239.417H743.419V233.314H733.262V239.417ZM790.44 222.425V246.009H786.632V236.195H777.842V232.972H786.632V222.425H790.44ZM766.368 248.109V253.529H786.632V248.109H790.44V265.247H762.51V248.109H766.368ZM766.368 262.122H786.632V256.605H766.368V262.122ZM769.591 229.505C769.591 235.072 773.936 240.54 780.284 242.738L778.282 245.716C773.375 243.934 769.591 240.296 767.735 235.804C765.855 240.833 761.851 244.862 756.7 246.741L754.698 243.714C761.094 241.419 765.733 235.657 765.733 229.505V228.236H755.919V225.062H779.307V228.236H769.591V229.505ZM813.341 231.751C813.341 237.611 817.979 242.884 824.473 244.935L822.52 248.011C817.467 246.302 813.438 242.738 811.485 238.148C809.581 243.104 805.504 247.01 800.352 248.89L798.35 245.814C804.844 243.519 809.483 237.904 809.483 231.751V229.212H799.327V226.087H823.35V229.212H813.341V231.751ZM833.555 222.474V254.31H829.747V222.474H833.555ZM834.923 261.683V264.906H805.528V251.282H809.337V261.683H834.923ZM877.794 222.425V249.915H874.132V237.464H868.321V248.353H864.708V223.304H868.321V234.29H874.132V222.425H877.794ZM862.95 227.65V230.726H840.684V227.65H849.962V222.767H853.77V227.65H862.95ZM851.866 233.07C857.384 233.07 861.143 235.95 861.192 240.491C861.143 244.935 857.384 247.865 851.866 247.865C846.397 247.865 842.54 244.935 842.589 240.491C842.54 235.95 846.397 233.07 851.866 233.07ZM851.866 235.902C848.399 235.902 846.007 237.757 846.007 240.491C846.007 243.177 848.399 244.984 851.866 244.984C855.333 244.984 857.725 243.177 857.725 240.491C857.725 237.757 855.333 235.902 851.866 235.902ZM863.438 250.648C872.569 250.648 878.038 253.382 878.038 258.265C878.038 263.001 872.569 265.736 863.438 265.736C854.307 265.736 848.839 263.001 848.887 258.265C848.839 253.382 854.307 250.648 863.438 250.648ZM863.438 253.675C856.7 253.626 852.647 255.286 852.696 258.265C852.647 261.097 856.7 262.757 863.438 262.757C870.176 262.757 874.18 261.097 874.229 258.265C874.18 255.286 870.176 253.626 863.438 253.675Z" fill="black"/>
<path d="M1224.42 222.425V233.558H1230.96V236.829H1224.42V247.669H1220.61V222.425H1224.42ZM1200.79 249.573V254.212H1220.61V249.573H1224.42V265.247H1196.98V249.573H1200.79ZM1200.79 262.171H1220.61V257.24H1200.79V262.171ZM1216.46 226.917V230.091H1190.58V226.917H1201.62V222.034H1205.43V226.917H1216.46ZM1203.52 232.093C1209.77 232.093 1213.92 235.072 1213.97 239.71C1213.92 244.349 1209.77 247.327 1203.52 247.327C1197.22 247.327 1193.03 244.349 1193.07 239.71C1193.03 235.072 1197.22 232.093 1203.52 232.093ZM1203.52 235.072C1199.42 235.023 1196.69 236.927 1196.74 239.71C1196.69 242.542 1199.42 244.398 1203.52 244.398C1207.58 244.398 1210.31 242.542 1210.36 239.71C1210.31 236.927 1207.58 235.023 1203.52 235.072ZM1256.6 225.404C1256.6 227.088 1256.4 228.699 1256.06 230.238H1265.83V222.474H1269.69V248.353H1265.83V242.591H1254.3V239.417H1265.83V233.411H1255.04C1252.08 240.247 1245.3 245.179 1235.9 247.767L1234.38 244.691C1244.98 241.761 1251.69 235.926 1252.5 228.529H1236.58V225.404H1256.6ZM1269.69 250.257V265.784H1265.83V253.333H1240.49V250.257H1269.69ZM1291.61 235.755C1291.56 242.738 1296.59 250.404 1302.89 253.382L1300.69 256.409C1295.81 254.041 1291.68 248.865 1289.75 242.982C1287.75 249.378 1283.38 254.993 1278.52 257.484L1276.18 254.456C1282.43 251.429 1287.8 243.177 1287.85 235.755V230.091H1277.74V226.917H1301.37V230.091H1291.61V235.755ZM1310.51 222.425V240.003H1317.78V243.275H1310.51V265.833H1306.7V222.425H1310.51ZM1338.29 224.281V230.531H1350.94V224.281H1354.74V243.177H1334.53V224.281H1338.29ZM1338.29 240.052H1350.94V233.509H1338.29V240.052ZM1366.61 222.425V231.849H1373.15V235.072H1366.61V244.886H1362.8V222.425H1366.61ZM1366.61 246.937V257.435H1342.78V262.22H1368.22V265.345H1339.02V254.505H1362.8V250.013H1338.92V246.937H1366.61ZM1415.63 257.337V260.511H1375.89V257.337H1386.97V246.986H1379.5V243.812H1386.29V229.652H1379.4V226.478H1411.82V229.652H1404.94V243.812H1411.73V246.986H1404.26V257.337H1415.63ZM1390.1 243.812H1401.18V229.652H1390.1V243.812ZM1390.83 257.337H1400.45V246.986H1390.83V257.337Z" fill="black"/>
<path d="M1825.43 244.202C1825.43 255.384 1818.84 262.366 1809.81 262.366C1800.72 262.366 1794.18 255.384 1794.18 244.202C1794.18 233.021 1800.72 226.038 1809.81 226.038C1818.84 226.038 1825.43 233.021 1825.43 244.202ZM1821.18 244.202C1821.18 235.072 1816.2 230.14 1809.81 230.14C1803.41 230.14 1798.43 235.072 1798.43 244.202C1798.43 253.333 1803.41 258.265 1809.81 258.265C1816.2 258.265 1821.18 253.333 1821.18 244.202ZM1828.46 230.433V226.527H1855.12V230.433H1844.03V261.878H1839.59V230.433H1828.46Z" fill="black"/>
<path d="M1732.32 376.342C1726.82 376.342 1723.67 371.728 1723.67 363.627C1723.67 355.595 1726.89 350.912 1732.32 350.912C1737.75 350.912 1740.97 355.595 1740.97 363.627C1740.97 371.728 1737.79 376.342 1732.32 376.342ZM1732.32 373.607C1735.87 373.607 1737.96 370.019 1737.96 363.627C1737.96 357.235 1735.87 353.578 1732.32 353.578C1728.77 353.578 1726.65 357.235 1726.65 363.627C1726.65 370.019 1728.73 373.607 1732.32 373.607ZM1753.61 376.342C1748.69 376.342 1745.17 373.71 1745 369.779H1748.11C1748.28 372.138 1750.64 373.607 1753.58 373.607C1756.83 373.607 1759.22 371.83 1759.22 369.267C1759.22 366.566 1757.07 364.652 1753.2 364.652H1751.19V361.952H1753.2C1756.21 361.952 1758.3 360.277 1758.3 357.714C1758.3 355.253 1756.48 353.578 1753.68 353.578C1751.05 353.578 1748.62 355.048 1748.49 357.475H1745.51C1745.68 353.544 1749.31 350.912 1753.72 350.912C1758.43 350.912 1761.3 353.988 1761.27 357.543C1761.3 360.346 1759.66 362.431 1757.07 363.148V363.319C1760.28 363.832 1762.26 366.122 1762.23 369.267C1762.26 373.334 1758.54 376.342 1753.61 376.342ZM1775.52 350.092L1767.53 379.726H1764.86L1772.82 350.092H1775.52ZM1786.46 376.342C1780.96 376.342 1777.81 371.728 1777.81 363.627C1777.81 355.595 1781.03 350.912 1786.46 350.912C1791.9 350.912 1795.11 355.595 1795.11 363.627C1795.11 371.728 1791.93 376.342 1786.46 376.342ZM1786.46 373.607C1790.02 373.607 1792.1 370.019 1792.1 363.627C1792.1 357.235 1790.02 353.578 1786.46 353.578C1782.91 353.578 1780.79 357.235 1780.79 363.627C1780.79 370.019 1782.87 373.607 1786.46 373.607ZM1807.82 376.342C1803.52 376.273 1798.8 373.744 1798.8 364.584C1798.8 355.834 1802.39 350.912 1808.2 350.912C1812.54 350.912 1815.58 353.578 1816.23 357.475H1813.19C1812.61 355.287 1810.97 353.646 1808.2 353.646C1804.13 353.646 1801.7 357.133 1801.7 363.08H1802.01C1803.45 361.029 1805.7 359.799 1808.37 359.799C1812.78 359.799 1816.44 363.217 1816.44 368.002C1816.44 372.65 1813.02 376.376 1807.82 376.342ZM1807.82 373.642C1811.04 373.642 1813.43 371.112 1813.46 368.036C1813.43 364.994 1811.14 362.499 1807.89 362.499C1804.64 362.499 1802.15 365.131 1802.11 368.07C1802.11 370.976 1804.51 373.642 1807.82 373.642ZM1830.24 366.566C1830.28 360.106 1832.02 354.74 1835.17 350.194H1837.76C1835.44 353.578 1833.29 360.482 1833.29 366.566C1833.29 372.65 1835.44 379.589 1837.76 382.973H1835.17C1832.02 378.393 1830.28 373.026 1830.24 366.566ZM1864.46 349.682V359.936H1855.47V363.832H1867.98V366.02H1840.29V363.832H1852.8V359.936H1843.88V349.682H1864.46ZM1846.51 351.835V357.782H1861.79V351.835H1846.51ZM1864.56 369.198V378.769H1861.86V371.352H1843.37V369.198H1864.56ZM1878.13 366.566C1878.1 373.026 1876.35 378.393 1873.21 382.973H1870.61C1872.94 379.589 1875.09 372.65 1875.09 366.566C1875.09 360.482 1872.94 353.578 1870.61 350.194H1873.21C1876.35 354.74 1878.1 360.106 1878.13 366.566Z" fill="black"/>
<path d="M1208.77 376.342C1203.26 376.342 1200.12 371.728 1200.12 363.627C1200.12 355.595 1203.33 350.912 1208.77 350.912C1214.2 350.912 1217.41 355.595 1217.41 363.627C1217.41 371.728 1214.23 376.342 1208.77 376.342ZM1208.77 373.607C1212.32 373.607 1214.4 370.019 1214.4 363.627C1214.4 357.235 1212.32 353.578 1208.77 353.578C1205.21 353.578 1203.09 357.235 1203.09 363.627C1203.09 370.019 1205.18 373.607 1208.77 373.607ZM1221.51 376L1221.48 373.744L1229.92 364.857C1232.86 361.747 1234.26 360.072 1234.26 357.782C1234.26 355.253 1232.11 353.578 1229.34 353.578C1226.4 353.578 1224.52 355.458 1224.52 358.227H1221.62C1221.58 353.852 1224.97 350.912 1229.44 350.912C1233.92 350.912 1237.13 353.92 1237.13 357.782C1237.13 360.551 1235.84 362.704 1231.46 367.216L1225.79 373.061V373.266H1237.58V376H1221.51ZM1250.91 350.092L1242.91 379.726H1240.24L1248.21 350.092H1250.91ZM1253.75 376L1253.71 373.744L1262.15 364.857C1265.09 361.747 1266.49 360.072 1266.49 357.782C1266.49 355.253 1264.34 353.578 1261.57 353.578C1258.63 353.578 1256.75 355.458 1256.75 358.227H1253.85C1253.81 353.852 1257.2 350.912 1261.68 350.912C1266.15 350.912 1269.37 353.92 1269.37 357.782C1269.37 360.551 1268.07 362.704 1263.69 367.216L1258.02 373.061V373.266H1269.81V376H1253.75ZM1282.83 376.342C1277.91 376.342 1274.39 373.71 1274.22 369.779H1277.33C1277.5 372.138 1279.86 373.607 1282.8 373.607C1286.05 373.607 1288.44 371.83 1288.44 369.267C1288.44 366.566 1286.28 364.652 1282.42 364.652H1280.41V361.952H1282.42C1285.43 361.952 1287.52 360.277 1287.52 357.714C1287.52 355.253 1285.7 353.578 1282.9 353.578C1280.27 353.578 1277.84 355.048 1277.71 357.475H1274.73C1274.9 353.544 1278.53 350.912 1282.94 350.912C1287.65 350.912 1290.52 353.988 1290.49 357.543C1290.52 360.346 1288.88 362.431 1286.28 363.148V363.319C1289.5 363.832 1291.48 366.122 1291.45 369.267C1291.48 373.334 1287.75 376.342 1282.83 376.342ZM1305.46 366.566C1305.49 360.106 1307.24 354.74 1310.38 350.194H1312.98C1310.65 353.578 1308.5 360.482 1308.5 366.566C1308.5 372.65 1310.65 379.589 1312.98 382.973H1310.38C1307.24 378.393 1305.49 373.026 1305.46 366.566ZM1324.12 349.511C1328.67 349.545 1331.98 352.279 1331.98 356.244C1331.98 360.209 1328.67 362.943 1324.12 362.943C1319.51 362.943 1316.23 360.209 1316.23 356.244C1316.23 352.279 1319.51 349.545 1324.12 349.511ZM1324.12 351.767C1321.08 351.767 1318.82 353.612 1318.86 356.244C1318.82 358.91 1321.08 360.756 1324.12 360.756C1327.13 360.756 1329.39 358.91 1329.39 356.244C1329.39 353.612 1327.13 351.767 1324.12 351.767ZM1340.6 348.383V364.003H1337.93V348.383H1340.6ZM1340.6 365.473V372.787H1323.54V376.205H1341.69V378.358H1320.91V370.771H1337.93V367.626H1320.84V365.473H1340.6ZM1353.35 366.566C1353.31 373.026 1351.57 378.393 1348.42 382.973H1345.83C1348.15 379.589 1350.3 372.65 1350.3 366.566C1350.3 360.482 1348.15 353.578 1345.83 350.194H1348.42C1351.57 354.74 1353.31 360.106 1353.35 366.566Z" fill="black"/>
<path d="M586.589 376.342C581.086 376.342 577.941 371.728 577.941 363.627C577.941 355.595 581.154 350.912 586.589 350.912C592.023 350.912 595.236 355.595 595.236 363.627C595.236 371.728 592.057 376.342 586.589 376.342ZM586.589 373.607C590.143 373.607 592.228 370.019 592.228 363.627C592.228 357.235 590.143 353.578 586.589 353.578C583.034 353.578 580.915 357.235 580.915 363.627C580.915 370.019 583 373.607 586.589 373.607ZM599.338 376L599.304 373.744L607.746 364.857C610.685 361.747 612.087 360.072 612.087 357.782C612.087 355.253 609.933 353.578 607.165 353.578C604.225 353.578 602.346 355.458 602.346 358.227H599.44C599.406 353.852 602.79 350.912 607.267 350.912C611.745 350.912 614.958 353.92 614.958 357.782C614.958 360.551 613.659 362.704 609.284 367.216L603.61 373.061V373.266H615.402V376H599.338ZM628.732 350.092L620.734 379.726H618.068L626.032 350.092H628.732ZM631.569 376L631.535 373.744L639.977 364.857C642.917 361.747 644.318 360.072 644.318 357.782C644.318 355.253 642.165 353.578 639.396 353.578C636.457 353.578 634.577 355.458 634.577 358.227H631.672C631.637 353.852 635.021 350.912 639.499 350.912C643.976 350.912 647.189 353.92 647.189 357.782C647.189 360.551 645.89 362.704 641.515 367.216L635.842 373.061V373.266H647.634V376H631.569ZM660.861 351.254V376H657.751V354.467H657.614L651.598 358.466V355.355L657.751 351.254H660.861ZM677.028 366.566C677.062 360.106 678.805 354.74 681.95 350.194H684.548C682.223 353.578 680.07 360.482 680.07 366.566C680.07 372.65 682.223 379.589 684.548 382.973H681.95C678.805 378.393 677.062 373.026 677.028 366.566ZM711.242 350.023V352.279C711.242 354.638 711.242 357.406 710.456 361.2H714.899V363.422H687.077V361.2H707.756C708.576 357.389 708.576 354.638 708.576 352.279V352.245H690.597V350.023H711.242ZM711.379 367.626V378.358H690.495V367.626H711.379ZM693.161 369.745V376.171H708.713V369.745H693.161ZM724.914 366.566C724.88 373.026 723.137 378.393 719.992 382.973H717.394C719.719 379.589 721.872 372.65 721.872 366.566C721.872 360.482 719.719 353.578 717.394 350.194H719.992C723.137 354.74 724.88 360.106 724.914 366.566ZM740.124 363.251C741.218 361.986 742.585 361.303 744.089 361.303C746.686 361.303 749.045 363.285 751.54 363.285C753.078 363.285 754.411 362.533 755.436 361.132V363.969C754.308 365.268 752.975 365.917 751.471 365.917C748.874 365.917 746.515 363.935 743.986 363.935C742.482 363.935 741.149 364.687 740.124 366.088V363.251ZM777.961 376.342C772.458 376.342 769.313 371.728 769.313 363.627C769.313 355.595 772.526 350.912 777.961 350.912C783.395 350.912 786.608 355.595 786.608 363.627C786.608 371.728 783.429 376.342 777.961 376.342ZM777.961 373.607C781.515 373.607 783.6 370.019 783.6 363.627C783.6 357.235 781.515 353.578 777.961 353.578C774.406 353.578 772.287 357.235 772.287 363.627C772.287 370.019 774.372 373.607 777.961 373.607ZM790.71 376L790.676 373.744L799.118 364.857C802.057 361.747 803.459 360.072 803.459 357.782C803.459 355.253 801.305 353.578 798.537 353.578C795.597 353.578 793.718 355.458 793.718 358.227H790.812C790.778 353.852 794.162 350.912 798.639 350.912C803.117 350.912 806.33 353.92 806.33 357.782C806.33 360.551 805.031 362.704 800.656 367.216L794.982 373.061V373.266H806.774V376H790.71ZM820.104 350.092L812.106 379.726H809.44L817.404 350.092H820.104ZM822.941 376L822.907 373.744L831.349 364.857C834.289 361.747 835.69 360.072 835.69 357.782C835.69 355.253 833.537 353.578 830.768 353.578C827.829 353.578 825.949 355.458 825.949 358.227H823.044C823.01 353.852 826.393 350.912 830.871 350.912C835.348 350.912 838.561 353.92 838.561 357.782C838.561 360.551 837.262 362.704 832.887 367.216L827.214 373.061V373.266H839.006V376H822.941ZM843.483 376L843.449 373.744L851.891 364.857C854.831 361.747 856.232 360.072 856.232 357.782C856.232 355.253 854.079 353.578 851.31 353.578C848.371 353.578 846.491 355.458 846.491 358.227H843.586C843.552 353.852 846.935 350.912 851.413 350.912C855.89 350.912 859.103 353.92 859.103 357.782C859.103 360.551 857.805 362.704 853.43 367.216L847.756 373.061V373.266H859.548V376H843.483ZM873.596 366.566C873.63 360.106 875.373 354.74 878.517 350.194H881.115C878.791 353.578 876.638 360.482 876.638 366.566C876.638 372.65 878.791 379.589 881.115 382.973H878.517C875.373 378.393 873.63 373.026 873.596 366.566ZM908.254 364.208V366.396H898.82V372.753H911.467V374.975H883.644V372.753H896.154V366.396H887.233V350.878H907.912V353.1H889.968V357.44H907.263V359.628H889.968V364.208H908.254ZM921.481 366.566C921.447 373.026 919.704 378.393 916.559 382.973H913.962C916.286 379.589 918.439 372.65 918.439 366.566C918.439 360.482 916.286 353.578 913.962 350.194H916.559C919.704 354.74 921.447 360.106 921.481 366.566Z" fill="black"/>
<path d="M83.8768 376.342C78.3738 376.342 75.2293 371.728 75.2293 363.627C75.2293 355.595 78.4422 350.912 83.8768 350.912C89.3113 350.912 92.5242 355.595 92.5242 363.627C92.5242 371.728 89.3455 376.342 83.8768 376.342ZM83.8768 373.607C87.4314 373.607 89.5164 370.019 89.5164 363.627C89.5164 357.235 87.4314 353.578 83.8768 353.578C80.3221 353.578 78.2029 357.235 78.2029 363.627C78.2029 370.019 80.2879 373.607 83.8768 373.607ZM96.6258 376L96.5916 373.744L105.034 364.857C107.973 361.747 109.375 360.072 109.375 357.782C109.375 355.253 107.221 353.578 104.453 353.578C101.513 353.578 99.6336 355.458 99.6336 358.227H96.7283C96.6941 353.852 100.078 350.912 104.555 350.912C109.033 350.912 112.246 353.92 112.246 357.782C112.246 360.551 110.947 362.704 106.572 367.216L100.898 373.061V373.266H112.69V376H96.6258ZM126.02 350.092L118.022 379.726H115.356L123.32 350.092H126.02ZM136.958 376.342C131.455 376.342 128.31 371.728 128.31 363.627C128.31 355.595 131.523 350.912 136.958 350.912C142.392 350.912 145.605 355.595 145.605 363.627C145.605 371.728 142.427 376.342 136.958 376.342ZM136.958 373.607C140.512 373.607 142.597 370.019 142.597 363.627C142.597 357.235 140.512 353.578 136.958 353.578C133.403 353.578 131.284 357.235 131.284 363.627C131.284 370.019 133.369 373.607 136.958 373.607ZM158.252 376.342C153.33 376.342 149.809 373.71 149.638 369.779H152.749C152.92 372.138 155.278 373.607 158.218 373.607C161.465 373.607 163.857 371.83 163.857 369.267C163.857 366.566 161.704 364.652 157.842 364.652H155.825V361.952H157.842C160.849 361.952 162.934 360.277 162.934 357.714C162.934 355.253 161.123 353.578 158.32 353.578C155.688 353.578 153.262 355.048 153.125 357.475H150.151C150.322 353.544 153.945 350.912 158.354 350.912C163.071 350.912 165.942 353.988 165.908 357.543C165.942 360.346 164.302 362.431 161.704 363.148V363.319C164.917 363.832 166.899 366.122 166.865 369.267C166.899 373.334 163.174 376.342 158.252 376.342ZM180.879 366.566C180.913 360.106 182.656 354.74 185.801 350.194H188.398C186.074 353.578 183.921 360.482 183.921 366.566C183.921 372.65 186.074 379.589 188.398 382.973H185.801C182.656 378.393 180.913 373.026 180.879 366.566ZM215.981 348.417V366.327H213.281V364.652H207.129V362.875H213.281V348.417H215.981ZM190.825 359.867C196.704 359.901 204.223 359.833 210.786 359.115L210.957 360.858C207.983 361.286 204.89 361.542 201.865 361.679V366.43H199.233V361.781C196.362 361.884 193.611 361.901 191.133 361.884L190.825 359.867ZM215.981 367.421V373.71H198.242V376.444H216.972V378.427H195.61V371.83H213.315V369.369H195.473V367.421H215.981ZM200.737 348.998C205.249 348.998 208.257 350.775 208.291 353.578C208.257 356.415 205.249 358.124 200.737 358.124C196.157 358.124 193.183 356.415 193.183 353.578C193.183 350.775 196.157 348.998 200.737 348.998ZM200.737 350.878C197.661 350.878 195.679 351.938 195.713 353.578C195.679 355.185 197.661 356.278 200.737 356.278C203.779 356.278 205.762 355.185 205.762 353.578C205.762 351.938 203.779 350.878 200.737 350.878ZM228.764 366.566C228.73 373.026 226.987 378.393 223.843 382.973H221.245C223.569 379.589 225.722 372.65 225.722 366.566C225.722 360.482 223.569 353.578 221.245 350.194H223.843C226.987 354.74 228.73 360.106 228.764 366.566ZM243.974 363.251C245.068 361.986 246.435 361.303 247.939 361.303C250.537 361.303 252.895 363.285 255.39 363.285C256.929 363.285 258.262 362.533 259.287 361.132V363.969C258.159 365.268 256.826 365.917 255.322 365.917C252.724 365.917 250.366 363.935 247.837 363.935C246.333 363.935 245 364.687 243.974 366.088V363.251ZM281.811 376.342C276.308 376.342 273.164 371.728 273.164 363.627C273.164 355.595 276.377 350.912 281.811 350.912C287.246 350.912 290.459 355.595 290.459 363.627C290.459 371.728 287.28 376.342 281.811 376.342ZM281.811 373.607C285.366 373.607 287.451 370.019 287.451 363.627C287.451 357.235 285.366 353.578 281.811 353.578C278.257 353.578 276.137 357.235 276.137 363.627C276.137 370.019 278.222 373.607 281.811 373.607ZM294.56 376L294.526 373.744L302.969 364.857C305.908 361.747 307.309 360.072 307.309 357.782C307.309 355.253 305.156 353.578 302.387 353.578C299.448 353.578 297.568 355.458 297.568 358.227H294.663C294.629 353.852 298.012 350.912 302.49 350.912C306.968 350.912 310.18 353.92 310.18 357.782C310.18 360.551 308.882 362.704 304.507 367.216L298.833 373.061V373.266H310.625V376H294.56ZM323.955 350.092L315.957 379.726H313.291L321.255 350.092H323.955ZM335.542 351.254V376H332.431V354.467H332.295L326.279 358.466V355.355L332.431 351.254H335.542ZM341.523 370.941V368.412L352.666 351.254H356.46V368.241H359.912V370.941H356.46V376H353.52V370.941H341.523ZM344.839 368.241H353.52V355.15H353.213L344.839 368.036V368.241ZM373.55 366.566C373.584 360.106 375.327 354.74 378.471 350.194H381.069C378.745 353.578 376.592 360.482 376.592 366.566C376.592 372.65 378.745 379.589 381.069 382.973H378.471C375.327 378.393 373.584 373.026 373.55 366.566ZM407.763 350.023V352.279C407.763 354.638 407.763 357.406 406.977 361.2H411.421V363.422H383.598V361.2H404.277C405.097 357.389 405.097 354.638 405.097 352.279V352.245H387.119V350.023H407.763ZM407.9 367.626V378.358H387.016V367.626H407.9ZM389.682 369.745V376.171H405.234V369.745H389.682ZM421.435 366.566C421.401 373.026 419.658 378.393 416.513 382.973H413.916C416.24 379.589 418.393 372.65 418.393 366.566C418.393 360.482 416.24 353.578 413.916 350.194H416.513C419.658 354.74 421.401 360.106 421.435 366.566Z" fill="black"/>
<g clip-path="url(#clip0_38_5)">
<path d="M816.799 73.5956C816.799 68.3696 813.731 64.0638 807.871 63.1021C807.064 63.3705 806.206 63.5211 805.31 63.5211C804.415 63.5211 803.554 63.3705 802.747 63.1021C796.888 64.0638 793.822 68.3696 793.822 73.5956H805.31H816.799Z" fill="white"/>
<path d="M805.312 61.658C808.784 61.658 811.598 58.8435 811.598 55.3714V53.5872C811.598 50.1136 808.784 47.2991 805.312 47.2991C801.838 47.2991 799.023 50.1136 799.023 53.5872V55.3714C799.023 58.8435 801.838 61.658 805.312 61.658Z" fill="white"/>
<path d="M843.317 73.5956C843.317 68.3696 840.25 64.0638 834.391 63.1021C833.584 63.3705 832.724 63.5211 831.829 63.5211C830.933 63.5211 830.073 63.3705 829.267 63.1021C823.408 64.0638 820.342 68.3696 820.342 73.5956H831.829H843.317Z" fill="white"/>
<path d="M831.829 61.658C835.301 61.658 838.117 58.8435 838.117 55.3714V53.5872C838.117 50.1136 835.301 47.2991 831.829 47.2991C828.357 47.2991 825.541 50.1136 825.541 53.5872V55.3714C825.541 58.8435 828.357 61.658 831.829 61.658Z" fill="white"/>
<path d="M867.01 115.162L851.603 79.3755C851.276 78.6105 850.524 78.1152 849.691 78.1152H787.812C786.98 78.1152 786.227 78.6105 785.899 79.374L770.492 115.162C770.215 115.805 770.28 116.546 770.666 117.132C771.05 117.716 771.705 118.069 772.405 118.069H801.437C803.916 113.879 808.188 110.839 814.185 109.856C815.565 110.314 817.038 110.572 818.571 110.572C820.104 110.572 821.577 110.314 822.957 109.856C828.954 110.839 833.226 113.879 835.704 118.069H865.095C865.797 118.069 866.45 117.716 866.836 117.132C867.222 116.546 867.287 115.805 867.01 115.162ZM829.333 96.6224C829.333 102.566 824.516 107.385 818.571 107.385C812.626 107.385 807.809 102.566 807.809 96.6224V93.568C807.809 87.6243 812.626 82.806 818.571 82.806C824.516 82.806 829.333 87.6243 829.333 93.568V96.6224Z" fill="white"/>
</g>
<g clip-path="url(#clip1_38_5)">
<path d="M1360.49 32.8311H1358.92L1280.58 55.811C1279.48 56.1557 1278.53 56.855 1277.86 57.7998C1277.2 58.7446 1276.87 59.8817 1276.93 61.0337V84.5359C1276.95 85.6701 1277.31 86.7714 1277.96 87.7008C1278.61 88.6303 1279.52 89.3463 1280.58 89.7586L1292.85 93.1533L1297.03 120.05C1297.23 121.92 1298.11 123.651 1299.51 124.906C1300.91 126.16 1302.73 126.85 1304.61 126.84H1316.36C1318.54 126.754 1320.6 125.816 1322.1 124.228C1322.82 123.268 1323.33 122.168 1323.6 120.999C1323.87 119.83 1323.89 118.617 1323.67 117.439L1320.8 101.51L1358.92 112.738H1360.49C1361.87 112.738 1363.2 112.188 1364.18 111.209C1365.16 110.229 1365.71 108.901 1365.71 107.516V38.0538C1365.71 36.6686 1365.16 35.3402 1364.18 34.3608C1363.2 33.3813 1361.87 32.8311 1360.49 32.8311ZM1312.96 116.394H1306.96L1303.82 96.5481L1309.31 98.1149L1312.96 116.394ZM1355.27 100.726L1287.37 80.6188V64.9507L1355.27 45.1044V100.726Z" fill="white"/>
<path d="M1376.16 57.1167C1376.98 57.1936 1377.8 57.0109 1378.51 56.5944L1388.95 51.3717C1390.2 50.7484 1391.15 49.6554 1391.59 48.3331C1392.03 47.0109 1391.93 45.5677 1391.3 44.321C1390.68 43.0744 1389.59 42.1265 1388.26 41.6857C1386.94 41.245 1385.5 41.3475 1384.25 41.9708L1373.81 47.1935C1373.19 47.4988 1372.63 47.9243 1372.18 48.4451C1371.72 48.966 1371.38 49.5719 1371.16 50.2278C1370.94 50.8837 1370.85 51.5764 1370.9 52.2659C1370.96 52.9553 1371.14 53.6278 1371.46 54.2442C1371.92 55.0951 1372.59 55.809 1373.42 56.3135C1374.25 56.818 1375.19 57.0951 1376.16 57.1167Z" fill="white"/>
<path d="M1388.95 94.459L1378.51 89.2363C1377.28 88.6493 1375.88 88.538 1374.58 88.9239C1373.28 89.3099 1372.16 90.1657 1371.46 91.3254C1371.14 91.9418 1370.96 92.6143 1370.9 93.3037C1370.85 93.9932 1370.94 94.6859 1371.16 95.3418C1371.38 95.9977 1371.72 96.6036 1372.18 97.1245C1372.63 97.6453 1373.19 98.0708 1373.81 98.3761L1384.25 103.599C1384.96 104.015 1385.78 104.198 1386.6 104.121C1387.57 104.099 1388.51 103.822 1389.34 103.318C1390.17 102.813 1390.84 102.099 1391.3 101.249C1391.61 100.652 1391.79 99.9982 1391.84 99.3281C1391.89 98.658 1391.8 97.9851 1391.58 97.3503C1391.36 96.7154 1391.02 96.1318 1390.56 95.6348C1390.11 95.1378 1389.56 94.7378 1388.95 94.459Z" fill="white"/>
<path d="M1376.16 78.0074H1386.6C1387.99 78.0074 1389.32 77.4572 1390.29 76.4777C1391.27 75.4983 1391.82 74.1699 1391.82 72.7847C1391.82 71.3996 1391.27 70.0712 1390.29 69.0917C1389.32 68.1123 1387.99 67.562 1386.6 67.562H1376.16C1374.77 67.562 1373.44 68.1123 1372.46 69.0917C1371.48 70.0712 1370.93 71.3996 1370.93 72.7847C1370.93 74.1699 1371.48 75.4983 1372.46 76.4777C1373.44 77.4572 1374.77 78.0074 1376.16 78.0074Z" fill="white"/>
</g>
<path fill-rule="evenodd" clip-rule="evenodd" d="M316.556 28.6919C317.402 27.8461 318.549 27.3708 319.746 27.3708H355.83C363.303 27.3708 369.361 33.4292 369.361 40.9024V113.071C369.361 120.544 363.303 126.602 355.83 126.602H301.703C294.23 126.602 288.172 120.544 288.172 113.071V58.9445C288.172 57.7482 288.647 56.601 289.493 55.7551L316.556 28.6919ZM355.83 36.3919H324.256V58.9445C324.256 61.4356 322.237 63.455 319.746 63.455H297.193V113.071C297.193 115.562 299.212 117.581 301.703 117.581H355.83C358.321 117.581 360.34 115.562 360.34 113.071V40.9024C360.34 38.4113 358.321 36.3919 355.83 36.3919ZM303.572 54.434H315.235V42.7707L303.572 54.434ZM306.214 81.4971C306.214 79.0059 308.233 76.9866 310.724 76.9866H346.809C349.3 76.9866 351.319 79.0059 351.319 81.4971C351.319 83.9883 349.3 86.0076 346.809 86.0076H310.724C308.233 86.0076 306.214 83.9883 306.214 81.4971ZM306.214 99.5392C306.214 97.048 308.233 95.0287 310.724 95.0287H346.809C349.3 95.0287 351.319 97.048 351.319 99.5392C351.319 102.03 349.3 104.05 346.809 104.05H310.724C308.233 104.05 306.214 102.03 306.214 99.5392Z" fill="#222222"/>
<path d="M1893.46 63.7799H1791.68C1792.92 55.2906 1799.55 48.5105 1807.97 47.0462V52.55C1807.97 56.8403 1811.45 60.3272 1815.75 60.3272C1820.05 60.3272 1823.53 56.846 1823.53 52.55V46.7329H1861.62V52.55C1861.62 56.8403 1865.1 60.3272 1869.4 60.3272C1873.69 60.3272 1877.17 56.846 1877.17 52.55V47.0462C1885.6 48.5105 1892.22 55.2906 1893.46 63.7799Z" fill="white"/>
<path d="M1893.7 70.1211V105.229C1893.7 106.255 1893.64 107.252 1893.45 108.215C1892.05 117.855 1883.72 125.256 1873.68 125.256H1811.45C1801.4 125.256 1793.07 117.855 1791.67 108.215C1791.48 107.252 1791.42 106.255 1791.42 105.229V70.1211H1893.7Z" fill="white"/>
<path d="M1874.05 32.5176V52.5443C1874.05 55.0911 1871.96 57.2105 1869.38 57.2105C1866.83 57.2105 1864.71 55.0968 1864.71 52.5443V36.5913H1820.4V52.5443C1820.4 55.0911 1818.31 57.2105 1815.73 57.2105C1813.18 57.2105 1811.07 55.0968 1811.07 52.5443V32.5176C1811.07 29.9708 1813.18 27.8513 1815.73 27.8513H1869.37C1871.96 27.857 1874.05 29.9708 1874.05 32.5176Z" fill="white"/>
<defs>
<linearGradient id="paint0_linear_38_5" x1="0.601562" y1="162.481" x2="597.737" y2="162.481" gradientUnits="userSpaceOnUse">
<stop stop-color="#F4F4F0"/>
<stop offset="1" stop-color="#E0E0DC"/>
</linearGradient>
<linearGradient id="paint1_linear_38_5" x1="498.594" y1="162.481" x2="1095.77" y2="162.481" gradientUnits="userSpaceOnUse">
<stop stop-color="#C1C1C1"/>
<stop offset="1" stop-color="#898787"/>
</linearGradient>
<linearGradient id="paint2_linear_38_5" x1="1000.02" y1="162.481" x2="1597.2" y2="162.481" gradientUnits="userSpaceOnUse">
<stop stop-color="#826546" stop-opacity="0.64"/>
<stop offset="1" stop-color="#826546"/>
</linearGradient>
<linearGradient id="paint3_linear_38_5" x1="1524.88" y1="162.481" x2="2122.06" y2="162.481" gradientUnits="userSpaceOnUse">
<stop stop-color="#15273D" stop-opacity="0.76"/>
<stop offset="1" stop-color="#15273D"/>
</linearGradient>
<clipPath id="clip0_38_5">
<rect width="96.8575" height="96.8575" fill="white" transform="translate(770.322 34.2554)"/>
</clipPath>
<clipPath id="clip1_38_5">
<rect width="125.345" height="125.345" fill="white" transform="translate(1271.7 17.1628)"/>
</clipPath>
</defs>
</svg>
