<svg width="324" height="2122" viewBox="0 0 324 2122" fill="none" xmlns="http://www.w3.org/2000/svg">
<path d="M161.632 597.138L161.592 597.092L-0.000293393 428.594L-0.000274658 -1.41286e-05L161.592 168.458L161.632 168.504L323.225 0L323.225 428.594L161.632 597.138Z" fill="url(#paint0_linear_46_4)"/>
<path d="M161.632 1095.17L161.592 1095.13L-0.000293393 926.584L-0.000274658 497.99L161.592 666.448L161.632 666.494L323.225 497.99L323.225 926.584L161.632 1095.17Z" fill="url(#paint1_linear_46_4)"/>
<path d="M161.632 1596.6L161.592 1596.55L-0.000293394 1428.05L-0.000274658 999.416L161.592 1167.87L161.632 1167.92L323.225 999.416L323.225 1428.05L161.632 1596.6Z" fill="url(#paint2_linear_46_4)"/>
<path opacity="0.3" d="M161.592 597.092L-0.000720639 428.594L-0.000701904 -7.06343e-06L161.592 168.458L161.592 597.092Z" fill="white"/>
<path opacity="0.3" d="M161.592 1095.13L-0.000720639 926.584L-0.000701904 497.99L161.592 666.448L161.592 1095.13Z" fill="white"/>
<path opacity="0.3" d="M161.592 1596.55L-0.00072064 1428.05L-0.000701904 999.416L161.592 1167.87L161.592 1596.55Z" fill="white"/>
<path d="M161.632 2121.46L161.592 2121.42L-0.000293394 1952.91L-0.000274658 1524.28L161.592 1692.74L161.632 1692.78L323.225 1524.28L323.225 1952.92L161.632 2121.46Z" fill="url(#paint3_linear_46_4)"/>
<path opacity="0.3" d="M161.592 2121.42L-0.00072064 1952.91L-0.000701904 1524.28L161.592 1692.74L161.592 2121.42Z" fill="white"/>
<g clip-path="url(#clip0_46_4)">
<path d="M158.78 819.832C158.78 812.548 154.505 806.547 146.337 805.207C145.213 805.581 144.017 805.791 142.768 805.791C141.52 805.791 140.32 805.581 139.195 805.207C131.029 806.547 126.756 812.548 126.756 819.832H142.768H158.78Z" fill="white"/>
<path d="M142.768 803.194C147.608 803.194 151.531 799.271 151.531 794.432V791.945C151.531 787.103 147.608 783.18 142.768 783.18C137.927 783.18 134.004 787.103 134.004 791.945V794.432C134.004 799.271 137.927 803.194 142.768 803.194Z" fill="white"/>
<path d="M195.74 819.832C195.74 812.548 191.465 806.547 183.298 805.207C182.174 805.581 180.975 805.791 179.727 805.791C178.479 805.791 177.28 805.581 176.156 805.207C167.99 806.547 163.717 812.548 163.717 819.832H179.727H195.74Z" fill="white"/>
<path d="M179.727 803.194C184.567 803.194 188.492 799.271 188.492 794.432V791.945C188.492 787.103 184.567 783.18 179.727 783.18C174.888 783.18 170.963 787.103 170.963 791.945V794.432C170.963 799.271 174.888 803.194 179.727 803.194Z" fill="white"/>
<path d="M228.763 877.768L207.289 827.889C206.833 826.822 205.785 826.132 204.624 826.132H118.377C117.217 826.132 116.169 826.822 115.711 827.887L94.2367 877.768C93.8507 878.664 93.9406 879.697 94.4787 880.513C95.0148 881.327 95.9271 881.819 96.9035 881.819H137.368C140.824 875.98 146.777 871.743 155.135 870.372C157.06 871.01 159.112 871.371 161.249 871.371C163.386 871.371 165.438 871.01 167.363 870.372C175.721 871.743 181.675 875.98 185.13 881.819H226.095C227.073 881.819 227.983 881.327 228.521 880.513C229.059 879.697 229.149 878.665 228.763 877.768ZM176.249 851.927C176.249 860.211 169.535 866.928 161.249 866.928C152.962 866.928 146.249 860.212 146.249 851.927V847.67C146.249 839.386 152.962 832.67 161.249 832.67C169.535 832.67 176.249 839.386 176.249 847.67V851.927Z" fill="white"/>
</g>
<g clip-path="url(#clip1_46_4)">
<path d="M193.791 1279.38H191.854L94.9788 1307.79C93.6179 1308.22 92.4364 1309.08 91.6186 1310.25C90.8008 1311.42 90.3927 1312.83 90.4579 1314.25V1343.31C90.4896 1344.72 90.9358 1346.08 91.7403 1347.23C92.5449 1348.38 93.6717 1349.26 94.9788 1349.77L110.156 1353.97L115.323 1387.23C115.563 1389.54 116.655 1391.68 118.386 1393.23C120.116 1394.78 122.363 1395.64 124.687 1395.62H139.218C141.917 1395.52 144.468 1394.36 146.323 1392.4C147.212 1391.21 147.844 1389.85 148.178 1388.4C148.511 1386.96 148.539 1385.46 148.26 1384L144.708 1364.3L191.854 1378.19H193.791C195.504 1378.19 197.147 1377.51 198.358 1376.3C199.569 1375.08 200.25 1373.44 200.25 1371.73V1285.83C200.25 1284.12 199.569 1282.48 198.358 1281.27C197.147 1280.06 195.504 1279.38 193.791 1279.38ZM135.02 1382.71H127.593L123.718 1358.17L130.5 1360.1L135.02 1382.71ZM187.333 1363.33L103.375 1338.47V1319.09L187.333 1294.55V1363.33Z" fill="white"/>
<path d="M213.167 1309.41C214.179 1309.5 215.196 1309.28 216.073 1308.76L228.99 1302.3C230.531 1301.53 231.704 1300.18 232.249 1298.54C232.794 1296.91 232.667 1295.12 231.896 1293.58C231.125 1292.04 229.774 1290.87 228.138 1290.32C226.503 1289.78 224.719 1289.91 223.177 1290.68L210.261 1297.14C209.494 1297.51 208.809 1298.04 208.247 1298.68C207.685 1299.33 207.256 1300.08 206.986 1300.89C206.715 1301.7 206.609 1302.56 206.672 1303.41C206.735 1304.26 206.967 1305.09 207.354 1305.85C207.924 1306.91 208.761 1307.79 209.782 1308.41C210.803 1309.04 211.971 1309.38 213.167 1309.41Z" fill="white"/>
<path d="M228.99 1355.58L216.073 1349.12C214.558 1348.4 212.827 1348.26 211.216 1348.74C209.606 1349.22 208.229 1350.27 207.354 1351.71C206.967 1352.47 206.735 1353.3 206.672 1354.15C206.609 1355.01 206.715 1355.86 206.986 1356.67C207.256 1357.49 207.685 1358.24 208.247 1358.88C208.809 1359.52 209.494 1360.05 210.261 1360.43L223.177 1366.89C224.054 1367.4 225.071 1367.63 226.083 1367.53C227.28 1367.5 228.447 1367.16 229.468 1366.54C230.489 1365.91 231.327 1365.03 231.896 1363.98C232.277 1363.24 232.504 1362.43 232.563 1361.6C232.623 1360.78 232.513 1359.94 232.242 1359.16C231.97 1358.37 231.542 1357.65 230.983 1357.04C230.424 1356.42 229.746 1355.93 228.99 1355.58Z" fill="white"/>
<path d="M213.165 1335.24H226.082C227.795 1335.24 229.438 1334.56 230.649 1333.35C231.86 1332.14 232.54 1330.49 232.54 1328.78C232.54 1327.07 231.86 1325.43 230.649 1324.21C229.438 1323 227.795 1322.32 226.082 1322.32H213.165C211.453 1322.32 209.81 1323 208.599 1324.21C207.387 1325.43 206.707 1327.07 206.707 1328.78C206.707 1330.49 207.387 1332.14 208.599 1333.35C209.81 1334.56 211.453 1335.24 213.165 1335.24Z" fill="white"/>
</g>
<path fill-rule="evenodd" clip-rule="evenodd" d="M142.37 292.704C143.488 291.586 145.003 290.958 146.583 290.958H194.25C204.122 290.958 212.125 298.961 212.125 308.833V404.167C212.125 414.039 204.122 422.042 194.25 422.042H122.75C112.878 422.042 104.875 414.039 104.875 404.167V332.667C104.875 331.087 105.503 329.571 106.62 328.454L142.37 292.704ZM194.25 302.875H152.542V332.667C152.542 335.957 149.874 338.625 146.583 338.625H116.792V404.167C116.792 407.458 119.459 410.125 122.75 410.125H194.25C197.541 410.125 200.208 407.458 200.208 404.167V308.833C200.208 305.543 197.541 302.875 194.25 302.875ZM125.218 326.708H140.625V311.301L125.218 326.708ZM128.708 362.458C128.708 359.168 131.376 356.5 134.667 356.5H182.333C185.624 356.5 188.292 359.168 188.292 362.458C188.292 365.749 185.624 368.417 182.333 368.417H134.667C131.376 368.417 128.708 365.749 128.708 362.458ZM128.708 386.292C128.708 383.001 131.376 380.333 134.667 380.333H182.333C185.624 380.333 188.292 383.001 188.292 386.292C188.292 389.583 185.624 392.25 182.333 392.25H134.667C131.376 392.25 128.708 389.583 128.708 386.292Z" fill="#222222"/>
<path d="M233.524 1842.53H90.3613C92.1083 1830.59 101.428 1821.06 113.28 1819V1826.74C113.28 1832.77 118.176 1837.68 124.219 1837.68C130.261 1837.68 135.157 1832.78 135.157 1826.74V1818.56H188.736V1826.74C188.736 1832.77 193.632 1837.68 199.674 1837.68C205.709 1837.68 210.605 1832.78 210.605 1826.74V1819C222.457 1821.06 231.769 1830.59 233.524 1842.53Z" fill="white"/>
<path d="M233.859 1851.45V1900.83C233.859 1902.27 233.772 1903.68 233.507 1905.03C231.536 1918.59 219.82 1929 205.692 1929H118.168C104.04 1929 92.316 1918.59 90.3526 1905.03C90.0882 1903.68 90 1902.27 90 1900.83V1851.45H233.859Z" fill="white"/>
<path d="M206.209 1798.56V1826.73C206.209 1830.31 203.276 1833.29 199.646 1833.29C196.056 1833.29 193.083 1830.32 193.083 1826.73V1804.29H130.753V1826.73C130.753 1830.31 127.82 1833.29 124.19 1833.29C120.6 1833.29 117.627 1830.32 117.627 1826.73V1798.56C117.627 1794.98 120.6 1792 124.19 1792H199.638C203.276 1792.01 206.209 1794.98 206.209 1798.56Z" fill="white"/>
<defs>
<linearGradient id="paint0_linear_46_4" x1="161.612" y1="-7.06433e-06" x2="161.612" y2="597.136" gradientUnits="userSpaceOnUse">
<stop stop-color="#F4F4F0"/>
<stop offset="1" stop-color="#E0E0DC"/>
</linearGradient>
<linearGradient id="paint1_linear_46_4" x1="161.612" y1="497.992" x2="161.612" y2="1095.17" gradientUnits="userSpaceOnUse">
<stop stop-color="#C1C1C1"/>
<stop offset="1" stop-color="#898787"/>
</linearGradient>
<linearGradient id="paint2_linear_46_4" x1="161.612" y1="999.418" x2="161.612" y2="1596.6" gradientUnits="userSpaceOnUse">
<stop stop-color="#826546" stop-opacity="0.64"/>
<stop offset="1" stop-color="#826546"/>
</linearGradient>
<linearGradient id="paint3_linear_46_4" x1="161.612" y1="1524.28" x2="161.612" y2="2121.46" gradientUnits="userSpaceOnUse">
<stop stop-color="#15273D" stop-opacity="0.76"/>
<stop offset="1" stop-color="#15273D"/>
</linearGradient>
<clipPath id="clip0_46_4">
<rect width="135" height="135" fill="white" transform="translate(94 765)"/>
</clipPath>
<clipPath id="clip1_46_4">
<rect width="155" height="155" fill="white" transform="translate(84 1260)"/>
</clipPath>
</defs>
</svg>
