<svg width="324" height="598" viewBox="0 0 324 598" fill="none" xmlns="http://www.w3.org/2000/svg">
<path d="M161.632 597.458L161.592 597.418L-0.000293394 428.915L-0.000274658 0.280748L161.592 168.739L161.632 168.784L323.225 0.280762L323.225 428.915L161.632 597.458Z" fill="url(#paint0_linear_47_5)"/>
<path opacity="0.3" d="M161.592 597.418L-0.00072064 428.915L-0.000701904 0.280511L161.592 168.738L161.592 597.418Z" fill="white"/>
<path d="M233.524 318.534H90.3613C92.1083 306.593 101.428 297.057 113.28 294.998V302.739C113.28 308.773 118.176 313.677 124.219 313.677C130.261 313.677 135.157 308.781 135.157 302.739V294.557H188.736V302.739C188.736 308.773 193.632 313.677 199.674 313.677C205.709 313.677 210.605 308.781 210.605 302.739V294.998C222.457 297.057 231.769 306.593 233.524 318.534Z" fill="white"/>
<path d="M233.859 327.452V376.832C233.859 378.274 233.772 379.677 233.507 381.031C231.536 394.59 219.82 405 205.692 405H118.168C104.04 405 92.316 394.59 90.3526 381.031C90.0882 379.677 90 378.274 90 376.832V327.452H233.859Z" fill="white"/>
<path d="M206.209 274.563V302.731C206.209 306.313 203.276 309.294 199.646 309.294C196.056 309.294 193.083 306.321 193.083 302.731V280.293H130.753V302.731C130.753 306.313 127.82 309.294 124.19 309.294C120.6 309.294 117.627 306.321 117.627 302.731V274.563C117.627 270.981 120.6 268 124.19 268H199.638C203.276 268.008 206.209 270.981 206.209 274.563Z" fill="white"/>
<defs>
<linearGradient id="paint0_linear_47_5" x1="161.612" y1="0.282464" x2="161.612" y2="597.461" gradientUnits="userSpaceOnUse">
<stop stop-color="#15273D" stop-opacity="0.76"/>
<stop offset="1" stop-color="#15273D"/>
</linearGradient>
</defs>
</svg>
