<svg width="324" height="598" viewBox="0 0 324 598" fill="none" xmlns="http://www.w3.org/2000/svg">
<path d="M161.632 597.168L161.592 597.128L-0.000293393 428.584L-0.000274658 -0.0100239L161.592 168.448L161.632 168.494L323.225 -0.0100098L323.225 428.584L161.632 597.168Z" fill="url(#paint0_linear_47_3)"/>
<path opacity="0.3" d="M161.592 597.128L-0.000720639 428.584L-0.000701904 -0.0100168L161.592 168.448L161.592 597.128Z" fill="white"/>
<g clip-path="url(#clip0_47_3)">
<path d="M158.78 321.832C158.78 314.548 154.505 308.547 146.337 307.207C145.213 307.581 144.017 307.791 142.768 307.791C141.52 307.791 140.32 307.581 139.195 307.207C131.029 308.547 126.756 314.548 126.756 321.832H142.768H158.78Z" fill="white"/>
<path d="M142.768 305.194C147.608 305.194 151.531 301.271 151.531 296.432V293.945C151.531 289.103 147.608 285.18 142.768 285.18C137.927 285.18 134.004 289.103 134.004 293.945V296.432C134.004 301.271 137.927 305.194 142.768 305.194Z" fill="white"/>
<path d="M195.74 321.832C195.74 314.548 191.465 308.547 183.298 307.207C182.174 307.581 180.975 307.791 179.727 307.791C178.479 307.791 177.28 307.581 176.156 307.207C167.99 308.547 163.717 314.548 163.717 321.832H179.727H195.74Z" fill="white"/>
<path d="M179.727 305.194C184.567 305.194 188.492 301.271 188.492 296.432V293.945C188.492 289.103 184.567 285.18 179.727 285.18C174.888 285.18 170.963 289.103 170.963 293.945V296.432C170.963 301.271 174.888 305.194 179.727 305.194Z" fill="white"/>
<path d="M228.763 379.768L207.289 329.889C206.833 328.822 205.785 328.132 204.624 328.132H118.377C117.217 328.132 116.169 328.822 115.711 329.887L94.2367 379.768C93.8507 380.664 93.9406 381.697 94.4787 382.513C95.0148 383.327 95.9271 383.819 96.9035 383.819H137.368C140.824 377.98 146.777 373.743 155.135 372.372C157.06 373.01 159.112 373.371 161.249 373.371C163.386 373.371 165.438 373.01 167.363 372.372C175.721 373.743 181.675 377.98 185.13 383.819H226.095C227.073 383.819 227.983 383.327 228.521 382.513C229.059 381.697 229.149 380.665 228.763 379.768ZM176.249 353.927C176.249 362.211 169.535 368.928 161.249 368.928C152.962 368.928 146.249 362.212 146.249 353.927V349.67C146.249 341.386 152.962 334.67 161.249 334.67C169.535 334.67 176.249 341.386 176.249 349.67V353.927Z" fill="white"/>
</g>
<defs>
<linearGradient id="paint0_linear_47_3" x1="161.612" y1="-0.00773783" x2="161.612" y2="597.171" gradientUnits="userSpaceOnUse">
<stop stop-color="#C1C1C1"/>
<stop offset="1" stop-color="#898787"/>
</linearGradient>
<clipPath id="clip0_47_3">
<rect width="135" height="135" fill="white" transform="translate(94 267)"/>
</clipPath>
</defs>
</svg>
