<svg width="2123" height="410" viewBox="0 0 2123 410" fill="none" xmlns="http://www.w3.org/2000/svg">
<path d="M597.739 162.46L597.694 162.5L429.196 324.093H0.601562L169.06 162.5L169.105 162.46L0.601562 0.867676H429.196L597.739 162.46Z" fill="url(#paint0_linear_38_5)"/>
<path d="M1095.77 162.46L1095.73 162.5L927.186 324.093H498.592L667.05 162.5L667.095 162.46L498.592 0.867676H927.186L1095.77 162.46Z" fill="url(#paint1_linear_38_5)"/>
<path d="M1597.2 162.46L1597.16 162.5L1428.65 324.093H1000.02L1168.48 162.5L1168.52 162.46L1000.02 0.867676H1428.65L1597.2 162.46Z" fill="url(#paint2_linear_38_5)"/>
<path opacity="0.3" d="M597.694 162.5L429.196 324.092H0.601562L169.06 162.5H597.694Z" fill="white"/>
<path opacity="0.3" d="M1095.73 162.5L927.186 324.092H498.592L667.05 162.5H1095.73Z" fill="white"/>
<path opacity="0.3" d="M1597.16 162.5L1428.65 324.092H1000.02L1168.48 162.5H1597.16Z" fill="white"/>
<path d="M2122.06 162.46L2122.02 162.5L1953.52 324.093H1524.88L1693.34 162.5L1693.39 162.46L1524.88 0.867676H1953.52L2122.06 162.46Z" fill="url(#paint3_linear_38_5)"/>
<path opacity="0.3" d="M2122.02 162.5L1953.52 324.092H1524.88L1693.34 162.5H2122.02Z" fill="white"/>
<path d="M236.589 234.095C236.589 241.956 241.618 249.866 247.917 252.747L245.622 255.872C240.69 253.333 236.613 248.133 234.684 241.956C232.756 248.45 228.678 254.017 223.747 256.654L221.257 253.577C227.604 250.452 232.682 242.103 232.682 234.095V226.185H236.589V234.095ZM257.292 222.425V265.931H253.483V240.394H243.18V237.269H253.483V222.425H257.292ZM304.216 248.353V251.429H293.766V265.833H289.958V251.429H278.727V265.833H274.87V251.429H264.469V248.353H304.216ZM299.382 224.134V235.267H273.21V240.687H300.309V243.861H269.352V232.288H295.475V227.308H269.255V224.134H299.382ZM343.717 222.474V254.31H339.86V237.659H330.925V234.486H339.86V222.474H343.717ZM344.938 261.683V264.906H315.837V251.429H319.694V261.683H344.938ZM322.819 231.409C322.819 237.025 327.165 242.493 333.512 244.642L331.51 247.718C326.603 245.96 322.819 242.298 320.964 237.806C319.084 242.811 315.08 246.815 309.928 248.743L307.926 245.618C314.323 243.372 318.962 237.659 318.962 231.409V229.163H309.147V225.99H332.536V229.163H322.819V231.409ZM375.553 227.308V230.433H350.993V227.308H361.54V222.083H365.348V227.308H375.553ZM363.395 232.679C369.206 232.679 373.307 235.853 373.307 240.687C373.307 245.57 369.206 248.743 363.395 248.743C357.536 248.743 353.532 245.57 353.581 240.687C353.532 235.853 357.536 232.679 363.395 232.679ZM363.395 235.56C359.635 235.609 357.145 237.659 357.145 240.687C357.145 243.763 359.635 245.765 363.395 245.765C367.155 245.765 369.694 243.763 369.743 240.687C369.694 237.659 367.155 235.609 363.395 235.56ZM386.93 222.425V250.501H383.073V244.495H375.505V241.322H383.073V236.048H375.553V232.874H383.073V222.425H386.93ZM372.624 250.941C381.657 250.941 387.175 253.626 387.175 258.363C387.175 263.001 381.657 265.736 372.624 265.736C363.493 265.736 358.024 263.001 358.024 258.363C358.024 253.626 363.493 250.941 372.624 250.941ZM372.624 253.919C366.032 253.919 361.979 255.531 361.979 258.363C361.979 261.097 366.032 262.757 372.624 262.757C379.118 262.757 383.122 261.097 383.122 258.363C383.122 255.531 379.118 253.919 372.624 253.919Z" fill="black"/>
<path d="M733.262 226.234V230.091H743.419V222.474H747.276V254.163H743.419V242.591H733.262V246.497H713.341V226.234H733.262ZM717.149 229.407V243.421H729.503V229.407H717.149ZM748.253 261.683V264.906H719.2V251.331H723.057V261.683H748.253ZM733.262 239.417H743.419V233.314H733.262V239.417ZM790.44 222.425V246.009H786.632V236.195H777.842V232.972H786.632V222.425H790.44ZM766.368 248.109V253.529H786.632V248.109H790.44V265.247H762.51V248.109H766.368ZM766.368 262.122H786.632V256.605H766.368V262.122ZM769.591 229.505C769.591 235.072 773.936 240.54 780.284 242.738L778.282 245.716C773.375 243.934 769.591 240.296 767.735 235.804C765.855 240.833 761.851 244.862 756.7 246.741L754.698 243.714C761.094 241.419 765.733 235.657 765.733 229.505V228.236H755.919V225.062H779.307V228.236H769.591V229.505ZM813.341 231.751C813.341 237.611 817.979 242.884 824.473 244.935L822.52 248.011C817.467 246.302 813.438 242.738 811.485 238.148C809.581 243.104 805.504 247.01 800.352 248.89L798.35 245.814C804.844 243.519 809.483 237.904 809.483 231.751V229.212H799.327V226.087H823.35V229.212H813.341V231.751ZM833.555 222.474V254.31H829.747V222.474H833.555ZM834.923 261.683V264.906H805.528V251.282H809.337V261.683H834.923ZM877.794 222.425V249.915H874.132V237.464H868.321V248.353H864.708V223.304H868.321V234.29H874.132V222.425H877.794ZM862.95 227.65V230.726H840.684V227.65H849.962V222.767H853.77V227.65H862.95ZM851.866 233.07C857.384 233.07 861.143 235.95 861.192 240.491C861.143 244.935 857.384 247.865 851.866 247.865C846.397 247.865 842.54 244.935 842.589 240.491C842.54 235.95 846.397 233.07 851.866 233.07ZM851.866 235.902C848.399 235.902 846.007 237.757 846.007 240.491C846.007 243.177 848.399 244.984 851.866 244.984C855.333 244.984 857.725 243.177 857.725 240.491C857.725 237.757 855.333 235.902 851.866 235.902ZM863.438 250.648C872.569 250.648 878.038 253.382 878.038 258.265C878.038 263.001 872.569 265.736 863.438 265.736C854.307 265.736 848.839 263.001 848.887 258.265C848.839 253.382 854.307 250.648 863.438 250.648ZM863.438 253.675C856.7 253.626 852.647 255.286 852.696 258.265C852.647 261.097 856.7 262.757 863.438 262.757C870.176 262.757 874.18 261.097 874.229 258.265C874.18 255.286 870.176 253.626 863.438 253.675Z" fill="black"/>
<path d="M1224.42 222.425V233.558H1230.96V236.829H1224.42V247.669H1220.61V222.425H1224.42ZM1200.79 249.573V254.212H1220.61V249.573H1224.42V265.247H1196.98V249.573H1200.79ZM1200.79 262.171H1220.61V257.24H1200.79V262.171ZM1216.46 226.917V230.091H1190.58V226.917H1201.62V222.034H1205.43V226.917H1216.46ZM1203.52 232.093C1209.77 232.093 1213.92 235.072 1213.97 239.71C1213.92 244.349 1209.77 247.327 1203.52 247.327C1197.22 247.327 1193.03 244.349 1193.07 239.71C1193.03 235.072 1197.22 232.093 1203.52 232.093ZM1203.52 235.072C1199.42 235.023 1196.69 236.927 1196.74 239.71C1196.69 242.542 1199.42 244.398 1203.52 244.398C1207.58 244.398 1210.31 242.542 1210.36 239.71C1210.31 236.927 1207.58 235.023 1203.52 235.072ZM1256.6 225.404C1256.6 227.088 1256.4 228.699 1256.06 230.238H1265.83V222.474H1269.69V248.353H1265.83V242.591H1254.3V239.417H1265.83V233.411H1255.04C1252.08 240.247 1245.3 245.179 1235.9 247.767L1234.38 244.691C1244.98 241.761 1251.69 235.926 1252.5 228.529H1236.58V225.404H1256.6ZM1269.69 250.257V265.784H1265.83V253.333H1240.49V250.257H1269.69ZM1291.61 235.755C1291.56 242.738 1296.59 250.404 1302.89 253.382L1300.69 256.409C1295.81 254.041 1291.68 248.865 1289.75 242.982C1287.75 249.378 1283.38 254.993 1278.52 257.484L1276.18 254.456C1282.43 251.429 1287.8 243.177 1287.85 235.755V230.091H1277.74V226.917H1301.37V230.091H1291.61V235.755ZM1310.51 222.425V240.003H1317.78V243.275H1310.51V265.833H1306.7V222.425H1310.51ZM1338.29 224.281V230.531H1350.94V224.281H1354.74V243.177H1334.53V224.281H1338.29ZM1338.29 240.052H1350.94V233.509H1338.29V240.052ZM1366.61 222.425V231.849H1373.15V235.072H1366.61V244.886H1362.8V222.425H1366.61ZM1366.61 246.937V257.435H1342.78V262.22H1368.22V265.345H1339.02V254.505H1362.8V250.013H1338.92V246.937H1366.61ZM1415.63 257.337V260.511H1375.89V257.337H1386.97V246.986H1379.5V243.812H1386.29V229.652H1379.4V226.478H1411.82V229.652H1404.94V243.812H1411.73V246.986H1404.26V257.337H1415.63ZM1390.1 243.812H1401.18V229.652H1390.1V243.812ZM1390.83 257.337H1400.45V246.986H1390.83V257.337Z" fill="black"/>
<path d="M1825.43 244.202C1825.43 255.384 1818.84 262.366 1809.81 262.366C1800.72 262.366 1794.18 255.384 1794.18 244.202C1794.18 233.021 1800.72 226.038 1809.81 226.038C1818.84 226.038 1825.43 233.021 1825.43 244.202ZM1821.18 244.202C1821.18 235.072 1816.2 230.14 1809.81 230.14C1803.41 230.14 1798.43 235.072 1798.43 244.202C1798.43 253.333 1803.41 258.265 1809.81 258.265C1816.2 258.265 1821.18 253.333 1821.18 244.202ZM1828.46 230.433V226.527H1855.12V230.433H1844.03V261.878H1839.59V230.433H1828.46Z" fill="black"/>
<path d="M1732.2 376.342C1726.7 376.342 1723.55 371.728 1723.55 363.627C1723.55 355.595 1726.77 350.912 1732.2 350.912C1737.63 350.912 1740.85 355.595 1740.85 363.627C1740.85 371.728 1737.67 376.342 1732.2 376.342ZM1732.2 373.607C1735.75 373.607 1737.84 370.019 1737.84 363.627C1737.84 357.235 1735.75 353.578 1732.2 353.578C1728.65 353.578 1726.53 357.235 1726.53 363.627C1726.53 370.019 1728.61 373.607 1732.2 373.607ZM1753.19 350.912C1757.46 350.946 1762.18 353.51 1762.18 362.636C1762.18 371.42 1758.59 376.342 1752.78 376.342C1748.44 376.342 1745.36 373.676 1744.74 369.745H1747.79C1748.33 371.967 1750.01 373.607 1752.78 373.607C1756.81 373.607 1759.27 370.121 1759.3 364.105H1758.96C1757.53 366.156 1755.27 367.387 1752.64 367.387C1748.2 367.387 1744.54 364.003 1744.54 359.218C1744.54 354.604 1747.92 350.878 1753.19 350.912ZM1753.19 353.612C1749.94 353.612 1747.51 356.142 1747.55 359.184C1747.55 362.26 1749.84 364.687 1753.08 364.687C1756.3 364.687 1758.83 362.021 1758.83 359.115C1758.83 356.278 1756.47 353.612 1753.19 353.612ZM1775.27 350.092L1767.27 379.726H1764.6L1772.57 350.092H1775.27ZM1786.2 376.342C1780.7 376.342 1777.56 371.728 1777.56 363.627C1777.56 355.595 1780.77 350.912 1786.2 350.912C1791.64 350.912 1794.85 355.595 1794.85 363.627C1794.85 371.728 1791.67 376.342 1786.2 376.342ZM1786.2 373.607C1789.76 373.607 1791.84 370.019 1791.84 363.627C1791.84 357.235 1789.76 353.578 1786.2 353.578C1782.65 353.578 1780.53 357.235 1780.53 363.627C1780.53 370.019 1782.62 373.607 1786.2 373.607ZM1798.34 370.941V368.412L1809.48 351.254H1813.27V368.241H1816.73V370.941H1813.27V376H1810.34V370.941H1798.34ZM1801.65 368.241H1810.34V355.15H1810.03L1801.65 368.036V368.241ZM1830.36 366.566C1830.4 360.106 1832.14 354.74 1835.29 350.194H1837.88C1835.56 353.578 1833.41 360.482 1833.41 366.566C1833.41 372.65 1835.56 379.589 1837.88 382.973H1835.29C1832.14 378.393 1830.4 373.026 1830.36 366.566ZM1864.58 349.682V359.936H1855.59V363.832H1868.1V366.02H1840.41V363.832H1852.92V359.936H1844V349.682H1864.58ZM1846.63 351.835V357.782H1861.91V351.835H1846.63ZM1864.68 369.198V378.769H1861.98V371.352H1843.49V369.198H1864.68ZM1878.25 366.566C1878.22 373.026 1876.47 378.393 1873.33 382.973H1870.73C1873.05 379.589 1875.21 372.65 1875.21 366.566C1875.21 360.482 1873.05 353.578 1870.73 350.194H1873.33C1876.47 354.74 1878.22 360.106 1878.25 366.566Z" fill="black"/>
<path d="M1208.58 376.342C1203.07 376.342 1199.93 371.728 1199.93 363.627C1199.93 355.595 1203.14 350.912 1208.58 350.912C1214.01 350.912 1217.22 355.595 1217.22 363.627C1217.22 371.728 1214.05 376.342 1208.58 376.342ZM1208.58 373.607C1212.13 373.607 1214.22 370.019 1214.22 363.627C1214.22 357.235 1212.13 353.578 1208.58 353.578C1205.02 353.578 1202.9 357.235 1202.9 363.627C1202.9 370.019 1204.99 373.607 1208.58 373.607ZM1229.6 376.342C1224.4 376.342 1220.78 373.471 1220.81 369.438C1220.78 366.225 1223 363.593 1225.84 363.148V363.012C1223.38 362.431 1221.77 360.175 1221.77 357.475C1221.77 353.681 1225.09 350.912 1229.6 350.912C1234.11 350.912 1237.42 353.681 1237.46 357.475C1237.42 360.175 1235.78 362.431 1233.36 363.012V363.148C1236.16 363.593 1238.38 366.225 1238.42 369.438C1238.38 373.471 1234.76 376.342 1229.6 376.342ZM1229.6 373.642C1233.15 373.642 1235.34 371.864 1235.34 369.267C1235.34 366.532 1232.91 364.516 1229.6 364.516C1226.28 364.516 1223.82 366.532 1223.89 369.267C1223.82 371.864 1226.04 373.642 1229.6 373.642ZM1229.6 361.918C1232.4 361.918 1234.45 360.209 1234.45 357.714C1234.45 355.253 1232.5 353.578 1229.6 353.578C1226.66 353.578 1224.74 355.253 1224.74 357.714C1224.74 360.209 1226.76 361.918 1229.6 361.918ZM1251.4 350.092L1243.41 379.726H1240.74L1248.7 350.092H1251.4ZM1254.24 376L1254.21 373.744L1262.65 364.857C1265.59 361.747 1266.99 360.072 1266.99 357.782C1266.99 355.253 1264.84 353.578 1262.07 353.578C1259.13 353.578 1257.25 355.458 1257.25 358.227H1254.34C1254.31 353.852 1257.69 350.912 1262.17 350.912C1266.65 350.912 1269.86 353.92 1269.86 357.782C1269.86 360.551 1268.56 362.704 1264.19 367.216L1258.51 373.061V373.266H1270.31V376H1254.24ZM1273.62 370.941V368.412L1284.76 351.254H1288.56V368.241H1292.01V370.941H1288.56V376H1285.62V370.941H1273.62ZM1276.94 368.241H1285.62V355.15H1285.31L1276.94 368.036V368.241ZM1305.65 366.566C1305.68 360.106 1307.42 354.74 1310.57 350.194H1313.17C1310.84 353.578 1308.69 360.482 1308.69 366.566C1308.69 372.65 1310.84 379.589 1313.17 382.973H1310.57C1307.42 378.393 1305.68 373.026 1305.65 366.566ZM1324.31 349.511C1328.86 349.545 1332.17 352.279 1332.17 356.244C1332.17 360.209 1328.86 362.943 1324.31 362.943C1319.7 362.943 1316.41 360.209 1316.41 356.244C1316.41 352.279 1319.7 349.545 1324.31 349.511ZM1324.31 351.767C1321.27 351.767 1319.01 353.612 1319.05 356.244C1319.01 358.91 1321.27 360.756 1324.31 360.756C1327.32 360.756 1329.57 358.91 1329.57 356.244C1329.57 353.612 1327.32 351.767 1324.31 351.767ZM1340.78 348.383V364.003H1338.12V348.383H1340.78ZM1340.78 365.473V372.787H1323.73V376.205H1341.88V378.358H1321.1V370.771H1338.12V367.626H1321.03V365.473H1340.78ZM1353.53 366.566C1353.5 373.026 1351.76 378.393 1348.61 382.973H1346.01C1348.34 379.589 1350.49 372.65 1350.49 366.566C1350.49 360.482 1348.34 353.578 1346.01 350.194H1348.61C1351.76 354.74 1353.5 360.106 1353.53 366.566Z" fill="black"/>
<path d="M582.778 376.342C577.275 376.342 574.13 371.728 574.13 363.627C574.13 355.595 577.343 350.912 582.778 350.912C588.212 350.912 591.425 355.595 591.425 363.627C591.425 371.728 588.246 376.342 582.778 376.342ZM582.778 373.607C586.332 373.607 588.417 370.019 588.417 363.627C588.417 357.235 586.332 353.578 582.778 353.578C579.223 353.578 577.104 357.235 577.104 363.627C577.104 370.019 579.189 373.607 582.778 373.607ZM603.798 376.342C598.603 376.342 594.98 373.471 595.014 369.438C594.98 366.225 597.201 363.593 600.038 363.148V363.012C597.577 362.431 595.971 360.175 595.971 357.475C595.971 353.681 599.286 350.912 603.798 350.912C608.31 350.912 611.625 353.681 611.659 357.475C611.625 360.175 609.985 362.431 607.558 363.012V363.148C610.361 363.593 612.582 366.225 612.617 369.438C612.582 373.471 608.959 376.342 603.798 376.342ZM603.798 373.642C607.353 373.642 609.54 371.864 609.54 369.267C609.54 366.532 607.114 364.516 603.798 364.516C600.483 364.516 598.022 366.532 598.09 369.267C598.022 371.864 600.243 373.642 603.798 373.642ZM603.798 361.918C606.601 361.918 608.652 360.209 608.652 357.714C608.652 355.253 606.703 353.578 603.798 353.578C600.859 353.578 598.945 355.253 598.945 357.714C598.945 360.209 600.961 361.918 603.798 361.918ZM625.605 350.092L617.607 379.726H614.941L622.905 350.092H625.605ZM628.442 376L628.408 373.744L636.85 364.857C639.789 361.747 641.191 360.072 641.191 357.782C641.191 355.253 639.037 353.578 636.269 353.578C633.329 353.578 631.45 355.458 631.45 358.227H628.544C628.51 353.852 631.894 350.912 636.371 350.912C640.849 350.912 644.062 353.92 644.062 357.782C644.062 360.551 642.763 362.704 638.388 367.216L632.714 373.061V373.266H644.506V376H628.442ZM648.984 376L648.95 373.744L657.392 364.857C660.331 361.747 661.733 360.072 661.733 357.782C661.733 355.253 659.579 353.578 656.811 353.578C653.871 353.578 651.992 355.458 651.992 358.227H649.086C649.052 353.852 652.436 350.912 656.913 350.912C661.391 350.912 664.604 353.92 664.604 357.782C664.604 360.551 663.305 362.704 658.93 367.216L653.256 373.061V373.266H665.048V376H648.984ZM679.096 366.566C679.13 360.106 680.873 354.74 684.018 350.194H686.616C684.291 353.578 682.138 360.482 682.138 366.566C682.138 372.65 684.291 379.589 686.616 382.973H684.018C680.873 378.393 679.13 373.026 679.096 366.566ZM713.31 350.023V352.279C713.31 354.638 713.31 357.406 712.524 361.2H716.967V363.422H689.145V361.2H709.824C710.644 357.389 710.644 354.638 710.644 352.279V352.245H692.665V350.023H713.31ZM713.447 367.626V378.358H692.563V367.626H713.447ZM695.229 369.745V376.171H710.781V369.745H695.229ZM726.982 366.566C726.948 373.026 725.204 378.393 722.06 382.973H719.462C721.786 379.589 723.94 372.65 723.94 366.566C723.94 360.482 721.786 353.578 719.462 350.194H722.06C725.204 354.74 726.948 360.106 726.982 366.566ZM742.192 363.251C743.285 361.986 744.653 361.303 746.157 361.303C748.754 361.303 751.113 363.285 753.608 363.285C755.146 363.285 756.479 362.533 757.504 361.132V363.969C756.376 365.268 755.043 365.917 753.539 365.917C750.942 365.917 748.583 363.935 746.054 363.935C744.55 363.935 743.217 364.687 742.192 366.088V363.251ZM780.029 376.342C774.526 376.342 771.381 371.728 771.381 363.627C771.381 355.595 774.594 350.912 780.029 350.912C785.463 350.912 788.676 355.595 788.676 363.627C788.676 371.728 785.497 376.342 780.029 376.342ZM780.029 373.607C783.583 373.607 785.668 370.019 785.668 363.627C785.668 357.235 783.583 353.578 780.029 353.578C776.474 353.578 774.355 357.235 774.355 363.627C774.355 370.019 776.44 373.607 780.029 373.607ZM801.049 376.342C795.854 376.342 792.231 373.471 792.265 369.438C792.231 366.225 794.452 363.593 797.289 363.148V363.012C794.828 362.431 793.222 360.175 793.222 357.475C793.222 353.681 796.537 350.912 801.049 350.912C805.561 350.912 808.876 353.681 808.91 357.475C808.876 360.175 807.236 362.431 804.809 363.012V363.148C807.612 363.593 809.833 366.225 809.867 369.438C809.833 373.471 806.21 376.342 801.049 376.342ZM801.049 373.642C804.604 373.642 806.791 371.864 806.791 369.267C806.791 366.532 804.365 364.516 801.049 364.516C797.734 364.516 795.273 366.532 795.341 369.267C795.273 371.864 797.494 373.642 801.049 373.642ZM801.049 361.918C803.852 361.918 805.903 360.209 805.903 357.714C805.903 355.253 803.954 353.578 801.049 353.578C798.11 353.578 796.196 355.253 796.196 357.714C796.196 360.209 798.212 361.918 801.049 361.918ZM822.856 350.092L814.858 379.726H812.192L820.156 350.092H822.856ZM825.693 376L825.659 373.744L834.101 364.857C837.04 361.747 838.442 360.072 838.442 357.782C838.442 355.253 836.288 353.578 833.52 353.578C830.58 353.578 828.701 355.458 828.701 358.227H825.795C825.761 353.852 829.145 350.912 833.622 350.912C838.1 350.912 841.313 353.92 841.313 357.782C841.313 360.551 840.014 362.704 835.639 367.216L829.965 373.061V373.266H841.757V376H825.693ZM854.78 376.342C849.858 376.342 846.337 373.71 846.166 369.779H849.277C849.448 372.138 851.806 373.607 854.745 373.607C857.992 373.607 860.385 371.83 860.385 369.267C860.385 366.566 858.232 364.652 854.369 364.652H852.353V361.952H854.369C857.377 361.952 859.462 360.277 859.462 357.714C859.462 355.253 857.651 353.578 854.848 353.578C852.216 353.578 849.789 355.048 849.653 357.475H846.679C846.85 353.544 850.473 350.912 854.882 350.912C859.599 350.912 862.47 353.988 862.436 357.543C862.47 360.346 860.829 362.431 858.232 363.148V363.319C861.445 363.832 863.427 366.122 863.393 369.267C863.427 373.334 859.701 376.342 854.78 376.342ZM877.407 366.566C877.441 360.106 879.184 354.74 882.328 350.194H884.926C882.602 353.578 880.449 360.482 880.449 366.566C880.449 372.65 882.602 379.589 884.926 382.973H882.328C879.184 378.393 877.441 373.026 877.407 366.566ZM912.065 364.208V366.396H902.631V372.753H915.278V374.975H887.455V372.753H899.965V366.396H891.044V350.878H911.723V353.1H893.779V357.44H911.074V359.628H893.779V364.208H912.065ZM925.292 366.566C925.258 373.026 923.515 378.393 920.37 382.973H917.773C920.097 379.589 922.25 372.65 922.25 366.566C922.25 360.482 920.097 353.578 917.773 350.194H920.37C923.515 354.74 925.258 360.106 925.292 366.566Z" fill="black"/>
<path d="M83.552 376.342C78.0491 376.342 74.9046 371.728 74.9046 363.627C74.9046 355.595 78.1175 350.912 83.552 350.912C88.9866 350.912 92.1995 355.595 92.1995 363.627C92.1995 371.728 89.0208 376.342 83.552 376.342ZM83.552 373.607C87.1067 373.607 89.1917 370.019 89.1917 363.627C89.1917 357.235 87.1067 353.578 83.552 353.578C79.9974 353.578 77.8782 357.235 77.8782 363.627C77.8782 370.019 79.9632 373.607 83.552 373.607ZM104.573 376.342C99.3772 376.342 95.7542 373.471 95.7884 369.438C95.7542 366.225 97.9759 363.593 100.813 363.148V363.012C98.3519 362.431 96.7454 360.175 96.7454 357.475C96.7454 353.681 100.061 350.912 104.573 350.912C109.084 350.912 112.4 353.681 112.434 357.475C112.4 360.175 110.759 362.431 108.332 363.012V363.148C111.135 363.593 113.357 366.225 113.391 369.438C113.357 373.471 109.734 376.342 104.573 376.342ZM104.573 373.642C108.127 373.642 110.315 371.864 110.315 369.267C110.315 366.532 107.888 364.516 104.573 364.516C101.257 364.516 98.7962 366.532 98.8645 369.267C98.7962 371.864 101.018 373.642 104.573 373.642ZM104.573 361.918C107.375 361.918 109.426 360.209 109.426 357.714C109.426 355.253 107.478 353.578 104.573 353.578C101.633 353.578 99.719 355.253 99.719 357.714C99.719 360.209 101.736 361.918 104.573 361.918ZM126.379 350.092L118.381 379.726H115.715L123.679 350.092H126.379ZM137.317 376.342C131.814 376.342 128.669 371.728 128.669 363.627C128.669 355.595 131.882 350.912 137.317 350.912C142.751 350.912 145.964 355.595 145.964 363.627C145.964 371.728 142.785 376.342 137.317 376.342ZM137.317 373.607C140.871 373.607 142.956 370.019 142.956 363.627C142.956 357.235 140.871 353.578 137.317 353.578C133.762 353.578 131.643 357.235 131.643 363.627C131.643 370.019 133.728 373.607 137.317 373.607ZM149.45 370.941V368.412L160.593 351.254H164.387V368.241H167.839V370.941H164.387V376H161.448V370.941H149.45ZM152.766 368.241H161.448V355.15H161.14L152.766 368.036V368.241ZM181.477 366.566C181.511 360.106 183.254 354.74 186.399 350.194H188.996C186.672 353.578 184.519 360.482 184.519 366.566C184.519 372.65 186.672 379.589 188.996 382.973H186.399C183.254 378.393 181.511 373.026 181.477 366.566ZM216.579 348.417V366.327H213.879V364.652H207.727V362.875H213.879V348.417H216.579ZM191.423 359.867C197.302 359.901 204.822 359.833 211.384 359.115L211.555 360.858C208.581 361.286 205.488 361.542 202.463 361.679V366.43H199.831V361.781C196.96 361.884 194.209 361.901 191.731 361.884L191.423 359.867ZM216.579 367.421V373.71H198.84V376.444H217.571V378.427H196.208V371.83H213.913V369.369H196.072V367.421H216.579ZM201.335 348.998C205.847 348.998 208.855 350.775 208.889 353.578C208.855 356.415 205.847 358.124 201.335 358.124C196.755 358.124 193.782 356.415 193.782 353.578C193.782 350.775 196.755 348.998 201.335 348.998ZM201.335 350.878C198.259 350.878 196.277 351.938 196.311 353.578C196.277 355.185 198.259 356.278 201.335 356.278C204.377 356.278 206.36 355.185 206.36 353.578C206.36 351.938 204.377 350.878 201.335 350.878ZM229.363 366.566C229.328 373.026 227.585 378.393 224.441 382.973H221.843C224.167 379.589 226.321 372.65 226.321 366.566C226.321 360.482 224.167 353.578 221.843 350.194H224.441C227.585 354.74 229.328 360.106 229.363 366.566ZM244.573 363.251C245.666 361.986 247.033 361.303 248.537 361.303C251.135 361.303 253.493 363.285 255.989 363.285C257.527 363.285 258.86 362.533 259.885 361.132V363.969C258.757 365.268 257.424 365.917 255.92 365.917C253.323 365.917 250.964 363.935 248.435 363.935C246.931 363.935 245.598 364.687 244.573 366.088V363.251ZM282.409 376.342C276.907 376.342 273.762 371.728 273.762 363.627C273.762 355.595 276.975 350.912 282.409 350.912C287.844 350.912 291.057 355.595 291.057 363.627C291.057 371.728 287.878 376.342 282.409 376.342ZM282.409 373.607C285.964 373.607 288.049 370.019 288.049 363.627C288.049 357.235 285.964 353.578 282.409 353.578C278.855 353.578 276.736 357.235 276.736 363.627C276.736 370.019 278.821 373.607 282.409 373.607ZM303.43 376.342C298.235 376.342 294.612 373.471 294.646 369.438C294.612 366.225 296.833 363.593 299.67 363.148V363.012C297.209 362.431 295.603 360.175 295.603 357.475C295.603 353.681 298.918 350.912 303.43 350.912C307.942 350.912 311.257 353.681 311.291 357.475C311.257 360.175 309.617 362.431 307.19 363.012V363.148C309.992 363.593 312.214 366.225 312.248 369.438C312.214 373.471 308.591 376.342 303.43 376.342ZM303.43 373.642C306.985 373.642 309.172 371.864 309.172 369.267C309.172 366.532 306.745 364.516 303.43 364.516C300.115 364.516 297.654 366.532 297.722 369.267C297.654 371.864 299.875 373.642 303.43 373.642ZM303.43 361.918C306.233 361.918 308.283 360.209 308.283 357.714C308.283 355.253 306.335 353.578 303.43 353.578C300.491 353.578 298.576 355.253 298.576 357.714C298.576 360.209 300.593 361.918 303.43 361.918ZM325.237 350.092L317.239 379.726H314.573L322.536 350.092H325.237ZM336.824 351.254V376H333.713V354.467H333.576L327.561 358.466V355.355L333.713 351.254H336.824ZM351.487 376.342C347.009 376.342 343.625 373.573 343.454 369.779H346.428C346.667 372.001 348.821 373.642 351.487 373.642C354.7 373.642 357.024 371.283 357.024 368.173C357.024 364.96 354.597 362.602 351.282 362.567C349.197 362.533 347.59 363.183 346.667 364.789H343.694L345.437 351.254H358.835V353.988H348L347.077 361.234H347.317C348.41 360.38 350.085 359.799 351.828 359.799C356.545 359.799 360.032 363.285 360.032 368.104C360.032 372.89 356.409 376.342 351.487 376.342ZM373.874 366.566C373.909 360.106 375.652 354.74 378.796 350.194H381.394C379.07 353.578 376.916 360.482 376.916 366.566C376.916 372.65 379.07 379.589 381.394 382.973H378.796C375.652 378.393 373.909 373.026 373.874 366.566ZM408.088 350.023V352.279C408.088 354.638 408.088 357.406 407.302 361.2H411.745V363.422H383.923V361.2H404.602C405.422 357.389 405.422 354.638 405.422 352.279V352.245H387.444V350.023H408.088ZM408.225 367.626V378.358H387.341V367.626H408.225ZM390.007 369.745V376.171H405.559V369.745H390.007ZM421.76 366.566C421.726 373.026 419.983 378.393 416.838 382.973H414.241C416.565 379.589 418.718 372.65 418.718 366.566C418.718 360.482 416.565 353.578 414.241 350.194H416.838C419.983 354.74 421.726 360.106 421.76 366.566Z" fill="black"/>
<g clip-path="url(#clip0_38_5)">
<path d="M816.799 73.5956C816.799 68.3696 813.731 64.0638 807.871 63.1021C807.064 63.3705 806.206 63.5211 805.31 63.5211C804.415 63.5211 803.554 63.3705 802.747 63.1021C796.888 64.0638 793.822 68.3696 793.822 73.5956H805.31H816.799Z" fill="white"/>
<path d="M805.312 61.658C808.784 61.658 811.598 58.8435 811.598 55.3714V53.5872C811.598 50.1136 808.784 47.2991 805.312 47.2991C801.838 47.2991 799.023 50.1136 799.023 53.5872V55.3714C799.023 58.8435 801.838 61.658 805.312 61.658Z" fill="white"/>
<path d="M843.317 73.5956C843.317 68.3696 840.25 64.0638 834.391 63.1021C833.584 63.3705 832.724 63.5211 831.829 63.5211C830.933 63.5211 830.073 63.3705 829.267 63.1021C823.408 64.0638 820.342 68.3696 820.342 73.5956H831.829H843.317Z" fill="white"/>
<path d="M831.829 61.658C835.301 61.658 838.117 58.8435 838.117 55.3714V53.5872C838.117 50.1136 835.301 47.2991 831.829 47.2991C828.357 47.2991 825.541 50.1136 825.541 53.5872V55.3714C825.541 58.8435 828.357 61.658 831.829 61.658Z" fill="white"/>
<path d="M867.01 115.162L851.603 79.3755C851.276 78.6105 850.524 78.1152 849.691 78.1152H787.812C786.98 78.1152 786.227 78.6105 785.899 79.374L770.492 115.162C770.215 115.805 770.28 116.546 770.666 117.132C771.05 117.716 771.705 118.069 772.405 118.069H801.437C803.916 113.879 808.188 110.839 814.185 109.856C815.565 110.314 817.038 110.572 818.571 110.572C820.104 110.572 821.577 110.314 822.957 109.856C828.954 110.839 833.226 113.879 835.704 118.069H865.095C865.797 118.069 866.45 117.716 866.836 117.132C867.222 116.546 867.287 115.805 867.01 115.162ZM829.333 96.6224C829.333 102.566 824.516 107.385 818.571 107.385C812.626 107.385 807.809 102.566 807.809 96.6224V93.568C807.809 87.6243 812.626 82.806 818.571 82.806C824.516 82.806 829.333 87.6243 829.333 93.568V96.6224Z" fill="white"/>
</g>
<g clip-path="url(#clip1_38_5)">
<path d="M1360.49 32.8311H1358.92L1280.58 55.811C1279.48 56.1557 1278.53 56.855 1277.86 57.7998C1277.2 58.7446 1276.87 59.8817 1276.93 61.0337V84.5359C1276.95 85.6701 1277.31 86.7714 1277.96 87.7008C1278.61 88.6303 1279.52 89.3463 1280.58 89.7586L1292.85 93.1533L1297.03 120.05C1297.23 121.92 1298.11 123.651 1299.51 124.906C1300.91 126.16 1302.73 126.85 1304.61 126.84H1316.36C1318.54 126.754 1320.6 125.816 1322.1 124.228C1322.82 123.268 1323.33 122.168 1323.6 120.999C1323.87 119.83 1323.89 118.617 1323.67 117.439L1320.8 101.51L1358.92 112.738H1360.49C1361.87 112.738 1363.2 112.188 1364.18 111.209C1365.16 110.229 1365.71 108.901 1365.71 107.516V38.0538C1365.71 36.6686 1365.16 35.3402 1364.18 34.3608C1363.2 33.3813 1361.87 32.8311 1360.49 32.8311ZM1312.96 116.394H1306.96L1303.82 96.5481L1309.31 98.1149L1312.96 116.394ZM1355.27 100.726L1287.37 80.6188V64.9507L1355.27 45.1044V100.726Z" fill="white"/>
<path d="M1376.16 57.1167C1376.98 57.1936 1377.8 57.0109 1378.51 56.5944L1388.95 51.3717C1390.2 50.7484 1391.15 49.6554 1391.59 48.3331C1392.03 47.0109 1391.93 45.5677 1391.3 44.321C1390.68 43.0744 1389.59 42.1265 1388.26 41.6857C1386.94 41.245 1385.5 41.3475 1384.25 41.9708L1373.81 47.1935C1373.19 47.4988 1372.63 47.9243 1372.18 48.4451C1371.72 48.966 1371.38 49.5719 1371.16 50.2278C1370.94 50.8837 1370.85 51.5764 1370.9 52.2659C1370.96 52.9553 1371.14 53.6278 1371.46 54.2442C1371.92 55.0951 1372.59 55.809 1373.42 56.3135C1374.25 56.818 1375.19 57.0951 1376.16 57.1167Z" fill="white"/>
<path d="M1388.95 94.459L1378.51 89.2363C1377.28 88.6493 1375.88 88.538 1374.58 88.9239C1373.28 89.3099 1372.16 90.1657 1371.46 91.3254C1371.14 91.9418 1370.96 92.6143 1370.9 93.3037C1370.85 93.9932 1370.94 94.6859 1371.16 95.3418C1371.38 95.9977 1371.72 96.6036 1372.18 97.1245C1372.63 97.6453 1373.19 98.0708 1373.81 98.3761L1384.25 103.599C1384.96 104.015 1385.78 104.198 1386.6 104.121C1387.57 104.099 1388.51 103.822 1389.34 103.318C1390.17 102.813 1390.84 102.099 1391.3 101.249C1391.61 100.652 1391.79 99.9982 1391.84 99.3281C1391.89 98.658 1391.8 97.9851 1391.58 97.3503C1391.36 96.7154 1391.02 96.1318 1390.56 95.6348C1390.11 95.1378 1389.56 94.7378 1388.95 94.459Z" fill="white"/>
<path d="M1376.16 78.0074H1386.6C1387.99 78.0074 1389.32 77.4572 1390.29 76.4777C1391.27 75.4983 1391.82 74.1699 1391.82 72.7847C1391.82 71.3996 1391.27 70.0712 1390.29 69.0917C1389.32 68.1123 1387.99 67.562 1386.6 67.562H1376.16C1374.77 67.562 1373.44 68.1123 1372.46 69.0917C1371.48 70.0712 1370.93 71.3996 1370.93 72.7847C1370.93 74.1699 1371.48 75.4983 1372.46 76.4777C1373.44 77.4572 1374.77 78.0074 1376.16 78.0074Z" fill="white"/>
</g>
<path fill-rule="evenodd" clip-rule="evenodd" d="M316.556 28.6919C317.402 27.8461 318.549 27.3708 319.746 27.3708H355.83C363.303 27.3708 369.361 33.4292 369.361 40.9024V113.071C369.361 120.544 363.303 126.602 355.83 126.602H301.703C294.23 126.602 288.172 120.544 288.172 113.071V58.9445C288.172 57.7482 288.647 56.601 289.493 55.7551L316.556 28.6919ZM355.83 36.3919H324.256V58.9445C324.256 61.4356 322.237 63.455 319.746 63.455H297.193V113.071C297.193 115.562 299.212 117.581 301.703 117.581H355.83C358.321 117.581 360.34 115.562 360.34 113.071V40.9024C360.34 38.4113 358.321 36.3919 355.83 36.3919ZM303.572 54.434H315.235V42.7707L303.572 54.434ZM306.214 81.4971C306.214 79.0059 308.233 76.9866 310.724 76.9866H346.809C349.3 76.9866 351.319 79.0059 351.319 81.4971C351.319 83.9883 349.3 86.0076 346.809 86.0076H310.724C308.233 86.0076 306.214 83.9883 306.214 81.4971ZM306.214 99.5392C306.214 97.048 308.233 95.0287 310.724 95.0287H346.809C349.3 95.0287 351.319 97.048 351.319 99.5392C351.319 102.03 349.3 104.05 346.809 104.05H310.724C308.233 104.05 306.214 102.03 306.214 99.5392Z" fill="#222222"/>
<path d="M1893.46 63.7799H1791.68C1792.92 55.2906 1799.55 48.5105 1807.97 47.0462V52.55C1807.97 56.8403 1811.45 60.3272 1815.75 60.3272C1820.05 60.3272 1823.53 56.846 1823.53 52.55V46.7329H1861.62V52.55C1861.62 56.8403 1865.1 60.3272 1869.4 60.3272C1873.69 60.3272 1877.17 56.846 1877.17 52.55V47.0462C1885.6 48.5105 1892.22 55.2906 1893.46 63.7799Z" fill="white"/>
<path d="M1893.7 70.1211V105.229C1893.7 106.255 1893.64 107.252 1893.45 108.215C1892.05 117.855 1883.72 125.256 1873.68 125.256H1811.45C1801.4 125.256 1793.07 117.855 1791.67 108.215C1791.48 107.252 1791.42 106.255 1791.42 105.229V70.1211H1893.7Z" fill="white"/>
<path d="M1874.05 32.5176V52.5443C1874.05 55.0911 1871.96 57.2105 1869.38 57.2105C1866.83 57.2105 1864.71 55.0968 1864.71 52.5443V36.5913H1820.4V52.5443C1820.4 55.0911 1818.31 57.2105 1815.73 57.2105C1813.18 57.2105 1811.07 55.0968 1811.07 52.5443V32.5176C1811.07 29.9708 1813.18 27.8513 1815.73 27.8513H1869.37C1871.96 27.857 1874.05 29.9708 1874.05 32.5176Z" fill="white"/>
<defs>
<linearGradient id="paint0_linear_38_5" x1="0.601562" y1="162.481" x2="597.737" y2="162.481" gradientUnits="userSpaceOnUse">
<stop stop-color="#F4F4F0"/>
<stop offset="1" stop-color="#E0E0DC"/>
</linearGradient>
<linearGradient id="paint1_linear_38_5" x1="498.594" y1="162.481" x2="1095.77" y2="162.481" gradientUnits="userSpaceOnUse">
<stop stop-color="#C1C1C1"/>
<stop offset="1" stop-color="#898787"/>
</linearGradient>
<linearGradient id="paint2_linear_38_5" x1="1000.02" y1="162.481" x2="1597.2" y2="162.481" gradientUnits="userSpaceOnUse">
<stop stop-color="#826546" stop-opacity="0.64"/>
<stop offset="1" stop-color="#826546"/>
</linearGradient>
<linearGradient id="paint3_linear_38_5" x1="1524.88" y1="162.481" x2="2122.06" y2="162.481" gradientUnits="userSpaceOnUse">
<stop stop-color="#15273D" stop-opacity="0.76"/>
<stop offset="1" stop-color="#15273D"/>
</linearGradient>
<clipPath id="clip0_38_5">
<rect width="96.8575" height="96.8575" fill="white" transform="translate(770.322 34.2554)"/>
</clipPath>
<clipPath id="clip1_38_5">
<rect width="125.345" height="125.345" fill="white" transform="translate(1271.7 17.1628)"/>
</clipPath>
</defs>
</svg>
