<?xml version="1.0" encoding="UTF-8"?><svg id="_레이어_2" xmlns="http://www.w3.org/2000/svg" viewBox="0 0 264.6 207.25"><defs><style>.cls-1{stroke:#000;stroke-miterlimit:10;stroke-width:.5px;}</style></defs><g id="_레이어_2-2"><polygon points="132.12 0 19.72 60.37 244.88 60.37 132.12 0"/><rect x="5.24" y="62.69" width="254.13" height="11.78"/><polygon points="259.36 195.02 259.36 182.99 5.24 182.99 5.24 195.02 0 195.02 0 207.25 264.6 207.25 264.6 195.02 259.36 195.02"/><path class="cls-1" d="M85.74,120.19v-25.86c0-2.58-.33-4.56-.99-5.95-.66-1.38-1.56-2.44-2.7-3.18-1.14-.64-2.48-1.04-4.05-1.18s-3.29-.21-5.18-.21v-5.95c3.78.09,7.85.16,12.21.21,4.35.05,8.23.07,11.64.07,1.51,0,3.19-.02,5.04-.07,1.85-.05,3.71-.07,5.61-.07s3.78-.02,5.68-.07c1.89-.05,3.64-.07,5.25-.07v5.95c-1.89,0-3.62.07-5.18.21-1.56.14-2.91.53-4.05,1.18-1.14.74-2.04,1.8-2.7,3.18-.66,1.38-.99,3.37-.99,5.95v68.46c0,2.58.33,4.56.99,5.95.66,1.38,1.56,2.4,2.7,3.04,1.14.74,2.48,1.18,4.05,1.31,1.56.14,3.29.21,5.18.21v5.95c-3.22-.09-6.89-.16-11-.21-4.12-.05-7.79-.07-11-.07s-7.12.02-11.43.07c-4.31.05-8.31.11-12,.21v-5.95c1.89,0,3.62-.07,5.18-.21s2.91-.57,4.05-1.31c1.14-.64,2.03-1.66,2.7-3.04.66-1.38.99-3.36.99-5.95v-32.36h-43.16v32.36c0,2.58.33,4.56.99,5.95.66,1.38,1.56,2.4,2.7,3.04,1.14.74,2.48,1.18,4.05,1.31s3.29.21,5.18.21v5.95c-3.41,0-7.15-.05-11.21-.14-4.07-.09-7.67-.14-10.79-.14-3.41,0-7.31.02-11.71.07-4.4.05-8.3.11-11.71.21v-5.95c1.89,0,3.62-.07,5.18-.21s2.91-.57,4.05-1.31c1.14-.64,2.03-1.66,2.7-3.04.66-1.38.99-3.36.99-5.95v-68.46c0-2.58-.33-4.56-.99-5.95-.66-1.38-1.56-2.44-2.7-3.18-1.14-.64-2.48-1.04-4.05-1.18s-3.29-.21-5.18-.21v-5.95c1.7,0,3.52.02,5.46.07,1.94.05,3.9.07,5.89.07,1.99.09,3.93.14,5.82.14h10.65c1.99,0,4.02-.05,6.1-.14,1.99,0,3.98-.02,5.96-.07,1.99-.05,3.83-.07,5.54-.07v5.95c-1.89,0-3.62.07-5.18.21s-2.91.53-4.05,1.18c-1.14.74-2.04,1.8-2.7,3.18-.66,1.38-.99,3.37-.99,5.95v25.86h43.16Z"/><path class="cls-1" d="M139.96,94.33c0-2.58-.33-4.56-.99-5.95-.66-1.38-1.56-2.44-2.7-3.18-1.14-.64-2.48-1.04-4.05-1.18s-3.29-.21-5.18-.21v-5.95c1.7,0,3.52.02,5.46.07,1.94.05,3.9.07,5.89.07,1.99.09,3.93.14,5.82.14h10.65c1.99,0,4.02-.05,6.1-.14,1.99,0,3.98-.02,5.96-.07,1.99-.05,3.83-.07,5.54-.07v5.95c-1.89,0-3.62.07-5.18.21s-2.91.53-4.05,1.18c-1.14.74-2.04,1.8-2.7,3.18-.66,1.38-.99,3.37-.99,5.95v68.46c0,2.58.33,4.56.99,5.95.66,1.38,1.56,2.4,2.7,3.04,1.14.74,2.48,1.18,4.05,1.31s3.29.21,5.18.21v5.95c-3.41,0-7.15-.05-11.21-.14-4.07-.09-7.67-.14-10.79-.14-3.41,0-7.31.02-11.71.07-4.4.05-8.3.11-11.71.21v-5.95c1.89,0,3.62-.07,5.18-.21s2.91-.57,4.05-1.31c1.14-.64,2.03-1.66,2.7-3.04.66-1.38.99-3.36.99-5.95v-68.46Z"/><path class="cls-1" d="M215.2,162.79c0,2.58.33,4.56.99,5.95.66,1.38,1.56,2.4,2.7,3.04,1.14.74,2.48,1.18,4.05,1.31s3.29.21,5.18.21v5.95c-1.7,0-3.69-.02-5.96-.07-2.27-.05-4.59-.07-6.96-.07-2.46-.09-4.83-.14-7.1-.14h-5.82c-3.22,0-6.51.02-9.87.07-3.36.05-6.79.11-10.29.21v-5.95c3.12,0,5.56-.18,7.31-.55,1.75-.37,3.1-1.15,4.05-2.35.94-1.2,1.54-2.88,1.77-5.05.23-2.17.35-5,.35-8.5v-60.02c0-2.95-.17-5.28-.5-6.98-.33-1.71-.97-2.97-1.92-3.8-1.04-.83-2.44-1.38-4.19-1.66-1.75-.28-4.05-.46-6.88-.55v-5.95c5.11,0,10.58.05,16.4.14,5.82.09,11.33.14,16.54.14h19.45c6.43,0,12.82-.09,19.17-.28l.85,20.47-5.39.55c-.28-2.21-.88-4.1-1.77-5.67-.9-1.57-2.15-2.81-3.76-3.73-1.7-.92-3.79-1.59-6.25-2.01-2.46-.41-5.44-.62-8.94-.62h-13.2v34.02h10.36c2.93,0,5.25-.11,6.96-.35,1.7-.23,3.03-.71,3.97-1.45.95-.74,1.66-1.73,2.13-2.97.47-1.24.94-2.93,1.42-5.05h5.39c-.09.65-.17,1.59-.21,2.83-.05,1.25-.07,2.61-.07,4.08-.1,1.48-.17,3-.21,4.56-.05,1.57-.07,3-.07,4.29,0,2.4.05,5.07.14,8.02.09,2.95.24,5.39.43,7.33h-4.97c-.38-2.12-.76-3.89-1.13-5.32-.38-1.43-.99-2.56-1.85-3.39-.95-.83-2.3-1.43-4.05-1.8-1.75-.37-4.19-.55-7.31-.55h-10.93v31.67Z"/></g></svg>